<svg width="256" height="256" viewBox="0 0 256 256" fill="none" xmlns="http://www.w3.org/2000/svg">
<mask id="mask0_83_210" style="mask-type:alpha" maskUnits="userSpaceOnUse" x="1" y="1" width="254" height="254">
<path d="M106.429 254.324C77.8036 252.299 57.2862 246.329 40.0761 235.018C21.6571 222.911 8.93954 200.243 3.9843 170.687C1.69292 157.021 0.962957 146.366 1.00143 127.164C1.07014 93.0812 4.72734 71.9613 13.9373 52.4684C22.7757 33.762 33.8514 22.6792 52.4395 13.9416C72.1839 4.66056 93.5545 1 127.994 1C162.433 1 183.803 4.66056 203.548 13.9416C222.119 22.6715 233.122 33.6726 242.078 52.4684C251.216 71.6451 254.915 93.0336 254.999 127.164C255.1 168.687 249.55 193.658 235.416 215.277C222.216 235.466 198.18 248.266 165.151 252.695C147.932 255.004 125.031 255.639 106.429 254.324Z" fill="white"/>
</mask>
<g mask="url(#mask0_83_210)">
<rect x="1" y="1" width="254" height="254" fill="url(#paint0_linear_83_210)"/>
<g filter="url(#filter0_d_83_210)">
<path d="M197.202 139.764C205.125 145.984 216.147 144.602 222.348 136.654C228.203 129.053 226.826 117.65 218.903 111.776L138.989 49.5794C132.444 44.3963 123.488 44.3963 116.943 49.5794L37.0285 111.776C29.106 117.996 27.7283 129.053 33.9285 137C37.3731 141.492 42.54 143.911 48.0512 143.911C51.8404 143.911 55.9738 142.529 59.074 140.11L65.2742 135.273L74.2303 197.469C74.5747 200.579 76.297 203.689 78.0193 206.108C79.7416 208.181 82.1528 209.563 84.5641 209.563H104.543C113.499 209.563 112.81 200.579 112.81 200.579L111.087 171.208C110.743 167.062 113.154 163.607 116.599 163.607H140.022C143.467 163.607 145.878 167.062 145.878 171.208L144.5 200.579C144.5 201.616 144.5 209.217 152.767 209.217H173.09C175.501 209.217 177.913 208.181 179.635 205.762C181.357 203.343 182.735 200.233 183.079 197.123L191.002 134.927L197.202 139.764Z" fill="white"/>
</g>
</g>
<defs>
<filter id="filter0_d_83_210" x="-17.9501" y="-2.30789" width="291.9" height="259.871" filterUnits="userSpaceOnUse" color-interpolation-filters="sRGB">
<feFlood flood-opacity="0" result="BackgroundImageFix"/>
<feColorMatrix in="SourceAlpha" type="matrix" values="0 0 0 0 0 0 0 0 0 0 0 0 0 0 0 0 0 0 127 0" result="hardAlpha"/>
<feOffset/>
<feGaussianBlur stdDeviation="24"/>
<feComposite in2="hardAlpha" operator="out"/>
<feColorMatrix type="matrix" values="0 0 0 0 0 0 0 0 0 0 0 0 0 0 0 0 0 0 0.25 0"/>
<feBlend mode="normal" in2="BackgroundImageFix" result="effect1_dropShadow_83_210"/>
<feBlend mode="normal" in="SourceGraphic" in2="effect1_dropShadow_83_210" result="shape"/>
</filter>
<linearGradient id="paint0_linear_83_210" x1="128" y1="0.999996" x2="278.836" y2="492.613" gradientUnits="userSpaceOnUse">
<stop stop-color="#2185C9"/>
<stop offset="1" stop-color="#003153"/>
</linearGradient>
</defs>
</svg>
