<svg width="256" height="256" viewBox="0 0 256 256" fill="none" xmlns="http://www.w3.org/2000/svg">
<path d="M106.429 254.324C77.8036 252.299 57.2862 246.329 40.0761 235.018C21.6571 222.911 8.93954 200.243 3.9843 170.687C1.69292 157.021 0.962957 146.366 1.00143 127.164C1.07014 93.0812 4.72734 71.9613 13.9373 52.4684C22.7757 33.762 33.8514 22.6792 52.4395 13.9416C72.1839 4.66056 93.5545 1 127.994 1C162.433 1 183.803 4.66056 203.548 13.9416C222.119 22.6715 233.122 33.6726 242.078 52.4684C251.216 71.6451 254.915 93.0336 254.999 127.164C255.1 168.687 249.55 193.658 235.416 215.277C222.216 235.466 198.18 248.266 165.151 252.695C147.932 255.004 125.031 255.639 106.429 254.324Z" fill="url(#paint0_linear_83_210)"/>
<path d="M197.152 140.137C205.075 146.357 216.098 144.974 222.298 137.027C228.154 129.425 226.776 118.022 218.853 112.148L138.939 49.9518C132.394 44.7688 123.438 44.7688 116.893 49.9518L36.9786 112.148C29.0561 118.368 27.6784 129.425 33.8786 137.373C37.3232 141.864 42.4901 144.284 48.0014 144.284C51.7906 144.284 55.9239 142.901 59.0241 140.482L65.2243 135.645L74.1804 197.842C74.5248 200.951 76.2471 204.061 77.9694 206.48C79.6917 208.553 82.1029 209.935 84.5142 209.935H104.493C113.449 209.935 112.76 200.951 112.76 200.951L111.037 171.581C110.693 167.434 113.104 163.979 116.549 163.979H139.972C143.417 163.979 145.828 167.434 145.828 171.581L144.45 200.951C144.45 201.988 144.45 209.59 152.717 209.59H173.04C175.451 209.59 177.863 208.553 179.585 206.134C181.307 203.716 182.685 200.606 183.03 197.496L190.952 135.299L197.152 140.137Z" fill="white"/>
<defs>
<linearGradient id="paint0_linear_83_210" x1="128" y1="1" x2="128" y2="255" gradientUnits="userSpaceOnUse">
<stop stop-color="#3167CA"/>
<stop offset="1" stop-color="#2752A1"/>
</linearGradient>
</defs>
</svg>
