<svg width="341" height="341" viewBox="0 0 341 341" fill="none" xmlns="http://www.w3.org/2000/svg">
<g clip-path="url(#clip0_1_7)">
<rect width="341" height="341" fill="url(#paint0_linear_1_7)"/>
<g filter="url(#filter0_d_1_7)">
<path d="M263.405 186.294C274.042 194.644 288.84 192.788 297.164 182.119C305.025 171.913 303.176 156.605 292.539 148.719L185.252 65.2188C176.466 58.2604 164.442 58.2604 155.656 65.2188L48.3689 148.719C37.7328 157.069 35.8832 171.913 44.2071 182.583C48.8316 188.613 55.7682 191.861 63.1672 191.861C68.2542 191.861 73.8033 190.005 77.9655 186.758L86.2894 180.264L98.3131 263.764C98.7754 267.938 101.088 272.114 103.4 275.361C105.712 278.144 108.949 280 112.186 280H139.008C151.031 280 150.107 267.938 150.107 267.938L147.794 228.508C147.332 222.941 150.569 218.302 155.194 218.302H186.64C191.264 218.302 194.501 222.941 194.501 228.508L192.651 267.938C192.651 269.33 192.651 279.536 203.75 279.536H231.034C234.271 279.536 237.509 278.144 239.821 274.897C242.133 271.65 243.983 267.475 244.445 263.3L255.081 179.799L263.405 186.294Z" fill="white"/>
</g>
</g>
<defs>
<filter id="filter0_d_1_7" x="-33" y="-12" width="407" height="364" filterUnits="userSpaceOnUse" color-interpolation-filters="sRGB">
<feFlood flood-opacity="0" result="BackgroundImageFix"/>
<feColorMatrix in="SourceAlpha" type="matrix" values="0 0 0 0 0 0 0 0 0 0 0 0 0 0 0 0 0 0 127 0" result="hardAlpha"/>
<feOffset/>
<feGaussianBlur stdDeviation="36"/>
<feComposite in2="hardAlpha" operator="out"/>
<feColorMatrix type="matrix" values="0 0 0 0 0 0 0 0 0 0 0 0 0 0 0 0 0 0 0.25 0"/>
<feBlend mode="normal" in2="BackgroundImageFix" result="effect1_dropShadow_1_7"/>
<feBlend mode="normal" in="SourceGraphic" in2="effect1_dropShadow_1_7" result="shape"/>
</filter>
<linearGradient id="paint0_linear_1_7" x1="170.5" y1="-6.03497e-06" x2="373" y2="660" gradientUnits="userSpaceOnUse">
<stop stop-color="#2185C9"/>
<stop offset="1" stop-color="#003153"/>
</linearGradient>
<clipPath id="clip0_1_7">
<rect width="341" height="341" fill="white"/>
</clipPath>
</defs>
</svg>
