<svg width="192" height="192" viewBox="0 0 192 192" fill="none" xmlns="http://www.w3.org/2000/svg">
<path d="M79.8641 190.494C58.4515 188.98 43.1039 184.514 30.2301 176.052C16.4521 166.996 6.93903 150.04 3.23235 127.931C1.51833 117.708 0.97229 109.739 1.00107 95.3749C1.05247 69.8796 3.78817 54.0812 10.6775 39.5C17.2889 25.507 25.5739 17.2167 39.4783 10.6808C54.2478 3.73821 70.2337 1 95.9953 1C121.757 1 137.743 3.73821 152.512 10.6808C166.404 17.211 174.634 25.4402 181.334 39.5C188.169 53.8448 190.937 69.844 190.999 95.3749C191.075 126.436 186.923 145.115 176.35 161.286C166.477 176.388 148.497 185.963 123.79 189.276C110.91 191.003 93.7794 191.478 79.8641 190.494Z" fill="url(#paint0_linear_118_423)"/>
<path d="M60.5683 64.9219C42.9557 64.9219 28.6772 79.2004 28.6772 96.8131C28.6772 114.427 42.9557 128.704 60.5683 128.704C78.181 128.704 92.4595 114.427 92.4595 96.8131C92.4595 79.2004 78.1819 64.9219 60.5683 64.9219ZM60.5683 106.341C55.2242 106.341 50.8929 102.009 50.8929 96.6655C50.8929 91.3223 55.2251 87.2626 60.5683 87.2626C65.9116 87.2626 70.2438 91.3223 70.2438 96.6655C70.2438 102.009 65.9125 106.341 60.5683 106.341Z" fill="white"/>
<path d="M116.89 134.62H98.5231V57.2316H116.89V134.62Z" fill="white"/>
<path d="M124.606 115.635H136.974L143.964 108.644L150.955 115.635H163.323V103.402L156.265 96.3442L163.323 89.2859V76.8816H151.126L143.964 84.0432L136.801 76.8816H124.604V89.2859L131.663 96.3442L124.604 103.402V115.635H124.606Z" fill="white"/>
<defs>
<linearGradient id="paint0_linear_118_423" x1="96" y1="1" x2="96" y2="191" gradientUnits="userSpaceOnUse">
<stop stop-color="#3A77FF"/>
<stop offset="1" stop-color="#115BFF"/>
</linearGradient>
</defs>
</svg>
