<svg width="256" height="256" viewBox="0 0 256 256" fill="none" xmlns="http://www.w3.org/2000/svg">
<path d="M106.429 254.324C77.8036 252.299 57.2862 246.329 40.0761 235.018C21.6571 222.911 8.93954 200.243 3.9843 170.687C1.69292 157.021 0.962957 146.366 1.00143 127.164C1.07014 93.0812 4.72734 71.9613 13.9373 52.4684C22.7757 33.762 33.8514 22.6792 52.4395 13.9416C72.1839 4.66056 93.5545 1 127.994 1C162.433 1 183.803 4.66056 203.548 13.9416C222.119 22.6715 233.122 33.6726 242.078 52.4684C251.216 71.6451 254.915 93.0336 254.999 127.164C255.1 168.687 249.55 193.658 235.416 215.277C222.216 235.466 198.18 248.266 165.151 252.695C147.932 255.004 125.031 255.639 106.429 254.324Z" fill="url(#paint0_linear_99_96)"/>
<path d="M32 108C32 105.791 33.7909 104 36 104H49.6132C53.81 104 57.1585 104.608 59.6588 105.823C62.159 106.993 63.9449 108.546 65.0164 110.481C66.1326 112.416 66.6906 114.509 66.6906 116.759C66.6906 119.1 66.1549 121.193 65.0834 123.038C64.0118 124.838 62.4492 126.256 60.3954 127.291C58.6562 128.13 56.5647 128.613 54.121 128.742C53.4036 128.779 52.8509 128.14 52.9517 127.429V127.429C53.0343 126.847 53.5335 126.411 54.1216 126.43C57.0182 126.527 59.4666 127.039 61.467 127.966C63.6993 129.001 65.3736 130.464 66.4897 132.354C67.6506 134.2 68.231 136.338 68.231 138.768C68.231 141.063 67.6729 143.224 66.5567 145.249C65.4405 147.274 63.5877 148.917 60.9982 150.177C58.4533 151.392 55.0378 152 50.7517 152H36C33.7909 152 32 150.209 32 148V108ZM58.6542 137.688C58.6542 135.842 57.9622 134.402 56.5781 133.367C55.2387 132.332 53.1403 131.814 50.2829 131.814H42.1106C39.9295 131.814 38.1613 130.046 38.1613 127.865V127.865C38.1613 125.684 39.9295 123.916 42.1106 123.916H49.2784C51.9572 123.916 53.9216 123.398 55.1717 122.363C56.4665 121.283 57.1139 119.865 57.1139 118.11C57.1139 116.354 56.4665 114.982 55.1717 113.992C53.9216 112.956 51.9572 112.439 49.2784 112.439H45.3759C43.1667 112.439 41.3759 114.23 41.3759 116.439V139.561C41.3759 141.77 43.1667 143.561 45.3759 143.561H50.2829C53.1403 143.561 55.2387 143.044 56.5781 142.008C57.9622 140.928 58.6542 139.488 58.6542 137.688Z" fill="white"/>
<path d="M91.0575 110.948C90.6892 109.857 91.5012 108.726 92.6533 108.726V108.726C93.8045 108.726 94.6164 109.855 94.2499 110.946L81.3787 149.273C80.8316 150.902 79.3052 152 77.5868 152H76.3615C73.5953 152 71.6641 149.26 72.5946 146.655L86.8816 106.655C87.4502 105.063 88.9581 104 90.6485 104H95.1235C96.8139 104 98.3218 105.063 98.8904 106.655L113.177 146.655C114.108 149.26 112.177 152 109.41 152H107.779C106.063 152 104.538 150.905 103.989 149.279L91.0575 110.948ZM105.845 138.616C105.845 140.825 104.054 142.616 101.845 142.616H85.0657C82.8566 142.616 81.0657 140.825 81.0657 138.616V138.245C81.0657 136.036 82.8566 134.245 85.0657 134.245H101.845C104.054 134.245 105.845 136.036 105.845 138.245V138.616Z" fill="white"/>
<path d="M120.618 108C120.618 105.791 122.409 104 124.618 104H137.294C143.053 104 147.562 105.44 150.822 108.321C154.081 111.156 155.71 115.004 155.71 119.865C155.71 123.826 154.617 127.066 152.429 129.586C150.286 132.062 147.272 133.727 143.388 134.582L141.245 135.055C140.664 135.19 140.151 135.302 139.705 135.392C139.375 135.429 138.986 135.481 138.536 135.548C138.333 135.579 138.128 135.595 137.923 135.595H131.851C129.642 135.595 127.851 133.804 127.851 131.595V131.021C127.851 128.812 129.642 127.021 131.851 127.021H136.758C139.883 127.021 142.227 126.414 143.79 125.198C145.352 123.938 146.134 122.115 146.134 119.73C146.134 117.435 145.352 115.679 143.79 114.464C142.227 113.204 139.883 112.574 136.758 112.574H134.061C131.852 112.574 130.061 114.365 130.061 116.574V148C130.061 150.209 128.27 152 126.061 152H124.618C122.409 152 120.618 150.209 120.618 148V108ZM139.144 136.798C137.954 134.282 139.633 131.35 142.406 131.104L143.112 131.041C144.736 130.896 146.285 131.751 147.028 133.203L153.668 146.178C155.03 148.839 153.097 152 150.107 152H148.868C147.321 152 145.913 151.108 145.252 149.71L139.144 136.798Z" fill="white"/>
<path d="M195.783 127.966C195.783 123.105 194.533 119.392 192.033 116.827C189.533 114.262 185.983 112.979 181.385 112.979H177.884C175.675 112.979 173.884 114.77 173.884 116.979V139.021C173.884 141.23 175.675 143.021 177.884 143.021H181.385C185.983 143.021 189.533 141.738 192.033 139.173C194.533 136.608 195.783 132.872 195.783 127.966ZM202.815 140.928C200.94 144.484 198.217 147.229 194.645 149.165C191.118 151.055 186.876 152 181.92 152H168.24C166.031 152 164.24 150.209 164.24 148V108C164.24 105.791 166.031 104 168.24 104H181.92C186.876 104 191.118 104.945 194.645 106.835C198.217 108.726 200.94 111.471 202.815 115.072C204.735 118.627 205.695 122.925 205.695 127.966C205.695 133.007 204.735 137.328 202.815 140.928Z" fill="white"/>
<path d="M213.356 108C213.356 105.791 215.147 104 217.356 104H219C221.209 104 223 105.791 223 108V148C223 150.209 221.209 152 219 152H217.356C215.147 152 213.356 150.209 213.356 148V108Z" fill="white"/>
<defs>
<linearGradient id="paint0_linear_99_96" x1="128" y1="1" x2="128" y2="255" gradientUnits="userSpaceOnUse">
<stop stop-color="#50E5F0"/>
<stop offset="1" stop-color="#42BCC5"/>
</linearGradient>
</defs>
</svg>
