<svg width="256" height="256" viewBox="0 0 256 256" fill="none" xmlns="http://www.w3.org/2000/svg">
<path d="M106.429 254.324C77.8036 252.299 57.2862 246.329 40.0761 235.018C21.6571 222.911 8.93954 200.243 3.9843 170.687C1.69292 157.021 0.962957 146.366 1.00143 127.164C1.07014 93.0812 4.72734 71.9613 13.9373 52.4684C22.7757 33.762 33.8514 22.6792 52.4395 13.9416C72.1839 4.66056 93.5545 1 127.994 1C162.433 1 183.803 4.66056 203.548 13.9416C222.119 22.6715 233.122 33.6726 242.078 52.4684C251.216 71.6451 254.915 93.0336 254.999 127.164C255.1 168.687 249.55 193.658 235.416 215.277C222.216 235.466 198.18 248.266 165.151 252.695C147.932 255.004 125.031 255.639 106.429 254.324Z" fill="url(#paint0_linear_90_48)"/>
<path d="M141.834 67.5282C143.723 68.1761 144.071 68.1263 144.718 67.3787C145.414 66.6312 145.961 66.7807 152.324 69.7709C156.053 71.565 159.284 73.1598 159.483 73.3592C159.682 73.5585 157.693 77.5455 155.158 82.1803C152.573 86.8152 150.335 90.9018 150.236 91.151C150.137 91.45 149.689 91.4002 149.142 91.0015C148.595 90.6526 146.507 89.5562 144.469 88.5096C140.84 86.7155 140.592 86.6657 135.272 86.6657C130.152 86.6657 129.555 86.7653 126.572 88.2106C124.434 89.2572 122.496 90.7025 120.954 92.4468C119.612 93.9419 118.121 96.2842 117.574 97.7793C116.977 99.424 116.629 101.667 116.629 104.009C116.629 106.949 116.878 108.096 117.972 110.338C118.817 111.983 120.109 113.578 121.352 114.475C122.446 115.222 124.434 116.219 125.826 116.618C127.169 117.016 129.853 117.315 131.792 117.315C133.731 117.315 136.614 116.967 138.255 116.518C139.896 116.119 142.729 115.023 144.569 114.176C146.408 113.279 147.85 112.681 147.8 112.83C147.769 112.922 146.926 114.662 144.572 119.522L144.57 119.526C143.105 122.548 141.056 126.777 138.255 132.566L135.769 133.413C134.377 133.861 131.494 134.459 129.306 134.758C126.87 135.008 123.589 135.008 120.855 134.758C118.419 134.509 114.939 133.861 113.149 133.313C111.36 132.765 108.576 131.469 106.935 130.373C105.295 129.326 103.107 127.532 102.063 126.386C101.069 125.24 99.5775 122.947 98.7324 121.302C97.8872 119.658 96.893 117.016 96.4953 115.472C96.0975 113.877 95.7495 110.538 95.7495 108.096C95.7495 105.654 96.0975 102.165 96.545 100.371C96.9427 98.5767 97.8872 95.6862 98.5832 93.892C99.2792 92.0979 100.87 89.0578 102.113 87.164C103.306 85.2702 105.145 82.7784 106.14 81.682C107.084 80.5855 109.272 78.4924 110.912 77.0471C112.553 75.6018 115.784 73.4588 118.121 72.2627C120.457 71.0667 123.937 69.5715 125.826 69.0233C127.765 68.4253 131.643 67.7276 134.526 67.4285C138.702 66.98 140.144 66.98 141.834 67.5282Z" fill="#F5FAFC"/>
<path fill-rule="evenodd" clip-rule="evenodd" d="M44.1465 87.4631C44.2459 87.2139 46.4333 82.7285 49.0185 77.4458L53.7413 67.9269L70.644 68.0764C86.0056 68.2758 87.7953 68.3755 90.0324 69.2227C91.4741 69.8207 93.5124 71.2162 94.8547 72.6116C96.6941 74.4057 97.4398 75.6517 98.0364 77.8445C98.5335 79.5888 98.7821 81.6321 98.6329 83.1771C98.4838 84.5725 97.7381 87.0145 96.9427 88.6093C96.1472 90.2539 94.2581 92.7956 92.717 94.3406C91.2256 95.8855 89.1376 97.58 88.1433 98.1282C87.0993 98.6764 86.3039 99.2745 86.3039 99.5236C86.3039 99.723 86.5028 99.8725 86.801 99.8725C87.0993 99.8725 88.0936 100.62 89.0879 101.517C90.0822 102.364 91.3747 104.009 91.9216 105.105C92.8164 106.75 92.9656 107.996 93.0153 112.083C93.0153 116.717 92.9158 117.315 91.4244 120.306C90.4799 122.349 88.7896 124.592 86.9502 126.386C85.061 128.18 82.7742 129.775 80.3382 130.921C78.3 131.868 75.2674 132.914 73.6269 133.214C71.8371 133.562 63.9823 133.762 54.139 133.762C45.0413 133.762 37.5843 133.612 37.5843 133.413C37.5843 133.164 40.1694 122.847 49.0185 87.9116H46.5328C45.1408 87.9116 44.0968 87.7122 44.1465 87.4631ZM68.2081 85.8185C68.059 86.267 67.6115 88.2107 67.2635 90.0546C66.8658 91.9484 66.5178 93.7426 66.4681 94.0416C66.4184 94.4901 67.4624 94.5898 70.2464 94.3905C72.8315 94.1911 74.7206 93.7426 75.864 93.0947C76.908 92.4966 77.9023 91.4002 78.3 90.3536C78.648 89.4067 78.8469 88.111 78.6977 87.4133C78.5486 86.7155 77.8526 85.8683 77.1566 85.5693C76.4606 85.2204 74.1738 84.9214 72.1852 84.9214C69.0532 84.9214 68.4069 85.0709 68.2081 85.8185ZM60.6516 116.219C60.6992 116.052 60.8608 115.416 61.0873 114.526L61.0877 114.524C61.3342 113.555 61.6573 112.284 61.9939 110.986L63.1373 106.351H67.7607C72.2349 106.351 72.4338 106.401 73.8755 107.846C74.7206 108.694 75.3669 109.89 75.3669 110.588C75.3669 111.285 75.0189 112.481 74.6212 113.329C74.2235 114.176 72.9806 115.272 71.8869 115.82C70.2961 116.618 68.9041 116.817 65.1755 116.817C61.6459 116.817 60.5024 116.668 60.6516 116.219Z" fill="#F5FAFC"/>
<path fill-rule="evenodd" clip-rule="evenodd" d="M165.15 77.396C162.267 82.6289 159.881 87.164 159.881 87.5129C159.881 87.9614 160.378 88.0113 161.869 87.7621C163.36 87.4631 163.808 87.5627 163.708 88.0113C163.659 88.3601 160.179 95.3373 155.953 103.56C152.997 109.381 149.518 116.176 146.979 121.134L146.979 121.135L146.971 121.149L146.971 121.15C145.927 123.189 145.042 124.917 144.419 126.137L140.492 133.712L164.106 133.463L168.779 122.499H183.495L183.992 133.463L204.126 133.712C204.126 131.361 203.731 121.987 203.236 110.229L203.236 110.215C203.122 107.522 203.003 104.703 202.883 101.816C202.187 86.3666 201.64 72.4123 201.64 70.8175V67.9269H170.42L165.15 77.396ZM178.772 98.7263C176.982 103.012 175.491 106.7 175.391 106.949C175.342 107.149 177.032 107.298 179.12 107.248C181.904 107.149 182.948 106.9 182.848 106.501C182.799 106.152 182.749 102.514 182.699 98.3774C182.699 94.2908 182.5 90.9019 182.351 90.9019C182.152 90.9019 180.562 94.4403 178.772 98.7263Z" fill="#F5FAFC"/>
<path d="M195.525 162.368C197.265 152.251 198.856 143.779 198.956 143.58C199.105 143.38 201.441 143.181 204.126 143.181C207.755 143.181 209.097 143.38 209.097 143.829C209.097 144.178 208.55 147.567 207.904 151.404C207.258 155.242 206.81 158.531 206.91 158.63C207.009 158.78 207.755 158.331 208.501 157.584C209.246 156.886 210.837 155.74 212.08 155.092C213.721 154.245 215.162 153.946 217.549 153.946C219.985 153.946 221.178 154.195 222.52 154.992C223.465 155.59 224.658 156.836 225.105 157.833C225.602 158.83 226 160.474 226 161.521C226 162.568 225.205 167.85 224.26 173.332C223.266 178.814 222.421 183.399 222.321 183.499C222.222 183.549 219.686 183.649 216.704 183.649C212.577 183.649 211.334 183.499 211.434 183.001C211.484 182.602 212.08 179.163 212.826 175.326C213.522 171.488 214.168 167.402 214.218 166.206C214.268 164.561 214.069 163.913 213.323 163.315C212.776 162.966 211.832 162.617 211.185 162.617C210.589 162.617 209.594 162.867 208.948 163.166C208.352 163.415 207.407 164.362 206.91 165.259C206.363 166.206 205.319 170.392 202.883 183.699L191.946 183.599L192.095 182.203C192.195 181.456 193.736 172.535 195.525 162.368Z" fill="#12D1D2"/>
<path d="M40.07 153.647C38.5785 154.195 36.7888 155.042 36.0928 155.541C35.3968 156.089 34.3528 157.385 33.7563 158.431C32.9609 159.777 32.6129 161.222 32.6129 163.016C32.6129 164.511 33.0106 166.405 33.458 167.452C34.0546 168.698 35.1483 169.744 36.8385 170.691C38.1808 171.439 41.4122 172.585 43.9974 173.233C46.5328 173.831 48.919 174.678 49.2173 175.027C49.615 175.525 49.5156 175.874 48.7699 176.422C48.1733 176.821 46.5825 177.12 44.8922 177.12C42.4562 177.07 41.8099 176.871 40.3185 175.575L38.5785 174.08C30.0277 175.326 29.8786 175.426 30.0277 176.622C30.0775 177.27 30.7734 178.615 31.5689 179.562C32.3643 180.559 33.9551 181.805 35.1483 182.403C36.3414 183.001 38.7774 183.798 40.5671 184.097C42.4562 184.446 45.4391 184.596 47.7756 184.396C50.7584 184.197 52.4487 183.748 54.487 182.702C55.9784 181.954 57.8675 180.459 58.7127 179.413C59.8561 177.917 60.2538 176.871 60.4029 174.678C60.5521 172.485 60.3532 171.439 59.5081 169.844C58.9115 168.747 57.5195 167.252 56.3264 166.505C55.0836 165.657 52.399 164.711 49.5156 164.063C46.9305 163.465 44.4945 162.767 44.1465 162.418C43.7985 162.119 43.5002 161.521 43.5499 161.023C43.5499 160.474 44.0968 160.026 44.8922 159.827C45.6876 159.677 47.179 159.627 48.2727 159.777C49.5156 159.976 50.6093 160.524 51.2556 161.322C52.2499 162.518 52.2996 162.518 55.4813 161.82C56.2881 161.64 57.1252 161.461 57.856 161.304C58.7459 161.113 59.4788 160.955 59.8064 160.873C60.5024 160.724 60.9498 160.275 60.9498 159.777C60.9498 159.278 59.9555 157.983 58.8121 156.886C57.6687 155.79 55.5807 154.494 54.2384 153.996C52.8464 153.497 49.7145 152.999 47.2785 152.849C43.6494 152.7 42.3071 152.8 40.07 153.647Z" fill="#12D1D2"/>
<path fill-rule="evenodd" clip-rule="evenodd" d="M99.2295 154.943C100.174 154.444 102.312 153.846 103.952 153.647C105.593 153.447 108.824 153.348 111.161 153.497C113.497 153.597 116.381 154.045 117.624 154.444C118.867 154.793 120.457 155.69 121.203 156.388C121.998 157.085 122.844 158.63 123.142 159.777C123.44 160.923 123.54 162.916 123.341 164.113C123.241 164.95 122.871 167.091 122.443 169.57L122.442 169.578C122.234 170.787 122.011 172.076 121.8 173.332C121.054 177.419 120.656 181.107 121.104 184.047H115.884C111.708 184.047 110.614 183.898 110.415 183.3C110.266 182.901 110.167 182.104 110.167 181.556C110.167 181.007 110.017 180.559 109.769 180.559C109.57 180.559 109.172 180.808 108.874 181.157C108.576 181.556 107.084 182.353 105.643 183.001C104.101 183.699 101.516 184.297 99.4781 184.446C96.9427 184.645 95.4015 184.546 93.761 183.948C92.5181 183.499 90.8776 182.403 90.0821 181.506C88.7896 179.961 88.6902 179.562 88.8393 176.821C88.9884 174.528 89.3364 173.382 90.3307 172.086C91.0267 171.14 92.369 169.844 93.3136 169.246C94.3576 168.548 97.6884 167.601 102.212 166.604C106.189 165.807 110.067 164.86 110.813 164.511C111.559 164.162 112.304 163.664 112.404 163.365C112.503 163.116 112.255 162.368 111.857 161.77C111.31 160.873 110.713 160.624 108.924 160.624C107.681 160.624 106.189 160.873 105.543 161.172C104.947 161.471 104.002 162.219 103.455 162.867C102.461 163.963 102.361 163.963 97.5392 163.415C94.4073 163.066 92.5181 162.667 92.4187 162.269C92.3193 161.92 92.717 160.923 93.2141 160.026C93.7113 159.129 94.9044 157.833 95.7993 157.086C96.7438 156.388 98.285 155.391 99.2295 154.943ZM106.935 171.14C105.295 171.588 103.256 172.386 102.362 172.834C101.318 173.332 100.622 174.18 100.423 175.027C100.174 176.123 100.373 176.572 101.268 177.319C102.163 178.017 102.958 178.167 104.45 177.967C105.543 177.818 106.985 177.27 107.681 176.721C108.377 176.223 109.322 175.226 109.819 174.578C110.266 173.93 110.763 172.685 110.863 171.787C110.962 170.791 110.813 170.193 110.465 170.193C110.167 170.243 108.576 170.641 106.935 171.14Z" fill="#12D1D2"/>
<path d="M142.033 154.045C141.089 154.544 139.746 155.69 139.05 156.637C138.354 157.634 137.609 158.63 137.41 158.88C137.161 159.179 137.112 158.431 137.31 157.135C137.46 155.939 137.658 154.743 137.708 154.494C137.708 154.295 135.62 154.095 133.035 154.095C129.605 154.095 128.213 154.245 127.964 154.743C127.765 155.092 126.473 161.671 125.13 169.345C123.788 177.02 122.794 183.499 122.893 183.699C122.993 183.898 125.429 184.047 128.312 184.047C133.234 184.047 133.582 183.998 134.029 182.951C134.278 182.353 134.974 179.113 135.57 175.824C136.117 172.535 137.012 168.897 137.559 167.751C138.106 166.555 139.1 165.309 139.846 164.91C140.641 164.511 142.331 164.063 143.723 163.863L146.209 163.564C147.253 157.634 147.701 155.291 147.85 154.544C148.198 153.148 148.148 153.148 145.961 153.148C144.718 153.198 142.978 153.597 142.033 154.045Z" fill="#12D1D2"/>
<path fill-rule="evenodd" clip-rule="evenodd" d="M168.083 155.042C169.177 154.494 171.166 153.846 172.558 153.647C173.9 153.447 176.286 153.248 177.778 153.248C179.269 153.198 181.904 153.398 183.594 153.697C185.334 153.946 187.621 154.594 188.715 155.142C189.858 155.74 191.051 156.836 191.548 157.783C192.045 158.78 192.344 160.524 192.344 162.368C192.344 164.013 191.697 168.648 190.952 172.585C190.156 176.971 189.709 180.609 190.156 183.798L185.185 183.699C182.5 183.649 180.015 183.449 179.766 183.3C179.468 183.2 179.269 182.502 179.269 181.805C179.269 181.157 179.169 180.559 179.02 180.559C178.871 180.559 177.927 181.107 176.883 181.805C175.888 182.453 173.701 183.399 172.06 183.798C170.42 184.247 167.934 184.546 166.592 184.546C165.2 184.546 163.211 184.147 162.118 183.649C161.024 183.15 159.632 182.054 158.986 181.157C158.389 180.31 157.842 178.765 157.842 177.718C157.793 176.671 157.991 175.077 158.29 174.08C158.638 173.133 159.582 171.638 160.477 170.741C161.372 169.894 163.012 168.797 164.106 168.349C165.2 167.9 168.779 167.003 172.06 166.305C175.342 165.657 178.672 164.91 179.518 164.661C180.313 164.412 181.158 163.913 181.357 163.514C181.556 163.166 181.357 162.368 180.959 161.77C180.412 160.873 179.816 160.624 178.026 160.624C176.783 160.624 175.192 160.973 174.397 161.322C173.651 161.72 172.657 162.468 172.21 162.966C171.414 163.813 171.066 163.863 166.492 163.265C163.808 162.916 161.521 162.518 161.372 162.368C161.223 162.219 161.571 161.272 162.118 160.325C162.664 159.328 163.758 157.983 164.603 157.285C165.399 156.587 166.99 155.59 168.083 155.042ZM170.37 173.432C170.967 172.834 173.154 171.937 175.242 171.339C177.33 170.691 179.319 170.193 179.667 170.193C180.015 170.193 180.263 170.442 180.263 170.791C180.263 171.14 179.816 172.386 179.269 173.532C178.722 174.728 177.579 176.073 176.684 176.622C175.789 177.17 174.248 177.768 173.303 177.917C172.16 178.117 171.215 177.967 170.47 177.419C169.823 177.02 169.326 176.123 169.326 175.525C169.326 174.927 169.774 173.98 170.37 173.432Z" fill="#12D1D2"/>
<path d="M60.4527 154.295C60.4527 154.494 62.9384 162.019 65.9212 170.99L71.3897 187.287C69.6994 190.726 69.5006 190.825 66.468 191.025L63.2864 191.274C61.2978 198.251 61.1486 199.347 61.5961 199.646C61.9441 199.846 64.0818 199.995 66.4183 199.995C68.904 200.045 71.5886 199.696 72.8811 199.298C74.124 198.849 76.0131 197.802 77.0571 196.905C78.1011 196.008 79.4434 194.364 79.9902 193.267C80.5371 192.171 83.7188 183.051 87.0993 172.984C90.4799 162.916 93.2638 154.494 93.2638 154.295C93.2638 154.095 90.8776 153.946 87.8947 153.946L82.5754 153.996C78.3497 166.505 77.0074 170.093 76.8583 170.093C76.7091 170.093 75.3668 166.505 73.8754 162.119L71.1412 154.095C62.8389 153.946 60.4527 154.095 60.4527 154.295Z" fill="#12D1D2"/>
<path d="M146.507 169.096C147.85 161.322 149.093 154.643 149.192 154.295C149.341 153.846 150.932 153.647 154.661 153.647C159.284 153.647 159.881 153.746 159.881 154.544C159.881 155.042 158.886 161.471 157.643 168.847C156.351 176.273 155.259 183.449 155.06 183.798C155.06 183.798 153.219 183.748 149.54 183.898C146.756 183.998 144.37 183.898 144.27 183.699C144.171 183.499 145.165 176.921 146.507 169.096Z" fill="#12D1D2"/>
<defs>
<linearGradient id="paint0_linear_90_48" x1="128" y1="1" x2="128" y2="255" gradientUnits="userSpaceOnUse">
<stop stop-color="#159AB1"/>
<stop offset="1" stop-color="#1575B1"/>
</linearGradient>
</defs>
</svg>
