<svg width="256" height="256" viewBox="0 0 256 256" fill="none" xmlns="http://www.w3.org/2000/svg">
<mask id="mask0_83_231" style="mask-type:alpha" maskUnits="userSpaceOnUse" x="1" y="1" width="254" height="254">
<path d="M106.429 254.324C77.8036 252.299 57.2862 246.329 40.0761 235.018C21.6571 222.911 8.93954 200.243 3.9843 170.687C1.69292 157.021 0.962957 146.366 1.00143 127.164C1.07014 93.0812 4.72734 71.9613 13.9373 52.4684C22.7757 33.762 33.8514 22.6792 52.4395 13.9416C72.1839 4.66056 93.5545 1 127.994 1C162.433 1 183.803 4.66056 203.548 13.9416C222.119 22.6715 233.122 33.6726 242.078 52.4684C251.216 71.6451 254.915 93.0336 254.999 127.164C255.1 168.687 249.55 193.658 235.416 215.277C222.216 235.466 198.18 248.266 165.151 252.695C147.932 255.004 125.031 255.639 106.429 254.324Z" fill="white"/>
</mask>
<g mask="url(#mask0_83_231)">
<rect x="1" y="1" width="254.001" height="254.001" fill="url(#paint0_linear_83_231)"/>
<g filter="url(#filter0_d_83_231)">
<path d="M142.463 61.128C144.387 61.7884 144.741 61.7376 145.399 60.9756C146.108 60.2137 146.665 60.3661 153.146 63.414C156.944 65.2427 160.235 66.8683 160.437 67.0715C160.64 67.2747 158.615 71.3386 156.032 76.0628C153.399 80.7871 151.121 84.9526 151.02 85.2066C150.918 85.5114 150.463 85.4606 149.906 85.0542C149.349 84.6986 147.222 83.581 145.146 82.5142C141.45 80.6855 141.197 80.6347 135.779 80.6347C130.564 80.6347 129.956 80.7363 126.918 82.2095C124.741 83.2762 122.766 84.7494 121.197 86.5273C119.83 88.0513 118.311 90.4388 117.754 91.9628C117.146 93.6391 116.792 95.9251 116.792 98.3126C116.792 101.31 117.045 102.478 118.159 104.764C119.019 106.44 120.336 108.066 121.602 108.98C122.716 109.742 124.741 110.758 126.159 111.165C127.526 111.571 130.26 111.876 132.235 111.876C134.209 111.876 137.146 111.52 138.817 111.063C140.488 110.657 143.374 109.539 145.247 108.676C147.121 107.761 148.589 107.152 148.539 107.304C148.507 107.398 147.649 109.172 145.251 114.124L145.249 114.128C143.757 117.209 141.67 121.52 138.817 127.42L136.285 128.284C134.868 128.741 131.931 129.351 129.703 129.655C127.222 129.909 123.88 129.909 121.095 129.655C118.614 129.401 115.07 128.741 113.247 128.182C111.424 127.623 108.589 126.303 106.918 125.185C105.247 124.118 103.019 122.29 101.956 121.121C100.943 119.953 99.4244 117.616 98.5636 115.94C97.7028 114.263 96.6902 111.571 96.2851 109.996C95.88 108.371 95.5256 104.967 95.5256 102.478C95.5256 99.989 95.88 96.4331 96.3357 94.6043C96.7408 92.7756 97.7028 89.8292 98.4117 88.0005C99.1206 86.1717 100.741 83.073 102.007 81.1427C103.222 79.2123 105.095 76.6724 106.108 75.5548C107.07 74.4373 109.298 72.3037 110.969 70.8306C112.64 69.3574 115.931 67.1731 118.311 65.9539C120.69 64.7347 124.235 63.2108 126.159 62.652C128.133 62.0424 132.083 61.3312 135.02 61.0264C139.273 60.5693 140.741 60.5693 142.463 61.128Z" fill="#F5FAFC"/>
<path fill-rule="evenodd" clip-rule="evenodd" d="M42.9683 81.4475C43.0696 81.1935 45.2974 76.6216 47.9304 71.237L52.7405 61.5344L69.9558 61.6868C85.6015 61.89 87.4243 61.9916 89.7028 62.8552C91.1711 63.4648 93.2471 64.8871 94.6142 66.3095C96.4876 68.1382 97.2471 69.4082 97.8547 71.6433C98.3611 73.4213 98.6142 75.504 98.4623 77.0788C98.3104 78.5012 97.5509 80.9903 96.7408 82.6158C95.9307 84.2922 94.0066 86.8829 92.437 88.4577C90.918 90.0324 88.7914 91.7596 87.7787 92.3184C86.7154 92.8772 85.9053 93.4867 85.9053 93.7407C85.9053 93.9439 86.1078 94.0963 86.4116 94.0963C86.7154 94.0963 87.7281 94.8583 88.7407 95.7727C89.7534 96.6362 91.0699 98.3126 91.6268 99.4302C92.5382 101.107 92.6901 102.376 92.7408 106.542C92.7408 111.266 92.6395 111.876 91.1205 114.924C90.1585 117.006 88.4369 119.292 86.5635 121.121C84.6395 122.95 82.3103 124.575 79.8293 125.744C77.7533 126.709 74.6647 127.776 72.9938 128.081C71.171 128.436 63.171 128.639 53.1456 128.639C43.8797 128.639 36.2847 128.487 36.2847 128.284C36.2847 128.03 38.9176 117.514 47.9304 81.9047H45.3987C43.981 81.9047 42.9177 81.7015 42.9683 81.4475ZM67.4749 79.7712C67.323 80.2283 66.8672 82.2095 66.5128 84.089C66.1077 86.0194 65.7533 87.8481 65.7027 88.1529C65.6521 88.6101 66.7154 88.7117 69.5508 88.5085C72.1837 88.3053 74.1078 87.8481 75.2724 87.1877C76.3357 86.5782 77.3483 85.4606 77.7534 84.3938C78.1078 83.4287 78.3104 82.1079 78.1585 81.3967C78.0066 80.6855 77.2977 79.822 76.5888 79.5172C75.88 79.1616 73.5508 78.8568 71.5255 78.8568C68.3356 78.8568 67.6774 79.0092 67.4749 79.7712ZM59.7786 110.758C59.8271 110.588 59.9917 109.94 60.2224 109.032L60.2228 109.03C60.4738 108.043 60.8029 106.747 61.1457 105.424L62.3103 100.7H67.0191C71.5761 100.7 71.7787 100.751 73.247 102.224C74.1078 103.088 74.766 104.307 74.766 105.018C74.766 105.729 74.4116 106.948 74.0065 107.812C73.6015 108.676 72.3356 109.793 71.2217 110.352C69.6014 111.165 68.1837 111.368 64.3862 111.368C60.7913 111.368 59.6267 111.215 59.7786 110.758Z" fill="#F5FAFC"/>
<path fill-rule="evenodd" clip-rule="evenodd" d="M166.21 71.1862C163.273 76.52 160.842 81.1427 160.842 81.4983C160.842 81.9555 161.349 82.0063 162.868 81.7523C164.387 81.4475 164.842 81.5491 164.741 82.0063C164.691 82.3619 161.146 89.4736 156.842 97.8554C153.832 103.788 150.288 110.714 147.703 115.768L147.702 115.769L147.695 115.784L147.694 115.785C146.631 117.863 145.73 119.624 145.096 120.867L141.095 128.589L165.146 128.335L169.906 117.159H184.893L185.4 128.335L205.906 128.589C205.906 126.192 205.504 116.637 205 104.653L204.999 104.638C204.884 101.893 204.763 99.0203 204.64 96.0775C203.931 80.3299 203.374 66.1063 203.374 64.4807V61.5344H171.577L166.21 71.1862ZM180.083 92.928C178.26 97.2967 176.741 101.056 176.64 101.31C176.589 101.513 178.311 101.665 180.438 101.615C183.273 101.513 184.336 101.259 184.235 100.853C184.184 100.497 184.134 96.7887 184.083 92.5724C184.083 88.4069 183.881 84.9526 183.729 84.9526C183.526 84.9526 181.906 88.5593 180.083 92.928Z" fill="#F5FAFC"/>
<path d="M197.146 157.798C198.919 147.486 200.539 138.85 200.64 138.647C200.792 138.443 203.172 138.24 205.906 138.24C209.602 138.24 210.969 138.443 210.969 138.901C210.969 139.256 210.412 142.711 209.754 146.622C209.096 150.534 208.64 153.886 208.742 153.988C208.843 154.14 209.602 153.683 210.362 152.921C211.121 152.21 212.742 151.042 214.007 150.381C215.678 149.518 217.147 149.213 219.577 149.213C222.058 149.213 223.273 149.467 224.64 150.28C225.602 150.889 226.818 152.159 227.273 153.175C227.78 154.191 228.185 155.867 228.185 156.934C228.185 158.001 227.375 163.386 226.413 168.973C225.4 174.561 224.539 179.235 224.438 179.336C224.337 179.387 221.754 179.489 218.716 179.489C214.514 179.489 213.248 179.336 213.349 178.828C213.4 178.422 214.007 174.917 214.767 171.005C215.476 167.094 216.134 162.928 216.185 161.709C216.235 160.033 216.033 159.372 215.273 158.763C214.716 158.407 213.754 158.052 213.096 158.052C212.488 158.052 211.476 158.306 210.817 158.611C210.21 158.865 209.248 159.83 208.742 160.744C208.185 161.709 207.121 165.976 204.64 179.54L193.501 179.438L193.653 178.016C193.754 177.254 195.324 168.161 197.146 157.798Z" fill="#12D1D2"/>
<path d="M38.8164 148.908C37.2974 149.467 35.4746 150.33 34.7657 150.838C34.0569 151.397 32.9936 152.718 32.386 153.785C31.5758 155.156 31.2214 156.629 31.2214 158.458C31.2214 159.982 31.6265 161.912 32.0822 162.979C32.6898 164.249 33.8037 165.316 35.5252 166.281C36.8923 167.043 40.1835 168.211 42.8164 168.872C45.3987 169.481 47.8291 170.345 48.1329 170.701C48.538 171.209 48.4367 171.564 47.6772 172.123C47.0696 172.529 45.4493 172.834 43.7278 172.834C41.2468 172.783 40.5885 172.58 39.0695 171.259L37.2974 169.735C28.5885 171.005 28.4366 171.107 28.5885 172.326C28.6391 172.987 29.348 174.358 30.1581 175.323C30.9682 176.339 32.5885 177.609 33.8037 178.219C35.0189 178.828 37.4999 179.641 39.3227 179.946C41.2468 180.302 44.2848 180.454 46.6645 180.251C49.7025 180.048 51.424 179.59 53.5 178.524C55.019 177.762 56.9431 176.238 57.8038 175.171C58.9684 173.647 59.3735 172.58 59.5254 170.345C59.6773 168.11 59.4747 167.043 58.614 165.418C58.0064 164.3 56.5886 162.776 55.3734 162.014C54.1076 161.15 51.3734 160.185 48.4367 159.525C45.8038 158.915 43.3227 158.204 42.9683 157.849C42.6139 157.544 42.3101 156.934 42.3607 156.426C42.3607 155.867 42.9177 155.41 43.7278 155.207C44.5379 155.055 46.0569 155.004 47.1709 155.156C48.4367 155.359 49.5506 155.918 50.2089 156.731C51.2215 157.95 51.2721 157.95 54.5127 157.239C55.3344 157.056 56.187 156.873 56.9313 156.713L56.9321 156.712C57.8385 156.518 58.5842 156.357 58.9178 156.274C59.6266 156.121 60.0823 155.664 60.0823 155.156C60.0823 154.648 59.0697 153.327 57.9051 152.21C56.7405 151.092 54.6139 149.772 53.2468 149.264C51.8291 148.756 48.6392 148.248 46.1582 148.095C42.462 147.943 41.0949 148.044 38.8164 148.908Z" fill="#12D1D2"/>
<path fill-rule="evenodd" clip-rule="evenodd" d="M99.0699 150.229C100.032 149.721 102.209 149.111 103.88 148.908C105.551 148.705 108.842 148.603 111.222 148.756C113.602 148.857 116.538 149.314 117.804 149.721C119.07 150.076 120.69 150.991 121.45 151.702C122.26 152.413 123.121 153.988 123.424 155.156C123.728 156.325 123.83 158.357 123.627 159.576C123.525 160.429 123.149 162.612 122.713 165.139L122.712 165.147C122.499 166.379 122.273 167.692 122.057 168.973C121.298 173.139 120.893 176.898 121.349 179.895H116.032C111.779 179.895 110.665 179.743 110.462 179.133C110.311 178.727 110.209 177.914 110.209 177.355C110.209 176.796 110.057 176.339 109.804 176.339C109.602 176.339 109.197 176.593 108.893 176.949C108.589 177.355 107.07 178.168 105.602 178.828C104.032 179.54 101.399 180.149 99.3231 180.302C96.7408 180.505 95.1712 180.403 93.5003 179.794C92.2344 179.336 90.5635 178.219 89.7534 177.304C88.4369 175.73 88.3357 175.323 88.4876 172.529C88.6395 170.193 88.9939 169.024 90.0066 167.703C90.7154 166.738 92.0825 165.418 93.0446 164.808C94.1079 164.097 97.5003 163.132 102.108 162.116C106.159 161.303 110.108 160.338 110.867 159.982C111.627 159.626 112.386 159.119 112.488 158.814C112.589 158.56 112.336 157.798 111.931 157.188C111.374 156.274 110.766 156.02 108.943 156.02C107.678 156.02 106.159 156.274 105.5 156.579C104.893 156.883 103.931 157.645 103.374 158.306C102.361 159.423 102.26 159.423 97.3484 158.865C94.1585 158.509 92.2344 158.103 92.1332 157.696C92.0319 157.341 92.437 156.325 92.9433 155.41C93.4496 154.496 94.6648 153.175 95.5762 152.413C96.5383 151.702 98.1079 150.686 99.0699 150.229ZM106.918 166.738C105.247 167.196 103.171 168.008 102.26 168.465C101.197 168.973 100.488 169.837 100.285 170.701C100.032 171.818 100.235 172.275 101.146 173.037C102.057 173.749 102.867 173.901 104.386 173.698C105.5 173.545 106.969 172.987 107.678 172.428C108.387 171.92 109.349 170.904 109.855 170.243C110.311 169.583 110.817 168.313 110.918 167.399C111.019 166.383 110.868 165.773 110.513 165.773C110.209 165.824 108.589 166.23 106.918 166.738Z" fill="#12D1D2"/>
<path d="M142.665 149.314C141.703 149.822 140.336 150.991 139.627 151.956C138.918 152.972 138.159 153.988 137.956 154.242C137.703 154.547 137.652 153.785 137.855 152.464C138.007 151.245 138.209 150.026 138.26 149.772C138.26 149.568 136.133 149.365 133.501 149.365C130.007 149.365 128.589 149.518 128.336 150.026C128.133 150.381 126.817 157.087 125.45 164.91C124.083 172.733 123.07 179.336 123.171 179.54C123.273 179.743 125.754 179.895 128.69 179.895C133.703 179.895 134.057 179.844 134.513 178.778C134.766 178.168 135.475 174.866 136.083 171.513C136.64 168.161 137.551 164.452 138.108 163.284C138.665 162.065 139.678 160.795 140.437 160.388C141.247 159.982 142.969 159.525 144.387 159.322L146.918 159.017C147.982 152.972 148.437 150.584 148.589 149.822C148.944 148.4 148.893 148.4 146.665 148.4C145.399 148.451 143.627 148.857 142.665 149.314Z" fill="#12D1D2"/>
<path fill-rule="evenodd" clip-rule="evenodd" d="M169.197 150.33C170.311 149.772 172.336 149.111 173.754 148.908C175.121 148.705 177.551 148.502 179.07 148.502C180.589 148.451 183.273 148.654 184.995 148.959C186.767 149.213 189.096 149.873 190.21 150.432C191.374 151.042 192.59 152.159 193.096 153.124C193.602 154.14 193.906 155.918 193.906 157.798C193.906 159.474 193.248 164.198 192.488 168.211C191.678 172.682 191.222 176.39 191.678 179.641L186.615 179.54C183.881 179.489 181.349 179.286 181.096 179.133C180.792 179.032 180.589 178.32 180.589 177.609C180.589 176.949 180.488 176.339 180.336 176.339C180.184 176.339 179.222 176.898 178.159 177.609C177.146 178.27 174.918 179.235 173.248 179.641C171.577 180.098 169.045 180.403 167.678 180.403C166.26 180.403 164.235 179.997 163.121 179.489C162.007 178.981 160.589 177.863 159.931 176.949C159.323 176.085 158.766 174.51 158.766 173.444C158.716 172.377 158.918 170.751 159.222 169.735C159.577 168.77 160.539 167.246 161.45 166.332C162.361 165.468 164.032 164.351 165.146 163.894C166.26 163.436 169.906 162.522 173.248 161.811C176.589 161.15 179.982 160.388 180.843 160.134C181.653 159.88 182.513 159.372 182.716 158.966C182.919 158.611 182.716 157.798 182.311 157.188C181.754 156.274 181.146 156.02 179.324 156.02C178.058 156.02 176.438 156.375 175.627 156.731C174.868 157.137 173.855 157.899 173.4 158.407C172.589 159.271 172.235 159.322 167.577 158.712C164.842 158.357 162.513 157.95 162.361 157.798C162.21 157.645 162.564 156.68 163.121 155.715C163.678 154.699 164.792 153.327 165.653 152.616C166.463 151.905 168.083 150.889 169.197 150.33ZM171.526 169.075C172.134 168.465 174.362 167.551 176.488 166.942C178.615 166.281 180.64 165.773 180.995 165.773C181.349 165.773 181.602 166.027 181.602 166.383C181.602 166.738 181.146 168.008 180.589 169.177C180.033 170.396 178.868 171.767 177.957 172.326C177.045 172.885 175.476 173.495 174.513 173.647C173.349 173.85 172.387 173.698 171.627 173.139C170.969 172.733 170.463 171.818 170.463 171.209C170.463 170.599 170.919 169.634 171.526 169.075Z" fill="#12D1D2"/>
<path d="M59.576 149.568C59.576 149.772 62.1077 157.442 65.1457 166.586L70.7153 183.197C68.9938 186.702 68.7912 186.804 65.7026 187.007L62.4621 187.261C60.4368 194.373 60.2849 195.49 60.7406 195.795C61.095 195.998 63.2722 196.151 65.652 196.151C68.1837 196.201 70.9178 195.846 72.2343 195.439C73.5001 194.982 75.4242 193.916 76.4875 193.001C77.5508 192.087 78.9179 190.41 79.4749 189.293C80.0318 188.175 83.2724 178.879 86.7154 168.618C90.1585 158.357 92.9939 149.772 92.9939 149.568C92.9939 149.365 90.5635 149.213 87.5255 149.213L82.1078 149.264C77.804 162.014 76.4369 165.672 76.285 165.672C76.1331 165.672 74.766 162.014 73.247 157.544L70.4621 149.365C62.0064 149.213 59.576 149.365 59.576 149.568Z" fill="#12D1D2"/>
<path d="M147.222 164.656C148.589 156.731 149.855 149.924 149.956 149.568C150.108 149.111 151.728 148.908 155.526 148.908C160.235 148.908 160.842 149.01 160.842 149.822C160.842 150.33 159.83 156.883 158.564 164.402C157.247 171.971 156.135 179.286 155.933 179.641C155.933 179.641 154.058 179.59 150.311 179.743C147.475 179.844 145.045 179.743 144.944 179.54C144.842 179.336 145.855 172.631 147.222 164.656Z" fill="#12D1D2"/>
</g>
</g>
<defs>
<filter id="filter0_d_83_231" x="-19.4398" y="12.5896" width="295.624" height="231.566" filterUnits="userSpaceOnUse" color-interpolation-filters="sRGB">
<feFlood flood-opacity="0" result="BackgroundImageFix"/>
<feColorMatrix in="SourceAlpha" type="matrix" values="0 0 0 0 0 0 0 0 0 0 0 0 0 0 0 0 0 0 127 0" result="hardAlpha"/>
<feOffset/>
<feGaussianBlur stdDeviation="24"/>
<feComposite in2="hardAlpha" operator="out"/>
<feColorMatrix type="matrix" values="0 0 0 0 0 0 0 0 0 0 0 0 0 0 0 0 0 0 0.25 0"/>
<feBlend mode="normal" in2="BackgroundImageFix" result="effect1_dropShadow_83_231"/>
<feBlend mode="normal" in="SourceGraphic" in2="effect1_dropShadow_83_231" result="shape"/>
</filter>
<linearGradient id="paint0_linear_83_231" x1="42.7127" y1="15.525" x2="251.276" y2="255.001" gradientUnits="userSpaceOnUse">
<stop stop-color="#1D9AB3"/>
<stop offset="1" stop-color="#136BB1"/>
</linearGradient>
</defs>
</svg>
