<svg width="341" height="341" viewBox="0 0 341 341" fill="none" xmlns="http://www.w3.org/2000/svg">
<g clip-path="url(#clip0_50_49)">
<rect width="341" height="341" fill="url(#paint0_linear_50_49)"/>
<g filter="url(#filter0_d_50_49)">
<path d="M189.916 80.7228C192.499 81.6094 192.975 81.5412 193.859 80.5182C194.811 79.4953 195.558 79.6999 204.259 83.7917C209.358 86.2469 213.776 88.4292 214.048 88.702C214.32 88.9748 211.601 94.4307 208.134 100.773C204.599 107.116 201.54 112.708 201.404 113.049C201.268 113.458 200.657 113.39 199.909 112.844C199.161 112.367 196.306 110.866 193.519 109.434C188.557 106.979 188.217 106.911 180.943 106.911C173.942 106.911 173.126 107.047 169.048 109.025C166.125 110.457 163.474 112.435 161.366 114.822C159.531 116.868 157.492 120.073 156.744 122.119C155.928 124.37 155.452 127.439 155.452 130.644C155.452 134.668 155.792 136.236 157.288 139.305C158.443 141.556 160.211 143.738 161.91 144.965C163.406 145.988 166.125 147.352 168.028 147.898C169.863 148.444 173.534 148.853 176.185 148.853C178.836 148.853 182.779 148.375 185.022 147.762C187.265 147.216 191.14 145.716 193.655 144.556C196.17 143.329 198.141 142.51 198.073 142.715C198.032 142.841 196.879 145.222 193.659 151.872L193.657 151.877C191.654 156.013 188.853 161.8 185.022 169.721L181.623 170.881C179.72 171.495 175.777 172.313 172.786 172.722C169.456 173.063 164.969 173.063 161.23 172.722C157.9 172.381 153.141 171.495 150.694 170.744C148.247 169.994 144.44 168.221 142.197 166.721C139.954 165.289 136.963 162.833 135.535 161.265C134.176 159.696 132.137 156.559 130.981 154.309C129.825 152.058 128.466 148.444 127.922 146.329C127.378 144.147 126.902 139.578 126.902 136.236C126.902 132.894 127.378 128.121 127.99 125.665C128.534 123.21 129.825 119.255 130.777 116.8C131.729 114.345 133.904 110.184 135.603 107.593C137.235 105.001 139.75 101.591 141.109 100.091C142.401 98.5907 145.392 95.7264 147.635 93.7487C149.878 91.7709 154.297 88.8384 157.492 87.2017C160.687 85.5649 165.445 83.519 168.028 82.7688C170.679 81.9504 175.981 80.9956 179.924 80.5864C185.634 79.9727 187.605 79.9727 189.916 80.7228Z" fill="#F5FAFC"/>
<path fill-rule="evenodd" clip-rule="evenodd" d="M56.3432 108.002C56.4791 107.661 59.4701 101.523 63.0048 94.2943L69.4626 81.2684L92.5745 81.473C113.579 81.7458 116.026 81.8822 119.085 83.0416C121.056 83.8599 123.844 85.7695 125.679 87.679C128.194 90.1342 129.214 91.8391 130.029 94.8398C130.709 97.2268 131.049 100.023 130.845 102.137C130.641 104.047 129.621 107.388 128.534 109.571C127.446 111.821 124.863 115.299 122.756 117.413C120.717 119.528 117.862 121.846 116.502 122.596C115.075 123.347 113.987 124.165 113.987 124.506C113.987 124.779 114.259 124.983 114.667 124.983C115.075 124.983 116.434 126.006 117.794 127.234C119.153 128.393 120.921 130.644 121.668 132.144C122.892 134.395 123.096 136.1 123.164 141.692C123.164 148.034 123.028 148.853 120.989 152.945C119.697 155.741 117.386 158.81 114.871 161.265C112.288 163.72 109.161 165.902 105.83 167.471C103.043 168.767 98.8963 170.199 96.653 170.608C94.2059 171.085 83.4657 171.358 70.0064 171.358C57.5667 171.358 47.3703 171.154 47.3703 170.881C47.3703 170.54 50.9051 156.423 63.0048 108.616H59.606C57.7027 108.616 56.2752 108.343 56.3432 108.002ZM89.2437 105.752C89.0398 106.365 88.428 109.025 87.9522 111.548C87.4084 114.14 86.9325 116.595 86.8646 117.004C86.7966 117.618 88.2241 117.754 92.0307 117.482C95.5655 117.209 98.1486 116.595 99.712 115.709C101.14 114.89 102.499 113.39 103.043 111.958C103.519 110.662 103.791 108.889 103.587 107.934C103.383 106.979 102.431 105.82 101.479 105.411C100.528 104.933 97.4009 104.524 94.6818 104.524C90.3993 104.524 89.5156 104.729 89.2437 105.752ZM78.9113 147.352C78.9764 147.124 79.1974 146.254 79.5071 145.035L79.5077 145.033C79.8447 143.707 80.2865 141.968 80.7467 140.192L82.3101 133.849H88.6319C94.7498 133.849 95.0217 133.917 96.993 135.895C98.1486 137.055 99.0323 138.691 99.0323 139.646C99.0323 140.601 98.5565 142.238 98.0126 143.397C97.4688 144.556 95.7694 146.057 94.274 146.807C92.0987 147.898 90.1954 148.171 85.0972 148.171C80.2709 148.171 78.7074 147.966 78.9113 147.352Z" fill="#F5FAFC"/>
<path fill-rule="evenodd" clip-rule="evenodd" d="M221.797 94.2261C217.855 101.387 214.592 107.593 214.592 108.07C214.592 108.684 215.271 108.752 217.311 108.411C219.35 108.002 219.962 108.138 219.826 108.752C219.758 109.23 215 118.777 209.222 130.03C205.18 137.995 200.423 147.293 196.951 154.078L196.951 154.079L196.941 154.099L196.94 154.1C195.512 156.891 194.303 159.255 193.451 160.924L188.081 171.29L220.37 170.949L226.759 155.945H246.88L247.56 170.949L275.09 171.29C275.09 168.073 274.551 155.245 273.874 139.156L273.873 139.136C273.718 135.451 273.556 131.594 273.391 127.643C272.439 106.502 271.692 87.4062 271.692 85.2239V81.2684H229.003L221.797 94.2261ZM240.423 123.415C237.976 129.28 235.936 134.327 235.8 134.668C235.732 134.94 238.044 135.145 240.899 135.077C244.705 134.94 246.133 134.599 245.997 134.054C245.929 133.576 245.861 128.598 245.793 122.938C245.793 117.345 245.521 112.708 245.317 112.708C245.045 112.708 242.87 117.55 240.423 123.415Z" fill="#F5FAFC"/>
<path d="M263.331 210.504C265.71 196.66 267.885 185.066 268.021 184.793C268.225 184.52 271.42 184.248 275.09 184.248C280.053 184.248 281.888 184.52 281.888 185.134C281.888 185.612 281.14 190.249 280.257 195.5C279.373 200.752 278.761 205.253 278.897 205.389C279.033 205.594 280.053 204.98 281.072 203.957C282.092 203.002 284.267 201.434 285.967 200.547C288.21 199.388 290.181 198.978 293.444 198.978C296.775 198.978 298.406 199.319 300.242 200.411C301.533 201.229 303.165 202.934 303.776 204.298C304.456 205.662 305 207.912 305 209.345C305 210.777 303.912 218.006 302.621 225.507C301.261 233.009 300.106 239.284 299.97 239.42C299.834 239.488 296.367 239.625 292.288 239.625C286.646 239.625 284.947 239.42 285.083 238.738C285.151 238.192 285.967 233.487 286.986 228.235C287.938 222.984 288.822 217.392 288.89 215.755C288.958 213.505 288.686 212.618 287.666 211.8C286.918 211.322 285.627 210.845 284.743 210.845C283.927 210.845 282.568 211.186 281.684 211.595C280.868 211.936 279.577 213.232 278.897 214.459C278.149 215.755 276.722 221.484 273.391 239.693L258.436 239.556L258.64 237.647C258.776 236.624 260.883 224.416 263.331 210.504Z" fill="#12D1D2"/>
<path d="M50.7691 198.569C48.7298 199.319 46.2827 200.479 45.331 201.161C44.3794 201.911 42.9519 203.684 42.1361 205.116C41.0485 206.958 40.5727 208.935 40.5727 211.39C40.5727 213.436 41.1165 216.028 41.7283 217.46C42.544 219.165 44.0395 220.597 46.3507 221.893C48.186 222.916 52.6045 224.485 56.1392 225.371C59.606 226.189 62.8689 227.349 63.2767 227.826C63.8205 228.508 63.6846 228.986 62.6649 229.736C61.8492 230.281 59.674 230.691 57.3628 230.691C54.032 230.622 53.1483 230.35 51.109 228.576L48.7298 226.53C37.0379 228.235 36.834 228.372 37.0379 230.009C37.1059 230.895 38.0576 232.736 39.1452 234.032C40.2328 235.396 42.408 237.101 44.0395 237.92C45.6709 238.738 49.0017 239.829 51.4489 240.238C54.032 240.716 58.1105 240.92 61.3054 240.647C65.384 240.375 67.6952 239.761 70.4822 238.329C72.5215 237.306 75.1046 235.26 76.2602 233.828C77.8236 231.782 78.3674 230.35 78.5714 227.349C78.7753 224.348 78.5034 222.916 77.3478 220.734C76.5321 219.233 74.6287 217.187 72.9973 216.164C71.2979 215.005 67.6272 213.709 63.6846 212.823C60.1498 212.004 56.819 211.049 56.3432 210.572C55.8673 210.163 55.4595 209.345 55.5274 208.663C55.5274 207.912 56.2752 207.299 57.3628 207.026C58.4504 206.821 60.4897 206.753 61.9852 206.958C63.6846 207.23 65.1801 207.981 66.0638 209.072C67.4233 210.708 67.4913 210.708 71.8417 209.754C72.9449 209.508 74.0895 209.262 75.0888 209.047L75.0899 209.047C76.3067 208.785 77.3078 208.57 77.7557 208.458C78.7073 208.253 79.3191 207.64 79.3191 206.958C79.3191 206.276 77.9596 204.502 76.3961 203.002C74.8327 201.502 71.9777 199.729 70.1423 199.047C68.239 198.365 63.9565 197.683 60.6257 197.478C55.6634 197.273 53.828 197.41 50.7691 198.569Z" fill="#12D1D2"/>
<path fill-rule="evenodd" clip-rule="evenodd" d="M131.661 200.342C132.952 199.66 135.875 198.842 138.118 198.569C140.362 198.296 144.78 198.16 147.975 198.365C151.17 198.501 155.113 199.115 156.812 199.66C158.511 200.138 160.687 201.365 161.706 202.32C162.794 203.275 163.949 205.389 164.357 206.958C164.765 208.526 164.901 211.254 164.629 212.891C164.492 214.036 163.987 216.967 163.402 220.359L163.4 220.37C163.115 222.024 162.811 223.788 162.522 225.507C161.502 231.1 160.959 236.146 161.57 240.17H154.433C148.723 240.17 147.227 239.965 146.955 239.147C146.751 238.602 146.616 237.51 146.616 236.76C146.616 236.01 146.412 235.396 146.072 235.396C145.8 235.396 145.256 235.737 144.848 236.215C144.44 236.76 142.401 237.851 140.43 238.738C138.322 239.693 134.788 240.511 132.001 240.716C128.534 240.988 126.427 240.852 124.183 240.034C122.484 239.42 120.241 237.92 119.153 236.692C117.386 234.578 117.25 234.032 117.454 230.281C117.658 227.144 118.134 225.576 119.493 223.803C120.445 222.507 122.28 220.734 123.572 219.915C124.999 218.96 129.553 217.665 135.739 216.301C141.177 215.21 146.48 213.914 147.499 213.436C148.519 212.959 149.539 212.277 149.674 211.868C149.81 211.527 149.471 210.504 148.927 209.686C148.179 208.458 147.363 208.117 144.916 208.117C143.217 208.117 141.177 208.458 140.294 208.867C139.478 209.276 138.186 210.299 137.439 211.186C136.079 212.686 135.943 212.686 129.35 211.936C125.067 211.459 122.484 210.913 122.348 210.368C122.212 209.89 122.756 208.526 123.436 207.299C124.115 206.071 125.747 204.298 126.97 203.275C128.262 202.32 130.369 200.956 131.661 200.342ZM142.197 222.507C139.954 223.121 137.167 224.212 135.943 224.826C134.516 225.508 133.564 226.667 133.292 227.826C132.952 229.327 133.224 229.94 134.448 230.963C135.671 231.918 136.759 232.123 138.798 231.85C140.294 231.645 142.265 230.895 143.217 230.145C144.168 229.463 145.46 228.099 146.14 227.212C146.752 226.326 147.431 224.621 147.567 223.393C147.703 222.029 147.499 221.211 147.023 221.211C146.616 221.279 144.44 221.825 142.197 222.507Z" fill="#12D1D2"/>
<path d="M190.188 199.115C188.897 199.797 187.061 201.365 186.11 202.661C185.158 204.025 184.138 205.389 183.866 205.73C183.527 206.139 183.459 205.116 183.731 203.343C183.934 201.706 184.206 200.07 184.274 199.729C184.274 199.456 181.419 199.183 177.885 199.183C173.194 199.183 171.291 199.388 170.951 200.07C170.679 200.547 168.912 209.549 167.076 220.052C165.241 230.554 163.881 239.42 164.017 239.693C164.153 239.965 167.484 240.17 171.427 240.17C178.156 240.17 178.632 240.102 179.244 238.67C179.584 237.851 180.536 233.418 181.351 228.917C182.099 224.416 183.323 219.438 184.07 217.869C184.818 216.233 186.178 214.528 187.197 213.982C188.285 213.436 190.596 212.823 192.499 212.55L195.898 212.141C197.326 204.025 197.938 200.82 198.141 199.797C198.617 197.887 198.549 197.887 195.558 197.887C193.859 197.955 191.48 198.501 190.188 199.115Z" fill="#12D1D2"/>
<path fill-rule="evenodd" clip-rule="evenodd" d="M225.808 200.479C227.303 199.729 230.022 198.842 231.926 198.569C233.761 198.296 237.024 198.024 239.063 198.024C241.102 197.955 244.705 198.228 247.016 198.637C249.396 198.978 252.522 199.865 254.018 200.615C255.581 201.434 257.213 202.934 257.893 204.23C258.572 205.594 258.98 207.981 258.98 210.504C258.98 212.754 258.096 219.097 257.077 224.485C255.989 230.486 255.377 235.464 255.989 239.829L249.192 239.693C245.521 239.624 242.122 239.352 241.782 239.147C241.374 239.011 241.102 238.056 241.102 237.101C241.102 236.215 240.966 235.396 240.763 235.396C240.559 235.396 239.267 236.146 237.84 237.101C236.48 237.988 233.489 239.284 231.246 239.829C229.003 240.443 225.604 240.852 223.768 240.852C221.865 240.852 219.146 240.306 217.651 239.625C216.155 238.943 214.252 237.442 213.368 236.215C212.552 235.055 211.805 232.941 211.805 231.509C211.737 230.077 212.009 227.894 212.416 226.53C212.892 225.235 214.184 223.189 215.407 221.961C216.631 220.802 218.874 219.301 220.37 218.688C221.865 218.074 226.759 216.846 231.246 215.892C235.732 215.005 240.287 213.982 241.442 213.641C242.53 213.3 243.686 212.618 243.957 212.072C244.229 211.595 243.957 210.504 243.414 209.686C242.666 208.458 241.85 208.117 239.403 208.117C237.704 208.117 235.528 208.594 234.441 209.072C233.421 209.617 232.062 210.64 231.45 211.322C230.362 212.482 229.886 212.55 223.633 211.731C219.962 211.254 216.835 210.708 216.631 210.504C216.427 210.299 216.903 209.004 217.651 207.708C218.398 206.344 219.894 204.502 221.049 203.548C222.137 202.593 224.312 201.229 225.808 200.479ZM228.935 225.644C229.75 224.826 232.741 223.598 235.596 222.78C238.451 221.893 241.17 221.211 241.646 221.211C242.122 221.211 242.462 221.552 242.462 222.029C242.462 222.507 241.85 224.212 241.102 225.78C240.355 227.417 238.791 229.258 237.568 230.009C236.344 230.759 234.237 231.577 232.945 231.782C231.382 232.055 230.09 231.85 229.071 231.1C228.187 230.554 227.507 229.327 227.507 228.508C227.507 227.69 228.119 226.394 228.935 225.644Z" fill="#12D1D2"/>
<path d="M78.6393 199.456C78.6393 199.729 82.0382 210.027 86.1167 222.302L93.5941 244.603C91.2829 249.309 91.011 249.445 86.8645 249.718L82.514 250.059C79.7949 259.607 79.591 261.107 80.2028 261.516C80.6786 261.789 83.6016 261.993 86.7965 261.993C90.1953 262.062 93.866 261.584 95.6334 261.039C97.3328 260.425 99.9159 258.993 101.343 257.765C102.771 256.538 104.606 254.287 105.354 252.787C106.102 251.286 110.452 238.806 115.075 225.03C119.697 211.254 123.504 199.729 123.504 199.456C123.504 199.183 120.241 198.978 116.162 198.978L108.889 199.047C103.111 216.164 101.275 221.075 101.071 221.075C100.868 221.075 99.0322 216.164 96.9929 210.163L93.2542 199.183C81.9022 198.978 78.6393 199.183 78.6393 199.456Z" fill="#12D1D2"/>
<path d="M196.306 219.711C198.141 209.072 199.841 199.933 199.977 199.456C200.181 198.842 202.356 198.569 207.454 198.569C213.776 198.569 214.592 198.706 214.592 199.797C214.592 200.479 213.232 209.276 211.533 219.37C209.765 229.531 208.272 239.352 208 239.829C208 239.829 205.483 239.761 200.453 239.965C196.646 240.102 193.383 239.965 193.247 239.693C193.111 239.42 194.471 230.418 196.306 219.711Z" fill="#12D1D2"/>
</g>
</g>
<defs>
<filter id="filter0_d_50_49" x="-11" y="32" width="364" height="278" filterUnits="userSpaceOnUse" color-interpolation-filters="sRGB">
<feFlood flood-opacity="0" result="BackgroundImageFix"/>
<feColorMatrix in="SourceAlpha" type="matrix" values="0 0 0 0 0 0 0 0 0 0 0 0 0 0 0 0 0 0 127 0" result="hardAlpha"/>
<feOffset/>
<feGaussianBlur stdDeviation="24"/>
<feComposite in2="hardAlpha" operator="out"/>
<feColorMatrix type="matrix" values="0 0 0 0 0 0 0 0 0 0 0 0 0 0 0 0 0 0 0.25 0"/>
<feBlend mode="normal" in2="BackgroundImageFix" result="effect1_dropShadow_50_49"/>
<feBlend mode="normal" in="SourceGraphic" in2="effect1_dropShadow_50_49" result="shape"/>
</filter>
<linearGradient id="paint0_linear_50_49" x1="56" y1="19.5" x2="336" y2="341" gradientUnits="userSpaceOnUse">
<stop stop-color="#1D9AB3"/>
<stop offset="1" stop-color="#136BB1"/>
</linearGradient>
<clipPath id="clip0_50_49">
<rect width="341" height="341" fill="white"/>
</clipPath>
</defs>
</svg>
