<svg width="256" height="256" viewBox="0 0 256 256" fill="none" xmlns="http://www.w3.org/2000/svg">
<path d="M106.429 254.324C77.8036 252.299 57.2862 246.329 40.0761 235.018C21.6571 222.911 8.93954 200.243 3.9843 170.687C1.69292 157.021 0.962957 146.366 1.00143 127.164C1.07014 93.0812 4.72734 71.9613 13.9373 52.4684C22.7757 33.762 33.8514 22.6792 52.4395 13.9416C72.1839 4.66056 93.5545 1 127.994 1C162.433 1 183.803 4.66056 203.548 13.9416C222.119 22.6715 233.122 33.6726 242.078 52.4684C251.216 71.6451 254.915 93.0336 254.999 127.164C255.1 168.687 249.55 193.658 235.416 215.277C222.216 235.466 198.18 248.266 165.151 252.695C147.932 255.004 125.031 255.639 106.429 254.324Z" fill="url(#paint0_linear_83_235)"/>
<path d="M135.976 57.3307C135.976 51.7172 131.494 47.1819 125.946 47.1819C120.399 47.1819 115.917 51.7172 115.917 57.3307V123.298C115.917 126.089 113.66 128.372 110.902 128.372C108.144 128.372 105.887 126.089 105.887 123.298V67.4795C105.887 61.8659 101.405 57.3307 95.8571 57.3307C90.3094 57.3307 85.8273 61.8659 85.8273 67.4795V153.744C85.8273 154.22 85.8273 154.727 85.8587 155.203L66.8962 136.935C61.8813 132.114 53.9515 132.305 49.156 137.379C44.3605 142.453 44.5799 150.477 49.5948 155.33L84.8244 189.265C98.3332 202.299 116.293 209.562 134.973 209.562H140.991C171.456 209.562 196.155 184.571 196.155 153.744V87.777C196.155 82.1635 191.673 77.6282 186.125 77.6282C180.577 77.6282 176.095 82.1635 176.095 87.777V123.298C176.095 126.089 173.839 128.372 171.08 128.372C168.322 128.372 166.065 126.089 166.065 123.298V67.4795C166.065 61.8659 161.583 57.3307 156.036 57.3307C150.488 57.3307 146.006 61.8659 146.006 67.4795V123.298C146.006 126.089 143.749 128.372 140.991 128.372C138.233 128.372 135.976 126.089 135.976 123.298V57.3307Z" fill="white"/>
<defs>
<linearGradient id="paint0_linear_83_235" x1="128" y1="1" x2="128" y2="255" gradientUnits="userSpaceOnUse">
<stop stop-color="#EC6062"/>
<stop offset="1" stop-color="#E8383A"/>
</linearGradient>
</defs>
</svg>
