<svg width="341" height="341" viewBox="0 0 341 341" fill="none" xmlns="http://www.w3.org/2000/svg">
<g clip-path="url(#clip0_74_82)">
<rect width="341" height="341" fill="url(#paint0_linear_74_82)"/>
<g filter="url(#filter0_d_74_82)">
<path d="M192.316 98L170.5 127.17H257.912V214.83H83.0879V127.17H170.5L148.536 98H83.0879C67.0599 98 54 111.097 54 127.17V214.83C54 230.903 67.0599 244 83.0879 244H257.912C273.94 244 287 230.903 287 214.83V127.17C287 111.097 273.94 98 257.912 98H192.316Z" fill="white"/>
<path d="M141.264 156.34H112.176V185.511H141.264V156.34Z" fill="white"/>
<path d="M228.676 156.34H199.588V185.511H228.676V156.34Z" fill="white"/>
</g>
</g>
<defs>
<filter id="filter0_d_74_82" x="-10" y="34" width="361" height="274" filterUnits="userSpaceOnUse" color-interpolation-filters="sRGB">
<feFlood flood-opacity="0" result="BackgroundImageFix"/>
<feColorMatrix in="SourceAlpha" type="matrix" values="0 0 0 0 0 0 0 0 0 0 0 0 0 0 0 0 0 0 127 0" result="hardAlpha"/>
<feOffset/>
<feGaussianBlur stdDeviation="32"/>
<feComposite in2="hardAlpha" operator="out"/>
<feColorMatrix type="matrix" values="0 0 0 0 0 0 0 0 0 0 0 0 0 0 0 0 0 0 0.25 0"/>
<feBlend mode="normal" in2="BackgroundImageFix" result="effect1_dropShadow_74_82"/>
<feBlend mode="normal" in="SourceGraphic" in2="effect1_dropShadow_74_82" result="shape"/>
</filter>
<linearGradient id="paint0_linear_74_82" x1="22" y1="11" x2="307.5" y2="341" gradientUnits="userSpaceOnUse">
<stop stop-color="#2BB780"/>
<stop offset="1" stop-color="#0A6C46"/>
</linearGradient>
<clipPath id="clip0_74_82">
<rect width="341" height="341" fill="white"/>
</clipPath>
</defs>
</svg>
