<svg width="256" height="256" viewBox="0 0 256 256" fill="none" xmlns="http://www.w3.org/2000/svg">
<mask id="mask0_83_232" style="mask-type:alpha" maskUnits="userSpaceOnUse" x="1" y="1" width="254" height="254">
<path d="M106.429 254.324C77.8036 252.299 57.2862 246.329 40.0761 235.018C21.6571 222.911 8.93954 200.243 3.9843 170.687C1.69292 157.021 0.962957 146.366 1.00143 127.164C1.07014 93.0812 4.72734 71.9613 13.9373 52.4684C22.7757 33.762 33.8514 22.6792 52.4395 13.9416C72.1839 4.66056 93.5545 1 127.994 1C162.433 1 183.803 4.66056 203.548 13.9416C222.119 22.6715 233.122 33.6726 242.078 52.4684C251.216 71.6451 254.915 93.0336 254.999 127.164C255.1 168.687 249.55 193.658 235.416 215.277C222.216 235.466 198.18 248.266 165.151 252.695C147.932 255.004 125.031 255.639 106.429 254.324Z" fill="white"/>
</mask>
<g mask="url(#mask0_83_232)">
<rect x="1" y="1" width="254.001" height="254.001" fill="url(#paint0_linear_83_232)"/>
<g filter="url(#filter0_d_83_232)">
<path d="M144.25 73.9973L128 95.7251H193.11V161.019H62.8896V95.7251H128L111.639 73.9973H62.8896C50.9509 73.9973 41.223 83.7526 41.223 95.7251V161.019C41.223 172.992 50.9509 182.747 62.8896 182.747H193.11C205.048 182.747 214.776 172.992 214.776 161.019V95.7251C214.776 83.7526 205.048 73.9973 193.11 73.9973H144.25Z" fill="white"/>
<path d="M106.223 117.453H84.5561V139.181H106.223V117.453Z" fill="white"/>
<path d="M171.333 117.453H149.666V139.181H171.333V117.453Z" fill="white"/>
</g>
</g>
<defs>
<filter id="filter0_d_83_232" x="-6.77696" y="25.9973" width="269.553" height="204.75" filterUnits="userSpaceOnUse" color-interpolation-filters="sRGB">
<feFlood flood-opacity="0" result="BackgroundImageFix"/>
<feColorMatrix in="SourceAlpha" type="matrix" values="0 0 0 0 0 0 0 0 0 0 0 0 0 0 0 0 0 0 127 0" result="hardAlpha"/>
<feOffset/>
<feGaussianBlur stdDeviation="24"/>
<feComposite in2="hardAlpha" operator="out"/>
<feColorMatrix type="matrix" values="0 0 0 0 0 0 0 0 0 0 0 0 0 0 0 0 0 0 0.25 0"/>
<feBlend mode="normal" in2="BackgroundImageFix" result="effect1_dropShadow_83_232"/>
<feBlend mode="normal" in="SourceGraphic" in2="effect1_dropShadow_83_232" result="shape"/>
</filter>
<linearGradient id="paint0_linear_83_232" x1="17.3872" y1="9.19357" x2="230.048" y2="255.001" gradientUnits="userSpaceOnUse">
<stop stop-color="#2BB780"/>
<stop offset="1" stop-color="#0A6C46"/>
</linearGradient>
</defs>
</svg>
