<svg width="256" height="256" viewBox="0 0 256 256" fill="none" xmlns="http://www.w3.org/2000/svg">
<path d="M106.429 254.324C77.8036 252.299 57.2862 246.329 40.0761 235.018C21.6571 222.911 8.93954 200.243 3.9843 170.687C1.69292 157.021 0.962957 146.366 1.00143 127.164C1.07014 93.0812 4.72734 71.9613 13.9373 52.4684C22.7757 33.762 33.8514 22.6792 52.4395 13.9416C72.1839 4.66056 93.5545 1 127.994 1C162.433 1 183.803 4.66056 203.548 13.9416C222.119 22.6715 233.122 33.6726 242.078 52.4684C251.216 71.6451 254.915 93.0336 254.999 127.164C255.1 168.687 249.55 193.658 235.416 215.277C222.216 235.466 198.18 248.266 165.151 252.695C147.932 255.004 125.031 255.639 106.429 254.324Z" fill="url(#paint0_linear_83_232)"/>
<path d="M144.026 74L127.777 95.7278H192.887V161.022H62.6665V95.7278H127.777L111.416 74H62.6665C50.7278 74 41 83.7554 41 95.7278V161.022C41 172.995 50.7278 182.75 62.6665 182.75H192.887C204.825 182.75 214.553 172.995 214.553 161.022V95.7278C214.553 83.7554 204.825 74 192.887 74H144.026Z" fill="white"/>
<path d="M106 117.456H84.333V139.184H106V117.456Z" fill="white"/>
<path d="M171.11 117.456H149.443V139.184H171.11V117.456Z" fill="white"/>
<defs>
<linearGradient id="paint0_linear_83_232" x1="128" y1="1" x2="128" y2="255" gradientUnits="userSpaceOnUse">
<stop stop-color="#1DC07B"/>
<stop offset="1" stop-color="#19A96C"/>
</linearGradient>
</defs>
</svg>
