<svg width="256" height="256" viewBox="0 0 256 256" fill="none" xmlns="http://www.w3.org/2000/svg">
<mask id="mask0_83_220" style="mask-type:alpha" maskUnits="userSpaceOnUse" x="1" y="1" width="254" height="254">
<path d="M106.429 254.324C77.8036 252.299 57.2862 246.329 40.0761 235.018C21.6571 222.911 8.93954 200.243 3.9843 170.687C1.69292 157.021 0.962957 146.366 1.00143 127.164C1.07014 93.0812 4.72734 71.9613 13.9373 52.4684C22.7757 33.762 33.8514 22.6792 52.4395 13.9416C72.1839 4.66056 93.5545 1 127.994 1C162.433 1 183.803 4.66056 203.548 13.9416C222.119 22.6715 233.122 33.6726 242.078 52.4684C251.216 71.6451 254.915 93.0336 254.999 127.164C255.1 168.687 249.55 193.658 235.416 215.277C222.216 235.466 198.18 248.266 165.151 252.695C147.932 255.004 125.031 255.639 106.429 254.324Z" fill="white"/>
</mask>
<g mask="url(#mask0_83_220)">
<rect x="1" y="1.33273" width="254.001" height="254.001" fill="url(#paint0_linear_83_220)"/>
<g filter="url(#filter0_d_83_220)">
<path fill-rule="evenodd" clip-rule="evenodd" d="M14.3324 184.646C17.7596 181.235 19.837 179.712 22.8941 177.601C32.3625 171.064 44.4323 165.901 56.1336 165.761C56.5259 165.756 56.9804 165.702 57.453 165.645C58.4024 165.532 59.425 165.41 60.1627 165.663C62.0794 166.323 63.9004 168.356 65.6338 170.29C66.6963 171.476 67.7259 172.625 68.7244 173.398L68.7731 173.436C69.6765 174.137 72.5792 176.389 73.4871 174.745C74.0921 173.65 72.0565 171.872 70.7798 170.757L70.7786 170.756C70.4445 170.464 70.1624 170.217 69.9934 170.041C66.1092 165.977 63.3186 160.823 61.7812 155.435C57.6659 141.014 61.2462 125.939 68.8252 113.382C70.6386 110.378 73.0115 107.755 75.3699 105.147L75.3707 105.146C76.1499 104.285 76.9275 103.425 77.6829 102.554C77.8113 102.406 78.0196 102.206 78.2637 101.971C79.236 101.035 80.777 99.553 80.1083 98.6452C79.3307 97.5895 77.4017 99.0249 76.4038 99.7675C76.2553 99.878 76.1274 99.9731 76.027 100.042C73.0775 102.079 70.4512 104.501 67.9789 107.087C67.8119 107.261 67.6286 107.494 67.4304 107.745C66.7595 108.596 65.9165 109.666 64.9472 109.455C61.8611 108.783 58.416 104.572 56.2155 101.882C55.9693 101.581 55.7387 101.299 55.5259 101.043C46.6359 90.3572 43.518 75.9082 47.0392 62.5156C54.5538 33.9345 89.6128 21.952 113.296 38.9529C120.605 44.2 126.321 51.9185 129.073 60.5011C129.628 62.2297 129.913 64.0144 130.198 65.7895C130.457 67.4086 130.715 69.0201 131.174 70.5737L130.923 70.8255C128.636 70.1497 125.4 70.8544 123.116 71.4236C123.047 71.4409 122.959 71.4602 122.859 71.4821C122.114 71.6457 120.679 71.9607 120.83 72.7872C120.976 73.5824 123.286 73.677 124.615 73.7314C124.95 73.7451 125.222 73.7562 125.383 73.7754C125.735 73.8176 126.087 73.8595 126.439 73.9013C131.171 74.4646 135.817 75.0175 140.492 76.0616C157.304 79.8162 174.989 90.0497 186.531 102.806C191.174 107.937 195.082 113.443 198.554 119.426C198.677 119.638 198.843 119.985 199.042 120.403C199.837 122.07 201.163 124.85 202.405 124.525C203.535 124.228 203.084 122.283 202.847 121.26C202.819 121.137 202.793 121.028 202.774 120.937C202.329 118.812 201.384 116.941 200.442 115.078C199.668 113.545 198.897 112.018 198.409 110.36C205.482 109.447 212.014 108.825 219.058 110.586C233.263 114.136 245.063 125.391 249.576 139.27C251.154 143.45 252.021 148.004 252.021 152.768C252.021 161.201 248.921 169.804 243.9 176.989C239.609 183.13 233.915 188.236 227.555 191.315C227.155 191.509 226.753 191.694 226.348 191.871C220.631 194.646 214.349 196.17 207.978 195.967C202.764 195.8 198.259 194.463 193.483 193.045C192.536 192.764 191.578 192.479 190.602 192.2C191.471 189.941 192.612 187.843 193.755 185.741C195.252 182.99 196.752 180.231 197.653 177.091C197.705 176.912 197.784 176.675 197.877 176.4L197.877 176.399C198.38 174.901 199.263 172.274 198.078 171.569C196.746 170.777 195.385 173.775 194.667 175.358C194.526 175.667 194.411 175.922 194.324 176.084C192.045 180.375 189.304 184.183 186.533 188.031L186.532 188.033C185.365 189.654 184.193 191.282 183.048 192.956H182.796C177.218 184.797 164.433 178.126 154.593 177.343V177.595C166.707 179.226 176.627 188.114 182.545 198.244H181.034L183.3 202.525C168.295 202.525 156.385 210.51 144.437 218.522C143.626 219.066 142.815 219.61 142.002 220.152C140.796 220.956 139.586 221.811 138.362 222.676C133.635 226.015 128.715 229.492 123.116 230.675C119.072 231.53 113.771 231.516 112.025 226.951C111.692 226.08 111.722 225.238 111.753 224.379C111.77 223.901 111.787 223.418 111.742 222.922C111.604 221.393 111.495 220.117 112.066 218.641C113.79 214.184 118.879 210.836 123.116 209.072V208.82C117.529 210.144 111.242 214.276 108.541 219.396C107.537 221.3 107.214 223.319 107.137 225.44C107.125 225.776 107.215 226.164 107.307 226.558C107.447 227.165 107.592 227.789 107.377 228.273C106.708 229.779 104.172 230.405 102.719 230.616C96.0585 231.586 91.7419 223.924 92.5018 218.137C92.6097 217.316 92.6274 216.495 92.6451 215.678C92.6729 214.39 92.7006 213.109 93.0802 211.842C95.1963 204.78 101.003 200.656 107 196.985V196.733C101.946 198.806 97.2807 201.679 93.4022 205.546C93.1691 204.567 93.2434 203.675 93.3209 202.746C93.3542 202.347 93.3881 201.941 93.3984 201.517C93.659 190.88 101.214 183.706 111.029 180.365V180.113C101.291 182.421 90.9089 190.31 88.9852 200.51C88.5555 202.789 88.5065 205.029 88.9351 207.309C89.012 207.718 89.1689 208.155 89.3285 208.599C89.6001 209.354 89.8796 210.131 89.7873 210.835C89.6392 211.962 89.2596 213.054 88.8767 214.156C88.4554 215.367 88.0302 216.591 87.9049 217.885C87.2339 224.819 90.9705 232.947 98.1865 234.697C100.728 235.313 103.494 235.308 105.993 234.483C106.433 234.337 106.922 234.057 107.424 233.768C108.221 233.311 109.051 232.834 109.77 232.851C110.632 232.87 111.6 233.454 112.568 234.037C113.332 234.497 114.096 234.957 114.806 235.14C118.623 236.121 123.19 235.582 126.893 234.375C131.433 232.895 135.45 230.151 139.392 227.458L139.394 227.457L139.394 227.456C140.182 226.918 140.966 226.383 141.751 225.859C143.592 224.632 145.416 223.373 147.237 222.116C157.695 214.897 168.075 207.733 181.285 206.828C189.994 206.232 199.063 208.522 206.467 213.117C209.579 215.049 212.398 217.447 215.074 219.724L215.28 219.9L254.999 255.187H1V202.098C4.61195 196.108 9.07037 189.883 14.3324 184.646ZM98.9422 48.1622V48.414C106.166 55.6981 107.975 65.4588 105.238 75.1064C111.235 70.5161 111.353 60.2542 107.852 54.2057C106.502 51.8713 101.985 46.0008 98.9422 48.1622ZM93.3405 123.455C93.0871 121.934 92.881 119.247 94.6613 118.67C94.6958 122.841 97.2078 125.545 100.957 126.999C101.313 127.137 101.885 127.196 102.499 127.26C103.603 127.375 104.843 127.504 105.203 128.129C106.279 129.995 101.791 131.045 100.705 130.963C96.6369 130.656 93.9772 127.277 93.3405 123.455ZM134.196 131.12C131.503 131.544 129.124 132.956 126.894 134.452C120.771 138.559 112.859 146.218 111.858 153.924C110.704 162.804 121.703 170.608 129.915 169.429C140.705 167.88 144.124 150.697 144.016 141.585C143.947 135.803 140.704 130.095 134.196 131.12ZM211 132.834C216.988 129.86 227.319 130.017 232.152 135.29C230.71 135.215 229.299 134.698 227.88 134.178C226.714 133.751 225.543 133.321 224.346 133.134C219.388 132.36 213.89 134.057 209.741 136.725C209.524 136.864 209.168 137.171 208.734 137.545C207.23 138.841 204.787 140.946 203.967 139.689C203.455 138.906 204.362 137.946 204.887 137.389L204.927 137.347L204.967 137.305C206.761 135.391 208.659 133.997 211 132.834ZM172.479 165.102C169.212 165.532 165.989 165.956 163.165 163.734C162.623 163.308 162.011 162.352 161.357 161.33C160.268 159.629 159.064 157.749 157.881 157.839C155.69 158.006 157.351 162.75 157.911 163.745C160.155 167.735 164.502 169.873 168.947 168.658C170.804 168.151 172.911 167.054 173.228 165.004C172.979 165.036 172.73 165.069 172.482 165.101L172.479 165.102ZM152.075 177.091V176.84L153.082 177.091H152.075ZM153.586 177.091V177.343H154.341L153.586 177.091Z" fill="url(#paint1_linear_83_220)"/>
</g>
</g>
<defs>
<filter id="filter0_d_83_220" x="-47" y="-16.8724" width="349.999" height="320.06" filterUnits="userSpaceOnUse" color-interpolation-filters="sRGB">
<feFlood flood-opacity="0" result="BackgroundImageFix"/>
<feColorMatrix in="SourceAlpha" type="matrix" values="0 0 0 0 0 0 0 0 0 0 0 0 0 0 0 0 0 0 127 0" result="hardAlpha"/>
<feOffset/>
<feGaussianBlur stdDeviation="24"/>
<feComposite in2="hardAlpha" operator="out"/>
<feColorMatrix type="matrix" values="0 0 0 0 0 0 0 0 0 0 0 0 0 0 0 0 0 0 0.25 0"/>
<feBlend mode="normal" in2="BackgroundImageFix" result="effect1_dropShadow_83_220"/>
<feBlend mode="normal" in="SourceGraphic" in2="effect1_dropShadow_83_220" result="shape"/>
</filter>
<linearGradient id="paint0_linear_83_220" x1="1" y1="1.33273" x2="255.001" y2="255.334" gradientUnits="userSpaceOnUse">
<stop stop-color="#37BFB5"/>
<stop offset="1" stop-color="#028B81"/>
</linearGradient>
<linearGradient id="paint1_linear_83_220" x1="105.282" y1="37.459" x2="255.001" y2="255.334" gradientUnits="userSpaceOnUse">
<stop stop-color="white"/>
<stop offset="1" stop-color="#E3E3E3"/>
</linearGradient>
</defs>
</svg>
