<svg width="256" height="256" viewBox="0 0 256 256" fill="none" xmlns="http://www.w3.org/2000/svg">
<path d="M106.429 254.324C77.8036 252.299 57.2862 246.329 40.0761 235.018C21.6571 222.911 8.93954 200.243 3.9843 170.687C1.69292 157.021 0.962957 146.366 1.00143 127.164C1.07014 93.0812 4.72734 71.9613 13.9373 52.4684C22.7757 33.762 33.8514 22.6792 52.4395 13.9416C72.1839 4.66056 93.5545 1 127.994 1C162.433 1 183.803 4.66056 203.548 13.9416C222.119 22.6715 233.122 33.6726 242.078 52.4684C251.216 71.6451 254.915 93.0336 254.999 127.164C255.1 168.687 249.55 193.658 235.416 215.277C222.216 235.466 198.18 248.266 165.151 252.695C147.932 255.004 125.031 255.639 106.429 254.324Z" fill="url(#paint0_linear_90_19)"/>
<path fill-rule="evenodd" clip-rule="evenodd" d="M40.076 235.018C57.2862 246.329 77.8036 252.299 106.429 254.324C125.031 255.639 147.932 255.004 165.151 252.695C185.572 249.957 202.554 244.019 215.664 235.113L215.28 234.772L215.074 234.597C212.398 232.32 209.579 229.921 206.467 227.989C199.063 223.394 189.994 221.104 181.285 221.7C168.075 222.605 157.695 229.77 147.237 236.988C145.416 238.245 143.592 239.504 141.751 240.732C140.966 241.255 140.181 241.791 139.394 242.329L139.392 242.33C135.45 245.023 131.433 247.767 126.893 249.247C123.19 250.454 118.623 250.994 114.806 250.013C114.096 249.83 113.332 249.37 112.568 248.91C111.6 248.326 110.632 247.743 109.77 247.723C109.051 247.707 108.221 248.183 107.424 248.641C106.922 248.929 106.433 249.21 105.993 249.355C103.494 250.18 100.728 250.186 98.1865 249.569C90.9704 247.819 87.2339 239.691 87.9049 232.758C88.0302 231.463 88.4554 230.24 88.8767 229.028C89.2596 227.927 89.6392 226.835 89.7873 225.707C89.8796 225.004 89.6001 224.226 89.3285 223.471C89.1689 223.027 89.0119 222.591 88.9351 222.182C88.5065 219.901 88.5555 217.661 88.9852 215.383C90.9089 205.182 101.291 197.293 111.029 194.986V195.237C101.214 198.578 93.659 205.753 93.3984 216.39C93.3881 216.813 93.3542 217.219 93.3209 217.619C93.2434 218.548 93.1691 219.439 93.4022 220.419C97.2807 216.551 101.946 213.679 107 211.605V211.857C101.003 215.528 95.1963 219.652 93.0802 226.714C92.7006 227.981 92.6729 229.262 92.6451 230.55C92.6274 231.368 92.6097 232.188 92.5018 233.01C91.7419 238.797 96.0585 246.458 102.719 245.489C104.172 245.277 106.708 244.652 107.377 243.145C107.592 242.661 107.447 242.037 107.307 241.431C107.215 241.036 107.125 240.649 107.137 240.312C107.214 238.192 107.537 236.173 108.541 234.269C111.242 229.149 117.529 225.017 123.116 223.692V223.944C118.879 225.708 113.79 229.057 112.066 233.513C111.495 234.989 111.604 236.266 111.742 237.794C111.787 238.29 111.77 238.774 111.753 239.251C111.722 240.111 111.692 240.953 112.025 241.823C113.771 246.388 119.072 246.402 123.116 245.547C128.715 244.364 133.635 240.888 138.362 237.548C139.586 236.684 140.796 235.828 142.002 235.024C142.811 234.485 143.619 233.944 144.426 233.402L144.437 233.395C156.385 225.383 168.295 217.397 183.3 217.397L181.034 213.116H182.545C176.627 202.986 166.707 194.099 154.593 192.467V192.216C164.433 192.999 177.218 199.67 182.796 207.828H183.048C184.193 206.154 185.365 204.526 186.532 202.906L186.533 202.904C189.304 199.056 192.045 195.248 194.324 190.957C194.411 190.794 194.526 190.539 194.666 190.231C195.385 188.648 196.746 185.65 198.078 186.442C199.263 187.147 198.38 189.774 197.877 191.272C197.785 191.547 197.705 191.784 197.653 191.964C196.752 195.104 195.252 197.863 193.756 200.613C192.612 202.715 191.471 204.813 190.602 207.073C191.578 207.352 192.536 207.636 193.483 207.917C198.259 209.335 202.764 210.673 207.978 210.839C214.349 211.042 220.631 209.518 226.348 206.744C226.753 206.567 227.155 206.381 227.555 206.188C233.915 203.108 239.609 198.003 243.9 191.862C248.921 184.677 252.021 176.074 252.021 167.64C252.021 162.876 251.154 158.323 249.576 154.143C245.063 140.263 233.263 129.009 219.058 125.458C212.014 123.698 205.482 124.319 198.409 125.233C198.897 126.891 199.668 128.418 200.443 129.951C201.384 131.813 202.329 133.685 202.774 135.809C202.793 135.901 202.819 136.01 202.847 136.132C203.084 137.155 203.535 139.101 202.405 139.397C201.163 139.722 199.837 136.943 199.042 135.275C198.843 134.858 198.677 134.51 198.554 134.298C195.082 128.316 191.174 122.81 186.531 117.678C174.989 104.922 157.304 94.6886 140.492 90.934C135.817 89.89 131.171 89.337 126.439 88.7738C126.087 88.7319 125.735 88.69 125.383 88.6478C125.222 88.6287 124.95 88.6175 124.615 88.6038C123.286 88.5494 120.976 88.4549 120.83 87.6596C120.679 86.8331 122.114 86.5182 122.859 86.3545C122.959 86.3327 123.047 86.3133 123.116 86.296C125.4 85.7268 128.636 85.0221 130.923 85.6979L131.174 85.4461C130.715 83.8925 130.457 82.281 130.198 80.662C129.913 78.8868 129.628 77.1022 129.073 75.3735C126.321 66.7909 120.605 59.0725 113.296 53.8253C89.6128 36.8245 54.5538 48.8069 47.0392 77.3881C43.518 90.7806 46.6359 105.23 55.5259 115.916C55.7387 116.172 55.9693 116.453 56.2155 116.754C58.416 119.444 61.8611 123.656 64.9471 124.327C65.9165 124.538 66.7595 123.469 67.4304 122.618C67.6286 122.366 67.8118 122.134 67.9789 121.959C70.4512 119.374 73.0775 116.951 76.027 114.915C76.1273 114.846 76.2551 114.751 76.4035 114.64C77.4014 113.898 79.3307 112.462 80.1083 113.518C80.777 114.425 79.236 115.908 78.2637 116.843C78.0196 117.078 77.8113 117.278 77.6828 117.427C76.9277 118.298 76.1503 119.157 75.3713 120.018L75.3699 120.02C73.0115 122.627 70.6386 125.25 68.8252 128.255C61.2462 140.811 57.6659 155.886 61.7812 170.308C63.3185 175.695 66.1092 180.849 69.9934 184.913C70.1624 185.09 70.4445 185.336 70.7786 185.628L70.7797 185.629C72.0565 186.744 74.092 188.522 73.4871 189.617C72.5792 191.261 69.6765 189.009 68.773 188.309L68.7244 188.271C67.7259 187.497 66.6963 186.348 65.6338 185.162C63.9004 183.228 62.0794 181.196 60.1627 180.536C59.4249 180.282 58.4024 180.404 57.453 180.518C56.9806 180.574 56.5258 180.628 56.1336 180.633C44.4323 180.773 32.3625 185.936 22.894 192.474C19.837 194.585 17.7596 196.107 14.3323 199.518C13.8226 200.026 13.3204 200.542 12.8258 201.067C19.3745 215.879 28.6231 227.49 40.076 235.018ZM98.9422 63.2864V63.0346C101.985 60.8733 106.502 66.7438 107.852 69.0782C111.353 75.1267 111.235 85.3885 105.238 89.9788C107.975 80.3312 106.166 70.5705 98.9422 63.2864ZM94.6613 133.543C92.881 134.12 93.0871 136.806 93.3404 138.327C93.9772 142.149 96.6369 145.528 100.705 145.835C101.791 145.917 106.279 144.867 105.203 143.002C104.843 142.376 103.603 142.248 102.499 142.133C101.885 142.069 101.313 142.009 100.957 141.871C97.2078 140.418 94.6958 137.714 94.6613 133.543ZM126.894 149.324C129.124 147.828 131.503 146.416 134.196 145.992C140.704 144.967 143.947 150.676 144.016 156.458C144.124 165.569 140.705 182.752 129.915 184.301C121.703 185.481 110.704 177.677 111.858 168.797C112.859 161.09 120.771 153.432 126.894 149.324ZM232.152 150.163C227.319 144.89 216.988 144.732 211 147.707C208.659 148.869 206.761 150.264 204.967 152.177L204.927 152.219L204.888 152.262C204.362 152.818 203.455 153.778 203.967 154.562C204.787 155.818 207.23 153.714 208.734 152.417C209.168 152.043 209.524 151.736 209.741 151.597C213.89 148.93 219.388 147.232 224.346 148.007C225.543 148.194 226.714 148.623 227.88 149.05C229.299 149.57 230.71 150.088 232.152 150.163ZM163.165 178.607C165.989 180.829 169.212 180.404 172.479 179.974L172.482 179.974C172.73 179.941 172.979 179.908 173.228 179.877C172.911 181.926 170.804 183.023 168.947 183.53C164.502 184.745 160.155 182.607 157.911 178.618C157.351 177.622 155.69 172.878 157.881 172.712C159.064 172.621 160.268 174.502 161.357 176.203C162.011 177.224 162.623 178.181 163.165 178.607ZM152.075 191.712V191.964H153.082L152.075 191.712ZM153.586 192.216V191.964L154.341 192.216H153.586Z" fill="white"/>
<defs>
<linearGradient id="paint0_linear_90_19" x1="128" y1="1" x2="128" y2="255" gradientUnits="userSpaceOnUse">
<stop stop-color="#00C4C0"/>
<stop offset="1" stop-color="#00A9A6"/>
</linearGradient>
</defs>
</svg>
