<svg width="341" height="341" viewBox="0 0 341 341" fill="none" xmlns="http://www.w3.org/2000/svg">
<g clip-path="url(#clip0_70_6)">
<rect width="341" height="341" fill="url(#paint0_linear_70_6)"/>
<g filter="url(#filter0_d_70_6)">
<path fill-rule="evenodd" clip-rule="evenodd" d="M17.8989 246.101C22.5 241.521 25.289 239.477 29.3931 236.643C42.1046 227.867 58.3085 220.935 74.0178 220.747C74.5444 220.741 75.1546 220.668 75.7891 220.592C77.0636 220.44 78.4364 220.276 79.4268 220.617C82.0001 221.502 84.4448 224.231 86.7718 226.828C88.1983 228.42 89.5805 229.962 90.921 231.001L90.9864 231.052C92.1992 231.992 96.0961 235.015 97.3151 232.809C98.1272 231.338 95.3945 228.951 93.6804 227.454L93.6789 227.453C93.2303 227.061 92.8516 226.73 92.6247 226.493C87.4101 221.037 83.6636 214.118 81.5997 206.885C76.0749 187.524 80.8815 167.286 91.0564 150.428C93.4909 146.395 96.6765 142.873 99.8428 139.373L99.8438 139.371C100.89 138.215 101.934 137.061 102.948 135.891C103.12 135.692 103.4 135.423 103.728 135.108C105.033 133.852 107.102 131.862 106.204 130.643C105.16 129.226 102.571 131.153 101.231 132.15C101.031 132.298 100.86 132.426 100.725 132.519C96.7651 135.253 93.2393 138.505 89.9202 141.977C89.6959 142.211 89.45 142.523 89.1838 142.861C88.2832 144.003 87.1514 145.439 85.85 145.156C81.707 144.254 77.0819 138.6 74.1277 134.989C73.7971 134.585 73.4875 134.206 73.2018 133.863C61.2669 119.517 57.081 100.119 61.8083 82.139C71.8968 43.7683 118.964 27.6817 150.759 50.5056C160.572 57.55 168.245 67.9121 171.94 79.4344C172.685 81.7552 173.068 84.1511 173.45 86.5343C173.798 88.7079 174.144 90.8713 174.761 92.9571L174.423 93.2951C171.353 92.3878 167.009 93.3338 163.943 94.098C163.85 94.1213 163.732 94.1471 163.598 94.1766C162.597 94.3963 160.671 94.8191 160.874 95.9287C161.07 96.9963 164.171 97.1232 165.955 97.1963C166.405 97.2147 166.771 97.2297 166.986 97.2554C167.459 97.312 167.932 97.3683 168.404 97.4244C174.757 98.1806 180.993 98.923 187.27 100.325C209.841 105.365 233.583 119.104 249.078 136.229C255.311 143.118 260.558 150.51 265.219 158.542C265.384 158.826 265.607 159.293 265.874 159.853C266.942 162.092 268.722 165.824 270.389 165.387C271.907 164.989 271.301 162.377 270.983 161.004C270.945 160.84 270.911 160.693 270.885 160.57C270.287 157.718 269.018 155.206 267.755 152.705C266.715 150.647 265.679 148.597 265.025 146.371C274.52 145.145 283.29 144.311 292.746 146.674C311.817 151.44 327.658 166.55 333.717 185.184C335.836 190.795 337 196.908 337 203.304C337 214.626 332.838 226.175 326.097 235.822C320.336 244.066 312.692 250.92 304.153 255.054C303.617 255.314 303.077 255.563 302.533 255.801C294.858 259.525 286.424 261.572 277.871 261.299C270.871 261.076 264.824 259.28 258.411 257.376C257.14 256.999 255.854 256.617 254.544 256.243C255.711 253.209 257.242 250.394 258.777 247.571C260.786 243.878 262.8 240.174 264.01 235.959C264.079 235.717 264.186 235.399 264.31 235.03L264.31 235.029C264.986 233.019 266.171 229.492 264.58 228.545C262.792 227.482 260.965 231.506 260 233.632C259.812 234.046 259.657 234.388 259.541 234.606C256.481 240.368 252.8 245.479 249.081 250.645L249.079 250.648C247.513 252.824 245.939 255.009 244.403 257.257H244.065C236.575 246.304 219.411 237.348 206.201 236.297V236.635C222.465 238.825 235.781 250.757 243.726 264.356H241.698L244.741 270.103C224.596 270.103 208.607 280.824 192.566 291.58C191.478 292.31 190.389 293.041 189.298 293.768C187.679 294.847 186.053 295.996 184.411 297.156C178.064 301.64 171.459 306.307 163.943 307.895C158.513 309.043 151.396 309.024 149.053 302.896C148.606 301.727 148.646 300.597 148.687 299.443C148.71 298.802 148.733 298.153 148.673 297.487C148.487 295.435 148.342 293.721 149.108 291.739C151.422 285.756 158.255 281.261 163.943 278.893V278.555C156.442 280.333 148.002 285.88 144.376 292.754C143.027 295.31 142.593 298.021 142.491 300.867C142.475 301.319 142.595 301.839 142.718 302.369C142.907 303.183 143.102 304.021 142.813 304.671C141.914 306.693 138.51 307.533 136.56 307.817C127.617 309.118 121.822 298.833 122.843 291.063C122.987 289.96 123.011 288.859 123.035 287.761C123.072 286.032 123.109 284.313 123.619 282.612C126.46 273.131 134.256 267.594 142.307 262.666V262.328C135.522 265.111 129.258 268.967 124.051 274.16C123.738 272.845 123.838 271.648 123.942 270.401C123.987 269.865 124.032 269.319 124.046 268.751C124.396 254.471 134.539 244.839 147.716 240.354V240.015C134.643 243.113 120.704 253.705 118.122 267.399C117.545 270.458 117.479 273.465 118.054 276.526C118.157 277.076 118.368 277.661 118.582 278.258C118.947 279.271 119.322 280.315 119.198 281.259C119 282.773 118.49 284.239 117.976 285.718C117.41 287.345 116.839 288.987 116.671 290.725C115.77 300.034 120.787 310.945 130.474 313.295C133.886 314.122 137.6 314.115 140.954 313.007C141.545 312.812 142.201 312.435 142.875 312.048C143.945 311.434 145.06 310.794 146.025 310.816C147.182 310.843 148.483 311.626 149.782 312.409C150.808 313.027 151.833 313.645 152.787 313.89C157.91 315.207 164.042 314.483 169.014 312.862C175.108 310.876 180.502 307.191 185.794 303.576L185.796 303.575L185.797 303.574C186.853 302.852 187.906 302.133 188.96 301.431C191.432 299.782 193.88 298.093 196.326 296.405C210.366 286.714 224.301 277.095 242.036 275.881C253.727 275.08 265.903 278.154 275.842 284.324C280.021 286.917 283.805 290.137 287.397 293.194L287.675 293.43L340.998 340.804H0V269.531C4.84909 261.489 10.8346 253.132 17.8989 246.101ZM131.489 62.8692V63.2073C141.187 72.9863 143.616 86.0902 139.941 99.0422C147.993 92.8797 148.15 79.103 143.451 70.9828C141.637 67.8488 135.574 59.9676 131.489 62.8692ZM123.968 163.951C123.628 161.909 123.352 158.302 125.742 157.528C125.788 163.127 129.16 166.757 134.193 168.709C134.672 168.894 135.44 168.974 136.264 169.06C137.747 169.214 139.41 169.387 139.894 170.227C141.338 172.731 135.313 174.14 133.855 174.03C128.394 173.618 124.823 169.082 123.968 163.951ZM178.818 174.241C175.202 174.811 172.008 176.706 169.014 178.714C160.794 184.229 150.172 194.51 148.828 204.857C147.28 216.778 162.045 227.255 173.071 225.672C187.556 223.592 192.147 200.523 192.001 188.291C191.909 180.529 187.554 172.865 178.818 174.241ZM281.928 176.543C289.967 172.55 303.837 172.761 310.325 179.84C308.39 179.739 306.495 179.045 304.59 178.347C303.025 177.773 301.452 177.197 299.845 176.946C293.189 175.906 285.809 178.185 280.237 181.766C279.947 181.953 279.469 182.365 278.886 182.867C276.867 184.607 273.588 187.433 272.486 185.746C271.799 184.694 273.017 183.405 273.722 182.658L273.776 182.601L273.829 182.544C276.237 179.976 278.785 178.104 281.928 176.543ZM230.213 219.862C225.828 220.44 221.5 221.009 217.709 218.027C216.982 217.454 216.159 216.17 215.282 214.799C213.82 212.516 212.204 209.991 210.615 210.112C207.674 210.336 209.903 216.705 210.655 218.041C213.668 223.397 219.504 226.268 225.471 224.637C227.964 223.955 230.794 222.483 231.218 219.732C230.884 219.774 230.55 219.818 230.217 219.862L230.213 219.862ZM202.82 235.959V235.621L204.173 235.959H202.82ZM204.849 235.959V236.297H205.863L204.849 235.959Z" fill="url(#paint1_linear_70_6)"/>
</g>
</g>
<defs>
<filter id="filter0_d_70_6" x="-96" y="-56" width="533" height="492.804" filterUnits="userSpaceOnUse" color-interpolation-filters="sRGB">
<feFlood flood-opacity="0" result="BackgroundImageFix"/>
<feColorMatrix in="SourceAlpha" type="matrix" values="0 0 0 0 0 0 0 0 0 0 0 0 0 0 0 0 0 0 127 0" result="hardAlpha"/>
<feOffset/>
<feGaussianBlur stdDeviation="48"/>
<feComposite in2="hardAlpha" operator="out"/>
<feColorMatrix type="matrix" values="0 0 0 0 0 0 0 0 0 0 0 0 0 0 0 0 0 0 0.25 0"/>
<feBlend mode="normal" in2="BackgroundImageFix" result="effect1_dropShadow_70_6"/>
<feBlend mode="normal" in="SourceGraphic" in2="effect1_dropShadow_70_6" result="shape"/>
</filter>
<linearGradient id="paint0_linear_70_6" x1="0" y1="0" x2="341" y2="341" gradientUnits="userSpaceOnUse">
<stop stop-color="#37BFB5"/>
<stop offset="1" stop-color="#028B81"/>
</linearGradient>
<linearGradient id="paint1_linear_70_6" x1="140" y1="48.5" x2="341" y2="341" gradientUnits="userSpaceOnUse">
<stop stop-color="white"/>
<stop offset="1" stop-color="#E3E3E3"/>
</linearGradient>
<clipPath id="clip0_70_6">
<rect width="341" height="341" fill="white"/>
</clipPath>
</defs>
</svg>
