<svg width="256" height="256" viewBox="0 0 256 256" fill="none" xmlns="http://www.w3.org/2000/svg">
<path d="M106.429 254.324C77.8036 252.299 57.2862 246.329 40.0761 235.018C21.6571 222.911 8.93954 200.243 3.9843 170.687C1.69292 157.021 0.962957 146.366 1.00143 127.164C1.07014 93.0812 4.72734 71.9613 13.9373 52.4684C22.7757 33.762 33.8514 22.6792 52.4395 13.9416C72.1839 4.66056 93.5545 1 127.994 1C162.433 1 183.803 4.66056 203.548 13.9416C222.119 22.6715 233.122 33.6726 242.078 52.4684C251.216 71.6451 254.915 93.0336 254.999 127.164C255.1 168.687 249.55 193.658 235.416 215.277C222.216 235.466 198.18 248.266 165.151 252.695C147.932 255.004 125.031 255.639 106.429 254.324Z" fill="url(#paint0_linear_83_236)"/>
<path d="M30 162.135C30.0077 162.015 33.0583 158.055 36.7797 153.336L43.546 144.756L53.4181 144.578C58.9764 144.478 64.1081 144.249 65.1619 144.054C71.2856 142.92 74.6301 140.591 76.0125 136.496C76.6548 134.593 76.6618 134.384 76.7511 114.288L76.8412 94H87.442H98.0427L98.1182 107.655L98.1937 121.31L101.975 117.862C104.055 115.965 111.188 109.825 117.827 104.217L129.898 94.0207L145.158 94.0108C158.104 94.002 160.353 94.0609 159.992 94.3996C158.732 95.5807 124.879 120.75 121.227 123.221C117.165 125.97 116.951 126.161 117.481 126.575C117.79 126.816 119.99 128.417 122.37 130.134C124.751 131.85 130.559 136.338 135.279 140.108L143.859 146.963L143.934 132.003L144.01 117.044L155.357 108.537C165.748 100.747 166.747 100.067 167.207 100.468C167.484 100.709 172.945 105.458 179.344 111.022C185.743 116.585 194.221 123.964 198.184 127.42C202.147 130.876 205.503 133.742 205.643 133.79C205.784 133.838 205.909 125.195 205.926 114.156C205.944 103.311 205.958 94.2186 205.958 94.2186C205.958 94.2186 210.278 94.0004 215.557 94.0004H225.155L225.15 122.578C225.144 153.698 225.151 153.551 223.507 156.573C221.796 159.717 219.318 161.416 215.484 162.075C213.095 162.486 210.338 162.091 208.317 161.049C207.579 160.668 197.159 151.798 185.161 141.338L163.346 122.318L163.272 142.336L163.197 162.353H147.184H131.171L128.914 160.39C113.474 146.959 103.746 138.433 101.206 136.105C99.5032 134.544 98.0563 133.267 97.9906 133.267C97.9248 133.267 97.8406 133.823 97.8032 134.503C97.5967 138.257 96.1684 143.383 94.5002 146.356C89.1257 155.933 78.7125 160.892 61.545 162.05C56.5102 162.389 29.9798 162.461 30 162.135ZM89.4825 162.114C89.6345 161.983 90.675 161.209 91.7948 160.394C92.9147 159.58 94.7798 157.934 95.9397 156.737L98.0484 154.561V158.457V162.353H93.6273C91.1957 162.353 89.3305 162.245 89.4825 162.114Z" fill="url(#paint1_linear_83_236)"/>
<defs>
<linearGradient id="paint0_linear_83_236" x1="128" y1="1" x2="128" y2="255" gradientUnits="userSpaceOnUse">
<stop stop-color="#0FBA62"/>
<stop offset="1" stop-color="#0B904C"/>
</linearGradient>
<linearGradient id="paint1_linear_83_236" x1="154.393" y1="114.144" x2="191.636" y2="232.205" gradientUnits="userSpaceOnUse">
<stop stop-color="white"/>
<stop offset="1" stop-color="#6689D3"/>
</linearGradient>
</defs>
</svg>
