<svg width="256" height="256" viewBox="0 0 256 256" fill="none" xmlns="http://www.w3.org/2000/svg">
<mask id="mask0_83_236" style="mask-type:alpha" maskUnits="userSpaceOnUse" x="1" y="1" width="254" height="254">
<path d="M106.429 254.324C77.8036 252.299 57.2862 246.329 40.0761 235.018C21.6571 222.911 8.93954 200.243 3.9843 170.687C1.69292 157.021 0.962957 146.366 1.00143 127.164C1.07014 93.0812 4.72734 71.9613 13.9373 52.4684C22.7757 33.762 33.8514 22.6792 52.4395 13.9416C72.1839 4.66056 93.5545 1 127.994 1C162.433 1 183.803 4.66056 203.548 13.9416C222.119 22.6715 233.122 33.6726 242.078 52.4684C251.216 71.6451 254.915 93.0336 254.999 127.164C255.1 168.687 249.55 193.658 235.416 215.277C222.216 235.466 198.18 248.266 165.151 252.695C147.932 255.004 125.031 255.639 106.429 254.324Z" fill="white"/>
</mask>
<g mask="url(#mask0_83_236)">
<rect x="1" y="1" width="254.001" height="254.001" fill="url(#paint0_linear_83_236)"/>
<g filter="url(#filter0_d_83_236)">
<path d="M24.091 162.243C24.0986 162.123 27.1493 158.164 30.8707 153.445L37.6369 144.864L47.5091 144.687C53.0674 144.587 58.1991 144.358 59.2529 144.163C65.3766 143.029 68.721 140.7 70.1034 136.605C70.7458 134.702 70.7527 134.493 70.842 114.397L70.9322 94.1088H81.5329H92.1336L92.2091 107.764L92.2847 121.419L96.0659 117.971C98.1456 116.074 105.279 109.934 111.918 104.326L123.989 94.1295L139.249 94.1196C152.195 94.1108 154.444 94.1697 154.083 94.5085C152.822 95.6895 118.97 120.859 115.318 123.33C111.255 126.079 111.042 126.27 111.572 126.683C111.88 126.925 114.081 128.526 116.461 130.242C118.842 131.959 124.65 136.447 129.37 140.217L137.95 147.072L138.025 132.112L138.101 117.153L149.448 108.646C159.839 100.856 160.838 100.176 161.298 100.577C161.575 100.818 167.036 105.567 173.435 111.13C179.834 116.694 188.312 124.073 192.275 127.529C196.238 130.985 199.594 133.851 199.733 133.899C199.875 133.947 200 125.304 200.017 114.265C200.034 103.419 200.049 94.3274 200.049 94.3274C200.049 94.3274 204.369 94.1093 209.648 94.1093H219.246L219.241 122.687C219.235 153.807 219.242 153.66 217.598 156.682C215.887 159.825 213.409 161.525 209.575 162.184C207.186 162.595 204.429 162.2 202.408 161.157C201.67 160.777 191.25 151.907 179.252 141.446L157.437 122.427L157.363 142.445L157.288 162.462H141.275H125.262L123.005 160.499C107.565 147.068 97.8366 138.541 95.2969 136.213C93.5941 134.653 92.1472 133.376 92.0815 133.376C92.0158 133.376 91.9315 133.932 91.8941 134.612C91.6877 138.366 90.2593 143.492 88.5911 146.465C83.2167 156.041 72.8035 161 55.636 162.159C50.6011 162.498 24.0708 162.569 24.091 162.243ZM83.5734 162.223C83.7254 162.092 84.766 161.318 85.8858 160.503C87.0056 159.689 88.8708 158.043 90.0306 156.846L92.1393 154.67V158.566V162.462H87.7182C85.2866 162.462 83.4215 162.354 83.5734 162.223Z" fill="url(#paint1_linear_83_236)"/>
</g>
</g>
<defs>
<filter id="filter0_d_83_236" x="-23.9091" y="46.1088" width="291.155" height="164.353" filterUnits="userSpaceOnUse" color-interpolation-filters="sRGB">
<feFlood flood-opacity="0" result="BackgroundImageFix"/>
<feColorMatrix in="SourceAlpha" type="matrix" values="0 0 0 0 0 0 0 0 0 0 0 0 0 0 0 0 0 0 127 0" result="hardAlpha"/>
<feOffset/>
<feGaussianBlur stdDeviation="24"/>
<feComposite in2="hardAlpha" operator="out"/>
<feColorMatrix type="matrix" values="0 0 0 0 0 0 0 0 0 0 0 0 0 0 0 0 0 0 0.25 0"/>
<feBlend mode="normal" in2="BackgroundImageFix" result="effect1_dropShadow_83_236"/>
<feBlend mode="normal" in="SourceGraphic" in2="effect1_dropShadow_83_236" result="shape"/>
</filter>
<linearGradient id="paint0_linear_83_236" x1="1" y1="1" x2="255.001" y2="262.45" gradientUnits="userSpaceOnUse">
<stop stop-color="#6ED0A0"/>
<stop offset="1" stop-color="#018A44"/>
</linearGradient>
<linearGradient id="paint1_linear_83_236" x1="148.484" y1="114.252" x2="185.727" y2="232.314" gradientUnits="userSpaceOnUse">
<stop stop-color="white"/>
<stop offset="1" stop-color="#39599F"/>
</linearGradient>
</defs>
</svg>
