<svg width="341" height="341" viewBox="0 0 341 341" fill="none" xmlns="http://www.w3.org/2000/svg">
<g clip-path="url(#clip0_47_8)">
<rect width="341" height="341" fill="url(#paint0_linear_47_8)"/>
<g filter="url(#filter0_d_47_8)">
<path d="M31 216.472C31.0103 216.311 35.1059 210.995 40.102 204.66L49.1858 193.14L62.4393 192.902C69.9014 192.768 76.7909 192.46 78.2056 192.199C86.4268 190.677 90.9168 187.549 92.7727 182.052C93.6351 179.498 93.6444 179.217 93.7643 152.237L93.8853 125H108.117H122.349L122.45 143.332L122.552 161.664L127.628 157.035C130.42 154.489 139.997 146.246 148.91 138.717L165.115 125.028L185.602 125.014C202.983 125.003 206.002 125.082 205.517 125.537C203.825 127.122 158.377 160.912 153.474 164.23C148.02 167.92 147.734 168.177 148.445 168.732C148.859 169.056 151.813 171.206 155.009 173.51C158.205 175.814 166.003 181.84 172.339 186.901L183.858 196.104L183.959 176.02L184.061 155.937L199.295 144.516C213.245 134.058 214.586 133.145 215.204 133.684C215.575 134.007 222.907 140.383 231.498 147.852C240.089 155.321 251.471 165.228 256.791 169.867C262.111 174.506 266.617 178.355 266.804 178.418C266.994 178.483 267.162 166.88 267.185 152.06C267.208 137.5 267.227 125.293 267.227 125.293C267.227 125.293 273.026 125.001 280.114 125.001H293L292.993 163.366C292.985 205.146 292.994 204.949 290.787 209.006C288.49 213.226 285.163 215.507 280.016 216.392C276.809 216.944 273.108 216.414 270.395 215.014C269.404 214.503 255.415 202.595 239.307 188.552L210.02 163.018L209.92 189.892L209.82 216.766H188.323H166.825L163.795 214.13C143.065 196.098 130.005 184.652 126.595 181.526C124.309 179.431 122.367 177.717 122.279 177.717C122.191 177.717 122.077 178.463 122.027 179.376C121.75 184.417 119.832 191.298 117.593 195.289C110.378 208.146 96.3976 214.803 73.3499 216.358C66.5905 216.814 30.9729 216.91 31 216.472ZM110.857 216.445C111.061 216.268 112.457 215.229 113.961 214.136C115.464 213.042 117.968 210.833 119.525 209.226L122.356 206.305V211.535V216.765H116.421C113.156 216.765 110.652 216.621 110.857 216.445Z" fill="url(#paint1_linear_47_8)"/>
</g>
</g>
<defs>
<filter id="filter0_d_47_8" x="-33" y="61" width="390" height="219.766" filterUnits="userSpaceOnUse" color-interpolation-filters="sRGB">
<feFlood flood-opacity="0" result="BackgroundImageFix"/>
<feColorMatrix in="SourceAlpha" type="matrix" values="0 0 0 0 0 0 0 0 0 0 0 0 0 0 0 0 0 0 127 0" result="hardAlpha"/>
<feOffset/>
<feGaussianBlur stdDeviation="32"/>
<feComposite in2="hardAlpha" operator="out"/>
<feColorMatrix type="matrix" values="0 0 0 0 0 0 0 0 0 0 0 0 0 0 0 0 0 0 0.25 0"/>
<feBlend mode="normal" in2="BackgroundImageFix" result="effect1_dropShadow_47_8"/>
<feBlend mode="normal" in="SourceGraphic" in2="effect1_dropShadow_47_8" result="shape"/>
</filter>
<linearGradient id="paint0_linear_47_8" x1="0" y1="0" x2="341" y2="351" gradientUnits="userSpaceOnUse">
<stop stop-color="#6ED0A0"/>
<stop offset="1" stop-color="#018A44"/>
</linearGradient>
<linearGradient id="paint1_linear_47_8" x1="198" y1="152.043" x2="248" y2="310.543" gradientUnits="userSpaceOnUse">
<stop stop-color="white"/>
<stop offset="1" stop-color="#39599F"/>
</linearGradient>
<clipPath id="clip0_47_8">
<rect width="341" height="341" fill="white"/>
</clipPath>
</defs>
</svg>
