<svg width="341" height="341" viewBox="0 0 341 341" fill="none" xmlns="http://www.w3.org/2000/svg">
<rect width="341" height="341" fill="url(#paint0_linear_71_232)"/>
<g filter="url(#filter0_d_71_232)">
<path d="M280.308 120.41C280.308 113.875 280.352 107.355 280.294 100.835C280.265 99.8082 278.95 99.1721 278.068 99.6489C266.473 105.403 254.864 111.157 243.27 116.911C242.388 113.152 240.971 109.494 238.73 106.343C233.945 99.3166 225.892 94.6325 217.406 94.0108C177.923 93.9964 138.427 93.9964 98.9445 94.0108C85.4127 94.2709 73.2252 105.677 72.0545 119.152C71.9679 125.455 72.0109 131.773 72.0109 138.076C71.8809 139.594 73.0373 140.88 74.3094 141.56C94.1734 151.434 114.081 161.236 133.945 171.139C114.225 180.811 94.578 190.627 74.8877 200.357C73.5141 200.979 72.0253 202.164 72.0253 203.812C71.9966 210.13 71.9818 216.448 72.0396 222.78C73.0229 235.343 83.5766 246.345 96.0673 247.936C98.5538 248.167 101.041 248.123 103.527 248.138H213.951C216.611 248.094 219.314 248.181 221.902 247.473C229.709 245.608 236.59 240.273 240.378 233.203C241.824 230.731 242.46 227.912 243.414 225.252C254.748 231.165 266.328 236.644 277.75 242.398C278.762 243.164 280.41 242.412 280.308 241.082C280.308 234.562 280.323 228.027 280.308 221.493C280.28 220.163 279.268 219.107 278.082 218.63C246.117 202.8 214.167 186.94 182.202 171.11C214.225 155.222 246.276 139.362 278.299 123.473C279.499 122.968 280.395 121.74 280.308 120.41ZM222.307 214.916C222.162 217.691 222.841 220.727 221.381 223.257C220.152 225.484 217.651 226.886 215.121 226.857C176.969 226.872 138.802 226.857 100.636 226.857C97.9468 226.959 95.2576 225.455 94.0577 223.041C92.7855 220.627 93.3637 217.822 93.2623 215.219C114.804 204.463 136.402 193.823 157.972 183.11C179.456 193.577 200.867 204.333 222.307 214.916ZM222.292 127.306C200.896 137.903 179.499 148.5 158.117 159.111C136.46 148.471 114.876 137.715 93.248 127.002C93.3637 124.428 92.8142 121.667 93.9998 119.282C95.1854 116.81 97.889 115.248 100.621 115.35C138.774 115.35 176.926 115.335 215.078 115.35C218.562 115.249 221.844 118.053 222.234 121.537C222.393 123.46 222.307 125.383 222.292 127.306Z" fill="white"/>
<path d="M280.308 120.41C280.308 113.875 280.352 107.355 280.294 100.835C280.265 99.8082 278.95 99.1721 278.068 99.6489C266.473 105.403 254.864 111.157 243.27 116.911C242.388 113.152 240.971 109.494 238.73 106.343C233.945 99.3166 225.892 94.6325 217.406 94.0108C177.923 93.9964 138.427 93.9964 98.9445 94.0108C85.4127 94.2709 73.2252 105.677 72.0545 119.152C71.9679 125.455 72.0109 131.773 72.0109 138.076C71.8809 139.594 73.0373 140.88 74.3094 141.56C94.1734 151.434 114.081 161.236 133.945 171.139C114.225 180.811 94.578 190.627 74.8877 200.357C73.5141 200.979 72.0253 202.164 72.0253 203.812C71.9966 210.13 71.9818 216.448 72.0396 222.78C73.0229 235.343 83.5766 246.345 96.0673 247.936C98.5538 248.167 101.041 248.123 103.527 248.138H213.951C216.611 248.094 219.314 248.181 221.902 247.473C229.709 245.608 236.59 240.273 240.378 233.203C241.824 230.731 242.46 227.912 243.414 225.252C254.748 231.165 266.328 236.644 277.75 242.398C278.762 243.164 280.41 242.412 280.308 241.082C280.308 234.562 280.323 228.027 280.308 221.493C280.28 220.163 279.268 219.107 278.082 218.63C246.117 202.8 214.167 186.94 182.202 171.11C214.225 155.222 246.276 139.362 278.299 123.473C279.499 122.968 280.395 121.74 280.308 120.41ZM222.307 214.916C222.162 217.691 222.841 220.727 221.381 223.257C220.152 225.484 217.651 226.886 215.121 226.857C176.969 226.872 138.802 226.857 100.636 226.857C97.9468 226.959 95.2576 225.455 94.0577 223.041C92.7855 220.627 93.3637 217.822 93.2623 215.219C114.804 204.463 136.402 193.823 157.972 183.11C179.456 193.577 200.867 204.333 222.307 214.916ZM222.292 127.306C200.896 137.903 179.499 148.5 158.117 159.111C136.46 148.471 114.876 137.715 93.248 127.002C93.3637 124.428 92.8142 121.667 93.9998 119.282C95.1854 116.81 97.889 115.248 100.621 115.35C138.774 115.35 176.926 115.335 215.078 115.35C218.562 115.249 221.844 118.053 222.234 121.537C222.393 123.46 222.307 125.383 222.292 127.306Z" fill="white"/>
</g>
<defs>
<filter id="filter0_d_71_232" x="24" y="46" width="304.324" height="250.138" filterUnits="userSpaceOnUse" color-interpolation-filters="sRGB">
<feFlood flood-opacity="0" result="BackgroundImageFix"/>
<feColorMatrix in="SourceAlpha" type="matrix" values="0 0 0 0 0 0 0 0 0 0 0 0 0 0 0 0 0 0 127 0" result="hardAlpha"/>
<feOffset/>
<feGaussianBlur stdDeviation="24"/>
<feComposite in2="hardAlpha" operator="out"/>
<feColorMatrix type="matrix" values="0 0 0 0 0 0 0 0 0 0 0 0 0 0 0 0 0 0 0.25 0"/>
<feBlend mode="normal" in2="BackgroundImageFix" result="effect1_dropShadow_71_232"/>
<feBlend mode="normal" in="SourceGraphic" in2="effect1_dropShadow_71_232" result="shape"/>
</filter>
<linearGradient id="paint0_linear_71_232" x1="22" y1="11" x2="307.5" y2="341" gradientUnits="userSpaceOnUse">
<stop stop-color="#FF8762"/>
<stop offset="1" stop-color="#FF3D00"/>
</linearGradient>
</defs>
</svg>
