<svg width="256" height="256" viewBox="0 0 256 256" fill="none" xmlns="http://www.w3.org/2000/svg">
<path d="M106.429 254.324C77.8036 252.299 57.2862 246.329 40.0761 235.018C21.6571 222.911 8.93954 200.243 3.9843 170.687C1.69292 157.021 0.962957 146.366 1.00143 127.164C1.07014 93.0812 4.72734 71.9613 13.9373 52.4684C22.7757 33.762 33.8514 22.6792 52.4395 13.9416C72.1839 4.66056 93.5545 1 127.994 1C162.433 1 183.803 4.66056 203.548 13.9416C222.119 22.6715 233.122 33.6726 242.078 52.4684C251.216 71.6451 254.915 93.0336 254.999 127.164C255.1 168.687 249.55 193.658 235.416 215.277C222.216 235.466 198.18 248.266 165.151 252.695C147.932 255.004 125.031 255.639 106.429 254.324Z" fill="url(#paint0_linear_83_233)"/>
<path d="M205.161 90.6716C205.161 85.8043 205.194 80.9477 205.151 76.0908C205.129 75.3263 204.149 74.8525 203.492 75.2077C194.856 79.4936 186.209 83.7795 177.573 88.0653C176.916 85.2657 175.86 82.5412 174.191 80.1936C170.627 74.9601 164.629 71.4711 158.308 71.008C128.898 70.9973 99.4791 70.9973 70.07 71.008C59.9906 71.2018 50.9126 79.6981 50.0406 89.7347C49.9761 94.4298 50.0081 99.1357 50.0081 103.831C49.9112 104.961 50.7726 105.92 51.7202 106.426C66.5161 113.781 81.3445 121.082 96.1404 128.458C81.4521 135.662 66.8175 142.974 52.1509 150.221C51.1278 150.685 50.0188 151.568 50.0188 152.795C49.9975 157.501 49.9864 162.207 50.0295 166.924C50.7619 176.282 58.623 184.476 67.9268 185.661C69.7789 185.833 71.6313 185.801 73.4834 185.812H155.734C157.715 185.779 159.729 185.844 161.657 185.316C167.471 183.927 172.597 179.953 175.419 174.687C176.496 172.846 176.969 170.746 177.68 168.765C186.123 173.169 194.748 177.25 203.255 181.536C204.009 182.107 205.237 181.547 205.161 180.556C205.161 175.7 205.172 170.832 205.161 165.965C205.14 164.974 204.386 164.188 203.503 163.833C179.694 152.041 155.895 140.228 132.086 128.436C155.938 116.602 179.812 104.789 203.664 92.9536C204.558 92.5774 205.226 91.6622 205.161 90.6716ZM161.958 161.066C161.85 163.133 162.356 165.395 161.269 167.279C160.353 168.937 158.49 169.982 156.606 169.961C128.187 169.971 99.7587 169.961 71.3296 169.961C69.3269 170.036 67.3237 168.916 66.4299 167.118C65.4824 165.319 65.913 163.23 65.8375 161.292C81.8828 153.28 97.9708 145.355 114.038 137.375C130.04 145.171 145.988 153.183 161.958 161.066ZM161.947 95.8081C146.01 103.702 130.072 111.595 114.145 119.499C98.0139 111.573 81.9366 103.562 65.8268 95.5819C65.913 93.665 65.5037 91.6084 66.3868 89.8315C67.2699 87.9902 69.2837 86.8271 71.3189 86.9026C99.7373 86.9026 128.155 86.8919 156.573 86.9026C159.169 86.8274 161.613 88.9164 161.904 91.5116C162.022 92.9436 161.958 94.3757 161.947 95.8081Z" fill="white"/>
<defs>
<linearGradient id="paint0_linear_83_233" x1="128" y1="1" x2="128" y2="255" gradientUnits="userSpaceOnUse">
<stop stop-color="#FF764B"/>
<stop offset="1" stop-color="#FF6332"/>
</linearGradient>
</defs>
</svg>
