<svg width="256" height="256" viewBox="0 0 256 256" fill="none" xmlns="http://www.w3.org/2000/svg">
<mask id="mask0_83_233" style="mask-type:alpha" maskUnits="userSpaceOnUse" x="1" y="1" width="254" height="254">
<path d="M106.429 254.324C77.8036 252.299 57.2862 246.329 40.0761 235.018C21.6571 222.911 8.93954 200.243 3.9843 170.687C1.69292 157.021 0.962957 146.366 1.00143 127.164C1.07014 93.0812 4.72734 71.9613 13.9373 52.4684C22.7757 33.762 33.8514 22.6792 52.4395 13.9416C72.1839 4.66056 93.5545 1 127.994 1C162.433 1 183.803 4.66056 203.548 13.9416C222.119 22.6715 233.122 33.6726 242.078 52.4684C251.216 71.6451 254.915 93.0336 254.999 127.164C255.1 168.687 249.55 193.658 235.416 215.277C222.216 235.466 198.18 248.266 165.151 252.695C147.932 255.004 125.031 255.639 106.429 254.324Z" fill="white"/>
</mask>
<g mask="url(#mask0_83_233)">
<rect x="1" y="1" width="254.001" height="254.001" fill="url(#paint0_linear_83_233)"/>
<g filter="url(#filter0_d_83_233)">
<path d="M209.792 90.6894C209.792 85.8221 209.824 80.9655 209.781 76.1086C209.76 75.3441 208.78 74.8703 208.123 75.2255C199.486 79.5114 190.839 83.7973 182.203 88.0832C181.546 85.2835 180.491 82.559 178.821 80.2114C175.257 74.9779 169.259 71.4889 162.938 71.0258C133.529 71.0151 104.109 71.0151 74.7003 71.0258C64.621 71.2196 55.543 79.7159 54.6709 89.7525C54.6064 94.4477 54.6385 99.1535 54.6385 103.848C54.5416 104.979 55.403 105.937 56.3506 106.444C71.1465 113.798 85.9749 121.1 100.771 128.476C86.0824 135.68 71.4479 142.992 56.7813 150.239C55.7582 150.702 54.6492 151.586 54.6492 152.813C54.6278 157.519 54.6168 162.225 54.6599 166.941C55.3923 176.299 63.2534 184.494 72.5572 185.679C74.4093 185.851 76.2617 185.819 78.1138 185.829H160.364C162.346 185.797 164.359 185.862 166.287 185.334C172.102 183.945 177.228 179.971 180.049 174.705C181.126 172.864 181.6 170.764 182.31 168.782C190.753 173.187 199.378 177.268 207.886 181.554C208.64 182.125 209.867 181.565 209.792 180.574C209.792 175.717 209.802 170.85 209.792 165.982C209.77 164.992 209.016 164.206 208.133 163.85C184.324 152.059 160.526 140.246 136.716 128.454C160.569 116.619 184.443 104.806 208.295 92.9715C209.189 92.5952 209.856 91.6801 209.792 90.6894ZM166.588 161.083C166.481 163.151 166.987 165.412 165.899 167.297C164.983 168.955 163.121 170 161.236 169.978C132.818 169.989 104.389 169.978 75.96 169.978C73.9572 170.054 71.9541 168.934 71.0603 167.136C70.1127 165.337 70.5434 163.248 70.4679 161.31C86.5131 153.298 102.601 145.372 118.668 137.393C134.67 145.189 150.619 153.201 166.588 161.083ZM166.577 95.8259C150.64 103.719 134.702 111.613 118.776 119.517C102.644 111.591 86.5669 103.579 70.4572 95.5997C70.5434 93.6828 70.1341 91.6263 71.0172 89.8494C71.9003 88.008 73.9141 86.8449 75.9493 86.9204C104.368 86.9204 132.786 86.9097 161.204 86.9204C163.799 86.8452 166.243 88.9342 166.534 91.5294C166.653 92.9615 166.588 94.3935 166.577 95.8259Z" fill="white"/>
<path d="M209.792 90.6894C209.792 85.8221 209.824 80.9655 209.781 76.1086C209.76 75.3441 208.78 74.8703 208.123 75.2255C199.486 79.5114 190.839 83.7973 182.203 88.0832C181.546 85.2835 180.491 82.559 178.821 80.2114C175.257 74.9779 169.259 71.4889 162.938 71.0258C133.529 71.0151 104.109 71.0151 74.7003 71.0258C64.621 71.2196 55.543 79.7159 54.6709 89.7525C54.6064 94.4477 54.6385 99.1535 54.6385 103.848C54.5416 104.979 55.403 105.937 56.3506 106.444C71.1465 113.798 85.9749 121.1 100.771 128.476C86.0824 135.68 71.4479 142.992 56.7813 150.239C55.7582 150.702 54.6492 151.586 54.6492 152.813C54.6278 157.519 54.6168 162.225 54.6599 166.941C55.3923 176.299 63.2534 184.494 72.5572 185.679C74.4093 185.851 76.2617 185.819 78.1138 185.829H160.364C162.346 185.797 164.359 185.862 166.287 185.334C172.102 183.945 177.228 179.971 180.049 174.705C181.126 172.864 181.6 170.764 182.31 168.782C190.753 173.187 199.378 177.268 207.886 181.554C208.64 182.125 209.867 181.565 209.792 180.574C209.792 175.717 209.802 170.85 209.792 165.982C209.77 164.992 209.016 164.206 208.133 163.85C184.324 152.059 160.526 140.246 136.716 128.454C160.569 116.619 184.443 104.806 208.295 92.9715C209.189 92.5952 209.856 91.6801 209.792 90.6894ZM166.588 161.083C166.481 163.151 166.987 165.412 165.899 167.297C164.983 168.955 163.121 170 161.236 169.978C132.818 169.989 104.389 169.978 75.96 169.978C73.9572 170.054 71.9541 168.934 71.0603 167.136C70.1127 165.337 70.5434 163.248 70.4679 161.31C86.5131 153.298 102.601 145.372 118.668 137.393C134.67 145.189 150.619 153.201 166.588 161.083ZM166.577 95.8259C150.64 103.719 134.702 111.613 118.776 119.517C102.644 111.591 86.5669 103.579 70.4572 95.5997C70.5434 93.6828 70.1341 91.6263 71.0172 89.8494C71.9003 88.008 73.9141 86.8449 75.9493 86.9204C104.368 86.9204 132.786 86.9097 161.204 86.9204C163.799 86.8452 166.243 88.9342 166.534 91.5294C166.653 92.9615 166.588 94.3935 166.577 95.8259Z" fill="white"/>
</g>
</g>
<defs>
<filter id="filter0_d_83_233" x="6.63037" y="23.0178" width="251.173" height="210.812" filterUnits="userSpaceOnUse" color-interpolation-filters="sRGB">
<feFlood flood-opacity="0" result="BackgroundImageFix"/>
<feColorMatrix in="SourceAlpha" type="matrix" values="0 0 0 0 0 0 0 0 0 0 0 0 0 0 0 0 0 0 127 0" result="hardAlpha"/>
<feOffset/>
<feGaussianBlur stdDeviation="24"/>
<feComposite in2="hardAlpha" operator="out"/>
<feColorMatrix type="matrix" values="0 0 0 0 0 0 0 0 0 0 0 0 0 0 0 0 0 0 0.25 0"/>
<feBlend mode="normal" in2="BackgroundImageFix" result="effect1_dropShadow_83_233"/>
<feBlend mode="normal" in="SourceGraphic" in2="effect1_dropShadow_83_233" result="shape"/>
</filter>
<linearGradient id="paint0_linear_83_233" x1="17.3872" y1="9.19357" x2="230.048" y2="255.001" gradientUnits="userSpaceOnUse">
<stop stop-color="#FF8762"/>
<stop offset="1" stop-color="#FF3D00"/>
</linearGradient>
</defs>
</svg>
