<svg width="256" height="256" viewBox="0 0 256 256" fill="none" xmlns="http://www.w3.org/2000/svg">
<mask id="mask0_83_234" style="mask-type:alpha" maskUnits="userSpaceOnUse" x="1" y="1" width="254" height="254">
<path d="M106.429 254.324C77.8036 252.299 57.2862 246.329 40.0761 235.018C21.6571 222.911 8.93954 200.243 3.9843 170.687C1.69292 157.021 0.962957 146.366 1.00143 127.164C1.07014 93.0812 4.72734 71.9613 13.9373 52.4684C22.7757 33.762 33.8514 22.6792 52.4395 13.9416C72.1839 4.66056 93.5545 1 127.994 1C162.433 1 183.803 4.66056 203.548 13.9416C222.119 22.6715 233.122 33.6726 242.078 52.4684C251.216 71.6451 254.915 93.0336 254.999 127.164C255.1 168.687 249.55 193.658 235.416 215.277C222.216 235.466 198.18 248.266 165.151 252.695C147.932 255.004 125.031 255.639 106.429 254.324Z" fill="white"/>
</mask>
<g mask="url(#mask0_83_234)">
<rect x="1" y="1" width="254.001" height="254.001" fill="url(#paint0_linear_83_234)"/>
<g filter="url(#filter0_d_83_234)">
<path d="M169.704 79.5191C163.942 72.8713 160.765 64.3355 160.766 55.4993H134.711V161.118C134.515 166.835 132.127 172.251 128.053 176.224C123.978 180.197 118.536 182.416 112.873 182.412C100.899 182.412 90.9495 172.532 90.9495 160.266C90.9495 145.616 104.947 134.628 119.365 139.143V112.227C90.275 108.309 64.8104 131.136 64.8104 160.266C64.8104 188.63 88.0827 208.817 112.788 208.817C139.265 208.817 160.766 187.097 160.766 160.266V106.69C171.331 114.355 184.016 118.467 197.024 118.445V92.1252C197.024 92.1252 181.172 92.8918 169.704 79.5191Z" fill="#F6034D"/>
<path d="M163.753 72.6913C158.045 66.0435 154.899 57.5077 154.899 48.6715H129.089V154.29C128.894 160.007 126.529 165.424 122.493 169.396C118.457 173.369 113.065 175.588 107.456 175.585C95.5946 175.585 85.7383 165.704 85.7383 153.439C85.7383 138.788 99.6039 127.801 113.887 132.315V105.399C85.07 101.481 59.8446 124.308 59.8446 153.439C59.8446 181.802 82.8983 201.989 107.372 201.989C133.6 201.989 154.899 180.269 154.899 153.439V99.8626C165.365 107.527 177.931 111.64 190.816 111.617V85.2974C190.816 85.2974 175.113 86.064 163.753 72.6913Z" fill="#05F4EE"/>
<path d="M155.531 55.4993C156.715 61.8338 159.535 67.7781 163.753 72.6911C164.84 73.9699 165.966 75.1194 167.114 76.1526C167.908 77.3196 168.772 78.444 169.704 79.519C176.628 87.5932 185.15 90.5129 190.816 91.559V111.617C177.931 111.639 165.365 107.527 154.899 99.8625V153.438C154.899 180.269 133.6 201.989 107.372 201.989C93.9238 201.989 80.9043 195.894 71.9029 185.695C67.4532 178.454 64.8104 169.824 64.8104 160.266C64.8104 132.981 87.1516 111.225 113.887 111.799V132.315C99.6039 127.8 85.7383 138.788 85.7383 153.438C85.7383 160.138 88.6789 166.126 93.2806 170.181C96.9099 177.444 104.382 182.412 112.873 182.412C118.536 182.416 123.978 180.197 128.053 176.224C132.127 172.251 134.515 166.835 134.711 161.118V55.4993H155.531Z" fill="white"/>
</g>
</g>
<defs>
<filter id="filter0_d_83_234" x="11.8446" y="0.671539" width="233.179" height="256.145" filterUnits="userSpaceOnUse" color-interpolation-filters="sRGB">
<feFlood flood-opacity="0" result="BackgroundImageFix"/>
<feColorMatrix in="SourceAlpha" type="matrix" values="0 0 0 0 0 0 0 0 0 0 0 0 0 0 0 0 0 0 127 0" result="hardAlpha"/>
<feOffset/>
<feGaussianBlur stdDeviation="24"/>
<feComposite in2="hardAlpha" operator="out"/>
<feColorMatrix type="matrix" values="0 0 0 0 0 0 0 0 0 0 0 0 0 0 0 0 0 0 0.25 0"/>
<feBlend mode="normal" in2="BackgroundImageFix" result="effect1_dropShadow_83_234"/>
<feBlend mode="normal" in="SourceGraphic" in2="effect1_dropShadow_83_234" result="shape"/>
</filter>
<linearGradient id="paint0_linear_83_234" x1="17.3872" y1="9.19357" x2="230.048" y2="255.001" gradientUnits="userSpaceOnUse">
<stop stop-color="#89CEFF"/>
<stop offset="1" stop-color="#E388FB"/>
</linearGradient>
</defs>
</svg>
