<svg width="341" height="341" viewBox="0 0 341 341" fill="none" xmlns="http://www.w3.org/2000/svg">
<g clip-path="url(#clip0_71_42)">
<rect width="341" height="341" fill="url(#paint0_linear_71_42)"/>
<g filter="url(#filter0_d_71_42)">
<path d="M226.489 105.414C218.753 96.489 214.489 85.0295 214.49 73.1666H179.511V214.963C179.246 222.638 176.041 229.91 170.571 235.243C165.101 240.577 157.794 243.556 150.191 243.551C134.117 243.551 120.759 230.286 120.759 213.819C120.759 194.151 139.551 179.399 158.908 185.46V149.325C119.853 144.065 85.6666 174.711 85.6666 213.819C85.6666 251.899 116.91 279 150.078 279C185.624 279 214.49 249.84 214.49 213.819V141.892C228.674 152.182 245.704 157.703 263.167 157.673V122.338C263.167 122.338 241.885 123.367 226.489 105.414Z" fill="#F6034D"/>
<path d="M218.5 96.2472C210.837 87.3224 206.613 75.8629 206.614 64H171.963V205.796C171.701 213.471 168.526 220.743 163.107 226.077C157.689 231.41 150.45 234.389 142.919 234.384C126.995 234.384 113.763 221.119 113.763 204.653C113.763 184.984 132.378 170.233 151.554 176.294V140.158C112.866 134.898 79 165.544 79 204.653C79 242.732 109.95 269.833 142.807 269.833C178.018 269.833 206.614 240.674 206.614 204.653V132.725C220.665 143.015 237.534 148.536 254.833 148.506V113.171C254.833 113.171 233.751 114.2 218.5 96.2472Z" fill="#05F4EE"/>
<path d="M207.462 73.1666C209.051 81.671 212.837 89.6513 218.5 96.2472C219.959 97.964 221.47 99.5072 223.012 100.894C224.078 102.461 225.238 103.971 226.489 105.414C235.785 116.254 247.226 120.173 254.833 121.578V148.506C237.534 148.536 220.665 143.015 206.614 132.725V204.653C206.614 240.674 178.018 269.833 142.807 269.833C124.752 269.833 107.273 261.65 95.1885 247.959C89.2146 238.237 85.6666 226.651 85.6666 213.819C85.6666 177.188 115.66 147.981 151.554 148.751V176.293C132.378 170.233 113.763 184.984 113.763 204.653C113.763 213.647 117.711 221.686 123.889 227.13C128.761 236.881 138.793 243.551 150.192 243.551C157.794 243.556 165.101 240.577 170.571 235.243C176.041 229.91 179.247 222.638 179.511 214.963V73.1666H207.462Z" fill="white"/>
</g>
</g>
<defs>
<filter id="filter0_d_71_42" x="15" y="0" width="312.167" height="343" filterUnits="userSpaceOnUse" color-interpolation-filters="sRGB">
<feFlood flood-opacity="0" result="BackgroundImageFix"/>
<feColorMatrix in="SourceAlpha" type="matrix" values="0 0 0 0 0 0 0 0 0 0 0 0 0 0 0 0 0 0 127 0" result="hardAlpha"/>
<feOffset/>
<feGaussianBlur stdDeviation="32"/>
<feComposite in2="hardAlpha" operator="out"/>
<feColorMatrix type="matrix" values="0 0 0 0 0 0 0 0 0 0 0 0 0 0 0 0 0 0 0.25 0"/>
<feBlend mode="normal" in2="BackgroundImageFix" result="effect1_dropShadow_71_42"/>
<feBlend mode="normal" in="SourceGraphic" in2="effect1_dropShadow_71_42" result="shape"/>
</filter>
<linearGradient id="paint0_linear_71_42" x1="22" y1="11" x2="307.5" y2="341" gradientUnits="userSpaceOnUse">
<stop stop-color="#89CEFF"/>
<stop offset="1" stop-color="#E388FB"/>
</linearGradient>
<clipPath id="clip0_71_42">
<rect width="341" height="341" fill="white"/>
</clipPath>
</defs>
</svg>
