<svg width="256" height="256" viewBox="0 0 256 256" fill="none" xmlns="http://www.w3.org/2000/svg">
<mask id="mask0_83_240" style="mask-type:alpha" maskUnits="userSpaceOnUse" x="1" y="1" width="254" height="254">
<path d="M106.429 254.324C77.8036 252.299 57.2862 246.329 40.0761 235.018C21.6571 222.911 8.93954 200.243 3.9843 170.687C1.69292 157.021 0.962957 146.366 1.00143 127.164C1.07014 93.0812 4.72734 71.9613 13.9373 52.4684C22.7757 33.762 33.8514 22.6792 52.4395 13.9416C72.1839 4.66056 93.5545 1 127.994 1C162.433 1 183.803 4.66056 203.548 13.9416C222.119 22.6715 233.122 33.6726 242.078 52.4684C251.216 71.6451 254.915 93.0336 254.999 127.164C255.1 168.687 249.55 193.658 235.416 215.277C222.216 235.466 198.18 248.266 165.151 252.695C147.932 255.004 125.031 255.639 106.429 254.324Z" fill="white"/>
</mask>
<g mask="url(#mask0_83_240)">
<rect x="1" y="1" width="254.001" height="254.001" fill="url(#paint0_linear_83_240)"/>
<g filter="url(#filter0_d_83_240)">
<path d="M119.591 105.85C119.603 105.949 125.184 115.97 131.968 128.112C138.752 140.254 144.333 150.2 144.371 150.2C144.408 150.2 150.076 140.279 156.984 128.149C163.892 116.032 169.56 106.011 169.597 105.887C169.671 105.689 169.386 105.676 164.574 105.701L159.477 105.738C152.581 117.843 149.22 123.746 147.57 126.661C145.908 129.575 144.495 131.944 144.433 131.932C144.371 131.907 141.146 126.227 137.276 119.306C133.407 112.386 130.108 106.495 129.934 106.197L129.612 105.676C120.248 105.676 119.554 105.701 119.591 105.85Z" fill="white"/>
<path fill-rule="evenodd" clip-rule="evenodd" d="M98.1721 105.813C97.552 105.862 96.473 106.023 95.7537 106.172C95.0344 106.321 93.9182 106.606 93.2733 106.817C92.6283 107.016 91.4749 107.487 90.7308 107.834C89.9867 108.194 88.9821 108.727 88.4984 109.025C88.0147 109.31 87.2085 109.868 86.7125 110.253C86.204 110.637 85.3358 111.369 84.8025 111.877C84.2568 112.386 83.4135 113.304 82.9174 113.924C82.4089 114.544 81.6895 115.536 81.3051 116.156C80.9206 116.776 80.3749 117.744 80.102 118.327C79.8292 118.909 79.4323 119.827 79.2339 120.373C79.0354 120.919 78.7378 121.898 78.5766 122.543C78.4153 123.188 78.2169 124.143 78.1301 124.652C78.0309 125.21 77.9565 126.537 77.9565 128C77.9565 129.464 78.0309 130.791 78.1301 131.349C78.2169 131.857 78.4153 132.812 78.5766 133.457C78.7378 134.102 79.0354 135.082 79.2339 135.628C79.4323 136.173 79.8292 137.091 80.102 137.674C80.3749 138.257 80.9206 139.224 81.3051 139.844C81.6895 140.465 82.4089 141.457 82.9174 142.077C83.4135 142.697 84.2568 143.615 84.8025 144.123C85.3358 144.632 86.204 145.363 86.7125 145.748C87.2085 146.132 88.0147 146.691 88.4984 146.976C88.9821 147.273 89.9867 147.807 90.7308 148.166C91.4749 148.514 92.6283 148.985 93.2733 149.183C93.9182 149.394 95.0096 149.679 95.6917 149.816C96.3738 149.952 97.6885 150.138 98.6062 150.213C99.8713 150.312 100.677 150.312 101.893 150.2C102.773 150.126 104.038 149.952 104.683 149.816C105.328 149.679 106.308 149.431 106.854 149.258C107.399 149.084 108.317 148.737 108.9 148.501C109.483 148.253 110.5 147.745 111.182 147.36C111.852 146.976 112.968 146.244 113.663 145.723C114.345 145.202 115.498 144.16 116.217 143.416C116.937 142.672 117.892 141.531 118.351 140.886C118.81 140.241 119.578 138.939 120.062 137.984C120.533 137.029 121.116 135.665 121.352 134.946C121.588 134.226 121.91 132.998 122.071 132.217C122.319 130.977 122.357 130.431 122.357 128C122.357 125.569 122.319 125.024 122.071 123.784C121.91 123.002 121.588 121.774 121.352 121.055C121.116 120.336 120.533 118.971 120.062 118.016C119.578 117.061 118.81 115.759 118.351 115.114C117.892 114.469 116.937 113.328 116.217 112.584C115.498 111.84 114.345 110.798 113.663 110.277C112.968 109.757 111.852 109.025 111.182 108.64C110.5 108.256 109.483 107.747 108.9 107.499C108.317 107.264 107.399 106.916 106.854 106.743C106.308 106.569 105.328 106.321 104.683 106.185C104.038 106.048 102.86 105.887 102.079 105.813C101.298 105.738 100.343 105.689 99.9705 105.689C99.5984 105.701 98.7923 105.751 98.1721 105.813ZM98.4822 114.742C98.0357 114.804 97.2296 114.966 96.6839 115.102C96.1382 115.251 95.1336 115.635 94.4515 115.958C93.7694 116.28 92.7648 116.888 92.2191 117.297C91.6734 117.706 90.8672 118.426 90.4332 118.897C89.9867 119.368 89.3169 120.224 88.9449 120.807C88.5728 121.39 88.0767 122.308 87.8535 122.853C87.6302 123.399 87.3326 124.292 87.1838 124.838C86.9481 125.681 86.9109 126.152 86.9109 128C86.9109 129.848 86.9481 130.32 87.1838 131.163C87.3326 131.709 87.6302 132.602 87.8535 133.147C88.0767 133.693 88.5728 134.611 88.9449 135.194C89.3169 135.777 89.9867 136.632 90.4332 137.104C90.8672 137.575 91.6734 138.294 92.2191 138.703C92.7648 139.113 93.7694 139.72 94.4515 140.043C95.1336 140.365 96.1382 140.75 96.6839 140.899C97.2296 141.035 98.2342 141.221 98.9163 141.296C99.8341 141.395 100.491 141.395 101.459 141.296C102.178 141.209 103.245 141.01 103.852 140.837C104.448 140.663 105.365 140.316 105.886 140.055C106.42 139.795 107.189 139.361 107.598 139.1C108.007 138.827 108.838 138.133 109.433 137.55C110.041 136.967 110.798 136.099 111.12 135.628C111.455 135.156 111.889 134.425 112.088 134.015C112.298 133.606 112.608 132.874 112.782 132.403C112.956 131.932 113.179 131.064 113.291 130.481C113.402 129.898 113.489 128.794 113.489 128C113.489 127.207 113.402 126.103 113.291 125.52C113.179 124.937 112.956 124.069 112.782 123.597C112.608 123.114 112.298 122.394 112.088 121.985C111.889 121.576 111.455 120.844 111.12 120.373C110.798 119.889 110.041 119.033 109.433 118.451C108.838 117.868 108.007 117.173 107.598 116.9C107.189 116.64 106.42 116.206 105.886 115.945C105.365 115.685 104.473 115.338 103.914 115.176C103.344 115.015 102.389 114.817 101.769 114.742C101.149 114.668 100.343 114.618 99.9705 114.618C99.5984 114.631 98.9287 114.68 98.4822 114.742Z" fill="white"/>
<path fill-rule="evenodd" clip-rule="evenodd" d="M184.802 106.172C185.521 106.023 186.576 105.862 187.158 105.813C187.741 105.751 188.547 105.701 188.957 105.689C189.366 105.689 190.346 105.738 191.127 105.813C191.908 105.887 193.062 106.048 193.67 106.172C194.29 106.296 195.431 106.606 196.212 106.867C196.993 107.115 198.395 107.71 199.313 108.169C200.23 108.64 201.508 109.409 202.153 109.868C202.798 110.327 203.852 111.195 204.497 111.815C205.142 112.435 205.997 113.316 206.382 113.8C206.779 114.283 207.399 115.114 207.759 115.66C208.131 116.206 208.664 117.099 208.949 117.644C209.234 118.19 209.669 119.133 209.917 119.753C210.165 120.373 210.524 121.489 210.723 122.233C210.921 122.977 211.182 124.242 211.293 125.024C211.442 126.103 211.479 126.971 211.43 128.62C211.392 129.811 211.293 131.163 211.033 132.465L176.629 132.527L177.001 133.395C177.199 133.867 177.72 134.797 178.154 135.442C178.601 136.099 179.37 137.029 179.915 137.55C180.461 138.071 181.255 138.741 181.701 139.038C182.148 139.336 183.016 139.82 183.624 140.105C184.244 140.403 185.186 140.75 185.732 140.899C186.278 141.035 187.282 141.221 187.965 141.296C188.895 141.395 189.527 141.395 190.507 141.296C191.226 141.209 192.231 141.035 192.739 140.886C193.248 140.75 194.178 140.403 194.786 140.105C195.406 139.82 196.324 139.299 196.832 138.939C197.341 138.592 198.072 137.997 199.127 136.93H204.373C207.25 136.93 209.607 136.967 209.607 137.029C209.607 137.079 209.334 137.612 209.011 138.232C208.689 138.852 208.118 139.795 207.759 140.341C207.386 140.886 206.717 141.779 206.258 142.325C205.811 142.871 204.931 143.776 204.323 144.346C203.715 144.905 202.723 145.736 202.103 146.17C201.495 146.616 200.23 147.36 199.313 147.832C198.395 148.29 196.993 148.886 196.212 149.134C195.431 149.394 194.29 149.704 193.67 149.828C193.062 149.952 191.797 150.126 190.879 150.213C189.602 150.324 188.82 150.324 187.592 150.213C186.7 150.138 185.422 149.952 184.74 149.816C184.058 149.679 182.855 149.357 182.073 149.097C181.292 148.836 180.064 148.328 179.345 147.968C178.626 147.608 177.596 147.025 177.051 146.678C176.505 146.318 175.562 145.612 174.942 145.103C174.334 144.595 173.392 143.702 172.859 143.119C172.325 142.548 171.532 141.581 171.097 140.961C170.663 140.341 170.018 139.348 169.684 138.728C169.336 138.108 168.84 137.054 168.567 136.372C168.295 135.69 167.935 134.66 167.774 134.077C167.6 133.494 167.364 132.465 167.24 131.783C167.067 130.84 167.017 129.923 167.017 128C167.017 126.078 167.067 125.16 167.24 124.218C167.364 123.535 167.6 122.506 167.774 121.923C167.935 121.34 168.295 120.311 168.567 119.629C168.84 118.947 169.336 117.892 169.684 117.272C170.018 116.652 170.663 115.66 171.097 115.04C171.532 114.42 172.325 113.452 172.859 112.882C173.392 112.299 174.334 111.406 174.942 110.898C175.562 110.389 176.505 109.682 177.051 109.322C177.596 108.975 178.626 108.392 179.345 108.033C180.064 107.673 181.292 107.164 182.073 106.904C182.855 106.644 184.083 106.321 184.802 106.172ZM187.53 114.742C187.084 114.804 186.278 114.966 185.732 115.102C185.186 115.251 184.244 115.598 183.624 115.896C183.004 116.181 182.148 116.665 181.701 116.962C181.255 117.26 180.461 117.93 179.916 118.451C179.37 118.971 178.601 119.902 178.154 120.559C177.72 121.204 177.199 122.122 177.001 122.605L176.629 123.473C195.976 123.523 201.632 123.498 201.681 123.449C201.731 123.387 201.595 122.953 201.371 122.481C201.148 121.998 200.714 121.204 200.392 120.708C200.069 120.224 199.375 119.356 198.829 118.785C198.296 118.227 197.415 117.458 196.882 117.086C196.336 116.714 195.406 116.181 194.786 115.896C194.166 115.598 193.248 115.251 192.739 115.114C192.231 114.978 191.338 114.804 190.755 114.73C190.172 114.668 189.391 114.618 189.019 114.618C188.647 114.631 187.977 114.68 187.53 114.742Z" fill="white"/>
<path d="M64.5 105.949C63.9171 105.999 62.8877 106.172 62.2056 106.309C61.5235 106.445 60.3824 106.755 59.6631 107.003C58.9438 107.239 57.8028 107.71 57.1206 108.033C56.4385 108.355 55.1859 109.087 54.3301 109.657C53.1271 110.451 52.4078 111.059 51.1055 112.361C50.1506 113.328 49.084 114.544 48.6251 115.201C48.1786 115.834 47.5213 116.888 47.174 117.558C46.8144 118.215 46.2935 119.319 46.033 120.001C45.7602 120.683 45.4005 121.824 45.2145 122.543C45.0408 123.263 44.8052 124.404 44.706 125.086C44.6192 125.768 44.5323 127.107 44.5323 128.062C44.5323 129.017 44.6192 130.382 44.7308 131.101C44.83 131.82 45.078 133.023 45.2765 133.767C45.4749 134.511 45.8346 135.628 46.0826 136.248C46.3307 136.868 46.7648 137.81 47.05 138.356C47.3353 138.902 47.8686 139.795 48.2406 140.341C48.6003 140.886 49.2204 141.73 49.6173 142.201C50.0017 142.672 50.8575 143.565 51.5024 144.185C52.1473 144.805 53.2015 145.674 53.8464 146.132C54.4914 146.591 55.7068 147.323 56.5625 147.769C57.4183 148.204 58.6709 148.762 59.3531 148.997C60.0352 149.233 61.2382 149.568 62.0195 149.741C62.8009 149.927 64.1155 150.126 64.9341 150.188C65.7526 150.262 68.0222 150.324 69.9942 150.324H73.5536V141.395C67.9354 141.395 65.8518 141.345 65.3061 141.271C64.7604 141.209 63.8675 141.035 63.3218 140.899C62.7761 140.75 61.8335 140.403 61.2134 140.117C60.6057 139.82 59.6507 139.286 59.1174 138.914C58.5841 138.542 57.6912 137.761 57.133 137.178C56.5749 136.595 55.8308 135.652 55.4711 135.07C55.1115 134.487 54.665 133.619 54.4666 133.147C54.2681 132.676 53.9829 131.833 53.834 131.287C53.648 130.592 53.5488 129.774 53.4992 128.558C53.4496 127.219 53.4868 126.574 53.648 125.706C53.7596 125.086 53.9953 124.205 54.1689 123.722C54.3425 123.238 54.6526 122.518 54.8634 122.109C55.0619 121.7 55.496 120.981 55.8308 120.497C56.1533 120.013 56.947 119.12 57.5795 118.513C58.212 117.892 59.1546 117.123 59.6631 116.801C60.1716 116.491 61.015 116.045 61.5235 115.834C62.0319 115.623 62.9869 115.3 63.6318 115.127C64.7728 114.817 64.9589 114.804 69.1881 114.767L73.5536 114.73V105.8C67.3525 105.825 65.0829 105.887 64.5 105.949Z" fill="white"/>
</g>
</g>
<defs>
<filter id="filter0_d_83_240" x="12.5323" y="73.6762" width="230.918" height="108.648" filterUnits="userSpaceOnUse" color-interpolation-filters="sRGB">
<feFlood flood-opacity="0" result="BackgroundImageFix"/>
<feColorMatrix in="SourceAlpha" type="matrix" values="0 0 0 0 0 0 0 0 0 0 0 0 0 0 0 0 0 0 127 0" result="hardAlpha"/>
<feOffset/>
<feGaussianBlur stdDeviation="16"/>
<feComposite in2="hardAlpha" operator="out"/>
<feColorMatrix type="matrix" values="0 0 0 0 0 0 0 0 0 0 0 0 0 0 0 0 0 0 0.25 0"/>
<feBlend mode="normal" in2="BackgroundImageFix" result="effect1_dropShadow_83_240"/>
<feBlend mode="normal" in="SourceGraphic" in2="effect1_dropShadow_83_240" result="shape"/>
</filter>
<linearGradient id="paint0_linear_83_240" x1="39.3608" y1="-8.31089" x2="277.719" y2="316.825" gradientUnits="userSpaceOnUse">
<stop stop-color="#685BC7"/>
<stop offset="1" stop-color="#332C61"/>
</linearGradient>
</defs>
</svg>
