<svg width="256" height="256" viewBox="0 0 256 256" fill="none" xmlns="http://www.w3.org/2000/svg">
<path d="M106.429 254.324C77.8036 252.299 57.2862 246.329 40.0761 235.018C21.6571 222.911 8.93954 200.243 3.9843 170.687C1.69292 157.021 0.962957 146.366 1.00143 127.164C1.07014 93.0812 4.72734 71.9613 13.9373 52.4684C22.7757 33.762 33.8514 22.6792 52.4395 13.9416C72.1839 4.66056 93.5545 1 127.994 1C162.433 1 183.803 4.66056 203.548 13.9416C222.119 22.6715 233.122 33.6726 242.078 52.4684C251.216 71.6451 254.915 93.0336 254.999 127.164C255.1 168.687 249.55 193.658 235.416 215.277C222.216 235.466 198.18 248.266 165.151 252.695C147.932 255.004 125.031 255.639 106.429 254.324Z" fill="url(#paint0_linear_83_240)"/>
<path d="M120.059 106.174C120.071 106.273 125.652 116.294 132.436 128.436C139.22 140.578 144.801 150.524 144.838 150.524C144.875 150.524 150.543 140.602 157.451 128.473C164.359 116.356 170.027 106.335 170.064 106.211C170.139 106.012 169.854 106 165.042 106.025L159.944 106.062C153.049 118.167 149.688 124.07 148.038 126.985C146.376 129.899 144.962 132.268 144.9 132.256C144.838 132.231 141.614 126.551 137.744 119.63C133.875 112.71 130.576 106.819 130.402 106.521L130.08 106C120.716 106 120.021 106.025 120.059 106.174Z" fill="white"/>
<path fill-rule="evenodd" clip-rule="evenodd" d="M98.6398 106.136C98.0197 106.186 96.9407 106.347 96.2214 106.496C95.502 106.645 94.3858 106.93 93.7409 107.141C93.096 107.339 91.9426 107.811 91.1984 108.158C90.4543 108.518 89.4497 109.051 88.966 109.349C88.4823 109.634 87.6762 110.192 87.1801 110.576C86.6716 110.961 85.8035 111.693 85.2702 112.201C84.7245 112.71 83.8811 113.627 83.385 114.248C82.8765 114.868 82.1572 115.86 81.7727 116.48C81.3882 117.1 80.8425 118.067 80.5697 118.65C80.2968 119.233 79.9 120.151 79.7015 120.697C79.5031 121.242 79.2054 122.222 79.0442 122.867C78.883 123.512 78.6846 124.467 78.5977 124.975C78.4985 125.534 78.4241 126.861 78.4241 128.324C78.4241 129.788 78.4985 131.115 78.5977 131.673C78.6846 132.181 78.883 133.136 79.0442 133.781C79.2054 134.426 79.5031 135.406 79.7015 135.951C79.9 136.497 80.2968 137.415 80.5697 137.998C80.8425 138.581 81.3882 139.548 81.7727 140.168C82.1572 140.788 82.8765 141.781 83.385 142.401C83.8811 143.021 84.7245 143.939 85.2702 144.447C85.8035 144.956 86.6716 145.687 87.1801 146.072C87.6762 146.456 88.4823 147.014 88.966 147.3C89.4497 147.597 90.4543 148.13 91.1984 148.49C91.9426 148.837 93.096 149.309 93.7409 149.507C94.3858 149.718 95.4772 150.003 96.1593 150.14C96.8415 150.276 98.1561 150.462 99.0739 150.537C100.339 150.636 101.145 150.636 102.36 150.524C103.241 150.45 104.506 150.276 105.151 150.14C105.796 150.003 106.776 149.755 107.321 149.582C107.867 149.408 108.785 149.061 109.368 148.825C109.951 148.577 110.968 148.068 111.65 147.684C112.32 147.3 113.436 146.568 114.13 146.047C114.812 145.526 115.966 144.484 116.685 143.74C117.404 142.996 118.359 141.855 118.818 141.21C119.277 140.565 120.046 139.263 120.53 138.308C121.001 137.353 121.584 135.989 121.82 135.269C122.055 134.55 122.378 133.322 122.539 132.541C122.787 131.301 122.824 130.755 122.824 128.324C122.824 125.893 122.787 125.348 122.539 124.107C122.378 123.326 122.055 122.098 121.82 121.379C121.584 120.659 121.001 119.295 120.53 118.34C120.046 117.385 119.277 116.083 118.818 115.438C118.359 114.793 117.404 113.652 116.685 112.908C115.966 112.164 114.812 111.122 114.13 110.601C113.436 110.08 112.32 109.349 111.65 108.964C110.968 108.58 109.951 108.071 109.368 107.823C108.785 107.587 107.867 107.24 107.321 107.067C106.776 106.893 105.796 106.645 105.151 106.508C104.506 106.372 103.328 106.211 102.547 106.136C101.765 106.062 100.81 106.012 100.438 106.012C100.066 106.025 99.2599 106.074 98.6398 106.136ZM98.9499 115.066C98.5034 115.128 97.6972 115.289 97.1515 115.426C96.6058 115.575 95.6013 115.959 94.9191 116.281C94.237 116.604 93.2324 117.212 92.6867 117.621C92.141 118.03 91.3349 118.75 90.9008 119.221C90.4543 119.692 89.7846 120.548 89.4125 121.131C89.0405 121.714 88.5444 122.631 88.3211 123.177C88.0979 123.723 87.8002 124.616 87.6514 125.162C87.4158 126.005 87.3786 126.476 87.3786 128.324C87.3786 130.172 87.4158 130.643 87.6514 131.487C87.8002 132.032 88.0979 132.925 88.3211 133.471C88.5444 134.017 89.0405 134.934 89.4125 135.517C89.7846 136.1 90.4543 136.956 90.9008 137.427C91.3349 137.899 92.141 138.618 92.6867 139.027C93.2324 139.437 94.237 140.044 94.9191 140.367C95.6013 140.689 96.6058 141.074 97.1515 141.222C97.6972 141.359 98.7018 141.545 99.384 141.619C100.302 141.719 100.959 141.719 101.926 141.619C102.646 141.532 103.712 141.334 104.32 141.16C104.915 140.987 105.833 140.64 106.354 140.379C106.887 140.119 107.656 139.685 108.066 139.424C108.475 139.151 109.306 138.457 109.901 137.874C110.509 137.291 111.265 136.423 111.588 135.951C111.923 135.48 112.357 134.748 112.555 134.339C112.766 133.93 113.076 133.198 113.25 132.727C113.423 132.256 113.647 131.387 113.758 130.805C113.87 130.222 113.957 129.118 113.957 128.324C113.957 127.53 113.87 126.427 113.758 125.844C113.647 125.261 113.423 124.393 113.25 123.921C113.076 123.438 112.766 122.718 112.555 122.309C112.357 121.9 111.923 121.168 111.588 120.697C111.265 120.213 110.509 119.357 109.901 118.774C109.306 118.191 108.475 117.497 108.066 117.224C107.656 116.964 106.887 116.53 106.354 116.269C105.833 116.009 104.94 115.661 104.382 115.5C103.812 115.339 102.857 115.14 102.236 115.066C101.616 114.992 100.81 114.942 100.438 114.942C100.066 114.954 99.3964 115.004 98.9499 115.066Z" fill="white"/>
<path fill-rule="evenodd" clip-rule="evenodd" d="M185.27 106.496C185.989 106.347 187.043 106.186 187.626 106.136C188.209 106.074 189.015 106.025 189.424 106.012C189.834 106.012 190.813 106.062 191.595 106.136C192.376 106.211 193.53 106.372 194.137 106.496C194.757 106.62 195.898 106.93 196.68 107.191C197.461 107.439 198.863 108.034 199.78 108.493C200.698 108.964 201.975 109.733 202.62 110.192C203.265 110.651 204.32 111.519 204.964 112.139C205.609 112.759 206.465 113.64 206.85 114.123C207.246 114.607 207.867 115.438 208.226 115.984C208.598 116.53 209.132 117.422 209.417 117.968C209.702 118.514 210.136 119.456 210.384 120.077C210.632 120.697 210.992 121.813 211.19 122.557C211.389 123.301 211.649 124.566 211.761 125.348C211.91 126.427 211.947 127.295 211.897 128.944C211.86 130.135 211.761 131.487 211.5 132.789L177.097 132.851L177.469 133.719C177.667 134.19 178.188 135.121 178.622 135.765C179.068 136.423 179.837 137.353 180.383 137.874C180.929 138.395 181.723 139.064 182.169 139.362C182.616 139.66 183.484 140.143 184.091 140.429C184.712 140.726 185.654 141.074 186.2 141.222C186.745 141.359 187.75 141.545 188.432 141.619C189.362 141.719 189.995 141.719 190.975 141.619C191.694 141.532 192.699 141.359 193.207 141.21C193.716 141.074 194.646 140.726 195.253 140.429C195.874 140.143 196.791 139.623 197.3 139.263C197.808 138.916 198.54 138.32 199.594 137.254H204.84C207.718 137.254 210.074 137.291 210.074 137.353C210.074 137.403 209.801 137.936 209.479 138.556C209.156 139.176 208.586 140.119 208.226 140.664C207.854 141.21 207.184 142.103 206.726 142.649C206.279 143.194 205.398 144.1 204.791 144.67C204.183 145.228 203.191 146.059 202.571 146.493C201.963 146.94 200.698 147.684 199.78 148.155C198.863 148.614 197.461 149.209 196.68 149.458C195.898 149.718 194.757 150.028 194.137 150.152C193.53 150.276 192.264 150.45 191.347 150.537C190.069 150.648 189.288 150.648 188.06 150.537C187.167 150.462 185.89 150.276 185.208 150.14C184.525 150.003 183.322 149.681 182.541 149.42C181.76 149.16 180.532 148.651 179.813 148.292C179.093 147.932 178.064 147.349 177.518 147.002C176.973 146.642 176.03 145.935 175.41 145.427C174.802 144.918 173.86 144.025 173.326 143.442C172.793 142.872 171.999 141.905 171.565 141.284C171.131 140.664 170.486 139.672 170.151 139.052C169.804 138.432 169.308 137.378 169.035 136.696C168.762 136.013 168.403 134.984 168.241 134.401C168.068 133.818 167.832 132.789 167.708 132.107C167.534 131.164 167.485 130.246 167.485 128.324C167.485 126.402 167.534 125.484 167.708 124.541C167.832 123.859 168.068 122.83 168.241 122.247C168.403 121.664 168.762 120.635 169.035 119.953C169.308 119.27 169.804 118.216 170.151 117.596C170.486 116.976 171.131 115.984 171.565 115.364C171.999 114.744 172.793 113.776 173.326 113.206C173.86 112.623 174.802 111.73 175.41 111.221C176.03 110.713 176.973 110.006 177.518 109.646C178.064 109.299 179.093 108.716 179.813 108.356C180.532 107.997 181.76 107.488 182.541 107.228C183.322 106.967 184.55 106.645 185.27 106.496ZM187.998 115.066C187.552 115.128 186.746 115.289 186.2 115.426C185.654 115.575 184.712 115.922 184.091 116.219C183.471 116.505 182.616 116.988 182.169 117.286C181.723 117.584 180.929 118.253 180.383 118.774C179.837 119.295 179.069 120.225 178.622 120.883C178.188 121.528 177.667 122.445 177.469 122.929L177.097 123.797C196.444 123.847 202.1 123.822 202.149 123.772C202.199 123.71 202.062 123.276 201.839 122.805C201.616 122.321 201.182 121.528 200.859 121.032C200.537 120.548 199.842 119.68 199.297 119.109C198.763 118.551 197.883 117.782 197.349 117.41C196.804 117.038 195.874 116.505 195.253 116.219C194.633 115.922 193.716 115.575 193.207 115.438C192.699 115.302 191.806 115.128 191.223 115.054C190.64 114.992 189.858 114.942 189.486 114.942C189.114 114.954 188.445 115.004 187.998 115.066Z" fill="white"/>
<path d="M64.9676 106.273C64.3847 106.322 63.3554 106.496 62.6732 106.633C61.9911 106.769 60.8501 107.079 60.1308 107.327C59.4114 107.563 58.2704 108.034 57.5883 108.356C56.9062 108.679 55.6535 109.411 54.7978 109.981C53.5948 110.775 52.8754 111.383 51.5732 112.685C50.6182 113.652 49.5516 114.868 49.0927 115.525C48.6463 116.157 47.9889 117.212 47.6417 117.881C47.282 118.539 46.7611 119.642 46.5007 120.325C46.2278 121.007 45.8682 122.148 45.6821 122.867C45.5085 123.586 45.2728 124.727 45.1736 125.41C45.0868 126.092 45 127.431 45 128.386C45 129.341 45.0868 130.705 45.1984 131.425C45.2977 132.144 45.5457 133.347 45.7441 134.091C45.9426 134.835 46.3022 135.951 46.5503 136.572C46.7983 137.192 47.2324 138.134 47.5177 138.68C47.8029 139.226 48.3362 140.119 48.7083 140.664C49.0679 141.21 49.6881 142.053 50.0849 142.525C50.4694 142.996 51.3252 143.889 51.9701 144.509C52.615 145.129 53.6692 145.997 54.3141 146.456C54.959 146.915 56.1744 147.647 57.0302 148.093C57.886 148.527 59.1386 149.085 59.8207 149.321C60.5028 149.557 61.7059 149.892 62.4872 150.065C63.2685 150.251 64.5832 150.45 65.4017 150.512C66.2203 150.586 68.4899 150.648 70.4619 150.648H74.0213V141.719C68.4031 141.719 66.3195 141.669 65.7738 141.595C65.2281 141.532 64.3351 141.359 63.7894 141.222C63.2437 141.074 62.3012 140.726 61.681 140.441C61.0733 140.143 60.1184 139.61 59.5851 139.238C59.0518 138.866 58.1588 138.085 57.6007 137.502C57.0426 136.919 56.2985 135.976 55.9388 135.393C55.5791 134.81 55.1327 133.942 54.9342 133.471C54.7358 133 54.4505 132.156 54.3017 131.611C54.1157 130.916 54.0164 130.098 53.9668 128.882C53.9172 127.543 53.9544 126.898 54.1157 126.03C54.2273 125.41 54.4629 124.529 54.6366 124.045C54.8102 123.562 55.1202 122.842 55.3311 122.433C55.5295 122.024 55.9636 121.304 56.2985 120.821C56.6209 120.337 57.4147 119.444 58.0472 118.836C58.6797 118.216 59.6223 117.447 60.1308 117.125C60.6393 116.815 61.4826 116.368 61.9911 116.157C62.4996 115.947 63.4546 115.624 64.0995 115.451C65.2405 115.14 65.4265 115.128 69.6557 115.091L74.0213 115.054V106.124C67.8202 106.149 65.5506 106.211 64.9676 106.273Z" fill="white"/>
<defs>
<linearGradient id="paint0_linear_83_240" x1="128" y1="1" x2="128" y2="255" gradientUnits="userSpaceOnUse">
<stop stop-color="#6B5CD1"/>
<stop offset="1" stop-color="#574CA6"/>
</linearGradient>
</defs>
</svg>
