<svg width="341" height="341" viewBox="0 0 341 341" fill="none" xmlns="http://www.w3.org/2000/svg">
<rect width="341" height="341" fill="url(#paint0_linear_50_34)"/>
<g filter="url(#filter0_d_50_34)">
<path d="M159.211 140.762C159.228 140.896 166.72 154.349 175.828 170.65C184.936 186.951 192.429 200.304 192.479 200.304C192.528 200.304 200.138 186.984 209.412 170.7C218.686 154.432 226.295 140.979 226.345 140.812C226.445 140.546 226.062 140.529 219.602 140.563L212.759 140.613C203.501 156.863 198.989 164.789 196.774 168.702C194.543 172.615 192.645 175.795 192.562 175.778C192.479 175.745 188.149 168.119 182.954 158.828C177.76 149.537 173.331 141.628 173.097 141.229L172.665 140.529C160.094 140.529 159.161 140.563 159.211 140.762Z" fill="white"/>
<path fill-rule="evenodd" clip-rule="evenodd" d="M130.456 140.712C129.623 140.779 128.175 140.996 127.209 141.195C126.243 141.395 124.745 141.778 123.879 142.061C123.013 142.328 121.465 142.96 120.466 143.426C119.467 143.909 118.118 144.625 117.469 145.025C116.819 145.408 115.737 146.157 115.071 146.673C114.388 147.189 113.223 148.172 112.507 148.854C111.774 149.537 110.642 150.769 109.976 151.602C109.293 152.434 108.327 153.766 107.811 154.599C107.295 155.431 106.562 156.73 106.196 157.513C105.83 158.295 105.297 159.527 105.031 160.26C104.764 160.993 104.365 162.308 104.148 163.174C103.932 164.04 103.665 165.322 103.549 166.004C103.416 166.754 103.316 168.535 103.316 170.5C103.316 172.465 103.416 174.246 103.549 174.996C103.665 175.678 103.932 176.96 104.148 177.826C104.365 178.692 104.764 180.007 105.031 180.74C105.297 181.473 105.83 182.705 106.196 183.487C106.562 184.27 107.295 185.569 107.811 186.401C108.327 187.234 109.293 188.566 109.976 189.398C110.642 190.231 111.774 191.463 112.507 192.146C113.223 192.828 114.388 193.811 115.071 194.327C115.737 194.843 116.819 195.592 117.469 195.975C118.118 196.375 119.467 197.091 120.466 197.574C121.465 198.04 123.013 198.672 123.879 198.939C124.745 199.222 126.21 199.605 127.126 199.788C128.042 199.971 129.806 200.221 131.039 200.321C132.737 200.454 133.819 200.454 135.451 200.304C136.633 200.204 138.331 199.971 139.197 199.788C140.063 199.605 141.378 199.272 142.111 199.039C142.844 198.806 144.076 198.339 144.858 198.023C145.641 197.69 147.006 197.007 147.922 196.491C148.821 195.975 150.32 194.993 151.252 194.293C152.168 193.594 153.716 192.195 154.682 191.196C155.648 190.197 156.93 188.666 157.546 187.8C158.162 186.934 159.194 185.186 159.844 183.904C160.476 182.621 161.259 180.79 161.575 179.824C161.892 178.858 162.325 177.21 162.541 176.161C162.874 174.496 162.924 173.763 162.924 170.5C162.924 167.237 162.874 166.504 162.541 164.839C162.325 163.79 161.892 162.142 161.575 161.176C161.259 160.21 160.476 158.379 159.844 157.096C159.194 155.814 158.162 154.066 157.546 153.2C156.93 152.334 155.648 150.803 154.682 149.804C153.716 148.805 152.168 147.406 151.252 146.707C150.32 146.007 148.821 145.025 147.922 144.509C147.006 143.993 145.641 143.31 144.858 142.977C144.076 142.661 142.844 142.194 142.111 141.961C141.378 141.728 140.063 141.395 139.197 141.212C138.331 141.029 136.75 140.812 135.701 140.712C134.652 140.613 133.37 140.546 132.87 140.546C132.371 140.563 131.288 140.629 130.456 140.712ZM130.872 152.701C130.273 152.784 129.19 153 128.458 153.184C127.725 153.383 126.376 153.9 125.461 154.332C124.545 154.765 123.196 155.581 122.464 156.131C121.731 156.68 120.649 157.646 120.066 158.279C119.467 158.911 118.567 160.06 118.068 160.843C117.568 161.625 116.902 162.857 116.603 163.59C116.303 164.323 115.903 165.522 115.704 166.254C115.387 167.386 115.337 168.019 115.337 170.5C115.337 172.981 115.387 173.614 115.704 174.746C115.903 175.478 116.303 176.677 116.603 177.41C116.902 178.143 117.568 179.375 118.068 180.157C118.567 180.94 119.467 182.089 120.066 182.721C120.649 183.354 121.731 184.32 122.464 184.869C123.196 185.419 124.545 186.235 125.461 186.668C126.376 187.1 127.725 187.617 128.458 187.816C129.19 188 130.539 188.249 131.455 188.349C132.687 188.482 133.569 188.482 134.868 188.349C135.834 188.233 137.266 187.966 138.082 187.733C138.881 187.5 140.113 187.034 140.812 186.684C141.528 186.335 142.561 185.752 143.11 185.402C143.66 185.036 144.775 184.103 145.574 183.321C146.39 182.538 147.406 181.373 147.839 180.74C148.288 180.107 148.871 179.125 149.138 178.575C149.421 178.026 149.837 177.044 150.07 176.411C150.303 175.778 150.603 174.613 150.753 173.83C150.903 173.048 151.019 171.566 151.019 170.5C151.019 169.434 150.903 167.953 150.753 167.17C150.603 166.387 150.303 165.222 150.07 164.589C149.837 163.94 149.421 162.974 149.138 162.425C148.871 161.875 148.288 160.893 147.839 160.26C147.406 159.611 146.39 158.462 145.574 157.679C144.775 156.897 143.66 155.964 143.11 155.598C142.561 155.248 141.528 154.665 140.812 154.316C140.113 153.966 138.914 153.5 138.165 153.284C137.399 153.067 136.117 152.801 135.284 152.701C134.452 152.601 133.37 152.534 132.87 152.534C132.371 152.551 131.472 152.617 130.872 152.701Z" fill="white"/>
<path fill-rule="evenodd" clip-rule="evenodd" d="M246.759 141.195C247.725 140.996 249.14 140.779 249.922 140.712C250.705 140.629 251.787 140.563 252.337 140.546C252.886 140.546 254.202 140.613 255.25 140.712C256.299 140.812 257.848 141.029 258.664 141.195C259.496 141.362 261.028 141.778 262.077 142.128C263.126 142.461 265.008 143.26 266.24 143.876C267.472 144.509 269.187 145.541 270.053 146.157C270.919 146.773 272.334 147.939 273.2 148.771C274.065 149.604 275.214 150.786 275.73 151.435C276.263 152.085 277.096 153.2 277.579 153.933C278.078 154.665 278.794 155.864 279.177 156.597C279.56 157.33 280.143 158.595 280.476 159.427C280.809 160.26 281.292 161.759 281.558 162.758C281.825 163.757 282.174 165.455 282.324 166.504C282.524 167.952 282.574 169.118 282.507 171.333C282.457 172.931 282.324 174.746 281.974 176.494L235.786 176.577L236.286 177.743C236.552 178.376 237.251 179.624 237.834 180.49C238.434 181.373 239.466 182.621 240.199 183.321C240.931 184.02 241.997 184.919 242.596 185.319C243.196 185.718 244.361 186.368 245.177 186.751C246.01 187.15 247.275 187.617 248.008 187.816C248.74 188 250.089 188.249 251.005 188.349C252.253 188.482 253.103 188.482 254.418 188.349C255.384 188.233 256.732 188 257.415 187.8C258.098 187.617 259.346 187.15 260.162 186.751C260.995 186.368 262.227 185.669 262.91 185.186C263.592 184.719 264.575 183.92 265.99 182.488H273.033C276.896 182.488 280.06 182.538 280.06 182.621C280.06 182.688 279.693 183.404 279.26 184.237C278.827 185.069 278.062 186.335 277.579 187.067C277.079 187.8 276.18 188.999 275.564 189.731C274.965 190.464 273.782 191.679 272.967 192.445C272.151 193.194 270.819 194.31 269.986 194.893C269.17 195.492 267.472 196.491 266.24 197.124C265.008 197.74 263.126 198.539 262.077 198.872C261.028 199.222 259.496 199.638 258.664 199.805C257.848 199.971 256.15 200.204 254.917 200.321C253.202 200.471 252.154 200.471 250.505 200.321C249.306 200.221 247.591 199.971 246.676 199.788C245.76 199.605 244.145 199.172 243.096 198.822C242.047 198.473 240.398 197.79 239.433 197.307C238.467 196.824 237.085 196.042 236.352 195.575C235.62 195.093 234.354 194.144 233.522 193.461C232.706 192.778 231.44 191.579 230.724 190.797C230.008 190.031 228.943 188.732 228.36 187.9C227.777 187.067 226.912 185.735 226.462 184.903C225.996 184.07 225.33 182.655 224.963 181.739C224.597 180.823 224.114 179.441 223.898 178.659C223.665 177.876 223.348 176.494 223.182 175.578C222.949 174.313 222.882 173.081 222.882 170.5C222.882 167.919 222.949 166.687 223.182 165.422C223.348 164.506 223.665 163.124 223.898 162.341C224.114 161.559 224.597 160.177 224.963 159.261C225.33 158.345 225.996 156.93 226.462 156.097C226.912 155.265 227.777 153.933 228.36 153.1C228.943 152.268 230.008 150.969 230.724 150.203C231.44 149.421 232.706 148.222 233.522 147.539C234.354 146.856 235.62 145.907 236.352 145.425C237.085 144.958 238.467 144.176 239.433 143.693C240.398 143.21 242.047 142.527 243.096 142.178C244.145 141.828 245.793 141.395 246.759 141.195ZM250.422 152.701C249.822 152.784 248.74 153 248.008 153.184C247.275 153.383 246.01 153.85 245.177 154.249C244.345 154.632 243.196 155.282 242.596 155.681C241.997 156.081 240.931 156.98 240.199 157.679C239.466 158.379 238.434 159.627 237.834 160.51C237.251 161.376 236.552 162.608 236.286 163.257L235.786 164.423C261.761 164.489 269.353 164.456 269.42 164.389C269.487 164.306 269.303 163.723 269.004 163.091C268.704 162.441 268.121 161.376 267.688 160.71C267.255 160.06 266.323 158.895 265.59 158.129C264.874 157.38 263.692 156.347 262.976 155.848C262.244 155.348 260.995 154.632 260.162 154.249C259.33 153.85 258.098 153.383 257.415 153.2C256.732 153.017 255.534 152.784 254.751 152.684C253.968 152.601 252.919 152.534 252.42 152.534C251.92 152.551 251.021 152.617 250.422 152.701Z" fill="white"/>
<path d="M85.25 140.896C84.4674 140.962 83.0854 141.195 82.1697 141.378C81.2539 141.562 79.7221 141.978 78.7563 142.311C77.7906 142.627 76.2588 143.26 75.343 143.693C74.4272 144.126 72.7456 145.108 71.5967 145.874C69.9816 146.94 69.0159 147.756 67.2676 149.504C65.9855 150.803 64.5536 152.434 63.9375 153.317C63.3381 154.166 62.4556 155.581 61.9894 156.48C61.5065 157.363 60.8072 158.845 60.4576 159.76C60.0913 160.676 59.6084 162.208 59.3586 163.174C59.1255 164.14 58.8092 165.671 58.676 166.587C58.5594 167.503 58.4429 169.301 58.4429 170.583C58.4429 171.865 58.5594 173.697 58.7093 174.663C58.8425 175.628 59.1755 177.243 59.4419 178.242C59.7083 179.241 60.1912 180.74 60.5242 181.573C60.8572 182.405 61.4399 183.67 61.8229 184.403C62.2059 185.136 62.9218 186.335 63.4213 187.067C63.9042 187.8 64.7367 188.932 65.2695 189.565C65.7857 190.197 66.9346 191.396 67.8004 192.229C68.6662 193.061 70.0815 194.227 70.9473 194.843C71.8131 195.459 73.4449 196.441 74.5938 197.041C75.7426 197.623 77.4243 198.373 78.3401 198.689C79.2559 199.005 80.8709 199.455 81.9199 199.688C82.9689 199.938 84.7338 200.204 85.8328 200.288C86.9317 200.387 89.9787 200.471 92.6261 200.471H97.4048V188.482C89.8622 188.482 87.0649 188.416 86.3323 188.316C85.5997 188.233 84.4008 188 83.6682 187.816C82.9356 187.617 81.6702 187.15 80.8376 186.767C80.0218 186.368 78.7397 185.652 78.0237 185.152C77.3078 184.653 76.1089 183.604 75.3597 182.821C74.6104 182.039 73.6114 180.773 73.1285 179.991C72.6457 179.208 72.0462 178.043 71.7798 177.41C71.5134 176.777 71.1305 175.645 70.9307 174.912C70.6809 173.98 70.5477 172.881 70.4811 171.249C70.4145 169.451 70.4645 168.585 70.6809 167.42C70.8308 166.587 71.1471 165.405 71.3802 164.756C71.6133 164.106 72.0296 163.141 72.3126 162.591C72.5791 162.042 73.1618 161.076 73.6114 160.427C74.0443 159.777 75.1099 158.578 75.9591 157.762C76.8083 156.93 78.0737 155.898 78.7563 155.465C79.439 155.048 80.5712 154.449 81.2539 154.166C81.9366 153.883 83.2187 153.45 84.0845 153.217C85.6163 152.801 85.8661 152.784 91.5438 152.734L97.4048 152.684V140.696C89.0796 140.729 86.0326 140.812 85.25 140.896Z" fill="white"/>
</g>
<defs>
<filter id="filter0_d_50_34" x="26.4429" y="108.529" width="288.092" height="123.941" filterUnits="userSpaceOnUse" color-interpolation-filters="sRGB">
<feFlood flood-opacity="0" result="BackgroundImageFix"/>
<feColorMatrix in="SourceAlpha" type="matrix" values="0 0 0 0 0 0 0 0 0 0 0 0 0 0 0 0 0 0 127 0" result="hardAlpha"/>
<feOffset/>
<feGaussianBlur stdDeviation="16"/>
<feComposite in2="hardAlpha" operator="out"/>
<feColorMatrix type="matrix" values="0 0 0 0 0 0 0 0 0 0 0 0 0 0 0 0 0 0 0.25 0"/>
<feBlend mode="normal" in2="BackgroundImageFix" result="effect1_dropShadow_50_34"/>
<feBlend mode="normal" in="SourceGraphic" in2="effect1_dropShadow_50_34" result="shape"/>
</filter>
<linearGradient id="paint0_linear_50_34" x1="51.5" y1="-12.5" x2="371.5" y2="424" gradientUnits="userSpaceOnUse">
<stop stop-color="#685BC7"/>
<stop offset="1" stop-color="#332C61"/>
</linearGradient>
</defs>
</svg>
