<svg width="192" height="192" viewBox="0 0 192 192" fill="none" xmlns="http://www.w3.org/2000/svg">
<path d="M79.8641 190.494C58.4515 188.98 43.1039 184.514 30.2301 176.052C16.4521 166.996 6.93903 150.04 3.23235 127.931C1.51833 117.708 0.97229 109.739 1.00107 95.3749C1.05247 69.8796 3.78817 54.0812 10.6775 39.5C17.2889 25.507 25.5739 17.2167 39.4783 10.6808C54.2478 3.73821 70.2337 1 95.9953 1C121.757 1 137.743 3.73821 152.512 10.6808C166.404 17.211 174.634 25.4402 181.334 39.5C188.169 53.8448 190.937 69.844 190.999 95.3749C191.075 126.436 186.923 145.115 176.35 161.286C166.477 176.388 148.497 185.963 123.79 189.276C110.91 191.003 93.7794 191.478 79.8641 190.494Z" fill="url(#paint0_linear_108_222)"/>
<path d="M52.9077 145.36C47.0977 142.422 47.0977 134.341 52.9077 131.404C53.9922 130.856 55.592 130.407 56.4629 130.407C57.3337 130.407 58.9336 130.856 60.0182 131.404C65.8282 134.341 65.8282 142.422 60.0182 145.36C58.9336 145.908 57.3337 146.356 56.4629 146.356C55.592 146.356 53.9922 145.908 52.9077 145.36ZM124.759 140.568C121.446 139.558 118.908 135.27 119.555 131.777C120.875 124.648 130.23 122.845 134.024 128.988C136.162 132.45 134.976 137.566 131.543 139.689C129.784 140.777 126.739 141.171 124.759 140.568ZM72.0724 109.556C68.7597 108.546 66.2215 104.258 66.8685 100.764C68.1886 93.6359 77.5435 91.8328 81.3375 97.9756C83.4759 101.438 82.2898 106.554 78.8566 108.677C77.0979 109.765 74.0524 110.159 72.0724 109.556ZM149.995 101.581C146.682 100.571 144.144 96.2836 144.791 92.7899C146.111 85.6614 155.466 83.8583 159.26 90.0011C161.399 93.4632 160.212 98.5792 156.779 100.702C155.021 101.79 151.975 102.184 149.995 101.581Z" fill="white"/>
<path d="M63.5468 168.508V176.039H130.844V168.508H63.5468Z" fill="#FFA800"/>
<path d="M64.4653 157.344C67.2026 161.169 69.844 164.748 70.335 165.296C70.826 165.844 71.452 166.293 71.7262 166.293C72.3603 166.293 73.2871 165.377 73.2871 164.75C73.2871 164.486 70.7806 160.788 67.717 156.531C62.9085 149.851 61.9861 148.793 60.9712 148.793C58.771 148.793 59.3358 150.175 64.4653 157.344Z" fill="#9B7FB4"/>
<path d="M73.476 158.425C74.3823 159.707 75.8561 161.805 76.7512 163.09C78.0652 164.975 78.5919 165.401 79.4855 165.305C81.3962 165.098 81.0201 163.675 77.9002 159.306C74.5067 154.554 73.7502 153.971 72.6134 155.228C71.8553 156.066 71.885 156.176 73.476 158.425Z" fill="#9B7FB4"/>
<path d="M110.035 161.648C110.035 161.912 110.274 162.367 110.566 162.66C111.844 163.938 112.118 163.66 118.857 154.243C123.986 147.074 124.551 145.692 122.351 145.692C121.336 145.692 120.413 146.75 115.605 153.43C112.541 157.686 110.035 161.385 110.035 161.648Z" fill="#9B7FB4"/>
<path d="M105.62 155.934C102.545 160.237 102.306 160.697 102.668 161.641C103.217 163.072 104.903 162.352 106.571 159.974C107.466 158.698 108.94 156.605 109.846 155.324C111.437 153.075 111.467 152.965 110.709 152.126C109.583 150.882 108.827 151.449 105.62 155.934Z" fill="#9B7FB4"/>
<path d="M64.4323 145.216C64.4323 145.845 68.1778 151.244 68.9681 151.755C69.7576 152.266 70.6797 152.017 71.2278 151.146C71.6048 150.547 71.2707 149.778 69.5488 147.279C68.3665 145.563 67.0209 144.039 66.5586 143.892C65.6528 143.604 64.4323 144.365 64.4323 145.216Z" fill="#9B7FB4"/>
<path d="M113.864 144.045C111.658 147.248 111.515 147.661 112.337 148.483C113.505 149.651 114.346 149.095 116.9 145.467C119.06 142.398 119.222 141.867 118.247 141.058C117.157 140.152 116.006 140.936 113.864 144.045Z" fill="#9B7FB4"/>
<path d="M52.9209 48.0036V63.5097H67.0887V48.0036H52.9209Z" fill="#FF7A00"/>
<path d="M74.6153 48.0036V63.5097H88.7831V48.0036H74.6153Z" fill="#FF7A00"/>
<path d="M95.867 48.0036V63.5097H110.035V48.0036H95.867Z" fill="#FF7A00"/>
<path d="M117.119 48.0036V63.5097H131.286V48.0036H117.119Z" fill="#FF7A00"/>
<path d="M31.6693 27.1812V42.6872H45.8371V27.1812H31.6693Z" fill="#FF7A00"/>
<path d="M52.9209 27.1812V42.6872H67.0887V27.1812H52.9209Z" fill="#FF7A00"/>
<path d="M74.6153 27.1812V42.6872H88.7831V27.1812H74.6153Z" fill="#FF7A00"/>
<path d="M95.867 27.1812V42.6872H110.035V27.1812H95.867Z" fill="#FF7A00"/>
<path d="M117.119 27.1812V42.6872H131.286V27.1812H117.119Z" fill="#FF7A00"/>
<path d="M138.37 27.1812V42.6872H152.538V27.1812H138.37Z" fill="#FF7A00"/>
<defs>
<linearGradient id="paint0_linear_108_222" x1="96" y1="1" x2="96" y2="191" gradientUnits="userSpaceOnUse">
<stop stop-color="#4F0097"/>
<stop offset="1" stop-color="#38006B"/>
</linearGradient>
</defs>
</svg>
