<svg width="256" height="256" viewBox="0 0 256 256" fill="none" xmlns="http://www.w3.org/2000/svg">
<path d="M106.429 254.324C77.8036 252.299 57.2862 246.329 40.0761 235.018C21.6571 222.911 8.93954 200.243 3.9843 170.687C1.69292 157.021 0.962957 146.366 1.00143 127.164C1.07014 93.0812 4.72734 71.9613 13.9373 52.4684C22.7757 33.762 33.8514 22.6792 52.4395 13.9416C72.1839 4.66056 93.5545 1 127.994 1C162.433 1 183.803 4.66056 203.548 13.9416C222.119 22.6715 233.122 33.6726 242.078 52.4684C251.216 71.6451 254.915 93.0336 254.999 127.164C255.1 168.687 249.55 193.658 235.416 215.277C222.216 235.466 198.18 248.266 165.151 252.695C147.932 255.004 125.031 255.639 106.429 254.324Z" fill="url(#paint0_linear_83_246)"/>
<path d="M77.9628 44.4151C78.76 44.2979 80.3155 44.1515 81.4141 44.0929C82.5127 44.0246 83.6697 43.9855 83.9905 44.005C84.3113 44.0148 85.3807 44.0538 86.3724 44.0734C87.364 44.1027 88.9196 44.2101 89.8237 44.3175C90.7279 44.4249 92.332 44.669 93.3723 44.8643C94.4125 45.0595 95.9486 45.3915 96.775 45.6063C97.6014 45.8211 98.9138 46.1922 99.6916 46.446C100.469 46.6901 101.889 47.1881 102.851 47.5493C103.814 47.9106 105.194 48.4476 105.914 48.7503C106.633 49.0432 108.082 49.6584 109.122 50.1173C110.162 50.5762 111.737 51.2597 112.622 51.6502C113.507 52.0408 114.945 52.6657 115.83 53.0367C116.715 53.4077 117.94 53.9155 118.552 54.1596C119.165 54.4037 120.215 54.7942 120.886 55.0285C121.556 55.2726 122.82 55.6827 123.705 55.9464C124.59 56.21 125.766 56.5322 126.33 56.6689C126.894 56.8056 127.827 57.0009 128.42 57.1083C129.013 57.2157 130.102 57.3817 130.851 57.4793C131.784 57.5965 132.941 57.6453 134.545 57.6453C135.867 57.6551 137.345 57.5965 137.948 57.5281C138.541 57.4598 139.63 57.2938 140.378 57.1571C141.127 57.0204 142.177 56.8056 142.712 56.6689C143.246 56.5322 144.452 56.1612 145.385 55.8487C146.319 55.5363 147.68 55.0285 148.399 54.7259C149.118 54.4134 150.275 53.8764 150.975 53.5347C151.675 53.1832 152.784 52.5876 153.455 52.2165C154.125 51.8357 155.175 51.2108 155.788 50.83C156.4 50.4395 156.974 50.088 157.052 50.0392C157.178 49.961 157.178 49.9708 157.052 50.1466C156.974 50.2442 156.604 50.7031 156.225 51.162C155.856 51.6209 155.039 52.5094 154.427 53.1539C153.814 53.7885 152.852 54.7063 152.288 55.1945C151.724 55.6827 150.762 56.4541 150.149 56.913C149.537 57.3719 148.555 58.0554 147.962 58.4264C147.369 58.7974 146.367 59.3735 145.726 59.7153C145.084 60.0472 143.966 60.594 143.246 60.9065C142.527 61.2287 141.253 61.7364 140.427 62.0293C139.601 62.3222 138.356 62.7226 137.656 62.9178C136.956 63.1131 135.828 63.3963 135.128 63.5525C134.428 63.7087 133.077 63.9723 132.115 64.1383C131.152 64.2946 129.558 64.5191 128.566 64.6265C127.574 64.7339 125.941 64.8804 124.92 64.9487C123.9 65.0171 121.255 65.0659 119.038 65.0659C116.822 65.0659 113.934 65.0073 112.622 64.939C111.309 64.8706 109.171 64.7339 107.858 64.6265C106.546 64.5289 105.282 64.441 105.039 64.441C104.767 64.441 104.64 64.4703 104.698 64.5289C104.747 64.5777 105.301 64.8511 105.914 65.1245C106.526 65.4076 107.664 65.8861 108.441 66.1985C109.219 66.511 110.464 66.9601 111.212 67.2042C111.961 67.4483 113.254 67.8291 114.08 68.0439C114.907 68.2587 116.151 68.5419 116.851 68.6786C117.551 68.8055 118.834 69.0106 119.719 69.1277C120.818 69.2742 122.111 69.3523 123.851 69.3913C125.329 69.4206 126.981 69.4011 127.837 69.3328C128.634 69.2742 129.84 69.157 130.51 69.0691C131.181 68.991 132.319 68.8055 133.038 68.6786C133.758 68.5419 134.983 68.2783 135.76 68.0927C136.538 67.9072 137.763 67.585 138.483 67.3702C139.202 67.1652 140.271 66.8332 140.864 66.6281C141.458 66.4329 142.527 66.0521 143.246 65.7884C143.966 65.5151 145.084 65.0757 145.726 64.812C146.367 64.5387 147.573 64.0114 148.399 63.6404C149.225 63.2596 150.975 62.4199 152.288 61.7657C153.6 61.1115 155.457 60.1351 156.42 59.6079C157.382 59.0806 159.045 58.1433 160.114 57.5281C161.184 56.913 163.439 55.5753 165.121 54.5501C166.803 53.5249 168.708 52.3825 169.35 52.0115C169.992 51.6405 171.285 50.9472 172.218 50.4785C173.151 50.0099 174.532 49.3557 175.281 49.0335C176.029 48.7113 177.254 48.2328 178.003 47.9594C178.751 47.6958 179.821 47.3345 180.385 47.1686C180.948 47.0123 181.804 46.778 182.28 46.6706C182.757 46.5534 183.68 46.3777 184.322 46.2703C184.964 46.1629 186.033 46.0359 186.704 45.9773C187.375 45.9188 188.425 45.909 189.037 45.9383C189.65 45.9773 190.68 46.0945 191.322 46.2019C191.964 46.3093 192.945 46.5534 193.509 46.7389C194.073 46.9245 194.812 47.2076 195.162 47.3834C195.512 47.5493 196.008 47.8227 196.28 47.979C196.543 48.1352 197.077 48.4965 197.447 48.7796C197.816 49.053 198.409 49.5607 198.75 49.9025C199.1 50.2442 199.595 50.791 199.868 51.1132C200.13 51.4354 200.587 52.0701 200.879 52.529C201.18 52.9879 201.647 53.8471 201.929 54.4329C202.22 55.0188 202.668 56.1612 202.93 56.9716C203.193 57.7722 203.543 59.0708 203.698 59.8519C203.863 60.6331 204.068 61.8829 204.155 62.6347C204.243 63.3865 204.349 64.812 204.398 65.808C204.456 66.9015 204.456 68.4052 204.398 69.6159C204.349 70.7192 204.243 72.3401 204.155 73.2286C204.077 74.1171 203.922 75.4743 203.805 76.2554C203.698 77.0365 203.523 78.1789 203.416 78.794C203.309 79.4092 203.095 80.5516 202.94 81.3327C202.784 82.1138 202.541 83.2562 202.405 83.8713C202.259 84.4864 201.997 85.6093 201.802 86.3611C201.618 87.1129 201.268 88.4311 201.025 89.2903C200.781 90.1495 200.441 91.3407 200.266 91.9266C200.091 92.5124 199.761 93.5669 199.537 94.2699C199.313 94.9729 198.895 96.2227 198.613 97.0527C198.322 97.8826 197.836 99.2886 197.515 100.177C197.194 101.066 196.669 102.472 196.348 103.302C196.027 104.132 195.483 105.518 195.133 106.377C194.783 107.236 194.17 108.711 193.772 109.648C193.373 110.586 192.489 112.587 191.808 114.091C191.127 115.594 190.068 118.055 189.455 119.559C188.843 121.062 187.666 123.982 186.83 126.052C186.004 128.122 184.905 130.885 184.4 132.203C183.894 133.521 183.107 135.581 182.65 136.792C182.193 138.003 181.542 139.78 181.192 140.746C180.842 141.713 180.122 143.773 179.587 145.335C179.062 146.898 178.217 149.485 177.711 151.096C177.215 152.707 176.535 154.953 176.214 156.076C175.893 157.199 175.106 160.147 174.464 162.618C173.812 165.088 173.2 167.441 173.093 167.841C172.986 168.242 172.374 170.595 171.722 173.065C171.081 175.535 170.351 178.279 170.118 179.168C169.875 180.056 169.389 181.784 169.039 183.024C168.689 184.264 168.125 186.198 167.775 187.321C167.435 188.453 166.92 190.074 166.628 190.933C166.346 191.792 165.918 193.042 165.675 193.716C165.442 194.39 164.956 195.659 164.606 196.548C164.265 197.436 163.643 198.91 163.225 199.818C162.817 200.727 162.165 202.045 161.796 202.748C161.417 203.451 160.843 204.447 160.513 204.974C160.182 205.501 159.57 206.399 159.142 206.975C158.714 207.542 157.966 208.411 157.489 208.899C157.013 209.397 156.245 210.071 155.788 210.412C155.331 210.744 154.524 211.233 153.989 211.496C153.455 211.76 152.648 212.062 152.191 212.18C151.646 212.316 151.228 212.365 150.975 212.326C150.762 212.287 150.343 212.15 150.052 212.014C149.76 211.877 149.274 211.574 148.982 211.34C148.691 211.106 148.205 210.666 147.903 210.344C147.602 210.032 147.164 209.534 146.921 209.241C146.678 208.948 146.153 208.225 145.745 207.63C145.346 207.034 144.763 206.116 144.442 205.579C144.121 205.042 143.596 204.095 143.276 203.48C142.945 202.865 142.371 201.683 141.992 200.863C141.613 200.053 141.02 198.686 140.68 197.836C140.339 196.997 139.834 195.669 139.552 194.888C139.27 194.107 138.862 192.925 138.658 192.251C138.444 191.578 138.142 190.523 137.987 189.908C137.831 189.293 137.549 188.102 137.365 187.272C137.19 186.442 136.859 184.899 136.645 183.854C136.431 182.81 135.838 179.841 135.333 177.264C134.817 174.686 134.253 171.854 134.069 170.966C133.884 170.077 133.583 168.652 133.388 167.793C133.204 166.933 132.844 165.371 132.601 164.326C132.348 163.282 131.959 161.719 131.726 160.86C131.492 160.001 131.084 158.634 130.822 157.833C130.559 157.023 130.17 155.998 129.966 155.539C129.762 155.08 129.451 154.465 129.286 154.172C129.12 153.879 128.799 153.469 128.576 153.264C128.236 152.961 128.109 152.903 127.74 152.903C127.497 152.903 127.147 152.971 126.962 153.049C126.777 153.127 126.437 153.381 126.204 153.606C125.98 153.84 125.63 154.27 125.436 154.562C125.241 154.855 124.862 155.539 124.599 156.076C124.327 156.613 123.948 157.472 123.754 157.98C123.55 158.488 123.2 159.474 122.966 160.177L122.907 160.363C122.685 161.061 122.377 162.028 122.208 162.618C122.023 163.262 121.654 164.619 121.391 165.645C121.129 166.67 120.711 168.359 120.468 169.404C120.225 170.448 119.913 171.835 119.768 172.479C119.632 173.124 119.447 173.934 119.379 174.286C119.301 174.637 119.126 175.428 119 176.043C118.863 176.658 118.533 178.26 118.261 179.607C117.988 180.945 117.677 182.439 117.58 182.927C117.473 183.415 117.279 184.352 117.143 185.026C116.997 185.7 116.802 186.637 116.705 187.125C116.608 187.613 116.297 189.039 116.025 190.299C115.752 191.558 115.325 193.384 115.091 194.351C114.848 195.317 114.518 196.567 114.352 197.133C114.197 197.7 113.925 198.53 113.769 198.989C113.604 199.447 113.254 200.346 112.991 200.99C112.729 201.635 112.252 202.689 111.941 203.333C111.621 203.978 111.115 204.905 110.814 205.384C110.512 205.862 109.997 206.585 109.666 206.985C109.346 207.386 108.83 207.913 108.539 208.147C108.247 208.381 107.761 208.704 107.469 208.85C107.178 208.997 106.672 209.172 106.351 209.241C105.904 209.338 105.622 209.338 105.136 209.25C104.786 209.182 104.222 208.997 103.872 208.84C103.522 208.674 102.997 208.352 102.705 208.118C102.414 207.883 101.84 207.356 101.432 206.936C101.033 206.507 100.499 205.901 100.255 205.579C100.012 205.257 99.4388 204.427 98.9722 203.724C98.5055 203.021 97.7764 201.947 97.3486 201.332C96.9208 200.717 96.2305 199.643 95.8125 198.94C95.3945 198.237 94.6653 196.948 94.1889 196.059C93.7125 195.171 92.9834 193.696 92.5653 192.788C92.1376 191.88 91.5737 190.601 91.3112 189.957C91.039 189.312 90.6695 188.414 90.4848 187.955C90.3001 187.496 89.8626 186.354 89.5126 185.417C89.1626 184.479 88.5307 182.702 88.1224 181.462C87.7043 180.222 86.9654 177.947 86.4891 176.385C86.0127 174.823 85.4391 172.958 85.2252 172.235C85.0113 171.513 83.8933 167.597 82.7363 163.545C81.5891 159.493 80.3544 155.207 80.0044 154.025C79.6544 152.844 79.1683 151.243 78.9253 150.462C78.6822 149.68 78.1961 148.187 77.8559 147.142C77.5059 146.097 76.9614 144.486 76.6309 143.578C76.3101 142.67 75.7267 141.108 75.3379 140.112C74.949 139.116 74.3948 137.739 74.0934 137.036C73.8018 136.333 72.7032 133.882 71.6629 131.568C70.6227 129.254 69.0574 125.808 68.1922 123.904C67.3269 122 65.8686 118.787 64.9644 116.776C64.0506 114.765 62.7867 111.904 62.145 110.429C61.5034 108.955 60.6478 106.953 60.2492 105.987C59.8506 105.02 59.2284 103.526 58.8882 102.667C58.5382 101.808 57.9937 100.421 57.6729 99.5913C57.3521 98.7614 56.7299 97.0722 56.2826 95.8322C55.8451 94.5922 55.2618 92.903 54.9896 92.073C54.7271 91.2431 54.3674 90.1203 54.2021 89.5832L54.2018 89.582C54.0461 89.0446 53.7353 87.9716 53.5119 87.1911C53.298 86.4099 52.9285 84.9649 52.6952 83.969C52.4619 82.973 52.1508 81.5865 52.0147 80.8933C51.8786 80.2001 51.6841 79.0479 51.5674 78.3547C51.4605 77.6614 51.305 76.5093 51.2272 75.816C51.1494 75.1228 51.0522 73.9121 51.023 73.1309C50.9744 71.9397 50.9938 71.5199 51.1688 70.4947C51.2855 69.821 51.4897 68.8153 51.6161 68.249C51.7424 67.6827 52.0049 66.677 52.1994 66.0033C52.3938 65.3295 52.7924 64.1481 53.0938 63.367C53.3855 62.5859 53.9493 61.3165 54.348 60.5354C54.7368 59.7543 55.3299 58.6803 55.6604 58.1433C56.0007 57.6062 56.5743 56.7568 56.934 56.2588C57.2937 55.7706 58.0034 54.8919 58.4895 54.3158C58.9854 53.7495 59.7826 52.9098 60.2687 52.4704C60.7548 52.0212 61.5325 51.3475 62.0187 50.957C62.5048 50.5664 63.4381 49.8927 64.1089 49.4436C64.7797 49.0042 65.8686 48.35 66.5394 47.9985C67.2102 47.647 68.2602 47.149 68.8727 46.8854C69.4852 46.6218 70.5838 46.2019 71.3032 45.9676C72.0226 45.7235 73.1018 45.411 73.6851 45.2743C74.2684 45.1376 75.1434 44.9326 75.6295 44.8252C76.1156 44.7178 77.1559 44.5323 77.9628 44.4151Z" fill="#F8F9F9"/>
<defs>
<linearGradient id="paint0_linear_83_246" x1="128" y1="1" x2="128" y2="255" gradientUnits="userSpaceOnUse">
<stop stop-color="#59C97E"/>
<stop offset="1" stop-color="#49A467"/>
</linearGradient>
</defs>
</svg>
