<svg width="341" height="341" viewBox="0 0 341 341" fill="none" xmlns="http://www.w3.org/2000/svg">
<g clip-path="url(#clip0_14_40)">
<rect width="341" height="341" fill="url(#paint0_linear_14_40)"/>
<g filter="url(#filter0_d_14_40)">
<path d="M104.198 58.5573C105.269 58.4 107.357 58.2034 108.832 58.1247C110.307 58.033 111.86 57.9805 112.291 58.0067C112.721 58.0199 114.157 58.0723 115.488 58.0985C116.82 58.1378 118.908 58.282 120.122 58.4262C121.336 58.5704 123.489 58.8981 124.886 59.1603C126.283 59.4225 128.345 59.8681 129.454 60.1565C130.564 60.4449 132.326 60.943 133.37 61.2838C134.414 61.6116 136.32 62.2801 137.612 62.7651C138.904 63.2501 140.757 63.9711 141.723 64.3774C142.689 64.7707 144.634 65.5965 146.03 66.2126C147.427 66.8287 149.541 67.7463 150.729 68.2706C151.917 68.795 153.849 69.6339 155.036 70.132C156.224 70.6301 157.869 71.3118 158.691 71.6395C159.513 71.9672 160.923 72.4915 161.823 72.8061C162.724 73.1338 164.421 73.6844 165.609 74.0383C166.796 74.3923 168.376 74.8248 169.133 75.0083C169.89 75.1919 171.143 75.454 171.939 75.5982C172.735 75.7424 174.197 75.9653 175.202 76.0963C176.455 76.2536 178.008 76.3192 180.162 76.3192C181.937 76.3323 183.921 76.2536 184.73 76.1619C185.526 76.0701 186.988 75.8473 187.993 75.6638C188.998 75.4803 190.408 75.1919 191.126 75.0083C191.843 74.8248 193.462 74.3267 194.715 73.9072C195.968 73.4878 197.795 72.8061 198.761 72.3998C199.727 71.9803 201.28 71.2593 202.22 70.8006C203.16 70.3286 204.648 69.529 205.548 69.0309C206.449 68.5197 207.858 67.6808 208.681 67.1695C209.503 66.6452 210.273 66.1733 210.377 66.1077C210.547 66.0029 210.547 66.016 210.377 66.2519C210.273 66.383 209.777 66.9991 209.268 67.6152C208.772 68.2313 207.676 69.4242 206.853 70.2893C206.031 71.1414 204.739 72.3736 203.982 73.029C203.225 73.6844 201.933 74.72 201.11 75.3361C200.288 75.9522 198.97 76.8697 198.174 77.3679C197.377 77.866 196.033 78.6394 195.172 79.0982C194.31 79.5439 192.809 80.2779 191.843 80.6974C190.878 81.13 189.168 81.8116 188.058 82.2049C186.949 82.5981 185.278 83.1356 184.338 83.3977C183.399 83.6599 181.885 84.04 180.945 84.2498C180.005 84.4595 178.191 84.8134 176.899 85.0363C175.607 85.246 173.466 85.5475 172.135 85.6917C170.803 85.8359 168.611 86.0325 167.24 86.1243C165.87 86.216 162.319 86.2816 159.344 86.2816C156.368 86.2816 152.491 86.2029 150.729 86.1112C148.967 86.0194 146.096 85.8359 144.334 85.6917C142.572 85.5606 140.875 85.4426 140.549 85.4426C140.183 85.4426 140.013 85.482 140.092 85.5606C140.157 85.6262 140.901 85.9932 141.723 86.3602C142.546 86.7404 144.073 87.3827 145.117 87.8022C146.161 88.2216 147.832 88.8246 148.837 89.1523C149.842 89.48 151.578 89.9913 152.687 90.2796C153.796 90.568 155.467 90.9482 156.407 91.1317C157.347 91.3021 159.069 91.5774 160.257 91.7347C161.732 91.9313 163.468 92.0362 165.804 92.0886C167.788 92.1279 170.007 92.1017 171.156 92.0099C172.226 91.9313 173.845 91.774 174.745 91.656C175.646 91.5512 177.173 91.3021 178.139 91.1317C179.105 90.9482 180.749 90.5942 181.793 90.3452C182.837 90.0961 184.482 89.6635 185.448 89.3752C186.414 89.0999 187.849 88.6542 188.646 88.3789C189.442 88.1168 190.878 87.6055 191.843 87.2516C192.809 86.8846 194.31 86.2947 195.172 85.9408C196.033 85.5737 197.652 84.8659 198.761 84.3678C199.87 83.8565 202.22 82.7292 203.982 81.8509C205.744 80.9727 208.237 79.6618 209.529 78.954C210.821 78.2461 213.053 76.9877 214.489 76.1619C215.925 75.3361 218.953 73.5402 221.211 72.1638C223.469 70.7874 226.027 69.2538 226.888 68.7556C227.75 68.2575 229.486 67.3268 230.739 66.6976C231.992 66.0684 233.845 65.1902 234.85 64.7576C235.855 64.325 237.5 63.6827 238.505 63.3157C239.51 62.9617 240.945 62.4767 241.703 62.2539C242.46 62.0441 243.608 61.7295 244.248 61.5853C244.887 61.428 246.127 61.1921 246.989 61.0479C247.85 60.9037 249.286 60.7333 250.186 60.6546C251.087 60.576 252.497 60.5629 253.319 60.6022C254.141 60.6546 255.525 60.8119 256.386 60.9561C257.248 61.1003 258.566 61.428 259.323 61.6771C260.08 61.9262 261.072 62.3063 261.542 62.5423C262.012 62.7651 262.677 63.1321 263.043 63.3419C263.395 63.5516 264.113 64.0366 264.609 64.4168C265.105 64.7838 265.901 65.4654 266.358 65.9242C266.828 66.383 267.494 67.1171 267.859 67.5497C268.211 67.9822 268.825 68.8343 269.216 69.4504C269.621 70.0665 270.248 71.22 270.626 72.0065C271.018 72.793 271.618 74.3267 271.97 75.4147C272.323 76.4896 272.793 78.233 273.002 79.2817C273.223 80.3304 273.497 82.0082 273.615 83.0176C273.732 84.0269 273.876 85.9408 273.941 87.2778C274.02 88.746 274.02 90.7646 273.941 92.3901C273.876 93.8713 273.732 96.0473 273.615 97.2402C273.511 98.4331 273.302 100.255 273.145 101.304C273.002 102.352 272.767 103.886 272.623 104.712C272.479 105.538 272.192 107.072 271.983 108.12C271.775 109.169 271.448 110.703 271.266 111.528C271.07 112.354 270.717 113.862 270.456 114.871C270.208 115.88 269.738 117.65 269.412 118.804C269.086 119.957 268.629 121.556 268.394 122.343C268.159 123.129 267.715 124.545 267.415 125.489C267.115 126.433 266.554 128.11 266.175 129.225C265.784 130.339 265.131 132.227 264.7 133.419C264.27 134.612 263.565 136.5 263.134 137.614C262.703 138.728 261.972 140.59 261.503 141.743C261.033 142.897 260.21 144.876 259.675 146.135C259.14 147.393 257.952 150.08 257.039 152.099C256.125 154.118 254.702 157.421 253.88 159.44C253.058 161.458 251.479 165.378 250.356 168.157C249.247 170.936 247.772 174.645 247.093 176.415C246.414 178.185 245.357 180.95 244.744 182.576C244.13 184.201 243.256 186.587 242.786 187.885C242.316 189.183 241.35 191.948 240.632 194.046C239.927 196.143 238.792 199.617 238.113 201.78C237.448 203.943 236.534 206.958 236.103 208.465C235.672 209.972 234.615 213.931 233.754 217.248C232.879 220.564 232.057 223.723 231.913 224.261C231.77 224.798 230.948 227.957 230.073 231.274C229.212 234.59 228.233 238.274 227.919 239.466C227.593 240.659 226.941 242.979 226.471 244.644C226.001 246.309 225.244 248.904 224.774 250.412C224.317 251.932 223.625 254.108 223.234 255.262C222.855 256.416 222.281 258.093 221.955 258.998C221.641 259.902 220.989 261.606 220.519 262.799C220.062 263.992 219.227 265.972 218.665 267.191C218.117 268.41 217.243 270.179 216.747 271.123C216.238 272.067 215.468 273.404 215.024 274.112C214.58 274.82 213.758 276.026 213.184 276.799C212.609 277.559 211.604 278.726 210.965 279.381C210.325 280.05 209.294 280.954 208.681 281.413C208.067 281.859 206.984 282.514 206.266 282.868C205.548 283.222 204.465 283.629 203.851 283.786C203.12 283.969 202.559 284.035 202.22 283.983C201.933 283.93 201.371 283.747 200.98 283.563C200.588 283.38 199.936 282.973 199.544 282.659C199.153 282.344 198.5 281.754 198.095 281.322C197.691 280.902 197.103 280.234 196.777 279.84C196.451 279.447 195.746 278.477 195.198 277.677C194.663 276.878 193.88 275.646 193.449 274.925C193.018 274.204 192.313 272.932 191.883 272.106C191.439 271.28 190.669 269.694 190.16 268.593C189.651 267.505 188.854 265.67 188.398 264.53C187.941 263.402 187.262 261.62 186.884 260.571C186.505 259.522 185.957 257.936 185.683 257.032C185.396 256.127 184.991 254.711 184.782 253.886C184.573 253.06 184.195 251.461 183.947 250.346C183.712 249.232 183.268 247.161 182.981 245.758C182.694 244.356 181.898 240.371 181.219 236.91C180.527 233.45 179.77 229.648 179.522 228.455C179.274 227.262 178.87 225.349 178.609 224.195C178.361 223.042 177.878 220.944 177.551 219.542C177.212 218.139 176.69 216.042 176.377 214.888C176.063 213.735 175.515 211.899 175.163 210.825C174.81 209.737 174.288 208.36 174.014 207.744C173.74 207.128 173.322 206.302 173.101 205.909C172.879 205.516 172.448 204.965 172.148 204.69C171.691 204.283 171.521 204.205 171.025 204.205C170.699 204.205 170.229 204.297 169.981 204.401C169.733 204.506 169.276 204.847 168.963 205.149C168.663 205.463 168.193 206.04 167.932 206.433C167.671 206.826 167.162 207.744 166.809 208.465C166.444 209.186 165.935 210.34 165.674 211.021C165.4 211.703 164.93 213.027 164.617 213.971L164.537 214.221C164.239 215.158 163.826 216.456 163.599 217.248C163.351 218.113 162.855 219.935 162.502 221.311C162.15 222.688 161.589 224.955 161.262 226.358C160.936 227.761 160.518 229.622 160.322 230.487C160.14 231.352 159.892 232.44 159.8 232.912C159.696 233.384 159.461 234.446 159.291 235.272C159.109 236.098 158.665 238.247 158.299 240.056C157.934 241.852 157.516 243.858 157.386 244.513C157.242 245.169 156.981 246.427 156.798 247.331C156.603 248.236 156.342 249.494 156.211 250.15C156.081 250.805 155.663 252.719 155.297 254.41C154.932 256.101 154.358 258.552 154.044 259.85C153.718 261.148 153.274 262.826 153.052 263.586C152.844 264.346 152.478 265.46 152.269 266.076C152.047 266.693 151.578 267.899 151.225 268.764C150.873 269.629 150.233 271.045 149.816 271.91C149.385 272.775 148.706 274.02 148.301 274.662C147.897 275.305 147.205 276.275 146.761 276.812C146.331 277.35 145.639 278.058 145.247 278.372C144.856 278.687 144.203 279.119 143.812 279.316C143.42 279.513 142.741 279.749 142.311 279.84C141.71 279.971 141.332 279.971 140.679 279.853C140.209 279.762 139.452 279.513 138.982 279.303C138.512 279.08 137.808 278.647 137.416 278.333C137.024 278.018 136.254 277.31 135.706 276.747C135.171 276.17 134.453 275.357 134.127 274.925C133.801 274.492 133.03 273.378 132.404 272.434C131.777 271.49 130.799 270.048 130.224 269.222C129.65 268.397 128.723 266.955 128.162 266.011C127.601 265.067 126.622 263.337 125.982 262.144C125.343 260.951 124.364 258.972 123.803 257.753C123.228 256.534 122.471 254.816 122.119 253.951C121.753 253.086 121.257 251.88 121.009 251.264C120.761 250.648 120.174 249.114 119.704 247.856C119.234 246.597 118.386 244.212 117.838 242.547C117.277 240.882 116.285 237.828 115.645 235.73C115.006 233.633 114.235 231.129 113.948 230.159C113.661 229.189 112.16 223.933 110.607 218.493C109.067 213.053 107.409 207.298 106.939 205.712C106.469 204.126 105.817 201.976 105.491 200.928C105.164 199.879 104.512 197.873 104.055 196.471C103.585 195.068 102.854 192.905 102.41 191.686C101.979 190.467 101.196 188.37 100.674 187.033C100.152 185.696 99.4082 183.847 99.0036 182.904C98.612 181.96 97.1371 178.67 95.7406 175.563C94.344 172.456 92.2426 167.829 91.081 165.273C89.9193 162.717 87.9615 158.404 86.7476 155.704C85.5207 153.003 83.824 149.163 82.9625 147.183C82.1011 145.204 80.9525 142.517 80.4174 141.219C79.8822 139.921 79.0469 137.916 78.5901 136.762C78.1202 135.609 77.3893 133.747 76.9586 132.633C76.5278 131.519 75.6925 129.251 75.0921 127.586C74.5048 125.921 73.7216 123.654 73.3562 122.539C73.0038 121.425 72.5208 119.918 72.2989 119.197C72.0901 118.476 71.6724 117.034 71.3722 115.985C71.0851 114.937 70.5891 112.997 70.2759 111.659C69.9626 110.322 69.5449 108.461 69.3622 107.53C69.1795 106.6 68.9184 105.053 68.7618 104.122C68.6182 103.191 68.4094 101.645 68.305 100.714C68.2006 99.7832 68.0701 98.1578 68.0309 97.1091C67.9656 95.5099 67.9917 94.9462 68.2267 93.5698C68.3833 92.6654 68.6574 91.3152 68.8271 90.5549C68.9968 89.7946 69.3492 88.4445 69.6102 87.54C69.8712 86.6355 70.4064 85.0494 70.811 84.0007C71.2026 82.952 71.9596 81.2479 72.4947 80.1993C73.0168 79.1506 73.813 77.7087 74.2568 76.9877C74.7136 76.2668 75.4837 75.1263 75.9666 74.4578C76.4495 73.8024 77.4023 72.6226 78.0549 71.8492C78.7206 71.0889 79.7909 69.9616 80.4435 69.3717C81.0961 68.7687 82.1402 67.8643 82.7929 67.3399C83.4455 66.8156 84.6985 65.9111 85.5991 65.3081C86.4997 64.7183 87.9615 63.84 88.8621 63.3681C89.7627 62.8962 91.1723 62.2277 91.9946 61.8737C92.8169 61.5198 94.2918 60.9561 95.2576 60.6415C96.2235 60.3138 97.6723 59.8944 98.4554 59.7108C99.2385 59.5273 100.413 59.252 101.066 59.1079C101.718 58.9637 103.115 58.7146 104.198 58.5573Z" fill="#F8F9F9"/>
</g>
</g>
<defs>
<filter id="filter0_d_14_40" x="-28" y="-38" width="398" height="418" filterUnits="userSpaceOnUse" color-interpolation-filters="sRGB">
<feFlood flood-opacity="0" result="BackgroundImageFix"/>
<feColorMatrix in="SourceAlpha" type="matrix" values="0 0 0 0 0 0 0 0 0 0 0 0 0 0 0 0 0 0 127 0" result="hardAlpha"/>
<feOffset/>
<feGaussianBlur stdDeviation="48"/>
<feComposite in2="hardAlpha" operator="out"/>
<feColorMatrix type="matrix" values="0 0 0 0 0 0 0 0 0 0 0 0 0 0 0 0 0 0 0.25 0"/>
<feBlend mode="normal" in2="BackgroundImageFix" result="effect1_dropShadow_14_40"/>
<feBlend mode="normal" in="SourceGraphic" in2="effect1_dropShadow_14_40" result="shape"/>
</filter>
<linearGradient id="paint0_linear_14_40" x1="0" y1="0" x2="341" y2="351" gradientUnits="userSpaceOnUse">
<stop stop-color="#57BD79"/>
<stop offset="1" stop-color="#327B4B"/>
</linearGradient>
<clipPath id="clip0_14_40">
<rect width="341" height="341" fill="white"/>
</clipPath>
</defs>
</svg>
