<svg width="256" height="256" viewBox="0 0 256 256" fill="none" xmlns="http://www.w3.org/2000/svg">
<mask id="mask0_83_246" style="mask-type:alpha" maskUnits="userSpaceOnUse" x="1" y="1" width="254" height="254">
<path d="M106.429 254.324C77.8036 252.299 57.2862 246.329 40.0761 235.018C21.6571 222.911 8.93954 200.243 3.9843 170.687C1.69292 157.021 0.962957 146.366 1.00143 127.164C1.07014 93.0812 4.72734 71.9613 13.9373 52.4684C22.7757 33.762 33.8514 22.6792 52.4395 13.9416C72.1839 4.66056 93.5545 1 127.994 1C162.433 1 183.803 4.66056 203.548 13.9416C222.119 22.6715 233.122 33.6726 242.078 52.4684C251.216 71.6451 254.915 93.0336 254.999 127.164C255.1 168.687 249.55 193.658 235.416 215.277C222.216 235.466 198.18 248.266 165.151 252.695C147.932 255.004 125.031 255.639 106.429 254.324Z" fill="white"/>
</mask>
<g mask="url(#mask0_83_246)">
<rect x="1" y="1" width="254.001" height="254.001" fill="url(#paint0_linear_83_246)"/>
<g filter="url(#filter0_d_83_246)">
<path d="M78.6138 44.6174C79.411 44.5002 80.9666 44.3538 82.0651 44.2952C83.1637 44.2268 84.3207 44.1878 84.6415 44.2073C84.9623 44.2171 86.0317 44.2561 87.0234 44.2756C88.015 44.3049 89.5706 44.4123 90.4747 44.5197C91.3789 44.6271 92.983 44.8712 94.0233 45.0665C95.0635 45.2618 96.5996 45.5938 97.426 45.8086C98.2524 46.0234 99.5648 46.3944 100.343 46.6483C101.12 46.8924 102.54 47.3904 103.502 47.7516C104.465 48.1129 105.845 48.6499 106.565 48.9526C107.284 49.2455 108.733 49.8606 109.773 50.3195C110.813 50.7784 112.388 51.4619 113.273 51.8525C114.158 52.243 115.596 52.8679 116.481 53.239C117.366 53.61 118.591 54.1177 119.203 54.3618C119.816 54.6059 120.866 54.9965 121.537 55.2308C122.207 55.4749 123.471 55.885 124.356 56.1486C125.241 56.4123 126.417 56.7345 126.981 56.8712C127.545 57.0079 128.478 57.2031 129.071 57.3105C129.664 57.4179 130.753 57.5839 131.502 57.6816C132.435 57.7987 133.592 57.8476 135.196 57.8476C136.518 57.8573 137.996 57.7987 138.599 57.7304C139.192 57.662 140.281 57.4961 141.029 57.3594C141.778 57.2227 142.828 57.0079 143.363 56.8712C143.897 56.7345 145.103 56.3634 146.036 56.051C146.97 55.7385 148.331 55.2308 149.05 54.9281C149.77 54.6157 150.926 54.0787 151.626 53.7369C152.326 53.3854 153.435 52.7898 154.106 52.4188C154.776 52.038 155.826 51.4131 156.439 51.0323C157.051 50.6418 157.625 50.2903 157.703 50.2414C157.829 50.1633 157.829 50.1731 157.703 50.3488C157.625 50.4465 157.255 50.9054 156.876 51.3643C156.507 51.8232 155.69 52.7117 155.078 53.3561C154.465 53.9908 153.503 54.9086 152.939 55.3968C152.375 55.885 151.413 56.6564 150.8 57.1153C150.188 57.5742 149.206 58.2576 148.613 58.6287C148.02 58.9997 147.018 59.5758 146.377 59.9175C145.735 60.2495 144.617 60.7963 143.897 61.1087C143.178 61.4309 141.904 61.9387 141.078 62.2316C140.252 62.5245 139.007 62.9248 138.307 63.1201C137.607 63.3154 136.479 63.5985 135.779 63.7548C135.079 63.911 133.728 64.1746 132.766 64.3406C131.803 64.4968 130.209 64.7214 129.217 64.8288C128.225 64.9362 126.592 65.0827 125.571 65.151C124.551 65.2194 121.906 65.2682 119.689 65.2682C117.473 65.2682 114.585 65.2096 113.273 65.1412C111.96 65.0729 109.822 64.9362 108.509 64.8288C107.197 64.7312 105.933 64.6433 105.69 64.6433C105.418 64.6433 105.291 64.6726 105.349 64.7312C105.398 64.78 105.952 65.0534 106.565 65.3268C107.177 65.6099 108.315 66.0884 109.092 66.4008C109.87 66.7132 111.115 67.1624 111.863 67.4065C112.612 67.6506 113.905 68.0314 114.731 68.2462C115.558 68.461 116.802 68.7442 117.502 68.8808C118.202 69.0078 119.485 69.2128 120.37 69.33C121.469 69.4764 122.762 69.5546 124.502 69.5936C125.98 69.6229 127.632 69.6034 128.488 69.535C129.285 69.4764 130.491 69.3593 131.161 69.2714C131.832 69.1933 132.97 69.0078 133.689 68.8808C134.409 68.7442 135.634 68.4805 136.411 68.295C137.189 68.1095 138.414 67.7873 139.134 67.5725C139.853 67.3674 140.922 67.0355 141.515 66.8304C142.109 66.6351 143.178 66.2543 143.897 65.9907C144.617 65.7173 145.735 65.2779 146.377 65.0143C147.018 64.7409 148.224 64.2137 149.05 63.8426C149.876 63.4618 151.626 62.6221 152.939 61.968C154.251 61.3138 156.108 60.3374 157.071 59.8101C158.033 59.2829 159.696 58.3455 160.765 57.7304C161.835 57.1153 164.09 55.7776 165.772 54.7524C167.454 53.7272 169.359 52.5848 170.001 52.2138C170.643 51.8427 171.936 51.1495 172.869 50.6808C173.802 50.2121 175.183 49.558 175.932 49.2357C176.68 48.9135 177.905 48.4351 178.654 48.1617C179.402 47.8981 180.472 47.5368 181.036 47.3708C181.599 47.2146 182.455 46.9803 182.931 46.8729C183.408 46.7557 184.331 46.5799 184.973 46.4725C185.615 46.3651 186.684 46.2382 187.355 46.1796C188.026 46.121 189.076 46.1113 189.688 46.1406C190.301 46.1796 191.331 46.2968 191.973 46.4042C192.615 46.5116 193.596 46.7557 194.16 46.9412C194.724 47.1267 195.463 47.4099 195.813 47.5856C196.163 47.7516 196.659 48.025 196.931 48.1812C197.194 48.3375 197.728 48.6987 198.098 48.9819C198.467 49.2553 199.06 49.763 199.401 50.1047C199.751 50.4465 200.246 50.9933 200.519 51.3155C200.781 51.6377 201.238 52.2723 201.53 52.7312C201.831 53.1901 202.298 54.0494 202.58 54.6352C202.871 55.2211 203.319 56.3634 203.581 57.1738C203.844 57.9745 204.194 59.2731 204.349 60.0542C204.514 60.8353 204.719 62.0851 204.806 62.837C204.894 63.5888 205 65.0143 205.049 66.0102C205.107 67.1038 205.107 68.6075 205.049 69.8182C205 70.9215 204.894 72.5423 204.806 73.4309C204.728 74.3194 204.573 75.6766 204.456 76.4577C204.349 77.2388 204.174 78.3812 204.067 78.9963C203.96 79.6115 203.746 80.7538 203.591 81.535C203.435 82.3161 203.192 83.4585 203.056 84.0736C202.91 84.6887 202.648 85.8116 202.453 86.5634C202.269 87.3152 201.919 88.6334 201.676 89.4926C201.432 90.3518 201.092 91.543 200.917 92.1289C200.742 92.7147 200.412 93.7692 200.188 94.4722C199.964 95.1752 199.546 96.425 199.264 97.2549C198.973 98.0849 198.487 99.4909 198.166 100.379C197.845 101.268 197.32 102.674 196.999 103.504C196.678 104.334 196.134 105.72 195.784 106.58C195.434 107.439 194.821 108.913 194.423 109.85C194.024 110.788 193.14 112.789 192.459 114.293C191.778 115.797 190.719 118.257 190.106 119.761C189.494 121.265 188.317 124.184 187.481 126.254C186.655 128.324 185.556 131.087 185.051 132.405C184.545 133.723 183.758 135.784 183.301 136.994C182.844 138.205 182.193 139.982 181.843 140.949C181.493 141.915 180.773 143.976 180.238 145.538C179.713 147.1 178.868 149.687 178.362 151.299C177.866 152.91 177.186 155.155 176.865 156.278C176.544 157.401 175.757 160.35 175.115 162.82C174.464 165.29 173.851 167.643 173.744 168.044C173.637 168.444 173.025 170.797 172.373 173.267C171.732 175.738 171.002 178.481 170.769 179.37C170.526 180.258 170.04 181.987 169.69 183.227C169.34 184.467 168.776 186.4 168.426 187.523C168.086 188.655 167.571 190.276 167.279 191.136C166.997 191.995 166.569 193.245 166.326 193.918C166.093 194.592 165.607 195.861 165.257 196.75C164.916 197.638 164.294 199.113 163.876 200.021C163.468 200.929 162.816 202.247 162.447 202.95C162.068 203.653 161.494 204.649 161.164 205.176C160.833 205.703 160.221 206.602 159.793 207.178C159.365 207.744 158.617 208.613 158.14 209.101C157.664 209.599 156.896 210.273 156.439 210.615C155.982 210.947 155.175 211.435 154.64 211.698C154.106 211.962 153.299 212.265 152.842 212.382C152.297 212.519 151.879 212.567 151.626 212.528C151.413 212.489 150.994 212.353 150.703 212.216C150.411 212.079 149.925 211.777 149.633 211.542C149.342 211.308 148.856 210.868 148.554 210.546C148.253 210.234 147.815 209.736 147.572 209.443C147.329 209.15 146.804 208.427 146.396 207.832C145.997 207.236 145.414 206.318 145.093 205.781C144.772 205.244 144.247 204.297 143.927 203.682C143.596 203.067 143.022 201.886 142.643 201.065C142.264 200.255 141.671 198.888 141.331 198.039C140.99 197.199 140.485 195.871 140.203 195.09C139.921 194.309 139.513 193.127 139.309 192.454C139.095 191.78 138.793 190.725 138.638 190.11C138.482 189.495 138.2 188.304 138.016 187.474C137.841 186.644 137.51 185.101 137.296 184.057C137.082 183.012 136.489 180.044 135.984 177.466C135.468 174.888 134.904 172.057 134.72 171.168C134.535 170.28 134.234 168.854 134.039 167.995C133.855 167.136 133.495 165.573 133.252 164.529C132.999 163.484 132.61 161.922 132.377 161.062C132.143 160.203 131.735 158.836 131.473 158.036C131.21 157.225 130.821 156.2 130.617 155.741C130.413 155.282 130.102 154.667 129.937 154.374C129.771 154.081 129.45 153.671 129.227 153.466C128.887 153.163 128.76 153.105 128.391 153.105C128.148 153.105 127.798 153.173 127.613 153.251C127.428 153.329 127.088 153.583 126.855 153.808C126.631 154.042 126.281 154.472 126.087 154.765C125.892 155.058 125.513 155.741 125.25 156.278C124.978 156.815 124.599 157.674 124.405 158.182C124.201 158.69 123.851 159.676 123.617 160.379L123.558 160.565C123.336 161.263 123.028 162.23 122.859 162.82C122.674 163.464 122.305 164.822 122.042 165.847C121.78 166.872 121.362 168.561 121.119 169.606C120.876 170.651 120.564 172.037 120.419 172.682C120.283 173.326 120.098 174.136 120.03 174.488C119.952 174.839 119.777 175.63 119.651 176.245C119.514 176.861 119.184 178.462 118.912 179.809C118.639 181.147 118.328 182.641 118.231 183.129C118.124 183.617 117.93 184.555 117.794 185.228C117.648 185.902 117.453 186.839 117.356 187.328C117.259 187.816 116.948 189.241 116.676 190.501C116.403 191.76 115.976 193.586 115.742 194.553C115.499 195.52 115.169 196.769 115.003 197.336C114.848 197.902 114.576 198.732 114.42 199.191C114.255 199.65 113.905 200.548 113.642 201.192C113.38 201.837 112.903 202.891 112.592 203.536C112.272 204.18 111.766 205.108 111.465 205.586C111.163 206.065 110.648 206.787 110.317 207.187C109.997 207.588 109.481 208.115 109.19 208.349C108.898 208.584 108.412 208.906 108.12 209.052C107.829 209.199 107.323 209.375 107.002 209.443C106.555 209.541 106.273 209.541 105.787 209.453C105.437 209.384 104.873 209.199 104.523 209.043C104.173 208.877 103.648 208.554 103.356 208.32C103.065 208.086 102.491 207.559 102.083 207.139C101.684 206.709 101.15 206.104 100.906 205.781C100.663 205.459 100.09 204.629 99.6232 203.926C99.1565 203.223 98.4274 202.149 97.9996 201.534C97.5718 200.919 96.8815 199.845 96.4635 199.142C96.0455 198.439 95.3163 197.15 94.8399 196.262C94.3635 195.373 93.6344 193.899 93.2163 192.991C92.7886 192.083 92.2247 190.804 91.9622 190.159C91.69 189.515 91.3205 188.616 91.1358 188.158C90.9511 187.699 90.5136 186.556 90.1636 185.619C89.8136 184.682 89.1817 182.904 88.7734 181.664C88.3553 180.424 87.6164 178.149 87.1401 176.587C86.6637 175.025 86.0901 173.16 85.8762 172.438C85.6623 171.715 84.5443 167.8 83.3873 163.748C82.2401 159.696 81.0054 155.409 80.6554 154.228C80.3055 153.046 79.8193 151.445 79.5763 150.664C79.3332 149.883 78.8471 148.389 78.5069 147.344C78.1569 146.299 77.6124 144.688 77.2819 143.78C76.9611 142.872 76.3777 141.31 75.9889 140.314C75.6 139.318 75.0458 137.941 74.7444 137.238C74.4528 136.535 73.3542 134.085 72.3139 131.771C71.2737 129.457 69.7084 126.01 68.8432 124.106C67.9779 122.202 66.5196 118.99 65.6154 116.978C64.7016 114.967 63.4377 112.106 62.796 110.632C62.1544 109.157 61.2988 107.156 60.9002 106.189C60.5016 105.222 59.8794 103.728 59.5392 102.869C59.1892 102.01 58.6447 100.624 58.3239 99.7936C58.0031 98.9636 57.3809 97.2745 56.9336 96.0345C56.4962 94.7944 55.9128 93.1053 55.6406 92.2753C55.3781 91.4454 55.0184 90.3225 54.8531 89.7855L54.8528 89.7843C54.6971 89.2469 54.3863 88.1739 54.1629 87.3933C53.949 86.6122 53.5795 85.1671 53.3462 84.1712C53.1129 83.1753 52.8018 81.7888 52.6657 81.0956C52.5296 80.4023 52.3351 79.2502 52.2184 78.5569C52.1115 77.8637 51.956 76.7116 51.8782 76.0183C51.8004 75.3251 51.7032 74.1143 51.674 73.3332C51.6254 72.142 51.6448 71.7222 51.8198 70.6969C51.9365 70.0232 52.1407 69.0175 52.2671 68.4512C52.3934 67.8849 52.6559 66.8792 52.8504 66.2055C53.0448 65.5318 53.4434 64.3504 53.7448 63.5692C54.0365 62.7881 54.6004 61.5188 54.999 60.7377C55.3878 59.9566 55.9809 58.8825 56.3114 58.3455C56.6517 57.8085 57.2253 56.959 57.585 56.4611C57.9447 55.9729 58.6544 55.0941 59.1405 54.518C59.6364 53.9517 60.4336 53.112 60.9197 52.6727C61.4058 52.2235 62.1835 51.5498 62.6697 51.1592C63.1558 50.7687 64.0891 50.095 64.7599 49.6458C65.4307 49.2064 66.5196 48.5523 67.1904 48.2008C67.8612 47.8493 68.9112 47.3513 69.5237 47.0877C70.1362 46.824 71.2348 46.4042 71.9542 46.1699C72.6736 45.9258 73.7528 45.6133 74.3361 45.4766C74.9194 45.3399 75.7944 45.1349 76.2805 45.0275C76.7666 44.9201 77.8069 44.7346 78.6138 44.6174Z" fill="#F8F9F9"/>
</g>
</g>
<defs>
<filter id="filter0_d_83_246" x="3.651" y="-3.79773" width="249.442" height="264.339" filterUnits="userSpaceOnUse" color-interpolation-filters="sRGB">
<feFlood flood-opacity="0" result="BackgroundImageFix"/>
<feColorMatrix in="SourceAlpha" type="matrix" values="0 0 0 0 0 0 0 0 0 0 0 0 0 0 0 0 0 0 127 0" result="hardAlpha"/>
<feOffset/>
<feGaussianBlur stdDeviation="24"/>
<feComposite in2="hardAlpha" operator="out"/>
<feColorMatrix type="matrix" values="0 0 0 0 0 0 0 0 0 0 0 0 0 0 0 0 0 0 0.25 0"/>
<feBlend mode="normal" in2="BackgroundImageFix" result="effect1_dropShadow_83_246"/>
<feBlend mode="normal" in="SourceGraphic" in2="effect1_dropShadow_83_246" result="shape"/>
</filter>
<linearGradient id="paint0_linear_83_246" x1="1" y1="1" x2="255.001" y2="262.45" gradientUnits="userSpaceOnUse">
<stop stop-color="#57BD79"/>
<stop offset="1" stop-color="#327B4B"/>
</linearGradient>
</defs>
</svg>
