<svg width="341" height="341" viewBox="0 0 341 341" fill="none" xmlns="http://www.w3.org/2000/svg">
<rect width="341" height="341" fill="url(#paint0_linear_74_203)"/>
<g filter="url(#filter0_d_74_203)">
<path d="M193.725 237.891C193.545 237.422 193.717 234.895 194.124 232.004C194.29 230.829 194.547 228.847 194.695 227.599C194.843 226.351 195.144 224.129 195.363 222.66C195.583 221.192 195.766 219.51 195.77 218.923C195.774 218.335 195.949 217.074 196.159 216.12C196.369 215.165 196.545 213.741 196.55 212.954C196.555 212.168 196.73 210.486 196.939 209.217C197.512 205.731 197.893 202.495 197.904 201.022C197.909 200.296 198.088 198.981 198.3 198.1C198.513 197.219 198.69 195.837 198.693 195.029C198.696 194.222 198.824 193.108 198.978 192.554C199.132 192.001 199.368 190.319 199.502 188.817C199.923 184.129 200.298 181.055 200.568 180.082C200.711 179.567 200.829 178.363 200.83 177.408C200.83 176.453 200.96 175.251 201.117 174.738C201.274 174.225 201.511 172.725 201.644 171.403C201.777 170.082 201.997 167.882 202.133 166.515C202.27 165.148 202.509 163.285 202.664 162.377C202.819 161.468 203.137 158.983 203.37 156.853C203.603 154.724 203.912 152.202 204.057 151.247C204.33 149.45 204.642 146.724 205.124 141.903C205.57 137.451 205.585 137.388 206.288 137.212C206.633 137.125 209.061 137.096 211.682 137.147C217.021 137.251 217.66 137.445 218.947 139.352C219.521 140.203 219.576 140.562 219.57 143.43C219.567 145.16 219.479 148.06 219.374 149.874L219.184 153.173L219.855 152.733C220.223 152.492 220.954 151.648 221.478 150.859C222.839 148.809 228.065 143.601 230.731 141.638C232.802 140.113 236.944 137.913 239.274 137.1C243.055 135.781 249.146 135.749 252.889 137.03C259.154 139.174 263.138 143.666 265.501 151.247C266.616 154.826 266.85 156.812 266.965 163.681C267.051 168.853 266.991 170.458 266.655 171.906C266.425 172.896 266.237 174.109 266.237 174.602C266.237 175.766 265.327 179.59 264.344 182.553C263.917 183.84 263.568 185.011 263.568 185.155C263.568 186.497 257.593 197.656 255.922 199.434C255.646 199.728 255.004 200.509 254.496 201.17C253.987 201.83 253.507 202.431 253.43 202.505C253.352 202.578 252.901 203.09 252.427 203.642C251.663 204.532 250.149 205.936 248.076 207.677C244.84 210.393 239.535 212.931 234.932 213.965C233.051 214.388 227.641 214.315 225.22 213.835C221.457 213.088 217.993 211.442 215.387 209.162C214.543 208.423 213.716 207.864 213.549 207.919C213.382 207.974 213.171 208.791 213.08 209.734C212.598 214.737 212.305 217.343 212.067 218.724C211.681 220.96 211.222 224.469 210.975 227.065C210.428 232.82 209.724 237.455 209.323 237.938C209.107 238.198 207.269 238.278 201.457 238.278C195.08 238.278 193.85 238.216 193.725 237.891ZM231.513 200.865C235.144 199.703 238.68 197.292 241.397 194.128C243.479 191.703 243.611 191.492 245.778 187.13C248.412 181.83 250.052 175.986 250.34 170.869C250.431 169.254 250.57 167.452 250.648 166.865C250.85 165.351 250.294 159.463 249.781 157.683C248.759 154.134 246.545 151.294 243.926 150.171C242.361 149.5 238.516 149.44 236.971 150.061C231.032 152.452 226.491 157.334 221.464 166.731C220.236 169.027 219.649 170.33 218.576 173.138C218.38 173.652 217.911 174.874 217.534 175.854C217.062 177.082 216.848 178.159 216.845 179.324C216.843 180.253 216.667 181.735 216.454 182.616C216.241 183.497 216.06 184.878 216.051 185.686C216.042 186.493 215.92 187.635 215.779 188.222C215.638 188.809 215.39 190.705 215.227 192.434L214.932 195.579L215.935 196.706C217.209 198.135 219.498 199.588 221.387 200.164C222.195 200.41 223.216 200.728 223.657 200.87C224.787 201.234 230.371 201.23 231.513 200.865ZM81.0608 232.005C80.9765 231.786 80.9829 231.095 81.0752 230.47C81.1674 229.846 81.3507 228.253 81.4825 226.932C81.6142 225.61 81.8488 223.989 82.0038 223.328C82.1588 222.667 82.2885 221.383 82.2921 220.475C82.2961 219.567 82.4285 218.486 82.5872 218.073C82.7459 217.659 82.9822 216.06 83.1124 214.518C83.2426 212.976 83.5382 210.333 83.7694 208.645C84.0006 206.956 84.2882 204.419 84.4084 203.006C84.5287 201.594 84.7157 200.294 84.8241 200.119C84.9324 199.944 85.1172 198.637 85.2347 197.215C85.5272 193.675 86.0146 189.296 86.295 187.688C86.6961 185.387 87.3823 179.721 87.378 178.745C87.376 178.231 87.4996 177.358 87.6531 176.805C87.8066 176.252 88.0422 174.69 88.1765 173.334C88.6618 168.436 88.9626 165.765 89.221 164.062C89.3657 163.107 89.6174 161.065 89.7803 159.523C89.9432 157.981 90.1941 155.721 90.3378 154.5C90.6678 151.696 90.5478 151.308 89.2914 151.112C83.7013 150.24 82.2359 149.737 81.3511 148.387C80.9741 147.811 80.9274 147.356 81.0851 145.797C81.1903 144.757 81.3572 142.91 81.456 141.692C81.5792 140.174 81.7608 139.399 82.0339 139.227C82.2529 139.088 84.6165 138.973 87.2862 138.971C92.768 138.966 92.2767 139.19 92.567 136.564C93.6954 126.356 97.9433 117.892 104.857 112.075C105.885 111.21 107.387 110.102 108.194 109.613C110.489 108.221 115.404 106.218 117.432 105.848C121.446 105.115 129.513 105.282 130.88 106.126C131.212 106.331 130.952 109.325 130.249 113.396C129.646 116.887 129.789 116.757 126.414 116.88C122.257 117.03 119.944 117.742 116.76 119.852C112.661 122.567 109.859 127.26 108.774 133.227C108.239 136.17 108.147 137.493 108.428 138.221L108.706 138.943L116.313 139.022C121.19 139.072 124.02 139.201 124.201 139.382C124.397 139.579 124.399 140.586 124.208 142.719C123.563 149.904 123.465 150.548 122.962 150.919C122.578 151.203 120.915 151.261 114.951 151.202C110.812 151.16 107.336 151.216 107.226 151.325C107.024 151.527 106.832 152.825 106.327 157.387C106.172 158.782 105.757 162.086 105.404 164.729C104.781 169.395 104.396 172.476 103.919 176.609C103.496 180.285 102.862 185.521 102.481 188.489C101.95 192.624 101.897 193.049 100.985 200.502C99.8927 209.423 99.3642 212.64 98.4412 215.986C98.2387 216.72 97.6902 218.943 97.2224 220.925C95.7894 226.996 95.281 228.247 93.4315 230.245C91.8209 231.986 90.2551 232.405 85.3504 232.405C81.9249 232.405 81.1877 232.336 81.0608 232.005ZM127.806 212.9C127.601 212.568 127.817 209.85 128.346 206.109C128.553 204.64 128.914 201.397 129.148 198.9C129.382 196.404 129.687 193.821 129.827 193.161C130.066 192.034 130.311 189.889 130.898 183.817C131.033 182.422 131.262 180.8 131.409 180.213C131.555 179.626 131.677 178.423 131.681 177.542C131.684 176.66 131.812 175.518 131.965 175.005C132.118 174.492 132.356 172.871 132.494 171.403C132.632 169.935 132.933 167.352 133.162 165.663C133.391 163.975 133.695 161.397 133.837 159.934C133.979 158.471 134.214 156.849 134.358 156.33C134.503 155.81 134.626 154.785 134.632 154.05C134.638 153.316 134.814 151.935 135.024 150.98C135.234 150.026 135.41 148.442 135.415 147.46C135.42 146.479 135.55 145.346 135.703 144.944C135.964 144.258 136.291 141.796 136.747 137.098C136.854 135.997 137.08 134.255 137.25 133.227C137.842 129.649 138.361 125.646 138.361 124.665C138.361 124.122 138.474 123.244 138.611 122.713C138.749 122.182 139.054 120.186 139.29 118.277C139.526 116.368 139.889 113.605 140.096 112.137C140.303 110.669 140.606 108.462 140.77 107.233C140.934 106.004 141.177 104.713 141.31 104.363L141.552 103.727H149.149C157.929 103.727 157.246 103.462 156.762 106.69C156.188 110.51 155.987 112.165 155.727 115.207C155.582 116.896 155.34 118.697 155.189 119.21C155.037 119.723 154.913 120.745 154.913 121.481C154.913 122.217 154.79 123.239 154.639 123.752C154.489 124.265 154.244 126.006 154.096 127.621C153.587 133.16 153.349 135.097 153.063 136.028C152.906 136.541 152.776 137.803 152.774 138.832C152.772 139.86 152.594 141.363 152.377 142.17C152.16 142.978 151.981 144.239 151.98 144.974C151.978 145.708 151.796 147.25 151.576 148.401C151.356 149.552 151.176 150.986 151.176 151.588C151.176 152.191 151.061 153.351 150.921 154.168C150.595 156.066 150.125 159.79 149.824 162.86C149.694 164.182 149.399 166.644 149.168 168.333C148.937 170.022 148.639 172.572 148.505 174C148.372 175.428 148.141 177.29 147.993 178.138C147.657 180.063 147.17 183.82 146.893 186.62C146.777 187.795 146.488 190.197 146.251 191.959C146.014 193.721 145.706 196.424 145.566 197.966C145.427 199.508 145.19 201.189 145.04 201.702C144.891 202.215 144.766 203.176 144.763 203.838C144.76 204.499 144.584 206.002 144.372 207.176C144.16 208.351 143.982 209.951 143.977 210.731C143.96 213.346 144.511 213.183 135.698 213.183C130.554 213.183 127.923 213.089 127.806 212.9ZM162.482 212.775C162.396 212.55 162.391 211.679 162.472 210.839C162.894 206.442 163.211 203.864 163.447 202.905C163.592 202.318 163.713 201.212 163.716 200.449C163.719 199.685 163.84 198.484 163.983 197.779C164.125 197.074 164.368 195.176 164.521 193.561C164.674 191.946 164.985 189.303 165.211 187.688C165.437 186.073 165.729 183.61 165.859 182.215C165.989 180.82 166.348 177.817 166.657 175.541C166.966 173.265 167.325 170.114 167.454 168.539C167.583 166.964 167.757 165.565 167.841 165.429C167.989 165.189 168.293 162.485 168.79 156.987C168.923 155.519 169.156 153.837 169.307 153.249C169.459 152.662 169.587 151.521 169.591 150.713C169.595 149.906 169.715 148.825 169.856 148.311C169.997 147.797 170.239 145.995 170.392 144.306C170.855 139.221 171.106 137.825 171.626 137.445C171.988 137.181 173.793 137.099 179.191 137.102C183.091 137.104 186.564 137.181 186.911 137.274C187.506 137.433 187.532 137.531 187.398 139.072C187.078 142.746 186.671 146.104 186.423 147.109C186.279 147.697 186.158 148.824 186.154 149.615C186.151 150.405 186.031 151.787 185.888 152.685C185.589 154.568 185.027 158.892 184.411 164.062C184.174 166.044 183.811 169.047 183.603 170.736C183.395 172.424 183.171 174.346 183.105 175.007C183.039 175.668 182.79 177.59 182.552 179.279C182.314 180.967 182.014 183.67 181.886 185.285C181.759 186.9 181.524 188.642 181.365 189.155C181.206 189.667 181.075 190.702 181.075 191.454C181.075 192.206 180.947 193.468 180.789 194.259C180.509 195.667 180.297 197.443 179.746 202.998C179.596 204.517 179.415 205.855 179.344 205.97C179.273 206.084 179.09 207.595 178.939 209.326C178.787 211.057 178.53 212.633 178.368 212.828C178.135 213.108 176.451 213.183 170.356 213.183C163.677 213.183 162.617 213.128 162.482 212.775ZM178.539 125.133C176.397 124.335 175.643 123.865 174.477 122.599C172.908 120.897 172.05 119.435 171.595 117.687C170.462 113.337 171.863 109.152 175.454 106.164C177.44 104.512 179.244 103.87 181.877 103.878C183.638 103.885 184.124 104.005 185.917 104.88C188.333 106.06 189.989 107.703 191.246 110.168C192.061 111.765 192.115 112.043 192.121 114.673C192.127 117.18 192.049 117.645 191.387 119.078C190.456 121.095 188.388 123.236 186.159 124.489C184.613 125.36 184.201 125.468 182.155 125.545C180.423 125.61 179.553 125.511 178.539 125.133Z" fill="white"/>
</g>
<defs>
<filter id="filter0_d_74_203" x="33" y="55.7222" width="282" height="230.556" filterUnits="userSpaceOnUse" color-interpolation-filters="sRGB">
<feFlood flood-opacity="0" result="BackgroundImageFix"/>
<feColorMatrix in="SourceAlpha" type="matrix" values="0 0 0 0 0 0 0 0 0 0 0 0 0 0 0 0 0 0 127 0" result="hardAlpha"/>
<feOffset/>
<feGaussianBlur stdDeviation="24"/>
<feComposite in2="hardAlpha" operator="out"/>
<feColorMatrix type="matrix" values="0 0 0 0 0 0 0 0 0 0 0 0 0 0 0 0 0 0 0.25 0"/>
<feBlend mode="normal" in2="BackgroundImageFix" result="effect1_dropShadow_74_203"/>
<feBlend mode="normal" in="SourceGraphic" in2="effect1_dropShadow_74_203" result="shape"/>
</filter>
<linearGradient id="paint0_linear_74_203" x1="22" y1="11" x2="307.5" y2="341" gradientUnits="userSpaceOnUse">
<stop stop-color="#FB6542"/>
<stop offset="1" stop-color="#AE3B20"/>
</linearGradient>
</defs>
</svg>
