<svg width="256" height="256" viewBox="0 0 256 256" fill="none" xmlns="http://www.w3.org/2000/svg">
<mask id="mask0_83_243" style="mask-type:alpha" maskUnits="userSpaceOnUse" x="1" y="1" width="254" height="254">
<path d="M106.429 254.324C77.8036 252.299 57.2862 246.329 40.0761 235.018C21.6571 222.911 8.93954 200.243 3.9843 170.687C1.69292 157.021 0.962957 146.366 1.00143 127.164C1.07014 93.0812 4.72734 71.9613 13.9373 52.4684C22.7757 33.762 33.8514 22.6792 52.4395 13.9416C72.1839 4.66056 93.5545 1 127.994 1C162.433 1 183.803 4.66056 203.548 13.9416C222.119 22.6715 233.122 33.6726 242.078 52.4684C251.216 71.6451 254.915 93.0336 254.999 127.164C255.1 168.687 249.55 193.658 235.416 215.277C222.216 235.466 198.18 248.266 165.151 252.695C147.932 255.004 125.031 255.639 106.429 254.324Z" fill="white"/>
</mask>
<g mask="url(#mask0_83_243)">
<rect x="1" y="1" width="254.001" height="254.001" fill="url(#paint0_linear_83_243)"/>
<g filter="url(#filter0_d_83_243)">
<path d="M145.299 178.197C145.165 177.847 145.293 175.965 145.597 173.812C145.72 172.937 145.912 171.461 146.022 170.531C146.132 169.601 146.356 167.946 146.52 166.852C146.683 165.759 146.819 164.506 146.822 164.068C146.825 163.631 146.956 162.691 147.112 161.98C147.269 161.27 147.4 160.209 147.404 159.623C147.407 159.037 147.538 157.784 147.693 156.839C148.12 154.242 148.404 151.832 148.412 150.735C148.416 150.194 148.549 149.214 148.707 148.558C148.866 147.902 148.997 146.873 148.999 146.271C149.002 145.67 149.097 144.84 149.212 144.427C149.327 144.015 149.502 142.762 149.603 141.644C149.916 138.152 150.195 135.862 150.396 135.137C150.503 134.753 150.591 133.857 150.591 133.146C150.592 132.434 150.688 131.539 150.805 131.157C150.922 130.775 151.099 129.657 151.198 128.673C151.297 127.688 151.461 126.05 151.562 125.031C151.664 124.013 151.842 122.626 151.958 121.949C152.073 121.272 152.31 119.421 152.483 117.835C152.657 116.249 152.887 114.37 152.995 113.659C153.199 112.321 153.431 110.29 153.79 106.699C154.122 103.383 154.134 103.336 154.657 103.205C154.914 103.14 156.722 103.119 158.675 103.157C162.652 103.234 163.128 103.379 164.086 104.799C164.513 105.433 164.554 105.701 164.55 107.837C164.548 109.125 164.482 111.285 164.404 112.636L164.263 115.093L164.762 114.766C165.037 114.586 165.581 113.958 165.971 113.37C166.985 111.843 170.878 107.964 172.864 106.502C174.407 105.366 177.492 103.727 179.227 103.122C182.044 102.139 186.58 102.116 189.369 103.07C194.035 104.667 197.003 108.012 198.763 113.659C199.593 116.325 199.767 117.805 199.853 122.92C199.917 126.773 199.872 127.969 199.622 129.048C199.451 129.785 199.311 130.688 199.311 131.056C199.311 131.923 198.633 134.771 197.901 136.978C197.583 137.936 197.323 138.809 197.323 138.916C197.323 139.915 192.872 148.227 191.628 149.552C191.422 149.771 190.944 150.353 190.565 150.845C190.186 151.337 189.829 151.784 189.771 151.839C189.713 151.894 189.377 152.275 189.024 152.686C188.455 153.349 187.327 154.395 185.783 155.692C183.373 157.715 179.422 159.605 175.993 160.376C174.592 160.69 170.562 160.636 168.759 160.279C165.956 159.722 163.375 158.496 161.435 156.798C160.806 156.248 160.19 155.831 160.065 155.872C159.941 155.913 159.784 156.521 159.716 157.224C159.357 160.951 159.138 162.892 158.961 163.92C158.674 165.586 158.332 168.199 158.148 170.133C157.741 174.42 157.217 177.873 156.918 178.232C156.757 178.426 155.388 178.485 151.059 178.485C146.308 178.485 145.392 178.439 145.299 178.197ZM173.446 150.618C176.151 149.752 178.785 147.957 180.809 145.599C182.359 143.793 182.458 143.636 184.072 140.387C186.034 136.439 187.255 132.086 187.47 128.275C187.538 127.072 187.641 125.73 187.699 125.292C187.85 124.165 187.435 119.779 187.053 118.453C186.292 115.809 184.643 113.694 182.692 112.858C181.527 112.358 178.662 112.313 177.511 112.776C173.088 114.557 169.705 118.193 165.961 125.193C165.046 126.903 164.609 127.873 163.81 129.965C163.664 130.348 163.315 131.258 163.034 131.988C162.682 132.903 162.522 133.705 162.52 134.573C162.519 135.265 162.388 136.368 162.229 137.024C162.071 137.681 161.936 138.71 161.929 139.311C161.922 139.913 161.831 140.763 161.726 141.2C161.621 141.638 161.437 143.05 161.315 144.338L161.095 146.68L161.843 147.52C162.791 148.585 164.497 149.666 165.904 150.096C166.505 150.279 167.266 150.516 167.594 150.621C168.436 150.892 172.595 150.89 173.446 150.618ZM61.3798 173.813C61.317 173.649 61.3218 173.135 61.3905 172.67C61.4592 172.204 61.5957 171.018 61.6939 170.034C61.7921 169.05 61.9668 167.842 62.0822 167.349C62.1977 166.857 62.2943 165.901 62.297 165.225C62.3 164.548 62.3985 163.743 62.5167 163.435C62.635 163.127 62.811 161.936 62.908 160.787C63.0049 159.639 63.2252 157.67 63.3974 156.413C63.5696 155.155 63.7838 153.265 63.8733 152.213C63.9629 151.16 64.1022 150.193 64.1829 150.062C64.2636 149.932 64.4013 148.958 64.4888 147.899C64.7067 145.262 65.0697 142.001 65.2786 140.803C65.5774 139.089 66.0885 134.869 66.0853 134.141C66.0838 133.758 66.1758 133.108 66.2902 132.696C66.4045 132.285 66.58 131.121 66.68 130.111C67.0415 126.462 67.2656 124.473 67.458 123.204C67.5659 122.493 67.7534 120.972 67.8747 119.824C67.996 118.675 68.1829 116.992 68.2899 116.082C68.5357 113.994 68.4463 113.705 67.5105 113.559C63.3466 112.909 62.2551 112.534 61.5961 111.529C61.3152 111.1 61.2804 110.761 61.3979 109.6C61.4763 108.825 61.6006 107.449 61.6742 106.542C61.7659 105.412 61.9012 104.834 62.1046 104.706C62.2678 104.603 64.0283 104.517 66.0169 104.515C70.1001 104.511 69.7341 104.678 69.9504 102.722C70.7909 95.1188 73.9549 88.8141 79.1049 84.4815C79.8705 83.8374 80.989 83.012 81.5905 82.6473C83.3001 81.6107 86.9606 80.1189 88.4713 79.843C91.4611 79.2969 97.4704 79.4212 98.488 80.0502C98.7355 80.2031 98.5421 82.4332 98.0183 85.4651C97.5692 88.0653 97.6753 87.9689 95.1618 88.0601C92.0653 88.1724 90.3427 88.7028 87.9711 90.2738C84.9176 92.2965 82.8303 95.7925 82.0223 100.237C81.6238 102.429 81.5555 103.414 81.7645 103.957L81.9717 104.495L87.6376 104.553C91.2706 104.591 93.3787 104.687 93.5131 104.821C93.6594 104.968 93.6609 105.718 93.5183 107.307C93.0379 112.659 92.965 113.138 92.5902 113.415C92.3041 113.626 91.0661 113.67 86.6234 113.625C83.5403 113.595 80.951 113.636 80.8695 113.718C80.7191 113.868 80.5757 114.834 80.1995 118.233C80.0845 119.272 79.7752 121.733 79.5121 123.701C79.0478 127.177 78.761 129.472 78.4063 132.55C78.0909 135.288 77.6186 139.189 77.3348 141.399C76.9393 144.48 76.8999 144.796 76.2204 150.348C75.407 156.993 75.0134 159.389 74.3259 161.881C74.175 162.428 73.7664 164.083 73.418 165.56C72.3506 170.082 71.9719 171.013 70.5943 172.502C69.3946 173.799 68.2283 174.11 64.575 174.11C62.0235 174.11 61.4743 174.059 61.3798 173.813ZM96.1989 159.582C96.0459 159.335 96.2066 157.31 96.6005 154.524C96.7551 153.43 97.0241 151.014 97.1982 149.154C97.3724 147.295 97.6001 145.371 97.7041 144.879C97.8817 144.04 98.0647 142.442 98.5016 137.919C98.6019 136.88 98.7731 135.672 98.882 135.235C98.9909 134.797 99.0822 133.902 99.0848 133.245C99.087 132.588 99.1827 131.738 99.2965 131.356C99.4104 130.974 99.5877 129.766 99.6907 128.673C99.7936 127.579 100.017 125.655 100.188 124.397C100.358 123.14 100.585 121.219 100.691 120.13C100.797 119.04 100.972 117.832 101.079 117.445C101.187 117.058 101.278 116.294 101.283 115.747C101.287 115.2 101.419 114.171 101.575 113.46C101.732 112.75 101.863 111.57 101.866 110.839C101.87 110.107 101.967 109.264 102.081 108.964C102.275 108.453 102.519 106.619 102.858 103.12C102.938 102.3 103.107 101.002 103.233 100.237C103.674 97.5719 104.061 94.5899 104.061 93.8595C104.061 93.4551 104.145 92.8007 104.247 92.4052C104.349 92.0097 104.577 90.5229 104.753 89.1011C104.929 87.6793 105.199 85.6211 105.353 84.5274C105.507 83.4337 105.733 81.7901 105.855 80.8748C105.977 79.9596 106.158 78.9977 106.257 78.7372L106.437 78.2636H112.096C118.636 78.2636 118.128 78.0657 117.767 80.4699C117.339 83.3156 117.19 84.5481 116.996 86.8142C116.888 88.072 116.708 89.4136 116.595 89.7957C116.482 90.1778 116.39 90.939 116.39 91.4873C116.39 92.0356 116.298 92.7967 116.186 93.1788C116.073 93.5609 115.891 94.8578 115.781 96.0609C115.402 100.187 115.224 101.63 115.012 102.323C114.895 102.705 114.798 103.645 114.797 104.411C114.795 105.178 114.662 106.297 114.501 106.898C114.339 107.5 114.206 108.439 114.205 108.986C114.203 109.533 114.068 110.682 113.904 111.539C113.74 112.396 113.606 113.465 113.606 113.913C113.606 114.362 113.52 115.227 113.416 115.835C113.174 117.248 112.823 120.022 112.599 122.309C112.502 123.294 112.283 125.128 112.11 126.386C111.938 127.644 111.716 129.543 111.617 130.607C111.517 131.67 111.346 133.057 111.235 133.689C110.985 135.123 110.622 137.921 110.416 140.007C110.329 140.882 110.114 142.672 109.938 143.984C109.761 145.297 109.532 147.31 109.428 148.458C109.324 149.607 109.147 150.859 109.036 151.241C108.924 151.623 108.832 152.339 108.829 152.832C108.827 153.325 108.696 154.444 108.538 155.319C108.38 156.194 108.247 157.385 108.244 157.967C108.231 159.915 108.641 159.793 102.077 159.793C98.2457 159.793 96.2857 159.723 96.1989 159.582ZM122.027 159.489C121.963 159.322 121.96 158.673 122.02 158.047C122.334 154.772 122.57 152.852 122.746 152.137C122.854 151.7 122.944 150.876 122.947 150.308C122.949 149.739 123.039 148.844 123.145 148.319C123.252 147.794 123.432 146.38 123.546 145.177C123.66 143.974 123.892 142.006 124.06 140.803C124.229 139.6 124.446 137.765 124.543 136.726C124.64 135.687 124.907 133.45 125.137 131.755C125.368 130.06 125.635 127.713 125.731 126.54C125.827 125.366 125.956 124.324 126.019 124.223C126.129 124.044 126.356 122.03 126.726 117.935C126.825 116.841 126.998 115.588 127.111 115.151C127.224 114.713 127.32 113.863 127.323 113.262C127.326 112.66 127.415 111.855 127.52 111.472C127.625 111.089 127.805 109.747 127.92 108.489C128.265 104.701 128.452 103.662 128.839 103.378C129.108 103.182 130.453 103.121 134.473 103.123C137.378 103.124 139.966 103.182 140.223 103.251C140.667 103.37 140.686 103.442 140.586 104.591C140.348 107.327 140.045 109.828 139.861 110.577C139.753 111.015 139.663 111.854 139.66 112.443C139.658 113.032 139.568 114.061 139.462 114.73C139.239 116.133 138.82 119.354 138.361 123.204C138.185 124.681 137.915 126.918 137.76 128.176C137.605 129.433 137.438 130.865 137.389 131.357C137.34 131.849 137.154 133.281 136.977 134.539C136.799 135.797 136.576 137.81 136.481 139.013C136.386 140.216 136.211 141.513 136.093 141.895C135.974 142.277 135.877 143.048 135.877 143.608C135.877 144.168 135.781 145.108 135.664 145.697C135.455 146.746 135.297 148.069 134.887 152.207C134.775 153.338 134.64 154.334 134.587 154.42C134.534 154.506 134.398 155.631 134.285 156.92C134.172 158.209 133.981 159.383 133.86 159.529C133.687 159.737 132.432 159.793 127.892 159.793C122.918 159.793 122.128 159.752 122.027 159.489ZM133.988 94.2078C132.392 93.613 131.831 93.263 130.962 92.3206C129.794 91.0529 129.155 89.9638 128.815 88.6615C127.971 85.4213 129.015 82.3044 131.69 80.0788C133.169 78.8478 134.513 78.3695 136.474 78.3761C137.786 78.3806 138.148 78.4701 139.483 79.1224C141.283 80.0009 142.516 81.2251 143.453 83.0606C144.06 84.2502 144.1 84.4576 144.104 86.4165C144.109 88.2842 144.051 88.6304 143.558 89.6976C142.864 91.2001 141.324 92.7945 139.664 93.7285C138.512 94.3766 138.205 94.4575 136.681 94.5146C135.391 94.5629 134.743 94.4892 133.988 94.2078Z" fill="white"/>
</g>
</g>
<defs>
<filter id="filter0_d_83_243" x="13.3345" y="30.2596" width="234.545" height="196.226" filterUnits="userSpaceOnUse" color-interpolation-filters="sRGB">
<feFlood flood-opacity="0" result="BackgroundImageFix"/>
<feColorMatrix in="SourceAlpha" type="matrix" values="0 0 0 0 0 0 0 0 0 0 0 0 0 0 0 0 0 0 127 0" result="hardAlpha"/>
<feOffset/>
<feGaussianBlur stdDeviation="24"/>
<feComposite in2="hardAlpha" operator="out"/>
<feColorMatrix type="matrix" values="0 0 0 0 0 0 0 0 0 0 0 0 0 0 0 0 0 0 0.25 0"/>
<feBlend mode="normal" in2="BackgroundImageFix" result="effect1_dropShadow_83_243"/>
<feBlend mode="normal" in="SourceGraphic" in2="effect1_dropShadow_83_243" result="shape"/>
</filter>
<linearGradient id="paint0_linear_83_243" x1="17.3872" y1="9.19357" x2="230.048" y2="255.001" gradientUnits="userSpaceOnUse">
<stop stop-color="#FB6542"/>
<stop offset="1" stop-color="#AE3B20"/>
</linearGradient>
</defs>
</svg>
