<svg width="256" height="256" viewBox="0 0 256 256" fill="none" xmlns="http://www.w3.org/2000/svg">
<mask id="mask0_83_270" style="mask-type:alpha" maskUnits="userSpaceOnUse" x="1" y="1" width="254" height="254">
<path d="M106.429 254.324C77.8036 252.299 57.2862 246.329 40.0761 235.018C21.6571 222.911 8.93954 200.243 3.9843 170.687C1.69292 157.021 0.962957 146.366 1.00143 127.164C1.07014 93.0812 4.72734 71.9613 13.9373 52.4684C22.7757 33.762 33.8514 22.6792 52.4395 13.9416C72.1839 4.66056 93.5545 1 127.994 1C162.433 1 183.803 4.66056 203.548 13.9416C222.119 22.6715 233.122 33.6726 242.078 52.4684C251.216 71.6451 254.915 93.0336 254.999 127.164C255.1 168.687 249.55 193.658 235.416 215.277C222.216 235.466 198.18 248.266 165.151 252.695C147.932 255.004 125.031 255.639 106.429 254.324Z" fill="white"/>
</mask>
<g mask="url(#mask0_83_270)">
<rect x="1" y="1" width="254.001" height="254.001" fill="white"/>
<path d="M129.863 114.22H204.081H255V244.571L181.372 188.112H156.441V168.317C164.823 162.743 170.411 154.454 172.273 144.663H129.863V114.22Z" fill="url(#paint0_linear_83_270)"/>
<path d="M181.78 188.241C181.841 188.185 181.902 188.129 181.963 188.073L156.368 168.214C149.342 172.945 140.38 175.813 129.77 175.813C109.265 175.813 91.8438 161.976 85.6064 143.336H59.3665V163.424L1.00024 208.885V255.001H255.007V244.571L181.78 188.241Z" fill="url(#paint1_linear_83_270)"/>
<path d="M45.8831 174.271L-30 233L-29.9497 24L46.3425 83.0455H80V109.322C77.9493 115.429 76.7376 121.905 76.7376 128.66C76.7376 135.414 77.9493 141.89 80 147.997L72.4498 153.733L45.8844 174.274L45.8831 174.271Z" fill="url(#paint2_linear_83_270)"/>
<path d="M182.402 69.8684L251.277 1H1V48.188L60.5848 93.8802L85.6062 113.296C91.8435 94.6554 109.265 80.8185 129.77 80.8185C141.384 80.8185 151.708 84.8333 159.953 92.5762L182.536 69.9927C182.492 69.9512 182.447 69.9098 182.402 69.8684Z" fill="url(#paint3_linear_83_270)"/>
<path fill-rule="evenodd" clip-rule="evenodd" d="M220.394 114.22H255V1H251.275L191.598 60.6768C175.313 45.8163 153.646 36.7536 129.862 36.7536C79.2622 36.7536 38.2432 77.7727 38.2432 128.372C38.2432 178.972 79.2622 219.991 129.862 219.991C180.461 219.991 221.48 178.972 221.48 128.372C221.48 123.559 221.109 118.833 220.394 114.22ZM159.952 92.5759C151.707 84.833 141.383 80.8181 129.769 80.8181C109.264 80.8181 91.8429 94.655 85.6056 113.295C84.0283 118.027 83.0963 123.046 83.0963 128.279C83.0963 133.513 84.0283 138.531 85.6055 143.263L85.5118 143.335H85.6056C91.8429 161.975 109.264 175.812 129.769 175.812C140.379 175.812 149.341 172.944 156.367 168.212C164.755 162.62 170.347 154.304 172.211 144.482H129.769V113.941H204.043C204.975 119.102 205.477 124.479 205.477 130.072C205.477 154.089 196.874 174.306 181.962 188.072C168.913 200.116 151.062 207.142 129.769 207.142C98.9406 207.142 72.3423 189.434 59.3658 163.696L59.3657 163.624C53.9887 153.013 50.9059 141.041 50.9059 128.279C50.9059 115.518 53.9887 103.545 59.3657 92.9343C72.3423 67.1247 98.9406 49.4164 129.769 49.4164C151.062 49.4164 168.842 57.231 182.535 69.9924L159.952 92.5759Z" fill="white"/>
<g filter="url(#filter0_d_83_270)">
<path d="M205.477 130.072C205.477 124.48 204.975 119.103 204.043 113.941H129.77V144.482H172.212C170.348 154.304 164.756 162.62 156.368 168.212V188.071H181.962C196.874 174.306 205.477 154.089 205.477 130.072Z" fill="#4285F4"/>
<path d="M129.769 207.142C151.062 207.142 168.913 200.116 181.961 188.072L156.367 168.213C149.341 172.945 140.379 175.813 129.769 175.813C109.264 175.813 91.8431 161.976 85.6058 143.336H59.3661V163.696C72.3425 189.434 98.9407 207.142 129.769 207.142Z" fill="#34A853"/>
<path d="M85.6052 143.262C84.028 138.53 83.096 133.512 83.096 128.279C83.096 123.045 84.028 118.027 85.6052 113.295V92.9347H59.3661C53.9892 103.545 50.9065 115.518 50.9065 128.279C50.9065 141.04 53.9892 153.012 59.3661 163.623L79.7982 147.707L85.6052 143.262Z" fill="#FBBC05"/>
<path d="M129.768 80.8181C141.382 80.8181 151.706 84.8329 159.951 92.5758L182.534 69.9924C168.841 57.2311 151.061 49.4165 129.768 49.4165C98.9401 49.4165 72.342 67.1247 59.3655 92.9342L85.6052 113.295C91.8425 94.6549 109.264 80.8181 129.768 80.8181Z" fill="#EA4335"/>
</g>
</g>
<defs>
<filter id="filter0_d_83_270" x="2.90649" y="1.4165" width="250.57" height="253.726" filterUnits="userSpaceOnUse" color-interpolation-filters="sRGB">
<feFlood flood-opacity="0" result="BackgroundImageFix"/>
<feColorMatrix in="SourceAlpha" type="matrix" values="0 0 0 0 0 0 0 0 0 0 0 0 0 0 0 0 0 0 127 0" result="hardAlpha"/>
<feOffset/>
<feGaussianBlur stdDeviation="24"/>
<feComposite in2="hardAlpha" operator="out"/>
<feColorMatrix type="matrix" values="0 0 0 0 0 0 0 0 0 0 0 0 0 0 0 0 0 0 0.25 0"/>
<feBlend mode="normal" in2="BackgroundImageFix" result="effect1_dropShadow_83_270"/>
<feBlend mode="normal" in="SourceGraphic" in2="effect1_dropShadow_83_270" result="shape"/>
</filter>
<linearGradient id="paint0_linear_83_270" x1="146.622" y1="121.669" x2="271.387" y2="257.606" gradientUnits="userSpaceOnUse">
<stop stop-color="#4285F4"/>
<stop offset="1" stop-color="#294E8B"/>
</linearGradient>
<linearGradient id="paint1_linear_83_270" x1="80.7014" y1="155.561" x2="241.593" y2="259.843" gradientUnits="userSpaceOnUse">
<stop stop-color="#45B763"/>
<stop offset="1" stop-color="#21813B"/>
</linearGradient>
<linearGradient id="paint2_linear_83_270" x1="-18.863" y1="29.7677" x2="102.164" y2="164.759" gradientUnits="userSpaceOnUse">
<stop stop-color="#FFDA6F"/>
<stop offset="1" stop-color="#FBBC05"/>
</linearGradient>
<linearGradient id="paint3_linear_83_270" x1="19.6218" y1="-13.525" x2="126.138" y2="113.296" gradientUnits="userSpaceOnUse">
<stop stop-color="#FD6457"/>
<stop offset="1" stop-color="#EA4335"/>
</linearGradient>
</defs>
</svg>
