<svg width="256" height="256" viewBox="0 0 256 256" fill="none" xmlns="http://www.w3.org/2000/svg">
<path d="M106.429 254.324C77.8036 252.299 57.2862 246.329 40.0761 235.018C21.6571 222.911 8.93954 200.243 3.9843 170.687C1.69292 157.021 0.962957 146.366 1.00143 127.164C1.07014 93.0812 4.72734 71.9613 13.9373 52.4684C22.7757 33.762 33.8514 22.6792 52.4395 13.9416C72.1839 4.66056 93.5545 1 127.994 1C162.433 1 183.803 4.66056 203.548 13.9416C222.119 22.6715 233.122 33.6726 242.078 52.4684C251.216 71.6451 254.915 93.0336 254.999 127.164C255.1 168.687 249.55 193.658 235.416 215.277C222.216 235.466 198.18 248.266 165.151 252.695C147.932 255.004 125.031 255.639 106.429 254.324Z" fill="url(#paint0_linear_95_576)"/>
<path d="M62 96.5C62 89.0442 68.0442 83 75.5 83H179.5C186.956 83 193 89.0442 193 96.5C193 103.956 186.956 110 179.5 110H75.5C68.0442 110 62 103.956 62 96.5Z" fill="white"/>
<path d="M62 132.5C62 125.044 68.0442 119 75.5 119H179.5C186.956 119 193 125.044 193 132.5C193 139.956 186.956 146 179.5 146H75.5C68.0442 146 62 139.956 62 132.5Z" fill="white"/>
<path d="M62 168.5C62 161.044 68.0442 155 75.5 155H147.5C154.956 155 161 161.044 161 168.5C161 175.956 154.956 182 147.5 182H75.5C68.0442 182 62 175.956 62 168.5Z" fill="white"/>
<defs>
<linearGradient id="paint0_linear_95_576" x1="128" y1="1" x2="128" y2="255" gradientUnits="userSpaceOnUse">
<stop stop-color="#4486F4"/>
<stop offset="1" stop-color="#3770CF"/>
</linearGradient>
</defs>
</svg>
