<svg width="256" height="256" viewBox="0 0 256 256" fill="none" xmlns="http://www.w3.org/2000/svg">
<path d="M106.429 254.324C77.8036 252.299 57.2862 246.329 40.0761 235.018C21.6571 222.911 8.93954 200.243 3.9843 170.687C1.69292 157.021 0.962957 146.366 1.00143 127.164C1.07014 93.0812 4.72734 71.9613 13.9373 52.4684C22.7757 33.762 33.8514 22.6792 52.4395 13.9416C72.1839 4.66056 93.5545 1 127.994 1C162.433 1 183.803 4.66056 203.548 13.9416C222.119 22.6715 233.122 33.6726 242.078 52.4684C251.216 71.6451 254.915 93.0336 254.999 127.164C255.1 168.687 249.55 193.658 235.416 215.277C222.216 235.466 198.18 248.266 165.151 252.695C147.932 255.004 125.031 255.639 106.429 254.324Z" fill="url(#paint0_linear_95_594)"/>
<path d="M51 99.4C51 91.5593 51 87.6389 52.5259 84.6441C53.8681 82.0099 56.0099 79.8681 58.6441 78.5259C61.6389 77 65.5593 77 73.4 77H182.6C190.441 77 194.361 77 197.356 78.5259C199.99 79.8681 202.132 82.0099 203.474 84.6441C205 87.6389 205 91.5593 205 99.4V100.625H51V99.4Z" fill="white"/>
<path d="M73.75 121.625H116.625V144.375H73.75V121.625Z" fill="white"/>
<path d="M139.375 121.625H182.25V144.375H139.375V121.625Z" fill="white"/>
<path d="M51 165.375H205V166.6C205 174.441 205 178.361 203.474 181.356C202.132 183.99 199.99 186.132 197.356 187.474C194.361 189 190.441 189 182.6 189H73.4C65.5593 189 61.6389 189 58.6441 187.474C56.0099 186.132 53.8681 183.99 52.5259 181.356C51 178.361 51 174.441 51 166.6V165.375Z" fill="white"/>
<path d="M73.75 100.625L73.75 165.375H51V100.625H73.75Z" fill="white"/>
<path d="M139.375 100.625V165.375H116.625V100.625L139.375 100.625Z" fill="white"/>
<path d="M205 100.625V165.375H182.25V100.625L205 100.625Z" fill="white"/>
<defs>
<linearGradient id="paint0_linear_95_594" x1="128" y1="1" x2="128" y2="255" gradientUnits="userSpaceOnUse">
<stop stop-color="#3BC25F"/>
<stop offset="1" stop-color="#34A853"/>
</linearGradient>
</defs>
</svg>
