<svg width="192" height="192" viewBox="0 0 192 192" fill="none" xmlns="http://www.w3.org/2000/svg">
<path d="M79.8641 190.494C58.4515 188.98 43.1039 184.514 30.2301 176.052C16.4521 166.996 6.93903 150.04 3.23235 127.931C1.51833 117.708 0.97229 109.739 1.00107 95.3749C1.05247 69.8796 3.78817 54.0812 10.6775 39.5C17.2889 25.507 25.5739 17.2167 39.4783 10.6808C54.2478 3.73821 70.2337 1 95.9953 1C121.757 1 137.743 3.73821 152.512 10.6808C166.404 17.211 174.634 25.4402 181.334 39.5C188.169 53.8448 190.937 69.844 190.999 95.3749C191.075 126.436 186.923 145.115 176.35 161.286C166.477 176.388 148.497 185.963 123.79 189.276C110.91 191.003 93.7794 191.478 79.8641 190.494Z" fill="url(#paint0_linear_118_613)"/>
<path d="M40.9449 143.874H60.8427V94.5646L32.4175 72.811V135.173C32.4175 139.987 36.2409 143.874 40.9449 143.874Z" fill="white"/>
<path d="M131.158 143.874H151.056C155.774 143.874 159.583 139.973 159.583 135.173V72.811L131.158 94.565" fill="#B3B3B3"/>
<path d="M131.158 56.8422V94.5039L159.583 72.7766V61.1871C159.583 50.4394 147.545 44.3119 139.117 50.7581" fill="#CFCFCF"/>
<path d="M60.8423 94.6742V57.1036L95.9998 83.1131L131.157 57.1023V94.6736L95.9998 120.685" fill="#E8E8E8"/>
<path d="M32.4175 61.1872V72.7757L60.8427 94.5039V56.8424L52.8837 50.7581C44.4413 44.3119 32.4175 50.4394 32.4175 61.1872Z" fill="#BABABA"/>
<defs>
<linearGradient id="paint0_linear_118_613" x1="96" y1="1" x2="96" y2="191" gradientUnits="userSpaceOnUse">
<stop stop-color="#D25656"/>
<stop offset="1" stop-color="#CA3737"/>
</linearGradient>
</defs>
</svg>
