<svg width="256" height="256" viewBox="0 0 256 256" fill="none" xmlns="http://www.w3.org/2000/svg">
<path d="M106.429 254.324C77.8036 252.299 57.2862 246.329 40.0761 235.018C21.6571 222.911 8.93954 200.243 3.9843 170.687C1.69292 157.021 0.962957 146.366 1.00143 127.164C1.07014 93.0812 4.72734 71.9613 13.9373 52.4684C22.7757 33.762 33.8514 22.6792 52.4395 13.9416C72.1839 4.66056 93.5545 1 127.994 1C162.433 1 183.803 4.66056 203.548 13.9416C222.119 22.6715 233.122 33.6726 242.078 52.4684C251.216 71.6451 254.915 93.0336 254.999 127.164C255.1 168.687 249.55 193.658 235.416 215.277C222.216 235.466 198.18 248.266 165.151 252.695C147.932 255.004 125.031 255.639 106.429 254.324Z" fill="url(#paint0_linear_83_278)"/>
<path d="M9.93352 62H87.7589C102.355 61.9994 116.556 66.7432 128.189 75.5156C139.814 84.2815 148.239 96.5907 152.164 110.57L176.684 195.166C176.893 195.89 177 196.64 177 197.393C177 212.361 164.811 221.772 154.043 226.947C142.803 232.349 129.527 235 120.625 235C118.016 235 117.482 235 114.074 231.592C110.666 228.184 86.4743 192.222 86.4743 192.222H9.36743C7.63549 187.18 6.18091 181.837 5.01917 176.222H90.6361C93.2446 176.222 95.6894 177.493 97.1868 179.629L124.635 218.783C131.074 218.145 139.694 216.092 147.113 212.526C156.092 208.211 160.443 203.2 160.95 198.356L136.787 114.991C136.78 114.968 136.773 114.945 136.767 114.922C133.796 104.32 127.405 94.963 118.556 88.2906C109.707 81.6175 98.8896 77.9995 87.7597 78H5.28407C6.52871 72.3358 8.06839 67.061 9.93352 62Z" fill="white"/>
<path d="M90.6363 138.754C83.788 138.754 78.2037 144.268 78.2037 151.11C78.2037 157.953 83.788 163.467 90.6363 163.467C97.4845 163.467 103.069 157.953 103.069 151.11C103.069 144.268 97.4845 138.754 90.6363 138.754Z" fill="#99D7E8"/>
<path d="M90.6363 92.7551C83.788 92.7551 78.2037 98.2694 78.2037 105.112C78.2037 111.954 83.788 117.469 90.6363 117.469C97.4845 117.469 103.069 111.954 103.069 105.112C103.069 98.2694 97.4845 92.7551 90.6363 92.7551Z" fill="#EDECD9"/>
<path d="M67.4529 115.755C60.6047 115.755 55.0204 121.269 55.0204 128.111C55.0204 134.954 60.6047 140.468 67.4529 140.468C74.3011 140.468 79.8854 134.954 79.8854 128.111C79.8854 121.269 74.3011 115.755 67.4529 115.755Z" fill="#E2DFFF"/>
<path d="M113.805 115.755C106.957 115.755 101.372 121.269 101.372 128.111C101.372 134.954 106.957 140.468 113.805 140.468C120.653 140.468 126.237 134.954 126.237 128.111C126.237 121.269 120.653 115.755 113.805 115.755Z" fill="#F1E2E0"/>
<defs>
<linearGradient id="paint0_linear_83_278" x1="128" y1="1" x2="128" y2="255" gradientUnits="userSpaceOnUse">
<stop stop-color="#BB268E"/>
<stop offset="1" stop-color="#981C6F"/>
</linearGradient>
</defs>
</svg>
