<svg width="256" height="256" viewBox="0 0 256 256" fill="none" xmlns="http://www.w3.org/2000/svg">
<path d="M255 128.836C254.949 169.361 249.359 193.95 235.416 215.277C233.352 218.434 231.023 221.41 228.436 224.202L181.372 188.112H156.441V168.317C164.823 162.743 170.411 154.454 172.273 144.663H129.863V113.934H204.094V114.22H254.77C254.913 118.327 254.988 122.633 254.999 127.164C254.999 127.347 254.999 127.528 255 127.71V128.836Z" fill="url(#paint0_linear_83_270)"/>
<path d="M40.076 235.018C57.2862 246.329 77.8036 252.299 106.429 254.324C125.031 255.639 147.932 255.004 165.151 252.695C193.041 248.955 214.519 239.247 228.474 224.161L181.78 188.241C181.841 188.185 181.902 188.129 181.963 188.073L156.368 168.214C149.342 172.945 140.38 175.813 129.77 175.813C109.265 175.813 91.8438 161.976 85.6064 143.336H59.3665V163.424L12.3726 200.027C18.9449 215.335 28.3563 227.314 40.076 235.018Z" fill="url(#paint1_linear_83_270)"/>
<path d="M14.774 50.734L51.8947 79.5657H88V107.854C85.8002 114.428 84.5003 121.4 84.5003 128.672C84.5003 135.943 86.3002 142.926 88.5 149.5L79.9007 155.665L51.4032 177.778L51.4019 177.775L15.1372 205.942C9.98438 195.794 6.20491 183.932 3.9843 170.687C1.69292 157.021 0.962958 146.366 1.00143 127.164C1.07014 93.0812 4.72734 71.9612 13.9373 52.4684C14.2139 51.8828 14.4928 51.3048 14.774 50.734Z" fill="url(#paint2_linear_83_270)"/>
<path d="M224.597 27.6773L182.402 69.8684L182.536 69.9927L159.953 92.5762C151.708 84.8333 141.384 80.8185 129.77 80.8185C109.265 80.8185 91.8435 94.6554 85.6061 113.296L60.5848 93.8802L12.0526 56.6636C12.6531 55.2542 13.2811 53.8572 13.9373 52.4684C22.7756 33.762 33.8514 22.6792 52.4395 13.9416C72.1839 4.66056 93.5545 1 127.994 1C162.433 1 183.803 4.66056 203.548 13.9416C211.94 17.8865 218.786 22.2952 224.597 27.6773Z" fill="url(#paint3_linear_83_270)"/>
<path fill-rule="evenodd" clip-rule="evenodd" d="M254.77 114.22H218.5C219.215 118.833 219.591 122.829 219.586 128.372C219.544 178.452 187 219.991 129.862 219.991C81.5 219.991 38.2432 178.972 38.2432 128.372C38.2432 77.7727 79.2622 36.7536 129.862 36.7536C153.646 36.7536 175.313 45.8163 191.598 60.6768L224.597 27.6777C231.645 34.206 237.169 42.1664 242.078 52.4684C250.003 69.0992 253.837 87.3935 254.77 114.22ZM129.769 80.8181C141.383 80.8181 151.707 84.833 159.952 92.5759L182.535 69.9924C168.842 57.231 151.062 49.4164 129.769 49.4164C98.9406 49.4164 72.3423 67.1247 59.3657 92.9343C53.9887 103.545 50.9059 115.518 50.9059 128.279C50.9059 141.041 53.9887 153.013 59.3657 163.624L59.3658 163.696C72.3423 189.434 98.9406 207.142 129.769 207.142C151.062 207.142 168.913 200.116 181.962 188.072C196.874 174.306 205.477 154.089 205.477 130.072C205.477 124.479 204.975 119.102 204.043 113.941H129.867V144.482L172.5 144.5C170.636 154.322 164.888 162.908 156.5 168.5C149.474 173.232 140.379 175.812 129.769 175.812C109.264 175.812 91.8429 161.975 85.6056 143.335H85.5118L85.6055 143.263C84.0283 138.531 83.0963 133.513 83.0963 128.279C83.0963 123.046 84.0283 118.027 85.6056 113.295C91.8429 94.655 109.264 80.8181 129.769 80.8181Z" fill="white"/>
<defs>
<linearGradient id="paint0_linear_83_270" x1="192.431" y1="113.934" x2="192.431" y2="224.202" gradientUnits="userSpaceOnUse">
<stop stop-color="#4285F4"/>
<stop offset="1" stop-color="#3874D7"/>
</linearGradient>
<linearGradient id="paint1_linear_83_270" x1="120.423" y1="143.336" x2="120.423" y2="255" gradientUnits="userSpaceOnUse">
<stop stop-color="#45B763"/>
<stop offset="1" stop-color="#3C9D55"/>
</linearGradient>
<linearGradient id="paint2_linear_83_270" x1="44.75" y1="50.734" x2="44.75" y2="205.942" gradientUnits="userSpaceOnUse">
<stop stop-color="#FFC92C"/>
<stop offset="1" stop-color="#FBBC05"/>
</linearGradient>
<linearGradient id="paint3_linear_83_270" x1="118.325" y1="1" x2="118.325" y2="113.296" gradientUnits="userSpaceOnUse">
<stop stop-color="#EB594C"/>
<stop offset="1" stop-color="#EA4335"/>
</linearGradient>
</defs>
</svg>
