<svg width="256" height="256" viewBox="0 0 256 256" fill="none" xmlns="http://www.w3.org/2000/svg">
<mask id="mask0_83_273" style="mask-type:alpha" maskUnits="userSpaceOnUse" x="1" y="1" width="254" height="254">
<path d="M106.429 254.324C77.8036 252.299 57.2862 246.329 40.0761 235.018C21.6571 222.911 8.93954 200.243 3.9843 170.687C1.69292 157.021 0.962957 146.366 1.00143 127.164C1.07014 93.0812 4.72734 71.9613 13.9373 52.4684C22.7757 33.762 33.8514 22.6792 52.4395 13.9416C72.1839 4.66056 93.5545 1 127.994 1C162.433 1 183.803 4.66056 203.548 13.9416C222.119 22.6715 233.122 33.6726 242.078 52.4684C251.216 71.6451 254.915 93.0336 254.999 127.164C255.1 168.687 249.55 193.658 235.416 215.277C222.216 235.466 198.18 248.266 165.151 252.695C147.932 255.004 125.031 255.639 106.429 254.324Z" fill="white"/>
</mask>
<g mask="url(#mask0_83_273)">
<rect x="1.00012" y="1" width="254.001" height="254.001" fill="url(#paint0_linear_83_273)"/>
<rect x="196.156" y="1" width="58.8429" height="58.8429" fill="#AD2C20"/>
<path d="M255.001 255V60.2172H198.763L123.532 134.331L255.001 255Z" fill="#D2D2D2"/>
<path d="M236.378 255H132.842H19.9943L128 146.622L236.378 255Z" fill="url(#paint1_linear_83_273)"/>
<path d="M255 246.061V255H235.714L127.337 146.622L146.622 127.337L255 235.714V246.061Z" fill="white"/>
<path d="M145.24 91.2102L164.525 110.496L19.994 255.027H1V246.061V235.45L145.24 91.2102Z" fill="url(#paint2_linear_83_273)"/>
<path d="M99.3499 64.3968C99.3499 61.8088 99.1177 59.3203 98.6863 56.9314H64.3123V71.0659H83.9546C83.0919 75.6115 80.5039 79.4603 76.6219 82.0483V91.2391H88.467C95.3684 84.8686 99.3499 75.512 99.3499 64.3968Z" fill="white"/>
<path d="M64.3123 100.065C74.1667 100.065 82.4284 96.8132 88.467 91.2391L76.6219 82.0483C73.3703 84.2382 69.2229 85.5654 64.3123 85.5654C54.823 85.5654 46.7604 79.1617 43.8737 70.535H31.73V79.958C37.7355 91.8695 50.0451 100.065 64.3123 100.065Z" fill="white"/>
<path d="M43.8737 70.5018C43.1438 68.312 42.7124 65.9894 42.7124 63.5673C42.7124 61.1452 43.1438 58.8226 43.8737 56.6328V47.2098H31.73C29.2415 52.1204 27.8148 57.6614 27.8148 63.5673C27.8148 69.4733 29.2415 75.0143 31.73 79.9248L41.1862 72.559L43.8737 70.5018Z" fill="white"/>
<path d="M64.3123 41.6025C69.6874 41.6025 74.4653 43.4605 78.2809 47.0439L88.7325 36.5924C82.3952 30.6864 74.1667 27.0698 64.3123 27.0698C50.0451 27.0698 37.7355 35.2652 31.73 47.2098L43.8737 56.6328C46.7603 48.0061 54.823 41.6025 64.3123 41.6025Z" fill="white"/>
<g filter="url(#filter0_d_83_273)">
<rect x="165.601" y="33.5758" width="58.3318" height="58.3318" fill="#7E2622"/>
<path d="M168.346 128.505C173.66 135.151 179.072 143.479 181.904 148.527C185.353 155.089 186.783 159.519 189.349 167.399C190.849 171.745 192.279 173.063 195.28 173.063C198.561 173.063 200.061 170.848 201.21 167.399C203.608 159.954 205.459 154.289 208.389 148.877C214.152 138.516 221.414 129.29 228.509 120.429C230.458 117.948 242.866 103.324 248.447 91.7146C248.447 91.7146 255.275 79.0398 255.275 61.3175C255.275 44.7449 248.545 33.2338 248.545 33.2338L229.056 38.4635L217.18 69.6598L214.25 73.9081L213.633 74.7073L212.834 75.6888L211.502 77.2872L209.553 79.2361L199.009 87.8308L172.692 103.071L168.346 128.505Z" fill="#E1685E"/>
<path d="M141.145 89.5971C147.609 104.305 159.933 117.162 168.345 128.505L212.917 75.6886C212.917 75.6886 206.622 83.9328 195.279 83.9328C182.604 83.9328 172.327 73.8379 172.327 61.065C172.327 52.2881 177.557 46.2732 177.557 46.2732L147.342 54.3351L141.145 89.5971Z" fill="#EF8178"/>
<path d="M213.45 3.73401C228.242 8.515 240.916 18.5256 248.543 33.3313L212.917 75.7714C212.917 75.7714 218.147 69.6584 218.147 60.9797C218.147 47.9547 207.155 38.1123 195.279 38.1123C184.021 38.1123 177.557 46.2582 177.557 46.2582V19.5071L213.45 3.73401Z" fill="#CD362A"/>
<path d="M149.291 22.4373C158.151 11.8939 173.658 1 195.096 1C205.457 1 213.35 3.74802 213.35 3.74802L177.556 46.2862H152.207L149.291 22.4373Z" fill="#BA1A0C"/>
<path d="M141.145 89.5959C141.145 89.5959 135.299 77.987 135.299 61.2465C135.299 45.3893 141.496 31.5651 149.389 22.5219L177.564 46.2805L177.655 46.3567L141.145 89.5959Z" fill="#EA4335"/>
</g>
</g>
<defs>
<filter id="filter0_d_83_273" x="103.299" y="-27" width="183.976" height="236.063" filterUnits="userSpaceOnUse" color-interpolation-filters="sRGB">
<feFlood flood-opacity="0" result="BackgroundImageFix"/>
<feColorMatrix in="SourceAlpha" type="matrix" values="0 0 0 0 0 0 0 0 0 0 0 0 0 0 0 0 0 0 127 0" result="hardAlpha"/>
<feOffset dy="4"/>
<feGaussianBlur stdDeviation="16"/>
<feComposite in2="hardAlpha" operator="out"/>
<feColorMatrix type="matrix" values="0 0 0 0 0 0 0 0 0 0 0 0 0 0 0 0 0 0 0.25 0"/>
<feBlend mode="normal" in2="BackgroundImageFix" result="effect1_dropShadow_83_273"/>
<feBlend mode="normal" in="SourceGraphic" in2="effect1_dropShadow_83_273" result="shape"/>
</filter>
<linearGradient id="paint0_linear_83_273" x1="23.7187" y1="13.2904" x2="193.177" y2="240.476" gradientUnits="userSpaceOnUse">
<stop stop-color="#21C474"/>
<stop offset="1" stop-color="#157848"/>
</linearGradient>
<linearGradient id="paint1_linear_83_273" x1="128.186" y1="146.622" x2="196.528" y2="268.036" gradientUnits="userSpaceOnUse">
<stop stop-color="#4285F4"/>
<stop offset="1" stop-color="#2D5BA8"/>
</linearGradient>
<linearGradient id="paint2_linear_83_273" x1="109.005" y1="139.173" x2="148.855" y2="185.354" gradientUnits="userSpaceOnUse">
<stop stop-color="#FED14C"/>
<stop offset="1" stop-color="#FBBC04"/>
</linearGradient>
</defs>
</svg>
