<svg width="256" height="256" viewBox="0 0 256 256" fill="none" xmlns="http://www.w3.org/2000/svg">
<path d="M106.429 254.324C77.8036 252.299 57.2862 246.329 40.0761 235.018C21.6571 222.911 8.93954 200.243 3.9843 170.687C1.69292 157.021 0.962957 146.366 1.00143 127.164C1.07014 93.0812 4.72734 71.9613 13.9373 52.4684C22.7757 33.762 33.8514 22.6792 52.4395 13.9416C72.1839 4.66056 93.5545 1 127.994 1C162.433 1 183.803 4.66056 203.548 13.9416C222.119 22.6715 233.122 33.6726 242.078 52.4684C251.216 71.6451 254.915 93.0336 254.999 127.164C255.1 168.687 249.55 193.658 235.416 215.277C222.216 235.466 198.18 248.266 165.151 252.695C147.932 255.004 125.031 255.639 106.429 254.324Z" fill="white"/>
<path d="M20.8227 215.627L142.992 93.458C147.216 101.642 153.058 109.237 158.718 116.303L40.0322 234.989C32.6742 230.143 26.2271 223.611 20.8227 215.627Z" fill="url(#paint0_linear_83_273)"/>
<path d="M40.076 235.018C57.2862 246.329 77.8036 252.299 106.429 254.324C125.031 255.639 147.932 255.004 165.151 252.695C185.622 249.95 202.639 243.989 215.761 235.047L127.868 147.153L40.0322 234.989C40.0468 234.998 40.0614 235.008 40.076 235.018Z" fill="url(#paint1_linear_83_273)"/>
<circle cx="195" cy="61" r="24" fill="#7E2622"/>
<path d="M233.201 37.3512C236.452 41.775 239.359 46.7625 242.078 52.4684C246.542 61.8371 249.708 71.7337 251.789 83.386C250.106 88.6337 248.447 91.7146 248.447 91.7146C243.525 101.953 233.292 114.537 229.608 119.068C229.115 119.674 228.739 120.136 228.509 120.429C221.414 129.29 214.152 138.516 208.389 148.877C205.459 154.29 203.608 159.954 201.21 167.399C200.061 170.848 198.561 173.063 195.28 173.063C192.279 173.063 190.849 171.745 189.349 167.399L189.277 167.177C186.756 159.435 185.32 155.027 181.904 148.527C179.072 143.479 173.66 135.151 168.346 128.505L172.692 103.071L199.009 87.8308L209.553 79.2361L211.502 77.2872L212.834 75.6888L213.633 74.7074L214.25 73.9082L217.18 69.6599L229.056 38.4635L233.201 37.3512Z" fill="#E1685E"/>
<path d="M141.145 89.5971C147.609 104.305 159.933 117.162 168.345 128.505L212.917 75.6886C212.917 75.6886 206.622 83.9328 195.279 83.9328C182.604 83.9328 172.327 73.8379 172.327 61.065C172.327 52.2881 177.557 46.2732 177.557 46.2732L147.342 54.3351L141.145 89.5971Z" fill="#EF8178"/>
<path d="M196.84 11.0334C199.107 11.9343 201.337 12.9028 203.548 13.9417C219.664 21.5173 230.08 30.8031 238.405 45.4086L212.941 75.7432C213.321 75.2862 218.147 69.3168 218.147 60.9798C218.147 47.9548 207.155 38.1124 195.279 38.1124C184.021 38.1124 177.557 46.2583 177.557 46.2583V19.5072L196.84 11.0334Z" fill="#CD362A"/>
<path d="M174.594 4.59558C185.293 6.67558 194.588 9.72989 203.548 13.9417C203.841 14.0797 204.133 14.2183 204.423 14.3574L177.556 46.2862H152.207L149.291 22.4374C155.015 15.6257 163.514 8.66767 174.594 4.59558Z" fill="#BA1A0C"/>
<path d="M141.145 89.5959C141.145 89.5959 135.299 77.987 135.299 61.2465C135.299 45.3893 141.496 31.5651 149.389 22.5219L177.564 46.2805L177.655 46.3567L141.145 89.5959Z" fill="#EA4335"/>
<path d="M251.789 83.3861C253.968 95.5849 254.956 109.708 254.999 127.164C255.1 168.688 249.55 193.659 235.416 215.277C235.303 215.449 235.19 215.62 235.076 215.791L147.153 127.868L158.717 116.304C159.457 117.227 160.194 118.142 160.923 119.047L160.925 119.05C163.554 122.315 166.091 125.465 168.346 128.505C173.66 135.151 179.072 143.48 181.904 148.527C185.32 155.027 186.756 159.436 189.277 167.177L189.349 167.399C190.849 171.746 192.279 173.063 195.28 173.063C198.561 173.063 200.061 170.848 201.21 167.399C203.608 159.954 205.459 154.29 208.389 148.878C214.152 138.516 221.414 129.29 228.509 120.429C228.739 120.136 229.115 119.674 229.608 119.068C233.292 114.537 243.525 101.953 248.447 91.7147C248.447 91.7147 250.106 88.6338 251.789 83.3861Z" fill="url(#paint2_linear_83_273)"/>
<path d="M1 128.573C1 128.108 1.00048 127.639 1.00143 127.164C1.07014 93.0812 4.72734 71.9613 13.9373 52.4684C22.7757 33.762 33.8514 22.6792 52.4395 13.9416C72.1839 4.66056 93.5545 1 127.994 1C146.804 1 161.716 2.09206 174.594 4.59556C163.514 8.66765 155.015 15.6257 149.291 22.4373L149.312 22.6109C141.455 31.6557 135.299 45.4413 135.299 61.2465C135.299 77.987 141.145 89.5959 141.145 89.5959L141.145 89.5972C141.717 90.8985 142.335 92.1853 142.992 93.4579L20.8226 215.627C12.7159 203.651 6.9551 188.407 3.9843 170.687C1.74956 157.358 1 146.895 1 128.573Z" fill="url(#paint3_linear_83_273)"/>
<path d="M99.3499 64.3968C99.3499 61.8088 99.1177 59.3203 98.6863 56.9314H64.3123V71.0659H83.9546C83.0919 75.6115 80.5039 79.4603 76.6219 82.0483V91.2391H88.467C95.3684 84.8686 99.3499 75.512 99.3499 64.3968Z" fill="white"/>
<path d="M64.3123 100.065C74.1667 100.065 82.4284 96.8132 88.467 91.2391L76.6219 82.0483C73.3703 84.2382 69.2229 85.5654 64.3123 85.5654C54.823 85.5654 46.7604 79.1617 43.8737 70.535H31.73V79.958C37.7355 91.8695 50.0451 100.065 64.3123 100.065Z" fill="white"/>
<path d="M43.8737 70.5018C43.1438 68.312 42.7124 65.9894 42.7124 63.5673C42.7124 61.1452 43.1438 58.8226 43.8737 56.6328V47.2098H31.73C29.2415 52.1204 27.8148 57.6614 27.8148 63.5673C27.8148 69.4733 29.2415 75.0143 31.73 79.9248L41.1862 72.559L43.8737 70.5018Z" fill="white"/>
<path d="M64.3123 41.6025C69.6874 41.6025 74.4653 43.4605 78.2809 47.0439L88.7325 36.5924C82.3952 30.6864 74.1667 27.0698 64.3123 27.0698C50.0451 27.0698 37.7355 35.2652 31.73 47.2098L43.8737 56.6328C46.7603 48.0061 54.823 41.6025 64.3123 41.6025Z" fill="white"/>
<defs>
<linearGradient id="paint0_linear_83_273" x1="89.7701" y1="93.458" x2="89.7701" y2="234.989" gradientUnits="userSpaceOnUse">
<stop stop-color="#FFD048"/>
<stop offset="1" stop-color="#FDC218"/>
</linearGradient>
<linearGradient id="paint1_linear_83_273" x1="127.897" y1="147.153" x2="127.897" y2="255" gradientUnits="userSpaceOnUse">
<stop stop-color="#5E94EE"/>
<stop offset="1" stop-color="#4082EF"/>
</linearGradient>
<linearGradient id="paint2_linear_83_273" x1="201.077" y1="83.3861" x2="201.077" y2="215.791" gradientUnits="userSpaceOnUse">
<stop stop-color="#D6D6D6"/>
<stop offset="1" stop-color="#A8A8A8"/>
</linearGradient>
<linearGradient id="paint3_linear_83_273" x1="87.7968" y1="1" x2="87.7968" y2="215.627" gradientUnits="userSpaceOnUse">
<stop stop-color="#49C76A"/>
<stop offset="1" stop-color="#3C9E56"/>
</linearGradient>
</defs>
</svg>
