<svg width="256" height="256" viewBox="0 0 256 256" fill="none" xmlns="http://www.w3.org/2000/svg">
<path d="M106.429 254.324C77.8036 252.299 57.2862 246.329 40.0761 235.018C21.6571 222.911 8.93954 200.243 3.9843 170.687C1.69292 157.021 0.962957 146.366 1.00143 127.164C1.07014 93.0812 4.72734 71.9613 13.9373 52.4684C22.7757 33.762 33.8514 22.6792 52.4395 13.9416C72.1839 4.66056 93.5545 1 127.994 1C162.433 1 183.803 4.66056 203.548 13.9416C222.119 22.6715 233.122 33.6726 242.078 52.4684C251.216 71.6451 254.915 93.0336 254.999 127.164C255.1 168.687 249.55 193.658 235.416 215.277C222.216 235.466 198.18 248.266 165.151 252.695C147.932 255.004 125.031 255.639 106.429 254.324Z" fill="url(#paint0_linear_83_264)"/>
<path d="M205.247 87.5677L174.493 118.322V137.761L205.247 168.499C208.112 171.542 213.34 169.438 213.34 165.262V90.805C213.34 86.726 208.177 84.6866 205.247 87.5677Z" fill="#F1F3F4"/>
<path d="M150.212 73H69.2797C55.6993 73.0162 44.9838 83.9097 45 97.2797V158.788C45.0162 172.158 55.6993 183.084 69.2797 183.068H150.212C163.792 183.052 174.508 172.158 174.492 158.788V97.2797C174.475 83.9097 163.792 72.9838 150.212 73Z" fill="url(#paint1_radial_83_264)"/>
<path d="M174.493 139.688L174.509 137.746L180.967 144.22V111.848L174.493 118.322V139.688Z" fill="#DDE0E4"/>
<defs>
<linearGradient id="paint0_linear_83_264" x1="128" y1="1" x2="128" y2="255" gradientUnits="userSpaceOnUse">
<stop stop-color="#3E87E8"/>
<stop offset="1" stop-color="#1E76EA"/>
</linearGradient>
<radialGradient id="paint1_radial_83_264" cx="0" cy="0" r="1" gradientUnits="userSpaceOnUse" gradientTransform="translate(78.8913 79.3313) rotate(50.0517) scale(191.408 225.186)">
<stop stop-color="white"/>
<stop offset="1" stop-color="#E6E6E6"/>
</radialGradient>
</defs>
</svg>
