<svg width="256" height="256" viewBox="0 0 256 256" fill="none" xmlns="http://www.w3.org/2000/svg">
<path d="M106.429 254.324C77.8036 252.299 57.2862 246.329 40.0761 235.018C21.6571 222.911 8.93954 200.243 3.9843 170.687C1.69292 157.021 0.962957 146.366 1.00143 127.164C1.07014 93.0812 4.72734 71.9613 13.9373 52.4684C22.7757 33.762 33.8514 22.6792 52.4395 13.9416C72.1839 4.66056 93.5545 1 127.994 1C162.433 1 183.803 4.66056 203.548 13.9416C222.119 22.6715 233.122 33.6726 242.078 52.4684C251.216 71.6451 254.915 93.0336 254.999 127.164C255.1 168.687 249.55 193.658 235.416 215.277C222.216 235.466 198.18 248.266 165.151 252.695C147.932 255.004 125.031 255.639 106.429 254.324Z" fill="url(#paint0_linear_94_488)"/>
<path d="M102.715 57.4034L128.62 102.273L128.612 102.259L155.818 149.44L209.505 149.44C209.271 148.628 208.946 147.839 208.515 147.086C202.553 136.642 193.611 120.789 184.724 105.036L184.722 105.031C176.046 89.651 167.424 74.3663 161.681 64.3006C160.562 62.3411 157.4 59.8229 154.518 57.9277C151.844 56.3657 148.056 55.4406 144.388 55.3243C134.183 54.9842 117.639 54.8471 108.735 55.2341C107.046 55.3075 104.057 56.6986 102.715 57.4034Z" fill="white"/>
<path d="M209.981 154H158.448L158.469 154.037H104.135L77.4029 200.338C79.1526 200.89 80.8056 201.204 82.0711 201.204C93.7679 201.204 111.531 201.118 129.353 201.032L129.367 201.032C147.306 200.945 165.303 200.857 177.231 200.857C179.677 200.857 181.966 200.024 184.018 198.719L184.027 198.712C187.339 196.609 190.038 193.276 191.79 190.208C195.747 183.288 202.437 171.766 207.051 163.965C209.194 160.34 210.028 157.085 209.978 154.041H209.979C209.98 154.027 209.98 154.014 209.981 154Z" fill="white"/>
<path d="M73.0915 198.58L73.1154 198.557C72.347 198.077 68.6073 195.74 67.5713 194.113C62.7867 186.598 54.6414 172.21 49.8272 163.21C48.0995 159.975 46.9968 157.14 47.0224 154.041H47.0153C46.8961 151.612 47.4739 149.199 48.6809 147.087C54.5953 136.721 63.4458 121.03 72.2646 105.394L72.2651 105.393C81.0087 89.8913 89.7211 74.4447 95.5099 64.299C96.2046 63.0829 97.4188 61.6304 98.9296 60.2505L125.902 106.967L98.8082 154.037L73.0915 198.58Z" fill="white"/>
<defs>
<linearGradient id="paint0_linear_94_488" x1="128" y1="1" x2="128" y2="255" gradientUnits="userSpaceOnUse">
<stop stop-color="#FF5241"/>
<stop offset="1" stop-color="#D34436"/>
</linearGradient>
</defs>
</svg>
