<svg width="341" height="341" viewBox="0 0 341 341" fill="none" xmlns="http://www.w3.org/2000/svg">
<g clip-path="url(#clip0_72_372)">
<rect width="341" height="341" fill="url(#paint0_linear_72_372)"/>
<rect x="262" width="79" height="79" fill="#AD2C20"/>
<path d="M341 341V79.5H265.5L164.5 179L341 341Z" fill="#D2D2D2"/>
<path d="M316 341H177H25.5L170.5 195.5L316 341Z" fill="url(#paint1_linear_72_372)"/>
<path d="M341 329V341H315.109L169.609 195.5L195.5 169.609L341 315.109V329Z" fill="white"/>
<path d="M193.646 121.109L219.537 147L25.5 341.037H0V329V314.754L193.646 121.109Z" fill="url(#paint2_linear_72_372)"/>
<path d="M132.04 85.1136C132.04 81.6391 131.728 78.2982 131.149 75.0909H85V94.0673H111.371C110.213 100.17 106.738 105.337 101.526 108.812V121.151H117.429C126.695 112.598 132.04 100.036 132.04 85.1136Z" fill="white"/>
<path d="M85 133C98.23 133 109.322 128.635 117.429 121.151L101.526 108.812C97.1609 111.752 91.5927 113.534 85 113.534C72.26 113.534 61.4355 104.936 57.56 93.3546H41.2564V106.005C49.3191 121.997 65.8455 133 85 133Z" fill="white"/>
<path d="M57.56 93.31C56.58 90.37 56.0009 87.2518 56.0009 84C56.0009 80.7482 56.58 77.63 57.56 74.69V62.0391H41.2564C37.9155 68.6318 36 76.0709 36 84C36 91.9291 37.9155 99.3682 41.2564 105.961L53.9518 96.0718L57.56 93.31Z" fill="white"/>
<path d="M85 54.5109C92.2164 54.5109 98.6309 57.0055 103.754 61.8164L117.785 47.7845C109.277 39.8555 98.23 35 85 35C65.8455 35 49.3191 46.0027 41.2564 62.0391L57.56 74.69C61.4355 63.1082 72.26 54.5109 85 54.5109Z" fill="white"/>
<g filter="url(#filter0_d_72_372)">
<rect x="220.98" y="43.7336" width="78.3138" height="78.3138" fill="#7E2622"/>
<path d="M224.664 171.179C231.798 180.102 239.064 191.283 242.867 198.059C247.497 206.868 249.417 212.817 252.862 223.395C254.876 229.23 256.796 231 260.824 231C265.229 231 267.243 228.026 268.786 223.395C272.005 213.4 274.49 205.795 278.424 198.53C286.16 184.619 295.911 172.233 305.435 160.337C308.052 157.005 324.71 137.373 332.202 121.787C332.202 121.787 341.369 104.771 341.369 80.9779C341.369 58.7287 332.334 43.2748 332.334 43.2748L306.169 50.2959L290.226 92.1778L286.292 97.8813L285.464 98.9542L284.391 100.272L282.603 102.418L279.986 105.034L265.831 116.573L230.5 137.034L224.664 171.179Z" fill="#E1685E"/>
<path d="M188.147 118.945C196.825 138.69 213.37 155.951 224.664 171.179L284.504 100.272C284.504 100.272 276.052 111.34 260.824 111.34C243.808 111.34 230.01 97.7872 230.01 80.6391C230.01 68.8557 237.031 60.7805 237.031 60.7805L196.467 71.6039L188.147 118.945Z" fill="#EF8178"/>
<path d="M285.219 3.67041C305.078 10.0892 322.094 23.529 332.334 43.4065L284.504 100.385C284.504 100.385 291.525 92.1777 291.525 80.5261C291.525 63.0392 276.767 49.8252 260.824 49.8252C245.709 49.8252 237.031 60.7616 237.031 60.7616V24.8467L285.219 3.67041Z" fill="#CD362A"/>
<path d="M199.084 28.7809C210.98 14.6257 231.799 0 260.579 0C274.49 0 285.087 3.68937 285.087 3.68937L237.031 60.7994H202.999L199.084 28.7809Z" fill="#BA1A0C"/>
<path d="M188.147 118.945C188.147 118.945 180.298 103.359 180.298 80.8838C180.298 59.5947 188.618 41.0348 199.215 28.8938L237.042 60.7912L237.163 60.8935L188.147 118.945Z" fill="#EA4335"/>
</g>
</g>
<defs>
<filter id="filter0_d_72_372" x="148.298" y="-28" width="225.071" height="295" filterUnits="userSpaceOnUse" color-interpolation-filters="sRGB">
<feFlood flood-opacity="0" result="BackgroundImageFix"/>
<feColorMatrix in="SourceAlpha" type="matrix" values="0 0 0 0 0 0 0 0 0 0 0 0 0 0 0 0 0 0 127 0" result="hardAlpha"/>
<feOffset dy="4"/>
<feGaussianBlur stdDeviation="16"/>
<feComposite in2="hardAlpha" operator="out"/>
<feColorMatrix type="matrix" values="0 0 0 0 0 0 0 0 0 0 0 0 0 0 0 0 0 0 0.25 0"/>
<feBlend mode="normal" in2="BackgroundImageFix" result="effect1_dropShadow_72_372"/>
<feBlend mode="normal" in="SourceGraphic" in2="effect1_dropShadow_72_372" result="shape"/>
</filter>
<linearGradient id="paint0_linear_72_372" x1="30.5" y1="16.5" x2="258" y2="321.5" gradientUnits="userSpaceOnUse">
<stop stop-color="#21C474"/>
<stop offset="1" stop-color="#157848"/>
</linearGradient>
<linearGradient id="paint1_linear_72_372" x1="170.75" y1="195.5" x2="262.5" y2="358.5" gradientUnits="userSpaceOnUse">
<stop stop-color="#4285F4"/>
<stop offset="1" stop-color="#2D5BA8"/>
</linearGradient>
<linearGradient id="paint2_linear_72_372" x1="145" y1="185.5" x2="198.5" y2="247.5" gradientUnits="userSpaceOnUse">
<stop stop-color="#FED14C"/>
<stop offset="1" stop-color="#FBBC04"/>
</linearGradient>
<clipPath id="clip0_72_372">
<rect width="341" height="341" fill="white"/>
</clipPath>
</defs>
</svg>
