<svg width="192" height="192" viewBox="0 0 192 192" fill="none" xmlns="http://www.w3.org/2000/svg">
<path d="M79.8641 190.494C58.4515 188.98 43.1039 184.514 30.2301 176.052C16.4521 166.996 6.93903 150.04 3.23235 127.931C1.51833 117.708 0.97229 109.739 1.00107 95.3749C1.05247 69.8796 3.78817 54.0812 10.6775 39.5C17.2889 25.507 25.5739 17.2167 39.4783 10.6808C54.2478 3.73821 70.2337 1 95.9953 1C121.757 1 137.743 3.73821 152.512 10.6808C166.404 17.211 174.634 25.4402 181.334 39.5C188.169 53.8448 190.937 69.844 190.999 95.3749C191.075 126.436 186.923 145.115 176.35 161.286C166.477 176.388 148.497 185.963 123.79 189.276C110.91 191.003 93.7794 191.478 79.8641 190.494Z" fill="url(#paint0_linear_118_701)"/>
<path fill-rule="evenodd" clip-rule="evenodd" d="M96.0002 43.551C67.0335 43.551 43.5513 67.0332 43.5513 96C43.5513 124.967 67.0335 148.449 96.0002 148.449C124.967 148.449 148.449 124.967 148.449 96C148.449 67.0332 124.967 43.551 96.0002 43.551ZM34.6616 96C34.6616 62.1236 62.1238 34.6614 96.0002 34.6614C129.877 34.6614 157.339 62.1236 157.339 96C157.339 129.876 129.877 157.339 96.0002 157.339C62.1238 157.339 34.6616 129.876 34.6616 96Z" fill="white"/>
<path d="M117.042 91.6834C120.344 93.6138 120.344 98.386 117.042 100.316L83.3267 120.027C79.9934 121.975 75.8032 119.571 75.8032 115.71V76.2895C75.8032 72.4285 79.9934 70.0244 83.3267 71.9731L117.042 91.6834Z" fill="white"/>
<defs>
<linearGradient id="paint0_linear_118_701" x1="96" y1="1" x2="96" y2="191" gradientUnits="userSpaceOnUse">
<stop stop-color="#D00000"/>
<stop offset="1" stop-color="#FF0000"/>
</linearGradient>
</defs>
</svg>
