<svg width="256" height="256" viewBox="0 0 256 256" fill="none" xmlns="http://www.w3.org/2000/svg">
<path d="M127.898 185.795C159.874 185.795 185.795 159.874 185.795 127.898C185.795 95.9217 159.874 70 127.898 70C95.9217 70 70 95.9217 70 127.898C70 159.874 95.9217 185.795 127.898 185.795Z" fill="#F1F1F1"/>
<path d="M127.898 174.131C153.431 174.131 174.13 153.432 174.13 127.898C174.13 102.364 153.431 81.6653 127.898 81.6653C102.364 81.6653 81.6648 102.364 81.6648 127.898C81.6648 153.432 102.364 174.131 127.898 174.131Z" fill="url(#paint0_linear_94_220)"/>
<path d="M175.834 160.377C182.122 151.115 185.795 139.935 185.795 127.898C185.795 95.9217 159.874 70 127.898 70H248.71C253.06 85.1479 254.94 102.949 254.999 127.164C255.1 168.687 249.55 193.658 235.416 215.277C222.216 235.466 198.18 248.266 165.152 252.695C152.436 254.4 136.624 255.192 121.731 254.96L175.834 160.377Z" fill="url(#paint1_linear_94_220)"/>
<path d="M127.501 70.0013C127.633 70.0005 127.765 70 127.898 70H127.5L127.501 70.0013Z" fill="url(#paint2_linear_94_220)"/>
<path d="M40.0761 235.018C57.2862 246.329 77.8036 252.299 106.429 254.324C111.295 254.668 116.455 254.878 121.731 254.96L175.834 160.377C165.42 175.717 147.836 185.795 127.898 185.795C102.827 185.795 81.4776 169.86 73.4263 147.566L13.1203 54.2341C4.51033 73.245 1.06807 94.1075 1.00143 127.164C0.962957 146.366 1.69292 157.021 3.9843 170.687C8.93954 200.243 21.6571 222.911 40.0761 235.018Z" fill="url(#paint3_linear_94_220)"/>
<path d="M248.71 70C246.928 63.7973 244.733 58.0395 242.078 52.4684C233.122 33.6726 222.119 22.6715 203.548 13.9416C183.803 4.66056 162.433 1 127.994 1C93.5546 1 72.184 4.66056 52.4395 13.9416C33.8514 22.6792 22.7757 33.762 13.9373 52.4684C13.66 53.0554 13.3877 53.6439 13.1204 54.2341L73.4264 147.566C71.2088 141.425 70.0001 134.803 70.0001 127.898C70.0001 96.1804 95.5039 70.4199 127.123 70.0051L127.126 70H248.71Z" fill="url(#paint4_linear_94_220)"/>
<defs>
<linearGradient id="paint0_linear_94_220" x1="127.898" y1="70" x2="127.898" y2="185.795" gradientUnits="userSpaceOnUse">
<stop stop-color="#5A94F3"/>
<stop offset="1" stop-color="#4285F4"/>
</linearGradient>
<linearGradient id="paint1_linear_94_220" x1="188.366" y1="70" x2="188.366" y2="255" gradientUnits="userSpaceOnUse">
<stop stop-color="#FEC420"/>
<stop offset="1" stop-color="#FFBD02"/>
</linearGradient>
<linearGradient id="paint2_linear_94_220" x1="188.366" y1="70" x2="188.366" y2="255" gradientUnits="userSpaceOnUse">
<stop stop-color="#FEC420"/>
<stop offset="1" stop-color="#FFBD02"/>
</linearGradient>
<linearGradient id="paint3_linear_94_220" x1="88.4171" y1="54.2341" x2="88.4171" y2="254.96" gradientUnits="userSpaceOnUse">
<stop stop-color="#01C64E"/>
<stop offset="1" stop-color="#00A340"/>
</linearGradient>
<linearGradient id="paint4_linear_94_220" x1="130.915" y1="1" x2="130.915" y2="147.566" gradientUnits="userSpaceOnUse">
<stop stop-color="#F93D40"/>
<stop offset="1" stop-color="#F4191C"/>
</linearGradient>
</defs>
</svg>
