<svg width="256" height="256" viewBox="0 0 256 256" fill="none" xmlns="http://www.w3.org/2000/svg">
<path d="M106.429 254.324C77.8036 252.299 57.2862 246.329 40.0761 235.018C21.6571 222.911 8.93954 200.243 3.9843 170.687C1.69292 157.021 0.962957 146.366 1.00143 127.164C1.07014 93.0812 4.72734 71.9613 13.9373 52.4684C22.7757 33.762 33.8514 22.6792 52.4395 13.9416C72.1839 4.66056 93.5545 1 127.994 1C162.433 1 183.803 4.66056 203.548 13.9416C222.119 22.6715 233.122 33.6726 242.078 52.4684C251.216 71.6451 254.915 93.0336 254.999 127.164C255.1 168.687 249.55 193.658 235.416 215.277C222.216 235.466 198.18 248.266 165.151 252.695C147.932 255.004 125.031 255.639 106.429 254.324Z" fill="url(#paint0_linear_83_268)"/>
<path fill-rule="evenodd" clip-rule="evenodd" d="M112.32 147.991V103.802C128.007 111.184 140.156 118.314 154.526 126.002C142.674 132.575 128.007 139.95 112.32 147.991ZM199.744 81.8249C197.038 78.2598 192.426 75.4846 187.516 74.5658C173.084 71.8252 83.0474 71.8174 68.6231 74.5658C64.6856 75.304 61.1794 77.0882 58.1675 79.8602C45.4766 91.6393 49.4533 154.807 52.5123 165.039C53.7986 169.468 55.4616 172.662 57.5558 174.759C60.254 177.531 63.9483 179.44 68.1916 180.296C80.0747 182.754 141.294 184.128 187.265 180.665C191.501 179.927 195.25 177.956 198.207 175.067C209.941 163.335 209.141 96.6195 199.744 81.8249Z" fill="#FEFEFE"/>
<defs>
<linearGradient id="paint0_linear_83_268" x1="128" y1="1" x2="128" y2="255" gradientUnits="userSpaceOnUse">
<stop stop-color="#FF0000"/>
<stop offset="1" stop-color="#D00000"/>
</linearGradient>
</defs>
</svg>
