<svg width="256" height="256" viewBox="0 0 256 256" fill="none" xmlns="http://www.w3.org/2000/svg">
<path d="M128 1V128H1.00024C1.00048 127.723 1.00087 127.445 1.00144 127.164C1.07014 93.0812 4.72734 71.9613 13.9373 52.4684C22.7757 33.762 33.8514 22.6792 52.4395 13.9416C72.1839 4.66056 93.5545 1 127.994 1C127.996 1 127.998 1 128 1Z" fill="url(#paint0_linear_95_525)"/>
<path d="M128 1C162.435 1.00044 183.804 4.66112 203.548 13.9416C222.119 22.6715 233.122 33.6726 242.078 52.4684C251.216 71.6451 254.915 93.0336 254.999 127.164C254.999 127.444 255 127.722 255 128H128V1Z" fill="url(#paint1_linear_95_525)"/>
<path d="M255 128.372C254.991 169.173 249.413 193.869 235.416 215.277C222.216 235.466 198.18 248.266 165.151 252.695C154.208 254.162 140.971 254.954 128 254.998V128H255C255 128.059 255 128.118 255 128.178C255 128.242 255 128.307 255 128.372Z" fill="url(#paint2_linear_95_525)"/>
<path d="M40.0761 235.018C57.2862 246.329 77.8036 252.299 106.429 254.324C113.209 254.803 120.561 255.023 128 254.998V128H1.00024C1.00008 128.192 1 128.383 1 128.573C1 146.895 1.74956 157.358 3.9843 170.687C8.93954 200.243 21.6571 222.911 40.0761 235.018Z" fill="url(#paint3_linear_95_525)"/>
<path d="M128 123.73V40.27C128 37.9768 129.808 36.1059 132.076 36.0044V36L132.224 36.0003L132.27 36C144.4 36.0511 156.022 40.8922 164.603 49.473C173.23 58.0997 178.076 69.8 178.076 82C178.076 94.1999 173.23 105.9 164.603 114.527C156.022 123.108 144.4 127.949 132.27 128H215.73C218.023 128 219.894 129.808 219.996 132.076H220L220 132.224L220 132.27C219.949 144.4 215.108 156.022 206.527 164.603C197.9 173.229 186.2 178.076 174 178.076C161.8 178.076 150.1 173.229 141.473 164.603C132.892 156.022 128.051 144.4 128 132.27V215.73C128 218.023 126.192 219.894 123.924 219.996V220L123.776 220L123.73 220C111.6 219.949 99.978 215.108 91.3971 206.527C82.7704 197.9 77.924 186.2 77.924 174C77.924 161.8 82.7704 150.1 91.3971 141.473C99.978 132.892 111.6 128.051 123.73 128C123.795 128 123.859 128 123.924 128L128 128H40.27C37.9768 128 36.1059 126.192 36.0044 123.924H36L36.0003 123.776L36 123.73C36.0511 111.6 40.8922 99.978 49.4731 91.3971C58.0998 82.7704 69.8 77.924 82 77.924C94.2 77.924 105.9 82.7704 114.527 91.3971C123.108 99.978 127.949 111.6 128 123.73Z" fill="white"/>
<defs>
<linearGradient id="paint0_linear_95_525" x1="64.5001" y1="1" x2="64.5001" y2="128" gradientUnits="userSpaceOnUse">
<stop stop-color="#F5C122"/>
<stop offset="1" stop-color="#F5B901"/>
</linearGradient>
<linearGradient id="paint1_linear_95_525" x1="191.5" y1="1" x2="191.5" y2="128" gradientUnits="userSpaceOnUse">
<stop stop-color="#E74135"/>
<stop offset="1" stop-color="#DF2416"/>
</linearGradient>
<linearGradient id="paint2_linear_95_525" x1="191.5" y1="128" x2="191.5" y2="254.998" gradientUnits="userSpaceOnUse">
<stop stop-color="#4282F0"/>
<stop offset="1" stop-color="#3B73D2"/>
</linearGradient>
<linearGradient id="paint3_linear_95_525" x1="64.5" y1="128" x2="64.5" y2="255" gradientUnits="userSpaceOnUse">
<stop stop-color="#38C25F"/>
<stop offset="1" stop-color="#31A552"/>
</linearGradient>
</defs>
</svg>
