<svg width="256" height="256" viewBox="0 0 256 256" fill="none" xmlns="http://www.w3.org/2000/svg">
<mask id="mask0_83_278" style="mask-type:alpha" maskUnits="userSpaceOnUse" x="1" y="1" width="254" height="254">
<path d="M106.429 254.324C77.8036 252.299 57.2862 246.329 40.0761 235.018C21.6571 222.911 8.93954 200.243 3.9843 170.687C1.69292 157.021 0.962957 146.366 1.00143 127.164C1.07014 93.0812 4.72734 71.9613 13.9373 52.4684C22.7757 33.762 33.8514 22.6792 52.4395 13.9416C72.1839 4.66056 93.5545 1 127.994 1C162.433 1 183.803 4.66056 203.548 13.9416C222.119 22.6715 233.122 33.6726 242.078 52.4684C251.216 71.6451 254.915 93.0336 254.999 127.164C255.1 168.687 249.55 193.658 235.416 215.277C222.216 235.466 198.18 248.266 165.151 252.695C147.932 255.004 125.031 255.639 106.429 254.324Z" fill="white"/>
</mask>
<g mask="url(#mask0_83_278)">
<rect x="1.00012" y="0.9375" width="254.001" height="254.001" fill="url(#paint0_linear_83_278)"/>
<g filter="url(#filter0_d_83_278)">
<path d="M1 0.938065C1 -23.4567 27.408 -21.3579 48.5345 -9.16053L239.156 100.895C260.282 113.092 260.282 143.586 239.156 155.783L48.5345 265.838C27.4081 278.036 1 279.334 1 254.939L1 0.938065Z" fill="#188038"/>
</g>
<path fill-rule="evenodd" clip-rule="evenodd" d="M1.00024 187.863V69.4049H94.7061C97.2893 69.4049 99.8751 69.7998 102.295 70.7031C126.669 79.8015 134.419 93.6374 138.034 110.903L155.411 204.131L107.257 231.933L62.9694 187.863H1.00024ZM77.004 99.5852C77.004 107.919 70.2479 114.675 61.9138 114.675C53.5797 114.675 46.8236 107.919 46.8236 99.5852C46.8236 91.2512 53.5797 84.4951 61.9138 84.4951C70.2479 84.4951 77.004 91.2512 77.004 99.5852ZM61.9138 172.018C70.2479 172.018 77.004 165.262 77.004 156.928C77.004 148.594 70.2479 141.838 61.9138 141.838C53.5797 141.838 46.8236 148.594 46.8236 156.928C46.8236 165.262 53.5797 172.018 61.9138 172.018ZM105.675 128.257C105.675 136.591 98.9192 143.347 90.5851 143.347C82.2511 143.347 75.495 136.591 75.495 128.257C75.495 119.922 82.2511 113.166 90.5851 113.166C98.9192 113.166 105.675 119.922 105.675 128.257ZM33.2425 143.347C41.5766 143.347 48.3327 136.591 48.3327 128.257C48.3327 119.922 41.5766 113.166 33.2425 113.166C24.9084 113.166 18.1523 119.922 18.1523 128.257C18.1523 136.591 24.9084 143.347 33.2425 143.347Z" fill="#92FFD7"/>
</g>
<defs>
<filter id="filter0_d_83_278" x="-47" y="-66" width="350.001" height="388.351" filterUnits="userSpaceOnUse" color-interpolation-filters="sRGB">
<feFlood flood-opacity="0" result="BackgroundImageFix"/>
<feColorMatrix in="SourceAlpha" type="matrix" values="0 0 0 0 0 0 0 0 0 0 0 0 0 0 0 0 0 0 127 0" result="hardAlpha"/>
<feOffset/>
<feGaussianBlur stdDeviation="24"/>
<feComposite in2="hardAlpha" operator="out"/>
<feColorMatrix type="matrix" values="0 0 0 0 0 0 0 0 0 0 0 0 0 0 0 0 0 0 0.25 0"/>
<feBlend mode="normal" in2="BackgroundImageFix" result="effect1_dropShadow_83_278"/>
<feBlend mode="normal" in="SourceGraphic" in2="effect1_dropShadow_83_278" result="shape"/>
</filter>
<linearGradient id="paint0_linear_83_278" x1="128.001" y1="0.937504" x2="128.373" y2="254.938" gradientUnits="userSpaceOnUse">
<stop stop-color="#79C77B"/>
<stop offset="1" stop-color="#50A953"/>
</linearGradient>
</defs>
</svg>
