<svg width="341" height="341" viewBox="0 0 341 341" fill="none" xmlns="http://www.w3.org/2000/svg">
<g clip-path="url(#clip0_72_267)">
<rect width="341" height="341" fill="white"/>
<path d="M173 152H272.641H341V327L242.153 251.202H208.682V224.627C219.935 217.144 227.437 206.014 229.938 192.871H173V152Z" fill="url(#paint0_linear_72_267)"/>
<path d="M242.699 251.374C242.781 251.298 242.863 251.223 242.945 251.148L208.584 224.486C199.151 230.839 187.12 234.689 172.875 234.689C145.348 234.689 121.959 216.113 113.585 191.088H78.3575V218.056L0 279.088V341H341.008V326.998L242.699 251.374Z" fill="url(#paint1_linear_72_267)"/>
<path d="M78.3562 218.324L0 279.418L0.0519791 62L78.8306 123.424H113.585V150.759C111.467 157.111 110.216 163.849 110.216 170.875C110.216 177.901 111.467 184.639 113.585 190.991L105.789 196.959L78.3575 218.326L78.3562 218.324Z" fill="url(#paint2_linear_72_267)"/>
<path d="M243.536 92.4568L336 0H0V63.3506L79.9935 124.693L113.585 150.759C121.959 125.734 145.348 107.158 172.875 107.158C188.468 107.158 202.328 112.548 213.396 122.943L243.715 92.6237C243.655 92.568 243.595 92.5124 243.536 92.4568Z" fill="url(#paint3_linear_72_267)"/>
<path fill-rule="evenodd" clip-rule="evenodd" d="M294.541 152H341V0H336L255.883 80.1173C234.019 60.1668 204.93 48 173 48C105.069 48 50 103.069 50 171C50 238.931 105.069 294 173 294C240.931 294 296 238.931 296 171C296 164.538 295.502 158.193 294.541 152ZM213.396 122.943C202.328 112.548 188.468 107.158 172.875 107.158C145.348 107.158 121.959 125.734 113.585 150.759C111.468 157.111 110.216 163.849 110.216 170.875C110.216 177.901 111.468 184.639 113.585 190.991L113.459 191.088H113.585C121.959 216.113 145.348 234.689 172.875 234.689C187.12 234.689 199.151 230.839 208.584 224.486C219.845 216.979 227.352 205.814 229.855 192.628H172.875V151.625H272.59C273.841 158.555 274.515 165.774 274.515 173.281C274.515 205.525 262.965 232.667 242.945 251.148C225.428 267.318 201.461 276.75 172.875 276.75C131.488 276.75 95.7788 252.976 78.3575 218.423L78.3575 218.326C71.1388 204.081 67 188.007 67 170.875C67 153.742 71.1388 137.669 78.3575 123.424C95.7788 88.7737 131.488 65 172.875 65C201.461 65 225.331 75.4912 243.715 92.6237L213.396 122.943Z" fill="white"/>
<g filter="url(#filter0_d_72_267)">
<path d="M274.515 173.281C274.515 165.774 273.841 158.555 272.59 151.625H172.875V192.628H229.855C227.353 205.814 219.845 216.979 208.584 224.486V251.148H242.945C262.965 232.668 274.515 205.525 274.515 173.281Z" fill="#4285F4"/>
<path d="M172.875 276.75C201.461 276.75 225.428 267.318 242.945 251.148L208.584 224.486C199.151 230.839 187.12 234.689 172.875 234.689C145.348 234.689 121.959 216.113 113.585 191.088H78.3575V218.423C95.7788 252.976 131.488 276.75 172.875 276.75Z" fill="#34A853"/>
<path d="M113.585 190.991C111.468 184.639 110.216 177.901 110.216 170.875C110.216 163.849 111.468 157.111 113.585 150.759V123.424H78.3575C71.1388 137.669 67 153.742 67 170.875C67 188.007 71.1388 204.081 78.3575 218.326L105.789 196.959L113.585 190.991Z" fill="#FBBC05"/>
<path d="M172.875 107.158C188.468 107.158 202.328 112.548 213.396 122.943L243.715 92.6237C225.331 75.4912 201.461 65 172.875 65C131.488 65 95.7788 88.7738 78.3575 123.424L113.585 150.759C121.959 125.734 145.348 107.158 172.875 107.158Z" fill="#EA4335"/>
</g>
</g>
<defs>
<filter id="filter0_d_72_267" x="19" y="17" width="303.515" height="307.75" filterUnits="userSpaceOnUse" color-interpolation-filters="sRGB">
<feFlood flood-opacity="0" result="BackgroundImageFix"/>
<feColorMatrix in="SourceAlpha" type="matrix" values="0 0 0 0 0 0 0 0 0 0 0 0 0 0 0 0 0 0 127 0" result="hardAlpha"/>
<feOffset/>
<feGaussianBlur stdDeviation="24"/>
<feComposite in2="hardAlpha" operator="out"/>
<feColorMatrix type="matrix" values="0 0 0 0 0 0 0 0 0 0 0 0 0 0 0 0 0 0 0.25 0"/>
<feBlend mode="normal" in2="BackgroundImageFix" result="effect1_dropShadow_72_267"/>
<feBlend mode="normal" in="SourceGraphic" in2="effect1_dropShadow_72_267" result="shape"/>
</filter>
<linearGradient id="paint0_linear_72_267" x1="195.5" y1="162" x2="363" y2="344.5" gradientUnits="userSpaceOnUse">
<stop stop-color="#4285F4"/>
<stop offset="1" stop-color="#294E8B"/>
</linearGradient>
<linearGradient id="paint1_linear_72_267" x1="107" y1="207.5" x2="323" y2="347.5" gradientUnits="userSpaceOnUse">
<stop stop-color="#45B763"/>
<stop offset="1" stop-color="#21813B"/>
</linearGradient>
<linearGradient id="paint2_linear_72_267" x1="11.5" y1="68" x2="137.5" y2="207.5" gradientUnits="userSpaceOnUse">
<stop stop-color="#FFDA6F"/>
<stop offset="1" stop-color="#FBBC05"/>
</linearGradient>
<linearGradient id="paint3_linear_72_267" x1="25" y1="-19.5" x2="168" y2="150.759" gradientUnits="userSpaceOnUse">
<stop stop-color="#FD6457"/>
<stop offset="1" stop-color="#EA4335"/>
</linearGradient>
<clipPath id="clip0_72_267">
<rect width="341" height="341" fill="white"/>
</clipPath>
</defs>
</svg>
