<svg width="256" height="256" viewBox="0 0 256 256" fill="none" xmlns="http://www.w3.org/2000/svg">
<path d="M106.429 254.324C77.8036 252.299 57.2862 246.329 40.0761 235.018C21.6571 222.911 8.93954 200.243 3.9843 170.687C1.69292 157.021 0.962957 146.366 1.00143 127.164C1.07014 93.0812 4.72734 71.9613 13.9373 52.4684C22.7757 33.762 33.8514 22.6792 52.4395 13.9416C72.1839 4.66056 93.5545 1 127.994 1C162.433 1 183.803 4.66056 203.548 13.9416C222.119 22.6715 233.122 33.6726 242.078 52.4684C251.216 71.6451 254.915 93.0336 254.999 127.164C255.1 168.687 249.55 193.658 235.416 215.277C222.216 235.466 198.18 248.266 165.151 252.695C147.932 255.004 125.031 255.639 106.429 254.324Z" fill="url(#paint0_linear_95_636)"/>
<path d="M153.19 171.765V190H101.957V171.765H153.19ZM127.5 66.0009L128.214 66.0064C154.125 66.4258 175 87.4876 175 113.412C175 130.334 166.107 145.141 152.75 153.529H102.25C88.8559 145.141 80 130.334 80 113.412C80 87.2259 101.298 66 127.573 66L127.5 66.0009Z" fill="white"/>
<defs>
<linearGradient id="paint0_linear_95_636" x1="128" y1="1" x2="128" y2="255" gradientUnits="userSpaceOnUse">
<stop stop-color="#FF8800"/>
<stop offset="1" stop-color="#D57100"/>
</linearGradient>
</defs>
</svg>
