<svg width="341" height="341" viewBox="0 0 341 341" fill="none" xmlns="http://www.w3.org/2000/svg">
<g clip-path="url(#clip0_72_250)">
<rect width="341" height="341" fill="url(#paint0_linear_72_250)"/>
<g filter="url(#filter0_d_72_250)">
<path fill-rule="evenodd" clip-rule="evenodd" d="M228.269 72.5388C217.138 70.2705 205.743 75.3111 199.913 84.8882C198.588 87.1565 197.527 89.6768 196.997 92.1971C194.347 82.3679 186.397 74.555 176.061 72.5388C165.196 70.2705 153.8 75.3111 147.97 84.8882C146.645 87.1565 145.585 89.6768 145.055 92.1971C142.405 82.3679 134.454 74.555 124.119 72.5388C112.988 70.2705 101.593 75.3111 95.7625 84.8882C89.9322 94.4653 90.9923 107.067 98.1476 115.636C105.303 124.205 117.494 127.733 128.094 123.953C136.574 120.928 142.67 113.62 145.055 105.303C145.85 109.083 147.705 112.611 150.09 115.636C157.246 124.205 169.436 127.733 180.037 123.953C188.517 120.928 194.877 113.62 196.997 105.303C198.057 109.083 199.648 112.611 202.298 115.636C209.453 124.205 221.379 127.733 231.979 123.953C242.58 120.172 250 109.839 250 98.7498C250 86.1484 240.725 75.0591 228.269 72.5388Z" fill="white"/>
<path fill-rule="evenodd" clip-rule="evenodd" d="M142.405 202.334C145.055 213.927 151.945 224.764 164.136 228.041C175.796 231.317 188.782 226.277 194.612 215.691C198.323 209.391 197.792 202.334 197.792 195.529C197.792 190.741 197.792 186.204 197.792 181.415C197.792 176.375 197.792 171.082 197.792 166.042C197.792 159.489 197.527 153.188 200.973 147.139C205.478 138.822 214.488 133.782 224.029 134.034C233.569 134.538 242.315 140.587 246.025 149.156C248.675 154.952 248.145 161.253 248.145 167.554C248.145 172.594 248.145 177.635 248.145 182.676C248.145 193.765 248.94 205.106 246.82 215.943C241.785 241.146 224.294 262.821 200.708 272.902C176.856 282.983 149.03 280.463 127.564 266.097C116.964 259.04 108.483 249.211 102.653 237.87C97.0876 226.781 93.6424 212.919 95.7625 200.318C97.3526 190.993 104.773 183.432 114.048 181.667C123.854 179.651 133.924 184.188 138.96 192.505C140.815 195.529 141.61 198.805 142.405 202.334Z" fill="white"/>
</g>
</g>
<defs>
<filter id="filter0_d_72_250" x="20" y="0" width="302" height="351" filterUnits="userSpaceOnUse" color-interpolation-filters="sRGB">
<feFlood flood-opacity="0" result="BackgroundImageFix"/>
<feColorMatrix in="SourceAlpha" type="matrix" values="0 0 0 0 0 0 0 0 0 0 0 0 0 0 0 0 0 0 127 0" result="hardAlpha"/>
<feOffset/>
<feGaussianBlur stdDeviation="36"/>
<feComposite in2="hardAlpha" operator="out"/>
<feColorMatrix type="matrix" values="0 0 0 0 0 0 0 0 0 0 0 0 0 0 0 0 0 0 0.25 0"/>
<feBlend mode="normal" in2="BackgroundImageFix" result="effect1_dropShadow_72_250"/>
<feBlend mode="normal" in="SourceGraphic" in2="effect1_dropShadow_72_250" result="shape"/>
</filter>
<linearGradient id="paint0_linear_72_250" x1="341" y1="341" x2="13" y2="-24.5" gradientUnits="userSpaceOnUse">
<stop stop-color="#FFA200"/>
<stop offset="1" stop-color="#FFC664"/>
</linearGradient>
<clipPath id="clip0_72_250">
<rect width="341" height="341" fill="white"/>
</clipPath>
</defs>
</svg>
