<svg width="256" height="256" viewBox="0 0 256 256" fill="none" xmlns="http://www.w3.org/2000/svg">
<mask id="mask0_83_280" style="mask-type:alpha" maskUnits="userSpaceOnUse" x="1" y="1" width="254" height="254">
<path d="M106.429 254.324C77.8036 252.299 57.2862 246.329 40.0761 235.018C21.6571 222.911 8.93954 200.243 3.9843 170.687C1.69292 157.021 0.962957 146.366 1.00143 127.164C1.07014 93.0812 4.72734 71.9613 13.9373 52.4684C22.7757 33.762 33.8514 22.6792 52.4395 13.9416C72.1839 4.66056 93.5545 1 127.994 1C162.433 1 183.803 4.66056 203.548 13.9416C222.119 22.6715 233.122 33.6726 242.078 52.4684C251.216 71.6451 254.915 93.0336 254.999 127.164C255.1 168.687 249.55 193.658 235.416 215.277C222.216 235.466 198.18 248.266 165.151 252.695C147.932 255.004 125.031 255.639 106.429 254.324Z" fill="white"/>
</mask>
<g mask="url(#mask0_83_280)">
<rect x="1" y="1" width="254.001" height="254.001" fill="url(#paint0_linear_83_280)"/>
<g filter="url(#filter0_d_83_280)">
<path d="M166.095 73.312C164.116 53.4556 147.788 38 127.927 38C108.1 38 91.7729 53.3148 89.5111 73.0656L99.7953 73.8754C101.633 59.6167 113.437 48.5971 127.856 48.5971C142.275 48.5971 154.22 59.7928 155.74 74.2274L166.095 73.312ZM199.421 71.0236C188.112 71.0236 176.838 70.4251 165.565 71.4109L155.28 72.3263C146.127 73.136 136.09 75.4596 127.856 79.6844C119.091 75.1428 110.115 72.7135 100.325 71.939L90.0412 71.1293C78.7321 70.2139 67.4937 70.9884 56.1846 70.9884H50V195.257C50 207.959 60.2975 218.257 73 218.257H154.043C182.457 218.257 205.676 194.422 205.676 165.271V71.0236H199.421ZM63.9596 133.057C63.9596 115.947 77.4952 102.04 94.1761 102.04C110.857 102.04 124.392 115.912 124.392 133.057C124.392 150.168 110.857 164.074 94.1761 164.074C77.4598 164.074 63.9596 150.168 63.9596 133.057ZM127.785 181.22C123.297 176.326 118.809 171.468 114.32 166.609C117.148 161.61 122.484 159.11 127.785 159.145C133.086 159.145 138.423 161.61 141.25 166.609C136.762 171.468 132.273 176.326 127.785 181.22ZM161.394 164.074C144.713 164.074 131.178 150.203 131.178 133.057C131.178 115.947 144.713 102.04 161.394 102.04C178.075 102.04 191.611 115.912 191.611 133.057C191.611 150.168 178.075 164.074 161.394 164.074ZM97.9575 113.799C108.736 113.799 117.466 122.777 117.466 133.797C117.466 144.852 108.736 153.829 97.9575 153.829C87.1786 153.829 78.4494 144.852 78.4494 133.797C78.4494 130.1 79.4389 126.65 81.1353 123.692C82.5136 127.213 85.9063 129.713 89.8645 129.713C95.0596 129.713 99.2651 125.418 99.2651 120.066C99.2651 117.672 98.417 115.489 97.0033 113.799H97.9575ZM157.613 113.799C168.392 113.799 177.121 122.777 177.121 133.797C177.121 144.852 168.392 153.829 157.613 153.829C146.834 153.829 138.105 144.852 138.105 133.797C138.105 130.1 139.059 126.65 140.755 123.692C142.169 127.213 145.526 129.713 149.484 129.713C154.68 129.713 158.885 125.418 158.885 120.066C158.885 117.672 158.037 115.489 156.623 113.799H157.613Z" fill="white"/>
</g>
</g>
<defs>
<filter id="filter0_d_83_280" x="2" y="-10" width="251.676" height="276.257" filterUnits="userSpaceOnUse" color-interpolation-filters="sRGB">
<feFlood flood-opacity="0" result="BackgroundImageFix"/>
<feColorMatrix in="SourceAlpha" type="matrix" values="0 0 0 0 0 0 0 0 0 0 0 0 0 0 0 0 0 0 127 0" result="hardAlpha"/>
<feOffset/>
<feGaussianBlur stdDeviation="24"/>
<feComposite in2="hardAlpha" operator="out"/>
<feColorMatrix type="matrix" values="0 0 0 0 0 0 0 0 0 0 0 0 0 0 0 0 0 0 0.25 0"/>
<feBlend mode="normal" in2="BackgroundImageFix" result="effect1_dropShadow_83_280"/>
<feBlend mode="normal" in="SourceGraphic" in2="effect1_dropShadow_83_280" result="shape"/>
</filter>
<linearGradient id="paint0_linear_83_280" x1="17.3872" y1="9.19357" x2="230.048" y2="255.001" gradientUnits="userSpaceOnUse">
<stop stop-color="#5DC763"/>
<stop offset="1" stop-color="#43B34A"/>
</linearGradient>
</defs>
</svg>
