<svg width="256" height="256" viewBox="0 0 256 256" fill="none" xmlns="http://www.w3.org/2000/svg">
<path d="M106.429 254.324C77.8036 252.299 57.2862 246.329 40.0761 235.018C21.6571 222.911 8.93954 200.243 3.9843 170.687C1.69292 157.021 0.962957 146.366 1.00143 127.164C1.07014 93.0812 4.72734 71.9613 13.9373 52.4684C22.7757 33.762 33.8514 22.6792 52.4395 13.9416C72.1839 4.66056 93.5545 1 127.994 1C162.433 1 183.803 4.66056 203.548 13.9416C222.119 22.6715 233.122 33.6726 242.078 52.4684C251.216 71.6451 254.915 93.0336 254.999 127.164C255.1 168.687 249.55 193.658 235.416 215.277C222.216 235.466 198.18 248.266 165.151 252.695C147.932 255.004 125.031 255.639 106.429 254.324Z" fill="url(#paint0_linear_99_104)"/>
<path d="M40.0762 235.018C57.2864 246.329 77.8038 252.299 106.429 254.324C112.848 254.778 119.779 254.999 126.812 255C126.837 255 126.862 255 126.887 255C140.211 254.999 153.895 254.204 165.152 252.695C198.18 248.266 222.216 235.466 235.416 215.277C236.696 213.319 237.906 211.334 239.047 209.311C232.993 196.564 224.453 184.963 213.853 175.097C202.579 164.604 189.195 156.28 174.465 150.602C159.735 144.923 143.947 142 128.003 142C112.059 142 96.2716 144.923 81.5415 150.602C66.8113 156.28 53.4271 164.604 42.1531 175.097C31.5464 184.969 23.0028 196.579 16.9478 209.336C23.0539 220.239 30.8498 228.953 40.0762 235.018Z" fill="url(#paint1_linear_99_104)"/>
<path d="M159.842 158.463C159.842 158.463 159.843 158.463 157.892 160.852C157.715 161.069 157.522 161.304 157.312 161.562L159.843 158.463L163.094 161.119L160.285 164.238L134.101 193.318C130.924 196.848 125.389 196.848 122.211 193.318L96.0274 164.238L93.2187 161.119L96.4698 158.463L97.801 160.093C96.4698 158.463 96.47 158.463 96.4701 158.463L96.4705 158.463L96.4711 158.462L96.4715 158.462L96.4728 158.461L96.4738 158.46L96.4773 158.457L96.4802 158.455L96.4909 158.446L96.4935 158.444L96.5002 158.439L96.5102 158.431L96.5362 158.41C96.5458 158.402 96.5564 158.393 96.5679 158.384L96.5686 158.384C96.6266 158.337 96.7092 158.271 96.8152 158.187C96.896 158.123 96.9904 158.049 97.0979 157.965C97.2725 157.828 97.4815 157.667 97.7225 157.483C98.501 156.889 99.6171 156.06 100.99 155.105C102.651 153.948 104.713 152.588 107.026 151.225C109.714 149.641 112.885 147.966 116.249 146.628C120.045 145.116 124.171 144 128.156 144C132.134 144 136.251 145.111 140.041 146.619C143.494 147.99 146.745 149.718 149.48 151.34C149.653 151.442 149.824 151.544 149.994 151.647C152.02 152.866 153.832 154.067 155.322 155.105C155.883 155.495 156.401 155.864 156.87 156.205C156.904 156.229 156.937 156.253 156.97 156.277C157.607 156.74 158.152 157.149 158.59 157.483C158.749 157.604 158.894 157.716 159.024 157.817C159.034 157.824 159.043 157.831 159.052 157.838C159.229 157.976 159.378 158.093 159.497 158.187C159.54 158.221 159.58 158.252 159.615 158.281C159.684 158.336 159.738 158.379 159.776 158.41L159.842 158.463ZM159.842 158.463L159.842 158.463L159.841 158.462L159.842 158.463ZM101.529 164.661C101.528 164.661 101.528 164.661 101.529 164.661L101.529 164.661Z" fill="#FFC968" stroke="#404040" stroke-width="8"/>
<path d="M232.471 110.5C232.471 138.069 210.546 160.417 183.5 160.417C156.454 160.417 134.529 138.069 134.529 110.5C134.529 82.9313 156.454 60.5825 183.5 60.5825C210.546 60.5825 232.471 82.9313 232.471 110.5Z" fill="white"/>
<path fill-rule="evenodd" clip-rule="evenodd" d="M239 110.5C239 141.635 214.22 167 183.5 167C152.78 167 128 141.635 128 110.5C128 79.3647 152.78 54 183.5 54C214.22 54 239 79.3647 239 110.5ZM183.5 160.417C210.546 160.417 232.471 138.069 232.471 110.5C232.471 82.9313 210.546 60.5825 183.5 60.5825C156.454 60.5825 134.529 82.9313 134.529 110.5C134.529 138.069 156.454 160.417 183.5 160.417Z" fill="#404040"/>
<path d="M183.5 148.35C204.536 148.35 221.588 131.404 221.588 110.5C221.588 89.5963 204.536 72.6505 183.5 72.6505C182.739 72.6505 181.983 72.6727 181.232 72.7165C177.653 72.9253 176.907 77.9698 178.846 80.9856C180.644 83.7836 181.686 87.1079 181.686 90.6741C181.686 100.628 173.566 108.698 163.549 108.698C159.919 108.698 156.538 107.638 153.702 105.813C150.702 103.882 145.699 104.62 145.482 108.182C145.435 108.949 145.412 109.722 145.412 110.5C145.412 131.404 162.464 148.35 183.5 148.35Z" fill="#404040"/>
<path d="M121.471 110.5C121.471 138.069 99.5457 160.417 72.5 160.417C45.4543 160.417 23.5294 138.069 23.5294 110.5C23.5294 82.9313 45.4543 60.5825 72.5 60.5825C99.5457 60.5825 121.471 82.9313 121.471 110.5Z" fill="white"/>
<path fill-rule="evenodd" clip-rule="evenodd" d="M128 110.5C128 141.635 103.22 167 72.5 167C41.7804 167 17 141.635 17 110.5C17 79.3647 41.7804 54 72.5 54C103.22 54 128 79.3647 128 110.5ZM72.5 160.417C99.5457 160.417 121.471 138.069 121.471 110.5C121.471 82.9313 99.5457 60.5825 72.5 60.5825C45.4543 60.5825 23.5294 82.9313 23.5294 110.5C23.5294 138.069 45.4543 160.417 72.5 160.417Z" fill="#404040"/>
<path d="M72.5 148.35C93.5356 148.35 110.588 131.404 110.588 110.5C110.588 89.5963 93.5356 72.6505 72.5 72.6505C71.7387 72.6505 70.9825 72.6727 70.2322 72.7165C66.6534 72.9253 65.9074 77.9698 67.8457 80.9856C69.644 83.7836 70.6863 87.1079 70.6863 90.6741C70.6863 100.628 62.5659 108.698 52.549 108.698C48.919 108.698 45.5381 107.638 42.7024 105.813C39.7021 103.882 34.6986 104.62 34.482 108.182C34.4354 108.949 34.4118 109.722 34.4118 110.5C34.4118 131.404 51.4644 148.35 72.5 148.35Z" fill="#404040"/>
<defs>
<linearGradient id="paint0_linear_99_104" x1="128" y1="1" x2="128" y2="255" gradientUnits="userSpaceOnUse">
<stop stop-color="#5FBB54"/>
<stop offset="1" stop-color="#4F9C4E"/>
</linearGradient>
<linearGradient id="paint1_linear_99_104" x1="127.997" y1="142" x2="127.997" y2="255" gradientUnits="userSpaceOnUse">
<stop stop-color="#83C566"/>
<stop offset="1" stop-color="#60BA54"/>
</linearGradient>
</defs>
</svg>
