<svg width="256" height="256" viewBox="0 0 256 256" fill="none" xmlns="http://www.w3.org/2000/svg">
<path d="M106.429 254.324C77.8036 252.299 57.2862 246.329 40.0761 235.018C21.6571 222.911 8.93954 200.243 3.9843 170.687C1.69292 157.021 0.962957 146.366 1.00143 127.164C1.07014 93.0812 4.72734 71.9613 13.9373 52.4684C22.7757 33.762 33.8514 22.6792 52.4395 13.9416C72.1839 4.66056 93.5545 1 127.994 1C162.433 1 183.803 4.66056 203.548 13.9416C222.119 22.6715 233.122 33.6726 242.078 52.4684C251.216 71.6451 254.915 93.0336 254.999 127.164C255.1 168.687 249.55 193.658 235.416 215.277C222.216 235.466 198.18 248.266 165.151 252.695C147.932 255.004 125.031 255.639 106.429 254.324Z" fill="url(#paint0_linear_83_284)"/>
<path d="M112.623 202.591C94.8389 201.757 80.4558 200.078 75.454 198.252C65.5477 194.637 55.766 184.558 52.4338 174.532C50.5771 168.946 48.9135 154.681 48.2628 138.77C47.4187 118.127 49.5071 91.2212 52.7019 81.5794C56.9421 68.7826 66.668 59.6136 78.5695 57.1928C99.5333 52.9289 129.651 52.6683 152.717 56.5513C160.869 57.9237 162.976 58.913 167.572 63.5265C172.428 68.4006 175.043 73.4953 176.091 80.1274L176.425 82.2386L131.342 82.2402C88.0085 82.2418 86.2065 82.2739 84.9057 83.0671C81.0197 85.4368 81.4262 91.1886 85.6312 93.3328C87.0377 94.0499 90.2522 94.101 133.974 94.1017C186.984 94.1025 183.786 93.9031 191.496 97.6887C194.535 99.1811 195.97 100.266 199.199 103.513C207.614 111.976 209.536 119.46 208.602 140.126C207.904 155.57 205.987 169.671 203.621 176.757C200.122 187.24 192.908 195.421 184.356 198.605C176.043 201.701 138.32 203.797 112.623 202.591ZM177.791 153.41C179.706 152.243 180.511 150.177 180.511 146.431C180.511 144.746 180.711 143.243 180.956 143.092C182.046 142.418 183.147 139.302 183.147 136.89C183.147 133.629 181.691 131.044 178.949 129.437C177.218 128.423 176.596 128.299 173.969 128.448C171.501 128.587 170.675 128.839 169.33 129.866C168.43 130.552 167.32 131.727 166.864 132.477C165.103 135.374 165.393 139.795 167.51 142.311C168.393 143.36 168.572 144.124 168.707 147.418C168.865 151.252 168.883 151.308 170.508 152.796C171.897 154.07 172.47 154.3 174.243 154.299C175.567 154.298 176.871 153.971 177.791 153.41Z" fill="white"/>
<defs>
<linearGradient id="paint0_linear_83_284" x1="128" y1="1" x2="128" y2="255" gradientUnits="userSpaceOnUse">
<stop stop-color="#00C1EE"/>
<stop offset="1" stop-color="#01AED6"/>
</linearGradient>
</defs>
</svg>
