<svg width="256" height="256" viewBox="0 0 256 256" fill="none" xmlns="http://www.w3.org/2000/svg">
<mask id="mask0_83_282" style="mask-type:alpha" maskUnits="userSpaceOnUse" x="1" y="1" width="254" height="254">
<path d="M106.429 254.324C77.8036 252.299 57.2862 246.329 40.0761 235.018C21.6571 222.911 8.93954 200.243 3.9843 170.687C1.69292 157.021 0.962957 146.366 1.00143 127.164C1.07014 93.0812 4.72734 71.9613 13.9373 52.4684C22.7757 33.762 33.8514 22.6792 52.4395 13.9416C72.1839 4.66056 93.5545 1 127.994 1C162.433 1 183.803 4.66056 203.548 13.9416C222.119 22.6715 233.122 33.6726 242.078 52.4684C251.216 71.6451 254.915 93.0336 254.999 127.164C255.1 168.687 249.55 193.658 235.416 215.277C222.216 235.466 198.18 248.266 165.151 252.695C147.932 255.004 125.031 255.639 106.429 254.324Z" fill="white"/>
</mask>
<g mask="url(#mask0_83_282)">
<rect x="1" y="1" width="254.001" height="254.001" fill="url(#paint0_linear_83_282)"/>
<g filter="url(#filter0_d_83_282)">
<path d="M93.5891 131.279C93.5891 111.991 109.218 96.3737 128.505 96.3737C147.791 96.3737 163.42 111.991 163.42 131.279C163.42 150.567 147.791 166.184 128.505 166.184C109.218 166.184 93.5891 150.567 93.5891 131.279Z" fill="white"/>
<path d="M128.372 38.2569C76.9625 38.2569 35.2632 79.9026 35.2632 131.025C35.2632 169.601 58.5403 202.437 92.3918 217.12C94.7739 218.131 97.3504 218.597 99.9344 218.485C102.518 218.373 105.045 217.685 107.331 216.47C109.617 215.256 111.605 213.547 113.151 211.466C114.696 209.385 115.761 206.985 116.268 204.439C117.067 200.478 116.47 196.361 114.577 192.794C112.684 189.226 109.614 186.43 105.893 184.884C84.9432 176.075 70.1788 155.379 70.1788 131.219C70.1788 99.0503 96.2492 73.0217 128.372 73.0217C160.494 73.0217 186.564 99.0503 186.564 131.219C186.564 155.379 171.8 176.068 150.851 184.878V184.891C147.097 186.412 143.991 189.201 142.07 192.777C140.149 196.353 139.534 200.49 140.33 204.473C141.127 208.456 143.286 212.034 146.434 214.588C149.582 217.143 153.52 218.513 157.568 218.461C159.872 218.443 162.152 217.983 164.285 217.107C198.136 202.757 221.48 169.855 221.48 131.012C221.48 79.6223 179.781 38.2435 128.372 38.2435" fill="white"/>
</g>
</g>
<defs>
<filter id="filter0_d_83_282" x="-12.7368" y="-9.75647" width="282.217" height="276.258" filterUnits="userSpaceOnUse" color-interpolation-filters="sRGB">
<feFlood flood-opacity="0" result="BackgroundImageFix"/>
<feColorMatrix in="SourceAlpha" type="matrix" values="0 0 0 0 0 0 0 0 0 0 0 0 0 0 0 0 0 0 127 0" result="hardAlpha"/>
<feOffset/>
<feGaussianBlur stdDeviation="24"/>
<feComposite in2="hardAlpha" operator="out"/>
<feColorMatrix type="matrix" values="0 0 0 0 0 0 0 0 0 0 0 0 0 0 0 0 0 0 0.25 0"/>
<feBlend mode="normal" in2="BackgroundImageFix" result="effect1_dropShadow_83_282"/>
<feBlend mode="normal" in="SourceGraphic" in2="effect1_dropShadow_83_282" result="shape"/>
</filter>
<linearGradient id="paint0_linear_83_282" x1="17.3872" y1="9.19357" x2="230.048" y2="255.001" gradientUnits="userSpaceOnUse">
<stop stop-color="#57CE64"/>
<stop offset="1" stop-color="#00AA13"/>
</linearGradient>
</defs>
</svg>
