<svg width="341" height="341" viewBox="0 0 341 341" fill="none" xmlns="http://www.w3.org/2000/svg">
<g clip-path="url(#clip0_74_145)">
<rect width="341" height="341" fill="url(#paint0_linear_74_145)"/>
<g filter="url(#filter0_d_74_145)">
<path d="M149.856 270.641C125.98 269.521 106.671 267.267 99.9558 264.816C86.6562 259.962 73.524 246.431 69.0504 232.971C66.5578 225.472 64.3243 206.321 63.4507 184.959C62.3175 157.246 65.1213 121.124 69.4104 108.179C75.1029 90.9994 88.1603 78.6897 104.138 75.4398C132.283 69.7153 172.717 69.3655 203.684 74.5785C214.628 76.421 217.457 77.7491 223.627 83.9429C230.147 90.4866 233.656 97.3263 235.064 106.23L235.512 109.064L174.987 109.067C116.81 109.069 114.391 109.112 112.645 110.177C107.428 113.358 107.974 121.08 113.619 123.959C115.507 124.921 119.823 124.99 178.52 124.991C249.687 124.992 245.394 124.724 255.745 129.807C259.825 131.81 261.751 133.266 266.087 137.626C277.384 148.987 279.965 159.035 278.711 186.78C277.774 207.514 275.2 226.445 272.024 235.958C267.326 250.032 257.641 261.015 246.159 265.29C234.999 269.446 184.355 272.26 149.856 270.641ZM237.346 204.614C239.916 203.047 240.997 200.274 240.997 195.245C240.997 192.982 241.266 190.965 241.596 190.762C243.059 189.857 244.537 185.674 244.537 182.436C244.537 178.058 242.582 174.587 238.9 172.43C236.577 171.068 235.741 170.902 232.215 171.101C228.901 171.289 227.793 171.627 225.987 173.005C224.778 173.927 223.289 175.504 222.677 176.511C220.312 180.4 220.702 186.336 223.544 189.714C224.728 191.121 224.969 192.148 225.151 196.57C225.362 201.717 225.387 201.792 227.568 203.79C229.433 205.5 230.203 205.809 232.582 205.807C234.36 205.806 236.111 205.367 237.346 204.614Z" fill="white"/>
</g>
</g>
<defs>
<filter id="filter0_d_74_145" x="-8.80176" y="-1.10498" width="359.802" height="344.21" filterUnits="userSpaceOnUse" color-interpolation-filters="sRGB">
<feFlood flood-opacity="0" result="BackgroundImageFix"/>
<feColorMatrix in="SourceAlpha" type="matrix" values="0 0 0 0 0 0 0 0 0 0 0 0 0 0 0 0 0 0 127 0" result="hardAlpha"/>
<feOffset/>
<feGaussianBlur stdDeviation="36"/>
<feComposite in2="hardAlpha" operator="out"/>
<feColorMatrix type="matrix" values="0 0 0 0 0 0 0 0 0 0 0 0 0 0 0 0 0 0 0.25 0"/>
<feBlend mode="normal" in2="BackgroundImageFix" result="effect1_dropShadow_74_145"/>
<feBlend mode="normal" in="SourceGraphic" in2="effect1_dropShadow_74_145" result="shape"/>
</filter>
<linearGradient id="paint0_linear_74_145" x1="22" y1="11" x2="307.5" y2="341" gradientUnits="userSpaceOnUse">
<stop stop-color="#57C7E1"/>
<stop offset="1" stop-color="#00AED6"/>
</linearGradient>
<clipPath id="clip0_74_145">
<rect width="341" height="341" fill="white"/>
</clipPath>
</defs>
</svg>
