<svg width="256" height="256" viewBox="0 0 256 256" fill="none" xmlns="http://www.w3.org/2000/svg">
<mask id="mask0_83_280" style="mask-type:alpha" maskUnits="userSpaceOnUse" x="1" y="1" width="254" height="254">
<path d="M106.429 254.324C77.8036 252.299 57.2862 246.329 40.0761 235.018C21.6571 222.911 8.93954 200.243 3.9843 170.687C1.69292 157.021 0.962957 146.366 1.00143 127.164C1.07014 93.0812 4.72734 71.9613 13.9373 52.4684C22.7757 33.762 33.8514 22.6792 52.4395 13.9416C72.1839 4.66056 93.5545 1 127.994 1C162.433 1 183.803 4.66056 203.548 13.9416C222.119 22.6715 233.122 33.6726 242.078 52.4684C251.216 71.6451 254.915 93.0336 254.999 127.164C255.1 168.687 249.55 193.658 235.416 215.277C222.216 235.466 198.18 248.266 165.151 252.695C147.932 255.004 125.031 255.639 106.429 254.324Z" fill="white"/>
</mask>
<g mask="url(#mask0_83_280)">
<rect width="254.001" height="254.001" fill="url(#paint0_linear_83_280)"/>
<g filter="url(#filter0_d_83_280)">
<path d="M165.256 69.5757C163.277 49.7193 146.949 34.2637 127.088 34.2637C107.261 34.2637 90.9339 49.5785 88.6721 69.3293L98.9563 70.139C100.794 55.8804 112.598 44.8608 127.017 44.8608C141.436 44.8608 153.381 56.0565 154.901 70.4911L165.256 69.5757ZM198.582 67.2873C187.273 67.2873 175.999 66.6888 164.726 67.6746L154.441 68.5899C145.288 69.3997 135.251 71.7233 127.017 75.9481C118.252 71.4065 109.276 68.9772 99.4864 68.2027L89.2022 67.3929C77.8931 66.4776 66.6547 67.2521 55.3457 67.2521H49.161V191.521C49.161 204.223 59.4585 214.521 72.161 214.521H153.204C181.619 214.521 204.837 190.686 204.837 161.535V67.2873H198.582ZM63.1206 129.321C63.1206 112.211 76.6562 98.3042 93.3371 98.3042C110.018 98.3042 123.553 112.176 123.553 129.321C123.553 146.431 110.018 160.338 93.3371 160.338C76.6209 160.338 63.1206 146.431 63.1206 129.321ZM126.946 177.483C122.458 172.59 117.97 167.731 113.481 162.873C116.309 157.873 121.645 155.374 126.946 155.409C132.247 155.409 137.584 157.873 140.411 162.873C135.923 167.731 131.435 172.59 126.946 177.483ZM160.555 160.338C143.874 160.338 130.339 146.467 130.339 129.321C130.339 112.211 143.874 98.3042 160.555 98.3042C177.236 98.3042 190.772 112.176 190.772 129.321C190.772 146.431 177.236 160.338 160.555 160.338ZM97.1185 110.063C107.898 110.063 116.627 119.041 116.627 130.06C116.627 141.115 107.898 150.093 97.1185 150.093C86.3396 150.093 77.6104 141.115 77.6104 130.06C77.6104 126.364 78.5999 122.913 80.2963 119.956C81.6746 123.477 85.0673 125.976 89.0255 125.976C94.2206 125.976 98.4262 121.681 98.4262 116.33C98.4262 113.936 97.578 111.753 96.1643 110.063H97.1185ZM156.774 110.063C167.553 110.063 176.282 119.041 176.282 130.06C176.282 141.115 167.553 150.093 156.774 150.093C145.995 150.093 137.266 141.115 137.266 130.06C137.266 126.364 138.22 122.913 139.916 119.956C141.33 123.477 144.687 125.976 148.646 125.976C153.841 125.976 158.046 121.681 158.046 116.33C158.046 113.936 157.198 111.753 155.784 110.063H156.774Z" fill="white"/>
</g>
</g>
<defs>
<filter id="filter0_d_83_280" x="1.16101" y="-13.7363" width="251.676" height="276.257" filterUnits="userSpaceOnUse" color-interpolation-filters="sRGB">
<feFlood flood-opacity="0" result="BackgroundImageFix"/>
<feColorMatrix in="SourceAlpha" type="matrix" values="0 0 0 0 0 0 0 0 0 0 0 0 0 0 0 0 0 0 127 0" result="hardAlpha"/>
<feOffset/>
<feGaussianBlur stdDeviation="24"/>
<feComposite in2="hardAlpha" operator="out"/>
<feColorMatrix type="matrix" values="0 0 0 0 0 0 0 0 0 0 0 0 0 0 0 0 0 0 0.25 0"/>
<feBlend mode="normal" in2="BackgroundImageFix" result="effect1_dropShadow_83_280"/>
<feBlend mode="normal" in="SourceGraphic" in2="effect1_dropShadow_83_280" result="shape"/>
</filter>
<linearGradient id="paint0_linear_83_280" x1="16.3872" y1="8.19357" x2="229.048" y2="254.001" gradientUnits="userSpaceOnUse">
<stop stop-color="#5DC763"/>
<stop offset="1" stop-color="#43B34A"/>
</linearGradient>
</defs>
</svg>
