<svg width="341" height="341" viewBox="0 0 341 341" fill="none" xmlns="http://www.w3.org/2000/svg">
<g clip-path="url(#clip0_74_190)">
<rect width="341" height="341" fill="url(#paint0_linear_74_190)"/>
<g filter="url(#filter0_d_74_190)">
<path d="M221.86 93.4074C219.203 66.7496 197.283 46 170.619 46C144.001 46 122.081 66.5606 119.045 93.0766L132.852 94.1637C135.319 75.0211 151.166 60.227 170.524 60.227C189.882 60.227 205.918 75.2574 207.959 94.6363L221.86 93.4074ZM266.602 90.3352C251.419 90.3352 236.284 89.5316 221.149 90.8551L207.342 92.084C195.053 93.1711 181.579 96.2906 170.524 101.963C158.757 95.8652 146.706 92.6039 133.563 91.5641L119.756 90.477C104.574 89.2481 89.4858 90.2879 74.3031 90.2879H66V265C66 277.703 76.2975 288 89 288H205.681C243.828 288 275 256.001 275 216.865V90.3352H266.602ZM84.7412 173.617C84.7412 150.646 102.913 131.976 125.308 131.976C147.702 131.976 165.874 150.599 165.874 173.617C165.874 196.588 147.702 215.258 125.308 215.258C102.866 215.258 84.7412 196.588 84.7412 173.617ZM170.429 238.277C164.403 231.707 158.378 225.184 152.352 218.661C156.148 211.95 163.312 208.594 170.429 208.641C177.546 208.641 184.71 211.95 188.506 218.661C182.48 225.184 176.454 231.707 170.429 238.277ZM215.55 215.258C193.155 215.258 174.984 196.636 174.984 173.617C174.984 150.646 193.155 131.976 215.55 131.976C237.945 131.976 256.116 150.599 256.116 173.617C256.116 196.588 237.945 215.258 215.55 215.258ZM130.384 147.763C144.855 147.763 156.575 159.816 156.575 174.61C156.575 189.451 144.855 201.504 130.384 201.504C115.913 201.504 104.194 189.451 104.194 174.61C104.194 169.647 105.523 165.015 107.8 161.045C109.65 165.771 114.205 169.127 119.519 169.127C126.494 169.127 132.14 163.361 132.14 156.176C132.14 152.962 131.001 150.032 129.103 147.763H130.384ZM210.473 147.763C224.944 147.763 236.664 159.816 236.664 174.61C236.664 189.451 224.944 201.504 210.473 201.504C196.002 201.504 184.283 189.451 184.283 174.61C184.283 169.647 185.564 165.015 187.842 161.045C189.739 165.771 194.247 169.127 199.561 169.127C206.535 169.127 212.181 163.361 212.181 156.176C212.181 152.962 211.043 150.032 209.145 147.763H210.473Z" fill="white"/>
</g>
</g>
<defs>
<filter id="filter0_d_74_190" x="18" y="-2" width="305" height="338" filterUnits="userSpaceOnUse" color-interpolation-filters="sRGB">
<feFlood flood-opacity="0" result="BackgroundImageFix"/>
<feColorMatrix in="SourceAlpha" type="matrix" values="0 0 0 0 0 0 0 0 0 0 0 0 0 0 0 0 0 0 127 0" result="hardAlpha"/>
<feOffset/>
<feGaussianBlur stdDeviation="24"/>
<feComposite in2="hardAlpha" operator="out"/>
<feColorMatrix type="matrix" values="0 0 0 0 0 0 0 0 0 0 0 0 0 0 0 0 0 0 0.25 0"/>
<feBlend mode="normal" in2="BackgroundImageFix" result="effect1_dropShadow_74_190"/>
<feBlend mode="normal" in="SourceGraphic" in2="effect1_dropShadow_74_190" result="shape"/>
</filter>
<linearGradient id="paint0_linear_74_190" x1="22" y1="11" x2="307.5" y2="341" gradientUnits="userSpaceOnUse">
<stop stop-color="#5DC763"/>
<stop offset="1" stop-color="#43B34A"/>
</linearGradient>
<clipPath id="clip0_74_190">
<rect width="341" height="341" fill="white"/>
</clipPath>
</defs>
</svg>
