<svg width="256" height="256" viewBox="0 0 256 256" fill="none" xmlns="http://www.w3.org/2000/svg">
<path d="M106.429 254.324C77.8036 252.299 57.2862 246.329 40.0761 235.018C21.6571 222.911 8.93954 200.243 3.9843 170.687C1.69292 157.021 0.962957 146.366 1.00143 127.164C1.07014 93.0812 4.72734 71.9613 13.9373 52.4684C22.7757 33.762 33.8514 22.6792 52.4395 13.9416C72.1839 4.66056 93.5545 1 127.994 1C162.433 1 183.803 4.66056 203.548 13.9416C222.119 22.6715 233.122 33.6726 242.078 52.4684C251.216 71.6451 254.915 93.0336 254.999 127.164C255.1 168.687 249.55 193.658 235.416 215.277C222.216 235.466 198.18 248.266 165.151 252.695C147.932 255.004 125.031 255.639 106.429 254.324Z" fill="url(#paint0_linear_83_286)"/>
<path fill-rule="evenodd" clip-rule="evenodd" d="M171.031 55.0318C162.74 53.3423 154.252 57.0968 149.909 64.2305C148.922 65.92 148.132 67.7973 147.738 69.6746C145.764 62.3532 139.842 56.5336 132.143 55.0318C124.05 53.3423 115.562 57.0968 111.219 64.2305C110.232 65.92 109.442 67.7973 109.047 69.6746C107.073 62.3532 101.152 56.5336 93.453 55.0318C85.1623 53.3423 76.6741 57.0968 72.3314 64.2305C67.9886 71.3641 68.7782 80.7505 74.108 87.1332C79.4377 93.5159 88.518 96.1441 96.414 93.3282C102.731 91.0755 107.271 85.6314 109.047 79.4364C109.64 82.2523 111.021 84.8805 112.798 87.1332C118.128 93.5159 127.208 96.1441 135.104 93.3282C141.421 91.0755 146.158 85.6314 147.738 79.4364C148.527 82.2523 149.712 84.8805 151.685 87.1332C157.015 93.5159 165.898 96.1441 173.794 93.3282C181.69 90.5123 187.217 82.8155 187.217 74.5555C187.217 65.1691 180.308 56.9091 171.031 55.0318Z" fill="white"/>
<path fill-rule="evenodd" clip-rule="evenodd" d="M107.073 151.711C109.047 160.347 114.18 168.419 123.26 170.86C131.946 173.3 141.618 169.545 145.961 161.661C148.725 156.968 148.33 151.711 148.33 146.643C148.33 143.076 148.33 139.697 148.33 136.13C148.33 132.375 148.33 128.433 148.33 124.679C148.33 119.798 148.132 115.105 150.698 110.599C154.054 104.404 160.766 100.65 167.872 100.837C174.978 101.213 181.493 105.718 184.256 112.101C186.23 116.419 185.835 121.112 185.835 125.805C185.835 129.56 185.835 133.314 185.835 137.069C185.835 145.329 186.428 153.776 184.848 161.849C181.098 180.621 168.07 196.766 150.501 204.275C132.735 211.784 112.008 209.907 96.0192 199.206C88.1232 193.95 81.8065 186.629 77.4637 178.181C73.3184 169.921 70.7522 159.596 72.3314 150.21C73.5158 143.264 79.0429 137.632 85.9519 136.318C93.2556 134.816 100.757 138.195 104.507 144.39C105.889 146.643 106.481 149.083 107.073 151.711Z" fill="white"/>
<defs>
<linearGradient id="paint0_linear_83_286" x1="128" y1="1" x2="128" y2="255" gradientUnits="userSpaceOnUse">
<stop stop-color="#FFBD38"/>
<stop offset="1" stop-color="#FFAB01"/>
</linearGradient>
</defs>
</svg>
