<svg width="256" height="256" viewBox="0 0 256 256" fill="none" xmlns="http://www.w3.org/2000/svg">
<path d="M106.429 254.324C77.8036 252.299 57.2862 246.329 40.0761 235.018C21.6571 222.911 8.93954 200.243 3.9843 170.687C1.69292 157.021 0.962957 146.366 1.00143 127.164C1.07014 93.0812 4.72734 71.9613 13.9373 52.4684C22.7757 33.762 33.8514 22.6792 52.4395 13.9416C72.1839 4.66056 93.5545 1 127.994 1C162.433 1 183.803 4.66056 203.548 13.9416C222.119 22.6715 233.122 33.6726 242.078 52.4684C251.216 71.6451 254.915 93.0336 254.999 127.164C255.1 168.687 249.55 193.658 235.416 215.277C222.216 235.466 198.18 248.266 165.151 252.695C147.932 255.004 125.031 255.639 106.429 254.324Z" fill="url(#paint0_linear_83_282)"/>
<path d="M93.3259 131.035C93.3259 111.747 108.955 96.1302 128.242 96.1302C147.528 96.1302 163.157 111.747 163.157 131.035C163.157 150.323 147.528 165.94 128.242 165.94C108.955 165.94 93.3259 150.323 93.3259 131.035Z" fill="white"/>
<path d="M128.108 38.0133C76.6993 38.0133 35 79.6591 35 130.782C35 169.358 58.2771 202.194 92.1287 216.876C94.5107 217.888 97.0872 218.354 99.6712 218.242C102.255 218.129 104.782 217.441 107.068 216.227C109.354 215.013 111.342 213.303 112.887 211.222C114.433 209.141 115.498 206.741 116.004 204.196C116.804 200.235 116.207 196.118 114.314 192.55C112.421 188.982 109.351 186.186 105.629 184.641C84.68 175.831 69.9157 155.135 69.9157 130.975C69.9157 98.8067 95.986 72.7782 128.108 72.7782C160.231 72.7782 186.301 98.8067 186.301 130.975C186.301 155.135 171.537 175.825 150.587 184.634V184.648C146.834 186.168 143.728 188.958 141.807 192.534C139.886 196.109 139.27 200.247 140.067 204.229C140.864 208.212 143.023 211.79 146.171 214.345C149.318 216.899 153.257 218.269 157.305 218.218C159.609 218.2 161.889 217.74 164.022 216.863C197.873 202.514 221.217 169.611 221.217 130.768C221.217 79.3788 179.518 38 128.108 38" fill="white"/>
<defs>
<linearGradient id="paint0_linear_83_282" x1="128" y1="1" x2="128" y2="255" gradientUnits="userSpaceOnUse">
<stop stop-color="#00D318"/>
<stop offset="1" stop-color="#01AA14"/>
</linearGradient>
</defs>
</svg>
