<svg width="256" height="256" viewBox="0 0 256 256" fill="none" xmlns="http://www.w3.org/2000/svg">
<mask id="mask0_83_292" style="mask-type:alpha" maskUnits="userSpaceOnUse" x="1" y="1" width="254" height="254">
<path d="M106.429 254.324C77.8036 252.299 57.2862 246.329 40.0761 235.018C21.6571 222.911 8.93954 200.243 3.9843 170.687C1.69292 157.021 0.962957 146.366 1.00143 127.164C1.07014 93.0812 4.72734 71.9613 13.9373 52.4684C22.7757 33.762 33.8514 22.6792 52.4395 13.9416C72.1839 4.66056 93.5545 1 127.994 1C162.433 1 183.803 4.66056 203.548 13.9416C222.119 22.6715 233.122 33.6726 242.078 52.4684C251.216 71.6451 254.915 93.0336 254.999 127.164C255.1 168.687 249.55 193.658 235.416 215.277C222.216 235.466 198.18 248.266 165.151 252.695C147.932 255.004 125.031 255.639 106.429 254.324Z" fill="white"/>
</mask>
<g mask="url(#mask0_83_292)">
<rect x="1" y="1" width="254.001" height="254.001" fill="url(#paint0_linear_83_292)"/>
<g filter="url(#filter0_d_83_292)">
<path d="M129.234 200.928C110.492 198.504 94.2301 187.952 86.9327 173.479C82.8717 165.425 82.7103 164.397 82.3797 144.475L82.0814 126.497L79.387 125.864C69.3634 123.509 62.0772 117.584 57.6154 108.158C54.7067 102.014 54.1672 98.6163 53.9169 84.8678L53.9169 72.3626H77.5009V82.044H70.8225C65.289 82.044 64.0892 82.1869 63.8238 82.8773C63.2194 84.4492 64.0331 96.785 64.922 99.5242C68.0719 109.232 74.351 114.956 83.544 116.5C90.7784 117.715 98.5973 115.202 104.019 109.919C109.522 104.556 111.451 99.1131 111.451 88.9385V82.044H97.9785V72.3626H121.549V85.1366C121.344 96.0451 121.151 98.3885 120.228 101.182C118.336 106.915 115.181 112.201 111.103 116.471C106.564 121.223 101.938 124.121 96.7707 125.45L93.0384 126.409L93.2634 143.086C93.4463 156.642 93.6594 160.368 94.4026 162.991C98.8616 178.729 113.076 189.188 132.871 191.296C144.816 193.471 163.072 185.182 170.547 170.336C173.762 163.95 174.14 161.148 174.259 142.821L174.365 137.104H185.279V144.012C185.043 163.114 184.925 164.083 181.946 171.444C177.221 183.12 166.281 193.116 153.091 197.807C146.571 200.126 141.678 200.938 132.871 201.162C128.863 200.879 131.16 201.176 129.234 200.928ZM176.672 113.243C166.741 111.496 159.04 102.312 159.014 92.1854C158.999 86.852 162.06 80.3251 166.464 76.2959C167.253 75.5738 169.475 74.2119 171.402 73.2695C174.63 71.6898 175.326 71.5559 180.304 71.5559C185.316 71.5559 185.962 71.6826 189.289 73.3169C199.082 78.1288 203.766 89.2564 200.221 99.2853C196.834 108.867 186.527 114.976 176.672 113.243ZM186.609 101.628C189.908 99.3144 191.32 96.5455 191.331 92.3709C191.342 88.3972 190.597 86.722 187.633 84.0495C181.019 78.0849 170.593 81.8554 168.953 90.8056C168.153 95.1697 171.113 100.566 175.405 102.57C178.756 104.134 183.621 103.725 186.609 101.628Z" fill="#FEFEFE"/>
<path d="M129.17 201.424L129.17 201.424C110.295 198.982 93.8716 188.351 86.4862 173.704C84.4521 169.67 83.3655 167.341 82.7633 163.505C82.1673 159.708 82.0448 154.428 81.8798 144.483L81.588 126.894L79.2727 126.35C69.0987 123.96 61.6895 117.933 57.1634 108.372C55.6951 105.27 54.8146 102.839 54.2754 99.443C53.7394 96.0677 53.542 91.748 53.417 84.8769L53.4168 84.8678H53.4169L53.4169 72.3626L53.4169 71.8626H53.9169H77.5009H78.0009V72.3626V82.044V82.544H77.5009H70.8225C68.0482 82.544 66.3964 82.5804 65.4068 82.6982C64.9094 82.7575 64.6256 82.8327 64.463 82.9088C64.3248 82.9734 64.3034 83.0231 64.2905 83.0567L129.17 201.424ZM129.17 201.424C129.646 201.485 129.875 201.515 130.003 201.527C130.138 201.54 130.198 201.537 130.261 201.533C130.272 201.533 130.284 201.532 130.296 201.531C130.429 201.525 130.827 201.519 132.836 201.661L132.86 201.663L132.884 201.662C141.73 201.437 146.678 200.619 153.259 198.278C166.566 193.545 177.625 183.456 182.41 171.632C183.903 167.941 184.698 165.809 185.138 162.191C185.573 158.608 185.661 153.556 185.779 144.018V144.012V137.104V136.604H185.279H174.365H173.875L173.865 137.095L173.759 142.812L173.759 142.818C173.699 151.99 173.574 157.238 173.068 160.99C172.566 164.708 171.691 166.951 170.1 170.111C166.418 177.424 160.071 183.139 153.154 186.756C146.229 190.377 138.793 191.866 132.961 190.804L132.943 190.8L132.924 190.798C113.276 188.706 99.2732 178.348 94.8836 162.854C94.1631 160.311 93.9467 156.67 93.7633 143.08L93.5437 126.796L96.8952 125.934C102.172 124.577 106.876 121.62 111.464 116.816C115.595 112.491 118.788 107.141 120.703 101.339C121.654 98.4581 121.844 96.0295 122.049 85.146L122.049 85.146V85.1366V72.3626V71.8626H121.549H97.9785H97.4785V72.3626V82.044V82.544H97.9785H110.951M129.17 201.424L110.951 82.544M110.951 82.544V88.9385C110.951 93.9985 110.47 97.8391 109.327 101.066C108.188 104.284 106.378 106.923 103.67 109.561C98.3583 114.737 90.6982 117.195 83.6268 116.007C74.6383 114.498 68.4967 108.922 65.3975 99.3699C65.1922 98.737 64.979 97.4977 64.7867 95.9278C64.5962 94.3728 64.4309 92.5344 64.3118 90.7301C64.1928 88.9254 64.1205 87.1614 64.1154 85.7545C64.1128 85.0505 64.1271 84.4422 64.1598 83.9658C64.194 83.4678 64.2453 83.1741 64.2905 83.0567L110.951 82.544ZM166.126 75.927L166.464 76.2959L166.126 75.927C161.633 80.0387 158.499 86.6949 158.514 92.1867C158.54 102.554 166.414 111.946 176.585 113.735C186.686 115.512 197.226 109.259 200.693 99.4519C204.326 89.1745 199.521 77.7874 189.509 72.8681C187.846 72.0509 186.8 71.5828 185.525 71.3329C184.265 71.0859 182.799 71.0559 180.304 71.0559C177.825 71.0559 176.358 71.0878 175.103 71.3293C173.832 71.574 172.798 72.0294 171.182 72.8204C170.203 73.2992 169.152 73.883 168.245 74.439C167.347 74.9893 166.559 75.5313 166.126 75.927ZM190.831 92.3696C190.826 94.4002 190.48 96.054 189.758 97.4702C189.036 98.8852 187.921 100.098 186.322 101.219C184.915 102.206 183.041 102.81 181.101 102.973C179.162 103.136 177.198 102.855 175.616 102.116C173.582 101.167 171.842 99.4002 170.708 97.3324C169.572 95.2627 169.07 92.9392 169.444 90.8957C171.019 82.3046 180.994 78.7357 187.299 84.4208C188.762 85.7401 189.628 86.7708 190.141 87.9253C190.654 89.0796 190.836 90.4086 190.831 92.3696Z" stroke="white"/>
</g>
</g>
<defs>
<filter id="filter0_d_83_292" x="4.91687" y="22.5559" width="245.484" height="227.607" filterUnits="userSpaceOnUse" color-interpolation-filters="sRGB">
<feFlood flood-opacity="0" result="BackgroundImageFix"/>
<feColorMatrix in="SourceAlpha" type="matrix" values="0 0 0 0 0 0 0 0 0 0 0 0 0 0 0 0 0 0 127 0" result="hardAlpha"/>
<feOffset/>
<feGaussianBlur stdDeviation="24"/>
<feComposite in2="hardAlpha" operator="out"/>
<feColorMatrix type="matrix" values="0 0 0 0 0 0 0 0 0 0 0 0 0 0 0 0 0 0 0.25 0"/>
<feBlend mode="normal" in2="BackgroundImageFix" result="effect1_dropShadow_83_292"/>
<feBlend mode="normal" in="SourceGraphic" in2="effect1_dropShadow_83_292" result="shape"/>
</filter>
<linearGradient id="paint0_linear_83_292" x1="1.00001" y1="-68.273" x2="250.532" y2="250.532" gradientUnits="userSpaceOnUse">
<stop stop-color="#F86892"/>
<stop offset="1" stop-color="#E50B4B"/>
</linearGradient>
</defs>
</svg>
