<svg width="341" height="341" viewBox="0 0 341 341" fill="none" xmlns="http://www.w3.org/2000/svg">
<rect width="341" height="341" fill="url(#paint0_linear_76_212)"/>
<path d="M172.602 276.653L172.604 276.653L172.704 276.666C173.248 276.736 173.6 276.781 173.826 276.803C173.979 276.818 174.182 276.834 174.421 276.831C174.501 276.83 174.645 276.824 174.705 276.821C174.792 276.82 175.375 276.825 177.717 276.99L177.908 277.004L178.1 276.999C190.236 276.69 197.242 275.553 206.485 272.265C225.136 265.631 240.768 251.464 247.591 234.604C249.623 229.584 250.827 226.389 251.472 221.082C252.084 216.046 252.2 209.042 252.358 196.324L252.358 196.299V196.275V187V183H248.358H233.705H229.779L229.706 186.925L229.563 194.601L229.563 194.625L229.562 194.65C229.482 207.024 229.31 213.839 228.665 218.622C228.055 223.142 227.032 225.792 225.006 229.816C220.433 238.9 212.476 246.112 203.686 250.709C194.838 255.336 185.614 257.075 178.715 255.819L178.569 255.792L178.422 255.776C153.027 253.072 135.633 239.832 130.202 220.663C129.385 217.782 129.073 213.453 128.823 194.978L128.564 175.733L130.528 175.228C138.34 173.219 145.176 168.857 151.666 162.062C157.561 155.89 162.101 148.275 164.823 140.029C166.292 135.58 166.525 131.752 166.797 117.308L166.798 117.27V117.233V100.083V96.0831H162.798H131.154H127.154V100.083V113.081V117.081H131.154H145.241V122.337C145.241 128.948 144.608 133.679 143.252 137.507C141.924 141.258 139.815 144.382 136.472 147.639C130.072 153.875 120.846 156.807 112.438 155.394C101.732 153.596 94.4021 147.095 90.5794 135.314L86.7947 136.542L90.5794 135.314C90.4157 134.809 90.1582 133.447 89.8971 131.315C89.6506 129.302 89.4337 126.898 89.2771 124.523C89.1202 122.144 89.0271 119.849 89.0205 118.05C89.0194 117.735 89.0209 117.441 89.025 117.17C90.229 117.107 92.0177 117.081 94.6963 117.081H103.662H107.662V113.081V100.083V96.0831H103.662H72H68.0001L68 100.083L68 116.872V116.908L68.0007 116.944C68.1682 126.149 68.4328 132.169 69.1938 136.961C69.9807 141.917 71.2854 145.49 73.35 149.851C79.8534 163.589 90.6196 172.36 105.28 175.804L105.864 175.941L106.213 196.962C106.432 210.204 106.594 217.577 107.439 222.96C108.332 228.654 109.998 232.171 112.753 237.636C123.253 258.46 146.377 273.26 172.602 276.653ZM220.397 102.412C213.765 108.481 209.073 118.279 209.095 126.706C209.135 142.228 220.855 156.222 236.109 158.905C251.31 161.579 267.006 152.224 272.189 137.561C277.651 122.108 270.4 105.093 255.504 97.7741C253.27 96.6764 251.515 95.8628 249.328 95.434C247.26 95.0288 244.956 95 241.679 95C238.417 95 236.119 95.032 234.066 95.4271C231.887 95.8465 230.154 96.6384 227.969 97.7074C226.552 98.4007 225.048 99.2364 223.749 100.033C222.525 100.783 221.231 101.65 220.397 102.412ZM252.483 126.934C252.477 129.283 252.079 130.957 251.405 132.278C250.736 133.59 249.654 134.831 247.846 136.099C246.535 137.018 244.616 137.682 242.47 137.862C240.326 138.042 238.292 137.712 236.793 137.012C234.805 136.084 232.954 134.267 231.713 132.005C230.465 129.728 230.04 127.385 230.373 125.564C232.049 116.421 242.439 112.972 248.84 118.744C250.678 120.402 251.435 121.411 251.842 122.328C252.249 123.243 252.489 124.474 252.483 126.934Z" fill="#FEFEFE" stroke="white" stroke-width="8"/>
<defs>
<linearGradient id="paint0_linear_76_212" x1="1.3411e-05" y1="-93" x2="335" y2="335" gradientUnits="userSpaceOnUse">
<stop stop-color="#F86892"/>
<stop offset="1" stop-color="#E50B4B"/>
</linearGradient>
</defs>
</svg>
