<svg width="341" height="341" viewBox="0 0 341 341" fill="none" xmlns="http://www.w3.org/2000/svg">
<g clip-path="url(#clip0_71_32)">
<rect width="341" height="341" fill="url(#paint0_linear_71_32)"/>
<g filter="url(#filter0_d_71_32)">
<path d="M242.846 165.439C242.747 165.659 242.176 166.949 241.57 168.322C240.963 169.685 240.466 170.829 240.475 170.856C240.475 170.884 241.633 170.911 243.054 170.911C244.476 170.911 245.634 170.902 245.634 170.884C245.634 170.874 245.408 170.353 245.127 169.722C244.847 169.09 244.557 168.431 244.485 168.258C244.412 168.084 244.276 167.773 244.186 167.571C244.095 167.37 243.833 166.784 243.607 166.263C243.38 165.751 243.19 165.293 243.199 165.247C243.208 165.192 243.163 165.128 243.118 165.101C243.063 165.073 242.946 165.22 242.846 165.439Z" fill="#FBD401"/>
<path fill-rule="evenodd" clip-rule="evenodd" d="M165.062 127.093C166.529 127.084 167.751 127.056 167.778 127.02C167.814 126.992 170.358 126.992 173.445 127.029C176.531 127.065 179.419 127.102 179.872 127.129C180.315 127.157 181.582 127.193 182.678 127.221C183.773 127.248 185.665 127.312 186.887 127.367C188.109 127.413 190.209 127.514 191.549 127.587C191.837 127.605 192.171 127.625 192.532 127.647L192.532 127.647L192.532 127.647C193.845 127.727 195.513 127.828 196.663 127.907C198.129 128.008 200.311 128.172 201.506 128.273C202.701 128.374 204.755 128.566 206.077 128.694C207.399 128.822 209.58 129.042 210.92 129.197C212.26 129.344 214.342 129.591 215.536 129.746C216.731 129.893 219.257 130.24 221.149 130.515C223.04 130.789 225.584 131.183 226.806 131.384C228.028 131.594 230.038 131.942 231.287 132.171C232.527 132.4 234.482 132.766 235.632 132.994C236.781 133.223 239.099 133.717 240.791 134.092C242.484 134.477 245.336 135.154 247.128 135.611C248.92 136.06 251.726 136.819 253.374 137.295C255.021 137.771 257.32 138.475 258.488 138.85C259.656 139.235 261.249 139.765 262.018 140.031C262.504 140.198 263.138 140.424 263.697 140.623C264.023 140.739 264.323 140.846 264.553 140.927C265.177 141.156 266.056 141.485 266.499 141.659C266.943 141.833 268.029 142.263 268.898 142.62C269.767 142.977 270.853 143.425 271.297 143.626C271.671 143.789 272.311 144.075 272.834 144.309L273.107 144.432C273.659 144.669 275.18 145.411 276.502 146.079C277.823 146.746 279.471 147.616 280.168 148.018C280.865 148.412 281.824 148.97 282.295 149.263C282.766 149.555 283.852 150.26 284.694 150.827C285.535 151.395 286.721 152.236 287.319 152.694C287.916 153.16 288.876 153.947 289.446 154.441C290.016 154.936 291.075 155.951 291.799 156.701C292.524 157.443 293.501 158.568 293.972 159.181C294.443 159.803 295.112 160.764 295.447 161.331C295.782 161.899 296.226 162.704 296.425 163.134C296.624 163.564 296.932 164.287 297.095 164.735C297.267 165.192 297.511 165.988 297.638 166.519C297.756 167.05 297.891 167.709 297.928 167.983C297.973 168.258 298 169.191 298 170.042C298 170.893 297.973 171.78 297.937 172.009C297.902 172.225 297.836 172.589 297.79 172.836L297.783 172.878C297.737 173.134 297.611 173.647 297.511 174.022C297.412 174.397 297.185 175.102 297.004 175.577C296.823 176.053 296.416 176.95 296.09 177.572C295.773 178.185 295.239 179.091 294.913 179.585C294.578 180.07 293.999 180.857 293.619 181.333C293.239 181.808 292.524 182.632 292.017 183.163C291.51 183.693 290.623 184.562 290.034 185.093C289.455 185.624 288.396 186.511 287.69 187.06C286.993 187.619 285.744 188.524 284.92 189.082C284.096 189.641 282.811 190.473 282.069 190.922C281.317 191.379 279.996 192.139 279.127 192.614C278.258 193.09 277.135 193.694 276.637 193.941C276.139 194.197 275.098 194.7 274.329 195.066C273.56 195.432 272.31 195.991 271.568 196.32C270.817 196.649 269.495 197.198 268.626 197.555C267.757 197.912 266.191 198.516 265.141 198.909C264.091 199.303 262.199 199.98 260.932 200.41C259.665 200.84 257.682 201.48 256.542 201.828C255.392 202.185 253.274 202.807 251.835 203.21C250.396 203.612 247.988 204.253 246.494 204.628C245.001 205.003 242.674 205.552 241.335 205.854C239.986 206.156 237.976 206.595 236.854 206.824C235.731 207.053 233.595 207.474 232.102 207.748C230.608 208.023 228.426 208.407 227.259 208.608C226.091 208.8 224.027 209.13 222.687 209.331C221.339 209.532 219.166 209.843 217.845 210.026C216.523 210.2 214.405 210.466 213.138 210.621C211.87 210.767 209.644 211.015 208.204 211.161C206.765 211.316 204.149 211.563 202.411 211.71C200.664 211.865 198.021 212.067 196.527 212.177C195.329 212.257 193.583 212.362 192.234 212.442C191.901 212.462 191.593 212.48 191.322 212.497C189.955 212.57 187.774 212.671 186.48 212.726L185.973 212.743C184.603 212.792 182.469 212.868 180.913 212.909C179.147 212.954 174.685 213 171.001 213C167.316 213 162.872 212.954 161.134 212.909C159.387 212.863 156.907 212.78 155.612 212.726C154.318 212.671 152.136 212.57 150.769 212.497C150.698 212.492 150.623 212.488 150.546 212.483L149.858 212.442C148.509 212.362 146.763 212.257 145.565 212.177C144.071 212.076 141.419 211.865 139.681 211.719C137.934 211.563 135.128 211.298 133.435 211.115C131.742 210.941 129.199 210.658 127.777 210.475C126.356 210.301 124.319 210.035 123.251 209.889C122.183 209.743 120.201 209.459 118.861 209.249C117.512 209.047 115.684 208.755 114.788 208.599C113.892 208.453 112.244 208.16 111.122 207.958C109.999 207.757 107.782 207.327 106.188 207.007C104.595 206.687 102.251 206.193 100.983 205.909C99.7162 205.625 97.3717 205.067 95.7786 204.674C94.1854 204.271 91.9224 203.686 90.7547 203.356C90.548 203.298 90.332 203.237 90.113 203.175L90.1106 203.175C89.0926 202.888 88.0096 202.583 87.496 202.432C86.8714 202.249 85.5317 201.837 84.5088 201.517C83.486 201.197 81.8747 200.666 80.9333 200.346C79.9828 200.016 78.4621 199.477 77.5388 199.138C76.6155 198.8 75.1943 198.26 74.3706 197.93C73.5469 197.61 72.2072 197.052 71.3835 196.695C70.5597 196.347 69.22 195.744 68.3963 195.368C67.5726 194.993 66.1061 194.27 65.1376 193.776C64.169 193.282 62.8022 192.559 62.1052 192.166C61.4082 191.773 60.4668 191.224 60.0232 190.949C59.5706 190.684 58.5749 190.043 57.8055 189.531C57.0361 189.028 55.9317 188.259 55.3614 187.829C54.7912 187.399 53.8498 186.658 53.2795 186.191C52.7092 185.725 51.5234 184.608 50.6453 183.73C49.7673 182.842 48.7263 181.708 48.3371 181.205C47.9388 180.701 47.3504 179.878 47.0246 179.375C46.6896 178.871 46.237 178.112 46.0107 177.682C45.7844 177.252 45.4314 176.502 45.2323 176.017C45.0241 175.523 44.7435 174.699 44.5986 174.187C44.4538 173.665 44.2818 172.997 44.2275 172.695C44.1732 172.393 44.0917 171.661 44.0464 171.076C43.9831 170.344 43.9831 169.639 44.0555 168.88C44.1098 168.258 44.2094 167.462 44.2818 167.114C44.3542 166.766 44.5081 166.144 44.6258 165.741C44.7435 165.339 44.9698 164.68 45.1327 164.277C45.2866 163.875 45.6215 163.152 45.8659 162.676C46.1012 162.2 46.4995 161.496 46.7349 161.121C46.9702 160.736 47.3323 160.206 47.5224 159.931C47.7216 159.657 48.147 159.099 48.4729 158.696C48.7987 158.293 49.3871 157.598 49.7854 157.159C50.1927 156.711 51.0255 155.878 51.6501 155.311C52.2747 154.743 53.2704 153.874 53.8679 153.389C54.4653 152.913 55.5877 152.072 56.3572 151.523C57.1266 150.974 58.249 150.223 58.8464 149.839C59.4439 149.464 60.6206 148.75 61.4715 148.265C62.3134 147.771 64.0876 146.82 65.4091 146.152C66.7307 145.493 68.4959 144.633 69.3468 144.258C70.1886 143.873 71.6369 143.251 72.5602 142.867C73.4835 142.483 74.9499 141.897 75.8189 141.568C76.6879 141.238 77.9099 140.781 78.5345 140.561C79.1591 140.332 80.5803 139.838 81.7027 139.463C82.8252 139.088 84.7985 138.457 86.0929 138.063C87.3874 137.67 89.3426 137.093 90.4379 136.792C91.5332 136.49 93.4703 135.977 94.7376 135.657C96.0049 135.328 97.942 134.852 99.0373 134.596C100.133 134.339 101.988 133.928 103.156 133.681C104.324 133.424 106.442 132.994 107.863 132.72C109.284 132.445 111.764 131.988 113.385 131.713C115.005 131.43 117.386 131.045 118.68 130.844C119.975 130.643 122.256 130.313 123.749 130.112C125.243 129.911 127.506 129.618 128.773 129.472C130.04 129.316 132.484 129.051 134.204 128.877C135.924 128.694 138.812 128.429 140.631 128.273C142.451 128.127 145.193 127.916 146.741 127.816C147.172 127.79 147.642 127.761 148.116 127.733L148.116 127.733C149.336 127.659 150.583 127.583 151.267 127.55C152.209 127.495 154.064 127.413 155.386 127.358C156.708 127.303 158.826 127.221 160.093 127.184C161.36 127.148 163.605 127.102 165.062 127.093ZM229.676 150.9C229.594 150.736 229.522 150.58 229.522 150.562C229.522 150.534 236.247 150.516 244.457 150.516C252.677 150.516 259.393 150.534 259.393 150.562C259.393 150.58 259.33 150.717 259.248 150.855C259.131 151.047 259.104 151.239 259.14 151.66C259.176 152.062 259.348 152.584 259.828 153.719C259.985 154.094 260.468 155.238 261.134 156.816C261.928 158.696 262.982 161.191 264.055 163.738C266.037 168.413 268.672 174.653 269.912 177.6C271.161 180.537 272.301 183.19 272.464 183.492C272.618 183.785 272.863 184.114 272.998 184.224C273.134 184.325 273.252 184.444 273.252 184.48C273.252 184.517 267.929 184.553 261.43 184.553C254.94 184.553 249.617 184.535 249.617 184.526C249.617 184.517 249.68 184.315 249.762 184.096C249.852 183.831 249.889 183.529 249.862 183.272C249.834 183.044 249.49 181.946 249.092 180.848L248.882 180.263L248.882 180.261C248.57 179.393 248.302 178.647 248.169 178.332L237.895 178.322L237.632 178.99C237.487 179.356 237.107 180.335 236.79 181.168C236.465 181.991 236.157 182.733 236.102 182.797C236.039 182.87 236.021 183.062 236.048 183.254C236.084 183.437 236.175 183.73 236.256 183.913C236.338 184.087 236.41 184.242 236.41 184.251C236.41 184.261 232.129 184.279 217.392 184.279L217.781 183.885C217.989 183.675 218.234 183.336 218.315 183.135C218.406 182.934 218.741 182.046 219.058 181.168C219.102 181.047 219.155 180.903 219.214 180.741L219.358 180.35C219.744 179.299 220.31 177.761 220.787 176.456C221.42 174.745 222.144 172.787 222.389 172.11C222.624 171.449 223.119 170.111 223.503 169.073L223.504 169.071L223.547 168.953C223.774 168.335 224.09 167.483 224.393 166.667L224.395 166.662L224.395 166.661C224.611 166.078 224.821 165.513 224.987 165.064C225.039 164.922 225.094 164.77 225.152 164.613C225.23 164.401 225.312 164.178 225.395 163.95L225.403 163.929L225.404 163.927C225.732 163.034 226.084 162.073 226.308 161.45C226.488 160.958 226.762 160.215 227.051 159.434C227.299 158.762 227.557 158.062 227.775 157.47C228.17 156.386 228.68 155.012 229.011 154.123C229.074 153.954 229.13 153.802 229.178 153.673C229.495 152.822 229.748 151.989 229.775 151.706C229.811 151.34 229.784 151.111 229.676 150.9ZM142.188 150.608C142.179 150.635 142.233 150.818 142.315 151.019C142.423 151.276 142.451 151.559 142.433 151.98L142.387 152.575C141.038 154.366 140.132 155.56 139.509 156.382L139.273 156.692L139.248 156.725L139.247 156.727C138.62 157.557 137.295 159.31 136.286 160.654C135.272 162.017 134.403 163.134 134.367 163.134C134.331 163.134 134.304 160.736 134.304 157.809C134.313 154.551 134.349 152.264 134.412 151.934C134.458 151.632 134.575 151.266 134.675 151.129C134.765 150.992 134.838 150.855 134.838 150.836C134.838 150.809 129.868 150.791 123.794 150.791C117.721 150.791 112.751 150.818 112.751 150.855C112.751 150.891 112.814 150.983 112.887 151.065C112.968 151.138 113.095 151.468 113.167 151.797C113.285 152.31 113.303 154.277 113.276 167.718C113.258 176.145 113.213 183.181 113.176 183.364C113.14 183.538 113.032 183.794 112.932 183.931C112.833 184.068 112.751 184.206 112.751 184.233C112.751 184.251 117.721 184.279 123.794 184.279C129.868 184.279 134.838 184.251 134.838 184.233C134.838 184.206 134.756 184.068 134.657 183.931C134.557 183.794 134.44 183.41 134.385 183.089C134.322 182.696 134.295 180.509 134.313 176.877L134.34 171.268C139.672 179.75 141.265 182.357 141.328 182.54C141.392 182.714 141.446 183.062 141.446 183.318C141.446 183.565 141.392 183.885 141.31 184.023L141.174 184.279C161.876 184.279 167.878 184.242 167.887 184.206C167.887 184.169 167.706 184.068 167.497 183.995C167.289 183.913 166.909 183.684 166.656 183.492C166.257 183.181 165.85 182.568 163.56 178.88L162.811 177.669C161.329 175.272 159.255 171.916 157.794 169.566C156.074 166.784 154.662 164.488 154.662 164.47C154.662 164.442 156.644 161.569 159.07 158.083C161.487 154.597 163.623 151.532 163.822 151.266C164.012 151.001 164.157 150.763 164.148 150.745C164.139 150.727 159.197 150.672 153.168 150.635C147.14 150.599 142.197 150.589 142.188 150.608ZM78.9238 151.129C78.9871 151.266 79.0595 151.541 79.0867 151.742C79.1048 151.944 79.1229 159.227 79.1229 167.937C79.1229 182.897 79.1138 183.785 78.96 184.132C78.8694 184.334 78.8061 184.508 78.8061 184.526C78.8061 184.535 83.7756 184.544 89.8495 184.544C95.9234 184.544 100.893 184.517 100.893 184.48C100.893 184.434 100.839 184.325 100.766 184.224C100.703 184.123 100.594 183.821 100.54 183.565C100.467 183.217 100.44 178.762 100.44 167.617C100.44 157.937 100.477 151.989 100.531 151.724C100.576 151.477 100.685 151.221 100.757 151.148C100.839 151.074 100.902 150.983 100.893 150.946C100.893 150.9 95.9234 150.873 89.8495 150.873H78.797L78.9238 151.129ZM172.766 150.553C172.766 150.58 172.829 150.736 172.911 150.9C172.992 151.056 173.092 151.312 173.119 151.468C173.146 151.623 173.173 158.842 173.173 167.526C173.173 176.209 173.146 183.455 173.119 183.629C173.092 183.803 173.001 184.05 172.92 184.178C172.829 184.306 172.766 184.434 172.766 184.48C172.766 184.517 181.501 184.544 192.182 184.544H211.599C211.599 176.392 211.581 174.022 211.554 174.022C211.526 174.022 211.3 174.132 211.038 174.278L210.567 174.525L193.857 174.571V171.46C204.583 171.46 206.249 171.487 206.62 171.579C206.892 171.643 207.227 171.762 207.362 171.853L207.391 171.869C207.523 171.945 207.636 172.009 207.661 172.009C207.688 172.009 207.706 169.905 207.706 167.343C207.706 164.781 207.679 162.685 207.634 162.704C207.598 162.722 207.408 162.813 207.209 162.905C206.883 163.061 206.521 163.088 203.633 163.143C201.868 163.179 198.944 163.207 197.134 163.216L193.857 163.225V160.48C210.223 160.526 210.847 160.535 211.128 160.691C211.282 160.773 211.436 160.819 211.454 160.782C211.472 160.736 211.472 158.449 211.445 155.677L211.391 150.644C197.695 150.534 189.005 150.507 183.248 150.507C177.482 150.507 172.766 150.525 172.766 150.553Z" fill="#FBD401"/>
</g>
</g>
<defs>
<filter id="filter0_d_71_32" x="-4" y="79" width="350" height="182" filterUnits="userSpaceOnUse" color-interpolation-filters="sRGB">
<feFlood flood-opacity="0" result="BackgroundImageFix"/>
<feColorMatrix in="SourceAlpha" type="matrix" values="0 0 0 0 0 0 0 0 0 0 0 0 0 0 0 0 0 0 127 0" result="hardAlpha"/>
<feOffset/>
<feGaussianBlur stdDeviation="24"/>
<feComposite in2="hardAlpha" operator="out"/>
<feColorMatrix type="matrix" values="0 0 0 0 0 0 0 0 0 0 0 0 0 0 0 0 0 0 0.25 0"/>
<feBlend mode="normal" in2="BackgroundImageFix" result="effect1_dropShadow_71_32"/>
<feBlend mode="normal" in="SourceGraphic" in2="effect1_dropShadow_71_32" result="shape"/>
</filter>
<linearGradient id="paint0_linear_71_32" x1="33.5" y1="9.28368e-06" x2="341" y2="341" gradientUnits="userSpaceOnUse">
<stop stop-color="#0C7BDF"/>
<stop offset="1" stop-color="#033E72"/>
</linearGradient>
<clipPath id="clip0_71_32">
<rect width="341" height="341" fill="white"/>
</clipPath>
</defs>
</svg>
