<svg width="256" height="256" viewBox="0 0 256 256" fill="none" xmlns="http://www.w3.org/2000/svg">
<mask id="mask0_83_297" style="mask-type:alpha" maskUnits="userSpaceOnUse" x="1" y="1" width="254" height="254">
<path d="M106.429 254.324C77.8036 252.299 57.2862 246.329 40.0761 235.018C21.6571 222.911 8.93954 200.243 3.9843 170.687C1.69292 157.021 0.962957 146.366 1.00143 127.164C1.07014 93.0812 4.72734 71.9613 13.9373 52.4684C22.7757 33.762 33.8514 22.6792 52.4395 13.9416C72.1839 4.66056 93.5545 1 127.994 1C162.433 1 183.803 4.66056 203.548 13.9416C222.119 22.6715 233.122 33.6726 242.078 52.4684C251.216 71.6451 254.915 93.0336 254.999 127.164C255.1 168.687 249.55 193.658 235.416 215.277C222.216 235.466 198.18 248.266 165.151 252.695C147.932 255.004 125.031 255.639 106.429 254.324Z" fill="white"/>
</mask>
<g mask="url(#mask0_83_297)">
<rect x="1" y="1" width="254.001" height="254.001" fill="url(#paint0_linear_83_297)"/>
<g filter="url(#filter0_d_83_297)">
<path d="M181.888 124.231C181.814 124.394 181.389 125.355 180.938 126.377C180.486 127.393 180.115 128.245 180.122 128.265C180.122 128.286 180.985 128.306 182.043 128.306C183.102 128.306 183.965 128.299 183.965 128.286C183.965 128.279 183.797 127.89 183.587 127.42C183.378 126.95 183.163 126.459 183.109 126.33C183.055 126.2 182.954 125.968 182.886 125.819C182.819 125.669 182.623 125.232 182.455 124.844C182.286 124.462 182.145 124.122 182.151 124.087C182.158 124.047 182.124 123.999 182.091 123.978C182.05 123.958 181.963 124.067 181.888 124.231Z" fill="#FBD401"/>
<path fill-rule="evenodd" clip-rule="evenodd" d="M123.95 95.6674C125.042 95.6605 125.952 95.6401 125.973 95.6128C126 95.5924 127.894 95.5924 130.193 95.6197C132.493 95.6469 134.643 95.6742 134.981 95.6946C135.311 95.7151 136.255 95.7423 137.071 95.7628C137.887 95.7832 139.296 95.8309 140.206 95.8718C141.116 95.9059 142.681 95.9809 143.678 96.0354C143.893 96.0486 144.142 96.0637 144.411 96.0801L144.411 96.0801L144.411 96.0801C145.389 96.1396 146.631 96.2151 147.488 96.2739C148.58 96.3489 150.205 96.4716 151.095 96.5465C151.985 96.6215 153.516 96.7646 154.5 96.8601C155.485 96.9555 157.11 97.119 158.107 97.2349C159.105 97.3439 160.656 97.528 161.546 97.6438C162.436 97.7529 164.317 98.0119 165.727 98.2163C167.136 98.4208 169.03 98.7138 169.941 98.8638C170.851 99.0205 172.348 99.2795 173.278 99.4499C174.202 99.6203 175.658 99.8929 176.515 100.063C177.371 100.234 179.097 100.602 180.358 100.881C181.619 101.167 183.743 101.672 185.078 102.012C186.413 102.346 188.503 102.912 189.73 103.266C190.957 103.621 192.67 104.146 193.539 104.425C194.409 104.711 195.596 105.107 196.169 105.304C196.531 105.429 197.003 105.597 197.419 105.746C197.662 105.832 197.886 105.912 198.057 105.972C198.522 106.143 199.176 106.388 199.507 106.517C199.837 106.647 200.646 106.967 201.293 107.233C201.941 107.499 202.75 107.833 203.08 107.983C203.359 108.104 203.836 108.317 204.225 108.491L204.429 108.582C204.84 108.76 205.973 109.312 206.957 109.809C207.942 110.307 209.169 110.954 209.688 111.254C210.207 111.547 210.922 111.963 211.272 112.181C211.623 112.399 212.432 112.924 213.059 113.346C213.686 113.769 214.569 114.396 215.014 114.737C215.459 115.084 216.174 115.67 216.599 116.038C217.024 116.407 217.813 117.163 218.352 117.722C218.891 118.274 219.62 119.112 219.97 119.569C220.321 120.032 220.82 120.748 221.069 121.17C221.319 121.593 221.649 122.193 221.797 122.513C221.946 122.833 222.175 123.372 222.296 123.706C222.424 124.047 222.607 124.639 222.701 125.035C222.789 125.43 222.89 125.921 222.917 126.125C222.95 126.33 222.971 127.025 222.971 127.659C222.971 128.293 222.95 128.954 222.923 129.124C222.898 129.285 222.848 129.556 222.814 129.74L222.809 129.771C222.775 129.962 222.681 130.344 222.606 130.623C222.532 130.903 222.364 131.428 222.229 131.782C222.094 132.136 221.791 132.804 221.548 133.268C221.312 133.724 220.914 134.399 220.671 134.767C220.422 135.128 219.99 135.714 219.707 136.069C219.424 136.423 218.891 137.037 218.514 137.432C218.136 137.827 217.475 138.475 217.037 138.87C216.606 139.265 215.817 139.926 215.291 140.335C214.772 140.751 213.841 141.426 213.228 141.841C212.614 142.257 211.657 142.877 211.104 143.211C210.544 143.552 209.56 144.118 208.912 144.472C208.265 144.827 207.429 145.276 207.058 145.46C206.687 145.651 205.912 146.026 205.339 146.299C204.766 146.571 203.835 146.987 203.282 147.232C202.723 147.478 201.738 147.887 201.091 148.153C200.444 148.418 199.277 148.868 198.495 149.161C197.713 149.454 196.304 149.959 195.36 150.279C194.416 150.599 192.939 151.076 192.09 151.335C191.234 151.601 189.656 152.065 188.584 152.364C187.512 152.664 185.718 153.141 184.606 153.421C183.493 153.7 181.76 154.109 180.762 154.334C179.758 154.559 178.261 154.886 177.425 155.056C176.589 155.227 174.997 155.54 173.885 155.745C172.772 155.949 171.148 156.236 170.278 156.385C169.408 156.529 167.871 156.774 166.873 156.924C165.868 157.074 164.25 157.306 163.265 157.442C162.281 157.571 160.703 157.769 159.759 157.885C158.815 157.994 157.157 158.178 156.085 158.287C155.013 158.403 153.064 158.587 151.769 158.696C150.468 158.812 148.499 158.962 147.387 159.043C146.494 159.104 145.194 159.181 144.189 159.241C143.941 159.256 143.711 159.27 143.51 159.282C142.492 159.337 140.867 159.411 139.903 159.452L139.525 159.466C138.505 159.502 136.915 159.559 135.756 159.589C134.441 159.623 131.117 159.657 128.373 159.657C125.629 159.657 122.318 159.623 121.024 159.589C119.722 159.555 117.875 159.493 116.911 159.452C115.946 159.411 114.321 159.337 113.303 159.282C113.25 159.279 113.195 159.275 113.137 159.272L112.625 159.241C111.619 159.181 110.319 159.104 109.426 159.043C108.314 158.968 106.338 158.812 105.044 158.703C103.742 158.587 101.652 158.389 100.391 158.253C99.1305 158.123 97.2359 157.912 96.1773 157.776C95.1187 157.646 93.6017 157.449 92.806 157.34C92.0104 157.231 90.5338 157.019 89.5359 156.863C88.5313 156.713 87.1693 156.495 86.5018 156.379C85.8343 156.27 84.6071 156.052 83.771 155.902C82.935 155.752 81.2831 155.431 80.0964 155.193C78.9097 154.954 77.1634 154.586 76.2194 154.375C75.2755 154.164 73.5291 153.748 72.3425 153.455C71.1558 153.155 69.4701 152.719 68.6003 152.473C68.4464 152.43 68.2855 152.385 68.1223 152.339L68.1205 152.338C67.3623 152.125 66.5556 151.897 66.173 151.785C65.7078 151.649 64.7099 151.342 63.948 151.104C63.1861 150.865 61.9859 150.47 61.2847 150.231C60.5767 149.986 59.444 149.584 58.7563 149.332C58.0685 149.079 57.0099 148.677 56.3964 148.432C55.7828 148.193 54.7849 147.778 54.1713 147.512C53.5578 147.253 52.5599 146.803 51.9463 146.524C51.3327 146.244 50.2404 145.706 49.519 145.338C48.7975 144.97 47.7794 144.431 47.2602 144.138C46.7411 143.845 46.0398 143.436 45.7095 143.232C45.3723 143.034 44.6307 142.557 44.0575 142.175C43.4844 141.801 42.6618 141.228 42.2371 140.908C41.8123 140.587 41.1111 140.035 40.6863 139.688C40.2615 139.34 39.3782 138.509 38.7242 137.854C38.0702 137.193 37.2948 136.348 37.0048 135.973C36.7082 135.599 36.2699 134.985 36.0272 134.61C35.7777 134.236 35.4406 133.67 35.272 133.35C35.1035 133.029 34.8405 132.47 34.6922 132.109C34.5371 131.741 34.3281 131.128 34.2202 130.746C34.1123 130.358 33.9842 129.86 33.9437 129.635C33.9033 129.41 33.8426 128.865 33.8089 128.429C33.7617 127.884 33.7617 127.359 33.8156 126.793C33.8561 126.33 33.9303 125.737 33.9842 125.478C34.0381 125.219 34.1528 124.755 34.2404 124.455C34.3281 124.156 34.4966 123.665 34.618 123.365C34.7326 123.065 34.9821 122.527 35.1641 122.172C35.3394 121.818 35.6361 121.293 35.8114 121.014C35.9867 120.727 36.2564 120.332 36.398 120.128C36.5464 119.923 36.8633 119.508 37.106 119.208C37.3487 118.908 37.787 118.39 38.0837 118.063C38.3871 117.729 39.0074 117.109 39.4726 116.686C39.9379 116.263 40.6795 115.616 41.1245 115.255C41.5695 114.9 42.4056 114.273 42.9787 113.864C43.5518 113.455 44.3879 112.897 44.8329 112.61C45.2779 112.331 46.1545 111.799 46.7883 111.438C47.4153 111.07 48.7369 110.361 49.7213 109.864C50.7057 109.373 52.0205 108.732 52.6543 108.453C53.2813 108.167 54.3601 107.703 55.0479 107.417C55.7356 107.131 56.8279 106.695 57.4752 106.449C58.1225 106.204 59.0327 105.863 59.4979 105.7C59.9632 105.529 61.0217 105.161 61.8578 104.882C62.6939 104.602 64.1638 104.132 65.1279 103.839C66.0921 103.546 67.5485 103.117 68.3644 102.892C69.1802 102.667 70.6231 102.285 71.5671 102.047C72.511 101.801 73.9539 101.447 74.7698 101.256C75.5856 101.065 76.9678 100.758 77.8376 100.574C78.7074 100.384 80.2852 100.063 81.3437 99.8588C82.4023 99.6544 84.2498 99.3136 85.4567 99.1091C86.6636 98.8978 88.4369 98.6116 89.4011 98.4617C90.3652 98.3117 92.0644 98.0664 93.1769 97.9164C94.2894 97.7665 95.975 97.5484 96.919 97.4394C97.8629 97.3235 99.6834 97.1259 100.965 96.9964C102.246 96.8601 104.396 96.6624 105.752 96.5465C107.107 96.4375 109.15 96.2807 110.303 96.2058C110.624 96.1867 110.974 96.1655 111.327 96.1441L111.327 96.144C112.235 96.089 113.164 96.0327 113.674 96.0081C114.375 95.9672 115.758 95.9059 116.742 95.865C117.726 95.8241 119.304 95.7628 120.248 95.7355C121.192 95.7083 122.864 95.6742 123.95 95.6674ZM172.078 113.401C172.017 113.278 171.963 113.162 171.963 113.149C171.963 113.128 176.973 113.115 183.089 113.115C189.211 113.115 194.214 113.128 194.214 113.149C194.214 113.162 194.167 113.265 194.106 113.367C194.018 113.51 193.998 113.653 194.025 113.967C194.052 114.266 194.18 114.655 194.537 115.5C194.654 115.78 195.014 116.632 195.511 117.807C196.102 119.207 196.887 121.066 197.686 122.963C199.163 126.446 201.125 131.094 202.049 133.288C202.979 135.476 203.829 137.452 203.95 137.677C204.065 137.895 204.247 138.141 204.348 138.223C204.449 138.297 204.537 138.386 204.537 138.413C204.537 138.441 200.572 138.468 195.731 138.468C190.896 138.468 186.932 138.454 186.932 138.447C186.932 138.441 186.979 138.291 187.04 138.127C187.107 137.929 187.134 137.705 187.114 137.514C187.094 137.343 186.837 136.525 186.541 135.708L186.384 135.272L186.384 135.271C186.152 134.624 185.952 134.068 185.853 133.833L178.2 133.827L178.005 134.324C177.897 134.597 177.614 135.326 177.378 135.946C177.135 136.56 176.906 137.112 176.865 137.159C176.818 137.214 176.804 137.357 176.825 137.5C176.852 137.636 176.919 137.854 176.98 137.991C177.04 138.12 177.094 138.236 177.094 138.243C177.094 138.25 173.905 138.263 162.928 138.263L163.218 137.97C163.373 137.814 163.555 137.561 163.616 137.411C163.684 137.262 163.933 136.6 164.169 135.946C164.202 135.856 164.241 135.749 164.286 135.628L164.393 135.337C164.681 134.554 165.102 133.408 165.457 132.436C165.929 131.162 166.468 129.703 166.65 129.199C166.825 128.707 167.194 127.71 167.48 126.937L167.481 126.935L167.513 126.848C167.682 126.387 167.917 125.753 168.143 125.145L168.145 125.141L168.145 125.14C168.306 124.706 168.462 124.286 168.585 123.951C168.624 123.845 168.665 123.732 168.709 123.615C168.766 123.457 168.827 123.291 168.89 123.121L168.896 123.105L168.896 123.104C169.14 122.439 169.403 121.723 169.57 121.259C169.704 120.893 169.908 120.339 170.123 119.758C170.307 119.257 170.5 118.736 170.662 118.294C170.957 117.487 171.337 116.464 171.583 115.801C171.63 115.675 171.672 115.562 171.707 115.466C171.943 114.832 172.132 114.212 172.152 114.001C172.179 113.728 172.159 113.558 172.078 113.401ZM106.911 113.183C106.905 113.203 106.945 113.34 107.006 113.49C107.087 113.68 107.107 113.892 107.093 114.205L107.06 114.648C106.055 115.983 105.38 116.872 104.916 117.484L104.74 117.715L104.722 117.74L104.721 117.741C104.254 118.359 103.266 119.665 102.515 120.666C101.76 121.682 101.113 122.513 101.086 122.513C101.059 122.513 101.039 120.727 101.039 118.547C101.045 116.12 101.072 114.416 101.12 114.171C101.153 113.946 101.241 113.674 101.315 113.571C101.383 113.469 101.436 113.367 101.436 113.353C101.436 113.333 97.7348 113.319 93.2106 113.319C88.6863 113.319 84.9847 113.34 84.9847 113.367C84.9847 113.394 85.0319 113.462 85.0858 113.524C85.1465 113.578 85.2409 113.823 85.2949 114.069C85.3825 114.451 85.396 115.916 85.3758 125.928C85.3623 132.205 85.3286 137.446 85.3016 137.582C85.2746 137.711 85.1937 137.902 85.1195 138.004C85.0454 138.107 84.9847 138.209 84.9847 138.229C84.9847 138.243 88.6863 138.263 93.2106 138.263C97.7348 138.263 101.436 138.243 101.436 138.229C101.436 138.209 101.376 138.107 101.302 138.004C101.227 137.902 101.14 137.616 101.099 137.377C101.052 137.084 101.032 135.455 101.045 132.75L101.066 128.572C105.037 134.89 106.224 136.832 106.271 136.968C106.318 137.098 106.359 137.357 106.359 137.548C106.359 137.732 106.318 137.97 106.257 138.073L106.156 138.263C121.576 138.263 126.047 138.236 126.053 138.209C126.053 138.182 125.919 138.107 125.764 138.052C125.608 137.991 125.325 137.82 125.136 137.677C124.84 137.446 124.536 136.989 122.831 134.242L122.273 133.34C121.169 131.555 119.624 129.055 118.536 127.304C117.254 125.232 116.203 123.522 116.203 123.508C116.203 123.488 117.679 121.348 119.486 118.751C121.286 116.154 122.878 113.871 123.026 113.674C123.168 113.476 123.276 113.299 123.269 113.285C123.262 113.271 119.581 113.231 115.09 113.203C110.6 113.176 106.918 113.169 106.911 113.183ZM59.7879 113.571C59.8351 113.674 59.889 113.878 59.9092 114.028C59.9227 114.178 59.9362 119.603 59.9362 126.091C59.9362 137.234 59.9295 137.895 59.8148 138.154C59.7474 138.304 59.7002 138.434 59.7002 138.447C59.7002 138.454 63.4019 138.461 67.9261 138.461C72.4503 138.461 76.152 138.441 76.152 138.413C76.152 138.379 76.1115 138.297 76.0576 138.223C76.0104 138.148 75.9295 137.923 75.889 137.732C75.8351 137.473 75.8149 134.154 75.8149 125.853C75.8149 118.642 75.8418 114.212 75.8823 114.014C75.916 113.83 75.9969 113.639 76.0508 113.585C76.1115 113.53 76.1587 113.462 76.152 113.435C76.152 113.401 72.4503 113.38 67.9261 113.38H59.6935L59.7879 113.571ZM129.688 113.142C129.688 113.162 129.735 113.278 129.796 113.401C129.856 113.517 129.93 113.708 129.951 113.823C129.971 113.939 129.991 119.317 129.991 125.784C129.991 132.252 129.971 137.65 129.951 137.78C129.93 137.909 129.863 138.093 129.802 138.188C129.735 138.284 129.688 138.379 129.688 138.413C129.688 138.441 136.194 138.461 144.15 138.461H158.613C158.613 132.389 158.6 130.623 158.579 130.623C158.559 130.623 158.391 130.705 158.195 130.814L157.844 130.998L145.398 131.032V128.715C153.388 128.715 154.628 128.736 154.905 128.804C155.107 128.851 155.356 128.94 155.458 129.008L155.479 129.02C155.578 129.076 155.661 129.124 155.68 129.124C155.7 129.124 155.714 127.556 155.714 125.648C155.714 123.74 155.694 122.179 155.66 122.193C155.633 122.206 155.491 122.275 155.343 122.343C155.1 122.459 154.831 122.479 152.68 122.52C151.365 122.547 149.187 122.568 147.839 122.574L145.398 122.581V120.537C157.588 120.571 158.054 120.578 158.263 120.693C158.377 120.755 158.492 120.789 158.505 120.762C158.519 120.727 158.519 119.024 158.499 116.959L158.458 113.21C148.257 113.128 141.784 113.108 137.496 113.108C133.201 113.108 129.688 113.122 129.688 113.142Z" fill="#FBD401"/>
</g>
</g>
<defs>
<filter id="filter0_d_83_297" x="-14.2257" y="47.5983" width="285.196" height="160.059" filterUnits="userSpaceOnUse" color-interpolation-filters="sRGB">
<feFlood flood-opacity="0" result="BackgroundImageFix"/>
<feColorMatrix in="SourceAlpha" type="matrix" values="0 0 0 0 0 0 0 0 0 0 0 0 0 0 0 0 0 0 127 0" result="hardAlpha"/>
<feOffset/>
<feGaussianBlur stdDeviation="24"/>
<feComposite in2="hardAlpha" operator="out"/>
<feColorMatrix type="matrix" values="0 0 0 0 0 0 0 0 0 0 0 0 0 0 0 0 0 0 0.25 0"/>
<feBlend mode="normal" in2="BackgroundImageFix" result="effect1_dropShadow_83_297"/>
<feBlend mode="normal" in="SourceGraphic" in2="effect1_dropShadow_83_297" result="shape"/>
</filter>
<linearGradient id="paint0_linear_83_297" x1="25.9532" y1="1.00001" x2="255.001" y2="255.001" gradientUnits="userSpaceOnUse">
<stop stop-color="#0C7BDF"/>
<stop offset="1" stop-color="#033E72"/>
</linearGradient>
</defs>
</svg>
