<svg width="256" height="256" viewBox="0 0 256 256" fill="none" xmlns="http://www.w3.org/2000/svg">
<path d="M106.429 254.324C77.8036 252.299 57.2862 246.329 40.0761 235.018C21.6571 222.911 8.93954 200.243 3.9843 170.687C1.69292 157.021 0.962957 146.366 1.00143 127.164C1.07014 93.0812 4.72734 71.9613 13.9373 52.4684C22.7757 33.762 33.8514 22.6792 52.4395 13.9416C72.1839 4.66056 93.5545 1 127.994 1C162.433 1 183.803 4.66056 203.548 13.9416C222.119 22.6715 233.122 33.6726 242.078 52.4684C251.216 71.6451 254.915 93.0336 254.999 127.164C255.1 168.687 249.55 193.658 235.416 215.277C222.216 235.466 198.18 248.266 165.151 252.695C147.932 255.004 125.031 255.639 106.429 254.324Z" fill="url(#paint0_linear_83_297)"/>
<path d="M181.888 123.231C181.814 123.394 181.389 124.355 180.938 125.377C180.486 126.393 180.115 127.245 180.122 127.265C180.122 127.286 180.985 127.306 182.043 127.306C183.102 127.306 183.965 127.299 183.965 127.286C183.965 127.279 183.797 126.89 183.587 126.42C183.378 125.95 183.163 125.459 183.109 125.33C183.055 125.2 182.954 124.968 182.886 124.819C182.819 124.669 182.623 124.232 182.455 123.844C182.286 123.462 182.145 123.122 182.151 123.087C182.158 123.047 182.124 122.999 182.091 122.978C182.05 122.958 181.963 123.067 181.888 123.231Z" fill="#FBD401"/>
<path fill-rule="evenodd" clip-rule="evenodd" d="M123.95 94.6674C125.042 94.6605 125.952 94.6401 125.973 94.6128C126 94.5924 127.894 94.5924 130.193 94.6197C132.493 94.6469 134.643 94.6742 134.981 94.6946C135.311 94.7151 136.255 94.7423 137.071 94.7628C137.887 94.7832 139.296 94.8309 140.206 94.8718C141.116 94.9059 142.681 94.9809 143.678 95.0354C143.893 95.0486 144.142 95.0637 144.411 95.0801L144.411 95.0801L144.411 95.0801C145.389 95.1396 146.631 95.2151 147.488 95.2739C148.58 95.3489 150.205 95.4716 151.095 95.5465C151.985 95.6215 153.516 95.7646 154.5 95.8601C155.485 95.9555 157.11 96.119 158.107 96.2349C159.105 96.3439 160.656 96.528 161.546 96.6438C162.436 96.7529 164.317 97.0119 165.727 97.2163C167.136 97.4208 169.03 97.7138 169.941 97.8638C170.851 98.0205 172.348 98.2795 173.278 98.4499C174.202 98.6203 175.658 98.8929 176.515 99.0633C177.371 99.2337 179.097 99.6017 180.358 99.8811C181.619 100.167 183.743 100.672 185.078 101.012C186.413 101.346 188.503 101.912 189.73 102.266C190.957 102.621 192.67 103.146 193.539 103.425C194.409 103.711 195.596 104.107 196.169 104.304C196.531 104.429 197.003 104.597 197.419 104.746C197.662 104.832 197.886 104.912 198.057 104.972C198.522 105.143 199.176 105.388 199.507 105.517C199.837 105.647 200.646 105.967 201.293 106.233C201.941 106.499 202.75 106.833 203.08 106.983C203.359 107.104 203.836 107.317 204.225 107.491L204.429 107.582C204.84 107.76 205.973 108.312 206.957 108.809C207.942 109.307 209.169 109.954 209.688 110.254C210.207 110.547 210.922 110.963 211.272 111.181C211.623 111.399 212.432 111.924 213.059 112.346C213.686 112.769 214.569 113.396 215.014 113.737C215.459 114.084 216.174 114.67 216.599 115.038C217.024 115.407 217.813 116.163 218.352 116.722C218.891 117.274 219.62 118.112 219.97 118.569C220.321 119.032 220.82 119.748 221.069 120.17C221.319 120.593 221.649 121.193 221.797 121.513C221.946 121.833 222.175 122.372 222.296 122.706C222.424 123.047 222.607 123.639 222.701 124.035C222.789 124.43 222.89 124.921 222.917 125.125C222.95 125.33 222.971 126.025 222.971 126.659C222.971 127.293 222.95 127.954 222.923 128.124C222.898 128.285 222.848 128.556 222.814 128.74L222.809 128.771C222.775 128.962 222.681 129.344 222.606 129.623C222.532 129.903 222.364 130.428 222.229 130.782C222.094 131.136 221.791 131.804 221.548 132.268C221.312 132.724 220.914 133.399 220.671 133.767C220.422 134.128 219.99 134.714 219.707 135.069C219.424 135.423 218.891 136.037 218.514 136.432C218.136 136.827 217.475 137.475 217.037 137.87C216.606 138.265 215.817 138.926 215.291 139.335C214.772 139.751 213.841 140.426 213.228 140.841C212.614 141.257 211.657 141.877 211.104 142.211C210.544 142.552 209.56 143.118 208.912 143.472C208.265 143.827 207.429 144.276 207.058 144.46C206.687 144.651 205.912 145.026 205.339 145.299C204.766 145.571 203.835 145.987 203.282 146.232C202.723 146.478 201.738 146.887 201.091 147.153C200.444 147.418 199.277 147.868 198.495 148.161C197.713 148.454 196.304 148.959 195.36 149.279C194.416 149.599 192.939 150.076 192.09 150.335C191.234 150.601 189.656 151.065 188.584 151.364C187.512 151.664 185.718 152.141 184.606 152.421C183.493 152.7 181.76 153.109 180.762 153.334C179.758 153.559 178.261 153.886 177.425 154.056C176.589 154.227 174.997 154.54 173.885 154.745C172.772 154.949 171.148 155.236 170.278 155.385C169.408 155.529 167.871 155.774 166.873 155.924C165.868 156.074 164.25 156.306 163.265 156.442C162.281 156.571 160.703 156.769 159.759 156.885C158.815 156.994 157.157 157.178 156.085 157.287C155.013 157.403 153.064 157.587 151.769 157.696C150.468 157.812 148.499 157.962 147.387 158.043C146.494 158.104 145.194 158.181 144.189 158.241C143.941 158.256 143.711 158.27 143.51 158.282C142.492 158.337 140.867 158.411 139.903 158.452L139.525 158.466C138.505 158.502 136.915 158.559 135.756 158.589C134.441 158.623 131.117 158.657 128.373 158.657C125.629 158.657 122.318 158.623 121.024 158.589C119.722 158.555 117.875 158.493 116.911 158.452C115.946 158.411 114.321 158.337 113.303 158.282C113.25 158.279 113.195 158.275 113.137 158.272L112.625 158.241C111.619 158.181 110.319 158.104 109.426 158.043C108.314 157.968 106.338 157.812 105.044 157.703C103.742 157.587 101.652 157.389 100.391 157.253C99.1305 157.123 97.2359 156.912 96.1773 156.776C95.1187 156.646 93.6017 156.449 92.806 156.34C92.0104 156.231 90.5338 156.019 89.5359 155.863C88.5313 155.713 87.1693 155.495 86.5018 155.379C85.8343 155.27 84.6071 155.052 83.771 154.902C82.935 154.752 81.2831 154.431 80.0964 154.193C78.9097 153.954 77.1634 153.586 76.2194 153.375C75.2755 153.164 73.5291 152.748 72.3425 152.455C71.1558 152.155 69.4701 151.719 68.6003 151.473C68.4464 151.43 68.2855 151.385 68.1223 151.339L68.1205 151.338C67.3623 151.125 66.5556 150.897 66.173 150.785C65.7078 150.649 64.7099 150.342 63.948 150.104C63.1861 149.865 61.9859 149.47 61.2847 149.231C60.5767 148.986 59.444 148.584 58.7563 148.332C58.0685 148.079 57.0099 147.677 56.3964 147.432C55.7828 147.193 54.7849 146.778 54.1713 146.512C53.5578 146.253 52.5599 145.803 51.9463 145.524C51.3327 145.244 50.2404 144.706 49.519 144.338C48.7975 143.97 47.7794 143.431 47.2602 143.138C46.7411 142.845 46.0398 142.436 45.7095 142.232C45.3723 142.034 44.6307 141.557 44.0575 141.175C43.4844 140.801 42.6618 140.228 42.2371 139.908C41.8123 139.587 41.1111 139.035 40.6863 138.688C40.2615 138.34 39.3782 137.509 38.7242 136.854C38.0702 136.193 37.2948 135.348 37.0048 134.973C36.7082 134.599 36.2699 133.985 36.0272 133.61C35.7777 133.236 35.4406 132.67 35.272 132.35C35.1035 132.029 34.8405 131.47 34.6922 131.109C34.5371 130.741 34.3281 130.128 34.2202 129.746C34.1123 129.358 33.9842 128.86 33.9437 128.635C33.9033 128.41 33.8426 127.865 33.8089 127.429C33.7617 126.884 33.7617 126.359 33.8156 125.793C33.8561 125.33 33.9303 124.737 33.9842 124.478C34.0381 124.219 34.1528 123.755 34.2404 123.455C34.3281 123.156 34.4966 122.665 34.618 122.365C34.7326 122.065 34.9821 121.527 35.1641 121.172C35.3394 120.818 35.6361 120.293 35.8114 120.014C35.9867 119.727 36.2564 119.332 36.398 119.128C36.5464 118.923 36.8633 118.508 37.106 118.208C37.3487 117.908 37.787 117.39 38.0837 117.063C38.3871 116.729 39.0074 116.109 39.4726 115.686C39.9379 115.263 40.6795 114.616 41.1245 114.255C41.5695 113.9 42.4056 113.273 42.9787 112.864C43.5518 112.455 44.3879 111.897 44.8329 111.61C45.2779 111.331 46.1545 110.799 46.7883 110.438C47.4153 110.07 48.7369 109.361 49.7213 108.864C50.7057 108.373 52.0205 107.732 52.6543 107.453C53.2813 107.167 54.3601 106.703 55.0479 106.417C55.7356 106.131 56.8279 105.695 57.4752 105.449C58.1225 105.204 59.0327 104.863 59.4979 104.7C59.9632 104.529 61.0217 104.161 61.8578 103.882C62.6939 103.602 64.1638 103.132 65.1279 102.839C66.0921 102.546 67.5485 102.117 68.3644 101.892C69.1802 101.667 70.6231 101.285 71.5671 101.047C72.511 100.801 73.9539 100.447 74.7698 100.256C75.5856 100.065 76.9678 99.7584 77.8376 99.5744C78.7074 99.3836 80.2852 99.0633 81.3437 98.8588C82.4023 98.6544 84.2498 98.3136 85.4567 98.1091C86.6636 97.8978 88.4369 97.6116 89.4011 97.4617C90.3652 97.3117 92.0644 97.0664 93.1769 96.9164C94.2894 96.7665 95.975 96.5484 96.919 96.4394C97.8629 96.3235 99.6834 96.1259 100.965 95.9964C102.246 95.8601 104.396 95.6624 105.752 95.5465C107.107 95.4375 109.15 95.2807 110.303 95.2058C110.624 95.1867 110.974 95.1655 111.327 95.1441L111.327 95.144C112.235 95.089 113.164 95.0327 113.674 95.0081C114.375 94.9672 115.758 94.9059 116.742 94.865C117.726 94.8241 119.304 94.7628 120.248 94.7355C121.192 94.7083 122.864 94.6742 123.95 94.6674ZM172.078 112.401C172.017 112.278 171.963 112.162 171.963 112.149C171.963 112.128 176.973 112.115 183.089 112.115C189.211 112.115 194.214 112.128 194.214 112.149C194.214 112.162 194.167 112.265 194.106 112.367C194.018 112.51 193.998 112.653 194.025 112.967C194.052 113.266 194.18 113.655 194.537 114.5C194.654 114.78 195.014 115.632 195.511 116.807C196.102 118.207 196.887 120.066 197.686 121.963C199.163 125.446 201.125 130.094 202.049 132.288C202.979 134.476 203.829 136.452 203.95 136.677C204.065 136.895 204.247 137.141 204.348 137.223C204.449 137.297 204.537 137.386 204.537 137.413C204.537 137.441 200.572 137.468 195.731 137.468C190.896 137.468 186.932 137.454 186.932 137.447C186.932 137.441 186.979 137.291 187.04 137.127C187.107 136.929 187.134 136.705 187.114 136.514C187.094 136.343 186.837 135.525 186.541 134.708L186.384 134.272L186.384 134.271C186.152 133.624 185.952 133.068 185.853 132.833L178.2 132.827L178.005 133.324C177.897 133.597 177.614 134.326 177.378 134.946C177.135 135.56 176.906 136.112 176.865 136.159C176.818 136.214 176.804 136.357 176.825 136.5C176.852 136.636 176.919 136.854 176.98 136.991C177.04 137.12 177.094 137.236 177.094 137.243C177.094 137.25 173.905 137.263 162.928 137.263L163.218 136.97C163.373 136.814 163.555 136.561 163.616 136.411C163.684 136.262 163.933 135.6 164.169 134.946C164.202 134.856 164.241 134.749 164.286 134.628L164.393 134.337C164.681 133.554 165.102 132.408 165.457 131.436C165.929 130.162 166.468 128.703 166.65 128.199C166.825 127.707 167.194 126.71 167.48 125.937L167.481 125.935L167.513 125.848C167.682 125.387 167.917 124.753 168.143 124.145L168.145 124.141L168.145 124.14C168.306 123.706 168.462 123.286 168.585 122.951C168.624 122.845 168.665 122.732 168.709 122.615C168.766 122.457 168.827 122.291 168.89 122.121L168.896 122.105L168.896 122.104C169.14 121.439 169.403 120.723 169.57 120.259C169.704 119.893 169.908 119.339 170.123 118.758C170.307 118.257 170.5 117.736 170.662 117.294C170.957 116.487 171.337 115.464 171.583 114.801C171.63 114.675 171.672 114.562 171.707 114.466C171.943 113.832 172.132 113.212 172.152 113.001C172.179 112.728 172.159 112.558 172.078 112.401ZM106.911 112.183C106.905 112.203 106.945 112.34 107.006 112.49C107.087 112.68 107.107 112.892 107.093 113.205L107.06 113.648C106.055 114.983 105.38 115.872 104.916 116.484L104.74 116.715L104.722 116.74L104.721 116.741C104.254 117.359 103.266 118.665 102.515 119.666C101.76 120.682 101.113 121.513 101.086 121.513C101.059 121.513 101.039 119.727 101.039 117.547C101.045 115.12 101.072 113.416 101.12 113.171C101.153 112.946 101.241 112.674 101.315 112.571C101.383 112.469 101.436 112.367 101.436 112.353C101.436 112.333 97.7348 112.319 93.2106 112.319C88.6863 112.319 84.9847 112.34 84.9847 112.367C84.9847 112.394 85.0319 112.462 85.0858 112.524C85.1465 112.578 85.2409 112.823 85.2949 113.069C85.3825 113.451 85.396 114.916 85.3758 124.928C85.3623 131.205 85.3286 136.446 85.3016 136.582C85.2746 136.711 85.1937 136.902 85.1195 137.004C85.0454 137.107 84.9847 137.209 84.9847 137.229C84.9847 137.243 88.6863 137.263 93.2106 137.263C97.7348 137.263 101.436 137.243 101.436 137.229C101.436 137.209 101.376 137.107 101.302 137.004C101.227 136.902 101.14 136.616 101.099 136.377C101.052 136.084 101.032 134.455 101.045 131.75L101.066 127.572C105.037 133.89 106.224 135.832 106.271 135.968C106.318 136.098 106.359 136.357 106.359 136.548C106.359 136.732 106.318 136.97 106.257 137.073L106.156 137.263C121.576 137.263 126.047 137.236 126.053 137.209C126.053 137.182 125.919 137.107 125.764 137.052C125.608 136.991 125.325 136.82 125.136 136.677C124.84 136.446 124.536 135.989 122.831 133.242L122.273 132.34C121.169 130.555 119.624 128.055 118.536 126.304C117.254 124.232 116.203 122.522 116.203 122.508C116.203 122.488 117.679 120.348 119.486 117.751C121.286 115.154 122.878 112.871 123.026 112.674C123.168 112.476 123.276 112.299 123.269 112.285C123.262 112.271 119.581 112.231 115.09 112.203C110.6 112.176 106.918 112.169 106.911 112.183ZM59.7879 112.571C59.8351 112.674 59.889 112.878 59.9092 113.028C59.9227 113.178 59.9362 118.603 59.9362 125.091C59.9362 136.234 59.9295 136.895 59.8148 137.154C59.7474 137.304 59.7002 137.434 59.7002 137.447C59.7002 137.454 63.4019 137.461 67.9261 137.461C72.4503 137.461 76.152 137.441 76.152 137.413C76.152 137.379 76.1115 137.297 76.0576 137.223C76.0104 137.148 75.9295 136.923 75.889 136.732C75.8351 136.473 75.8149 133.154 75.8149 124.853C75.8149 117.642 75.8418 113.212 75.8823 113.014C75.916 112.83 75.9969 112.639 76.0508 112.585C76.1115 112.53 76.1587 112.462 76.152 112.435C76.152 112.401 72.4503 112.38 67.9261 112.38H59.6935L59.7879 112.571ZM129.688 112.142C129.688 112.162 129.735 112.278 129.796 112.401C129.856 112.517 129.93 112.708 129.951 112.823C129.971 112.939 129.991 118.317 129.991 124.784C129.991 131.252 129.971 136.65 129.951 136.78C129.93 136.909 129.863 137.093 129.802 137.188C129.735 137.284 129.688 137.379 129.688 137.413C129.688 137.441 136.194 137.461 144.15 137.461H158.613C158.613 131.389 158.6 129.623 158.579 129.623C158.559 129.623 158.391 129.705 158.195 129.814L157.844 129.998L145.398 130.032V127.715C153.388 127.715 154.628 127.736 154.905 127.804C155.107 127.851 155.356 127.94 155.458 128.008L155.479 128.02C155.578 128.076 155.661 128.124 155.68 128.124C155.7 128.124 155.714 126.556 155.714 124.648C155.714 122.74 155.694 121.179 155.66 121.193C155.633 121.206 155.491 121.275 155.343 121.343C155.1 121.459 154.831 121.479 152.68 121.52C151.365 121.547 149.187 121.568 147.839 121.574L145.398 121.581V119.537C157.588 119.571 158.054 119.578 158.263 119.693C158.377 119.755 158.492 119.789 158.505 119.762C158.519 119.727 158.519 118.024 158.499 115.959L158.458 112.21C148.257 112.128 141.784 112.108 137.496 112.108C133.201 112.108 129.688 112.122 129.688 112.142Z" fill="#FBD401"/>
<defs>
<linearGradient id="paint0_linear_83_297" x1="128" y1="1" x2="128" y2="255" gradientUnits="userSpaceOnUse">
<stop stop-color="#0C7ADD"/>
<stop offset="1" stop-color="#0A62B1"/>
</linearGradient>
</defs>
</svg>
