<svg width="256" height="256" viewBox="0 0 256 256" fill="none" xmlns="http://www.w3.org/2000/svg">
<mask id="mask0_83_298" style="mask-type:alpha" maskUnits="userSpaceOnUse" x="1" y="1" width="254" height="254">
<path d="M106.429 254.324C77.8036 252.299 57.2862 246.329 40.0761 235.018C21.6571 222.911 8.93954 200.243 3.9843 170.687C1.69292 157.021 0.962957 146.366 1.00143 127.164C1.07014 93.0812 4.72734 71.9613 13.9373 52.4684C22.7757 33.762 33.8514 22.6792 52.4395 13.9416C72.1839 4.66056 93.5545 1 127.994 1C162.433 1 183.803 4.66056 203.548 13.9416C222.119 22.6715 233.122 33.6726 242.078 52.4684C251.216 71.6451 254.915 93.0336 254.999 127.164C255.1 168.687 249.55 193.658 235.416 215.277C222.216 235.466 198.18 248.266 165.151 252.695C147.932 255.004 125.031 255.639 106.429 254.324Z" fill="white"/>
</mask>
<g mask="url(#mask0_83_298)">
<rect x="1" y="1" width="254.001" height="254.001" fill="url(#paint0_linear_83_298)"/>
<g filter="url(#filter0_d_83_298)">
<path fill-rule="evenodd" clip-rule="evenodd" d="M126.563 46.9103C126.211 46.9159 125.307 46.9494 124.554 46.9829C123.8 47.0164 122.695 47.0778 122.097 47.1224L121.934 47.1361L121.934 47.1362C121.35 47.1852 120.589 47.2492 120.171 47.2899C119.708 47.3346 119.033 47.4127 118.664 47.463C118.296 47.5132 117.933 47.5858 117.855 47.6193C117.777 47.6583 117.587 47.7253 117.436 47.7588C117.28 47.7979 117.018 47.9151 116.85 48.0156C116.683 48.1217 116.342 48.2668 116.096 48.3394C115.851 48.4175 115.46 48.5459 115.231 48.6241C115.002 48.7078 114.718 48.8362 114.6 48.9088C114.489 48.9869 114.377 49.0483 114.355 49.0483C114.327 49.0483 114.226 49.1153 114.131 49.1879C113.998 49.2883 113.942 49.3777 113.936 49.5061C113.919 49.6735 113.897 49.6959 113.696 49.7349C113.573 49.7628 113.372 49.8354 113.249 49.8968C113.071 49.9917 112.965 50.0029 112.719 49.975C112.501 49.9526 112.334 49.8856 112.133 49.7517C111.949 49.6233 111.759 49.5451 111.575 49.5228C111.424 49.5005 111.19 49.4335 111.056 49.3777C110.821 49.2716 110.821 49.2716 110.419 49.4C110.107 49.5005 109.895 49.5284 109.509 49.5228C109.23 49.5172 108.856 49.4781 108.672 49.4391C108.354 49.3665 108.304 49.3721 107.639 49.5451C107.254 49.64 106.618 49.8187 106.221 49.9303C105.825 50.0419 105.49 50.1648 105.479 50.1927C105.468 50.2206 105.607 50.3155 105.78 50.3992L106.104 50.5555C110.687 50.5276 111.039 50.5388 111.123 50.6113C111.173 50.656 111.218 50.723 111.218 50.7509C111.212 50.7788 111.084 50.9686 110.922 51.164L110.626 51.5212C109.113 51.5045 108.56 51.471 108.421 51.4487C108.281 51.4208 108.142 51.3649 108.103 51.3259C108.052 51.27 107.634 51.2589 106.194 51.2645C104.603 51.2812 104.312 51.27 104.106 51.1919C103.977 51.1417 103.592 51.0802 103.257 51.0579L102.643 51.0133C101.957 51.2562 101.484 51.423 101.162 51.5362L101.162 51.5363L101.161 51.5366C100.855 51.6443 100.687 51.7034 100.606 51.7334C100.438 51.7892 100.114 51.9064 99.8856 51.9957C99.6567 52.0795 99.4614 52.1799 99.4502 52.2134C99.439 52.2693 99.5842 52.286 100.047 52.286C100.639 52.286 100.662 52.2916 100.689 52.4088C100.706 52.4814 100.717 52.5875 100.717 52.6489C100.717 52.7549 100.689 52.7605 100.232 52.727L99.7405 52.6991C98.7468 53.1568 98.384 53.3466 98.2891 53.4192C98.1942 53.4918 98.0714 53.5755 98.01 53.609C97.9486 53.6425 97.7867 53.6872 97.6471 53.7039L97.3959 53.743C97.2452 53.3913 97.2005 53.2406 97.2005 53.1792C97.2005 53.1178 97.1894 53.0675 97.1726 53.0675C97.1562 53.0675 96.5794 53.3154 95.8816 53.6152L95.8815 53.6152L95.8441 53.6313C95.1351 53.9439 93.9461 54.4854 93.2092 54.8371C92.4724 55.1888 91.3392 55.7526 90.6972 56.0931C90.0553 56.4336 89.1844 56.9025 88.7714 57.1314C88.7231 57.1588 88.6711 57.1883 88.6161 57.2195C88.2002 57.4553 87.6159 57.7866 87.2362 58.0134C86.8064 58.2646 86.4492 58.499 86.4436 58.5325C86.4324 58.5716 86.6222 58.6107 86.9739 58.633C87.2697 58.6609 88.0457 58.6777 88.6876 58.6777C89.8041 58.6777 89.8711 58.6721 90.0832 58.5493C90.206 58.4823 90.4572 58.2311 90.6414 58.0022C90.8256 57.7678 91.3113 57.2598 91.7244 56.869C92.1877 56.4336 92.5729 56.0149 92.7403 55.7582C92.9357 55.4735 93.0864 55.3116 93.2818 55.2055C93.466 55.0939 93.6391 55.0492 93.8791 55.0325L94.214 55.0157C94.4932 55.3897 94.7667 55.7079 95.0011 55.9703C95.2356 56.2327 95.9334 56.9695 96.553 57.6059C97.3792 58.4655 97.7476 58.8061 97.9541 58.9121C98.1607 59.0126 98.2779 59.0405 98.4007 59.0126C98.5124 58.9847 98.7747 58.7614 99.2102 58.3204C99.707 57.8124 99.9414 57.6226 100.243 57.4663C100.455 57.3547 101.225 57.0588 101.945 56.8132C102.666 56.562 103.268 56.3722 103.285 56.389C103.302 56.4113 103.112 57.0253 102.867 57.7678C102.532 58.7726 102.364 59.1968 102.197 59.448C102.074 59.6322 101.906 59.8276 101.823 59.889C101.733 59.9448 101.521 60.0118 101.348 60.0453C101.17 60.0732 100.801 60.1737 100.522 60.2686C100.243 60.3635 99.8689 60.4528 99.6846 60.4752C99.5004 60.4919 99.0706 60.6035 98.7357 60.7208C98.4007 60.8324 97.809 61.039 97.4238 61.1785C97.0387 61.3181 96.5139 61.4688 96.2516 61.519C95.9892 61.5637 95.4756 61.6418 95.1072 61.6921C94.5657 61.7591 94.3648 61.8149 94.0466 61.9712C93.8065 62.0884 93.4604 62.3396 93.1534 62.6132C92.8743 62.8644 92.5003 63.1379 92.3161 63.2272C92.1319 63.3221 91.7802 63.4449 91.5346 63.5063C91.289 63.5621 90.5744 63.6794 89.9436 63.7575C89.3128 63.8412 88.6486 63.9417 88.4643 63.9864C88.2801 64.0366 87.9173 64.1483 87.6549 64.2376C87.3925 64.3269 87.0409 64.4162 86.8734 64.4385C86.7059 64.4553 86.4994 64.5055 86.4157 64.5446C86.3263 64.5893 86.198 64.7177 86.1198 64.8293C86.0472 64.9465 85.9188 65.2145 85.8407 65.4322C85.757 65.6443 85.5895 66.0127 85.4611 66.2416L85.2266 66.6603C85.2434 68.8653 85.249 68.9043 85.4109 69.3677C85.4605 69.5049 85.5223 69.6727 85.5804 69.8302C85.6334 69.9739 85.6833 70.1091 85.7179 70.205C85.796 70.406 85.9188 70.6125 85.9914 70.6627C86.0584 70.713 86.2817 70.7967 86.4826 70.8414C86.6836 70.8916 87.3367 70.9586 87.934 70.9977L89.0226 71.0647C89.7594 71.5447 90.0888 71.7959 90.2339 71.9355C90.3958 72.0862 90.5019 72.2369 90.5019 72.3095C90.5019 72.3821 90.5688 72.7058 90.647 73.0352C90.7252 73.3701 90.8368 73.8893 90.8926 74.1963C90.9484 74.5033 91.0098 74.9778 91.0322 75.2569C91.0545 75.5528 91.1159 75.8654 91.1829 76.0105C91.2387 76.1501 91.3448 76.3231 91.4118 76.3901C91.4787 76.4627 91.6351 76.5743 91.7579 76.6357C91.8807 76.6971 92.1207 76.7641 92.2882 76.7753L92.5952 76.8032C93.3767 76.0887 94.0912 75.4523 94.6885 74.9276C95.2858 74.3973 96.0785 73.7274 96.4469 73.4371C96.8154 73.1413 97.2396 72.7672 97.3848 72.5998C97.5355 72.4323 97.7699 72.0974 97.9095 71.8518C98.0546 71.6061 98.2891 71.2265 98.4342 71.0144C98.5794 70.7967 98.825 70.3613 98.9869 70.0375C99.1432 69.7138 99.4055 69.2728 99.5674 69.0606C99.7293 68.8429 100.075 68.441 100.332 68.1675C100.39 68.1055 100.451 68.0408 100.512 67.976C100.726 67.7492 100.94 67.5224 101.036 67.4139C101.164 67.2743 101.348 67.0566 101.443 66.9282C101.566 66.7608 101.744 66.6268 102.13 66.4314C102.409 66.2863 102.805 66.0686 103.006 65.9457C103.199 65.8334 103.448 65.675 103.576 65.5932L103.576 65.5931L103.592 65.5829C103.628 65.5586 103.682 65.5216 103.749 65.4762L103.752 65.4745C103.915 65.3637 104.15 65.204 104.363 65.0582C104.658 64.8516 104.893 64.6507 104.876 64.6228C104.859 64.5893 104.887 64.5558 104.932 64.539C104.988 64.5223 105.01 64.5446 105.005 64.6004C104.993 64.6618 105.401 64.874 106.568 65.4099L108.142 66.13C109.147 66.13 109.47 66.1635 109.733 66.236C109.945 66.2918 110.375 66.4314 110.682 66.543C110.989 66.6603 111.363 66.8166 111.508 66.9003C111.77 67.0455 111.793 67.0789 112.245 68C112.501 68.5192 112.803 69.15 112.915 69.3956C113.026 69.6412 113.305 70.2831 113.534 70.819C113.763 71.3549 114.009 71.9187 114.081 72.075C114.154 72.2258 114.282 72.4379 114.372 72.544C114.461 72.6444 114.634 72.7896 114.757 72.8621C114.88 72.9347 115.22 73.0687 115.51 73.1636C115.801 73.2529 116.124 73.3925 116.225 73.4706C116.32 73.5488 116.448 73.6939 116.498 73.7888C116.571 73.9284 116.593 74.1014 116.588 74.4754C116.582 74.7601 116.537 75.1453 116.476 75.363C116.42 75.5751 116.336 75.7649 116.292 75.7928C116.247 75.8152 115.845 75.9547 115.399 76.0998C114.952 76.2394 114.31 76.4683 113.975 76.6078C113.64 76.7474 113.188 76.9483 112.97 77.06C112.758 77.1716 112.485 77.3726 112.356 77.501C112.228 77.635 111.982 77.8024 111.77 77.8973C111.569 77.9866 111.184 78.115 110.905 78.1764C110.626 78.2378 110.09 78.3272 109.705 78.3774C109.32 78.4276 108.544 78.4946 107.974 78.5281C107.405 78.5616 106.54 78.5784 106.048 78.5672L105.155 78.5393C104.636 78.8407 104.184 79.1366 103.815 79.3822C103.447 79.6334 102.995 79.9739 102.811 80.147C102.626 80.32 102.459 80.5154 102.431 80.5768C102.403 80.6605 102.426 80.7387 102.498 80.8224C102.599 80.9452 102.649 80.9508 103.268 80.9452C103.732 80.9452 104.067 80.9062 104.402 80.828C104.664 80.761 104.949 80.7052 105.044 80.6996C105.138 80.694 105.267 80.6884 105.334 80.694C105.406 80.6996 105.719 80.895 106.032 81.1294C106.344 81.3695 106.646 81.6374 106.702 81.7323C106.757 81.8272 106.802 82.0059 106.802 82.151C106.802 82.3073 106.757 82.4971 106.674 82.6534C106.579 82.832 106.528 83.0832 106.478 83.5465C106.439 83.8982 106.361 84.3671 106.3 84.5793C106.238 84.7914 106.143 85.0314 106.082 85.1096C106.026 85.1877 105.708 85.4557 105.373 85.7125C105.038 85.9692 104.614 86.2484 104.43 86.3377C104.245 86.427 103.916 86.5386 103.704 86.5833C103.492 86.6279 103.157 86.6782 102.961 86.6949C102.772 86.7117 102.615 86.7173 102.615 86.7005C102.615 86.6838 102.66 86.5889 102.71 86.4884C102.76 86.3935 102.822 86.2093 102.844 86.0865C102.867 85.9637 102.861 85.6734 102.833 85.4445C102.8 85.2156 102.71 84.836 102.638 84.6072C102.559 84.3783 102.481 84.155 102.459 84.1159C102.431 84.0601 102.219 84.1104 101.555 84.3281C101.08 84.4844 100.299 84.7077 99.8242 84.8249C99.3274 84.9477 98.8026 85.1152 98.5961 85.2212C98.3951 85.3217 98.0937 85.4892 97.9262 85.6008C97.7588 85.7069 97.4964 85.8967 97.3457 86.0251C97.195 86.1479 96.9326 86.427 96.7595 86.6447C96.5865 86.8568 96.3353 87.0969 96.2013 87.175C96.0674 87.2532 95.8608 87.4039 95.738 87.5099C95.6152 87.616 95.3863 87.9174 95.23 88.1798C95.0737 88.4422 94.8728 88.7548 94.7779 88.8832C94.683 89.0116 94.4932 89.2069 94.3536 89.3186C94.214 89.4358 93.9238 89.6144 93.7116 89.7149C93.4995 89.8154 93.1702 89.9382 92.986 89.9885C92.8017 90.0443 92.1486 90.2508 91.5346 90.4518C90.9205 90.6527 90.2674 90.8816 90.0832 90.9542C89.899 91.0323 89.6757 91.1496 89.5864 91.2165C89.4971 91.278 89.3352 91.4733 89.2291 91.6408C89.1175 91.8083 88.7937 92.3609 88.5034 92.8689C88.2187 93.3769 87.8224 94.03 87.6326 94.3203C87.4428 94.6105 87.1413 95.0515 86.9627 95.2972C86.7785 95.5539 86.0863 96.2908 85.3439 97.0277C84.3112 98.0492 83.725 98.6912 82.4858 100.176C81.6317 101.198 80.8837 102.102 80.8334 102.186C80.7832 102.264 80.7162 102.554 80.6827 102.833C80.6492 103.107 80.6101 103.877 80.5878 104.536C80.5599 105.507 80.5152 105.976 80.3589 106.992C80.2529 107.684 80.1301 108.399 80.0798 108.583C80.0352 108.767 79.9682 108.968 79.9403 109.029L79.8789 109.141C79.7616 108.968 79.717 108.829 79.7002 108.722C79.6779 108.561 79.6109 108.488 79.3485 108.298C79.1755 108.17 78.8796 107.935 78.701 107.768C78.5224 107.6 78.2656 107.316 78.1372 107.132C78.0088 106.947 77.8581 106.657 77.8023 106.49C77.7464 106.322 77.618 106.004 77.5231 105.792C77.4227 105.58 77.2273 105.021 77.0877 104.564C76.9426 104.1 76.7807 103.665 76.7249 103.587C76.6635 103.509 76.5853 103.447 76.5407 103.447C76.496 103.447 76.4179 103.537 76.3676 103.643C76.2727 103.821 76.2448 103.838 75.949 103.871C75.7703 103.894 75.3014 103.911 74.8995 103.916C74.4976 103.916 74.0119 103.894 73.811 103.86C73.61 103.821 73.2416 103.693 72.9736 103.564C72.5382 103.352 72.4712 103.336 72.0526 103.341C71.7288 103.347 71.4776 103.386 71.1315 103.503C70.8691 103.587 70.4951 103.732 70.2941 103.827C70.0932 103.927 69.8029 104.112 69.6522 104.245C69.5015 104.374 69.2838 104.508 69.1777 104.547C69.0661 104.58 68.8818 104.592 68.759 104.569C68.6362 104.547 67.905 104.525 67.1402 104.519C65.8284 104.508 65.7279 104.513 65.4934 104.625C65.3539 104.692 65.1027 104.848 64.9352 104.977C64.7677 105.105 64.2039 105.423 63.6792 105.68C63.1545 105.937 62.4958 106.3 62.2111 106.484L61.6975 106.824C61.463 107.45 61.2509 107.846 61.0723 108.108C60.8992 108.371 60.6034 108.762 60.4192 108.974C60.235 109.186 60.0228 109.487 59.9447 109.644C59.8721 109.794 59.7884 110.023 59.766 110.146C59.7493 110.269 59.7605 110.492 59.794 110.648C59.8274 110.799 59.9503 111.078 60.0675 111.262C60.1847 111.447 60.3131 111.737 60.3578 111.904C60.3968 112.072 60.5866 112.686 60.7764 113.272C60.9662 113.853 61.2286 114.595 61.357 114.919C61.4854 115.243 61.7422 115.817 61.9208 116.203C62.105 116.588 62.2725 116.984 62.2948 117.085C62.3227 117.191 62.373 117.263 62.4232 117.263C62.4678 117.263 62.9312 117.202 63.4559 117.124C63.9806 117.046 64.5556 116.956 64.7398 116.923C64.906 116.898 65.2359 116.831 65.5038 116.778L65.5039 116.778L65.5043 116.778L65.5883 116.761C65.873 116.699 66.2135 116.61 66.3419 116.565C66.4759 116.521 66.6099 116.443 66.6378 116.387C66.6657 116.331 67.023 115.963 67.4249 115.561C67.9161 115.069 68.2231 114.712 68.3739 114.455C68.5637 114.132 68.6251 114.065 68.8428 113.986C69.0214 113.92 69.1777 113.908 69.3731 113.931C69.5294 113.953 69.8587 114.031 70.1155 114.109C70.3667 114.187 70.5733 114.266 70.5733 114.288C70.5733 114.316 70.4114 114.534 70.216 114.779L69.8643 115.226C69.8085 116.967 69.7527 117.637 69.6857 117.989C69.6299 118.313 69.5238 118.698 69.4512 118.849C69.3675 119.022 69.1777 119.251 68.9321 119.463C68.72 119.652 68.5302 119.848 68.5023 119.898C68.4632 119.971 68.4855 120.043 68.5804 120.149C68.653 120.239 68.9377 120.423 69.2112 120.562C69.4847 120.708 69.9313 120.897 70.2104 120.992C70.4895 121.082 70.8245 121.176 70.964 121.199C71.1594 121.232 71.2543 121.215 71.3827 121.137C71.5278 121.054 71.6283 121.042 72.1084 121.076C72.4154 121.093 72.7168 121.126 72.7782 121.143C72.8452 121.165 73.0574 121.45 73.2918 121.83L73.6937 122.483C73.7496 124.503 73.744 125.184 73.7161 125.358C73.6882 125.525 73.6714 125.804 73.6826 125.972L73.6993 126.279C74.6706 127.188 75.134 127.607 75.3461 127.791C75.5582 127.976 75.8987 128.255 76.0997 128.411C76.3006 128.567 76.5463 128.735 76.6467 128.785C76.7416 128.835 76.9091 128.874 77.0096 128.874C77.1212 128.88 77.2161 128.841 77.2719 128.774C77.3334 128.696 77.6515 128.59 78.4163 128.4C79.1532 128.216 79.5272 128.149 79.6444 128.177C79.7393 128.193 79.9738 128.316 80.1747 128.444C80.3701 128.573 80.7664 128.863 81.0511 129.081C81.3358 129.304 81.6038 129.488 81.6428 129.488C81.6763 129.488 81.8215 129.416 81.961 129.326C82.1173 129.226 82.3015 129.019 82.4523 128.796C82.6086 128.545 82.7537 128.394 82.8988 128.322C83.0105 128.266 83.2561 128.177 83.4403 128.121C83.6245 128.07 83.8757 127.976 83.9985 127.914C84.1214 127.853 84.2944 127.73 84.3893 127.635C84.4898 127.54 84.6014 127.479 84.6684 127.49C84.741 127.501 84.7856 127.557 84.7912 127.646C84.8024 127.741 84.9419 127.903 85.2266 128.149C85.4555 128.35 85.8016 128.606 85.997 128.724C86.2538 128.88 86.4045 128.93 86.5831 128.93C86.8008 128.93 86.8287 128.913 86.9516 128.69C87.0241 128.562 87.1246 128.316 87.1748 128.149C87.2251 127.981 87.2642 127.736 87.2642 127.602C87.2642 127.378 87.2865 127.35 87.6437 127.055C87.8503 126.881 88.2076 126.647 88.4364 126.541C88.7323 126.396 88.9556 126.329 89.19 126.312C89.3742 126.301 89.6199 126.306 89.7371 126.329C89.8487 126.346 90.0218 126.429 90.1167 126.513C90.2786 126.658 90.2897 126.692 90.273 126.988L90.2507 127.306C90.658 127.353 91.207 127.4 91.756 127.447L91.8695 127.456C92.4556 127.501 93.3209 127.574 93.7954 127.618L94.6606 127.691C96.3465 128.467 97.0163 128.779 97.2285 128.891C97.4406 128.997 97.8592 129.287 98.1495 129.539C98.6631 129.968 98.7077 129.996 99.4893 130.27C99.9358 130.432 100.751 130.739 101.303 130.951C102.247 131.319 102.325 131.364 102.587 131.638C102.744 131.799 103.09 132.274 103.369 132.693L103.871 133.452C104.865 133.764 105.708 134.038 106.383 134.261C107.059 134.484 108.013 134.819 108.505 135.004C108.996 135.182 109.56 135.417 109.761 135.517C109.962 135.612 110.19 135.74 110.28 135.802C110.363 135.858 110.486 136.014 110.553 136.142C110.62 136.276 110.693 136.505 110.715 136.662C110.737 136.812 110.732 137.142 110.698 137.387C110.67 137.633 110.615 138.174 110.576 138.587C110.537 139.001 110.47 139.402 110.43 139.481C110.391 139.559 110.107 140.011 109.8 140.485C109.493 140.96 109.152 141.462 109.04 141.596C108.845 141.836 108.84 141.859 108.84 142.288V142.729C109.241 143.087 109.56 143.304 109.8 143.444C110.04 143.584 110.386 143.757 110.57 143.829C110.765 143.907 111.067 143.974 111.296 143.991C111.575 144.008 111.815 143.985 112.133 143.902C112.379 143.84 113.054 143.606 113.64 143.377C114.226 143.148 114.946 142.863 115.248 142.741L115.795 142.523C117.458 143.321 118.218 143.639 118.553 143.745C118.888 143.851 119.982 144.192 120.981 144.499C121.98 144.806 123.018 145.124 123.298 145.202C123.577 145.281 124.101 145.42 124.47 145.515C124.585 145.545 124.707 145.576 124.824 145.605L124.83 145.607C125.084 145.671 125.316 145.73 125.419 145.761C125.676 145.833 125.748 145.9 126.29 146.525C126.613 146.905 127.166 147.564 127.507 147.993C127.853 148.423 128.255 148.959 128.411 149.177L128.684 149.584L128.723 151.566C128.338 153.386 128.143 154.212 128.037 154.581C127.925 154.949 127.791 155.362 127.73 155.502C127.663 155.641 127.551 155.825 127.473 155.92C127.395 156.015 127.278 156.199 127.222 156.339C127.168 156.46 126.997 156.894 126.813 157.358L126.813 157.359L126.813 157.36L126.731 157.567C126.524 158.103 126.211 158.857 126.033 159.242C125.86 159.627 125.558 160.213 125.363 160.554C125.173 160.894 124.922 161.357 124.805 161.586C124.693 161.815 124.554 162.184 124.498 162.396C124.447 162.608 124.286 163.004 124.14 163.272C123.917 163.702 123.884 163.808 123.884 164.098C123.884 164.327 123.928 164.539 124.023 164.768C124.157 165.092 124.157 165.114 124.079 165.393C124.034 165.555 123.906 165.868 123.794 166.08C123.683 166.292 123.504 166.582 123.392 166.722C123.355 166.765 123.311 166.815 123.266 166.867C123.171 166.976 123.07 167.093 123.002 167.168C122.901 167.275 122.622 167.654 122.388 168.006C122.153 168.358 121.835 168.771 121.679 168.921C121.528 169.072 121.187 169.334 120.925 169.507C120.652 169.681 120.25 169.881 119.976 169.976C119.714 170.066 119.049 170.25 118.497 170.384C117.944 170.523 117.419 170.663 117.325 170.696C117.23 170.73 117.112 170.797 117.057 170.847C117.001 170.897 116.934 171.026 116.906 171.132C116.878 171.238 116.772 171.45 116.666 171.606C116.565 171.757 116.281 172.059 116.035 172.265C115.795 172.477 115.443 172.728 115.259 172.829C115.075 172.929 114.746 173.136 114.533 173.292C114.321 173.443 114.003 173.627 113.836 173.7C113.668 173.767 113.478 173.867 113.423 173.917C113.367 173.968 113.272 174.107 113.216 174.23C113.16 174.353 113.076 174.693 113.026 174.984C112.982 175.274 112.898 175.693 112.853 175.905C112.803 176.117 112.669 176.608 112.552 176.993C112.429 177.378 112.256 177.881 112.161 178.11C112.066 178.339 111.809 178.819 111.592 179.17C111.379 179.522 111.033 180.041 110.827 180.315C110.62 180.588 110.213 181.141 109.922 181.543C109.632 181.945 109.258 182.414 109.091 182.587C108.856 182.827 108.733 182.91 108.56 182.938C108.415 182.966 108.231 182.949 108.03 182.894L107.723 182.804C107.517 182.951 107.286 183.115 107.044 183.286L107.043 183.287C106.781 183.472 106.508 183.665 106.244 183.854C105.535 184.356 105.317 184.54 105.306 184.641C105.289 184.747 105.384 184.898 105.686 185.255C105.959 185.584 106.104 185.813 106.16 186.009C106.21 186.159 106.244 186.399 106.244 186.539C106.244 186.678 106.177 187.103 106.099 187.488C106.004 187.968 105.903 188.281 105.786 188.493C105.691 188.66 105.518 188.922 105.406 189.079C105.295 189.229 105.094 189.453 104.971 189.564C104.843 189.682 104.469 189.905 104.139 190.067C103.804 190.223 103.492 190.391 103.436 190.441C103.375 190.497 103.335 190.608 103.335 190.753C103.341 190.876 103.402 191.1 103.475 191.256L103.615 191.535C102.682 193.394 102.303 194.114 102.169 194.326C102.04 194.538 101.895 194.817 101.851 194.94C101.811 195.063 101.778 195.314 101.778 195.498C101.778 195.683 101.811 195.945 101.856 196.084C101.895 196.224 102.169 196.816 102.465 197.396C102.973 198.412 103.006 198.507 103.285 199.601C103.469 200.31 103.581 200.874 103.581 201.081C103.587 201.304 103.531 201.583 103.43 201.918C103.341 202.191 103.185 202.632 103.084 202.895C102.978 203.157 102.805 203.509 102.705 203.676C102.599 203.844 102.459 204.173 102.392 204.402C102.325 204.631 102.241 204.882 102.202 204.96C102.169 205.038 102.035 205.15 101.906 205.211C101.778 205.273 101.672 205.34 101.666 205.362C101.666 205.39 102.085 205.546 102.604 205.714L102.803 205.777C103.325 205.941 104.068 206.176 104.569 206.328C105.138 206.501 105.993 206.752 106.467 206.881C106.942 207.015 107.784 207.243 108.337 207.383C108.89 207.523 109.744 207.723 110.235 207.835C110.726 207.947 111.681 208.148 112.356 208.282C113.032 208.416 114.115 208.617 114.757 208.723C115.399 208.834 116.281 208.974 116.71 209.03C117.14 209.091 117.905 209.192 118.413 209.253C118.921 209.314 119.708 209.404 120.171 209.454C120.59 209.495 121.353 209.559 121.937 209.608L122.097 209.621C122.695 209.666 123.778 209.733 124.498 209.767C125.218 209.806 126.954 209.834 128.349 209.834C129.745 209.834 131.481 209.806 132.201 209.767C132.921 209.733 134.004 209.666 134.602 209.621L134.66 209.617C135.254 209.567 136.079 209.497 136.527 209.454C136.985 209.409 137.778 209.32 138.286 209.253C138.794 209.192 139.559 209.091 139.988 209.03C140.418 208.968 141.233 208.845 141.803 208.751C142.372 208.656 143.349 208.483 143.98 208.36C144.611 208.237 145.626 208.019 146.241 207.885C146.855 207.746 147.859 207.506 148.473 207.349C149.087 207.199 149.964 206.959 150.427 206.83C150.885 206.696 151.477 206.523 151.739 206.451C152.001 206.373 152.666 206.166 153.218 205.993C153.771 205.82 154.614 205.541 155.088 205.368L155.352 205.275L155.358 205.273L155.385 205.263C155.791 205.12 156.218 204.969 156.428 204.893C156.69 204.798 157.494 204.491 158.214 204.207C158.935 203.922 160.017 203.475 160.615 203.213C161.212 202.956 161.994 202.61 162.345 202.448C162.697 202.292 163.612 201.851 164.383 201.471C165.148 201.097 166.208 200.556 166.727 200.271C167.246 199.992 168.078 199.529 168.569 199.25C169.061 198.971 169.943 198.457 170.523 198.105C171.104 197.754 171.975 197.212 172.449 196.905C172.924 196.598 173.666 196.107 174.096 195.811C174.526 195.521 175.279 194.996 175.771 194.644C176.262 194.293 177.027 193.729 177.473 193.388C177.92 193.048 178.763 192.389 179.343 191.926C179.924 191.457 180.795 190.742 181.269 190.335C181.744 189.922 182.475 189.285 182.882 188.917C183.295 188.543 183.926 187.968 184.278 187.633C184.635 187.292 185.394 186.556 185.964 185.986C186.533 185.417 187.27 184.658 187.61 184.3C187.945 183.949 188.52 183.318 188.894 182.905C189.263 182.497 189.81 181.872 190.106 181.526C190.603 180.951 190.647 180.884 190.614 180.717C190.597 180.622 190.547 180.41 190.497 180.259C190.446 180.103 190.323 179.796 190.223 179.572C190.117 179.355 190 179.165 189.966 179.165C189.927 179.159 189.843 179.159 189.782 179.165C189.715 179.17 189.57 179.075 189.43 178.936C189.296 178.802 189.067 178.506 188.922 178.277C188.772 178.048 188.559 177.669 188.442 177.44C188.325 177.211 188.152 176.82 188.051 176.575C187.951 176.329 187.817 175.938 187.756 175.709C187.689 175.48 187.544 174.799 187.437 174.202C187.326 173.605 187.175 172.851 187.103 172.527C187.03 172.204 186.913 171.791 186.851 171.606C186.79 171.422 186.634 170.881 186.511 170.406C186.388 169.932 186.159 169.228 186.003 168.843C185.847 168.458 185.567 167.822 185.378 167.42C185.188 167.018 184.831 166.381 184.579 165.996C184.334 165.611 184.055 165.148 183.96 164.964C183.865 164.779 183.736 164.467 183.675 164.266C183.608 164.065 183.502 163.551 183.441 163.121C183.379 162.692 183.29 162.161 183.24 161.949C183.195 161.737 183.139 161.396 183.128 161.195C183.1 160.9 183.139 160.671 183.307 159.967C183.424 159.493 183.563 158.935 183.619 158.723C183.709 158.404 183.775 158.298 184.06 157.997C184.278 157.779 184.434 157.556 184.484 157.4C184.535 157.26 184.724 156.847 184.903 156.479C185.154 155.971 185.249 155.708 185.294 155.39C185.35 155.027 185.344 154.876 185.244 154.274C185.177 153.888 185.11 153.397 185.087 153.185C185.071 152.973 185.004 152.644 184.948 152.459C184.892 152.275 184.78 151.862 184.702 151.538C184.618 151.203 184.44 150.712 184.289 150.394C184.144 150.087 183.993 149.763 183.96 149.668C183.921 149.573 183.842 149.25 183.781 148.942C183.72 148.635 183.669 148.256 183.669 148.105C183.669 147.887 183.63 147.765 183.496 147.547C183.396 147.391 183.173 147.089 183 146.877C182.821 146.665 182.441 146.235 182.162 145.928C181.878 145.621 181.587 145.264 181.515 145.13C181.392 144.912 181.386 144.873 181.442 144.599C181.492 144.376 181.492 144.242 181.442 144.03C181.403 143.874 181.197 143.416 180.984 143.009C180.666 142.4 180.599 142.227 180.599 142.004C180.599 141.859 180.521 141.485 180.432 141.166C180.337 140.854 180.264 140.485 180.264 140.346C180.264 140.206 180.225 139.855 180.181 139.564C180.13 139.235 180.114 138.956 180.141 138.822C180.164 138.71 180.264 138.52 180.365 138.403C180.46 138.292 180.56 138.13 180.577 138.04C180.599 137.957 180.599 137.7 180.582 137.471C180.56 137.242 180.521 137.041 180.493 137.024C180.465 137.008 180.359 136.807 180.264 136.578C180.169 136.349 180.063 136.12 180.024 136.075C179.985 136.031 179.801 135.819 179.617 135.612C179.438 135.406 179.237 135.221 179.176 135.205C179.103 135.182 179.014 135.221 178.925 135.322L178.785 135.467C178.221 135.322 177.931 135.232 177.78 135.171C177.624 135.11 177.367 134.976 177.205 134.87C177.049 134.764 176.608 134.373 176.234 134.004C175.815 133.591 175.352 133.195 175.045 132.994C174.771 132.81 174.308 132.547 174.018 132.402C173.599 132.196 173.42 132.134 173.152 132.123C172.946 132.112 172.505 132.162 172.03 132.252C171.601 132.33 171.227 132.419 171.193 132.441C171.16 132.469 170.897 132.592 170.607 132.715C170.317 132.843 170.021 133.005 169.948 133.072C169.853 133.167 169.82 133.251 169.837 133.379C169.848 133.508 169.825 133.569 169.77 133.586C169.755 133.591 169.714 133.604 169.654 133.622C169.62 133.632 169.58 133.644 169.536 133.657L169.535 133.658C169.42 133.692 169.276 133.735 169.128 133.781C168.821 133.87 168.318 134.01 168.011 134.088C167.704 134.172 167.358 134.233 167.241 134.233C167.129 134.233 166.878 134.172 166.688 134.094L166.688 134.094C166.596 134.057 166.529 134.03 166.459 134.011C166.26 133.958 166.045 133.969 165.22 134.01C164.606 134.038 163.908 134.088 163.674 134.122C163.278 134.172 163.216 134.2 163.032 134.39C162.904 134.518 162.53 134.747 162.066 134.976C161.653 135.182 161.195 135.383 161.045 135.422C160.799 135.484 160.726 135.473 159.844 135.244C159.331 135.11 158.622 134.942 158.27 134.864C157.919 134.786 157.606 134.702 157.572 134.674C157.539 134.641 157.556 134.624 157.628 134.624C157.69 134.63 157.773 134.596 157.807 134.557C157.863 134.501 157.846 134.457 157.723 134.339C157.639 134.261 157.427 134.088 157.243 133.949C157.053 133.809 156.724 133.452 156.462 133.122C156.216 132.799 155.926 132.413 155.825 132.257C155.725 132.101 155.58 131.772 155.496 131.526C155.418 131.28 155.183 130.7 154.977 130.242C154.77 129.779 154.368 128.707 154.078 127.853C153.76 126.921 153.525 126.307 153.486 126.307C153.447 126.307 153.414 126.329 153.414 126.362C153.414 126.39 153.391 126.413 153.358 126.401C153.33 126.396 153.001 126.05 152.627 125.637C152.253 125.224 151.722 124.604 151.449 124.269C151.086 123.822 150.958 123.621 150.974 123.543C150.991 123.482 150.98 123.359 150.952 123.264C150.924 123.169 150.874 122.868 150.84 122.594C150.796 122.237 150.796 121.936 150.84 121.562C150.874 121.271 150.98 120.78 151.075 120.473C151.17 120.166 151.359 119.703 151.493 119.44C151.627 119.178 151.773 118.804 151.817 118.603C151.873 118.352 151.89 118.022 151.873 117.542C151.856 117.157 151.834 116.789 151.817 116.716C151.806 116.649 151.633 116.415 151.432 116.203C151.231 115.991 151.052 115.756 151.036 115.684C151.019 115.617 151.052 115.332 151.119 115.058C151.181 114.779 151.265 114.316 151.298 114.026C151.337 113.724 151.399 113.473 151.438 113.439C151.482 113.406 151.549 113.283 151.588 113.16C151.633 113.038 151.733 112.831 151.817 112.697C151.895 112.569 152.135 112.267 152.342 112.027C152.548 111.793 152.833 111.458 152.962 111.29C153.096 111.123 153.252 110.883 153.313 110.76C153.375 110.637 153.408 110.503 153.391 110.464C153.375 110.431 153.308 110.392 153.246 110.38C153.151 110.369 153.224 110.224 153.782 109.336C154.245 108.594 154.547 108.175 154.859 107.857C155.094 107.612 155.367 107.271 155.462 107.104C155.557 106.936 155.808 106.629 156.021 106.423C156.227 106.222 156.501 105.909 156.623 105.736C156.746 105.563 157.025 105.189 157.238 104.91L157.628 104.396L158.376 104.34C159.699 103.029 159.844 102.85 159.872 102.694C159.889 102.588 159.861 102.236 159.811 101.912C159.761 101.588 159.722 101.237 159.722 101.131C159.722 100.946 159.75 100.913 160.397 100.461C160.771 100.198 161.419 99.6736 161.832 99.2885C162.245 98.9033 162.775 98.44 163.01 98.2502C163.244 98.066 163.512 97.7868 163.612 97.6361C163.713 97.4854 163.836 97.2454 163.892 97.0946C163.947 96.9495 164.014 96.8323 164.048 96.8323C164.081 96.8323 164.427 96.8993 164.829 96.9774C165.231 97.0556 165.667 97.1728 165.806 97.2342C166.002 97.3179 166.32 97.3682 167.202 97.4352L168.346 97.5245C169.558 96.6648 170.149 96.2238 170.44 95.9838C170.57 95.8781 170.713 95.7622 170.841 95.6571L170.846 95.6532C171.001 95.5267 171.137 95.4162 171.21 95.3586L171.444 95.1576C175.776 95.1799 176.323 95.2023 176.34 95.2525C176.351 95.3083 176.524 95.3251 176.954 95.3251C177.289 95.3251 177.819 95.2916 178.143 95.2413C178.467 95.1967 179.031 95.0739 179.399 94.9678C179.767 94.8617 180.259 94.7389 180.488 94.6943C180.716 94.644 180.945 94.6273 180.99 94.6496C181.035 94.6775 181.118 94.8003 181.169 94.9287C181.224 95.0515 181.269 95.2413 181.269 95.3362C181.269 95.4367 181.37 95.7661 181.492 96.0619C181.693 96.5476 181.716 96.6592 181.716 97.0667C181.716 97.3235 181.744 97.8371 181.783 98.2167L181.855 98.9033C182.503 99.322 182.854 99.5341 183.055 99.6401C183.256 99.7518 183.647 99.9025 183.921 99.9862C184.194 100.064 184.808 100.282 185.277 100.477L186.131 100.824L186.126 101.521C186.622 101.84 186.929 102.013 187.13 102.113C187.376 102.23 187.906 102.387 188.749 102.582C189.441 102.738 190.128 102.906 190.284 102.95C190.435 102.995 190.776 103.029 191.038 103.029C191.379 103.029 191.574 102.995 191.736 102.923C191.859 102.867 192.121 102.699 192.316 102.548C192.512 102.398 192.713 102.191 192.763 102.096C192.847 101.923 192.847 101.884 192.69 101.399C192.545 100.93 192.54 100.857 192.601 100.628C192.635 100.489 192.718 100.265 192.785 100.131L192.908 99.8913C193.472 99.9416 194.008 99.9862 194.471 100.02L195.308 100.081C196.52 100.712 197.123 100.98 197.43 101.08C197.926 101.242 198.049 101.265 198.546 101.253C198.853 101.248 199.305 101.214 199.551 101.181C199.797 101.147 200.12 101.069 200.277 101.013L200.556 100.902C201.594 101.292 202.057 101.471 202.258 101.549C202.459 101.633 202.783 101.784 202.984 101.884C203.185 101.985 203.408 102.124 203.486 102.186C203.565 102.253 203.715 102.32 203.821 102.342C203.927 102.359 204.279 102.348 204.603 102.308C204.927 102.269 205.267 102.225 205.368 102.202L205.541 102.163C205.231 101.304 205.012 100.702 204.854 100.266C204.813 100.153 204.776 100.051 204.742 99.9583C204.581 99.5118 204.279 98.7358 204.078 98.2278C203.877 97.7199 203.503 96.8267 203.246 96.235L202.789 95.1632C202.018 95.219 201.773 95.2023 201.449 95.1297C201.203 95.0795 200.93 95.046 200.846 95.0515C200.706 95.0739 200.656 95.0292 200.383 94.6385C200.215 94.404 200.02 94.0523 199.947 93.8569C199.88 93.6671 199.579 93.081 199.277 92.5619C198.982 92.0427 198.741 91.5961 198.741 91.5682C198.741 91.5459 198.898 91.5124 199.088 91.4957C199.283 91.4789 199.523 91.4398 199.618 91.4119C199.735 91.3784 199.847 91.2891 199.925 91.1607C199.997 91.0435 200.165 90.8928 200.305 90.8146C200.444 90.7365 200.561 90.6639 200.567 90.6527C200.578 90.6416 200.511 90.4853 200.416 90.3011C200.321 90.1168 200.226 89.955 200.193 89.9382C200.159 89.9215 199.97 89.9773 199.757 90.0554C199.456 90.1727 199.333 90.195 199.104 90.1615C198.948 90.1392 198.697 90.0778 198.546 90.0219C198.39 89.9605 198.2 89.8656 198.111 89.8042C198.016 89.7261 197.876 89.687 197.72 89.687C197.592 89.687 197.335 89.7261 197.151 89.7707C196.966 89.8154 196.726 89.8489 196.62 89.8545C196.514 89.8545 196.313 89.821 196.174 89.7763C195.973 89.7149 195.889 89.7093 195.755 89.7652C195.66 89.8042 195.487 89.9494 195.364 90.0889C195.241 90.2229 195.052 90.5132 194.934 90.7253C194.823 90.9374 194.7 91.211 194.666 91.3338C194.616 91.4901 194.611 91.6073 194.65 91.7245C194.683 91.8194 194.923 92.1934 195.197 92.5619L195.682 93.2317C195.643 93.8179 195.582 94.0523 195.504 94.2086C195.437 94.3482 195.297 94.5715 195.197 94.711C195.096 94.8506 194.934 94.9957 194.828 95.0404C194.694 95.0962 194.555 95.1074 194.359 95.0795C194.253 95.0642 194.096 95.0437 193.955 95.0252C193.889 95.0166 193.826 95.0084 193.773 95.0013L193.466 94.9622C193.366 94.3984 193.338 94.0858 193.332 93.9016C193.332 93.7174 193.355 93.4104 193.383 93.215C193.416 93.0252 193.45 92.8689 193.466 92.8689C193.483 92.8689 193.561 92.9191 193.645 92.9805C193.74 93.0531 193.885 93.0978 194.008 93.0922C194.125 93.0922 194.22 93.081 194.22 93.0643C194.22 93.0475 194.181 92.9917 194.131 92.9359C194.08 92.8856 193.896 92.5786 193.723 92.2548L193.405 91.6687C192.06 91.6129 192.02 91.6073 191.92 91.4733C191.859 91.3952 191.797 91.2054 191.78 91.0547C191.753 90.809 191.719 90.7476 191.49 90.5467L191.233 90.3178C191.468 89.5977 191.49 89.4302 191.462 89.2516C191.445 89.1232 191.356 88.872 191.267 88.6934C191.178 88.5203 191.06 88.3305 191.005 88.2803C190.943 88.2245 190.697 88.0793 190.452 87.9565C190.206 87.8281 189.899 87.6607 189.771 87.5769C189.62 87.482 189.531 87.3871 189.531 87.3146C189.531 87.2252 189.414 87.1583 188.928 86.9685C188.599 86.8345 188.029 86.6112 187.661 86.4716C187.292 86.3265 186.55 85.9916 186.014 85.7236C185.043 85.238 185.037 85.2324 184.914 84.9644C184.842 84.8137 184.719 84.6295 184.635 84.5513C184.484 84.4118 184.457 84.4118 183.926 84.4397L183.374 84.4676C183.128 85.2882 183.055 85.545 183.055 85.5673C183.055 85.5952 183.201 85.612 183.374 85.612L183.697 85.6176C184.077 86.2818 184.39 86.801 184.641 87.1973C184.942 87.6774 185.192 88.003 185.389 88.1742C185.551 88.3138 186.02 88.6543 186.421 88.9222C186.829 89.1958 187.46 89.5642 187.828 89.7484C188.197 89.9271 188.677 90.128 188.889 90.1894C189.101 90.2508 189.363 90.3011 189.458 90.3011C189.57 90.3011 189.687 90.3457 189.754 90.4127C189.815 90.4741 189.866 90.5578 189.866 90.5913C189.866 90.6304 189.86 90.6751 189.843 90.6918C189.827 90.7086 189.659 90.7086 189.458 90.6918C189.123 90.6639 189.079 90.6472 188.811 90.396C188.604 90.2062 188.481 90.1336 188.359 90.1336C188.264 90.1336 188.118 90.1727 188.024 90.2173L187.856 90.3011V93.3713L187.27 93.3434C187.248 92.9973 187.276 92.7796 187.326 92.6289C187.404 92.3777 187.404 92.3553 187.287 92.0985C187.186 91.8752 187.181 91.8083 187.231 91.652C187.276 91.5403 187.281 91.4398 187.248 91.3728C187.22 91.3226 187.103 91.1886 186.996 91.0826C186.812 90.9095 186.796 90.8593 186.796 90.5913C186.796 90.3066 186.79 90.2955 186.5 90.0834C186.343 89.9605 186.098 89.8098 185.958 89.7484C185.819 89.687 185.662 89.6312 185.606 89.6312C185.556 89.6312 185.205 89.4191 184.825 89.1679C184.451 88.9111 183.932 88.5427 183.669 88.3529C183.407 88.1631 182.983 87.9063 182.72 87.7723C182.458 87.6439 182.056 87.415 181.827 87.2643C181.598 87.1136 181.118 86.7173 180.767 86.3767C180.415 86.0362 180.074 85.7292 180.013 85.6845C179.913 85.6176 179.851 85.6399 179.399 85.8967C179.126 86.053 178.712 86.3153 178.489 86.4828L178.087 86.7842L176.273 86.8847C175.665 86.3098 175.469 86.1702 175.391 86.1702C175.324 86.1646 175.218 86.2204 175.157 86.2818C175.067 86.3712 174.978 86.3991 174.721 86.3935H174.403C172.918 87.5825 172.834 87.6662 172.84 87.817C172.84 87.9119 172.739 88.1854 172.594 88.4589C172.388 88.8497 172.237 89.0339 171.74 89.5195C171.411 89.8433 170.987 90.2341 170.802 90.396C170.523 90.6304 170.445 90.7421 170.333 91.0323C170.266 91.2277 170.004 91.8306 169.759 92.3665C169.518 92.9024 169.251 93.4383 169.167 93.5611C169.05 93.7286 168.793 93.896 167.955 94.3705L166.895 94.9622C166.824 94.9601 166.749 94.9578 166.67 94.9554C166.515 94.9506 166.346 94.9453 166.168 94.9396C165.719 94.9254 165.209 94.9092 164.707 94.8952C163.903 94.8729 163.233 94.8394 163.222 94.8227C163.205 94.8059 163.077 94.5547 162.937 94.2644C162.792 93.9742 162.68 93.6616 162.68 93.5667C162.675 93.4718 162.736 93.3155 162.803 93.2094C162.876 93.1033 163.071 92.9359 163.238 92.8354C163.406 92.7349 163.64 92.5563 163.763 92.4391C163.873 92.3292 163.926 92.2763 163.943 92.2136C163.959 92.1551 163.944 92.0882 163.914 91.959C163.88 91.8138 163.852 91.6017 163.852 91.4845C163.852 91.3728 163.914 91.1607 163.992 91.01C164.07 90.8649 164.132 90.6974 164.132 90.636C164.132 90.5746 164.104 90.4685 164.07 90.396C164.02 90.2955 164.042 90.2062 164.187 89.8824C164.316 89.6144 164.372 89.4023 164.372 89.2125C164.377 88.9837 164.344 88.8888 164.199 88.6934C164.037 88.4813 163.992 88.4533 163.73 88.431C163.568 88.4143 163.255 88.3584 163.043 88.3082C162.792 88.2468 162.541 88.1352 162.345 88.0012C162.178 87.8895 161.988 87.7946 161.927 87.7891C161.86 87.7891 161.781 87.8225 161.742 87.856C161.687 87.9119 161.675 87.8449 161.675 87.5211V87.1192C162.128 86.7284 162.351 86.5721 162.457 86.5219C162.591 86.4605 162.87 86.427 163.378 86.4047C163.986 86.3823 164.204 86.3991 164.746 86.5051L165.388 86.6335C165.99 86.4493 166.281 86.3935 166.42 86.3935C166.56 86.3935 166.783 86.427 166.923 86.4716C167.062 86.5163 167.358 86.6168 167.581 86.6949C167.816 86.7787 168.106 86.8401 168.279 86.8401C168.53 86.8401 168.614 86.8122 168.893 86.6168C169.066 86.494 169.211 86.3767 169.211 86.3488C169.211 86.3265 169.172 86.2595 169.128 86.1981C169.066 86.12 169.044 85.9469 169.044 85.612C169.044 85.3496 169.072 84.9756 169.105 84.7746C169.15 84.4899 169.144 84.3169 169.072 83.9652C169.027 83.7196 168.994 83.4182 168.999 83.2953C169.005 83.1725 169.005 82.9213 168.999 82.7371C168.994 82.4859 168.955 82.3464 168.849 82.1789C168.731 82.0003 168.631 81.9277 168.329 81.8105C168.123 81.7267 167.777 81.6039 167.565 81.5314C167.347 81.4588 167.09 81.3304 166.984 81.2355C166.884 81.1406 166.761 80.9955 166.722 80.9062C166.677 80.8224 166.644 80.7108 166.644 80.6549C166.638 80.6047 166.672 80.5321 166.711 80.4931C166.75 80.454 166.934 80.3982 167.118 80.3647C167.302 80.3312 167.632 80.2698 167.844 80.2251C168.056 80.1805 168.547 80.1023 168.932 80.0521C169.317 80.0018 169.77 79.9125 169.937 79.8511C170.105 79.7841 170.373 79.6613 170.523 79.5776C170.68 79.4883 171.042 79.2203 171.338 78.9859C171.634 78.7458 172.114 78.4276 172.399 78.2769C172.689 78.1262 173.153 77.8582 173.426 77.6852C173.7 77.5066 174.068 77.2944 174.235 77.2107C174.403 77.127 174.66 76.9763 174.805 76.8814C174.944 76.7865 175.224 76.619 175.413 76.5129C175.603 76.4069 175.944 76.1501 176.172 75.938C176.418 75.7147 176.58 75.5193 176.58 75.4523C176.58 75.3853 176.692 75.2569 176.876 75.1229C177.032 75.0001 177.233 74.8327 177.311 74.7434C177.406 74.6429 177.535 74.5703 177.702 74.5424C177.836 74.5201 178.087 74.4363 178.255 74.3526C178.478 74.2521 178.601 74.2242 178.701 74.2521C178.779 74.2744 179.042 74.2968 179.287 74.3024C179.723 74.3079 179.74 74.3024 179.957 74.107C180.08 74.0009 180.242 73.8669 180.32 73.8167C180.415 73.7497 180.616 73.7106 180.951 73.6939C181.247 73.6772 181.448 73.6883 181.464 73.7218C181.481 73.7609 181.878 73.7665 182.598 73.7386L183.697 73.7051C184.87 74.2465 185.132 74.3359 185.305 74.3359C185.433 74.3359 185.651 74.2968 185.791 74.2521C185.93 74.2019 186.081 74.1181 186.126 74.0567C186.17 73.9953 186.36 73.8893 186.544 73.8223C186.846 73.7162 186.974 73.6995 187.789 73.7106C188.481 73.7218 188.693 73.7051 188.693 73.6492C188.693 73.6157 188.532 73.4204 188.342 73.2194C188.224 73.0944 187.963 72.8224 187.664 72.511C187.51 72.3494 187.344 72.1771 187.184 72.0093L187.103 71.9243L186.209 70.9977C185.908 71.1261 185.534 71.3326 185.182 71.5392L184.546 71.9076C184.15 71.7904 183.909 71.6675 183.759 71.5559C183.608 71.4443 183.441 71.2824 183.385 71.1931C183.318 71.1037 183.256 70.8525 183.223 70.5511C183.189 70.2831 183.094 69.8031 183.005 69.4793C182.921 69.1555 182.776 68.7704 182.687 68.6196C182.598 68.4633 182.458 68.268 182.374 68.1842C182.24 68.0503 182.173 68.0279 181.911 68.0279C181.704 68.0279 181.308 68.1172 180.672 68.3126C180.153 68.4689 179.572 68.6308 179.371 68.6755C179.17 68.7145 178.908 68.7536 178.785 68.7536C178.662 68.7536 178.439 68.7201 178.283 68.6755C178.132 68.6308 177.942 68.5303 177.864 68.4578C177.786 68.3852 177.663 68.201 177.585 68.0503C177.507 67.8995 177.339 67.5869 177.205 67.3581C176.988 66.9673 176.96 66.8836 176.865 66.1579C176.803 65.728 176.742 65.1642 176.72 64.9019C176.692 64.5446 176.703 64.4051 176.759 64.3325C176.798 64.2822 177.01 64.1371 177.222 64.0199C177.434 63.8971 177.646 63.7463 177.685 63.6794C177.747 63.5677 177.708 63.5286 177.099 63.0709C176.736 62.8029 176.089 62.3285 175.659 62.0214C175.229 61.7144 174.526 61.2232 174.096 60.9329C173.666 60.6426 172.924 60.1514 172.449 59.8444C171.975 59.5318 171.171 59.0294 170.663 58.7223C170.155 58.4153 169.418 57.9799 169.016 57.7454C168.614 57.5166 167.877 57.1035 167.369 56.8244C166.861 56.5453 166.035 56.1043 165.527 55.8419C165.019 55.5795 164.042 55.0939 163.35 54.7701C162.658 54.4408 161.53 53.9272 160.838 53.6257C160.146 53.3243 159.041 52.8666 158.382 52.6042C157.723 52.3418 156.908 52.0236 156.568 51.9008C156.227 51.778 155.892 51.672 155.814 51.672C155.736 51.672 155.401 51.7836 155.06 51.9232C154.72 52.0627 154.257 52.2804 154.028 52.4032C153.799 52.526 153.458 52.7382 153.274 52.8777C153.09 53.0173 152.816 53.1959 152.671 53.2796L152.403 53.4304L152.414 54.2119C151.666 54.932 151.572 55.0548 151.572 55.172C151.577 55.2613 151.633 55.4623 151.7 55.6298C151.812 55.9033 151.845 55.9368 152.119 56.0317C152.275 56.0875 152.426 56.1824 152.442 56.2327C152.465 56.2885 152.465 56.389 152.442 56.4559C152.426 56.5285 152.292 56.6681 152.147 56.7741C151.996 56.8802 151.728 57.0421 151.544 57.137C151.231 57.2989 151.164 57.31 150.522 57.3212C150.014 57.3324 149.813 57.3212 149.769 57.2654C149.729 57.2263 149.646 57.1928 149.579 57.1984C149.506 57.1984 149.104 57.31 148.686 57.4496C148.261 57.5836 147.552 57.7957 147.106 57.9185C146.659 58.0413 145.945 58.2311 145.515 58.3372C145.085 58.4488 144.694 58.5716 144.644 58.6107C144.594 58.6442 144.225 58.9233 143.835 59.2247C143.204 59.6992 143.092 59.7606 142.947 59.7383C142.819 59.7104 142.618 59.7774 142.11 60.0118C141.741 60.1793 141.2 60.3803 140.909 60.464C140.619 60.5421 140.189 60.6482 139.961 60.6929C139.732 60.7375 139.229 60.8101 138.844 60.8547C138.459 60.8994 138.146 60.9273 138.141 60.9217C138.137 60.9184 138.124 60.8749 138.104 60.8105C138.091 60.7675 138.075 60.7152 138.057 60.6594C138.012 60.5198 137.94 60.4026 137.895 60.3914C137.85 60.3803 137.75 60.4193 137.672 60.4807C137.594 60.5366 137.359 60.8324 137.141 61.1394C136.929 61.4409 136.594 61.854 136.399 62.0549C136.198 62.2559 135.763 62.7304 135.422 63.1156L134.803 63.8133C134.239 63.8803 133.909 63.9473 133.708 64.0087C133.507 64.0645 133.245 64.1873 133.122 64.2767C132.999 64.366 132.871 64.5 132.838 64.5725C132.798 64.6451 132.737 64.7902 132.698 64.8963C132.653 65.0024 132.536 65.1419 132.424 65.2089C132.318 65.2815 132.067 65.3819 131.866 65.4489C131.665 65.5103 131.252 65.6052 130.945 65.6555C130.543 65.728 130.069 65.756 129.271 65.7615L128.148 65.7671C127.473 65.4378 127.222 65.2536 127.06 65.0861C126.853 64.8684 126.775 64.7288 126.658 64.3436C126.58 64.0813 126.485 63.7575 126.457 63.618C126.424 63.4784 126.396 63.2607 126.396 63.1267C126.396 62.9983 126.457 62.6355 126.53 62.3173C126.602 62.0047 126.719 61.586 126.792 61.3851C126.859 61.1841 126.959 60.9552 127.015 60.8659C127.077 60.7822 127.25 60.6538 127.4 60.5756C127.557 60.4975 127.808 60.3468 127.959 60.2407C128.171 60.0956 128.249 59.9951 128.294 59.8332C128.322 59.7216 128.349 59.5373 128.349 59.4313C128.349 59.3252 128.31 59.1745 128.255 59.0963C128.165 58.9568 128.165 58.9512 128.383 58.7782C128.5 58.6777 128.662 58.5381 128.74 58.4655C128.818 58.393 128.98 58.1362 129.103 57.8962C129.254 57.5947 129.377 57.4273 129.488 57.3658C129.572 57.3212 129.723 57.2319 129.823 57.1705C129.918 57.1035 130.08 56.9193 130.18 56.7518C130.281 56.5843 130.415 56.3052 130.476 56.1378C130.538 55.9703 130.571 55.7861 130.554 55.7303C130.538 55.68 130.487 55.6354 130.443 55.6354C130.376 55.6354 130.359 55.5628 130.359 55.3004C130.359 54.999 130.376 54.9543 130.504 54.865C130.588 54.8148 130.722 54.6696 130.806 54.5468C130.895 54.424 130.979 54.2454 131.001 54.1561C131.023 54.0612 131.012 53.849 130.979 53.6816L130.912 53.3745L129.438 52.2693L127.389 51.5882C127.188 51.1975 127.071 50.8849 126.993 50.6392C126.915 50.3936 126.837 50.1034 126.82 49.9973C126.798 49.8633 126.82 49.7349 126.898 49.5786C126.959 49.4558 127.004 49.3498 126.993 49.3442C126.987 49.3386 126.831 49.2939 126.647 49.2493C126.463 49.199 126.161 49.16 125.977 49.16C125.793 49.16 125.302 49.1879 124.888 49.2214C124.475 49.2493 123.683 49.3386 123.13 49.4167C122.577 49.4893 121.98 49.5507 121.807 49.5507H121.483V48.3226C122.153 47.7086 122.438 47.5076 122.544 47.4741C122.7 47.4239 122.834 47.435 123.242 47.5299C123.521 47.5969 124.207 47.703 124.777 47.77C125.346 47.8314 126.133 47.8816 126.535 47.8816C126.948 47.8816 127.473 47.8425 127.763 47.7923C128.042 47.7421 128.372 47.6528 128.506 47.5913C128.696 47.5076 128.751 47.4462 128.796 47.2732C128.824 47.1615 128.852 47.022 128.852 46.9661C128.852 46.8824 128.779 46.8712 128.031 46.8824C127.574 46.888 126.915 46.8991 126.563 46.9103ZM103.224 52.7326C103.397 52.5595 103.587 52.3921 103.648 52.353C103.709 52.3195 103.91 52.286 104.095 52.286C104.335 52.286 104.519 52.3251 104.737 52.42C104.941 52.5093 105.099 52.6284 105.211 52.7772C105.312 52.9112 105.49 53.0564 105.652 53.1345C105.887 53.2462 106.009 53.2629 106.489 53.2573C106.942 53.2517 107.109 53.2294 107.332 53.1289C107.483 53.0619 107.678 53.0117 107.762 53.0117C107.851 53.0117 108.086 52.9615 108.292 52.8945C108.611 52.794 108.694 52.7884 108.812 52.8498C108.89 52.8889 109.163 53.1345 109.426 53.4025C109.833 53.8211 109.956 53.9104 110.319 54.0612C110.528 54.1448 110.632 54.1866 110.74 54.1986C110.849 54.2105 110.96 54.1924 111.184 54.1561C111.43 54.117 111.742 54.0556 111.882 54.0165C112.033 53.9774 112.261 53.9663 112.468 53.9886C112.652 54.0053 112.848 54.0333 112.898 54.05C112.954 54.0612 113.021 54.1561 113.054 54.251C113.082 54.357 113.344 54.6975 113.674 55.0492C114.104 55.5181 114.299 55.6856 114.5 55.7637C114.639 55.8251 114.997 55.9424 115.287 56.0317C115.577 56.1266 115.845 56.2215 115.873 56.255C115.907 56.2885 115.929 56.6402 115.929 57.8515L116.18 58.1753C116.32 58.3539 116.582 58.6498 116.766 58.834C116.951 59.0182 117.269 59.2638 117.475 59.381C117.721 59.5206 117.855 59.6322 117.855 59.6936C117.855 59.7495 117.816 59.9337 117.771 60.1011C117.726 60.2686 117.654 60.4584 117.609 60.5198C117.553 60.6035 117.403 60.6538 116.431 60.8324L116.124 60.6705C115.957 60.5812 115.667 60.4305 115.147 60.1625L114.785 60.2463C114.584 60.2909 114.366 60.3635 114.293 60.4082C114.193 60.4807 114.171 60.5421 114.171 60.7822C114.171 60.9441 114.198 61.2399 114.232 61.4409C114.265 61.6418 114.338 61.9489 114.399 62.1219C114.455 62.3005 114.505 62.5294 114.505 62.6243C114.505 62.736 114.444 62.8923 114.349 63.0207C114.249 63.1658 114.148 63.2384 114.031 63.2551C114.008 63.2578 113.98 63.2613 113.949 63.265C113.854 63.2766 113.733 63.2913 113.64 63.2998C113.49 63.3109 113.283 63.2663 112.998 63.1546C112.769 63.0653 112.474 62.9537 112.34 62.9146C112.127 62.842 112.094 62.8476 111.999 62.9313C111.943 62.9872 111.865 63.1211 111.77 63.4226L112.306 63.9529C112.63 64.2711 112.831 64.5111 112.808 64.5502C112.792 64.5893 112.73 64.6228 112.674 64.6228C112.624 64.6228 112.529 64.6618 112.468 64.7065C112.407 64.7567 112.239 64.7902 112.088 64.7902C111.943 64.7902 111.631 64.7511 111.391 64.7009C111.156 64.6507 110.832 64.5502 110.682 64.472C110.525 64.3939 110.235 64.2208 110.023 64.0869C109.816 63.9529 109.498 63.6905 109.314 63.5063C109.085 63.2774 108.979 63.1267 108.979 63.0318C108.979 62.9537 108.929 62.7583 108.867 62.5964C108.812 62.4401 108.678 62.228 108.583 62.1387C108.488 62.0438 108.32 61.787 108.22 61.5637C108.114 61.346 108.03 61.1227 108.03 61.078C108.03 61.0334 108.091 60.8994 108.17 60.7822C108.242 60.6705 108.337 60.5254 108.382 60.464C108.421 60.4026 108.616 60.2519 109.174 59.9113L110.068 59.9839C110.67 60.0286 111.139 60.0342 111.519 60.0007C111.859 59.9728 112.178 59.9058 112.328 59.8388C112.58 59.7271 112.58 59.7271 112.58 59.4536C112.574 59.3029 112.541 59.074 112.496 58.9456C112.451 58.8172 112.395 58.7223 112.367 58.7391C112.345 58.7502 112.317 58.7335 112.3 58.7056C112.284 58.6721 112.172 58.5995 112.049 58.5381C111.926 58.4767 111.781 58.4265 111.726 58.4265C111.675 58.4265 111.441 58.2981 111.212 58.1362C110.983 57.9743 110.682 57.7287 110.542 57.5891C110.403 57.4496 110.101 57.0867 109.872 56.7853C109.532 56.3387 109.37 56.1824 109.007 55.9424C108.761 55.7805 108.449 55.5907 108.309 55.5181C108.08 55.3953 107.991 55.3842 107.36 55.3897C106.69 55.3953 106.646 55.4009 106.311 55.5684C106.121 55.6688 105.82 55.7861 105.646 55.8363C105.538 55.8643 105.466 55.8829 105.393 55.888C105.248 55.8982 105.099 55.8547 104.653 55.7247C104.284 55.6186 103.955 55.5516 103.927 55.5739C103.899 55.5963 103.592 55.613 103.257 55.6074C103.117 55.6051 102.947 55.6027 102.778 55.6004C102.544 55.5972 102.311 55.5939 102.152 55.5907L102.151 55.5907C101.672 55.5795 101.666 55.5794 101.398 55.3562C101.253 55.2334 101.114 55.0883 101.086 55.0325C101.058 54.9822 101.036 54.8706 101.041 54.7813C101.047 54.6808 101.147 54.5301 101.337 54.3347C101.488 54.1784 101.65 53.9607 101.683 53.8602C101.722 53.7486 101.789 53.6816 101.845 53.6816C101.901 53.6816 102.012 53.6257 102.096 53.5532C102.185 53.4806 102.403 53.3411 102.582 53.235C102.766 53.1289 103.056 52.9001 103.224 52.7326ZM167.386 69.7584C167.453 69.4402 167.542 69.1444 167.576 69.1053C167.615 69.0662 167.682 69.0495 167.715 69.0606C167.754 69.0774 167.833 69.1667 167.888 69.2672C167.944 69.3677 168.117 69.5351 168.542 69.8142V70.5958C168.542 71.2265 168.558 71.4163 168.636 71.5726C168.737 71.768 168.743 71.768 169.462 71.7736L169.463 71.7736L169.892 72.7896C170.127 73.3478 170.356 73.9172 170.395 74.0512C170.456 74.2577 170.585 74.4084 171.165 74.9555C171.55 75.3183 171.958 75.6812 172.07 75.7705C172.187 75.8542 172.282 75.938 172.282 75.9547C172.287 75.9714 172.148 76.0831 171.662 76.4292L171.668 77.434L171.361 77.5847C171.076 77.7299 171.003 77.741 170.356 77.741C169.971 77.741 169.468 77.7801 169.223 77.8248C168.988 77.8694 168.603 77.9252 168.374 77.942C168.084 77.9643 167.821 78.0369 167.509 78.1653C167.096 78.3439 167.023 78.3551 166.476 78.3551C165.946 78.3495 165.901 78.3439 166.002 78.2658C166.063 78.2211 166.309 78.0592 166.543 77.9085C166.783 77.7522 167.006 77.5736 167.04 77.501C167.079 77.434 167.135 77.3614 167.168 77.3391C167.202 77.3168 167.269 77.3056 167.313 77.3168C167.345 77.3288 167.412 77.3436 167.481 77.3592L167.483 77.3596C167.51 77.3657 167.538 77.3719 167.565 77.3782C167.721 77.4061 167.754 77.3838 167.994 77.0767C168.145 76.8869 168.274 76.7027 168.29 76.6636C168.307 76.6246 168.195 76.5241 168.011 76.4124C167.766 76.2673 167.643 76.2338 167.09 76.2338V74.6708H167.397C167.699 74.6708 167.704 74.6708 167.704 74.5033C167.704 74.3361 167.71 74.3359 168.343 74.3081L168.346 74.3079L168.374 72.6891L168.19 72.4602C168.067 72.2928 167.877 72.1588 167.09 71.768V71.5001C167.09 71.3549 167.129 71.0368 167.179 70.7911C167.224 70.5455 167.319 70.0822 167.386 69.7584ZM158.84 72.3542L157.991 72.9403H156.623C156.294 73.6102 156.21 73.8055 156.216 73.8111C156.224 73.8111 156.353 73.8277 156.536 73.8511L156.537 73.8512C156.614 73.8611 156.7 73.8722 156.791 73.8837C157.221 73.9395 157.438 74.0009 157.723 74.1461L158.103 74.3359H160.922L161.313 73.6716C161.882 73.6437 162.094 73.5823 162.345 73.4594C162.569 73.3534 162.809 73.1747 162.97 73.0017C163.199 72.7617 163.227 72.7058 163.16 72.6444C163.116 72.6109 163.071 72.5272 163.06 72.4658C163.043 72.3597 162.998 72.3542 161.955 72.3542C161.078 72.3542 160.827 72.3374 160.671 72.2648C160.565 72.2146 160.369 72.0806 160.235 71.969C160.09 71.8462 159.945 71.768 159.844 71.768C159.744 71.768 159.42 71.9578 158.84 72.3542ZM114.104 78.8016C114.31 78.5393 114.6 78.182 114.751 78.0034C114.907 77.8303 115.053 77.6852 115.075 77.6852C115.097 77.6852 115.12 77.8303 115.12 78.0034C115.12 78.182 115.147 78.5504 115.181 78.8296C115.209 79.1031 115.287 79.438 115.348 79.5664C115.41 79.7116 115.549 79.8734 115.689 79.9739C115.823 80.0688 116.063 80.1805 116.219 80.2251C116.381 80.2698 116.588 80.3088 116.683 80.3088C116.751 80.3088 116.791 80.3088 116.814 80.3289C116.847 80.358 116.843 80.4295 116.833 80.6047C116.828 80.8168 116.777 80.9787 116.655 81.1741C116.554 81.336 116.387 81.509 116.236 81.6039C116.096 81.6877 115.845 81.7826 115.678 81.8161C115.443 81.8607 115.298 81.8551 115.064 81.7937C114.896 81.7491 114.595 81.6263 114.394 81.5146C114.076 81.3416 113.986 81.3137 113.64 81.3137C113.423 81.3137 113.099 81.3583 112.915 81.4086C112.73 81.4588 112.401 81.5034 112.189 81.5034C111.949 81.509 111.726 81.4755 111.608 81.4253C111.508 81.3806 111.396 81.2969 111.374 81.2411C111.346 81.1853 111.346 81.1015 111.379 81.0345C111.407 80.9731 111.558 80.828 111.703 80.7108C111.848 80.5991 112.206 80.3758 112.496 80.2251C112.814 80.0576 113.166 79.812 113.378 79.6111C113.579 79.4269 113.903 79.064 114.104 78.8016ZM177.038 88.191C176.854 88.5706 176.658 89.0171 176.613 89.1846C176.563 89.3521 176.502 89.8824 176.468 90.3569C176.456 90.5637 176.441 90.8044 176.426 91.037L176.426 91.039L176.426 91.0409C176.407 91.3406 176.388 91.6264 176.379 91.8083C176.357 92.1879 176.362 92.506 176.407 92.7014C176.446 92.8689 176.519 93.0531 176.569 93.1089C176.619 93.1647 176.72 93.2094 176.787 93.2038C176.859 93.2038 176.982 93.1703 177.066 93.1257C177.155 93.0866 177.317 92.947 177.428 92.8186C177.546 92.6958 177.663 92.4949 177.696 92.3777C177.724 92.266 177.752 91.8473 177.752 91.4454C177.752 90.8984 177.775 90.6639 177.842 90.4964C177.892 90.3736 178.126 90.0722 178.366 89.8266C178.601 89.5809 178.835 89.3186 178.885 89.2404C178.941 89.1623 178.98 88.9948 178.98 88.8608C178.98 88.7324 178.941 88.5538 178.897 88.4589C178.852 88.364 178.746 88.258 178.657 88.2133C178.573 88.1686 178.377 88.1017 178.227 88.0626C178.07 88.0291 177.881 87.9621 177.791 87.923C177.708 87.8784 177.596 87.7667 177.54 87.6774C177.49 87.5825 177.428 87.5099 177.412 87.5099C177.395 87.5099 177.228 87.817 177.038 88.191ZM75.9322 112.58C76.2504 112.407 76.6188 112.223 76.7416 112.172C76.8644 112.122 77.0152 112.089 77.0766 112.105C77.0997 112.109 77.1625 112.12 77.2506 112.135L77.2517 112.135C77.3973 112.16 77.6116 112.196 77.8302 112.234C78.1818 112.295 78.6563 112.373 78.874 112.407C79.0973 112.435 79.4378 112.535 79.6276 112.619C79.9626 112.77 79.9905 112.775 80.2584 112.703C80.4092 112.658 80.6659 112.636 80.8278 112.641C81.0511 112.652 81.1516 112.691 81.2744 112.809C81.3581 112.898 81.5535 113.026 81.7098 113.105C81.8605 113.183 82.1508 113.356 82.3518 113.49C82.5527 113.624 82.7872 113.808 82.8821 113.903C82.977 113.992 83.2394 114.277 83.4738 114.534C83.8199 114.919 83.9595 115.03 84.6405 115.337V115.84L84.0934 115.834C83.6524 115.829 83.485 115.801 83.1891 115.684C82.9882 115.605 82.536 115.416 82.1843 115.265C81.8326 115.114 81.2632 114.863 80.9283 114.707C80.5934 114.556 80.1747 114.366 80.0072 114.288C79.8398 114.21 79.3206 113.964 78.0255 113.345L77.5901 113.378C77.3557 113.395 77.0989 113.434 77.0207 113.467C76.9426 113.495 76.6411 113.523 76.3509 113.523C76.0606 113.523 75.6587 113.484 75.4577 113.439L75.4576 113.439C75.2348 113.388 75.1489 113.368 75.1157 113.315C75.0949 113.282 75.0949 113.236 75.0949 113.16C75.0949 113.004 75.1228 112.959 75.2177 112.931C75.2902 112.909 75.6084 112.753 75.9322 112.58ZM87.6716 115.845L87.4874 115.868C87.5209 116.365 87.56 116.61 87.6047 116.733C87.6716 116.945 87.6661 116.967 87.5098 117.168C87.4204 117.291 87.2418 117.447 87.1078 117.52C86.9795 117.593 86.7171 117.676 86.5217 117.71C86.3319 117.738 86.064 117.799 85.9244 117.838C85.7849 117.883 85.6676 117.95 85.6565 117.983C85.6509 118.028 85.8463 118.045 86.3152 118.045C86.8176 118.045 87.0297 118.022 87.1637 117.955C87.3311 117.872 87.359 117.872 87.4986 117.955C87.5879 118.006 87.761 118.045 87.8894 118.045C88.0233 118.045 88.269 118.017 88.4364 117.983C88.6039 117.95 89.1063 117.916 89.5529 117.911L90.3623 117.905C90.9093 117.576 91.194 117.464 91.4787 117.403C91.7244 117.347 92.0593 117.252 92.2212 117.185C92.3831 117.124 92.5115 117.057 92.5115 117.04C92.5115 117.023 92.4389 116.973 92.3552 116.928C92.2547 116.873 92.1877 116.778 92.1598 116.66C92.1263 116.499 92.1095 116.487 92.0146 116.549C91.9197 116.61 91.7913 116.588 91.1885 116.387C90.7977 116.258 90.3567 116.141 90.206 116.124C90.0608 116.108 89.7762 116.024 89.564 115.946C89.3017 115.84 89.1844 115.817 89.1621 115.868C89.1398 115.912 89.0114 115.924 88.7155 115.901C88.4867 115.884 88.1964 115.862 88.0736 115.845C87.9508 115.834 87.7665 115.834 87.6661 115.845H87.6716Z" fill="white"/>
<path d="M48.8193 110.52C48.7858 110.682 48.6183 111.508 48.4508 112.351C48.2778 113.194 48.0601 114.349 47.9708 114.919C47.8759 115.488 47.7531 116.303 47.6917 116.733C47.6303 117.163 47.5409 117.816 47.4963 118.184C47.446 118.553 47.3567 119.329 47.2953 119.915C47.2339 120.501 47.1502 121.478 47.0999 122.092C47.0553 122.706 46.9883 123.8 46.9548 124.52C46.9157 125.24 46.8878 126.976 46.8878 128.372C46.8878 129.767 46.9157 131.504 46.9548 132.224C46.9883 132.944 47.0553 134.038 47.1055 134.652C47.1502 135.266 47.2395 136.248 47.3009 136.829C47.3623 137.41 47.446 138.191 47.4963 138.56C47.5409 138.928 47.6303 139.581 47.6917 140.011C47.7531 140.441 47.8759 141.256 47.9708 141.825C48.0657 142.395 48.2387 143.371 48.3615 144.002C48.4843 144.633 48.6965 145.649 48.836 146.263C48.9756 146.877 49.1989 147.832 49.3384 148.384C49.478 148.937 49.6789 149.702 49.7906 150.087C49.8966 150.472 50.1813 151.438 50.4214 152.236C50.667 153.034 50.974 154.011 51.1136 154.413C51.2475 154.815 51.4373 155.351 51.5322 155.613C51.6216 155.876 51.8225 156.428 51.9732 156.841C52.1295 157.254 52.4366 158.047 52.6543 158.6C52.8776 159.152 53.3018 160.168 53.6033 160.861C53.9047 161.553 54.4071 162.658 54.7197 163.317C55.0323 163.975 55.5124 164.958 55.7915 165.494C56.0706 166.03 56.4614 166.772 56.6623 167.141C56.8633 167.509 57.2261 168.162 57.4717 168.592C57.7174 169.022 58.1193 169.714 58.3649 170.127C58.6105 170.54 59.0292 171.221 59.2916 171.634C59.5483 172.047 59.9949 172.74 60.2796 173.169C60.5528 173.582 60.9444 174.164 61.1679 174.497L61.1951 174.537C61.4184 174.861 61.8147 175.425 62.0771 175.793C62.3395 176.161 62.8698 176.876 63.2549 177.384C63.6345 177.892 64.2877 178.735 64.7063 179.254C65.125 179.773 65.9065 180.717 66.4424 181.347C66.9839 181.978 67.8268 182.933 68.318 183.469C68.8037 184.005 69.8978 185.138 70.7407 185.981C71.5836 186.824 72.7168 187.918 73.2527 188.403C73.7886 188.895 74.7432 189.737 75.374 190.279C76.0048 190.815 76.9482 191.596 77.4673 192.015C77.9865 192.434 78.7792 193.048 79.2257 193.388C79.6723 193.723 80.3478 194.226 80.7329 194.505C81.1181 194.778 81.6317 195.141 81.8773 195.314C82.1229 195.482 82.776 195.923 83.3287 196.291C83.8813 196.659 84.7354 197.212 85.2266 197.519C85.7179 197.826 86.6334 198.379 87.2642 198.747C87.895 199.116 88.8495 199.657 89.3854 199.947C89.9213 200.238 90.7251 200.668 91.1717 200.902C91.6183 201.131 92.5561 201.6 93.2651 201.935C93.974 202.27 95.1016 202.789 95.7771 203.079C96.4525 203.375 97.0387 203.621 97.0777 203.621C97.1112 203.621 97.1447 203.587 97.1447 203.548C97.1447 203.514 97.1224 203.459 97.1001 203.425C97.0722 203.392 96.9605 203.157 96.8544 202.895C96.7428 202.632 96.5977 202.242 96.5307 202.03C96.4246 201.706 96.3967 201.455 96.3688 200.578C96.3409 199.73 96.313 199.479 96.2348 199.333C96.1846 199.238 95.9613 199.01 95.738 198.831C95.5203 198.658 95.0625 198.273 94.722 197.977C94.3815 197.681 93.6726 196.994 93.1534 196.447C92.3887 195.655 92.1933 195.415 92.143 195.23C92.104 195.102 92.0035 194.817 91.9086 194.605C91.8193 194.393 91.7076 194.064 91.6685 193.88C91.6295 193.69 91.6016 193.215 91.6016 192.791C91.6016 192.339 91.6574 191.675 91.7299 191.144C91.8137 190.525 91.8639 189.849 91.8807 188.939C91.903 187.951 91.8863 187.399 91.8193 186.706C91.769 186.198 91.6351 185.171 91.529 184.418C91.4229 183.664 91.289 182.871 91.2331 182.659C91.1774 182.447 91.0604 182.018 90.9767 181.711L90.9763 181.71C90.8256 181.152 90.8256 181.146 90.8591 179.701C90.8759 178.847 90.9261 177.998 90.9763 177.635C91.0266 177.295 91.1326 176.831 91.2164 176.602C91.3504 176.234 91.3671 176.106 91.3615 175.542C91.3615 175.19 91.3336 174.766 91.2945 174.604C91.2499 174.403 91.2275 173.532 91.2275 171.701L91.2331 169.094C90.8703 168.229 90.5409 167.297 90.2674 166.471C89.9939 165.645 89.6757 164.763 89.5585 164.517C89.4356 164.271 89.2682 164.003 89.1844 163.92C89.1503 163.888 89.0983 163.839 89.0373 163.781C88.9869 163.733 88.9304 163.68 88.8729 163.626C88.8414 163.596 88.8097 163.567 88.7785 163.537C88.7552 163.515 88.7323 163.494 88.71 163.473C88.5425 163.311 87.9619 162.719 87.426 162.156C86.5831 161.268 86.4492 161.151 86.4157 161.246C86.3877 161.313 86.3598 161.363 86.3431 161.363C86.3263 161.363 86.064 161.235 85.757 161.084C85.4499 160.928 85.182 160.805 85.1597 160.805C85.1317 160.799 84.9587 160.688 84.7689 160.554C84.5735 160.414 84.4284 160.28 84.4451 160.247C84.4619 160.213 84.4451 160.135 84.4061 160.062C84.3726 159.995 84.0544 159.638 83.7027 159.27C83.15 158.689 83.0272 158.522 82.7816 158.025C82.6197 157.707 82.3518 157.266 82.1843 157.037C82.0169 156.813 81.6317 156.356 81.3247 156.021C81.0232 155.691 80.705 155.317 80.6213 155.195C80.5376 155.072 80.2473 154.541 79.9793 154.022C79.7791 153.634 79.5259 153.134 79.3362 152.759L79.3359 152.759C79.2718 152.632 79.215 152.52 79.1699 152.431C78.9913 152.08 78.7792 151.588 78.6954 151.343C78.6223 151.128 78.5194 150.803 78.4462 150.572L78.4163 150.478C78.3047 150.104 78.2098 149.953 77.5566 149.093L76.8254 148.133C76.9984 147.419 77.0989 146.938 77.1603 146.598C77.2217 146.257 77.2775 145.783 77.2831 145.537C77.2943 145.102 77.2887 145.085 77.0598 144.728L76.8198 144.365V141.909C78.4051 139.972 78.5559 139.749 78.902 139.062C79.1197 138.632 79.6053 137.705 79.9793 136.996C80.3533 136.288 80.839 135.361 81.0511 134.931C81.2688 134.501 81.5089 133.982 81.5926 133.77C81.6875 133.524 81.7377 133.29 81.7377 133.072C81.7377 132.899 81.6875 132.575 81.6205 132.363C81.5535 132.151 81.4363 131.822 81.3526 131.638C81.2186 131.331 81.1795 131.291 80.9283 131.197C80.7106 131.113 80.571 131.096 80.3143 131.124C80.1301 131.141 79.7784 131.219 79.5328 131.297C79.1867 131.409 79.0471 131.431 78.9187 131.392C78.8342 131.362 78.2002 131.168 77.4432 130.937L77.4409 130.936L77.1603 130.85C76.2839 130.588 75.508 130.337 75.4298 130.298C75.3517 130.259 74.9665 129.996 74.5646 129.712C74.2759 129.507 73.7311 129.107 73.1843 128.705L73.183 128.704L73.1819 128.704C72.9681 128.547 72.754 128.389 72.555 128.244C71.846 127.719 70.4951 126.708 69.5405 125.994C68.5916 125.285 67.3858 124.42 66.8611 124.074C66.3419 123.728 65.8284 123.365 65.7279 123.27C65.6218 123.175 65.5158 123.052 65.4878 122.996C65.4599 122.946 65.3985 122.689 65.3539 122.427C65.3092 122.164 65.2199 121.818 65.1585 121.656C65.1027 121.5 65.0022 121.322 64.9352 121.266C64.8291 121.176 64.818 121.176 64.7454 121.294C64.7007 121.366 64.6338 121.534 64.6003 121.673C64.5668 121.813 64.4998 121.98 64.4551 122.047C64.3993 122.142 64.3212 122.176 64.1816 122.176C64.0755 122.176 63.5396 122.042 62.9982 121.874C62.6774 121.779 62.1072 121.606 61.4855 121.416L61.4803 121.415L61.4772 121.414C61.041 121.281 60.58 121.141 60.1624 121.015C59.152 120.708 58.069 120.373 57.7676 120.267C57.4606 120.166 57.1982 120.049 57.1815 120.004C57.1536 119.943 57.187 119.932 57.3322 119.959C57.4383 119.982 57.5108 119.976 57.5108 119.943C57.5108 119.915 57.2819 119.77 57.0028 119.619C56.7181 119.474 56.1934 119.167 55.8306 118.938C55.4677 118.709 54.7644 118.24 54.262 117.9C53.7596 117.565 53.1902 117.219 52.9892 117.14C52.7882 117.057 52.3863 116.895 52.096 116.783C51.8058 116.672 51.4932 116.526 51.4038 116.459C51.309 116.398 51.1917 116.242 51.1359 116.119C51.0801 115.996 51.0354 115.801 51.0354 115.684C51.0354 115.572 51.0968 115.282 51.175 115.042C51.2475 114.807 51.4206 114.433 51.5546 114.221L51.7946 113.83C50.6223 112.356 49.9915 111.547 49.6399 111.084C49.2882 110.615 48.97 110.235 48.9365 110.235C48.903 110.23 48.8472 110.364 48.8193 110.52Z" fill="white"/>
</g>
</g>
<defs>
<filter id="filter0_d_83_298" x="-1.11218" y="-1.12122" width="254.653" height="258.955" filterUnits="userSpaceOnUse" color-interpolation-filters="sRGB">
<feFlood flood-opacity="0" result="BackgroundImageFix"/>
<feColorMatrix in="SourceAlpha" type="matrix" values="0 0 0 0 0 0 0 0 0 0 0 0 0 0 0 0 0 0 127 0" result="hardAlpha"/>
<feOffset/>
<feGaussianBlur stdDeviation="24"/>
<feComposite in2="hardAlpha" operator="out"/>
<feColorMatrix type="matrix" values="0 0 0 0 0 0 0 0 0 0 0 0 0 0 0 0 0 0 0.25 0"/>
<feBlend mode="normal" in2="BackgroundImageFix" result="effect1_dropShadow_83_298"/>
<feBlend mode="normal" in="SourceGraphic" in2="effect1_dropShadow_83_298" result="shape"/>
</filter>
<linearGradient id="paint0_linear_83_298" x1="-104.399" y1="-146.857" x2="255.001" y2="255.001" gradientUnits="userSpaceOnUse">
<stop stop-color="#3E72B7"/>
<stop offset="1" stop-color="#1C3351"/>
</linearGradient>
</defs>
</svg>
