<svg width="256" height="256" viewBox="0 0 256 256" fill="none" xmlns="http://www.w3.org/2000/svg">
<path d="M106.429 254.324C77.8036 252.299 57.2862 246.329 40.0761 235.018C21.6571 222.911 8.93954 200.243 3.9843 170.687C1.69292 157.021 0.962957 146.366 1.00143 127.164C1.07014 93.0812 4.72734 71.9613 13.9373 52.4684C22.7757 33.762 33.8514 22.6792 52.4395 13.9416C72.1839 4.66056 93.5545 1 127.994 1C162.433 1 183.803 4.66056 203.548 13.9416C222.119 22.6715 233.122 33.6726 242.078 52.4684C251.216 71.6451 254.915 93.0336 254.999 127.164C255.1 168.687 249.55 193.658 235.416 215.277C222.216 235.466 198.18 248.266 165.151 252.695C147.932 255.004 125.031 255.639 106.429 254.324Z" fill="url(#paint0_linear_83_298)"/>
<path fill-rule="evenodd" clip-rule="evenodd" d="M126.563 45.9103C126.211 45.9159 125.307 45.9494 124.554 45.9829C123.8 46.0164 122.695 46.0778 122.097 46.1224L121.934 46.1361L121.934 46.1362C121.35 46.1852 120.589 46.2492 120.171 46.2899C119.708 46.3346 119.033 46.4127 118.664 46.463C118.296 46.5132 117.933 46.5858 117.855 46.6193C117.777 46.6583 117.587 46.7253 117.436 46.7588C117.28 46.7979 117.018 46.9151 116.85 47.0156C116.683 47.1217 116.342 47.2668 116.096 47.3394C115.851 47.4175 115.46 47.5459 115.231 47.6241C115.002 47.7078 114.718 47.8362 114.6 47.9088C114.489 47.9869 114.377 48.0483 114.355 48.0483C114.327 48.0483 114.226 48.1153 114.131 48.1879C113.998 48.2883 113.942 48.3777 113.936 48.5061C113.919 48.6735 113.897 48.6959 113.696 48.7349C113.573 48.7628 113.372 48.8354 113.249 48.8968C113.071 48.9917 112.965 49.0029 112.719 48.975C112.501 48.9526 112.334 48.8856 112.133 48.7517C111.949 48.6233 111.759 48.5451 111.575 48.5228C111.424 48.5005 111.19 48.4335 111.056 48.3777C110.821 48.2716 110.821 48.2716 110.419 48.4C110.107 48.5005 109.895 48.5284 109.509 48.5228C109.23 48.5172 108.856 48.4781 108.672 48.4391C108.354 48.3665 108.304 48.3721 107.639 48.5451C107.254 48.64 106.618 48.8187 106.221 48.9303C105.825 49.0419 105.49 49.1648 105.479 49.1927C105.468 49.2206 105.607 49.3155 105.78 49.3992L106.104 49.5555C110.687 49.5276 111.039 49.5388 111.123 49.6113C111.173 49.656 111.218 49.723 111.218 49.7509C111.212 49.7788 111.084 49.9686 110.922 50.164L110.626 50.5212C109.113 50.5045 108.56 50.471 108.421 50.4487C108.281 50.4208 108.142 50.3649 108.103 50.3259C108.052 50.27 107.634 50.2589 106.194 50.2645C104.603 50.2812 104.312 50.27 104.106 50.1919C103.977 50.1417 103.592 50.0802 103.257 50.0579L102.643 50.0133C101.957 50.2562 101.484 50.423 101.162 50.5362L101.162 50.5363L101.161 50.5366C100.855 50.6443 100.687 50.7034 100.606 50.7334C100.438 50.7892 100.114 50.9064 99.8856 50.9957C99.6567 51.0795 99.4614 51.1799 99.4502 51.2134C99.439 51.2693 99.5842 51.286 100.047 51.286C100.639 51.286 100.662 51.2916 100.689 51.4088C100.706 51.4814 100.717 51.5875 100.717 51.6489C100.717 51.7549 100.689 51.7605 100.232 51.727L99.7405 51.6991C98.7468 52.1568 98.384 52.3466 98.2891 52.4192C98.1942 52.4918 98.0714 52.5755 98.01 52.609C97.9486 52.6425 97.7867 52.6872 97.6471 52.7039L97.3959 52.743C97.2452 52.3913 97.2005 52.2406 97.2005 52.1792C97.2005 52.1178 97.1894 52.0675 97.1726 52.0675C97.1562 52.0675 96.5794 52.3154 95.8816 52.6152L95.8815 52.6152L95.8441 52.6313C95.1351 52.9439 93.9461 53.4854 93.2092 53.8371C92.4724 54.1888 91.3392 54.7526 90.6972 55.0931C90.0553 55.4336 89.1844 55.9025 88.7714 56.1314C88.7231 56.1588 88.6711 56.1883 88.6161 56.2195C88.2002 56.4553 87.6159 56.7866 87.2362 57.0134C86.8064 57.2646 86.4492 57.499 86.4436 57.5325C86.4324 57.5716 86.6222 57.6107 86.9739 57.633C87.2697 57.6609 88.0457 57.6777 88.6876 57.6777C89.8041 57.6777 89.8711 57.6721 90.0832 57.5493C90.206 57.4823 90.4572 57.2311 90.6414 57.0022C90.8256 56.7678 91.3113 56.2598 91.7244 55.869C92.1877 55.4336 92.5729 55.0149 92.7403 54.7582C92.9357 54.4735 93.0864 54.3116 93.2818 54.2055C93.466 54.0939 93.6391 54.0492 93.8791 54.0325L94.214 54.0157C94.4932 54.3897 94.7667 54.7079 95.0011 54.9703C95.2356 55.2327 95.9334 55.9695 96.553 56.6059C97.3792 57.4655 97.7476 57.8061 97.9541 57.9121C98.1607 58.0126 98.2779 58.0405 98.4007 58.0126C98.5124 57.9847 98.7747 57.7614 99.2102 57.3204C99.707 56.8124 99.9414 56.6226 100.243 56.4663C100.455 56.3547 101.225 56.0588 101.945 55.8132C102.666 55.562 103.268 55.3722 103.285 55.389C103.302 55.4113 103.112 56.0253 102.867 56.7678C102.532 57.7726 102.364 58.1968 102.197 58.448C102.074 58.6322 101.906 58.8276 101.823 58.889C101.733 58.9448 101.521 59.0118 101.348 59.0453C101.17 59.0732 100.801 59.1737 100.522 59.2686C100.243 59.3635 99.8689 59.4528 99.6846 59.4752C99.5004 59.4919 99.0706 59.6035 98.7357 59.7208C98.4007 59.8324 97.809 60.039 97.4238 60.1785C97.0387 60.3181 96.5139 60.4688 96.2516 60.519C95.9892 60.5637 95.4756 60.6418 95.1072 60.6921C94.5657 60.7591 94.3648 60.8149 94.0466 60.9712C93.8065 61.0884 93.4604 61.3396 93.1534 61.6132C92.8743 61.8644 92.5003 62.1379 92.3161 62.2272C92.1319 62.3221 91.7802 62.4449 91.5346 62.5063C91.289 62.5621 90.5744 62.6794 89.9436 62.7575C89.3128 62.8412 88.6486 62.9417 88.4643 62.9864C88.2801 63.0366 87.9173 63.1483 87.6549 63.2376C87.3925 63.3269 87.0409 63.4162 86.8734 63.4385C86.7059 63.4553 86.4994 63.5055 86.4157 63.5446C86.3263 63.5893 86.198 63.7177 86.1198 63.8293C86.0472 63.9465 85.9188 64.2145 85.8407 64.4322C85.757 64.6443 85.5895 65.0127 85.4611 65.2416L85.2266 65.6603C85.2434 67.8653 85.249 67.9043 85.4109 68.3677C85.4605 68.5049 85.5223 68.6727 85.5804 68.8302C85.6334 68.9739 85.6833 69.1091 85.7179 69.205C85.796 69.406 85.9188 69.6125 85.9914 69.6627C86.0584 69.713 86.2817 69.7967 86.4826 69.8414C86.6836 69.8916 87.3367 69.9586 87.934 69.9977L89.0226 70.0647C89.7594 70.5447 90.0888 70.7959 90.2339 70.9355C90.3958 71.0862 90.5019 71.2369 90.5019 71.3095C90.5019 71.3821 90.5688 71.7058 90.647 72.0352C90.7252 72.3701 90.8368 72.8893 90.8926 73.1963C90.9484 73.5033 91.0098 73.9778 91.0322 74.2569C91.0545 74.5528 91.1159 74.8654 91.1829 75.0105C91.2387 75.1501 91.3448 75.3231 91.4118 75.3901C91.4787 75.4627 91.6351 75.5743 91.7579 75.6357C91.8807 75.6971 92.1207 75.7641 92.2882 75.7753L92.5952 75.8032C93.3767 75.0887 94.0912 74.4523 94.6885 73.9276C95.2858 73.3973 96.0785 72.7274 96.4469 72.4371C96.8154 72.1413 97.2396 71.7672 97.3848 71.5998C97.5355 71.4323 97.7699 71.0974 97.9095 70.8518C98.0546 70.6061 98.2891 70.2265 98.4342 70.0144C98.5794 69.7967 98.825 69.3613 98.9869 69.0375C99.1432 68.7138 99.4055 68.2728 99.5674 68.0606C99.7293 67.8429 100.075 67.441 100.332 67.1675C100.39 67.1055 100.451 67.0408 100.512 66.976C100.726 66.7492 100.94 66.5224 101.036 66.4139C101.164 66.2743 101.348 66.0566 101.443 65.9282C101.566 65.7608 101.744 65.6268 102.13 65.4314C102.409 65.2863 102.805 65.0686 103.006 64.9457C103.199 64.8334 103.448 64.675 103.576 64.5932L103.576 64.5931L103.592 64.5829C103.628 64.5586 103.682 64.5216 103.749 64.4762L103.752 64.4745C103.915 64.3637 104.15 64.204 104.363 64.0582C104.658 63.8516 104.893 63.6507 104.876 63.6228C104.859 63.5893 104.887 63.5558 104.932 63.539C104.988 63.5223 105.01 63.5446 105.005 63.6004C104.993 63.6618 105.401 63.874 106.568 64.4099L108.142 65.13C109.147 65.13 109.47 65.1635 109.733 65.236C109.945 65.2918 110.375 65.4314 110.682 65.543C110.989 65.6603 111.363 65.8166 111.508 65.9003C111.77 66.0455 111.793 66.0789 112.245 67C112.501 67.5192 112.803 68.15 112.915 68.3956C113.026 68.6412 113.305 69.2831 113.534 69.819C113.763 70.3549 114.009 70.9187 114.081 71.075C114.154 71.2258 114.282 71.4379 114.372 71.544C114.461 71.6444 114.634 71.7896 114.757 71.8621C114.88 71.9347 115.22 72.0687 115.51 72.1636C115.801 72.2529 116.124 72.3925 116.225 72.4706C116.32 72.5488 116.448 72.6939 116.498 72.7888C116.571 72.9284 116.593 73.1014 116.588 73.4754C116.582 73.7601 116.537 74.1453 116.476 74.363C116.42 74.5751 116.336 74.7649 116.292 74.7928C116.247 74.8152 115.845 74.9547 115.399 75.0998C114.952 75.2394 114.31 75.4683 113.975 75.6078C113.64 75.7474 113.188 75.9483 112.97 76.06C112.758 76.1716 112.485 76.3726 112.356 76.501C112.228 76.635 111.982 76.8024 111.77 76.8973C111.569 76.9866 111.184 77.115 110.905 77.1764C110.626 77.2378 110.09 77.3272 109.705 77.3774C109.32 77.4276 108.544 77.4946 107.974 77.5281C107.405 77.5616 106.54 77.5784 106.048 77.5672L105.155 77.5393C104.636 77.8407 104.184 78.1366 103.815 78.3822C103.447 78.6334 102.995 78.9739 102.811 79.147C102.626 79.32 102.459 79.5154 102.431 79.5768C102.403 79.6605 102.426 79.7387 102.498 79.8224C102.599 79.9452 102.649 79.9508 103.268 79.9452C103.732 79.9452 104.067 79.9062 104.402 79.828C104.664 79.761 104.949 79.7052 105.044 79.6996C105.138 79.694 105.267 79.6884 105.334 79.694C105.406 79.6996 105.719 79.895 106.032 80.1294C106.344 80.3695 106.646 80.6374 106.702 80.7323C106.757 80.8272 106.802 81.0059 106.802 81.151C106.802 81.3073 106.757 81.4971 106.674 81.6534C106.579 81.832 106.528 82.0832 106.478 82.5465C106.439 82.8982 106.361 83.3671 106.3 83.5793C106.238 83.7914 106.143 84.0314 106.082 84.1096C106.026 84.1877 105.708 84.4557 105.373 84.7125C105.038 84.9692 104.614 85.2484 104.43 85.3377C104.245 85.427 103.916 85.5386 103.704 85.5833C103.492 85.6279 103.157 85.6782 102.961 85.6949C102.772 85.7117 102.615 85.7173 102.615 85.7005C102.615 85.6838 102.66 85.5889 102.71 85.4884C102.76 85.3935 102.822 85.2093 102.844 85.0865C102.867 84.9637 102.861 84.6734 102.833 84.4445C102.8 84.2156 102.71 83.836 102.638 83.6072C102.559 83.3783 102.481 83.155 102.459 83.1159C102.431 83.0601 102.219 83.1104 101.555 83.3281C101.08 83.4844 100.299 83.7077 99.8242 83.8249C99.3274 83.9477 98.8026 84.1152 98.5961 84.2212C98.3951 84.3217 98.0937 84.4892 97.9262 84.6008C97.7588 84.7069 97.4964 84.8967 97.3457 85.0251C97.195 85.1479 96.9326 85.427 96.7595 85.6447C96.5865 85.8568 96.3353 86.0969 96.2013 86.175C96.0674 86.2532 95.8608 86.4039 95.738 86.5099C95.6152 86.616 95.3863 86.9174 95.23 87.1798C95.0737 87.4422 94.8728 87.7548 94.7779 87.8832C94.683 88.0116 94.4932 88.2069 94.3536 88.3186C94.214 88.4358 93.9238 88.6144 93.7116 88.7149C93.4995 88.8154 93.1702 88.9382 92.986 88.9885C92.8017 89.0443 92.1486 89.2508 91.5346 89.4518C90.9205 89.6527 90.2674 89.8816 90.0832 89.9542C89.899 90.0323 89.6757 90.1496 89.5864 90.2165C89.4971 90.278 89.3352 90.4733 89.2291 90.6408C89.1175 90.8083 88.7937 91.3609 88.5034 91.8689C88.2187 92.3769 87.8224 93.03 87.6326 93.3203C87.4428 93.6105 87.1413 94.0515 86.9627 94.2972C86.7785 94.5539 86.0863 95.2908 85.3439 96.0277C84.3112 97.0492 83.725 97.6912 82.4858 99.176C81.6317 100.198 80.8837 101.102 80.8334 101.186C80.7832 101.264 80.7162 101.554 80.6827 101.833C80.6492 102.107 80.6101 102.877 80.5878 103.536C80.5599 104.507 80.5152 104.976 80.3589 105.992C80.2529 106.684 80.1301 107.399 80.0798 107.583C80.0352 107.767 79.9682 107.968 79.9403 108.029L79.8789 108.141C79.7616 107.968 79.717 107.829 79.7002 107.722C79.6779 107.561 79.6109 107.488 79.3485 107.298C79.1755 107.17 78.8796 106.935 78.701 106.768C78.5224 106.6 78.2656 106.316 78.1372 106.132C78.0088 105.947 77.8581 105.657 77.8023 105.49C77.7464 105.322 77.618 105.004 77.5231 104.792C77.4227 104.58 77.2273 104.021 77.0877 103.564C76.9426 103.1 76.7807 102.665 76.7249 102.587C76.6635 102.509 76.5853 102.447 76.5407 102.447C76.496 102.447 76.4179 102.537 76.3676 102.643C76.2727 102.821 76.2448 102.838 75.949 102.871C75.7703 102.894 75.3014 102.911 74.8995 102.916C74.4976 102.916 74.0119 102.894 73.811 102.86C73.61 102.821 73.2416 102.693 72.9736 102.564C72.5382 102.352 72.4712 102.336 72.0526 102.341C71.7288 102.347 71.4776 102.386 71.1315 102.503C70.8691 102.587 70.4951 102.732 70.2941 102.827C70.0932 102.927 69.8029 103.112 69.6522 103.245C69.5015 103.374 69.2838 103.508 69.1777 103.547C69.0661 103.58 68.8818 103.592 68.759 103.569C68.6362 103.547 67.905 103.525 67.1402 103.519C65.8284 103.508 65.7279 103.513 65.4934 103.625C65.3539 103.692 65.1027 103.848 64.9352 103.977C64.7677 104.105 64.2039 104.423 63.6792 104.68C63.1545 104.937 62.4958 105.3 62.2111 105.484L61.6975 105.824C61.463 106.45 61.2509 106.846 61.0723 107.108C60.8992 107.371 60.6034 107.762 60.4192 107.974C60.235 108.186 60.0228 108.487 59.9447 108.644C59.8721 108.794 59.7884 109.023 59.766 109.146C59.7493 109.269 59.7605 109.492 59.794 109.648C59.8274 109.799 59.9503 110.078 60.0675 110.262C60.1847 110.447 60.3131 110.737 60.3578 110.904C60.3968 111.072 60.5866 111.686 60.7764 112.272C60.9662 112.853 61.2286 113.595 61.357 113.919C61.4854 114.243 61.7422 114.817 61.9208 115.203C62.105 115.588 62.2725 115.984 62.2948 116.085C62.3227 116.191 62.373 116.263 62.4232 116.263C62.4678 116.263 62.9312 116.202 63.4559 116.124C63.9806 116.046 64.5556 115.956 64.7398 115.923C64.906 115.898 65.2359 115.831 65.5038 115.778L65.5039 115.778L65.5043 115.778L65.5883 115.761C65.873 115.699 66.2135 115.61 66.3419 115.565C66.4759 115.521 66.6099 115.443 66.6378 115.387C66.6657 115.331 67.023 114.963 67.4249 114.561C67.9161 114.069 68.2231 113.712 68.3739 113.455C68.5637 113.132 68.6251 113.065 68.8428 112.986C69.0214 112.92 69.1777 112.908 69.3731 112.931C69.5294 112.953 69.8587 113.031 70.1155 113.109C70.3667 113.187 70.5733 113.266 70.5733 113.288C70.5733 113.316 70.4114 113.534 70.216 113.779L69.8643 114.226C69.8085 115.967 69.7527 116.637 69.6857 116.989C69.6299 117.313 69.5238 117.698 69.4512 117.849C69.3675 118.022 69.1777 118.251 68.9321 118.463C68.72 118.652 68.5302 118.848 68.5023 118.898C68.4632 118.971 68.4855 119.043 68.5804 119.149C68.653 119.239 68.9377 119.423 69.2112 119.562C69.4847 119.708 69.9313 119.897 70.2104 119.992C70.4895 120.082 70.8245 120.176 70.964 120.199C71.1594 120.232 71.2543 120.215 71.3827 120.137C71.5278 120.054 71.6283 120.042 72.1084 120.076C72.4154 120.093 72.7168 120.126 72.7782 120.143C72.8452 120.165 73.0574 120.45 73.2918 120.83L73.6937 121.483C73.7496 123.503 73.744 124.184 73.7161 124.358C73.6882 124.525 73.6714 124.804 73.6826 124.972L73.6993 125.279C74.6706 126.188 75.134 126.607 75.3461 126.791C75.5582 126.976 75.8987 127.255 76.0997 127.411C76.3006 127.567 76.5463 127.735 76.6467 127.785C76.7416 127.835 76.9091 127.874 77.0096 127.874C77.1212 127.88 77.2161 127.841 77.2719 127.774C77.3334 127.696 77.6515 127.59 78.4163 127.4C79.1532 127.216 79.5272 127.149 79.6444 127.177C79.7393 127.193 79.9738 127.316 80.1747 127.444C80.3701 127.573 80.7664 127.863 81.0511 128.081C81.3358 128.304 81.6038 128.488 81.6428 128.488C81.6763 128.488 81.8215 128.416 81.961 128.326C82.1173 128.226 82.3015 128.019 82.4523 127.796C82.6086 127.545 82.7537 127.394 82.8988 127.322C83.0105 127.266 83.2561 127.177 83.4403 127.121C83.6245 127.07 83.8757 126.976 83.9985 126.914C84.1214 126.853 84.2944 126.73 84.3893 126.635C84.4898 126.54 84.6014 126.479 84.6684 126.49C84.741 126.501 84.7856 126.557 84.7912 126.646C84.8024 126.741 84.9419 126.903 85.2266 127.149C85.4555 127.35 85.8016 127.606 85.997 127.724C86.2538 127.88 86.4045 127.93 86.5831 127.93C86.8008 127.93 86.8287 127.913 86.9516 127.69C87.0241 127.562 87.1246 127.316 87.1748 127.149C87.2251 126.981 87.2642 126.736 87.2642 126.602C87.2642 126.378 87.2865 126.35 87.6437 126.055C87.8503 125.881 88.2076 125.647 88.4364 125.541C88.7323 125.396 88.9556 125.329 89.19 125.312C89.3742 125.301 89.6199 125.306 89.7371 125.329C89.8487 125.346 90.0218 125.429 90.1167 125.513C90.2786 125.658 90.2897 125.692 90.273 125.988L90.2507 126.306C90.658 126.353 91.207 126.4 91.756 126.447L91.8695 126.456C92.4556 126.501 93.3209 126.574 93.7954 126.618L94.6606 126.691C96.3465 127.467 97.0163 127.779 97.2285 127.891C97.4406 127.997 97.8592 128.287 98.1495 128.539C98.6631 128.968 98.7077 128.996 99.4893 129.27C99.9358 129.432 100.751 129.739 101.303 129.951C102.247 130.319 102.325 130.364 102.587 130.638C102.744 130.799 103.09 131.274 103.369 131.693L103.871 132.452C104.865 132.764 105.708 133.038 106.383 133.261C107.059 133.484 108.013 133.819 108.505 134.004C108.996 134.182 109.56 134.417 109.761 134.517C109.962 134.612 110.19 134.74 110.28 134.802C110.363 134.858 110.486 135.014 110.553 135.142C110.62 135.276 110.693 135.505 110.715 135.662C110.737 135.812 110.732 136.142 110.698 136.387C110.67 136.633 110.615 137.174 110.576 137.587C110.537 138.001 110.47 138.402 110.43 138.481C110.391 138.559 110.107 139.011 109.8 139.485C109.493 139.96 109.152 140.462 109.04 140.596C108.845 140.836 108.84 140.859 108.84 141.288V141.729C109.241 142.087 109.56 142.304 109.8 142.444C110.04 142.584 110.386 142.757 110.57 142.829C110.765 142.907 111.067 142.974 111.296 142.991C111.575 143.008 111.815 142.985 112.133 142.902C112.379 142.84 113.054 142.606 113.64 142.377C114.226 142.148 114.946 141.863 115.248 141.741L115.795 141.523C117.458 142.321 118.218 142.639 118.553 142.745C118.888 142.851 119.982 143.192 120.981 143.499C121.98 143.806 123.018 144.124 123.298 144.202C123.577 144.281 124.101 144.42 124.47 144.515C124.585 144.545 124.707 144.576 124.824 144.605L124.83 144.607C125.084 144.671 125.316 144.73 125.419 144.761C125.676 144.833 125.748 144.9 126.29 145.525C126.613 145.905 127.166 146.564 127.507 146.993C127.853 147.423 128.255 147.959 128.411 148.177L128.684 148.584L128.723 150.566C128.338 152.386 128.143 153.212 128.037 153.581C127.925 153.949 127.791 154.362 127.73 154.502C127.663 154.641 127.551 154.825 127.473 154.92C127.395 155.015 127.278 155.199 127.222 155.339C127.168 155.46 126.997 155.894 126.813 156.358L126.813 156.359L126.813 156.36L126.731 156.567C126.524 157.103 126.211 157.857 126.033 158.242C125.86 158.627 125.558 159.213 125.363 159.554C125.173 159.894 124.922 160.357 124.805 160.586C124.693 160.815 124.554 161.184 124.498 161.396C124.447 161.608 124.286 162.004 124.14 162.272C123.917 162.702 123.884 162.808 123.884 163.098C123.884 163.327 123.928 163.539 124.023 163.768C124.157 164.092 124.157 164.114 124.079 164.393C124.034 164.555 123.906 164.868 123.794 165.08C123.683 165.292 123.504 165.582 123.392 165.722C123.355 165.765 123.311 165.815 123.266 165.867C123.171 165.976 123.07 166.093 123.002 166.168C122.901 166.275 122.622 166.654 122.388 167.006C122.153 167.358 121.835 167.771 121.679 167.921C121.528 168.072 121.187 168.334 120.925 168.507C120.652 168.681 120.25 168.881 119.976 168.976C119.714 169.066 119.049 169.25 118.497 169.384C117.944 169.523 117.419 169.663 117.325 169.696C117.23 169.73 117.112 169.797 117.057 169.847C117.001 169.897 116.934 170.026 116.906 170.132C116.878 170.238 116.772 170.45 116.666 170.606C116.565 170.757 116.281 171.059 116.035 171.265C115.795 171.477 115.443 171.728 115.259 171.829C115.075 171.929 114.746 172.136 114.533 172.292C114.321 172.443 114.003 172.627 113.836 172.7C113.668 172.767 113.478 172.867 113.423 172.917C113.367 172.968 113.272 173.107 113.216 173.23C113.16 173.353 113.076 173.693 113.026 173.984C112.982 174.274 112.898 174.693 112.853 174.905C112.803 175.117 112.669 175.608 112.552 175.993C112.429 176.378 112.256 176.881 112.161 177.11C112.066 177.339 111.809 177.819 111.592 178.17C111.379 178.522 111.033 179.041 110.827 179.315C110.62 179.588 110.213 180.141 109.922 180.543C109.632 180.945 109.258 181.414 109.091 181.587C108.856 181.827 108.733 181.91 108.56 181.938C108.415 181.966 108.231 181.949 108.03 181.894L107.723 181.804C107.517 181.951 107.286 182.115 107.044 182.286L107.043 182.287C106.781 182.472 106.508 182.665 106.244 182.854C105.535 183.356 105.317 183.54 105.306 183.641C105.289 183.747 105.384 183.898 105.686 184.255C105.959 184.584 106.104 184.813 106.16 185.009C106.21 185.159 106.244 185.399 106.244 185.539C106.244 185.678 106.177 186.103 106.099 186.488C106.004 186.968 105.903 187.281 105.786 187.493C105.691 187.66 105.518 187.922 105.406 188.079C105.295 188.229 105.094 188.453 104.971 188.564C104.843 188.682 104.469 188.905 104.139 189.067C103.804 189.223 103.492 189.391 103.436 189.441C103.375 189.497 103.335 189.608 103.335 189.753C103.341 189.876 103.402 190.1 103.475 190.256L103.615 190.535C102.682 192.394 102.303 193.114 102.169 193.326C102.04 193.538 101.895 193.817 101.851 193.94C101.811 194.063 101.778 194.314 101.778 194.498C101.778 194.683 101.811 194.945 101.856 195.084C101.895 195.224 102.169 195.816 102.465 196.396C102.973 197.412 103.006 197.507 103.285 198.601C103.469 199.31 103.581 199.874 103.581 200.081C103.587 200.304 103.531 200.583 103.43 200.918C103.341 201.191 103.185 201.632 103.084 201.895C102.978 202.157 102.805 202.509 102.705 202.676C102.599 202.844 102.459 203.173 102.392 203.402C102.325 203.631 102.241 203.882 102.202 203.96C102.169 204.038 102.035 204.15 101.906 204.211C101.778 204.273 101.672 204.34 101.666 204.362C101.666 204.39 102.085 204.546 102.604 204.714L102.803 204.777C103.325 204.941 104.068 205.176 104.569 205.328C105.138 205.501 105.993 205.752 106.467 205.881C106.942 206.015 107.784 206.243 108.337 206.383C108.89 206.523 109.744 206.723 110.235 206.835C110.726 206.947 111.681 207.148 112.356 207.282C113.032 207.416 114.115 207.617 114.757 207.723C115.399 207.834 116.281 207.974 116.71 208.03C117.14 208.091 117.905 208.192 118.413 208.253C118.921 208.314 119.708 208.404 120.171 208.454C120.59 208.495 121.353 208.559 121.937 208.608L122.097 208.621C122.695 208.666 123.778 208.733 124.498 208.767C125.218 208.806 126.954 208.834 128.349 208.834C129.745 208.834 131.481 208.806 132.201 208.767C132.921 208.733 134.004 208.666 134.602 208.621L134.66 208.617C135.254 208.567 136.079 208.497 136.527 208.454C136.985 208.409 137.778 208.32 138.286 208.253C138.794 208.192 139.559 208.091 139.988 208.03C140.418 207.968 141.233 207.845 141.803 207.751C142.372 207.656 143.349 207.483 143.98 207.36C144.611 207.237 145.626 207.019 146.241 206.885C146.855 206.746 147.859 206.506 148.473 206.349C149.087 206.199 149.964 205.959 150.427 205.83C150.885 205.696 151.477 205.523 151.739 205.451C152.001 205.373 152.666 205.166 153.218 204.993C153.771 204.82 154.614 204.541 155.088 204.368L155.352 204.275L155.358 204.273L155.385 204.263C155.791 204.12 156.218 203.969 156.428 203.893C156.69 203.798 157.494 203.491 158.214 203.207C158.935 202.922 160.017 202.475 160.615 202.213C161.212 201.956 161.994 201.61 162.345 201.448C162.697 201.292 163.612 200.851 164.383 200.471C165.148 200.097 166.208 199.556 166.727 199.271C167.246 198.992 168.078 198.529 168.569 198.25C169.061 197.971 169.943 197.457 170.523 197.105C171.104 196.754 171.975 196.212 172.449 195.905C172.924 195.598 173.666 195.107 174.096 194.811C174.526 194.521 175.279 193.996 175.771 193.644C176.262 193.293 177.027 192.729 177.473 192.388C177.92 192.048 178.763 191.389 179.343 190.926C179.924 190.457 180.795 189.742 181.269 189.335C181.744 188.922 182.475 188.285 182.882 187.917C183.295 187.543 183.926 186.968 184.278 186.633C184.635 186.292 185.394 185.556 185.964 184.986C186.533 184.417 187.27 183.658 187.61 183.3C187.945 182.949 188.52 182.318 188.894 181.905C189.263 181.497 189.81 180.872 190.106 180.526C190.603 179.951 190.647 179.884 190.614 179.717C190.597 179.622 190.547 179.41 190.497 179.259C190.446 179.103 190.323 178.796 190.223 178.572C190.117 178.355 190 178.165 189.966 178.165C189.927 178.159 189.843 178.159 189.782 178.165C189.715 178.17 189.57 178.075 189.43 177.936C189.296 177.802 189.067 177.506 188.922 177.277C188.772 177.048 188.559 176.669 188.442 176.44C188.325 176.211 188.152 175.82 188.051 175.575C187.951 175.329 187.817 174.938 187.756 174.709C187.689 174.48 187.544 173.799 187.437 173.202C187.326 172.605 187.175 171.851 187.103 171.527C187.03 171.204 186.913 170.791 186.851 170.606C186.79 170.422 186.634 169.881 186.511 169.406C186.388 168.932 186.159 168.228 186.003 167.843C185.847 167.458 185.567 166.822 185.378 166.42C185.188 166.018 184.831 165.381 184.579 164.996C184.334 164.611 184.055 164.148 183.96 163.964C183.865 163.779 183.736 163.467 183.675 163.266C183.608 163.065 183.502 162.551 183.441 162.121C183.379 161.692 183.29 161.161 183.24 160.949C183.195 160.737 183.139 160.396 183.128 160.195C183.1 159.9 183.139 159.671 183.307 158.967C183.424 158.493 183.563 157.935 183.619 157.723C183.709 157.404 183.775 157.298 184.06 156.997C184.278 156.779 184.434 156.556 184.484 156.4C184.535 156.26 184.724 155.847 184.903 155.479C185.154 154.971 185.249 154.708 185.294 154.39C185.35 154.027 185.344 153.876 185.244 153.274C185.177 152.888 185.11 152.397 185.087 152.185C185.071 151.973 185.004 151.644 184.948 151.459C184.892 151.275 184.78 150.862 184.702 150.538C184.618 150.203 184.44 149.712 184.289 149.394C184.144 149.087 183.993 148.763 183.96 148.668C183.921 148.573 183.842 148.25 183.781 147.942C183.72 147.635 183.669 147.256 183.669 147.105C183.669 146.887 183.63 146.765 183.496 146.547C183.396 146.391 183.173 146.089 183 145.877C182.821 145.665 182.441 145.235 182.162 144.928C181.878 144.621 181.587 144.264 181.515 144.13C181.392 143.912 181.386 143.873 181.442 143.599C181.492 143.376 181.492 143.242 181.442 143.03C181.403 142.874 181.197 142.416 180.984 142.009C180.666 141.4 180.599 141.227 180.599 141.004C180.599 140.859 180.521 140.485 180.432 140.166C180.337 139.854 180.264 139.485 180.264 139.346C180.264 139.206 180.225 138.855 180.181 138.564C180.13 138.235 180.114 137.956 180.141 137.822C180.164 137.71 180.264 137.52 180.365 137.403C180.46 137.292 180.56 137.13 180.577 137.04C180.599 136.957 180.599 136.7 180.582 136.471C180.56 136.242 180.521 136.041 180.493 136.024C180.465 136.008 180.359 135.807 180.264 135.578C180.169 135.349 180.063 135.12 180.024 135.075C179.985 135.031 179.801 134.819 179.617 134.612C179.438 134.406 179.237 134.221 179.176 134.205C179.103 134.182 179.014 134.221 178.925 134.322L178.785 134.467C178.221 134.322 177.931 134.232 177.78 134.171C177.624 134.11 177.367 133.976 177.205 133.87C177.049 133.764 176.608 133.373 176.234 133.004C175.815 132.591 175.352 132.195 175.045 131.994C174.771 131.81 174.308 131.547 174.018 131.402C173.599 131.196 173.42 131.134 173.152 131.123C172.946 131.112 172.505 131.162 172.03 131.252C171.601 131.33 171.227 131.419 171.193 131.441C171.16 131.469 170.897 131.592 170.607 131.715C170.317 131.843 170.021 132.005 169.948 132.072C169.853 132.167 169.82 132.251 169.837 132.379C169.848 132.508 169.825 132.569 169.77 132.586C169.755 132.591 169.714 132.604 169.654 132.622C169.62 132.632 169.58 132.644 169.536 132.657L169.535 132.658C169.42 132.692 169.276 132.735 169.128 132.781C168.821 132.87 168.318 133.01 168.011 133.088C167.704 133.172 167.358 133.233 167.241 133.233C167.129 133.233 166.878 133.172 166.688 133.094L166.688 133.094C166.596 133.057 166.529 133.03 166.459 133.011C166.26 132.958 166.045 132.969 165.22 133.01C164.606 133.038 163.908 133.088 163.674 133.122C163.278 133.172 163.216 133.2 163.032 133.39C162.904 133.518 162.53 133.747 162.066 133.976C161.653 134.182 161.195 134.383 161.045 134.422C160.799 134.484 160.726 134.473 159.844 134.244C159.331 134.11 158.622 133.942 158.27 133.864C157.919 133.786 157.606 133.702 157.572 133.674C157.539 133.641 157.556 133.624 157.628 133.624C157.69 133.63 157.773 133.596 157.807 133.557C157.863 133.501 157.846 133.457 157.723 133.339C157.639 133.261 157.427 133.088 157.243 132.949C157.053 132.809 156.724 132.452 156.462 132.122C156.216 131.799 155.926 131.413 155.825 131.257C155.725 131.101 155.58 130.772 155.496 130.526C155.418 130.28 155.183 129.7 154.977 129.242C154.77 128.779 154.368 127.707 154.078 126.853C153.76 125.921 153.525 125.307 153.486 125.307C153.447 125.307 153.414 125.329 153.414 125.362C153.414 125.39 153.391 125.413 153.358 125.401C153.33 125.396 153.001 125.05 152.627 124.637C152.253 124.224 151.722 123.604 151.449 123.269C151.086 122.822 150.958 122.621 150.974 122.543C150.991 122.482 150.98 122.359 150.952 122.264C150.924 122.169 150.874 121.868 150.84 121.594C150.796 121.237 150.796 120.936 150.84 120.562C150.874 120.271 150.98 119.78 151.075 119.473C151.17 119.166 151.359 118.703 151.493 118.44C151.627 118.178 151.773 117.804 151.817 117.603C151.873 117.352 151.89 117.022 151.873 116.542C151.856 116.157 151.834 115.789 151.817 115.716C151.806 115.649 151.633 115.415 151.432 115.203C151.231 114.991 151.052 114.756 151.036 114.684C151.019 114.617 151.052 114.332 151.119 114.058C151.181 113.779 151.265 113.316 151.298 113.026C151.337 112.724 151.399 112.473 151.438 112.439C151.482 112.406 151.549 112.283 151.588 112.16C151.633 112.038 151.733 111.831 151.817 111.697C151.895 111.569 152.135 111.267 152.342 111.027C152.548 110.793 152.833 110.458 152.962 110.29C153.096 110.123 153.252 109.883 153.313 109.76C153.375 109.637 153.408 109.503 153.391 109.464C153.375 109.431 153.308 109.392 153.246 109.38C153.151 109.369 153.224 109.224 153.782 108.336C154.245 107.594 154.547 107.175 154.859 106.857C155.094 106.612 155.367 106.271 155.462 106.104C155.557 105.936 155.808 105.629 156.021 105.423C156.227 105.222 156.501 104.909 156.623 104.736C156.746 104.563 157.025 104.189 157.238 103.91L157.628 103.396L158.376 103.34C159.699 102.029 159.844 101.85 159.872 101.694C159.889 101.588 159.861 101.236 159.811 100.912C159.761 100.588 159.722 100.237 159.722 100.131C159.722 99.9464 159.75 99.9129 160.397 99.4607C160.771 99.1984 161.419 98.6736 161.832 98.2885C162.245 97.9033 162.775 97.44 163.01 97.2502C163.244 97.066 163.512 96.7868 163.612 96.6361C163.713 96.4854 163.836 96.2454 163.892 96.0946C163.947 95.9495 164.014 95.8323 164.048 95.8323C164.081 95.8323 164.427 95.8993 164.829 95.9774C165.231 96.0556 165.667 96.1728 165.806 96.2342C166.002 96.3179 166.32 96.3682 167.202 96.4352L168.346 96.5245C169.558 95.6648 170.149 95.2238 170.44 94.9838C170.57 94.8781 170.713 94.7622 170.841 94.6571L170.846 94.6532C171.001 94.5267 171.137 94.4162 171.21 94.3586L171.444 94.1576C175.776 94.1799 176.323 94.2023 176.34 94.2525C176.351 94.3083 176.524 94.3251 176.954 94.3251C177.289 94.3251 177.819 94.2916 178.143 94.2413C178.467 94.1967 179.031 94.0739 179.399 93.9678C179.767 93.8617 180.259 93.7389 180.488 93.6943C180.716 93.644 180.945 93.6273 180.99 93.6496C181.035 93.6775 181.118 93.8003 181.169 93.9287C181.224 94.0515 181.269 94.2413 181.269 94.3362C181.269 94.4367 181.37 94.7661 181.492 95.0619C181.693 95.5476 181.716 95.6592 181.716 96.0667C181.716 96.3235 181.744 96.8371 181.783 97.2167L181.855 97.9033C182.503 98.322 182.854 98.5341 183.055 98.6401C183.256 98.7518 183.647 98.9025 183.921 98.9862C184.194 99.0644 184.808 99.2821 185.277 99.4775L186.131 99.8236L186.126 100.521C186.622 100.84 186.929 101.013 187.13 101.113C187.376 101.23 187.906 101.387 188.749 101.582C189.441 101.738 190.128 101.906 190.284 101.95C190.435 101.995 190.776 102.029 191.038 102.029C191.379 102.029 191.574 101.995 191.736 101.923C191.859 101.867 192.121 101.699 192.316 101.548C192.512 101.398 192.713 101.191 192.763 101.096C192.847 100.923 192.847 100.884 192.69 100.399C192.545 99.9296 192.54 99.8571 192.601 99.6282C192.635 99.4886 192.718 99.2654 192.785 99.1314L192.908 98.8913C193.472 98.9416 194.008 98.9862 194.471 99.0197L195.308 99.0811C196.52 99.7119 197.123 99.9799 197.43 100.08C197.926 100.242 198.049 100.265 198.546 100.253C198.853 100.248 199.305 100.214 199.551 100.181C199.797 100.147 200.12 100.069 200.277 100.013L200.556 99.9017C201.594 100.292 202.057 100.471 202.258 100.549C202.459 100.633 202.783 100.784 202.984 100.884C203.185 100.985 203.408 101.124 203.486 101.186C203.565 101.253 203.715 101.32 203.821 101.342C203.927 101.359 204.279 101.348 204.603 101.308C204.927 101.269 205.267 101.225 205.368 101.202L205.541 101.163C205.231 100.304 205.012 99.7018 204.854 99.2664C204.813 99.1529 204.776 99.0507 204.742 98.9583C204.581 98.5118 204.279 97.7358 204.078 97.2278C203.877 96.7199 203.503 95.8267 203.246 95.235L202.789 94.1632C202.018 94.219 201.773 94.2023 201.449 94.1297C201.203 94.0795 200.93 94.046 200.846 94.0515C200.706 94.0739 200.656 94.0292 200.383 93.6385C200.215 93.404 200.02 93.0523 199.947 92.8569C199.88 92.6671 199.579 92.081 199.277 91.5619C198.982 91.0427 198.741 90.5961 198.741 90.5682C198.741 90.5459 198.898 90.5124 199.088 90.4957C199.283 90.4789 199.523 90.4398 199.618 90.4119C199.735 90.3784 199.847 90.2891 199.925 90.1607C199.997 90.0435 200.165 89.8928 200.305 89.8146C200.444 89.7365 200.561 89.6639 200.567 89.6527C200.578 89.6416 200.511 89.4853 200.416 89.3011C200.321 89.1168 200.226 88.955 200.193 88.9382C200.159 88.9215 199.97 88.9773 199.757 89.0554C199.456 89.1727 199.333 89.195 199.104 89.1615C198.948 89.1392 198.697 89.0778 198.546 89.0219C198.39 88.9605 198.2 88.8656 198.111 88.8042C198.016 88.7261 197.876 88.687 197.72 88.687C197.592 88.687 197.335 88.7261 197.151 88.7707C196.966 88.8154 196.726 88.8489 196.62 88.8545C196.514 88.8545 196.313 88.821 196.174 88.7763C195.973 88.7149 195.889 88.7093 195.755 88.7652C195.66 88.8042 195.487 88.9494 195.364 89.0889C195.241 89.2229 195.052 89.5132 194.934 89.7253C194.823 89.9374 194.7 90.211 194.666 90.3338C194.616 90.4901 194.611 90.6073 194.65 90.7245C194.683 90.8194 194.923 91.1934 195.197 91.5619L195.682 92.2317C195.643 92.8179 195.582 93.0523 195.504 93.2086C195.437 93.3482 195.297 93.5715 195.197 93.711C195.096 93.8506 194.934 93.9957 194.828 94.0404C194.694 94.0962 194.555 94.1074 194.359 94.0795C194.253 94.0642 194.096 94.0437 193.955 94.0252C193.889 94.0166 193.826 94.0084 193.773 94.0013L193.466 93.9622C193.366 93.3984 193.338 93.0858 193.332 92.9016C193.332 92.7174 193.355 92.4104 193.383 92.215C193.416 92.0252 193.45 91.8689 193.466 91.8689C193.483 91.8689 193.561 91.9191 193.645 91.9805C193.74 92.0531 193.885 92.0978 194.008 92.0922C194.125 92.0922 194.22 92.081 194.22 92.0643C194.22 92.0475 194.181 91.9917 194.131 91.9359C194.08 91.8856 193.896 91.5786 193.723 91.2548L193.405 90.6687C192.06 90.6129 192.02 90.6073 191.92 90.4733C191.859 90.3952 191.797 90.2054 191.78 90.0547C191.753 89.809 191.719 89.7476 191.49 89.5467L191.233 89.3178C191.468 88.5977 191.49 88.4302 191.462 88.2516C191.445 88.1232 191.356 87.872 191.267 87.6934C191.178 87.5203 191.06 87.3305 191.005 87.2803C190.943 87.2245 190.697 87.0793 190.452 86.9565C190.206 86.8281 189.899 86.6607 189.771 86.5769C189.62 86.482 189.531 86.3871 189.531 86.3146C189.531 86.2252 189.414 86.1583 188.928 85.9685C188.599 85.8345 188.029 85.6112 187.661 85.4716C187.292 85.3265 186.55 84.9916 186.014 84.7236C185.043 84.238 185.037 84.2324 184.914 83.9644C184.842 83.8137 184.719 83.6295 184.635 83.5513C184.484 83.4118 184.457 83.4118 183.926 83.4397L183.374 83.4676C183.128 84.2882 183.055 84.545 183.055 84.5673C183.055 84.5952 183.201 84.612 183.374 84.612L183.697 84.6176C184.077 85.2818 184.39 85.801 184.641 86.1973C184.942 86.6774 185.192 87.003 185.389 87.1742C185.551 87.3138 186.02 87.6543 186.421 87.9222C186.829 88.1958 187.46 88.5642 187.828 88.7484C188.197 88.9271 188.677 89.128 188.889 89.1894C189.101 89.2508 189.363 89.3011 189.458 89.3011C189.57 89.3011 189.687 89.3457 189.754 89.4127C189.815 89.4741 189.866 89.5578 189.866 89.5913C189.866 89.6304 189.86 89.6751 189.843 89.6918C189.827 89.7086 189.659 89.7086 189.458 89.6918C189.123 89.6639 189.079 89.6472 188.811 89.396C188.604 89.2062 188.481 89.1336 188.359 89.1336C188.264 89.1336 188.118 89.1727 188.024 89.2173L187.856 89.3011V92.3713L187.27 92.3434C187.248 91.9973 187.276 91.7796 187.326 91.6289C187.404 91.3777 187.404 91.3553 187.287 91.0985C187.186 90.8752 187.181 90.8083 187.231 90.652C187.276 90.5403 187.281 90.4398 187.248 90.3728C187.22 90.3226 187.103 90.1886 186.996 90.0826C186.812 89.9095 186.796 89.8593 186.796 89.5913C186.796 89.3066 186.79 89.2955 186.5 89.0834C186.343 88.9605 186.098 88.8098 185.958 88.7484C185.819 88.687 185.662 88.6312 185.606 88.6312C185.556 88.6312 185.205 88.4191 184.825 88.1679C184.451 87.9111 183.932 87.5427 183.669 87.3529C183.407 87.1631 182.983 86.9063 182.72 86.7723C182.458 86.6439 182.056 86.415 181.827 86.2643C181.598 86.1136 181.118 85.7173 180.767 85.3767C180.415 85.0362 180.074 84.7292 180.013 84.6845C179.913 84.6176 179.851 84.6399 179.399 84.8967C179.126 85.053 178.712 85.3153 178.489 85.4828L178.087 85.7842L176.273 85.8847C175.665 85.3098 175.469 85.1702 175.391 85.1702C175.324 85.1646 175.218 85.2204 175.157 85.2818C175.067 85.3712 174.978 85.3991 174.721 85.3935H174.403C172.918 86.5825 172.834 86.6662 172.84 86.817C172.84 86.9119 172.739 87.1854 172.594 87.4589C172.388 87.8497 172.237 88.0339 171.74 88.5195C171.411 88.8433 170.987 89.2341 170.802 89.396C170.523 89.6304 170.445 89.7421 170.333 90.0323C170.266 90.2277 170.004 90.8306 169.759 91.3665C169.518 91.9024 169.251 92.4383 169.167 92.5611C169.05 92.7286 168.793 92.896 167.955 93.3705L166.895 93.9622C166.824 93.9601 166.749 93.9578 166.67 93.9554C166.515 93.9506 166.346 93.9453 166.168 93.9396C165.719 93.9254 165.209 93.9092 164.707 93.8952C163.903 93.8729 163.233 93.8394 163.222 93.8227C163.205 93.8059 163.077 93.5547 162.937 93.2644C162.792 92.9742 162.68 92.6616 162.68 92.5667C162.675 92.4718 162.736 92.3155 162.803 92.2094C162.876 92.1033 163.071 91.9359 163.238 91.8354C163.406 91.7349 163.64 91.5563 163.763 91.4391C163.873 91.3292 163.926 91.2763 163.943 91.2136C163.959 91.1551 163.944 91.0882 163.914 90.959C163.88 90.8138 163.852 90.6017 163.852 90.4845C163.852 90.3728 163.914 90.1607 163.992 90.01C164.07 89.8649 164.132 89.6974 164.132 89.636C164.132 89.5746 164.104 89.4685 164.07 89.396C164.02 89.2955 164.042 89.2062 164.187 88.8824C164.316 88.6144 164.372 88.4023 164.372 88.2125C164.377 87.9837 164.344 87.8888 164.199 87.6934C164.037 87.4813 163.992 87.4533 163.73 87.431C163.568 87.4143 163.255 87.3584 163.043 87.3082C162.792 87.2468 162.541 87.1352 162.345 87.0012C162.178 86.8895 161.988 86.7946 161.927 86.7891C161.86 86.7891 161.781 86.8225 161.742 86.856C161.687 86.9119 161.675 86.8449 161.675 86.5211V86.1192C162.128 85.7284 162.351 85.5721 162.457 85.5219C162.591 85.4605 162.87 85.427 163.378 85.4047C163.986 85.3823 164.204 85.3991 164.746 85.5051L165.388 85.6335C165.99 85.4493 166.281 85.3935 166.42 85.3935C166.56 85.3935 166.783 85.427 166.923 85.4716C167.062 85.5163 167.358 85.6168 167.581 85.6949C167.816 85.7787 168.106 85.8401 168.279 85.8401C168.53 85.8401 168.614 85.8122 168.893 85.6168C169.066 85.494 169.211 85.3767 169.211 85.3488C169.211 85.3265 169.172 85.2595 169.128 85.1981C169.066 85.12 169.044 84.9469 169.044 84.612C169.044 84.3496 169.072 83.9756 169.105 83.7746C169.15 83.4899 169.144 83.3169 169.072 82.9652C169.027 82.7196 168.994 82.4182 168.999 82.2953C169.005 82.1725 169.005 81.9213 168.999 81.7371C168.994 81.4859 168.955 81.3464 168.849 81.1789C168.731 81.0003 168.631 80.9277 168.329 80.8105C168.123 80.7267 167.777 80.6039 167.565 80.5314C167.347 80.4588 167.09 80.3304 166.984 80.2355C166.884 80.1406 166.761 79.9955 166.722 79.9062C166.677 79.8224 166.644 79.7108 166.644 79.6549C166.638 79.6047 166.672 79.5321 166.711 79.4931C166.75 79.454 166.934 79.3982 167.118 79.3647C167.302 79.3312 167.632 79.2698 167.844 79.2251C168.056 79.1805 168.547 79.1023 168.932 79.0521C169.317 79.0018 169.77 78.9125 169.937 78.8511C170.105 78.7841 170.373 78.6613 170.523 78.5776C170.68 78.4883 171.042 78.2203 171.338 77.9859C171.634 77.7458 172.114 77.4276 172.399 77.2769C172.689 77.1262 173.153 76.8582 173.426 76.6852C173.7 76.5066 174.068 76.2944 174.235 76.2107C174.403 76.127 174.66 75.9763 174.805 75.8814C174.944 75.7865 175.224 75.619 175.413 75.5129C175.603 75.4069 175.944 75.1501 176.172 74.938C176.418 74.7147 176.58 74.5193 176.58 74.4523C176.58 74.3853 176.692 74.2569 176.876 74.1229C177.032 74.0001 177.233 73.8327 177.311 73.7434C177.406 73.6429 177.535 73.5703 177.702 73.5424C177.836 73.5201 178.087 73.4363 178.255 73.3526C178.478 73.2521 178.601 73.2242 178.701 73.2521C178.779 73.2744 179.042 73.2968 179.287 73.3024C179.723 73.3079 179.74 73.3024 179.957 73.107C180.08 73.0009 180.242 72.8669 180.32 72.8167C180.415 72.7497 180.616 72.7106 180.951 72.6939C181.247 72.6772 181.448 72.6883 181.464 72.7218C181.481 72.7609 181.878 72.7665 182.598 72.7386L183.697 72.7051C184.87 73.2465 185.132 73.3359 185.305 73.3359C185.433 73.3359 185.651 73.2968 185.791 73.2521C185.93 73.2019 186.081 73.1181 186.126 73.0567C186.17 72.9953 186.36 72.8893 186.544 72.8223C186.846 72.7162 186.974 72.6995 187.789 72.7106C188.481 72.7218 188.693 72.7051 188.693 72.6492C188.693 72.6157 188.532 72.4204 188.342 72.2194C188.224 72.0944 187.963 71.8224 187.664 71.511C187.51 71.3494 187.344 71.1771 187.184 71.0093L187.103 70.9243L186.209 69.9977C185.908 70.1261 185.534 70.3326 185.182 70.5392L184.546 70.9076C184.15 70.7904 183.909 70.6675 183.759 70.5559C183.608 70.4443 183.441 70.2824 183.385 70.1931C183.318 70.1037 183.256 69.8525 183.223 69.5511C183.189 69.2831 183.094 68.8031 183.005 68.4793C182.921 68.1555 182.776 67.7704 182.687 67.6196C182.598 67.4633 182.458 67.268 182.374 67.1842C182.24 67.0503 182.173 67.0279 181.911 67.0279C181.704 67.0279 181.308 67.1172 180.672 67.3126C180.153 67.4689 179.572 67.6308 179.371 67.6755C179.17 67.7145 178.908 67.7536 178.785 67.7536C178.662 67.7536 178.439 67.7201 178.283 67.6755C178.132 67.6308 177.942 67.5303 177.864 67.4578C177.786 67.3852 177.663 67.201 177.585 67.0503C177.507 66.8995 177.339 66.5869 177.205 66.3581C176.988 65.9673 176.96 65.8836 176.865 65.1579C176.803 64.728 176.742 64.1642 176.72 63.9019C176.692 63.5446 176.703 63.4051 176.759 63.3325C176.798 63.2822 177.01 63.1371 177.222 63.0199C177.434 62.8971 177.646 62.7463 177.685 62.6794C177.747 62.5677 177.708 62.5286 177.099 62.0709C176.736 61.8029 176.089 61.3285 175.659 61.0214C175.229 60.7144 174.526 60.2232 174.096 59.9329C173.666 59.6426 172.924 59.1514 172.449 58.8444C171.975 58.5318 171.171 58.0294 170.663 57.7223C170.155 57.4153 169.418 56.9799 169.016 56.7454C168.614 56.5166 167.877 56.1035 167.369 55.8244C166.861 55.5453 166.035 55.1043 165.527 54.8419C165.019 54.5795 164.042 54.0939 163.35 53.7701C162.658 53.4408 161.53 52.9272 160.838 52.6257C160.146 52.3243 159.041 51.8666 158.382 51.6042C157.723 51.3418 156.908 51.0236 156.568 50.9008C156.227 50.778 155.892 50.672 155.814 50.672C155.736 50.672 155.401 50.7836 155.06 50.9232C154.72 51.0627 154.257 51.2804 154.028 51.4032C153.799 51.526 153.458 51.7382 153.274 51.8777C153.09 52.0173 152.816 52.1959 152.671 52.2796L152.403 52.4304L152.414 53.2119C151.666 53.932 151.572 54.0548 151.572 54.172C151.577 54.2613 151.633 54.4623 151.7 54.6298C151.812 54.9033 151.845 54.9368 152.119 55.0317C152.275 55.0875 152.426 55.1824 152.442 55.2327C152.465 55.2885 152.465 55.389 152.442 55.4559C152.426 55.5285 152.292 55.6681 152.147 55.7741C151.996 55.8802 151.728 56.0421 151.544 56.137C151.231 56.2989 151.164 56.31 150.522 56.3212C150.014 56.3324 149.813 56.3212 149.769 56.2654C149.729 56.2263 149.646 56.1928 149.579 56.1984C149.506 56.1984 149.104 56.31 148.686 56.4496C148.261 56.5836 147.552 56.7957 147.106 56.9185C146.659 57.0413 145.945 57.2311 145.515 57.3372C145.085 57.4488 144.694 57.5716 144.644 57.6107C144.594 57.6442 144.225 57.9233 143.835 58.2247C143.204 58.6992 143.092 58.7606 142.947 58.7383C142.819 58.7104 142.618 58.7774 142.11 59.0118C141.741 59.1793 141.2 59.3803 140.909 59.464C140.619 59.5421 140.189 59.6482 139.961 59.6929C139.732 59.7375 139.229 59.8101 138.844 59.8547C138.459 59.8994 138.146 59.9273 138.141 59.9217C138.137 59.9184 138.124 59.8749 138.104 59.8105C138.091 59.7675 138.075 59.7152 138.057 59.6594C138.012 59.5198 137.94 59.4026 137.895 59.3914C137.85 59.3803 137.75 59.4193 137.672 59.4807C137.594 59.5366 137.359 59.8324 137.141 60.1394C136.929 60.4409 136.594 60.854 136.399 61.0549C136.198 61.2559 135.763 61.7304 135.422 62.1156L134.803 62.8133C134.239 62.8803 133.909 62.9473 133.708 63.0087C133.507 63.0645 133.245 63.1873 133.122 63.2767C132.999 63.366 132.871 63.5 132.838 63.5725C132.798 63.6451 132.737 63.7902 132.698 63.8963C132.653 64.0024 132.536 64.1419 132.424 64.2089C132.318 64.2815 132.067 64.3819 131.866 64.4489C131.665 64.5103 131.252 64.6052 130.945 64.6555C130.543 64.728 130.069 64.756 129.271 64.7615L128.148 64.7671C127.473 64.4378 127.222 64.2536 127.06 64.0861C126.853 63.8684 126.775 63.7288 126.658 63.3436C126.58 63.0813 126.485 62.7575 126.457 62.618C126.424 62.4784 126.396 62.2607 126.396 62.1267C126.396 61.9983 126.457 61.6355 126.53 61.3173C126.602 61.0047 126.719 60.586 126.792 60.3851C126.859 60.1841 126.959 59.9552 127.015 59.8659C127.077 59.7822 127.25 59.6538 127.4 59.5756C127.557 59.4975 127.808 59.3468 127.959 59.2407C128.171 59.0956 128.249 58.9951 128.294 58.8332C128.322 58.7216 128.349 58.5373 128.349 58.4313C128.349 58.3252 128.31 58.1745 128.255 58.0963C128.165 57.9568 128.165 57.9512 128.383 57.7782C128.5 57.6777 128.662 57.5381 128.74 57.4655C128.818 57.393 128.98 57.1362 129.103 56.8962C129.254 56.5947 129.377 56.4273 129.488 56.3658C129.572 56.3212 129.723 56.2319 129.823 56.1705C129.918 56.1035 130.08 55.9193 130.18 55.7518C130.281 55.5843 130.415 55.3052 130.476 55.1378C130.538 54.9703 130.571 54.7861 130.554 54.7303C130.538 54.68 130.487 54.6354 130.443 54.6354C130.376 54.6354 130.359 54.5628 130.359 54.3004C130.359 53.999 130.376 53.9543 130.504 53.865C130.588 53.8148 130.722 53.6696 130.806 53.5468C130.895 53.424 130.979 53.2454 131.001 53.1561C131.023 53.0612 131.012 52.849 130.979 52.6816L130.912 52.3745L129.438 51.2693L127.389 50.5882C127.188 50.1975 127.071 49.8849 126.993 49.6392C126.915 49.3936 126.837 49.1034 126.82 48.9973C126.798 48.8633 126.82 48.7349 126.898 48.5786C126.959 48.4558 127.004 48.3498 126.993 48.3442C126.987 48.3386 126.831 48.2939 126.647 48.2493C126.463 48.199 126.161 48.16 125.977 48.16C125.793 48.16 125.302 48.1879 124.888 48.2214C124.475 48.2493 123.683 48.3386 123.13 48.4167C122.577 48.4893 121.98 48.5507 121.807 48.5507H121.483V47.3226C122.153 46.7086 122.438 46.5076 122.544 46.4741C122.7 46.4239 122.834 46.435 123.242 46.5299C123.521 46.5969 124.207 46.703 124.777 46.77C125.346 46.8314 126.133 46.8816 126.535 46.8816C126.948 46.8816 127.473 46.8425 127.763 46.7923C128.042 46.7421 128.372 46.6528 128.506 46.5913C128.696 46.5076 128.751 46.4462 128.796 46.2732C128.824 46.1615 128.852 46.022 128.852 45.9661C128.852 45.8824 128.779 45.8712 128.031 45.8824C127.574 45.888 126.915 45.8991 126.563 45.9103ZM103.224 51.7326C103.397 51.5595 103.587 51.3921 103.648 51.353C103.709 51.3195 103.91 51.286 104.095 51.286C104.335 51.286 104.519 51.3251 104.737 51.42C104.941 51.5093 105.099 51.6284 105.211 51.7772C105.312 51.9112 105.49 52.0564 105.652 52.1345C105.887 52.2462 106.009 52.2629 106.489 52.2573C106.942 52.2517 107.109 52.2294 107.332 52.1289C107.483 52.0619 107.678 52.0117 107.762 52.0117C107.851 52.0117 108.086 51.9615 108.292 51.8945C108.611 51.794 108.694 51.7884 108.812 51.8498C108.89 51.8889 109.163 52.1345 109.426 52.4025C109.833 52.8211 109.956 52.9104 110.319 53.0612C110.528 53.1448 110.632 53.1866 110.74 53.1986C110.849 53.2105 110.96 53.1924 111.184 53.1561C111.43 53.117 111.742 53.0556 111.882 53.0165C112.033 52.9774 112.261 52.9663 112.468 52.9886C112.652 53.0053 112.848 53.0333 112.898 53.05C112.954 53.0612 113.021 53.1561 113.054 53.251C113.082 53.357 113.344 53.6975 113.674 54.0492C114.104 54.5181 114.299 54.6856 114.5 54.7637C114.639 54.8251 114.997 54.9424 115.287 55.0317C115.577 55.1266 115.845 55.2215 115.873 55.255C115.907 55.2885 115.929 55.6402 115.929 56.8515L116.18 57.1753C116.32 57.3539 116.582 57.6498 116.766 57.834C116.951 58.0182 117.269 58.2638 117.475 58.381C117.721 58.5206 117.855 58.6322 117.855 58.6936C117.855 58.7495 117.816 58.9337 117.771 59.1011C117.726 59.2686 117.654 59.4584 117.609 59.5198C117.553 59.6035 117.403 59.6538 116.431 59.8324L116.124 59.6705C115.957 59.5812 115.667 59.4305 115.147 59.1625L114.785 59.2463C114.584 59.2909 114.366 59.3635 114.293 59.4082C114.193 59.4807 114.171 59.5421 114.171 59.7822C114.171 59.9441 114.198 60.2399 114.232 60.4409C114.265 60.6418 114.338 60.9489 114.399 61.1219C114.455 61.3005 114.505 61.5294 114.505 61.6243C114.505 61.736 114.444 61.8923 114.349 62.0207C114.249 62.1658 114.148 62.2384 114.031 62.2551C114.008 62.2578 113.98 62.2613 113.949 62.265C113.854 62.2766 113.733 62.2913 113.64 62.2998C113.49 62.3109 113.283 62.2663 112.998 62.1546C112.769 62.0653 112.474 61.9537 112.34 61.9146C112.127 61.842 112.094 61.8476 111.999 61.9313C111.943 61.9872 111.865 62.1211 111.77 62.4226L112.306 62.9529C112.63 63.2711 112.831 63.5111 112.808 63.5502C112.792 63.5893 112.73 63.6228 112.674 63.6228C112.624 63.6228 112.529 63.6618 112.468 63.7065C112.407 63.7567 112.239 63.7902 112.088 63.7902C111.943 63.7902 111.631 63.7511 111.391 63.7009C111.156 63.6507 110.832 63.5502 110.682 63.472C110.525 63.3939 110.235 63.2208 110.023 63.0869C109.816 62.9529 109.498 62.6905 109.314 62.5063C109.085 62.2774 108.979 62.1267 108.979 62.0318C108.979 61.9537 108.929 61.7583 108.867 61.5964C108.812 61.4401 108.678 61.228 108.583 61.1387C108.488 61.0438 108.32 60.787 108.22 60.5637C108.114 60.346 108.03 60.1227 108.03 60.078C108.03 60.0334 108.091 59.8994 108.17 59.7822C108.242 59.6705 108.337 59.5254 108.382 59.464C108.421 59.4026 108.616 59.2519 109.174 58.9113L110.068 58.9839C110.67 59.0286 111.139 59.0342 111.519 59.0007C111.859 58.9728 112.178 58.9058 112.328 58.8388C112.58 58.7271 112.58 58.7271 112.58 58.4536C112.574 58.3029 112.541 58.074 112.496 57.9456C112.451 57.8172 112.395 57.7223 112.367 57.7391C112.345 57.7502 112.317 57.7335 112.3 57.7056C112.284 57.6721 112.172 57.5995 112.049 57.5381C111.926 57.4767 111.781 57.4265 111.726 57.4265C111.675 57.4265 111.441 57.2981 111.212 57.1362C110.983 56.9743 110.682 56.7287 110.542 56.5891C110.403 56.4496 110.101 56.0867 109.872 55.7853C109.532 55.3387 109.37 55.1824 109.007 54.9424C108.761 54.7805 108.449 54.5907 108.309 54.5181C108.08 54.3953 107.991 54.3842 107.36 54.3897C106.69 54.3953 106.646 54.4009 106.311 54.5684C106.121 54.6688 105.82 54.7861 105.646 54.8363C105.538 54.8643 105.466 54.8829 105.393 54.888C105.248 54.8982 105.099 54.8547 104.653 54.7247C104.284 54.6186 103.955 54.5516 103.927 54.5739C103.899 54.5963 103.592 54.613 103.257 54.6074C103.117 54.6051 102.947 54.6027 102.778 54.6004C102.544 54.5972 102.311 54.5939 102.152 54.5907L102.151 54.5907C101.672 54.5795 101.666 54.5794 101.398 54.3562C101.253 54.2334 101.114 54.0883 101.086 54.0325C101.058 53.9822 101.036 53.8706 101.041 53.7813C101.047 53.6808 101.147 53.5301 101.337 53.3347C101.488 53.1784 101.65 52.9607 101.683 52.8602C101.722 52.7486 101.789 52.6816 101.845 52.6816C101.901 52.6816 102.012 52.6257 102.096 52.5532C102.185 52.4806 102.403 52.3411 102.582 52.235C102.766 52.1289 103.056 51.9001 103.224 51.7326ZM167.386 68.7584C167.453 68.4402 167.542 68.1444 167.576 68.1053C167.615 68.0662 167.682 68.0495 167.715 68.0606C167.754 68.0774 167.833 68.1667 167.888 68.2672C167.944 68.3677 168.117 68.5351 168.542 68.8142V69.5958C168.542 70.2265 168.558 70.4163 168.636 70.5726C168.737 70.768 168.743 70.768 169.462 70.7736L169.463 70.7736L169.892 71.7896C170.127 72.3478 170.356 72.9172 170.395 73.0512C170.456 73.2577 170.585 73.4084 171.165 73.9555C171.55 74.3183 171.958 74.6812 172.07 74.7705C172.187 74.8542 172.282 74.938 172.282 74.9547C172.287 74.9714 172.148 75.0831 171.662 75.4292L171.668 76.434L171.361 76.5847C171.076 76.7299 171.003 76.741 170.356 76.741C169.971 76.741 169.468 76.7801 169.223 76.8248C168.988 76.8694 168.603 76.9252 168.374 76.942C168.084 76.9643 167.821 77.0369 167.509 77.1653C167.096 77.3439 167.023 77.3551 166.476 77.3551C165.946 77.3495 165.901 77.3439 166.002 77.2658C166.063 77.2211 166.309 77.0592 166.543 76.9085C166.783 76.7522 167.006 76.5736 167.04 76.501C167.079 76.434 167.135 76.3614 167.168 76.3391C167.202 76.3168 167.269 76.3056 167.313 76.3168C167.345 76.3288 167.412 76.3436 167.481 76.3592L167.483 76.3596C167.51 76.3657 167.538 76.3719 167.565 76.3782C167.721 76.4061 167.754 76.3838 167.994 76.0767C168.145 75.8869 168.274 75.7027 168.29 75.6636C168.307 75.6246 168.195 75.5241 168.011 75.4124C167.766 75.2673 167.643 75.2338 167.09 75.2338V73.6708H167.397C167.699 73.6708 167.704 73.6708 167.704 73.5033C167.704 73.3361 167.71 73.3359 168.343 73.3081L168.346 73.3079L168.374 71.6891L168.19 71.4602C168.067 71.2928 167.877 71.1588 167.09 70.768V70.5001C167.09 70.3549 167.129 70.0368 167.179 69.7911C167.224 69.5455 167.319 69.0822 167.386 68.7584ZM158.84 71.3542L157.991 71.9403H156.623C156.294 72.6102 156.21 72.8055 156.216 72.8111C156.224 72.8111 156.353 72.8277 156.536 72.8511L156.537 72.8512C156.614 72.8611 156.7 72.8722 156.791 72.8837C157.221 72.9395 157.438 73.0009 157.723 73.1461L158.103 73.3359H160.922L161.313 72.6716C161.882 72.6437 162.094 72.5823 162.345 72.4594C162.569 72.3534 162.809 72.1747 162.97 72.0017C163.199 71.7617 163.227 71.7058 163.16 71.6444C163.116 71.6109 163.071 71.5272 163.06 71.4658C163.043 71.3597 162.998 71.3542 161.955 71.3542C161.078 71.3542 160.827 71.3374 160.671 71.2648C160.565 71.2146 160.369 71.0806 160.235 70.969C160.09 70.8462 159.945 70.768 159.844 70.768C159.744 70.768 159.42 70.9578 158.84 71.3542ZM114.104 77.8016C114.31 77.5393 114.6 77.182 114.751 77.0034C114.907 76.8303 115.053 76.6852 115.075 76.6852C115.097 76.6852 115.12 76.8303 115.12 77.0034C115.12 77.182 115.147 77.5504 115.181 77.8296C115.209 78.1031 115.287 78.438 115.348 78.5664C115.41 78.7116 115.549 78.8734 115.689 78.9739C115.823 79.0688 116.063 79.1805 116.219 79.2251C116.381 79.2698 116.588 79.3088 116.683 79.3088C116.751 79.3088 116.791 79.3088 116.814 79.3289C116.847 79.358 116.843 79.4295 116.833 79.6047C116.828 79.8168 116.777 79.9787 116.655 80.1741C116.554 80.336 116.387 80.509 116.236 80.6039C116.096 80.6877 115.845 80.7826 115.678 80.8161C115.443 80.8607 115.298 80.8551 115.064 80.7937C114.896 80.7491 114.595 80.6263 114.394 80.5146C114.076 80.3416 113.986 80.3137 113.64 80.3137C113.423 80.3137 113.099 80.3583 112.915 80.4086C112.73 80.4588 112.401 80.5034 112.189 80.5034C111.949 80.509 111.726 80.4755 111.608 80.4253C111.508 80.3806 111.396 80.2969 111.374 80.2411C111.346 80.1853 111.346 80.1015 111.379 80.0345C111.407 79.9731 111.558 79.828 111.703 79.7108C111.848 79.5991 112.206 79.3758 112.496 79.2251C112.814 79.0576 113.166 78.812 113.378 78.6111C113.579 78.4269 113.903 78.064 114.104 77.8016ZM177.038 87.191C176.854 87.5706 176.658 88.0171 176.613 88.1846C176.563 88.3521 176.502 88.8824 176.468 89.3569C176.456 89.5637 176.441 89.8044 176.426 90.037L176.426 90.039L176.426 90.0409C176.407 90.3406 176.388 90.6264 176.379 90.8083C176.357 91.1879 176.362 91.506 176.407 91.7014C176.446 91.8689 176.519 92.0531 176.569 92.1089C176.619 92.1647 176.72 92.2094 176.787 92.2038C176.859 92.2038 176.982 92.1703 177.066 92.1257C177.155 92.0866 177.317 91.947 177.428 91.8186C177.546 91.6958 177.663 91.4949 177.696 91.3777C177.724 91.266 177.752 90.8473 177.752 90.4454C177.752 89.8984 177.775 89.6639 177.842 89.4964C177.892 89.3736 178.126 89.0722 178.366 88.8266C178.601 88.5809 178.835 88.3186 178.885 88.2404C178.941 88.1623 178.98 87.9948 178.98 87.8608C178.98 87.7324 178.941 87.5538 178.897 87.4589C178.852 87.364 178.746 87.258 178.657 87.2133C178.573 87.1686 178.377 87.1017 178.227 87.0626C178.07 87.0291 177.881 86.9621 177.791 86.923C177.708 86.8784 177.596 86.7667 177.54 86.6774C177.49 86.5825 177.428 86.5099 177.412 86.5099C177.395 86.5099 177.228 86.817 177.038 87.191ZM75.9322 111.58C76.2504 111.407 76.6188 111.223 76.7416 111.172C76.8644 111.122 77.0152 111.089 77.0766 111.105C77.0997 111.109 77.1625 111.12 77.2506 111.135L77.2517 111.135C77.3973 111.16 77.6116 111.196 77.8302 111.234C78.1818 111.295 78.6563 111.373 78.874 111.407C79.0973 111.435 79.4378 111.535 79.6276 111.619C79.9626 111.77 79.9905 111.775 80.2584 111.703C80.4092 111.658 80.6659 111.636 80.8278 111.641C81.0511 111.652 81.1516 111.691 81.2744 111.809C81.3581 111.898 81.5535 112.026 81.7098 112.105C81.8605 112.183 82.1508 112.356 82.3518 112.49C82.5527 112.624 82.7872 112.808 82.8821 112.903C82.977 112.992 83.2394 113.277 83.4738 113.534C83.8199 113.919 83.9595 114.03 84.6405 114.337V114.84L84.0934 114.834C83.6524 114.829 83.485 114.801 83.1891 114.684C82.9882 114.605 82.536 114.416 82.1843 114.265C81.8326 114.114 81.2632 113.863 80.9283 113.707C80.5934 113.556 80.1747 113.366 80.0072 113.288C79.8398 113.21 79.3206 112.964 78.0255 112.345L77.5901 112.378C77.3557 112.395 77.0989 112.434 77.0207 112.467C76.9426 112.495 76.6411 112.523 76.3509 112.523C76.0606 112.523 75.6587 112.484 75.4577 112.439L75.4576 112.439C75.2348 112.388 75.1489 112.368 75.1157 112.315C75.0949 112.282 75.0949 112.236 75.0949 112.16C75.0949 112.004 75.1228 111.959 75.2177 111.931C75.2902 111.909 75.6084 111.753 75.9322 111.58ZM87.6716 114.845L87.4874 114.868C87.5209 115.365 87.56 115.61 87.6047 115.733C87.6716 115.945 87.6661 115.967 87.5098 116.168C87.4204 116.291 87.2418 116.447 87.1078 116.52C86.9795 116.593 86.7171 116.676 86.5217 116.71C86.3319 116.738 86.064 116.799 85.9244 116.838C85.7849 116.883 85.6676 116.95 85.6565 116.983C85.6509 117.028 85.8463 117.045 86.3152 117.045C86.8176 117.045 87.0297 117.022 87.1637 116.955C87.3311 116.872 87.359 116.872 87.4986 116.955C87.5879 117.006 87.761 117.045 87.8894 117.045C88.0233 117.045 88.269 117.017 88.4364 116.983C88.6039 116.95 89.1063 116.916 89.5529 116.911L90.3623 116.905C90.9093 116.576 91.194 116.464 91.4787 116.403C91.7244 116.347 92.0593 116.252 92.2212 116.185C92.3831 116.124 92.5115 116.057 92.5115 116.04C92.5115 116.023 92.4389 115.973 92.3552 115.928C92.2547 115.873 92.1877 115.778 92.1598 115.66C92.1263 115.499 92.1095 115.487 92.0146 115.549C91.9197 115.61 91.7913 115.588 91.1885 115.387C90.7977 115.258 90.3567 115.141 90.206 115.124C90.0608 115.108 89.7762 115.024 89.564 114.946C89.3017 114.84 89.1844 114.817 89.1621 114.868C89.1398 114.912 89.0114 114.924 88.7155 114.901C88.4867 114.884 88.1964 114.862 88.0736 114.845C87.9508 114.834 87.7665 114.834 87.6661 114.845H87.6716Z" fill="white"/>
<path d="M48.8193 109.52C48.7858 109.682 48.6183 110.508 48.4508 111.351C48.2778 112.194 48.0601 113.349 47.9708 113.919C47.8759 114.488 47.7531 115.303 47.6917 115.733C47.6303 116.163 47.5409 116.816 47.4963 117.184C47.446 117.553 47.3567 118.329 47.2953 118.915C47.2339 119.501 47.1502 120.478 47.0999 121.092C47.0553 121.706 46.9883 122.8 46.9548 123.52C46.9157 124.24 46.8878 125.976 46.8878 127.372C46.8878 128.767 46.9157 130.504 46.9548 131.224C46.9883 131.944 47.0553 133.038 47.1055 133.652C47.1502 134.266 47.2395 135.248 47.3009 135.829C47.3623 136.41 47.446 137.191 47.4963 137.56C47.5409 137.928 47.6303 138.581 47.6917 139.011C47.7531 139.441 47.8759 140.256 47.9708 140.825C48.0657 141.395 48.2387 142.371 48.3615 143.002C48.4843 143.633 48.6965 144.649 48.836 145.263C48.9756 145.877 49.1989 146.832 49.3384 147.384C49.478 147.937 49.6789 148.702 49.7906 149.087C49.8966 149.472 50.1813 150.438 50.4214 151.236C50.667 152.034 50.974 153.011 51.1136 153.413C51.2475 153.815 51.4373 154.351 51.5322 154.613C51.6216 154.876 51.8225 155.428 51.9732 155.841C52.1295 156.254 52.4366 157.047 52.6543 157.6C52.8776 158.152 53.3018 159.168 53.6033 159.861C53.9047 160.553 54.4071 161.658 54.7197 162.317C55.0323 162.975 55.5124 163.958 55.7915 164.494C56.0706 165.03 56.4614 165.772 56.6623 166.141C56.8633 166.509 57.2261 167.162 57.4717 167.592C57.7174 168.022 58.1193 168.714 58.3649 169.127C58.6105 169.54 59.0292 170.221 59.2916 170.634C59.5483 171.047 59.9949 171.74 60.2796 172.169C60.5528 172.582 60.9444 173.164 61.1679 173.497L61.1951 173.537C61.4184 173.861 61.8147 174.425 62.0771 174.793C62.3395 175.161 62.8698 175.876 63.2549 176.384C63.6345 176.892 64.2877 177.735 64.7063 178.254C65.125 178.773 65.9065 179.717 66.4424 180.347C66.9839 180.978 67.8268 181.933 68.318 182.469C68.8037 183.005 69.8978 184.138 70.7407 184.981C71.5836 185.824 72.7168 186.918 73.2527 187.403C73.7886 187.895 74.7432 188.737 75.374 189.279C76.0048 189.815 76.9482 190.596 77.4673 191.015C77.9865 191.434 78.7792 192.048 79.2257 192.388C79.6723 192.723 80.3478 193.226 80.7329 193.505C81.1181 193.778 81.6317 194.141 81.8773 194.314C82.1229 194.482 82.776 194.923 83.3287 195.291C83.8813 195.659 84.7354 196.212 85.2266 196.519C85.7179 196.826 86.6334 197.379 87.2642 197.747C87.895 198.116 88.8495 198.657 89.3854 198.947C89.9213 199.238 90.7251 199.668 91.1717 199.902C91.6183 200.131 92.5561 200.6 93.2651 200.935C93.974 201.27 95.1016 201.789 95.7771 202.079C96.4525 202.375 97.0387 202.621 97.0777 202.621C97.1112 202.621 97.1447 202.587 97.1447 202.548C97.1447 202.514 97.1224 202.459 97.1001 202.425C97.0722 202.392 96.9605 202.157 96.8544 201.895C96.7428 201.632 96.5977 201.242 96.5307 201.03C96.4246 200.706 96.3967 200.455 96.3688 199.578C96.3409 198.73 96.313 198.479 96.2348 198.333C96.1846 198.238 95.9613 198.01 95.738 197.831C95.5203 197.658 95.0625 197.273 94.722 196.977C94.3815 196.681 93.6726 195.994 93.1534 195.447C92.3887 194.655 92.1933 194.415 92.143 194.23C92.104 194.102 92.0035 193.817 91.9086 193.605C91.8193 193.393 91.7076 193.064 91.6685 192.88C91.6295 192.69 91.6016 192.215 91.6016 191.791C91.6016 191.339 91.6574 190.675 91.7299 190.144C91.8137 189.525 91.8639 188.849 91.8807 187.939C91.903 186.951 91.8863 186.399 91.8193 185.706C91.769 185.198 91.6351 184.171 91.529 183.418C91.4229 182.664 91.289 181.871 91.2331 181.659C91.1774 181.447 91.0604 181.018 90.9767 180.711L90.9763 180.71C90.8256 180.152 90.8256 180.146 90.8591 178.701C90.8759 177.847 90.9261 176.998 90.9763 176.635C91.0266 176.295 91.1326 175.831 91.2164 175.602C91.3504 175.234 91.3671 175.106 91.3615 174.542C91.3615 174.19 91.3336 173.766 91.2945 173.604C91.2499 173.403 91.2275 172.532 91.2275 170.701L91.2331 168.094C90.8703 167.229 90.5409 166.297 90.2674 165.471C89.9939 164.645 89.6757 163.763 89.5585 163.517C89.4356 163.271 89.2682 163.003 89.1844 162.92C89.1503 162.888 89.0983 162.839 89.0373 162.781C88.9869 162.733 88.9304 162.68 88.8729 162.626C88.8414 162.596 88.8097 162.567 88.7785 162.537C88.7552 162.515 88.7323 162.494 88.71 162.473C88.5425 162.311 87.9619 161.719 87.426 161.156C86.5831 160.268 86.4492 160.151 86.4157 160.246C86.3877 160.313 86.3598 160.363 86.3431 160.363C86.3263 160.363 86.064 160.235 85.757 160.084C85.4499 159.928 85.182 159.805 85.1597 159.805C85.1317 159.799 84.9587 159.688 84.7689 159.554C84.5735 159.414 84.4284 159.28 84.4451 159.247C84.4619 159.213 84.4451 159.135 84.4061 159.062C84.3726 158.995 84.0544 158.638 83.7027 158.27C83.15 157.689 83.0272 157.522 82.7816 157.025C82.6197 156.707 82.3518 156.266 82.1843 156.037C82.0169 155.813 81.6317 155.356 81.3247 155.021C81.0232 154.691 80.705 154.317 80.6213 154.195C80.5376 154.072 80.2473 153.541 79.9793 153.022C79.7791 152.634 79.5259 152.134 79.3362 151.759L79.3359 151.759C79.2718 151.632 79.215 151.52 79.1699 151.431C78.9913 151.08 78.7792 150.588 78.6954 150.343C78.6223 150.128 78.5194 149.803 78.4462 149.572L78.4163 149.478C78.3047 149.104 78.2098 148.953 77.5566 148.093L76.8254 147.133C76.9984 146.419 77.0989 145.938 77.1603 145.598C77.2217 145.257 77.2775 144.783 77.2831 144.537C77.2943 144.102 77.2887 144.085 77.0598 143.728L76.8198 143.365V140.909C78.4051 138.972 78.5559 138.749 78.902 138.062C79.1197 137.632 79.6053 136.705 79.9793 135.996C80.3533 135.288 80.839 134.361 81.0511 133.931C81.2688 133.501 81.5089 132.982 81.5926 132.77C81.6875 132.524 81.7377 132.29 81.7377 132.072C81.7377 131.899 81.6875 131.575 81.6205 131.363C81.5535 131.151 81.4363 130.822 81.3526 130.638C81.2186 130.331 81.1795 130.291 80.9283 130.197C80.7106 130.113 80.571 130.096 80.3143 130.124C80.1301 130.141 79.7784 130.219 79.5328 130.297C79.1867 130.409 79.0471 130.431 78.9187 130.392C78.8342 130.362 78.2002 130.168 77.4432 129.937L77.4409 129.936L77.1603 129.85C76.2839 129.588 75.508 129.337 75.4298 129.298C75.3517 129.259 74.9665 128.996 74.5646 128.712C74.2759 128.507 73.7311 128.107 73.1843 127.705L73.183 127.704L73.1819 127.704C72.9681 127.547 72.754 127.389 72.555 127.244C71.846 126.719 70.4951 125.708 69.5405 124.994C68.5916 124.285 67.3858 123.42 66.8611 123.074C66.3419 122.728 65.8284 122.365 65.7279 122.27C65.6218 122.175 65.5158 122.052 65.4878 121.996C65.4599 121.946 65.3985 121.689 65.3539 121.427C65.3092 121.164 65.2199 120.818 65.1585 120.656C65.1027 120.5 65.0022 120.322 64.9352 120.266C64.8291 120.176 64.818 120.176 64.7454 120.294C64.7007 120.366 64.6338 120.534 64.6003 120.673C64.5668 120.813 64.4998 120.98 64.4551 121.047C64.3993 121.142 64.3212 121.176 64.1816 121.176C64.0755 121.176 63.5396 121.042 62.9982 120.874C62.6774 120.779 62.1072 120.606 61.4855 120.416L61.4803 120.415L61.4772 120.414C61.041 120.281 60.58 120.141 60.1624 120.015C59.152 119.708 58.069 119.373 57.7676 119.267C57.4606 119.166 57.1982 119.049 57.1815 119.004C57.1536 118.943 57.187 118.932 57.3322 118.959C57.4383 118.982 57.5108 118.976 57.5108 118.943C57.5108 118.915 57.2819 118.77 57.0028 118.619C56.7181 118.474 56.1934 118.167 55.8306 117.938C55.4677 117.709 54.7644 117.24 54.262 116.9C53.7596 116.565 53.1902 116.219 52.9892 116.14C52.7882 116.057 52.3863 115.895 52.096 115.783C51.8058 115.672 51.4932 115.526 51.4038 115.459C51.309 115.398 51.1917 115.242 51.1359 115.119C51.0801 114.996 51.0354 114.801 51.0354 114.684C51.0354 114.572 51.0968 114.282 51.175 114.042C51.2475 113.807 51.4206 113.433 51.5546 113.221L51.7946 112.83C50.6223 111.356 49.9915 110.547 49.6399 110.084C49.2882 109.615 48.97 109.235 48.9365 109.235C48.903 109.23 48.8472 109.364 48.8193 109.52Z" fill="white"/>
<defs>
<linearGradient id="paint0_linear_83_298" x1="128" y1="1" x2="128" y2="255" gradientUnits="userSpaceOnUse">
<stop stop-color="#31598F"/>
<stop offset="1" stop-color="#294872"/>
</linearGradient>
</defs>
</svg>
