<svg width="341" height="341" viewBox="0 0 341 341" fill="none" xmlns="http://www.w3.org/2000/svg">
<g clip-path="url(#clip0_14_61)">
<rect width="341" height="341" fill="url(#paint0_linear_14_61)"/>
<g filter="url(#filter0_d_14_61)">
<path fill-rule="evenodd" clip-rule="evenodd" d="M168.572 61.6359C168.1 61.6434 166.886 61.6884 165.874 61.7333C164.862 61.7783 163.378 61.8607 162.576 61.9207L162.358 61.9391L162.357 61.9391C161.574 62.0049 160.552 62.0908 159.991 62.1455C159.369 62.2055 158.462 62.3104 157.967 62.3778C157.473 62.4453 156.986 62.5427 156.881 62.5877C156.776 62.6401 156.521 62.7301 156.319 62.775C156.109 62.8275 155.757 62.9849 155.532 63.1198C155.307 63.2622 154.85 63.457 154.52 63.5544C154.19 63.6594 153.666 63.8317 153.358 63.9367C153.051 64.0491 152.669 64.2214 152.512 64.3189C152.362 64.4238 152.212 64.5062 152.182 64.5062C152.144 64.5062 152.01 64.5962 151.882 64.6936C151.702 64.8285 151.627 64.9484 151.62 65.1208C151.597 65.3456 151.567 65.3756 151.298 65.428C151.133 65.4655 150.863 65.5629 150.698 65.6454C150.458 65.7728 150.316 65.7877 149.986 65.7503C149.694 65.7203 149.469 65.6304 149.199 65.4505C148.952 65.2781 148.697 65.1732 148.45 65.1432C148.247 65.1133 147.933 65.0233 147.753 64.9484C147.438 64.806 147.438 64.806 146.898 64.9784C146.479 65.1133 146.194 65.1507 145.677 65.1432C145.302 65.1357 144.8 65.0833 144.553 65.0308C144.125 64.9334 144.058 64.9409 143.166 65.1732C142.649 65.3006 141.795 65.5404 141.263 65.6903C140.731 65.8402 140.281 66.0051 140.266 66.0426C140.251 66.08 140.438 66.2074 140.671 66.3198L141.105 66.5297C147.258 66.4922 147.73 66.5072 147.843 66.6046C147.91 66.6646 147.97 66.7545 147.97 66.792C147.963 66.8295 147.79 67.0843 147.573 67.3466L147.176 67.8262C145.145 67.8037 144.403 67.7588 144.215 67.7288C144.028 67.6913 143.841 67.6164 143.788 67.5639C143.721 67.489 143.159 67.474 141.225 67.4815C139.089 67.5039 138.7 67.489 138.422 67.384C138.25 67.3166 137.733 67.2341 137.283 67.2042L136.459 67.1442C135.538 67.4703 134.902 67.6943 134.47 67.8463L134.47 67.8464L134.469 67.8469C134.058 67.9914 133.833 68.0708 133.723 68.111C133.499 68.1859 133.064 68.3433 132.757 68.4632C132.449 68.5756 132.187 68.7105 132.172 68.7555C132.157 68.8304 132.352 68.8529 132.974 68.8529C133.768 68.8529 133.798 68.8604 133.836 69.0178C133.858 69.1152 133.873 69.2576 133.873 69.3401C133.873 69.4824 133.836 69.4899 133.221 69.445L132.562 69.4075C131.228 70.022 130.741 70.2768 130.613 70.3743C130.486 70.4717 130.321 70.5841 130.239 70.6291C130.156 70.674 129.939 70.734 129.751 70.7565L129.414 70.8089C129.212 70.3368 129.152 70.1344 129.152 70.052C129.152 69.9696 129.137 69.9021 129.114 69.9021C129.092 69.9021 128.318 70.2348 127.381 70.6374L127.381 70.6375L127.331 70.6591C126.379 71.0787 124.783 71.8057 123.793 72.2778C122.804 72.75 121.283 73.5069 120.421 73.964C119.559 74.4212 118.39 75.0507 117.835 75.358C117.771 75.3948 117.701 75.4344 117.627 75.4762C117.069 75.7928 116.284 76.2376 115.774 76.5421C115.197 76.8793 114.718 77.1941 114.71 77.2391C114.695 77.2915 114.95 77.344 115.422 77.374C115.819 77.4114 116.861 77.4339 117.723 77.4339C119.222 77.4339 119.312 77.4264 119.597 77.2615C119.761 77.1716 120.099 76.8344 120.346 76.5271C120.593 76.2123 121.245 75.5304 121.8 75.0058C122.422 74.4212 122.939 73.8591 123.164 73.5144C123.426 73.1322 123.629 72.9148 123.891 72.7724C124.138 72.6226 124.37 72.5626 124.693 72.5401L125.142 72.5176C125.517 73.0198 125.884 73.4469 126.199 73.7992C126.514 74.1514 127.451 75.1407 128.283 75.995C129.392 77.1491 129.886 77.6063 130.164 77.7487C130.441 77.8836 130.598 77.921 130.763 77.8836C130.913 77.8461 131.265 77.5463 131.85 76.9543C132.517 76.2723 132.832 76.0175 133.236 75.8076C133.521 75.6578 134.555 75.2606 135.522 74.9308C136.489 74.5936 137.298 74.3388 137.321 74.3612C137.343 74.3912 137.088 75.2156 136.759 76.2123C136.309 77.5613 136.084 78.1309 135.859 78.4681C135.694 78.7154 135.47 78.9777 135.357 79.0602C135.237 79.1351 134.952 79.2251 134.72 79.27C134.48 79.3075 133.986 79.4424 133.611 79.5698C133.236 79.6972 132.734 79.8171 132.487 79.8471C132.24 79.8696 131.662 80.0194 131.213 80.1768C130.763 80.3267 129.969 80.604 129.452 80.7914C128.935 80.9787 128.23 81.1811 127.878 81.2485C127.526 81.3085 126.836 81.4134 126.341 81.4808C125.615 81.5708 125.345 81.6457 124.918 81.8556C124.595 82.0129 124.131 82.3502 123.718 82.7174C123.344 83.0546 122.842 83.4219 122.594 83.5418C122.347 83.6692 121.875 83.8341 121.545 83.9165C121.215 83.9914 120.256 84.1488 119.409 84.2537C118.562 84.3662 117.671 84.5011 117.423 84.561C117.176 84.6285 116.689 84.7783 116.337 84.8982C115.984 85.0182 115.512 85.1381 115.287 85.168C115.063 85.1905 114.785 85.258 114.673 85.3104C114.553 85.3704 114.381 85.5428 114.276 85.6926C114.178 85.85 114.006 86.2098 113.901 86.502C113.789 86.7868 113.564 87.2814 113.391 87.5887L113.077 88.1508C113.099 91.111 113.107 91.1635 113.324 91.7855C113.39 91.9698 113.474 92.195 113.552 92.4066C113.623 92.5995 113.69 92.781 113.736 92.9097C113.841 93.1795 114.006 93.4568 114.103 93.5242C114.193 93.5917 114.493 93.7041 114.763 93.764C115.033 93.8315 115.909 93.9214 116.711 93.9739L118.173 94.0638C119.162 94.7083 119.604 95.0456 119.799 95.2329C120.016 95.4353 120.159 95.6376 120.159 95.735C120.159 95.8325 120.249 96.2671 120.354 96.7093C120.458 97.1589 120.608 97.8559 120.683 98.2681C120.758 98.6803 120.841 99.3173 120.871 99.692C120.901 100.089 120.983 100.509 121.073 100.704C121.148 100.891 121.29 101.123 121.38 101.213C121.47 101.311 121.68 101.461 121.845 101.543C122.01 101.626 122.332 101.715 122.557 101.73L122.969 101.768C124.018 100.809 124.978 99.9543 125.779 99.2499C126.581 98.5379 127.645 97.6386 128.14 97.2489C128.635 96.8517 129.204 96.3496 129.399 96.1247C129.602 95.8999 129.916 95.4502 130.104 95.1205C130.298 94.7907 130.613 94.2811 130.808 93.9963C131.003 93.7041 131.333 93.1195 131.55 92.6848C131.76 92.2502 132.112 91.6581 132.329 91.3733C132.547 91.0811 133.011 90.5415 133.356 90.1742C133.434 90.091 133.516 90.0041 133.598 89.9172C133.885 89.6127 134.172 89.3083 134.3 89.1625C134.473 88.9752 134.72 88.6829 134.848 88.5105C135.012 88.2857 135.252 88.1058 135.769 87.8435C136.144 87.6487 136.676 87.3564 136.946 87.1915C137.204 87.0407 137.539 86.828 137.711 86.7182L137.711 86.7181L137.733 86.7044C137.781 86.6717 137.854 86.622 137.944 86.5611L137.947 86.5589C138.166 86.4101 138.481 86.1957 138.767 85.9999C139.164 85.7226 139.479 85.4528 139.457 85.4154C139.434 85.3704 139.472 85.3254 139.531 85.3029C139.606 85.2805 139.636 85.3104 139.629 85.3854C139.614 85.4678 140.161 85.7526 141.727 86.4721L143.841 87.4388C145.19 87.4388 145.624 87.4838 145.977 87.5812C146.261 87.6562 146.838 87.8435 147.251 87.9934C147.663 88.1508 148.165 88.3606 148.36 88.473C148.712 88.6679 148.742 88.7129 149.349 89.9494C149.694 90.6464 150.098 91.4932 150.248 91.823C150.398 92.1527 150.773 93.0146 151.08 93.734C151.387 94.4535 151.717 95.2104 151.815 95.4203C151.912 95.6226 152.084 95.9074 152.204 96.0498C152.324 96.1847 152.557 96.3795 152.721 96.477C152.886 96.5744 153.344 96.7543 153.733 96.8817C154.123 97.0016 154.558 97.1889 154.692 97.2938C154.82 97.3988 154.992 97.5936 155.06 97.721C155.157 97.9084 155.187 98.1407 155.18 98.6428C155.172 99.025 155.112 99.5421 155.03 99.8344C154.955 100.119 154.842 100.374 154.782 100.411C154.722 100.441 154.183 100.629 153.583 100.824C152.984 101.011 152.122 101.318 151.672 101.506C151.223 101.693 150.616 101.963 150.323 102.113C150.039 102.263 149.671 102.532 149.499 102.705C149.327 102.885 148.997 103.109 148.712 103.237C148.442 103.357 147.925 103.529 147.55 103.612C147.176 103.694 146.456 103.814 145.939 103.881C145.422 103.949 144.38 104.039 143.616 104.084C142.851 104.129 141.69 104.151 141.03 104.136L139.831 104.099C139.134 104.503 138.527 104.901 138.033 105.23C137.538 105.568 136.931 106.025 136.684 106.257C136.436 106.489 136.211 106.752 136.174 106.834C136.137 106.947 136.167 107.051 136.264 107.164C136.399 107.329 136.466 107.336 137.298 107.329C137.92 107.329 138.37 107.276 138.82 107.171C139.172 107.081 139.554 107.006 139.681 106.999C139.809 106.991 139.981 106.984 140.071 106.991C140.168 106.999 140.588 107.261 141.008 107.576C141.428 107.898 141.832 108.258 141.907 108.385C141.982 108.513 142.042 108.753 142.042 108.948C142.042 109.157 141.982 109.412 141.87 109.622C141.742 109.862 141.675 110.199 141.607 110.821C141.555 111.293 141.45 111.923 141.368 112.208C141.285 112.492 141.158 112.815 141.075 112.919C141 113.024 140.573 113.384 140.124 113.729C139.674 114.074 139.104 114.448 138.857 114.568C138.61 114.688 138.168 114.838 137.883 114.898C137.598 114.958 137.148 115.025 136.886 115.048C136.631 115.07 136.421 115.078 136.421 115.055C136.421 115.033 136.481 114.905 136.549 114.771C136.616 114.643 136.699 114.396 136.729 114.231C136.759 114.066 136.751 113.676 136.714 113.369C136.669 113.062 136.549 112.552 136.451 112.245C136.346 111.938 136.241 111.638 136.211 111.586C136.174 111.511 135.889 111.578 134.997 111.87C134.36 112.08 133.311 112.38 132.674 112.537C132.007 112.702 131.303 112.927 131.025 113.069C130.756 113.204 130.351 113.429 130.126 113.579C129.901 113.721 129.549 113.976 129.347 114.149C129.144 114.313 128.792 114.688 128.56 114.98C128.327 115.265 127.99 115.587 127.81 115.692C127.631 115.797 127.353 116 127.188 116.142C127.023 116.284 126.716 116.689 126.506 117.041C126.297 117.394 126.027 117.813 125.899 117.986C125.772 118.158 125.517 118.42 125.33 118.57C125.142 118.728 124.753 118.967 124.468 119.102C124.183 119.237 123.741 119.402 123.494 119.47C123.246 119.544 122.369 119.822 121.545 120.092C120.721 120.361 119.844 120.669 119.597 120.766C119.349 120.871 119.05 121.028 118.93 121.118C118.81 121.201 118.592 121.463 118.45 121.688C118.3 121.913 117.865 122.655 117.476 123.337C117.093 124.019 116.561 124.895 116.307 125.285C116.052 125.675 115.647 126.267 115.407 126.597C115.16 126.941 114.231 127.931 113.234 128.92C111.847 130.291 111.061 131.153 109.397 133.147C108.25 134.518 107.246 135.732 107.179 135.845C107.111 135.95 107.021 136.339 106.976 136.714C106.931 137.081 106.879 138.115 106.849 139C106.811 140.304 106.751 140.933 106.542 142.297C106.399 143.227 106.234 144.186 106.167 144.433C106.107 144.68 106.017 144.95 105.979 145.033L105.897 145.183C105.74 144.95 105.68 144.763 105.657 144.62C105.627 144.403 105.537 144.306 105.185 144.051C104.953 143.879 104.556 143.564 104.316 143.339C104.076 143.114 103.731 142.732 103.559 142.485C103.386 142.237 103.184 141.848 103.109 141.623C103.034 141.398 102.862 140.971 102.734 140.686C102.599 140.401 102.337 139.652 102.15 139.037C101.955 138.415 101.738 137.831 101.663 137.726C101.58 137.621 101.475 137.538 101.415 137.538C101.355 137.538 101.251 137.658 101.183 137.801C101.056 138.04 101.018 138.063 100.621 138.108C100.381 138.138 99.7517 138.16 99.2121 138.168C98.6725 138.168 98.0205 138.138 97.7507 138.093C97.4809 138.04 96.9862 137.868 96.6265 137.696C96.042 137.411 95.952 137.388 95.39 137.396C94.9553 137.403 94.618 137.456 94.1534 137.613C93.8012 137.726 93.299 137.921 93.0293 138.048C92.7595 138.183 92.3698 138.43 92.1674 138.61C91.9651 138.782 91.6728 138.962 91.5304 139.015C91.3805 139.06 91.1332 139.075 90.9683 139.045C90.8034 139.015 89.8217 138.985 88.795 138.977C87.0338 138.962 86.8989 138.97 86.5841 139.12C86.3968 139.21 86.0595 139.419 85.8347 139.592C85.6099 139.764 84.853 140.191 84.1485 140.536C83.444 140.881 82.5597 141.368 82.1775 141.615L81.488 142.072C81.1732 142.912 80.8885 143.444 80.6486 143.796C80.4163 144.148 80.0191 144.673 79.7718 144.958C79.5245 145.242 79.2397 145.647 79.1348 145.857C79.0374 146.059 78.925 146.367 78.895 146.531C78.8725 146.696 78.8875 146.996 78.9324 147.206C78.9774 147.408 79.1423 147.783 79.2997 148.03C79.4571 148.278 79.6294 148.667 79.6894 148.892C79.7418 149.117 79.9966 149.941 80.2514 150.728C80.5063 151.508 80.8585 152.504 81.0309 152.939C81.2032 153.374 81.548 154.146 81.7878 154.663C82.0351 155.18 82.2599 155.712 82.2899 155.847C82.3274 155.989 82.3948 156.087 82.4623 156.087C82.5222 156.087 83.1443 156.004 83.8487 155.899C84.5532 155.794 85.3251 155.675 85.5724 155.63C85.7956 155.596 86.2384 155.507 86.598 155.435L86.5982 155.435L86.5988 155.435L86.7115 155.412C87.0938 155.33 87.5509 155.21 87.7233 155.15C87.9031 155.09 88.083 154.985 88.1205 154.91C88.1579 154.835 88.6376 154.341 89.1772 153.801C89.8367 153.141 90.2489 152.662 90.4512 152.317C90.706 151.882 90.7885 151.793 91.0807 151.688C91.3205 151.598 91.5304 151.583 91.7927 151.613C92.0025 151.643 92.4447 151.748 92.7894 151.852C93.1267 151.957 93.404 152.062 93.404 152.092C93.404 152.13 93.1866 152.422 92.9243 152.752L92.4522 153.351C92.3772 155.69 92.3023 156.589 92.2124 157.061C92.1374 157.496 91.995 158.013 91.8976 158.215C91.7852 158.447 91.5304 158.755 91.2006 159.04C90.9159 159.294 90.6611 159.557 90.6236 159.624C90.5711 159.721 90.6011 159.819 90.7285 159.961C90.8259 160.081 91.2081 160.329 91.5754 160.516C91.9426 160.711 92.5421 160.966 92.9168 161.093C93.2916 161.213 93.7412 161.34 93.9286 161.37C94.1909 161.415 94.3183 161.393 94.4906 161.288C94.6855 161.175 94.8204 161.16 95.4649 161.205C95.8771 161.228 96.2818 161.273 96.3642 161.295C96.4542 161.325 96.7389 161.707 97.0537 162.217L97.5933 163.094C97.6682 165.807 97.6607 166.721 97.6233 166.954C97.5858 167.178 97.5633 167.553 97.5783 167.778L97.6008 168.19C98.9048 169.412 99.5268 169.974 99.8116 170.221C100.096 170.468 100.554 170.843 100.823 171.053C101.093 171.263 101.423 171.488 101.558 171.555C101.685 171.622 101.91 171.675 102.045 171.675C102.195 171.682 102.322 171.63 102.397 171.54C102.48 171.435 102.907 171.293 103.933 171.038C104.923 170.791 105.425 170.701 105.582 170.738C105.71 170.761 106.024 170.925 106.294 171.098C106.556 171.27 107.089 171.66 107.471 171.952C107.853 172.252 108.213 172.499 108.265 172.499C108.31 172.499 108.505 172.402 108.692 172.282C108.902 172.147 109.15 171.87 109.352 171.57C109.562 171.233 109.757 171.03 109.951 170.933C110.101 170.858 110.431 170.738 110.678 170.663C110.926 170.596 111.263 170.468 111.428 170.386C111.593 170.303 111.825 170.139 111.952 170.011C112.087 169.884 112.237 169.801 112.327 169.816C112.425 169.831 112.484 169.906 112.492 170.026C112.507 170.154 112.694 170.371 113.077 170.701C113.384 170.97 113.848 171.315 114.111 171.473C114.455 171.682 114.658 171.75 114.898 171.75C115.19 171.75 115.227 171.727 115.392 171.428C115.49 171.255 115.625 170.925 115.692 170.701C115.76 170.476 115.812 170.146 115.812 169.966C115.812 169.666 115.842 169.629 116.322 169.232C116.599 168.999 117.079 168.685 117.386 168.542C117.783 168.347 118.083 168.258 118.398 168.235C118.645 168.22 118.975 168.228 119.132 168.258C119.282 168.28 119.514 168.392 119.642 168.505C119.859 168.7 119.874 168.745 119.851 169.142L119.821 169.569C120.368 169.632 121.105 169.695 121.842 169.758L121.995 169.771C122.782 169.831 123.943 169.929 124.58 169.989L125.742 170.086C128.005 171.128 128.905 171.548 129.189 171.697C129.474 171.84 130.036 172.229 130.426 172.567C131.115 173.144 131.175 173.181 132.225 173.549C132.824 173.766 133.918 174.178 134.66 174.463C135.927 174.957 136.032 175.017 136.384 175.385C136.594 175.602 137.058 176.239 137.433 176.801L138.108 177.82C139.442 178.24 140.573 178.607 141.48 178.907C142.387 179.207 143.668 179.656 144.328 179.904C144.987 180.143 145.744 180.458 146.014 180.593C146.284 180.721 146.591 180.893 146.711 180.975C146.823 181.05 146.988 181.26 147.078 181.433C147.168 181.612 147.266 181.92 147.296 182.129C147.326 182.332 147.318 182.774 147.273 183.104C147.236 183.434 147.161 184.16 147.108 184.715C147.056 185.27 146.966 185.809 146.913 185.914C146.861 186.019 146.479 186.626 146.067 187.263C145.654 187.9 145.197 188.575 145.047 188.754C144.785 189.077 144.777 189.107 144.777 189.684V190.276C145.317 190.755 145.744 191.048 146.067 191.235C146.389 191.422 146.853 191.655 147.101 191.752C147.363 191.857 147.768 191.947 148.075 191.97C148.45 191.992 148.772 191.962 149.199 191.85C149.529 191.767 150.436 191.452 151.223 191.145C152.01 190.838 152.976 190.456 153.381 190.291L154.115 189.999C156.349 191.07 157.368 191.497 157.818 191.64C158.267 191.782 159.736 192.239 161.078 192.652C162.419 193.064 163.813 193.491 164.188 193.596C164.562 193.701 165.267 193.888 165.762 194.015C165.917 194.055 166.08 194.097 166.237 194.137L166.245 194.139C166.586 194.225 166.898 194.304 167.036 194.345C167.38 194.443 167.478 194.533 168.205 195.372C168.639 195.882 169.381 196.766 169.838 197.343C170.303 197.92 170.843 198.639 171.053 198.932L171.42 199.479L171.472 202.139C170.955 204.582 170.693 205.692 170.55 206.186C170.401 206.681 170.221 207.235 170.138 207.423C170.048 207.61 169.898 207.857 169.794 207.985C169.689 208.112 169.531 208.36 169.456 208.547C169.385 208.71 169.154 209.292 168.908 209.915L168.907 209.916L168.907 209.918L168.797 210.196C168.519 210.915 168.1 211.927 167.86 212.444C167.628 212.961 167.223 213.748 166.961 214.205C166.706 214.662 166.369 215.284 166.211 215.592C166.061 215.899 165.874 216.393 165.799 216.678C165.732 216.963 165.514 217.495 165.319 217.855C165.02 218.432 164.975 218.574 164.975 218.964C164.975 219.271 165.035 219.556 165.162 219.863C165.342 220.298 165.342 220.328 165.237 220.703C165.177 220.92 165.005 221.34 164.855 221.625C164.705 221.909 164.465 222.299 164.315 222.486C164.264 222.544 164.206 222.612 164.145 222.681C164.018 222.828 163.882 222.984 163.791 223.086C163.656 223.228 163.281 223.738 162.966 224.21C162.651 224.682 162.224 225.237 162.014 225.439C161.812 225.641 161.355 225.994 161.003 226.226C160.635 226.458 160.096 226.728 159.729 226.856C159.376 226.975 158.485 227.223 157.743 227.403C157.001 227.59 156.296 227.777 156.169 227.822C156.041 227.867 155.884 227.957 155.809 228.025C155.734 228.092 155.644 228.264 155.607 228.407C155.569 228.549 155.427 228.834 155.285 229.044C155.15 229.246 154.767 229.651 154.438 229.928C154.115 230.213 153.643 230.55 153.396 230.685C153.149 230.82 152.706 231.097 152.422 231.307C152.137 231.51 151.71 231.757 151.485 231.854C151.26 231.944 151.005 232.079 150.93 232.147C150.855 232.214 150.728 232.401 150.653 232.566C150.578 232.731 150.466 233.188 150.398 233.578C150.338 233.968 150.226 234.53 150.166 234.815C150.098 235.099 149.919 235.759 149.761 236.276C149.596 236.793 149.364 237.467 149.237 237.775C149.109 238.082 148.764 238.727 148.472 239.199C148.187 239.671 147.723 240.368 147.445 240.735C147.168 241.102 146.621 241.844 146.231 242.384C145.842 242.923 145.34 243.553 145.115 243.785C144.8 244.107 144.635 244.22 144.403 244.257C144.208 244.295 143.961 244.272 143.691 244.197L143.279 244.077C143.002 244.275 142.691 244.495 142.367 244.724L142.365 244.725C142.014 244.974 141.647 245.233 141.293 245.486C140.341 246.161 140.049 246.408 140.034 246.543C140.011 246.686 140.139 246.888 140.543 247.367C140.91 247.81 141.105 248.117 141.18 248.379C141.248 248.582 141.293 248.904 141.293 249.091C141.293 249.279 141.203 249.848 141.098 250.365C140.97 251.01 140.835 251.429 140.678 251.714C140.551 251.939 140.318 252.291 140.168 252.501C140.019 252.703 139.749 253.003 139.584 253.153C139.412 253.311 138.909 253.61 138.467 253.828C138.018 254.037 137.598 254.262 137.523 254.33C137.441 254.405 137.388 254.555 137.388 254.749C137.396 254.914 137.478 255.214 137.575 255.424L137.763 255.799C136.511 258.294 136.002 259.261 135.822 259.546C135.649 259.831 135.455 260.205 135.395 260.37C135.342 260.535 135.297 260.872 135.297 261.12C135.297 261.367 135.342 261.719 135.402 261.906C135.455 262.094 135.822 262.888 136.219 263.668C136.901 265.032 136.946 265.159 137.321 266.628C137.568 267.58 137.718 268.337 137.718 268.614C137.725 268.914 137.65 269.288 137.516 269.738C137.396 270.105 137.186 270.697 137.051 271.05C136.908 271.402 136.676 271.874 136.541 272.099C136.399 272.324 136.211 272.766 136.122 273.073C136.032 273.38 135.919 273.718 135.867 273.822C135.822 273.927 135.642 274.077 135.47 274.16C135.297 274.242 135.155 274.332 135.147 274.362C135.147 274.4 135.709 274.609 136.406 274.834L136.674 274.919C137.374 275.139 138.372 275.454 139.044 275.659C139.809 275.891 140.955 276.228 141.592 276.4C142.229 276.58 143.361 276.888 144.103 277.075C144.845 277.262 145.992 277.532 146.651 277.682C147.311 277.832 148.592 278.102 149.499 278.282C150.406 278.461 151.86 278.731 152.721 278.874C153.583 279.023 154.767 279.211 155.344 279.286C155.922 279.368 156.948 279.503 157.63 279.586C158.312 279.668 159.369 279.788 159.991 279.855C160.552 279.91 161.577 279.996 162.361 280.062L162.576 280.08C163.378 280.14 164.832 280.23 165.799 280.275C166.766 280.327 169.097 280.365 170.97 280.365C172.844 280.365 175.174 280.327 176.141 280.275C177.108 280.23 178.562 280.14 179.364 280.08L179.442 280.074C180.24 280.007 181.347 279.913 181.949 279.855C182.564 279.795 183.628 279.675 184.31 279.586C184.992 279.503 186.019 279.368 186.596 279.286C187.173 279.203 188.267 279.038 189.031 278.911C189.796 278.784 191.107 278.551 191.954 278.386C192.801 278.222 194.165 277.929 194.989 277.749C195.814 277.562 197.163 277.24 197.987 277.03C198.812 276.828 199.988 276.505 200.61 276.333C201.225 276.153 202.019 275.921 202.371 275.823C202.724 275.719 203.615 275.441 204.357 275.209C205.099 274.977 206.231 274.602 206.868 274.37L207.222 274.244L207.23 274.242L207.267 274.229C207.811 274.037 208.385 273.834 208.667 273.732C209.019 273.605 210.098 273.193 211.065 272.811C212.031 272.428 213.485 271.829 214.287 271.477C215.089 271.132 216.138 270.667 216.611 270.45C217.083 270.24 218.312 269.648 219.346 269.138C220.373 268.636 221.797 267.909 222.494 267.527C223.191 267.152 224.307 266.53 224.967 266.156C225.626 265.781 226.81 265.092 227.59 264.619C228.369 264.147 229.538 263.42 230.175 263.008C230.812 262.596 231.809 261.936 232.386 261.539C232.963 261.15 233.975 260.445 234.634 259.973C235.294 259.501 236.321 258.744 236.92 258.287C237.52 257.83 238.651 256.945 239.431 256.323C240.21 255.694 241.379 254.734 242.016 254.187C242.653 253.633 243.635 252.778 244.182 252.284C244.737 251.782 245.584 251.01 246.056 250.56C246.535 250.103 247.555 249.114 248.319 248.349C249.083 247.585 250.073 246.566 250.53 246.086C250.979 245.614 251.751 244.767 252.253 244.212C252.748 243.665 253.483 242.826 253.88 242.361C254.547 241.589 254.607 241.499 254.562 241.275C254.539 241.147 254.472 240.862 254.404 240.66C254.337 240.45 254.172 240.038 254.037 239.738C253.895 239.446 253.737 239.191 253.692 239.191C253.64 239.184 253.528 239.184 253.445 239.191C253.355 239.199 253.16 239.071 252.973 238.884C252.793 238.704 252.486 238.307 252.291 238C252.089 237.692 251.804 237.183 251.646 236.875C251.489 236.568 251.257 236.044 251.122 235.714C250.987 235.384 250.807 234.859 250.725 234.552C250.635 234.245 250.44 233.331 250.297 232.529C250.148 231.727 249.945 230.715 249.848 230.28C249.75 229.846 249.593 229.291 249.511 229.044C249.428 228.797 249.218 228.07 249.053 227.433C248.889 226.796 248.581 225.851 248.371 225.334C248.162 224.817 247.787 223.963 247.532 223.423C247.277 222.884 246.798 222.029 246.46 221.512C246.131 220.995 245.756 220.373 245.628 220.126C245.501 219.878 245.329 219.459 245.246 219.189C245.156 218.919 245.014 218.23 244.932 217.653C244.849 217.075 244.729 216.364 244.662 216.079C244.602 215.794 244.527 215.337 244.512 215.067C244.474 214.67 244.527 214.363 244.752 213.418C244.909 212.781 245.096 212.032 245.171 211.747C245.291 211.32 245.381 211.177 245.763 210.773C246.056 210.48 246.266 210.181 246.333 209.971C246.4 209.784 246.655 209.229 246.895 208.734C247.232 208.052 247.36 207.7 247.42 207.273C247.495 206.786 247.487 206.583 247.352 205.774C247.262 205.257 247.172 204.597 247.142 204.313C247.12 204.028 247.03 203.586 246.955 203.338C246.88 203.091 246.73 202.537 246.625 202.102C246.513 201.652 246.273 200.993 246.071 200.566C245.876 200.153 245.673 199.719 245.628 199.591C245.576 199.464 245.471 199.029 245.389 198.617C245.306 198.205 245.239 197.695 245.239 197.493C245.239 197.201 245.186 197.036 245.006 196.743C244.872 196.534 244.572 196.129 244.339 195.844C244.1 195.559 243.59 194.982 243.215 194.57C242.833 194.158 242.443 193.678 242.346 193.498C242.181 193.206 242.174 193.154 242.249 192.786C242.316 192.487 242.316 192.307 242.249 192.022C242.196 191.812 241.919 191.198 241.634 190.651C241.207 189.834 241.117 189.601 241.117 189.302C241.117 189.107 241.012 188.605 240.892 188.177C240.765 187.758 240.667 187.263 240.667 187.076C240.667 186.888 240.615 186.416 240.555 186.027C240.487 185.584 240.465 185.21 240.502 185.03C240.532 184.88 240.667 184.625 240.802 184.468C240.93 184.318 241.064 184.1 241.087 183.981C241.117 183.868 241.117 183.523 241.094 183.216C241.064 182.909 241.012 182.639 240.975 182.617C240.937 182.594 240.795 182.324 240.667 182.017C240.54 181.71 240.397 181.403 240.345 181.343C240.293 181.283 240.045 180.998 239.798 180.721C239.558 180.443 239.288 180.196 239.206 180.173C239.108 180.143 238.989 180.196 238.869 180.331L238.681 180.526C237.924 180.331 237.535 180.211 237.332 180.129C237.122 180.046 236.778 179.866 236.56 179.724C236.351 179.581 235.758 179.057 235.256 178.562C234.694 178.008 234.072 177.476 233.66 177.206C233.293 176.958 232.671 176.606 232.281 176.411C231.719 176.134 231.479 176.052 231.119 176.037C230.842 176.022 230.25 176.089 229.613 176.209C229.036 176.314 228.534 176.434 228.489 176.464C228.444 176.501 228.092 176.666 227.702 176.831C227.312 177.003 226.915 177.221 226.818 177.311C226.69 177.438 226.645 177.55 226.668 177.723C226.683 177.895 226.653 177.978 226.578 178C226.558 178.008 226.503 178.025 226.423 178.049C226.377 178.063 226.324 178.079 226.264 178.096L226.262 178.097C226.108 178.143 225.915 178.201 225.716 178.262C225.304 178.382 224.629 178.57 224.217 178.675C223.805 178.787 223.34 178.869 223.183 178.869C223.033 178.869 222.696 178.787 222.441 178.682L222.441 178.682C222.318 178.633 222.227 178.597 222.133 178.572C221.867 178.5 221.577 178.514 220.47 178.57C219.646 178.607 218.709 178.675 218.394 178.72C217.862 178.787 217.78 178.824 217.532 179.079C217.36 179.252 216.858 179.559 216.236 179.866C215.681 180.143 215.067 180.413 214.864 180.466C214.535 180.548 214.437 180.533 213.253 180.226C212.564 180.046 211.612 179.821 211.14 179.716C210.668 179.611 210.248 179.499 210.203 179.462C210.158 179.417 210.18 179.394 210.278 179.394C210.36 179.402 210.473 179.357 210.518 179.304C210.593 179.229 210.57 179.169 210.405 179.012C210.293 178.907 210.008 178.675 209.761 178.487C209.506 178.3 209.064 177.82 208.712 177.378C208.382 176.943 207.992 176.426 207.857 176.216C207.722 176.007 207.527 175.564 207.415 175.235C207.31 174.905 206.995 174.126 206.718 173.511C206.441 172.889 205.901 171.45 205.511 170.303C205.084 169.052 204.769 168.228 204.717 168.228C204.665 168.228 204.62 168.258 204.62 168.302C204.62 168.34 204.59 168.37 204.545 168.355C204.507 168.347 204.065 167.883 203.563 167.328C203.061 166.774 202.349 165.942 201.982 165.492C201.494 164.893 201.322 164.623 201.345 164.518C201.367 164.435 201.352 164.271 201.315 164.143C201.277 164.016 201.21 163.611 201.165 163.244C201.105 162.764 201.105 162.359 201.165 161.857C201.21 161.468 201.352 160.808 201.479 160.396C201.607 159.984 201.862 159.362 202.042 159.01C202.221 158.657 202.416 158.155 202.476 157.885C202.551 157.548 202.574 157.106 202.551 156.461C202.529 155.944 202.499 155.45 202.476 155.352C202.461 155.262 202.229 154.948 201.959 154.663C201.689 154.378 201.45 154.063 201.427 153.966C201.405 153.876 201.45 153.494 201.539 153.126C201.622 152.752 201.734 152.13 201.779 151.74C201.832 151.335 201.914 150.998 201.967 150.953C202.027 150.908 202.117 150.743 202.169 150.578C202.229 150.414 202.364 150.136 202.476 149.956C202.581 149.784 202.903 149.379 203.181 149.057C203.458 148.742 203.84 148.293 204.013 148.068C204.192 147.843 204.402 147.521 204.485 147.356C204.567 147.191 204.612 147.011 204.59 146.959C204.567 146.914 204.477 146.861 204.395 146.846C204.267 146.831 204.365 146.636 205.114 145.445C205.736 144.448 206.141 143.886 206.561 143.459C206.875 143.129 207.243 142.672 207.37 142.447C207.497 142.222 207.835 141.81 208.119 141.533C208.397 141.263 208.764 140.843 208.929 140.611C209.094 140.379 209.468 139.877 209.753 139.502L210.278 138.812L211.282 138.737C213.058 136.976 213.253 136.736 213.291 136.527C213.313 136.384 213.276 135.912 213.208 135.477C213.141 135.043 213.088 134.571 213.088 134.428C213.088 134.181 213.126 134.136 213.995 133.529C214.497 133.177 215.366 132.472 215.921 131.955C216.476 131.438 217.188 130.816 217.502 130.561C217.817 130.314 218.177 129.939 218.312 129.737C218.447 129.534 218.611 129.212 218.686 129.01C218.761 128.815 218.851 128.658 218.896 128.658C218.941 128.658 219.406 128.747 219.945 128.852C220.485 128.957 221.07 129.115 221.257 129.197C221.519 129.31 221.946 129.377 223.131 129.467L224.667 129.587C226.293 128.433 227.088 127.841 227.477 127.518C227.653 127.377 227.844 127.221 228.017 127.08L228.023 127.075C228.232 126.905 228.414 126.756 228.511 126.679L228.826 126.409C234.642 126.439 235.376 126.469 235.399 126.537C235.414 126.612 235.646 126.634 236.223 126.634C236.673 126.634 237.385 126.589 237.819 126.522C238.254 126.462 239.011 126.297 239.506 126.154C240 126.012 240.66 125.847 240.967 125.787C241.274 125.72 241.582 125.697 241.642 125.727C241.701 125.765 241.814 125.93 241.881 126.102C241.956 126.267 242.016 126.522 242.016 126.649C242.016 126.784 242.151 127.226 242.316 127.623C242.586 128.275 242.616 128.425 242.616 128.972C242.616 129.317 242.653 130.007 242.706 130.516L242.803 131.438C243.672 132 244.145 132.285 244.414 132.427C244.684 132.577 245.209 132.779 245.576 132.892C245.943 132.997 246.768 133.289 247.397 133.551L248.544 134.016L248.536 134.953C249.203 135.38 249.615 135.612 249.885 135.747C250.215 135.905 250.927 136.114 252.059 136.377C252.988 136.587 253.91 136.811 254.12 136.871C254.322 136.931 254.779 136.976 255.131 136.976C255.588 136.976 255.851 136.931 256.068 136.834C256.233 136.759 256.585 136.534 256.847 136.332C257.11 136.129 257.38 135.852 257.447 135.725C257.559 135.492 257.559 135.44 257.35 134.788C257.155 134.158 257.147 134.061 257.23 133.754C257.275 133.566 257.387 133.267 257.477 133.087L257.642 132.764C258.399 132.832 259.118 132.892 259.74 132.937L260.864 133.019C262.491 133.866 263.3 134.226 263.712 134.361C264.379 134.578 264.544 134.608 265.211 134.593C265.623 134.586 266.23 134.541 266.56 134.496C266.89 134.451 267.325 134.346 267.534 134.271L267.909 134.121C269.303 134.646 269.925 134.885 270.195 134.99C270.465 135.103 270.899 135.305 271.169 135.44C271.439 135.575 271.739 135.762 271.844 135.845C271.949 135.935 272.151 136.024 272.293 136.054C272.436 136.077 272.908 136.062 273.342 136.009C273.777 135.957 274.234 135.897 274.369 135.867L274.602 135.815C274.185 134.661 273.892 133.852 273.68 133.268C273.625 133.116 273.575 132.978 273.53 132.854C273.312 132.255 272.908 131.213 272.638 130.531C272.368 129.849 271.866 128.65 271.521 127.856L270.907 126.417C269.873 126.492 269.543 126.469 269.108 126.372C268.778 126.304 268.411 126.259 268.299 126.267C268.111 126.297 268.044 126.237 267.677 125.712C267.452 125.398 267.19 124.925 267.092 124.663C267.002 124.408 266.598 123.621 266.193 122.924C265.796 122.227 265.473 121.628 265.473 121.59C265.473 121.56 265.683 121.515 265.938 121.493C266.2 121.471 266.523 121.418 266.65 121.381C266.807 121.336 266.957 121.216 267.062 121.043C267.16 120.886 267.384 120.684 267.572 120.579C267.759 120.474 267.917 120.376 267.924 120.361C267.939 120.346 267.849 120.137 267.722 119.889C267.594 119.642 267.467 119.425 267.422 119.402C267.377 119.38 267.122 119.455 266.837 119.559C266.433 119.717 266.268 119.747 265.961 119.702C265.751 119.672 265.413 119.589 265.211 119.514C265.001 119.432 264.746 119.305 264.627 119.222C264.499 119.117 264.312 119.065 264.102 119.065C263.93 119.065 263.585 119.117 263.338 119.177C263.09 119.237 262.768 119.282 262.626 119.29C262.483 119.29 262.213 119.245 262.026 119.185C261.756 119.102 261.644 119.095 261.464 119.17C261.337 119.222 261.104 119.417 260.939 119.604C260.775 119.784 260.52 120.174 260.362 120.459C260.212 120.744 260.048 121.111 260.003 121.276C259.935 121.485 259.928 121.643 259.98 121.8C260.025 121.928 260.347 122.43 260.715 122.924L261.367 123.824C261.314 124.611 261.232 124.925 261.127 125.135C261.037 125.323 260.849 125.622 260.715 125.81C260.58 125.997 260.362 126.192 260.22 126.252C260.04 126.327 259.853 126.342 259.59 126.304C259.447 126.284 259.237 126.256 259.047 126.231C258.959 126.22 258.875 126.209 258.803 126.199L258.391 126.147C258.256 125.39 258.219 124.97 258.211 124.723C258.211 124.476 258.241 124.064 258.279 123.801C258.324 123.546 258.369 123.337 258.391 123.337C258.414 123.337 258.519 123.404 258.631 123.486C258.759 123.584 258.953 123.644 259.118 123.636C259.276 123.636 259.403 123.621 259.403 123.599C259.403 123.576 259.351 123.501 259.283 123.427C259.216 123.359 258.968 122.947 258.736 122.512L258.309 121.725C256.503 121.65 256.45 121.643 256.315 121.463C256.233 121.358 256.151 121.103 256.128 120.901C256.091 120.571 256.046 120.489 255.738 120.219L255.394 119.912C255.708 118.945 255.738 118.72 255.701 118.48C255.678 118.308 255.558 117.971 255.439 117.731C255.319 117.499 255.161 117.244 255.086 117.176C255.004 117.101 254.674 116.906 254.344 116.742C254.015 116.569 253.602 116.344 253.43 116.232C253.228 116.105 253.108 115.977 253.108 115.88C253.108 115.76 252.95 115.67 252.298 115.415C251.856 115.235 251.092 114.935 250.597 114.748C250.103 114.553 249.106 114.104 248.386 113.744C247.082 113.092 247.075 113.084 246.91 112.725C246.813 112.522 246.648 112.275 246.535 112.17C246.333 111.983 246.295 111.983 245.584 112.02L244.842 112.058C244.512 113.159 244.414 113.504 244.414 113.534C244.414 113.571 244.609 113.594 244.842 113.594L245.276 113.601C245.786 114.493 246.206 115.19 246.543 115.722C246.947 116.367 247.282 116.804 247.547 117.034C247.764 117.221 248.394 117.678 248.933 118.038C249.481 118.405 250.327 118.9 250.822 119.147C251.317 119.387 251.961 119.657 252.246 119.739C252.531 119.822 252.883 119.889 253.01 119.889C253.16 119.889 253.318 119.949 253.408 120.039C253.49 120.122 253.557 120.234 253.557 120.279C253.557 120.331 253.55 120.391 253.527 120.414C253.505 120.436 253.28 120.436 253.01 120.414C252.561 120.376 252.501 120.354 252.141 120.017C251.864 119.762 251.699 119.664 251.534 119.664C251.407 119.664 251.212 119.717 251.084 119.777L250.86 119.889V124.011L250.073 123.974C250.043 123.509 250.08 123.217 250.148 123.014C250.252 122.677 250.253 122.647 250.095 122.302C249.96 122.003 249.953 121.913 250.02 121.703C250.08 121.553 250.088 121.418 250.043 121.328C250.005 121.261 249.848 121.081 249.705 120.938C249.458 120.706 249.436 120.639 249.436 120.279C249.436 119.897 249.428 119.882 249.038 119.597C248.829 119.432 248.499 119.23 248.311 119.147C248.124 119.065 247.914 118.99 247.839 118.99C247.772 118.99 247.3 118.705 246.79 118.368C246.288 118.023 245.591 117.528 245.239 117.274C244.887 117.019 244.317 116.674 243.965 116.494C243.613 116.322 243.073 116.015 242.766 115.812C242.458 115.61 241.814 115.078 241.342 114.621C240.87 114.164 240.412 113.751 240.33 113.691C240.195 113.601 240.113 113.631 239.506 113.976C239.138 114.186 238.584 114.538 238.284 114.763L237.744 115.168L235.309 115.303C234.492 114.531 234.23 114.343 234.125 114.343C234.035 114.336 233.892 114.411 233.81 114.493C233.69 114.613 233.57 114.651 233.225 114.643H232.798C230.805 116.239 230.692 116.352 230.7 116.554C230.7 116.682 230.565 117.049 230.37 117.416C230.093 117.941 229.89 118.188 229.223 118.84C228.781 119.275 228.212 119.799 227.964 120.017C227.59 120.331 227.485 120.481 227.335 120.871C227.245 121.133 226.893 121.943 226.563 122.662C226.241 123.382 225.881 124.101 225.769 124.266C225.611 124.491 225.266 124.716 224.142 125.353L222.718 126.147C222.623 126.144 222.523 126.141 222.417 126.138C222.209 126.131 221.982 126.124 221.742 126.117C221.14 126.097 220.456 126.076 219.781 126.057C218.701 126.027 217.802 125.982 217.787 125.96C217.765 125.937 217.592 125.6 217.405 125.21C217.21 124.82 217.06 124.401 217.06 124.273C217.053 124.146 217.135 123.936 217.225 123.794C217.322 123.651 217.585 123.427 217.81 123.292C218.034 123.157 218.349 122.917 218.514 122.76C218.661 122.612 218.733 122.541 218.755 122.457C218.777 122.378 218.756 122.289 218.716 122.115C218.671 121.92 218.634 121.635 218.634 121.478C218.634 121.328 218.716 121.043 218.821 120.841C218.926 120.646 219.009 120.421 219.009 120.339C219.009 120.256 218.971 120.114 218.926 120.017C218.859 119.882 218.889 119.762 219.084 119.327C219.256 118.967 219.331 118.683 219.331 118.428C219.338 118.121 219.293 117.993 219.099 117.731C218.881 117.446 218.821 117.409 218.469 117.379C218.252 117.356 217.832 117.281 217.547 117.214C217.21 117.131 216.873 116.981 216.611 116.802C216.386 116.652 216.131 116.524 216.048 116.517C215.959 116.517 215.854 116.562 215.801 116.607C215.726 116.682 215.711 116.592 215.711 116.157V115.617C216.318 115.093 216.618 114.883 216.76 114.816C216.94 114.733 217.315 114.688 217.997 114.658C218.814 114.628 219.106 114.651 219.833 114.793L220.695 114.965C221.504 114.718 221.894 114.643 222.081 114.643C222.269 114.643 222.568 114.688 222.756 114.748C222.943 114.808 223.34 114.943 223.64 115.048C223.955 115.16 224.345 115.243 224.577 115.243C224.914 115.243 225.027 115.205 225.401 114.943C225.634 114.778 225.829 114.621 225.829 114.583C225.829 114.553 225.776 114.463 225.716 114.381C225.634 114.276 225.604 114.044 225.604 113.594C225.604 113.242 225.641 112.74 225.686 112.47C225.746 112.088 225.739 111.855 225.641 111.383C225.581 111.053 225.536 110.649 225.544 110.484C225.551 110.319 225.551 109.982 225.544 109.734C225.536 109.397 225.484 109.21 225.341 108.985C225.184 108.745 225.049 108.648 224.644 108.49C224.367 108.378 223.902 108.213 223.618 108.116C223.325 108.018 222.981 107.846 222.838 107.718C222.703 107.591 222.538 107.396 222.486 107.276C222.426 107.164 222.381 107.014 222.381 106.939C222.374 106.872 222.419 106.774 222.471 106.722C222.524 106.669 222.771 106.594 223.018 106.549C223.265 106.504 223.708 106.422 223.992 106.362C224.277 106.302 224.937 106.197 225.454 106.13C225.971 106.062 226.578 105.942 226.803 105.86C227.028 105.77 227.387 105.605 227.59 105.493C227.8 105.373 228.287 105.013 228.684 104.698C229.081 104.376 229.726 103.949 230.108 103.746C230.497 103.544 231.12 103.184 231.487 102.952C231.854 102.712 232.349 102.427 232.573 102.315C232.798 102.203 233.143 102 233.338 101.873C233.525 101.745 233.9 101.521 234.155 101.378C234.409 101.236 234.867 100.891 235.174 100.606C235.504 100.307 235.721 100.044 235.721 99.9543C235.721 99.8644 235.871 99.692 236.118 99.5122C236.328 99.3473 236.598 99.1225 236.703 99.0025C236.83 98.8677 237.003 98.7702 237.227 98.7328C237.407 98.7028 237.744 98.5904 237.969 98.4779C238.269 98.3431 238.434 98.3056 238.569 98.343C238.674 98.373 239.026 98.403 239.356 98.4105C239.94 98.418 239.963 98.4105 240.255 98.1482C240.42 98.0058 240.637 97.8259 240.742 97.7585C240.87 97.6686 241.139 97.6161 241.589 97.5936C241.986 97.5711 242.256 97.5861 242.279 97.6311C242.301 97.6836 242.833 97.691 243.8 97.6536L245.276 97.6086C246.85 98.3356 247.202 98.4555 247.435 98.4555C247.607 98.4555 247.899 98.403 248.087 98.343C248.274 98.2756 248.476 98.1632 248.536 98.0807C248.596 97.9983 248.851 97.8559 249.098 97.766C249.503 97.6236 249.675 97.6011 250.77 97.6161C251.699 97.6311 251.984 97.6086 251.984 97.5337C251.984 97.4887 251.766 97.2264 251.512 96.9566C251.353 96.7887 251.003 96.4236 250.602 96.0055C250.394 95.7885 250.173 95.5573 249.957 95.332L249.848 95.2179L248.649 93.9739C248.244 94.1462 247.742 94.4235 247.27 94.7008L246.415 95.1954C245.883 95.0381 245.561 94.8732 245.359 94.7233C245.156 94.5734 244.932 94.3561 244.857 94.2362C244.767 94.1163 244.684 93.779 244.639 93.3743C244.594 93.0146 244.467 92.3701 244.347 91.9354C244.235 91.5007 244.04 90.9836 243.92 90.7813C243.8 90.5714 243.613 90.3091 243.5 90.1967C243.32 90.0169 243.23 89.9869 242.878 89.9869C242.601 89.9869 242.069 90.1068 241.214 90.3691C240.517 90.5789 239.738 90.7963 239.468 90.8562C239.198 90.9087 238.846 90.9611 238.681 90.9611C238.516 90.9611 238.217 90.9162 238.007 90.8562C237.804 90.7963 237.55 90.6614 237.445 90.564C237.34 90.4665 237.175 90.2192 237.07 90.0169C236.965 89.8145 236.74 89.3948 236.56 89.0876C236.268 88.563 236.231 88.4506 236.103 87.4763C236.021 86.8992 235.938 86.1423 235.908 85.7901C235.871 85.3104 235.886 85.1231 235.961 85.0257C236.013 84.9582 236.298 84.7634 236.583 84.606C236.868 84.4411 237.152 84.2388 237.205 84.1488C237.287 83.9989 237.235 83.9465 236.418 83.3319C235.931 82.9722 235.062 82.3352 234.484 81.923C233.907 81.5108 232.963 80.8513 232.386 80.4616C231.809 80.0719 230.812 79.4124 230.175 79.0002C229.538 78.5805 228.459 77.9061 227.777 77.4939C227.095 77.0817 226.106 76.4971 225.566 76.1824C225.027 75.8751 224.037 75.3205 223.355 74.9458C222.673 74.5711 221.564 73.979 220.882 73.6268C220.2 73.2746 218.889 72.6226 217.959 72.1879C217.03 71.7457 215.516 71.0563 214.587 70.6516C213.658 70.2469 212.174 69.6323 211.29 69.2801C210.405 68.9279 209.311 68.5007 208.854 68.3358C208.397 68.1709 207.947 68.0285 207.842 68.0285C207.737 68.0285 207.288 68.1784 206.83 68.3658C206.373 68.5531 205.751 68.8454 205.444 69.0103C205.137 69.1752 204.68 69.46 204.432 69.6473C204.185 69.8347 203.818 70.0745 203.623 70.1869L203.263 70.3893L203.278 71.4385C202.274 72.4052 202.146 72.5701 202.146 72.7275C202.154 72.8474 202.229 73.1172 202.319 73.342C202.469 73.7092 202.514 73.7542 202.881 73.8816C203.091 73.9565 203.293 74.084 203.316 74.1514C203.346 74.2263 203.346 74.3612 203.316 74.4512C203.293 74.5486 203.113 74.736 202.918 74.8784C202.716 75.0207 202.356 75.2381 202.109 75.3655C201.689 75.5828 201.599 75.5978 200.738 75.6128C200.056 75.6278 199.786 75.6128 199.726 75.5379C199.673 75.4854 199.561 75.4404 199.471 75.4479C199.374 75.4479 198.834 75.5978 198.272 75.7852C197.702 75.965 196.751 76.2498 196.151 76.4147C195.551 76.5796 194.592 76.8344 194.015 76.9768C193.438 77.1266 192.913 77.2915 192.846 77.344C192.779 77.3889 192.284 77.7637 191.759 78.1684C190.912 78.8054 190.763 78.8878 190.568 78.8578C190.395 78.8204 190.126 78.9103 189.444 79.2251C188.949 79.4499 188.222 79.7197 187.832 79.8321C187.443 79.937 186.866 80.0794 186.558 80.1394C186.251 80.1993 185.577 80.2967 185.059 80.3567C184.542 80.4166 184.123 80.4541 184.115 80.4466C184.111 80.4421 184.093 80.3837 184.066 80.2973C184.048 80.2396 184.027 80.1694 184.003 80.0944C183.943 79.907 183.845 79.7497 183.785 79.7347C183.725 79.7197 183.591 79.7721 183.486 79.8546C183.381 79.9295 183.066 80.3267 182.774 80.7389C182.489 81.1436 182.039 81.6982 181.777 81.968C181.507 82.2378 180.923 82.8748 180.465 83.3919L179.634 84.3287C178.877 84.4186 178.434 84.5085 178.165 84.591C177.895 84.6659 177.543 84.8308 177.378 84.9507C177.213 85.0706 177.041 85.2505 176.996 85.3479C176.943 85.4453 176.861 85.6402 176.808 85.7826C176.748 85.925 176.591 86.1123 176.441 86.2023C176.299 86.2997 175.961 86.4346 175.692 86.5245C175.422 86.607 174.867 86.7344 174.455 86.8018C173.915 86.8992 173.278 86.9367 172.207 86.9442L170.7 86.9517C169.794 86.5095 169.456 86.2622 169.239 86.0374C168.962 85.7451 168.857 85.5577 168.699 85.0406C168.594 84.6884 168.467 84.2537 168.43 84.0664C168.385 83.879 168.347 83.5867 168.347 83.4069C168.347 83.2345 168.43 82.7474 168.527 82.3202C168.624 81.9005 168.782 81.3384 168.879 81.0687C168.969 80.7989 169.104 80.4916 169.179 80.3717C169.261 80.2593 169.494 80.0869 169.696 79.982C169.906 79.8771 170.243 79.6747 170.446 79.5323C170.73 79.3375 170.835 79.2026 170.895 78.9852C170.933 78.8353 170.97 78.588 170.97 78.4456C170.97 78.3033 170.918 78.1009 170.843 77.996C170.723 77.8086 170.723 77.8011 171.015 77.5688C171.172 77.4339 171.39 77.2466 171.495 77.1491C171.6 77.0517 171.817 76.707 171.982 76.3847C172.184 75.98 172.349 75.7552 172.499 75.6727C172.611 75.6128 172.814 75.4929 172.949 75.4104C173.076 75.3205 173.293 75.0732 173.428 74.8484C173.563 74.6235 173.743 74.2488 173.825 74.024C173.908 73.7992 173.953 73.5519 173.93 73.4769C173.908 73.4095 173.84 73.3495 173.78 73.3495C173.691 73.3495 173.668 73.2521 173.668 72.8999C173.668 72.4952 173.691 72.4352 173.863 72.3153C173.975 72.2478 174.155 72.053 174.268 71.8881C174.388 71.7232 174.5 71.4834 174.53 71.3635C174.56 71.2361 174.545 70.9513 174.5 70.7265L174.41 70.3143L172.432 68.8304L169.681 67.9161C169.411 67.3915 169.254 66.9718 169.149 66.6421C169.044 66.3123 168.939 65.9226 168.917 65.7803C168.887 65.6004 168.917 65.428 169.022 65.2182C169.104 65.0533 169.164 64.9109 169.149 64.9034C169.142 64.8959 168.932 64.836 168.684 64.776C168.437 64.7086 168.032 64.6561 167.785 64.6561C167.538 64.6561 166.878 64.6936 166.324 64.7385C165.769 64.776 164.705 64.8959 163.963 65.0008C163.221 65.0983 162.419 65.1807 162.187 65.1807H161.752V63.532C162.651 62.7076 163.034 62.4378 163.176 62.3928C163.386 62.3254 163.566 62.3404 164.113 62.4678C164.488 62.5577 165.409 62.7001 166.174 62.79C166.938 62.8725 167.995 62.9399 168.534 62.9399C169.089 62.9399 169.794 62.8874 170.183 62.82C170.558 62.7525 171 62.6326 171.18 62.5502C171.435 62.4378 171.51 62.3554 171.57 62.123C171.607 61.9731 171.645 61.7858 171.645 61.7108C171.645 61.5984 171.547 61.5834 170.543 61.5984C169.928 61.6059 169.044 61.6209 168.572 61.6359ZM137.238 69.4525C137.471 69.2201 137.725 68.9953 137.808 68.9429C137.89 68.8979 138.16 68.8529 138.407 68.8529C138.73 68.8529 138.977 68.9054 139.269 69.0328C139.544 69.1527 139.756 69.3126 139.906 69.5124C140.041 69.6923 140.281 69.8871 140.498 69.9921C140.813 70.1419 140.978 70.1644 141.622 70.1569C142.229 70.1494 142.454 70.1195 142.754 69.9846C142.956 69.8946 143.219 69.8272 143.331 69.8272C143.451 69.8272 143.766 69.7597 144.043 69.6698C144.47 69.5349 144.583 69.5274 144.74 69.6098C144.845 69.6623 145.212 69.9921 145.564 70.3518C146.111 70.9139 146.276 71.0338 146.763 71.2361C147.044 71.3484 147.185 71.4046 147.33 71.4206C147.475 71.4367 147.625 71.4123 147.925 71.3635C148.255 71.3111 148.675 71.2286 148.862 71.1762C149.064 71.1237 149.371 71.1087 149.649 71.1387C149.896 71.1612 150.158 71.1986 150.226 71.2211C150.301 71.2361 150.391 71.3635 150.436 71.4909C150.473 71.6333 150.825 72.0905 151.268 72.5626C151.845 73.1921 152.107 73.417 152.377 73.5219C152.564 73.6043 153.044 73.7617 153.433 73.8816C153.823 74.009 154.183 74.1364 154.22 74.1814C154.265 74.2263 154.295 74.6985 154.295 76.3248L154.633 76.7594C154.82 76.9992 155.172 77.3964 155.419 77.6438C155.667 77.8911 156.094 78.2208 156.371 78.3782C156.701 78.5656 156.881 78.7154 156.881 78.7979C156.881 78.8728 156.828 79.1201 156.768 79.345C156.708 79.5698 156.611 79.8246 156.551 79.907C156.476 80.0194 156.274 80.0869 154.97 80.3267L154.558 80.1094C154.333 79.9895 153.943 79.7871 153.246 79.4274L152.759 79.5398C152.489 79.5998 152.197 79.6972 152.099 79.7571C151.965 79.8546 151.935 79.937 151.935 80.2593C151.935 80.4766 151.972 80.8738 152.017 81.1436C152.062 81.4134 152.159 81.8256 152.242 82.0579C152.317 82.2977 152.384 82.605 152.384 82.7324C152.384 82.8823 152.302 83.0921 152.174 83.2645C152.039 83.4593 151.905 83.5568 151.747 83.5792C151.716 83.5829 151.678 83.5875 151.637 83.5925C151.51 83.608 151.347 83.6279 151.223 83.6392C151.02 83.6542 150.743 83.5942 150.361 83.4444C150.053 83.3244 149.656 83.1746 149.476 83.1221C149.192 83.0247 149.147 83.0322 149.019 83.1446C148.944 83.2195 148.839 83.3994 148.712 83.8041L149.431 84.516C149.866 84.9432 150.136 85.2655 150.106 85.3179C150.083 85.3704 150.001 85.4154 149.926 85.4154C149.859 85.4154 149.731 85.4678 149.649 85.5278C149.566 85.5952 149.342 85.6402 149.139 85.6402C148.944 85.6402 148.525 85.5877 148.202 85.5203C147.888 85.4528 147.453 85.3179 147.251 85.213C147.041 85.1081 146.651 84.8758 146.366 84.6959C146.089 84.516 145.662 84.1638 145.414 83.9165C145.107 83.6092 144.965 83.4069 144.965 83.2795C144.965 83.1746 144.897 82.9123 144.815 82.6949C144.74 82.4851 144.56 82.2003 144.433 82.0804C144.305 81.953 144.081 81.6082 143.946 81.3085C143.803 81.0162 143.691 80.7164 143.691 80.6565C143.691 80.5965 143.773 80.4166 143.878 80.2593C143.976 80.1094 144.103 79.9145 144.163 79.8321C144.215 79.7497 144.478 79.5473 145.227 79.0902L146.426 79.1876C147.236 79.2475 147.865 79.255 148.375 79.2101C148.832 79.1726 149.259 79.0827 149.461 78.9927C149.799 78.8428 149.799 78.8428 149.799 78.4756C149.791 78.2733 149.746 77.966 149.686 77.7936C149.626 77.6213 149.551 77.4939 149.514 77.5163C149.484 77.5313 149.446 77.5089 149.424 77.4714C149.401 77.4264 149.252 77.329 149.087 77.2466C148.922 77.1641 148.727 77.0967 148.652 77.0967C148.585 77.0967 148.27 76.9243 147.963 76.707C147.655 76.4896 147.251 76.1599 147.063 75.9725C146.876 75.7852 146.471 75.298 146.164 74.8933C145.707 74.2938 145.489 74.084 145.002 73.7617C144.673 73.5444 144.253 73.2896 144.066 73.1921C143.758 73.0273 143.638 73.0123 142.791 73.0198C141.892 73.0273 141.832 73.0347 141.383 73.2596C141.128 73.3945 140.723 73.5519 140.491 73.6193C140.345 73.6569 140.249 73.6819 140.151 73.6888C139.956 73.7024 139.755 73.644 139.157 73.4694C138.662 73.327 138.22 73.2371 138.182 73.2671C138.145 73.2971 137.733 73.3195 137.283 73.312C137.094 73.3089 136.867 73.3057 136.639 73.3026C136.326 73.2982 136.012 73.2939 135.799 73.2896L135.798 73.2895C135.155 73.2746 135.147 73.2744 134.788 72.9748C134.593 72.8099 134.405 72.6151 134.368 72.5401C134.33 72.4727 134.3 72.3228 134.308 72.2029C134.315 72.068 134.45 71.8656 134.705 71.6033C134.907 71.3935 135.125 71.1012 135.17 70.9663C135.222 70.8164 135.312 70.7265 135.387 70.7265C135.462 70.7265 135.612 70.6516 135.724 70.5541C135.844 70.4567 136.137 70.2693 136.376 70.127C136.624 69.9846 137.013 69.6773 137.238 69.4525ZM223.378 92.3101C223.468 91.8829 223.588 91.4858 223.633 91.4333C223.685 91.3808 223.775 91.3583 223.82 91.3733C223.872 91.3958 223.977 91.5157 224.052 91.6506C224.127 91.7855 224.36 92.0104 224.929 92.3851V93.4343C224.929 94.2811 224.952 94.5359 225.057 94.7458C225.191 95.008 225.199 95.0081 226.165 95.0156L226.166 95.0156L226.743 96.3795C227.058 97.129 227.365 97.8934 227.417 98.0733C227.5 98.3505 227.672 98.5529 228.452 99.2873C228.969 99.7745 229.516 100.262 229.666 100.382C229.823 100.494 229.95 100.606 229.95 100.629C229.958 100.651 229.771 100.801 229.118 101.266L229.126 102.615L228.714 102.817C228.332 103.012 228.234 103.027 227.365 103.027C226.848 103.027 226.173 103.079 225.843 103.139C225.529 103.199 225.012 103.274 224.704 103.297C224.315 103.327 223.962 103.424 223.543 103.597C222.988 103.836 222.891 103.851 222.156 103.851C221.444 103.844 221.384 103.836 221.519 103.731C221.602 103.672 221.931 103.454 222.246 103.252C222.568 103.042 222.868 102.802 222.913 102.705C222.966 102.615 223.041 102.517 223.086 102.487C223.131 102.457 223.22 102.442 223.28 102.457C223.323 102.474 223.412 102.493 223.506 102.514L223.508 102.515C223.545 102.523 223.582 102.531 223.618 102.54C223.828 102.577 223.872 102.547 224.195 102.135C224.397 101.88 224.569 101.633 224.592 101.581C224.614 101.528 224.465 101.393 224.217 101.243C223.887 101.049 223.723 101.004 222.981 101.004V98.9051H223.393C223.798 98.9051 223.805 98.9051 223.805 98.6803C223.805 98.4558 223.812 98.4555 224.663 98.4182L224.667 98.418L224.704 96.2446L224.457 95.9374C224.292 95.7125 224.037 95.5327 222.981 95.0081V94.6484C222.981 94.4535 223.033 94.0263 223.101 93.6966C223.161 93.3668 223.288 92.7448 223.378 92.3101ZM211.904 95.795L210.765 96.5819H208.929C208.487 97.4812 208.374 97.7435 208.382 97.751C208.392 97.751 208.566 97.7732 208.812 97.8047L208.813 97.8049C208.916 97.8181 209.032 97.8329 209.154 97.8484C209.731 97.9234 210.023 98.0058 210.405 98.2007L210.915 98.4555H214.699L215.224 97.5636C215.988 97.5262 216.273 97.4437 216.61 97.2789C216.91 97.1365 217.232 96.8966 217.45 96.6643C217.757 96.3421 217.795 96.2671 217.705 96.1847C217.645 96.1397 217.585 96.0273 217.57 95.9449C217.547 95.8025 217.487 95.795 216.086 95.795C214.909 95.795 214.572 95.7725 214.362 95.6751C214.22 95.6076 213.958 95.4278 213.778 95.2779C213.583 95.113 213.388 95.0081 213.253 95.0081C213.118 95.0081 212.683 95.2629 211.904 95.795ZM151.845 104.451C152.122 104.099 152.512 103.619 152.714 103.379C152.924 103.147 153.119 102.952 153.149 102.952C153.179 102.952 153.209 103.147 153.209 103.379C153.209 103.619 153.246 104.114 153.291 104.488C153.328 104.856 153.433 105.305 153.516 105.478C153.598 105.672 153.786 105.89 153.973 106.025C154.153 106.152 154.475 106.302 154.685 106.362C154.902 106.422 155.18 106.474 155.307 106.474C155.399 106.474 155.453 106.474 155.484 106.501C155.528 106.54 155.523 106.636 155.509 106.872C155.502 107.156 155.434 107.374 155.27 107.636C155.135 107.853 154.91 108.086 154.707 108.213C154.52 108.325 154.183 108.453 153.958 108.498C153.643 108.558 153.448 108.55 153.134 108.468C152.909 108.408 152.504 108.243 152.234 108.093C151.807 107.861 151.687 107.823 151.223 107.823C150.93 107.823 150.496 107.883 150.248 107.951C150.001 108.018 149.559 108.078 149.274 108.078C148.952 108.086 148.652 108.041 148.495 107.973C148.36 107.913 148.21 107.801 148.18 107.726C148.142 107.651 148.142 107.539 148.187 107.449C148.225 107.366 148.427 107.171 148.622 107.014C148.817 106.864 149.297 106.564 149.686 106.362C150.113 106.137 150.586 105.807 150.87 105.538C151.14 105.29 151.575 104.803 151.845 104.451ZM236.336 117.056C236.088 117.566 235.826 118.166 235.766 118.39C235.699 118.615 235.616 119.327 235.571 119.964C235.555 120.242 235.534 120.565 235.514 120.877L235.514 120.88L235.514 120.882C235.488 121.285 235.464 121.668 235.451 121.913C235.421 122.422 235.429 122.849 235.489 123.112C235.541 123.337 235.639 123.584 235.706 123.659C235.773 123.734 235.908 123.794 235.998 123.786C236.096 123.786 236.261 123.741 236.373 123.681C236.493 123.629 236.71 123.442 236.86 123.269C237.017 123.104 237.175 122.834 237.22 122.677C237.257 122.527 237.295 121.965 237.295 121.426C237.295 120.691 237.325 120.376 237.415 120.152C237.482 119.987 237.797 119.582 238.119 119.252C238.434 118.922 238.749 118.57 238.816 118.465C238.891 118.36 238.944 118.136 238.944 117.956C238.944 117.783 238.891 117.543 238.831 117.416C238.771 117.289 238.629 117.146 238.509 117.086C238.396 117.026 238.134 116.936 237.932 116.884C237.722 116.839 237.467 116.749 237.347 116.697C237.235 116.637 237.085 116.487 237.01 116.367C236.943 116.239 236.86 116.142 236.838 116.142C236.815 116.142 236.59 116.554 236.336 117.056ZM100.598 149.799C101.026 149.567 101.52 149.319 101.685 149.252C101.85 149.184 102.052 149.14 102.135 149.162C102.166 149.168 102.25 149.182 102.368 149.202L102.37 149.202C102.565 149.235 102.853 149.283 103.147 149.334C103.619 149.417 104.256 149.522 104.548 149.567C104.848 149.604 105.305 149.739 105.56 149.851C106.009 150.054 106.047 150.061 106.407 149.964C106.609 149.904 106.954 149.874 107.171 149.881C107.471 149.896 107.606 149.949 107.771 150.106C107.883 150.226 108.145 150.399 108.355 150.503C108.557 150.608 108.947 150.841 109.217 151.021C109.487 151.2 109.802 151.448 109.929 151.575C110.056 151.695 110.409 152.077 110.723 152.422C111.188 152.939 111.375 153.089 112.29 153.501V154.176L111.555 154.168C110.963 154.161 110.738 154.123 110.341 153.966C110.071 153.861 109.464 153.606 108.992 153.404C108.52 153.201 107.756 152.864 107.306 152.654C106.856 152.452 106.294 152.197 106.069 152.092C105.845 151.987 105.148 151.658 103.409 150.826L102.824 150.871C102.51 150.893 102.165 150.946 102.06 150.991C101.955 151.028 101.55 151.066 101.161 151.066C100.771 151.066 100.231 151.013 99.9615 150.953L99.9614 150.953C99.6622 150.884 99.5468 150.857 99.5023 150.786C99.4743 150.742 99.4743 150.68 99.4743 150.578C99.4743 150.369 99.5118 150.309 99.6392 150.271C99.7366 150.241 100.164 150.031 100.598 149.799ZM116.359 154.183L116.112 154.213C116.157 154.88 116.209 155.21 116.269 155.375C116.359 155.66 116.352 155.69 116.142 155.959C116.022 156.124 115.782 156.334 115.602 156.431C115.43 156.529 115.078 156.641 114.815 156.686C114.56 156.724 114.201 156.806 114.013 156.859C113.826 156.919 113.669 157.009 113.654 157.054C113.646 157.113 113.908 157.136 114.538 157.136C115.212 157.136 115.497 157.106 115.677 157.016C115.902 156.904 115.939 156.904 116.127 157.016C116.247 157.083 116.479 157.136 116.651 157.136C116.831 157.136 117.161 157.098 117.386 157.054C117.611 157.009 118.285 156.964 118.885 156.956L119.971 156.949C120.706 156.506 121.088 156.357 121.47 156.274C121.8 156.199 122.25 156.072 122.467 155.982C122.684 155.899 122.857 155.809 122.857 155.787C122.857 155.764 122.759 155.697 122.647 155.637C122.512 155.562 122.422 155.435 122.384 155.277C122.34 155.06 122.317 155.045 122.19 155.127C122.062 155.21 121.89 155.18 121.08 154.91C120.556 154.738 119.964 154.58 119.761 154.558C119.567 154.535 119.184 154.423 118.9 154.318C118.547 154.176 118.39 154.146 118.36 154.213C118.33 154.273 118.158 154.288 117.76 154.258C117.453 154.236 117.064 154.206 116.899 154.183C116.734 154.168 116.486 154.168 116.352 154.183H116.359Z" fill="white"/>
<path d="M64.1986 147.034C64.1537 147.251 63.9288 148.36 63.704 149.492C63.4717 150.623 63.1794 152.175 63.0595 152.939C62.9321 153.704 62.7672 154.798 62.6848 155.375C62.6023 155.952 62.4824 156.829 62.4225 157.323C62.355 157.818 62.2351 158.86 62.1527 159.647C62.0702 160.433 61.9578 161.745 61.8904 162.569C61.8304 163.394 61.7405 164.863 61.6955 165.829C61.6431 166.796 61.6056 169.127 61.6056 171C61.6056 172.874 61.6431 175.205 61.6955 176.172C61.7405 177.138 61.8304 178.607 61.8979 179.432C61.9578 180.256 62.0777 181.575 62.1602 182.354C62.2426 183.134 62.355 184.183 62.4225 184.678C62.4824 185.172 62.6023 186.049 62.6848 186.626C62.7672 187.203 62.9321 188.297 63.0595 189.062C63.1869 189.826 63.4192 191.138 63.5841 191.985C63.749 192.831 64.0337 194.195 64.2211 195.02C64.4085 195.844 64.7082 197.126 64.8956 197.868C65.083 198.609 65.3527 199.636 65.5026 200.153C65.645 200.67 66.0272 201.967 66.3495 203.039C66.6792 204.11 67.0914 205.422 67.2788 205.961C67.4587 206.501 67.7135 207.22 67.8409 207.573C67.9608 207.925 68.2306 208.667 68.4329 209.221C68.6428 209.776 69.0549 210.84 69.3472 211.582C69.647 212.324 70.2166 213.688 70.6213 214.617C71.0259 215.547 71.7004 217.031 72.1201 217.915C72.5398 218.799 73.1843 220.118 73.559 220.838C73.9337 221.557 74.4583 222.554 74.7281 223.048C74.9979 223.543 75.4851 224.42 75.8148 224.997C76.1446 225.574 76.6842 226.503 77.0139 227.058C77.3437 227.612 77.9057 228.527 78.258 229.081C78.6027 229.636 79.2022 230.565 79.5845 231.142C79.9513 231.696 80.4769 232.478 80.777 232.924L80.8135 232.978C81.1133 233.413 81.6454 234.17 81.9976 234.665C82.3499 235.159 83.0618 236.119 83.5789 236.801C84.0885 237.482 84.9654 238.614 85.5274 239.311C86.0895 240.008 87.1387 241.275 87.8582 242.121C88.5851 242.968 89.7168 244.25 90.3763 244.969C91.0283 245.689 92.4972 247.21 93.6288 248.342C94.7604 249.473 96.2818 250.942 97.0012 251.594C97.7207 252.254 99.0022 253.385 99.8491 254.112C100.696 254.832 101.962 255.881 102.659 256.443C103.356 257.005 104.421 257.83 105.02 258.287C105.62 258.736 106.527 259.411 107.044 259.786C107.561 260.153 108.25 260.64 108.58 260.872C108.91 261.097 109.787 261.689 110.528 262.184C111.27 262.678 112.417 263.42 113.077 263.833C113.736 264.245 114.965 264.987 115.812 265.481C116.659 265.976 117.94 266.703 118.66 267.093C119.379 267.482 120.458 268.059 121.058 268.374C121.658 268.681 122.917 269.311 123.868 269.761C124.82 270.21 126.334 270.907 127.241 271.297C128.148 271.694 128.935 272.024 128.987 272.024C129.032 272.024 129.077 271.979 129.077 271.926C129.077 271.881 129.047 271.806 129.017 271.761C128.979 271.717 128.83 271.402 128.687 271.05C128.537 270.697 128.342 270.173 128.253 269.888C128.11 269.453 128.073 269.116 128.035 267.939C127.998 266.8 127.96 266.463 127.855 266.268C127.788 266.141 127.488 265.833 127.188 265.594C126.896 265.361 126.282 264.844 125.824 264.447C125.367 264.05 124.415 263.128 123.718 262.394C122.692 261.329 122.429 261.007 122.362 260.76C122.31 260.587 122.175 260.205 122.047 259.92C121.927 259.636 121.777 259.194 121.725 258.946C121.673 258.691 121.635 258.054 121.635 257.485C121.635 256.878 121.71 255.986 121.807 255.274C121.92 254.442 121.987 253.535 122.01 252.314C122.04 250.987 122.017 250.245 121.927 249.316C121.86 248.634 121.68 247.255 121.538 246.243C121.395 245.232 121.215 244.167 121.14 243.883C121.066 243.598 120.909 243.022 120.796 242.61L120.796 242.609C120.593 241.859 120.593 241.852 120.638 239.911C120.661 238.764 120.728 237.625 120.796 237.138C120.863 236.681 121.006 236.059 121.118 235.751C121.298 235.257 121.32 235.084 121.313 234.327C121.313 233.855 121.275 233.286 121.223 233.068C121.163 232.799 121.133 231.629 121.133 229.171L121.14 225.671C120.653 224.51 120.211 223.258 119.844 222.149C119.477 221.04 119.05 219.856 118.892 219.526C118.727 219.196 118.502 218.837 118.39 218.724C118.344 218.681 118.274 218.615 118.192 218.538C118.125 218.474 118.049 218.403 117.972 218.33C117.929 218.29 117.887 218.25 117.845 218.211C117.814 218.182 117.783 218.153 117.753 218.125C117.528 217.907 116.749 217.113 116.029 216.356C114.898 215.164 114.718 215.007 114.673 215.134C114.635 215.224 114.598 215.292 114.575 215.292C114.553 215.292 114.201 215.119 113.789 214.917C113.376 214.707 113.017 214.542 112.987 214.542C112.949 214.535 112.717 214.385 112.462 214.205C112.2 214.018 112.005 213.838 112.027 213.793C112.05 213.748 112.027 213.643 111.975 213.546C111.93 213.456 111.503 212.976 111.031 212.481C110.289 211.702 110.124 211.477 109.794 210.81C109.577 210.383 109.217 209.791 108.992 209.484C108.767 209.184 108.25 208.569 107.838 208.12C107.433 207.678 107.006 207.175 106.894 207.011C106.781 206.846 106.392 206.134 106.032 205.437C105.763 204.916 105.423 204.245 105.168 203.741L105.168 203.741C105.082 203.571 105.006 203.42 104.945 203.301C104.705 202.829 104.421 202.169 104.308 201.84C104.21 201.552 104.072 201.115 103.974 200.805L103.933 200.678C103.784 200.176 103.656 199.973 102.779 198.819L101.798 197.53C102.03 196.571 102.165 195.927 102.247 195.469C102.33 195.012 102.405 194.375 102.412 194.045C102.427 193.461 102.42 193.438 102.112 192.959L101.79 192.472V189.174C103.918 186.574 104.121 186.274 104.585 185.352C104.878 184.775 105.53 183.531 106.032 182.579C106.534 181.627 107.186 180.383 107.471 179.806C107.763 179.229 108.085 178.532 108.198 178.247C108.325 177.918 108.393 177.603 108.393 177.311C108.393 177.078 108.325 176.644 108.235 176.359C108.145 176.074 107.988 175.632 107.875 175.385C107.696 174.972 107.643 174.92 107.306 174.793C107.014 174.68 106.826 174.658 106.482 174.695C106.234 174.718 105.762 174.823 105.432 174.927C104.968 175.077 104.78 175.107 104.608 175.055C104.494 175.015 103.643 174.755 102.627 174.444L102.624 174.443L102.247 174.328C101.071 173.976 100.029 173.638 99.924 173.586C99.8191 173.534 99.302 173.181 98.7624 172.799C98.3749 172.525 97.6434 171.987 96.9094 171.448L96.9077 171.447L96.9062 171.446C96.6191 171.235 96.3317 171.024 96.0644 170.828C95.1127 170.124 93.299 168.767 92.0175 167.808C90.7435 166.856 89.1247 165.694 88.4202 165.23C87.7233 164.765 87.0338 164.278 86.8989 164.151C86.7565 164.023 86.6141 163.858 86.5766 163.783C86.5392 163.716 86.4567 163.371 86.3968 163.019C86.3368 162.667 86.2169 162.202 86.1345 161.985C86.0595 161.775 85.9246 161.535 85.8347 161.46C85.6923 161.34 85.6773 161.34 85.5799 161.498C85.5199 161.595 85.43 161.82 85.385 162.007C85.3401 162.195 85.2502 162.419 85.1902 162.509C85.1153 162.637 85.0103 162.682 84.823 162.682C84.6806 162.682 83.9611 162.502 83.2342 162.277C82.8036 162.15 82.038 161.917 81.2034 161.662L81.1964 161.66L81.1922 161.659C80.6067 161.481 79.9877 161.292 79.4271 161.123C78.0706 160.711 76.6167 160.261 76.212 160.119C75.7998 159.984 75.4476 159.826 75.4251 159.766C75.3876 159.684 75.4326 159.669 75.6275 159.706C75.7698 159.736 75.8673 159.729 75.8673 159.684C75.8673 159.647 75.56 159.452 75.1853 159.249C74.8031 159.054 74.0986 158.642 73.6115 158.335C73.1244 158.028 72.1801 157.398 71.5056 156.941C70.8311 156.491 70.0667 156.027 69.7969 155.922C69.5271 155.809 68.9875 155.592 68.5978 155.442C68.2081 155.292 67.7884 155.097 67.6685 155.008C67.5411 154.925 67.3837 154.715 67.3088 154.55C67.2338 154.386 67.1739 154.123 67.1739 153.966C67.1739 153.816 67.2563 153.426 67.3612 153.104C67.4587 152.789 67.691 152.287 67.8708 152.002L68.1931 151.478C66.6193 149.499 65.7724 148.413 65.3003 147.791C64.8281 147.161 64.401 146.651 64.356 146.651C64.311 146.644 64.2361 146.824 64.1986 147.034Z" fill="white"/>
</g>
</g>
<defs>
<filter id="filter0_d_14_61" x="-10.3944" y="-10.4064" width="356.996" height="362.771" filterUnits="userSpaceOnUse" color-interpolation-filters="sRGB">
<feFlood flood-opacity="0" result="BackgroundImageFix"/>
<feColorMatrix in="SourceAlpha" type="matrix" values="0 0 0 0 0 0 0 0 0 0 0 0 0 0 0 0 0 0 127 0" result="hardAlpha"/>
<feOffset/>
<feGaussianBlur stdDeviation="36"/>
<feComposite in2="hardAlpha" operator="out"/>
<feColorMatrix type="matrix" values="0 0 0 0 0 0 0 0 0 0 0 0 0 0 0 0 0 0 0.25 0"/>
<feBlend mode="normal" in2="BackgroundImageFix" result="effect1_dropShadow_14_61"/>
<feBlend mode="normal" in="SourceGraphic" in2="effect1_dropShadow_14_61" result="shape"/>
</filter>
<linearGradient id="paint0_linear_14_61" x1="-141.5" y1="-198.5" x2="341" y2="341" gradientUnits="userSpaceOnUse">
<stop stop-color="#3E72B7"/>
<stop offset="1" stop-color="#1C3351"/>
</linearGradient>
<clipPath id="clip0_14_61">
<rect width="341" height="341" fill="white"/>
</clipPath>
</defs>
</svg>
