<svg width="192" height="192" viewBox="0 0 192 192" fill="none" xmlns="http://www.w3.org/2000/svg">
<path d="M79.8641 190.494C58.4515 188.98 43.1039 184.514 30.2301 176.052C16.4521 166.996 6.93903 150.04 3.23235 127.931C1.51833 117.708 0.97229 109.739 1.00107 95.3749C1.05247 69.8796 3.78817 54.0812 10.6775 39.5C17.2889 25.507 25.5739 17.2167 39.4783 10.6808C54.2478 3.73821 70.2337 1 95.9953 1C121.757 1 137.743 3.73821 152.512 10.6808C166.404 17.211 174.634 25.4402 181.334 39.5C188.169 53.8448 190.937 69.844 190.999 95.3749C191.075 126.436 186.923 145.115 176.35 161.286C166.477 176.388 148.497 185.963 123.79 189.276C110.91 191.003 93.7794 191.478 79.8641 190.494Z" fill="url(#paint0_linear_108_194)"/>
<path d="M52.0433 84.3143H65.2159V89.5109L65.5012 89.0797C66.3252 87.8342 67.3422 86.8223 68.6449 85.9519C70.3439 84.8166 72.1751 84.1765 74.4187 83.9336C75.573 83.8085 77.0801 83.8238 78.2803 83.9725C82.2054 84.4591 85.8922 86.6398 88.3195 89.9105C89.7293 91.8102 90.8539 94.1926 91.4894 96.6256C92.7015 101.267 92.5001 107.137 90.9822 111.407C89.371 115.939 86.6309 119.189 82.8456 121.057C80.7759 122.079 78.692 122.548 76.2232 122.548C74.5763 122.548 73.3076 122.384 71.9779 122C70.01 121.432 68.3978 120.476 66.9256 119.007C66.2827 118.365 65.9149 117.926 65.4865 117.289L65.234 116.914L65.2157 140.134H52.0432L52.0433 84.3143ZM73.4648 110.887C74.7476 110.613 75.8155 110.019 76.7568 109.057C77.9161 107.871 78.5551 106.459 78.81 104.521C78.8931 103.889 78.8921 102.426 78.8082 101.782C78.6268 100.388 78.184 99.1608 77.5315 98.2442C77.0728 97.5997 76.2843 96.8392 75.6277 96.4078C73.7334 95.1633 71.0884 95.0333 69.0218 96.0831C67.2639 96.976 66.0511 98.5198 65.5389 100.516C65.0688 102.348 65.1282 104.66 65.6897 106.385C66.4348 108.673 68.2804 110.377 70.54 110.862C71.1332 110.989 71.3317 111.005 72.1992 110.992C72.9225 110.981 73.0853 110.967 73.4648 110.887ZM30.1732 95.0502H43.021V122.761H30.1732V95.0502ZM114.297 122.611C108.527 122.298 103.573 119.93 100.346 115.942C98.1271 113.2 96.8017 109.99 96.3461 106.258C96.2152 105.185 96.1989 104.846 96.1992 103.211C96.1994 101.44 96.2291 100.963 96.4182 99.6825C97.0367 95.495 98.7569 92.0302 101.618 89.21C101.952 88.8804 102.372 88.4871 102.55 88.336C106.162 85.2816 110.868 83.742 116.246 83.855C117.618 83.8838 118.553 83.9687 119.747 84.1726C123.271 84.7749 126.491 86.2625 129.06 88.4744C131.39 90.4806 133.303 93.3897 134.302 96.4468C135.067 98.7867 135.411 101.426 135.301 104.116C135.17 107.337 134.544 109.944 133.298 112.454C131.524 116.027 128.951 118.645 125.467 120.422C122.2 122.088 118.399 122.833 114.297 122.611ZM116.849 111.047C117.637 110.902 118.368 110.601 119.054 110.139C119.416 109.896 120.112 109.247 120.392 108.892C121.371 107.649 121.885 106.125 122.024 104.045C122.191 101.542 121.644 99.2269 120.546 97.7898C119.252 96.0978 117.548 95.273 115.506 95.3511C113.998 95.4088 112.753 95.9365 111.689 96.9687C110.938 97.6968 110.464 98.4253 110.097 99.412C109.408 101.264 109.311 104.141 109.862 106.327C110.091 107.235 110.41 107.969 110.881 108.67C111.171 109.101 111.937 109.871 112.367 110.163C113.139 110.687 113.976 110.997 114.947 111.117C115.378 111.17 116.384 111.133 116.849 111.047ZM154.981 121.525C147.492 121.154 143.272 117.512 142.303 110.585C142.102 109.15 142.11 109.494 142.096 101.298L142.084 93.7082H137.611V83.8428H142.086L142.104 75.9214L148.474 75.114C151.977 74.6699 154.888 74.306 154.943 74.3052L155.042 74.3037V83.8427H161.755V93.7082H155.042L155.042 100.518C155.043 104.582 155.057 107.525 155.078 107.818C155.179 109.225 155.646 109.875 156.764 110.16C157.28 110.291 157.846 110.32 159.919 110.32H161.827V121.564L158.678 121.558C156.946 121.555 155.283 121.54 154.981 121.525Z" fill="white"/>
<path d="M52.0433 52.6143V61.8994C52.0433 67.0062 52.0503 71.1845 52.0585 71.1845C52.0768 71.1845 69.6504 52.9938 69.8475 52.7708L69.9859 52.6143H52.0433Z" fill="#29AEE6"/>
<path d="M30.1732 74.9203V84.2055C30.1732 89.3123 30.1801 93.4906 30.1884 93.4906C30.2067 93.4906 47.7803 75.2999 47.9773 75.0769L48.1157 74.9203H30.1732Z" fill="#BF3333"/>
<defs>
<linearGradient id="paint0_linear_108_194" x1="96" y1="1" x2="96" y2="191" gradientUnits="userSpaceOnUse">
<stop stop-color="#293475"/>
<stop offset="1" stop-color="#192049"/>
</linearGradient>
</defs>
</svg>
