<svg width="341" height="341" viewBox="0 0 341 341" fill="none" xmlns="http://www.w3.org/2000/svg">
<g clip-path="url(#clip0_1_13)">
<rect width="341" height="341" fill="url(#paint0_linear_1_13)"/>
<g filter="url(#filter0_d_1_13)">
<path d="M233.68 209.575C233.142 207.355 232.469 205.001 232.267 204.328C231.93 203.319 232.132 203.118 233.344 203.319C234.555 203.454 235.093 204.194 235.632 206.346C235.968 207.893 236.506 209.306 236.775 209.507C237.112 209.709 238.256 208.431 239.333 206.548C240.678 204.306 241.8 203.185 242.697 203.185C244.043 203.185 244.043 203.252 242.563 205.741C241.688 207.153 239.333 210.92 237.314 214.148C234.488 218.52 233.276 219.933 232.065 220C230.585 220 230.585 219.933 234.689 213.61L233.68 209.575Z" fill="white"/>
<path fill-rule="evenodd" clip-rule="evenodd" d="M250.646 204.629C250.469 205.468 250.284 206.346 250.099 207.221C249.359 210.718 248.753 214.014 248.753 214.417C248.753 214.888 249.494 215.292 250.436 215.292C251.714 215.292 252.185 214.888 252.522 213.409C252.791 212.4 253.396 210.92 253.868 210.045C254.406 209.238 255.011 208.566 255.281 208.566C255.617 208.566 256.559 210.045 257.501 211.929L259.184 215.359C265.845 215.292 266.384 215.09 267.124 213.61C267.864 212.063 268.335 211.862 271.431 211.929C274.661 211.929 274.997 212.063 275.333 213.61C275.67 215.157 276.006 215.292 279.169 215.292H282.736C285.225 203.05 286.033 199.082 286.167 198.611C286.369 198.073 285.696 197.804 284.418 197.804C282.534 197.804 282.332 198.006 281.793 200.965C281.572 202.162 281.204 204.032 280.844 205.861C280.658 206.806 280.474 207.741 280.313 208.566C279.707 211.727 279.371 212.534 279.034 211.592C278.765 210.853 278.16 207.422 277.621 203.992L276.679 197.804C272.44 197.804 272.103 198.208 267.73 205.539C265.24 209.776 263.086 213.274 262.885 213.274C262.683 213.274 261.673 211.525 260.597 209.44L258.712 205.539L267.258 197.804C262.414 197.804 261.471 198.275 258.78 200.965C256.963 202.781 255.281 203.992 255.011 203.656C254.675 203.387 254.877 201.974 255.348 200.495L256.155 197.804C252.589 197.804 252.051 198.14 251.781 199.284V199.351C251.63 199.956 251.176 202.113 250.646 204.629ZM271.767 205.001C270.96 206.413 270.556 207.826 270.825 208.095C271.094 208.364 271.969 208.566 272.844 208.566C274.055 208.566 274.324 208.229 274.324 206.413C274.324 205.203 274.055 203.79 273.786 203.319C273.382 202.781 272.776 203.252 271.767 205.001Z" fill="white"/>
<path fill-rule="evenodd" clip-rule="evenodd" d="M220.558 204.732C219.683 208.835 218.876 212.938 218.741 213.745C218.54 214.955 218.809 215.292 219.818 215.292C220.558 215.292 221.164 214.888 221.164 214.417C221.164 213.812 221.298 213.812 221.971 214.485C222.442 214.955 223.99 215.292 225.336 215.292C227.22 215.292 228.297 214.821 229.575 213.409C230.921 212.063 231.325 210.853 231.325 208.566C231.325 206.548 230.921 205.135 230.114 204.328C229.239 203.454 228.162 203.185 226.345 203.319L223.788 203.521C224.259 197.67 224.125 197.132 223.183 197.132C222.308 197.132 221.77 198.679 220.558 204.665V204.732ZM223.519 206.413C222.779 207.153 222.308 208.499 222.375 209.642C222.375 210.718 222.913 212.063 223.519 212.601C224.394 213.409 224.865 213.476 226.211 212.736C227.153 212.332 228.229 211.122 228.566 210.045C229.104 208.633 229.037 207.893 228.229 206.682C227.691 205.875 226.682 205.203 225.942 205.203C225.269 205.203 224.192 205.741 223.519 206.413Z" fill="white"/>
<path d="M266.115 159.197C266.787 158.121 268.672 156.708 270.354 156.036C272.036 155.363 274.93 154.758 277.016 154.758C279.304 154.758 281.793 155.296 283.543 156.103C285.158 156.843 286.908 158.121 287.446 158.928C287.984 159.802 288.59 161.349 288.859 162.493C289.195 164.376 289.061 164.578 286.975 165.048C285.764 165.317 284.149 165.519 283.408 165.519C282.668 165.519 281.255 164.645 280.178 163.501C279.102 162.291 277.689 161.484 276.747 161.484C275.805 161.484 274.593 161.954 274.055 162.493C273.449 163.031 272.978 163.905 272.978 164.309C272.978 164.779 273.247 165.519 273.517 165.923C273.786 166.326 275.805 167.47 278.025 168.411C280.246 169.42 282.937 171.035 283.947 172.043C285.225 173.321 285.966 174.868 286.235 176.953C286.504 178.904 286.302 180.787 285.696 182.267C285.158 183.545 283.745 185.428 282.534 186.504C281.39 187.513 279.236 188.657 277.823 189.06C276.477 189.397 274.122 189.733 272.642 189.733C271.094 189.733 268.47 189.06 266.586 188.119C264.701 187.177 262.75 185.563 262.144 184.554C261.539 183.545 260.866 181.863 260.597 180.787C260.26 179.375 260.462 178.904 261.337 178.702C262.01 178.5 263.961 178.231 265.711 178.03C268.47 177.693 268.941 177.828 268.941 178.77C268.941 179.442 269.479 180.518 270.152 181.191C270.825 181.863 272.238 182.402 273.449 182.334C275.064 182.334 275.872 181.931 276.41 180.787C276.814 179.98 276.948 178.904 276.747 178.433C276.545 178.03 274.459 176.684 272.103 175.608C269.816 174.465 267.258 172.851 266.384 172.043C265.509 171.236 264.567 169.353 264.163 167.873C263.692 166.057 263.692 164.51 264.163 163.165C264.567 162.022 265.442 160.273 266.115 159.197Z" fill="white"/>
<path d="M239.198 159.197C239.871 158.121 241.755 156.708 243.437 156.036C245.12 155.363 248.013 154.758 250.099 154.758C252.387 154.758 254.877 155.296 256.626 156.103C258.241 156.843 260.126 158.39 260.866 159.6C261.606 160.811 262.212 162.425 262.212 163.165C262.212 164.107 261.606 164.645 260.058 165.048C258.847 165.317 257.232 165.519 256.492 165.519C255.752 165.519 254.339 164.645 253.262 163.501C252.253 162.358 250.772 161.484 249.897 161.484C249.09 161.484 247.879 162.022 247.206 162.694C246.533 163.3 245.994 164.376 246.062 164.981C246.062 165.788 247.744 166.999 251.243 168.68C255.011 170.497 256.963 171.909 258.04 173.59C258.914 175.003 259.52 176.953 259.52 178.433C259.52 179.846 259.116 181.796 258.578 182.805C258.107 183.881 256.828 185.428 255.752 186.37C254.675 187.312 252.589 188.522 251.109 188.993C249.561 189.531 246.869 189.8 244.716 189.598C242.428 189.397 240.005 188.657 238.391 187.648C236.708 186.639 235.295 185.025 234.488 183.343C233.815 181.863 233.276 180.249 233.276 179.778C233.276 179.375 233.815 178.837 234.42 178.702C235.093 178.5 237.045 178.231 238.794 178.03C241.553 177.693 242.024 177.828 242.024 178.77C242.024 179.442 242.563 180.518 243.235 181.191C243.841 181.863 245.254 182.402 246.398 182.402C247.475 182.402 248.821 181.931 249.224 181.325C249.695 180.787 250.032 179.778 249.897 179.106C249.83 178.433 247.879 177.021 245.254 175.608C242.697 174.33 240.073 172.649 239.333 171.909C238.592 171.169 237.718 169.353 237.381 167.873C237.045 166.394 237.045 164.309 237.314 163.165C237.65 162.022 238.458 160.273 239.198 159.197Z" fill="white"/>
<path fill-rule="evenodd" clip-rule="evenodd" d="M211.81 156.574C209.792 157.583 207.302 159.533 206.225 160.811C205.149 162.089 203.735 164.779 202.995 166.73C202.188 168.748 201.649 171.842 201.649 174.129C201.649 176.348 202.188 179.039 202.928 180.653C203.601 182.132 205.418 184.487 206.898 185.899C208.446 187.244 211.003 188.724 212.551 189.128C214.166 189.531 216.925 189.733 218.809 189.531C220.626 189.397 223.385 188.657 224.865 187.917C226.345 187.177 228.566 185.361 229.777 183.949L231.931 181.325C225.74 178.568 224.596 178.366 223.856 178.971C223.317 179.375 221.837 180.115 220.626 180.653C219.482 181.191 217.732 181.662 216.79 181.662C215.848 181.662 214.233 180.855 213.156 179.846C212.08 178.769 211.003 177.29 210.801 176.483L210.397 174.936C229.71 174.936 232.065 174.734 232.873 173.927C233.613 173.254 233.949 171.707 233.949 169.084C233.949 166.394 233.478 164.241 232.469 162.156C231.594 160.475 229.71 158.255 228.229 157.246C226.009 155.632 224.663 155.228 220.491 154.959C215.915 154.69 215.108 154.825 211.81 156.574ZM216.588 162.896C215.377 163.232 213.762 164.376 213.022 165.385C212.281 166.394 211.676 167.402 211.743 167.739C211.743 168.008 214.704 168.21 218.338 168.21C224.663 168.21 224.865 168.142 224.663 166.663C224.596 165.856 223.99 164.645 223.317 164.039C222.712 163.434 221.433 162.762 220.491 162.56C219.549 162.425 217.799 162.56 216.588 162.896Z" fill="white"/>
<path d="M178.299 156.91C179.309 156.372 180.991 155.699 182 155.363C183.01 155.094 185.499 154.825 187.518 154.825C190.075 154.758 192.296 155.228 194.584 156.305C196.401 157.179 198.554 158.726 199.361 159.869C200.169 160.946 201.111 162.829 202.322 166.192L199.294 166.864C197.612 167.268 195.593 167.537 194.718 167.537C193.911 167.537 192.498 166.797 191.556 165.856C190.614 164.914 189.066 164.04 187.989 163.838C186.98 163.636 185.096 164.04 183.683 164.645C182.337 165.318 180.789 166.595 180.183 167.537C179.578 168.479 178.972 170.429 178.703 171.909C178.434 173.591 178.636 175.407 179.174 176.752C179.712 177.962 180.722 179.24 181.462 179.644C182.202 180.047 184.019 180.317 185.499 180.317C187.451 180.317 188.729 179.846 192.43 176.617L196.064 177.962C198.016 178.702 199.631 179.577 199.631 179.98C199.631 180.384 198.487 181.998 197.141 183.612C195.728 185.227 193.373 187.177 191.892 187.85C190.412 188.59 187.855 189.397 186.172 189.598C184.49 189.8 181.664 189.531 179.78 189.06C177.424 188.388 175.54 187.244 173.32 185.025C171.436 183.209 169.955 180.989 169.484 179.308C169.013 177.828 168.677 175.272 168.677 173.591C168.677 171.909 169.08 169.219 169.686 167.537C170.224 165.856 171.974 163.031 173.522 161.215C175.137 159.399 177.29 157.448 178.299 156.91Z" fill="white"/>
<path d="M143.577 158.255C144.99 157.246 147.143 156.103 148.489 155.632C149.768 155.161 152.392 154.825 154.209 154.825C156.093 154.758 158.785 155.161 160.265 155.632C161.746 156.036 164.101 157.583 165.514 158.928C166.86 160.34 168.273 162.493 168.542 163.636C169.08 165.788 169.013 165.923 166.725 166.663C165.379 167.066 163.293 167.47 162.149 167.47C160.602 167.537 159.727 167.134 159.256 166.192C158.852 165.452 157.439 164.51 156.093 164.107C153.94 163.434 153.132 163.569 150.912 164.578C149.499 165.318 147.816 166.797 147.143 167.873C146.47 168.95 145.865 170.833 145.798 171.909C145.73 172.985 145.663 174.599 145.73 175.407C145.798 176.281 146.538 177.693 147.48 178.635C148.758 179.913 149.835 180.317 152.19 180.317C154.545 180.317 155.689 179.913 159.39 176.617L163.024 177.761C165.581 178.635 166.658 179.308 166.658 180.115C166.658 180.787 165.043 182.872 163.091 184.756C160.332 187.446 158.785 188.32 155.891 188.993C153.805 189.531 150.912 189.733 149.364 189.464C147.749 189.262 145.327 188.455 143.913 187.782C142.568 187.11 140.751 185.765 140.01 184.89C139.203 184.083 138.059 182.267 137.386 180.989C136.713 179.711 136.04 177.088 135.838 175.272C135.637 173.052 135.906 170.631 136.646 168.21C137.319 166.192 138.597 163.501 139.472 162.291C140.347 161.147 142.231 159.331 143.577 158.255Z" fill="white"/>
<path d="M101.722 164.174C128.369 151.126 151.652 139.759 153.536 138.951C155.42 138.077 157.17 137.337 157.506 137.337C157.977 137.27 157.977 137.472 157.506 137.808C157.17 138.144 149.566 142.92 140.549 148.435C131.599 153.95 124.197 158.726 124.197 159.13C124.197 159.533 124.803 161.753 125.543 164.174C126.283 166.595 128.1 172.783 129.58 177.962C131.128 183.141 132.339 187.581 132.339 187.85C132.339 188.186 127.562 188.388 121.775 188.388C113.901 188.455 110.941 188.253 110.335 187.581C109.931 187.11 108.653 183.074 107.509 178.635C106.365 174.196 105.288 170.496 105.086 170.362C104.884 170.295 98.0207 174.33 74.8051 188.388H63.7694C57.7131 188.388 52.8682 188.253 53.0027 188.119C53.1373 187.984 75.0743 177.155 101.722 164.174Z" fill="white"/>
<path fill-rule="evenodd" clip-rule="evenodd" d="M88.2634 120.589C87.5232 120.993 86.1774 121.935 85.3026 122.742C84.4278 123.482 77.2949 137.068 69.3545 152.942C60.8085 169.958 55.4252 181.393 56.1654 181.056C56.771 180.72 71.8443 173.792 89.6092 165.654C96.8963 162.315 104.942 158.626 112.548 155.139C123.484 150.124 133.512 145.526 139.068 142.987C148.489 138.682 156.766 134.849 157.439 134.512C158.045 134.176 158.516 133.772 158.381 133.571C158.314 133.369 150.171 136.396 140.212 140.297C130.321 144.198 121.842 147.359 121.371 147.359C120.9 147.359 119.016 142.045 116.526 133.772L112.488 120.119C93.5794 119.85 89.1382 120.051 88.2634 120.589ZM92.3009 150.52C89.8784 155.632 87.9942 160.004 88.0615 160.273C88.1961 160.475 91.1569 159.533 94.6561 158.121C99.2319 156.305 101.116 155.228 101.251 154.354C101.318 153.614 100.712 150.52 99.9048 147.426C99.03 144.265 98.0207 141.642 97.5496 141.44C97.0786 141.306 94.9925 144.938 92.3009 150.52Z" fill="white"/>
</g>
</g>
<defs>
<filter id="filter0_d_1_13" x="-11" y="56" width="364" height="228" filterUnits="userSpaceOnUse" color-interpolation-filters="sRGB">
<feFlood flood-opacity="0" result="BackgroundImageFix"/>
<feColorMatrix in="SourceAlpha" type="matrix" values="0 0 0 0 0 0 0 0 0 0 0 0 0 0 0 0 0 0 127 0" result="hardAlpha"/>
<feOffset/>
<feGaussianBlur stdDeviation="32"/>
<feComposite in2="hardAlpha" operator="out"/>
<feColorMatrix type="matrix" values="0 0 0 0 0 0 0 0 0 0 0 0 0 0 0 0 0 0 0.25 0"/>
<feBlend mode="normal" in2="BackgroundImageFix" result="effect1_dropShadow_1_13"/>
<feBlend mode="normal" in="SourceGraphic" in2="effect1_dropShadow_1_13" result="shape"/>
</filter>
<linearGradient id="paint0_linear_1_13" x1="341" y1="377.5" x2="-153.5" y2="-291.5" gradientUnits="userSpaceOnUse">
<stop stop-color="#4E30DA"/>
<stop offset="1" stop-color="#FCAAD9"/>
</linearGradient>
<clipPath id="clip0_1_13">
<rect width="341" height="341" fill="white"/>
</clipPath>
</defs>
</svg>
