<svg width="256" height="256" viewBox="0 0 256 256" fill="none" xmlns="http://www.w3.org/2000/svg">
<mask id="mask0_83_303" style="mask-type:alpha" maskUnits="userSpaceOnUse" x="1" y="1" width="254" height="254">
<path d="M106.429 254.324C77.8036 252.299 57.2862 246.329 40.0761 235.018C21.6571 222.911 8.93954 200.243 3.9843 170.687C1.69292 157.021 0.962957 146.366 1.00143 127.164C1.07014 93.0812 4.72734 71.9613 13.9373 52.4684C22.7757 33.762 33.8514 22.6792 52.4395 13.9416C72.1839 4.66056 93.5545 1 127.994 1C162.433 1 183.803 4.66056 203.548 13.9416C222.119 22.6715 233.122 33.6726 242.078 52.4684C251.216 71.6451 254.915 93.0336 254.999 127.164C255.1 168.687 249.55 193.658 235.416 215.277C222.216 235.466 198.18 248.266 165.151 252.695C147.932 255.004 125.031 255.639 106.429 254.324Z" fill="white"/>
</mask>
<g mask="url(#mask0_83_303)">
<rect x="1" y="1" width="254.001" height="254.001" fill="url(#paint0_linear_83_303)"/>
<g filter="url(#filter0_d_83_303)">
<path d="M175.06 157.106C174.659 155.452 174.158 153.699 174.007 153.198C173.757 152.446 173.907 152.296 174.809 152.446C175.712 152.547 176.113 153.098 176.514 154.701C176.764 155.853 177.165 156.905 177.366 157.056C177.616 157.206 178.468 156.254 179.27 154.851C180.273 153.181 181.108 152.346 181.777 152.346C182.779 152.346 182.779 152.396 181.676 154.25C181.025 155.302 179.27 158.108 177.767 160.512C175.662 163.769 174.759 164.821 173.857 164.871C172.754 164.871 172.754 164.821 175.812 160.112L175.06 157.106Z" fill="white"/>
<path fill-rule="evenodd" clip-rule="evenodd" d="M187.697 153.422C187.566 154.046 187.428 154.701 187.29 155.352C186.739 157.957 186.288 160.412 186.288 160.713C186.288 161.064 186.839 161.364 187.541 161.364C188.493 161.364 188.844 161.064 189.094 159.961C189.295 159.21 189.746 158.108 190.097 157.456C190.498 156.855 190.949 156.354 191.15 156.354C191.4 156.354 192.102 157.456 192.804 158.859L194.057 161.414C199.019 161.364 199.42 161.214 199.971 160.112C200.522 158.959 200.873 158.809 203.179 158.859C205.585 158.859 205.836 158.959 206.086 160.112C206.337 161.264 206.587 161.364 208.943 161.364H211.6C213.454 152.246 214.056 149.29 214.156 148.939C214.306 148.539 213.805 148.338 212.853 148.338C211.449 148.338 211.299 148.489 210.898 150.693C210.733 151.585 210.459 152.977 210.19 154.339C210.052 155.043 209.915 155.739 209.795 156.354C209.344 158.709 209.093 159.31 208.843 158.609C208.642 158.058 208.191 155.502 207.79 152.947L207.089 148.338C203.931 148.338 203.68 148.639 200.422 154.1C198.568 157.256 196.964 159.861 196.813 159.861C196.663 159.861 195.911 158.559 195.109 157.005L193.706 154.1L200.071 148.338C196.463 148.338 195.761 148.689 193.756 150.693C192.403 152.046 191.149 152.947 190.949 152.697C190.698 152.496 190.849 151.444 191.2 150.342L191.801 148.338C189.145 148.338 188.744 148.589 188.543 149.44V149.491C188.43 149.941 188.092 151.548 187.697 153.422ZM203.43 153.699C202.828 154.751 202.527 155.803 202.728 156.003C202.928 156.204 203.58 156.354 204.232 156.354C205.134 156.354 205.334 156.104 205.334 154.751C205.334 153.849 205.134 152.797 204.933 152.446C204.633 152.046 204.181 152.396 203.43 153.699Z" fill="white"/>
<path fill-rule="evenodd" clip-rule="evenodd" d="M165.286 153.498C164.634 156.555 164.033 159.611 163.933 160.212C163.782 161.114 163.983 161.364 164.735 161.364C165.286 161.364 165.737 161.064 165.737 160.713C165.737 160.262 165.837 160.262 166.339 160.763C166.69 161.114 167.842 161.364 168.845 161.364C170.248 161.364 171.05 161.013 172.003 159.961C173.005 158.959 173.306 158.058 173.306 156.354C173.306 154.851 173.005 153.799 172.404 153.198C171.752 152.547 170.95 152.346 169.597 152.446L167.692 152.597C168.043 148.238 167.943 147.837 167.241 147.837C166.589 147.837 166.188 148.99 165.286 153.448V153.498ZM167.492 154.751C166.94 155.302 166.589 156.304 166.639 157.156C166.639 157.957 167.04 158.959 167.492 159.36C168.143 159.961 168.494 160.011 169.496 159.46C170.198 159.16 171 158.258 171.251 157.456C171.652 156.404 171.602 155.853 171 154.951C170.599 154.35 169.847 153.849 169.296 153.849C168.795 153.849 167.993 154.25 167.492 154.751Z" fill="white"/>
<path d="M199.219 119.581C199.721 118.779 201.124 117.727 202.377 117.226C203.63 116.725 205.785 116.274 207.339 116.274C209.043 116.274 210.898 116.675 212.201 117.276C213.404 117.828 214.707 118.779 215.108 119.381C215.509 120.032 215.96 121.184 216.161 122.036C216.411 123.439 216.311 123.589 214.757 123.94C213.855 124.14 212.652 124.29 212.101 124.29C211.55 124.29 210.497 123.639 209.695 122.787C208.893 121.886 207.84 121.284 207.139 121.284C206.437 121.284 205.535 121.635 205.134 122.036C204.683 122.437 204.332 123.088 204.332 123.389C204.332 123.739 204.532 124.29 204.733 124.591C204.933 124.892 206.437 125.743 208.091 126.445C209.745 127.196 211.75 128.399 212.502 129.15C213.454 130.102 214.006 131.254 214.206 132.807C214.407 134.26 214.256 135.663 213.805 136.765C213.404 137.717 212.351 139.12 211.449 139.921C210.597 140.673 208.993 141.525 207.941 141.825C206.938 142.076 205.184 142.326 204.081 142.326C202.928 142.326 200.974 141.825 199.57 141.124C198.167 140.422 196.713 139.22 196.262 138.469C195.811 137.717 195.31 136.465 195.109 135.663C194.859 134.611 195.009 134.26 195.661 134.11C196.162 133.96 197.615 133.759 198.919 133.609C200.974 133.358 201.324 133.459 201.324 134.16C201.324 134.661 201.725 135.463 202.227 135.964C202.728 136.465 203.78 136.865 204.683 136.815C205.886 136.815 206.487 136.515 206.888 135.663C207.189 135.062 207.289 134.26 207.139 133.91C206.988 133.609 205.435 132.607 203.68 131.805C201.976 130.954 200.071 129.751 199.42 129.15C198.768 128.549 198.066 127.146 197.766 126.044C197.415 124.691 197.415 123.539 197.766 122.537C198.066 121.685 198.718 120.383 199.219 119.581Z" fill="white"/>
<path d="M179.17 119.581C179.671 118.779 181.075 117.727 182.328 117.226C183.581 116.725 185.736 116.274 187.29 116.274C188.994 116.274 190.849 116.675 192.152 117.276C193.355 117.828 194.758 118.98 195.31 119.882C195.861 120.783 196.312 121.986 196.312 122.537C196.312 123.238 195.861 123.639 194.708 123.94C193.806 124.14 192.603 124.29 192.052 124.29C191.5 124.29 190.448 123.639 189.646 122.787C188.894 121.936 187.791 121.284 187.14 121.284C186.538 121.284 185.636 121.685 185.135 122.186C184.634 122.637 184.233 123.439 184.283 123.89C184.283 124.491 185.536 125.393 188.142 126.645C190.949 127.998 192.403 129.05 193.205 130.302C193.856 131.354 194.307 132.807 194.307 133.91C194.307 134.962 194.007 136.415 193.606 137.166C193.255 137.968 192.302 139.12 191.5 139.821C190.698 140.523 189.145 141.424 188.042 141.775C186.889 142.176 184.884 142.376 183.28 142.226C181.576 142.076 179.772 141.525 178.569 140.773C177.316 140.022 176.263 138.819 175.662 137.567C175.16 136.465 174.759 135.262 174.759 134.912C174.759 134.611 175.16 134.21 175.611 134.11C176.113 133.96 177.566 133.759 178.869 133.609C180.924 133.358 181.275 133.459 181.275 134.16C181.275 134.661 181.676 135.463 182.178 135.964C182.629 136.465 183.681 136.865 184.533 136.865C185.335 136.865 186.338 136.515 186.638 136.064C186.989 135.663 187.24 134.912 187.14 134.411C187.09 133.91 185.636 132.857 183.681 131.805C181.777 130.853 179.822 129.601 179.27 129.05C178.719 128.499 178.067 127.146 177.817 126.044C177.566 124.942 177.566 123.389 177.767 122.537C178.017 121.685 178.619 120.383 179.17 119.581Z" fill="white"/>
<path fill-rule="evenodd" clip-rule="evenodd" d="M158.77 117.627C157.266 118.379 155.412 119.832 154.61 120.783C153.808 121.735 152.755 123.739 152.204 125.192C151.603 126.695 151.202 129 151.202 130.703C151.202 132.356 151.603 134.36 152.154 135.563C152.655 136.665 154.008 138.418 155.111 139.471C156.264 140.473 158.169 141.575 159.321 141.875C160.524 142.176 162.579 142.326 163.983 142.176C165.336 142.076 167.391 141.525 168.494 140.974C169.597 140.422 171.251 139.07 172.153 138.018L173.757 136.064C169.146 134.01 168.293 133.859 167.742 134.31C167.341 134.611 166.238 135.162 165.336 135.563C164.484 135.964 163.181 136.314 162.479 136.314C161.777 136.314 160.575 135.713 159.773 134.962C158.971 134.16 158.169 133.058 158.018 132.457L157.718 131.304C172.103 131.304 173.857 131.154 174.459 130.553C175.01 130.052 175.261 128.9 175.261 126.946C175.261 124.942 174.91 123.338 174.158 121.785C173.506 120.533 172.103 118.88 171 118.128C169.346 116.926 168.344 116.625 165.236 116.425C161.828 116.224 161.226 116.325 158.77 117.627ZM162.329 122.336C161.427 122.587 160.224 123.439 159.672 124.19C159.121 124.942 158.67 125.693 158.72 125.944C158.72 126.144 160.925 126.294 163.632 126.294C168.344 126.294 168.494 126.244 168.344 125.142C168.293 124.541 167.842 123.639 167.341 123.188C166.89 122.737 165.938 122.236 165.236 122.086C164.534 121.986 163.231 122.086 162.329 122.336Z" fill="white"/>
<path d="M133.809 117.878C134.561 117.477 135.814 116.976 136.566 116.725C137.318 116.525 139.172 116.325 140.676 116.325C142.58 116.274 144.234 116.625 145.939 117.427C147.292 118.078 148.896 119.23 149.497 120.082C150.099 120.884 150.801 122.286 151.703 124.791L149.447 125.292C148.194 125.593 146.691 125.793 146.039 125.793C145.437 125.793 144.385 125.242 143.683 124.541C142.981 123.84 141.829 123.188 141.027 123.038C140.275 122.888 138.871 123.188 137.819 123.639C136.816 124.14 135.663 125.092 135.212 125.793C134.761 126.495 134.31 127.948 134.11 129.05C133.909 130.302 134.06 131.655 134.461 132.657C134.862 133.559 135.613 134.511 136.165 134.811C136.716 135.112 138.069 135.312 139.172 135.312C140.626 135.312 141.578 134.962 144.335 132.557L147.041 133.559C148.495 134.11 149.698 134.761 149.698 135.062C149.698 135.362 148.846 136.565 147.843 137.767C146.791 138.97 145.036 140.422 143.934 140.923C142.831 141.475 140.926 142.076 139.673 142.226C138.42 142.376 136.315 142.176 134.912 141.825C133.157 141.324 131.754 140.473 130.1 138.819C128.696 137.467 127.594 135.813 127.243 134.561C126.892 133.459 126.641 131.555 126.641 130.302C126.641 129.05 126.942 127.046 127.393 125.793C127.794 124.541 129.097 122.437 130.25 121.084C131.453 119.731 133.057 118.278 133.809 117.878Z" fill="white"/>
<path d="M107.946 118.88C108.998 118.128 110.602 117.276 111.604 116.926C112.557 116.575 114.512 116.325 115.865 116.325C117.268 116.274 119.273 116.575 120.376 116.926C121.479 117.226 123.233 118.379 124.286 119.381C125.288 120.433 126.341 122.036 126.541 122.888C126.942 124.491 126.892 124.591 125.188 125.142C124.185 125.443 122.632 125.743 121.779 125.743C120.627 125.793 119.975 125.493 119.624 124.791C119.323 124.24 118.271 123.539 117.268 123.238C115.664 122.737 115.063 122.838 113.409 123.589C112.356 124.14 111.103 125.242 110.602 126.044C110.101 126.846 109.65 128.248 109.6 129.05C109.549 129.851 109.499 131.054 109.549 131.655C109.6 132.306 110.151 133.358 110.853 134.06C111.805 135.012 112.607 135.312 114.361 135.312C116.116 135.312 116.968 135.012 119.724 132.557L122.431 133.409C124.336 134.06 125.138 134.561 125.138 135.162C125.138 135.663 123.935 137.216 122.481 138.619C120.426 140.623 119.273 141.274 117.118 141.775C115.564 142.176 113.409 142.326 112.256 142.126C111.053 141.976 109.249 141.374 108.196 140.873C107.194 140.372 105.84 139.37 105.289 138.719C104.688 138.118 103.835 136.765 103.334 135.813C102.833 134.861 102.332 132.908 102.181 131.555C102.031 129.902 102.232 128.098 102.783 126.294C103.284 124.791 104.236 122.787 104.888 121.886C105.54 121.034 106.943 119.681 107.946 118.88Z" fill="white"/>
<path d="M76.7691 123.288C96.6178 113.569 113.96 105.102 115.364 104.501C116.767 103.85 118.07 103.299 118.321 103.299C118.672 103.249 118.672 103.399 118.321 103.649C118.07 103.9 112.406 107.457 105.69 111.565C99.0237 115.673 93.5101 119.23 93.5101 119.531C93.5101 119.832 93.9612 121.485 94.5126 123.288C95.0639 125.092 96.4173 129.701 97.52 133.559C98.6728 137.416 99.575 140.723 99.575 140.923C99.575 141.174 96.0163 141.324 91.7057 141.324C85.8413 141.374 83.6359 141.224 83.1848 140.723C82.8841 140.372 81.9317 137.366 81.0797 134.06C80.2276 130.753 79.4256 127.998 79.2752 127.898C79.1249 127.847 74.0123 130.853 56.7199 141.324H48.4998C43.9887 141.324 40.3799 141.224 40.4801 141.124C40.5804 141.024 56.9204 132.958 76.7691 123.288Z" fill="white"/>
<path fill-rule="evenodd" clip-rule="evenodd" d="M66.7445 90.8238C66.1932 91.1244 65.1907 91.8258 64.5391 92.427C63.8875 92.9781 58.5745 103.098 52.66 114.922C46.2944 127.597 42.2845 136.114 42.8359 135.863C43.287 135.613 54.5145 130.453 67.747 124.391C73.1748 121.904 79.1677 119.156 84.8332 116.558C92.9794 112.823 100.448 109.398 104.587 107.507C111.604 104.301 117.77 101.445 118.271 101.194C118.722 100.944 119.073 100.643 118.973 100.493C118.922 100.343 112.858 102.597 105.439 105.503C98.0713 108.409 91.7558 110.763 91.405 110.763C91.0541 110.763 89.6507 106.806 87.7961 100.643L84.7887 90.4731C70.7042 90.2727 67.3961 90.423 66.7445 90.8238ZM69.7519 113.118C67.9475 116.926 66.544 120.182 66.5941 120.383C66.6944 120.533 68.8998 119.831 71.5062 118.779C74.9145 117.427 76.318 116.625 76.4182 115.974C76.4683 115.423 76.0172 113.118 75.4158 110.814C74.7642 108.459 74.0123 106.505 73.6615 106.355C73.3106 106.254 71.7568 108.96 69.7519 113.118Z" fill="white"/>
</g>
</g>
<defs>
<filter id="filter0_d_83_303" x="-7.52191" y="42.3848" width="271.788" height="170.486" filterUnits="userSpaceOnUse" color-interpolation-filters="sRGB">
<feFlood flood-opacity="0" result="BackgroundImageFix"/>
<feColorMatrix in="SourceAlpha" type="matrix" values="0 0 0 0 0 0 0 0 0 0 0 0 0 0 0 0 0 0 127 0" result="hardAlpha"/>
<feOffset/>
<feGaussianBlur stdDeviation="24"/>
<feComposite in2="hardAlpha" operator="out"/>
<feColorMatrix type="matrix" values="0 0 0 0 0 0 0 0 0 0 0 0 0 0 0 0 0 0 0.25 0"/>
<feBlend mode="normal" in2="BackgroundImageFix" result="effect1_dropShadow_83_303"/>
<feBlend mode="normal" in="SourceGraphic" in2="effect1_dropShadow_83_303" result="shape"/>
</filter>
<linearGradient id="paint0_linear_83_303" x1="255.001" y1="282.189" x2="-113.338" y2="-216.13" gradientUnits="userSpaceOnUse">
<stop stop-color="#4E30DA"/>
<stop offset="1" stop-color="#FCAAD9"/>
</linearGradient>
</defs>
</svg>
