<svg width="256" height="256" viewBox="0 0 256 256" fill="none" xmlns="http://www.w3.org/2000/svg">
<mask id="mask0_83_305" style="mask-type:alpha" maskUnits="userSpaceOnUse" x="1" y="1" width="254" height="254">
<path d="M106.429 254.324C77.8036 252.299 57.2862 246.329 40.0761 235.018C21.6571 222.911 8.93954 200.243 3.9843 170.687C1.69292 157.021 0.962957 146.366 1.00143 127.164C1.07014 93.0812 4.72734 71.9613 13.9373 52.4684C22.7757 33.762 33.8514 22.6792 52.4395 13.9416C72.1839 4.66056 93.5545 1 127.994 1C162.433 1 183.803 4.66056 203.548 13.9416C222.119 22.6715 233.122 33.6726 242.078 52.4684C251.216 71.6451 254.915 93.0336 254.999 127.164C255.1 168.687 249.55 193.658 235.416 215.277C222.216 235.466 198.18 248.266 165.151 252.695C147.932 255.004 125.031 255.639 106.429 254.324Z" fill="white"/>
</mask>
<g mask="url(#mask0_83_305)">
<rect x="1" y="1" width="254.001" height="254.001" fill="url(#paint0_linear_83_305)"/>
<g filter="url(#filter0_d_83_305)">
<path d="M149.038 215.605C141.466 213.566 135.688 207.394 134.315 199.879C134.027 198.303 133.9 185.433 133.973 165.435L134.09 133.507L165.797 133.373C188.02 133.279 198.322 133.393 200.24 133.756C206.469 134.931 211.801 139.098 214.725 145.076C216.136 147.959 216.207 148.359 216.207 153.351C216.207 158.308 216.127 158.768 214.747 161.681C213.022 165.322 209.565 169.149 206.484 170.825C202.246 173.132 199.992 173.425 186.493 173.425H174.079L173.929 187.225L173.78 201.025L172.093 204.559C167.843 213.458 158.207 218.074 149.038 215.605ZM102.796 215.011C99.2227 213.833 95.3176 211.108 93.2752 208.369C89.1333 202.814 88.6105 200.131 88.7352 185.065L88.8297 173.653L75.1915 173.403C60.5868 173.136 60.0002 173.049 55.6219 170.483C52.8387 168.852 49.583 165.109 47.9515 161.665C46.5791 158.768 46.4985 158.305 46.4985 153.328C46.4985 148.155 46.5302 147.994 48.2134 144.588C50.9959 138.958 55.9982 135.08 62.146 133.787C63.7917 133.441 74.8242 133.278 96.7037 133.278H128.844V166.283C128.844 196.94 128.785 199.465 128.016 201.797C126.158 207.429 122.799 211.299 117.49 213.928C114.418 215.449 113.731 215.608 109.734 215.725C106.426 215.822 104.722 215.647 102.796 215.011ZM60.9531 127.548C51.5528 125.018 44.9475 114.651 46.727 105.219C47.9849 98.5531 51.8117 93.3645 57.5716 90.5163L61.0459 88.7983L74.9858 88.5702L88.9257 88.3421L89.1567 74.4278C89.3624 62.0383 89.4838 60.2885 90.2645 58.4606C92.8835 52.3279 96.8002 48.6373 102.865 46.5877C105.271 45.7742 106.565 45.6265 109.992 45.7739C113.741 45.9353 114.531 46.1333 117.559 47.6702C123.215 50.541 126.62 54.6775 128.144 60.5294C128.741 62.8201 128.844 67.9894 128.844 95.7372V128.26L96.1109 128.23C69.2275 128.205 62.9447 128.084 60.9531 127.548ZM133.862 96.1313C133.862 74.2436 134.024 63.2082 134.37 61.5624C135.656 55.4507 139.91 50.0729 145.586 47.3845C148.521 45.9941 148.972 45.9149 153.935 45.9149C158.886 45.9149 159.354 45.9968 162.249 47.3679C165.693 48.9994 169.435 52.255 171.067 55.0382C173.634 59.4186 173.72 59.9984 173.987 74.6559L174.236 88.3421L188.151 88.5702C201.268 88.7852 202.19 88.8558 204.242 89.8034C209.834 92.3855 213.932 96.9164 215.578 102.335C216.346 104.861 216.504 106.343 216.351 109.547C216.184 113.047 215.94 114.022 214.503 116.928C212.379 121.224 209.383 124.212 205.054 126.352L201.657 128.032L167.759 128.157L133.862 128.283V96.1313ZM60.3692 84.511C46.0601 79.933 41.7625 61.7837 52.5043 51.2964C56.3876 47.505 60.8784 45.6824 66.3122 45.6922C75.6787 45.7094 83.3265 51.6865 85.7823 60.9096C88.4112 70.7826 81.7685 82.0495 71.7459 84.7172C68.4515 85.5941 63.4725 85.5038 60.3692 84.511Z" fill="white"/>
</g>
</g>
<defs>
<filter id="filter0_d_83_305" x="-1.56329" y="-2.30786" width="265.967" height="266.574" filterUnits="userSpaceOnUse" color-interpolation-filters="sRGB">
<feFlood flood-opacity="0" result="BackgroundImageFix"/>
<feColorMatrix in="SourceAlpha" type="matrix" values="0 0 0 0 0 0 0 0 0 0 0 0 0 0 0 0 0 0 127 0" result="hardAlpha"/>
<feOffset/>
<feGaussianBlur stdDeviation="24"/>
<feComposite in2="hardAlpha" operator="out"/>
<feColorMatrix type="matrix" values="0 0 0 0 0 0 0 0 0 0 0 0 0 0 0 0 0 0 0.25 0"/>
<feBlend mode="normal" in2="BackgroundImageFix" result="effect1_dropShadow_83_305"/>
<feBlend mode="normal" in="SourceGraphic" in2="effect1_dropShadow_83_305" result="shape"/>
</filter>
<linearGradient id="paint0_linear_83_305" x1="128" y1="0.999996" x2="255.001" y2="321.294" gradientUnits="userSpaceOnUse">
<stop stop-color="#0BB4AD"/>
<stop offset="1" stop-color="#0A6561"/>
</linearGradient>
</defs>
</svg>
