<svg width="341" height="341" viewBox="0 0 341 341" fill="none" xmlns="http://www.w3.org/2000/svg">
<rect width="341" height="341" fill="url(#paint0_linear_74_198)"/>
<g filter="url(#filter0_d_74_198)">
<path d="M198.745 288.113C188.58 285.375 180.822 277.089 178.979 267C178.593 264.885 178.421 247.606 178.52 220.758L178.677 177.893L221.244 177.714C251.079 177.588 264.91 177.741 267.485 178.228C275.847 179.806 283.006 185.401 286.932 193.425C288.826 197.296 288.922 197.833 288.922 204.536C288.922 211.19 288.814 211.808 286.961 215.719C284.646 220.607 280.004 225.744 275.868 227.995C270.179 231.091 267.153 231.484 249.03 231.484H232.363L232.163 250.012L231.962 268.539L229.697 273.284C223.992 285.23 211.055 291.428 198.745 288.113ZM136.665 287.316C131.867 285.733 126.624 282.076 123.882 278.399C118.321 270.941 117.62 267.338 117.787 247.112L117.914 231.791L99.6041 231.456C79.9969 231.097 79.2094 230.98 73.3314 227.535C69.5948 225.346 65.224 220.321 63.0336 215.697C61.1912 211.808 61.083 211.186 61.083 204.504C61.083 197.56 61.1255 197.343 63.3853 192.77C67.1208 185.212 73.8366 180.006 82.0902 178.27C84.2996 177.805 99.1111 177.587 128.485 177.587H171.634V221.896C171.634 263.054 171.555 266.445 170.522 269.575C168.028 277.136 163.519 282.332 156.391 285.861C152.267 287.903 151.344 288.117 145.979 288.274C141.537 288.404 139.25 288.169 136.665 287.316ZM80.4886 169.893C67.8685 166.497 59.0007 152.579 61.3898 139.917C63.0784 130.967 68.2161 124.002 75.9489 120.178L80.6132 117.871L99.3279 117.565L118.043 117.259L118.353 98.5784C118.629 81.9452 118.792 79.5961 119.84 77.142C123.356 68.9088 128.614 63.954 136.756 61.2023C139.987 60.1101 141.724 59.9118 146.325 60.1098C151.358 60.3265 152.419 60.5922 156.484 62.6555C164.077 66.5097 168.649 72.0631 170.695 79.9194C171.496 82.9947 171.634 89.9347 171.634 127.187V170.85L127.689 170.81C91.5972 170.776 83.1625 170.613 80.4886 169.893ZM178.371 127.716C178.371 98.3311 178.589 83.5158 179.054 81.3063C180.779 73.1012 186.491 65.8813 194.11 62.2721C198.051 60.4054 198.656 60.299 205.32 60.299C211.966 60.299 212.595 60.409 216.481 62.2498C221.105 64.4401 226.129 68.8108 228.319 72.5473C231.765 78.4281 231.881 79.2065 232.24 98.8847L232.575 117.259L251.255 117.565C268.865 117.854 270.103 117.948 272.858 119.221C280.365 122.687 285.868 128.77 288.077 136.045C289.107 139.436 289.321 141.426 289.115 145.727C288.89 150.426 288.562 151.735 286.634 155.636C283.783 161.403 279.761 165.415 273.949 168.288L269.388 170.544L223.879 170.712L178.371 170.88V127.716ZM79.7047 112.115C60.4944 105.969 54.7248 81.6033 69.1459 67.5239C74.3594 62.4338 80.3884 59.9869 87.6834 60.0001C100.258 60.0232 110.526 68.0475 113.823 80.4299C117.352 93.6846 108.434 108.811 94.9783 112.392C90.5554 113.57 83.871 113.448 79.7047 112.115Z" fill="white"/>
</g>
<defs>
<filter id="filter0_d_74_198" x="13" y="12" width="324.186" height="325" filterUnits="userSpaceOnUse" color-interpolation-filters="sRGB">
<feFlood flood-opacity="0" result="BackgroundImageFix"/>
<feColorMatrix in="SourceAlpha" type="matrix" values="0 0 0 0 0 0 0 0 0 0 0 0 0 0 0 0 0 0 127 0" result="hardAlpha"/>
<feOffset/>
<feGaussianBlur stdDeviation="24"/>
<feComposite in2="hardAlpha" operator="out"/>
<feColorMatrix type="matrix" values="0 0 0 0 0 0 0 0 0 0 0 0 0 0 0 0 0 0 0.25 0"/>
<feBlend mode="normal" in2="BackgroundImageFix" result="effect1_dropShadow_74_198"/>
<feBlend mode="normal" in="SourceGraphic" in2="effect1_dropShadow_74_198" result="shape"/>
</filter>
<linearGradient id="paint0_linear_74_198" x1="170.5" y1="-5.0813e-06" x2="341" y2="430" gradientUnits="userSpaceOnUse">
<stop stop-color="#0BB4AD"/>
<stop offset="1" stop-color="#0A6561"/>
</linearGradient>
</defs>
</svg>
