<svg width="256" height="256" viewBox="0 0 256 256" fill="none" xmlns="http://www.w3.org/2000/svg">
<path d="M106.429 254.324C77.8036 252.299 57.2862 246.329 40.0761 235.018C21.6571 222.911 8.93954 200.243 3.9843 170.687C1.69292 157.021 0.962957 146.366 1.00143 127.164C1.07014 93.0812 4.72734 71.9613 13.9373 52.4684C22.7757 33.762 33.8514 22.6792 52.4395 13.9416C72.1839 4.66056 93.5545 1 127.994 1C162.433 1 183.803 4.66056 203.548 13.9416C222.119 22.6715 233.122 33.6726 242.078 52.4684C251.216 71.6451 254.915 93.0336 254.999 127.164C255.1 168.687 249.55 193.658 235.416 215.277C222.216 235.466 198.18 248.266 165.151 252.695C147.932 255.004 125.031 255.639 106.429 254.324Z" fill="url(#paint0_linear_83_305)"/>
<path d="M147.601 214.913C140.029 212.874 134.251 206.702 132.879 199.187C132.591 197.611 132.463 184.741 132.536 164.743L132.653 132.814L164.36 132.681C186.583 132.587 196.885 132.701 198.803 133.064C205.032 134.239 210.364 138.406 213.289 144.383C214.699 147.267 214.771 147.667 214.771 152.659C214.771 157.616 214.69 158.076 213.31 160.989C211.585 164.63 208.128 168.456 205.047 170.133C200.81 172.439 198.556 172.732 185.057 172.732H172.642L172.493 186.533L172.343 200.333L170.656 203.867C166.407 212.766 156.771 217.382 147.601 214.913ZM101.36 214.319C97.786 213.14 93.8809 210.416 91.8385 207.677C87.6966 202.122 87.1738 199.439 87.2985 184.373L87.393 172.961L73.7548 172.711C59.1501 172.444 58.5635 172.357 54.1852 169.791C51.402 168.16 48.1463 164.417 46.5148 160.973C45.1424 158.076 45.0618 157.613 45.0618 152.636C45.0618 147.463 45.0935 147.302 46.7767 143.896C49.5592 138.266 54.5615 134.388 60.7093 133.095C62.355 132.749 73.3875 132.586 95.267 132.586H127.407V165.59C127.407 196.248 127.348 198.773 126.579 201.105C124.721 206.736 121.363 210.607 116.053 213.236C112.982 214.756 112.294 214.916 108.298 215.033C104.989 215.13 103.286 214.955 101.36 214.319ZM59.5163 126.855C50.1161 124.326 43.5108 113.958 45.2903 104.527C46.5482 97.8609 50.375 92.6724 56.1349 89.8241L59.6092 88.1062L73.549 87.878L87.489 87.65L87.72 73.7356C87.9257 61.3462 88.0471 59.5964 88.8278 57.7684C91.4468 51.6358 95.3635 47.9452 101.428 45.8955C103.835 45.082 105.129 44.9343 108.555 45.0818C112.304 45.2432 113.095 45.4411 116.123 46.978C121.779 49.8488 125.183 53.9853 126.708 59.8372C127.304 62.1279 127.407 67.2973 127.407 95.0451V127.568L94.6742 127.538C67.7908 127.513 61.508 127.391 59.5163 126.855ZM132.425 95.4392C132.425 73.5515 132.588 62.5161 132.934 60.8703C134.219 54.7586 138.473 49.3807 144.149 46.6924C147.085 45.302 147.535 45.2227 152.498 45.2227C157.449 45.2227 157.918 45.3047 160.812 46.6758C164.256 48.3073 167.999 51.5629 169.63 54.3461C172.197 58.7264 172.283 59.3063 172.55 73.9638L172.8 87.65L186.714 87.878C199.831 88.0931 200.753 88.1637 202.805 89.1112C208.397 91.6934 212.496 96.2243 214.142 101.643C214.909 104.169 215.068 105.651 214.914 108.855C214.747 112.355 214.503 113.33 213.066 116.236C210.943 120.531 207.947 123.519 203.618 125.66L200.22 127.34L166.323 127.465L132.425 127.591V95.4392ZM58.9325 83.8188C44.6234 79.2409 40.3258 61.0915 51.0676 50.6043C54.9509 46.8129 59.4417 44.9902 64.8755 45C74.242 45.0173 81.8898 50.9943 84.3456 60.2175C86.9745 70.0905 80.3318 81.3574 70.3092 84.0251C67.0147 84.902 62.0358 84.8117 58.9325 83.8188Z" fill="white"/>
<defs>
<linearGradient id="paint0_linear_83_305" x1="128" y1="1" x2="128" y2="255" gradientUnits="userSpaceOnUse">
<stop stop-color="#0AC7BF"/>
<stop offset="1" stop-color="#0BA7A1"/>
</linearGradient>
</defs>
</svg>
