<svg width="192" height="192" viewBox="0 0 192 192" fill="none" xmlns="http://www.w3.org/2000/svg">
<path d="M79.8641 190.494C58.4515 188.98 43.1039 184.514 30.2301 176.052C16.4521 166.996 6.93903 150.04 3.23235 127.931C1.51833 117.708 0.97229 109.739 1.00107 95.3749C1.05247 69.8796 3.78817 54.0812 10.6775 39.5C17.2889 25.507 25.5739 17.2167 39.4783 10.6808C54.2478 3.73821 70.2337 1 95.9953 1C121.757 1 137.743 3.73821 152.512 10.6808C166.404 17.211 174.634 25.4402 181.334 39.5C188.169 53.8448 190.937 69.844 190.999 95.3749C191.075 126.436 186.923 145.115 176.35 161.286C166.477 176.388 148.497 185.963 123.79 189.276C110.91 191.003 93.7794 191.478 79.8641 190.494Z" fill="url(#paint0_linear_118_481)"/>
<path d="M146.747 75.0684C144.058 64.3875 135.055 56.1104 124.178 54.4462C112.277 52.6244 101.558 58.3836 95.9995 67.607C90.4387 58.3836 79.7193 52.6244 67.8127 54.4462C56.9356 56.1131 47.9384 64.3929 45.249 75.0738C43.8209 80.6517 44.1714 86.5369 46.2515 91.9054C53.089 111.598 77.2689 132.712 89.2163 142.243C91.1422 143.783 93.5342 144.622 95.9995 144.622C98.4648 144.622 100.857 143.783 102.783 142.243C114.73 132.712 138.91 111.598 145.748 91.9082C147.83 86.5373 148.18 80.6483 146.747 75.0684Z" fill="#BB7B00"/>
<defs>
<linearGradient id="paint0_linear_118_481" x1="96" y1="1" x2="96" y2="191" gradientUnits="userSpaceOnUse">
<stop stop-color="#FEC127"/>
<stop offset="1" stop-color="#E0A101"/>
</linearGradient>
</defs>
</svg>
