<svg width="256" height="256" viewBox="0 0 256 256" fill="none" xmlns="http://www.w3.org/2000/svg">
<mask id="mask0_83_326" style="mask-type:alpha" maskUnits="userSpaceOnUse" x="1" y="1" width="254" height="254">
<path d="M106.429 254.324C77.8036 252.299 57.2862 246.329 40.0761 235.018C21.6571 222.911 8.93954 200.243 3.9843 170.687C1.69292 157.021 0.962957 146.366 1.00143 127.164C1.07014 93.0812 4.72734 71.9613 13.9373 52.4684C22.7757 33.762 33.8514 22.6792 52.4395 13.9416C72.1839 4.66056 93.5545 1 127.994 1C162.433 1 183.803 4.66056 203.548 13.9416C222.119 22.6715 233.122 33.6726 242.078 52.4684C251.216 71.6451 254.915 93.0336 254.999 127.164C255.1 168.687 249.55 193.658 235.416 215.277C222.216 235.466 198.18 248.266 165.151 252.695C147.932 255.004 125.031 255.639 106.429 254.324Z" fill="white"/>
</mask>
<g mask="url(#mask0_83_326)">
<rect x="1" y="1" width="254.001" height="254.001" fill="url(#paint0_linear_83_326)"/>
<g filter="url(#filter0_d_83_326)">
<path fill-rule="evenodd" clip-rule="evenodd" d="M122.683 44.3589C121.468 44.4978 119.526 44.7197 117.749 44.9621C115.415 45.245 111.667 45.8817 109.439 46.3769C107.211 46.872 103.78 47.827 101.835 48.4636C99.8905 49.1356 96.7785 50.3382 94.9396 51.2224C93.1007 52.0713 90.1301 53.6629 88.3973 54.7593C86.6291 55.8204 83.9415 57.7657 82.3855 59.0036C80.8295 60.2415 78.3894 62.5052 76.9749 63.9907C75.5957 65.4762 73.4385 67.9874 72.2715 69.6143C71.0692 71.2059 69.2656 73.9647 68.2047 75.6978C67.1792 77.4309 65.4464 80.8617 64.3855 83.3022C63.3599 85.7426 61.7686 89.9516 60.8845 92.675C60.0357 95.3984 58.798 99.7842 58.2322 102.401C57.631 105.019 56.7823 109.405 56.3933 112.128C55.8982 115.453 55.5799 119.697 55.4385 125.038C55.297 130.131 55.4031 134.729 55.6507 137.771C55.8982 140.388 56.4994 144.844 56.9591 147.674C57.4188 150.503 58.409 155.031 59.1163 157.754C59.7882 160.477 61.0966 164.793 61.9454 167.304C62.8295 169.815 64.3501 173.635 65.3756 175.792C66.4012 177.914 68.0633 181.027 69.0888 182.689C70.1497 184.352 71.7057 186.651 72.6252 187.818C73.5093 188.985 75.2774 191.036 76.5505 192.38C77.8236 193.724 80.0515 195.811 81.5014 197.014C82.9513 198.216 85.4975 200.091 87.1596 201.152C88.8217 202.248 91.7922 203.946 93.7726 204.936C95.7883 205.927 99.2186 207.341 101.376 208.12C103.568 208.862 107.105 209.888 109.262 210.383C111.384 210.878 114.991 211.586 117.219 211.939C120.189 212.364 123.478 212.541 129.419 212.541C134.016 212.541 139.073 212.364 141.089 212.081C143.034 211.833 146.287 211.303 148.339 210.914C150.39 210.525 153.714 209.676 155.765 209.004C157.816 208.332 161.317 206.882 163.545 205.821C165.773 204.724 168.885 203.026 170.441 202.001C171.997 200.975 174.755 198.888 176.594 197.332C178.433 195.811 180.979 193.371 182.252 191.956C183.525 190.506 185.364 188.207 186.319 186.827C187.238 185.413 188.653 183.008 189.431 181.451C190.209 179.895 191.376 177.03 192.013 175.085C192.684 173.14 193.462 170.027 193.745 168.188C194.064 166.349 194.311 163.095 194.311 160.937C194.311 158.78 194.064 155.597 193.781 153.863C193.498 152.13 192.932 149.584 192.508 148.204C192.083 146.825 191.199 144.526 190.527 143.076C189.855 141.626 188.476 139.15 187.451 137.594C186.39 136.037 184.374 133.562 182.959 132.076C181.51 130.626 179.069 128.468 177.513 127.301C175.957 126.169 173.199 124.436 171.36 123.446C169.557 122.491 167.824 121.43 167.576 121.147C167.293 120.864 166.763 118.636 166.374 116.195C166.02 113.755 165.384 110.572 164.995 109.122C164.606 107.671 163.757 105.196 163.12 103.639C162.449 102.083 161.352 99.9256 160.68 98.8646C159.973 97.8035 158.559 95.8936 157.498 94.6556C156.437 93.4177 154.315 91.4371 152.759 90.2699C151.203 89.1027 148.869 87.6172 147.525 86.9806C146.217 86.3085 143.777 85.389 142.044 84.8938C140.346 84.3986 137.128 83.7973 134.9 83.5851C131.859 83.3022 129.737 83.3022 126.413 83.6205C123.973 83.8327 120.472 84.434 118.633 84.9291C116.794 85.4243 114.001 86.45 112.445 87.2281C110.889 88.0063 108.519 89.4918 107.175 90.4821C105.832 91.5078 103.71 93.4177 102.437 94.7971C101.199 96.1765 99.9966 97.5913 99.7844 97.9803C99.6076 98.3694 99.5368 98.9707 99.6783 99.3244C99.7844 99.6427 101.517 101.022 103.498 102.366C105.513 103.745 107.847 105.337 108.731 105.938C109.828 106.681 110.535 106.929 111.03 106.787C111.419 106.646 112.904 105.443 114.283 104.135C116.052 102.472 117.678 101.305 119.411 100.492C120.826 99.8195 122.877 99.0768 123.938 98.8292C125.034 98.5462 127.58 98.3694 129.773 98.4048C131.894 98.4401 134.865 98.6877 136.315 99.006C137.765 99.3244 140.063 100.102 141.443 100.774C143.14 101.588 144.555 102.649 145.863 104.064C146.959 105.196 148.339 107.141 148.975 108.414C149.612 109.688 150.425 111.81 150.779 113.189C151.132 114.568 151.344 115.877 151.203 116.16C151.026 116.549 150.531 116.584 149.046 116.408C147.985 116.302 144.979 116.019 142.397 115.842C139.285 115.606 135.808 115.606 131.965 115.842C128.818 116.054 124.786 116.514 123.054 116.867C121.285 117.221 118.421 118.07 116.688 118.707C114.92 119.379 112.48 120.51 111.207 121.218C109.934 121.925 107.989 123.234 106.857 124.153C105.761 125.038 104.063 126.735 103.073 127.973C102.118 129.176 100.704 131.439 99.9612 132.996C99.1832 134.552 98.2991 136.851 97.9101 138.124C97.4504 139.787 97.2736 141.626 97.2736 144.844C97.2382 147.992 97.415 149.938 97.8747 151.564C98.2284 152.838 99.0064 154.96 99.6783 156.339C100.315 157.719 101.588 159.735 102.472 160.867C103.391 161.963 104.806 163.484 105.584 164.227C106.397 164.934 107.953 166.172 109.05 166.95C110.181 167.728 112.338 168.966 113.894 169.673C115.415 170.416 118.28 171.442 120.225 171.937C123.195 172.715 124.539 172.892 128.712 172.927C131.541 172.927 134.582 172.751 135.784 172.503C136.951 172.255 139.179 171.619 140.735 171.124C142.291 170.628 144.519 169.744 145.686 169.178C146.853 168.577 148.834 167.41 150.107 166.596C151.38 165.747 153.431 164.05 154.669 162.812C155.942 161.574 157.568 159.805 158.346 158.815C159.124 157.86 160.291 156.021 160.999 154.748C161.706 153.474 162.767 150.999 163.403 149.265C164.005 147.532 164.889 144.42 165.313 142.369C165.773 140.317 166.268 138.513 166.409 138.301C166.621 138.089 167.47 138.478 168.708 139.362C169.804 140.14 171.608 141.732 172.704 142.899C173.8 144.066 175.321 146.047 176.064 147.32C176.806 148.593 177.902 151.069 178.504 152.802C179.494 155.738 179.6 156.339 179.6 160.584C179.565 164.51 179.423 165.641 178.61 168.365C178.079 170.098 177.018 172.892 176.24 174.554C175.462 176.217 174.119 178.516 173.27 179.683C172.456 180.85 170.476 183.043 168.885 184.564C167.329 186.049 164.853 188.03 163.439 188.95C162.06 189.869 159.301 191.355 157.356 192.274C155.411 193.158 152.547 194.326 150.991 194.856C149.435 195.351 146.712 196.094 144.979 196.448C143.211 196.837 140.134 197.332 138.083 197.58C135.749 197.827 132.142 197.933 128.358 197.792C124.963 197.686 120.401 197.261 117.926 196.837C115.486 196.448 111.985 195.705 110.146 195.21C108.307 194.715 105.584 193.795 104.134 193.229C102.684 192.628 100.527 191.673 99.36 191.107C98.193 190.506 95.8944 189.091 94.2323 187.995C92.5702 186.863 89.9887 184.705 88.468 183.255C86.9828 181.77 84.7549 179.258 83.5879 177.667C82.3855 176.04 80.4051 172.644 79.2028 170.133C77.9651 167.622 76.4798 164.085 75.8786 162.352C75.3128 160.619 74.2519 157.082 73.5446 154.571C72.8727 152.06 71.9179 147.603 71.4228 144.668C70.9277 141.767 70.3973 136.886 70.2204 133.88C70.079 130.874 70.0436 126.028 70.2204 123.092C70.3619 120.192 70.7509 116.125 71.0692 114.073C71.3874 112.022 72.024 108.52 72.5191 106.292C73.0142 104.064 74.2873 99.6073 75.3482 96.3887C76.4091 93.1701 78.0712 88.8905 79.0613 86.8391C80.0515 84.7877 81.6075 82.0289 82.4916 80.6849C83.411 79.3408 85.0378 77.2541 86.0987 76.0869C87.1596 74.8843 88.9631 73.0805 90.1655 72.0548C91.3325 70.9937 93.3128 69.4729 94.5859 68.624C95.859 67.7752 98.4052 66.325 100.244 65.4054C102.083 64.4858 105.443 63.1418 107.67 62.399C109.898 61.6917 113.399 60.7721 115.45 60.383C117.502 59.9586 121.215 59.4634 123.761 59.2158C126.448 59.0036 130.02 58.9329 132.425 59.0744C134.653 59.1805 138.225 59.5342 140.382 59.8171C142.504 60.1001 145.686 60.666 147.454 61.0904C149.187 61.4795 151.981 62.2929 153.643 62.8588C155.305 63.4601 158.17 64.698 160.008 65.6176C161.847 66.5372 164.712 68.2703 166.374 69.4375C168.036 70.64 170.759 73.0098 172.492 74.7075C174.189 76.4052 176.594 79.2701 177.867 81.0032C179.105 82.7363 181.014 85.9195 182.075 88.077C183.136 90.2345 184.515 93.4177 185.117 95.1508C185.753 96.8839 186.46 98.7938 186.673 99.3597C186.885 99.9256 187.309 100.492 187.592 100.668C187.91 100.845 189.608 100.527 191.836 99.9256C193.887 99.3597 196.645 98.617 197.989 98.2633C199.333 97.9096 200.606 97.3437 200.818 97.0254C201.101 96.5656 201.03 95.8936 200.535 94.1958C200.146 92.9579 199.156 90.3052 198.343 88.2538C197.565 86.2024 196.079 82.9485 195.089 81.0032C194.134 79.0579 192.366 76.0161 191.235 74.2831C190.068 72.55 188.158 69.8973 186.991 68.4472C185.824 66.997 183.419 64.4505 181.686 62.7881C179.918 61.1258 177.231 58.8621 175.71 57.7657C174.154 56.6693 171.466 54.9362 169.733 53.9105C167.965 52.9201 165.101 51.47 163.368 50.6919C161.6 49.9138 158.665 48.782 156.826 48.1453C154.987 47.4733 152.016 46.6244 150.284 46.2354C148.515 45.811 145.439 45.245 143.388 44.9267C141.23 44.6084 136.633 44.3255 132.425 44.2547C128.429 44.184 124.468 44.184 123.584 44.2547C123.373 44.28 123.064 44.3154 122.683 44.3589ZM128.358 131.086C126.979 131.263 124.786 131.722 123.407 132.147C122.028 132.536 120.012 133.385 118.845 133.986C117.714 134.623 116.016 135.896 115.097 136.886C114.107 137.947 113.152 139.468 112.692 140.671C112.162 142.05 111.914 143.5 111.914 145.092C111.914 146.931 112.126 147.957 112.833 149.442C113.364 150.574 114.496 152.095 115.556 153.085C116.582 154.04 118.421 155.314 119.694 155.88C120.967 156.481 123.089 157.188 124.468 157.471C126.166 157.825 128.004 157.931 130.303 157.825C132.177 157.683 134.759 157.294 136.138 156.87C137.517 156.445 139.568 155.597 140.735 154.995C141.902 154.359 143.741 152.979 144.838 151.918C145.898 150.857 147.207 149.265 147.737 148.381C148.232 147.497 149.081 145.587 149.612 144.137C150.107 142.687 150.849 139.928 151.203 138.018C151.557 136.144 151.875 134.092 151.875 133.526C151.875 132.89 151.627 132.324 151.274 132.147C150.92 131.97 148.728 131.581 146.394 131.263C143.847 130.909 139.922 130.697 136.492 130.732C133.38 130.767 129.737 130.909 128.358 131.086Z" fill="#F6F6F7"/>
</g>
</g>
<defs>
<filter id="filter0_d_83_326" x="23.3751" y="12.2017" width="209.608" height="232.339" filterUnits="userSpaceOnUse" color-interpolation-filters="sRGB">
<feFlood flood-opacity="0" result="BackgroundImageFix"/>
<feColorMatrix in="SourceAlpha" type="matrix" values="0 0 0 0 0 0 0 0 0 0 0 0 0 0 0 0 0 0 127 0" result="hardAlpha"/>
<feOffset/>
<feGaussianBlur stdDeviation="16"/>
<feComposite in2="hardAlpha" operator="out"/>
<feColorMatrix type="matrix" values="0 0 0 0 0 0 0 0 0 0 0 0 0 0 0 0 0 0 0.25 0"/>
<feBlend mode="normal" in2="BackgroundImageFix" result="effect1_dropShadow_83_326"/>
<feBlend mode="normal" in="SourceGraphic" in2="effect1_dropShadow_83_326" result="shape"/>
</filter>
<linearGradient id="paint0_linear_83_326" x1="17.3872" y1="9.19357" x2="230.048" y2="255.001" gradientUnits="userSpaceOnUse">
<stop stop-color="#4E1494"/>
<stop offset="1" stop-color="#15012E"/>
</linearGradient>
</defs>
</svg>
