<svg width="341" height="341" viewBox="0 0 341 341" fill="none" xmlns="http://www.w3.org/2000/svg">
<rect width="341" height="341" fill="url(#paint0_linear_8_19)"/>
<g filter="url(#filter0_d_8_19)">
<path d="M170.919 57.8209C140.205 57.8209 136.351 57.9552 124.288 58.5042C112.248 59.0556 104.03 60.9617 96.8393 63.7584C89.4011 66.6471 83.0915 70.5112 76.8055 76.7998C70.5147 83.086 66.6507 89.3958 63.7527 96.8319C60.949 104.025 59.0406 112.246 58.4987 124.281C57.9591 136.345 57.8177 140.202 57.8177 170.917C57.8177 201.632 57.9544 205.474 58.501 217.538C59.0547 229.578 60.9608 237.796 63.7551 244.987C66.646 252.426 70.51 258.735 76.7984 265.022C83.0821 271.313 89.3917 275.186 96.8252 278.075C104.021 280.872 112.241 282.778 124.278 283.329C136.341 283.878 140.194 284.012 170.905 284.012C201.622 284.012 205.464 283.878 217.528 283.329C229.567 282.778 237.795 280.872 244.99 278.075C252.426 275.186 258.726 271.313 265.01 265.022C271.301 258.735 275.165 252.426 278.063 244.99C280.843 237.796 282.751 229.576 283.317 217.54C283.859 205.477 284 201.632 284 170.917C284 140.202 283.859 136.347 283.317 124.284C282.751 112.244 280.843 104.025 278.063 96.8342C275.165 89.3958 271.301 83.086 265.01 76.7998C258.719 70.5089 252.428 66.6447 244.983 63.7584C237.774 60.9617 229.551 59.0556 217.511 58.5042C205.448 57.9552 201.608 57.8209 170.884 57.8209H170.919ZM160.774 78.2017C163.785 78.197 167.145 78.2017 170.919 78.2017C201.115 78.2017 204.694 78.3101 216.618 78.852C227.645 79.3562 233.629 81.1988 237.616 82.7467C242.893 84.7966 246.656 87.247 250.612 91.2054C254.57 95.1637 257.02 98.9336 259.075 104.211C260.623 108.193 262.468 114.178 262.97 125.205C263.511 137.127 263.629 140.708 263.629 170.891C263.629 201.073 263.511 204.655 262.97 216.577C262.465 227.604 260.623 233.588 259.075 237.57C257.025 242.848 254.57 246.606 250.612 250.562C246.654 254.52 242.896 256.971 237.616 259.021C233.634 260.576 227.645 262.413 216.618 262.918C204.696 263.46 201.115 263.577 170.919 263.577C140.721 263.577 137.143 263.46 125.221 262.918C114.194 262.409 108.21 260.566 104.221 259.018C98.9433 256.968 95.1735 254.518 91.2153 250.56C87.2571 246.601 84.8068 242.841 82.7522 237.561C81.2043 233.579 79.3595 227.594 78.8576 216.567C78.3157 204.645 78.2073 201.064 78.2073 170.862C78.2073 140.661 78.3157 137.099 78.8576 125.176C79.3618 114.15 81.2043 108.165 82.7522 104.178C84.802 98.9006 87.2571 95.1307 91.2153 91.1724C95.1735 87.214 98.9433 84.7636 104.221 82.709C108.207 81.154 114.194 79.3162 125.221 78.8096C135.654 78.3384 139.697 78.197 160.774 78.1734V78.2017ZM231.287 96.9803C223.795 96.9803 217.716 103.052 217.716 110.547C217.716 118.04 223.795 124.119 231.287 124.119C238.78 124.119 244.858 118.04 244.858 110.547C244.858 103.054 238.78 96.9756 231.287 96.9756V96.9803ZM170.919 112.837C138.846 112.837 112.842 138.842 112.842 170.917C112.842 202.991 138.846 228.984 170.919 228.984C202.993 228.984 228.988 202.991 228.988 170.917C228.988 138.842 202.993 112.837 170.919 112.837ZM170.919 133.218C191.738 133.218 208.617 150.095 208.617 170.917C208.617 191.736 191.738 208.615 170.919 208.615C150.099 208.615 133.222 191.736 133.222 170.917C133.222 150.095 150.099 133.218 170.919 133.218Z" fill="white"/>
</g>
<defs>
<filter id="filter0_d_8_19" x="9.81775" y="9.82092" width="322.182" height="322.191" filterUnits="userSpaceOnUse" color-interpolation-filters="sRGB">
<feFlood flood-opacity="0" result="BackgroundImageFix"/>
<feColorMatrix in="SourceAlpha" type="matrix" values="0 0 0 0 0 0 0 0 0 0 0 0 0 0 0 0 0 0 127 0" result="hardAlpha"/>
<feOffset/>
<feGaussianBlur stdDeviation="24"/>
<feComposite in2="hardAlpha" operator="out"/>
<feColorMatrix type="matrix" values="0 0 0 0 0 0 0 0 0 0 0 0 0 0 0 0 0 0 0.25 0"/>
<feBlend mode="normal" in2="BackgroundImageFix" result="effect1_dropShadow_8_19"/>
<feBlend mode="normal" in="SourceGraphic" in2="effect1_dropShadow_8_19" result="shape"/>
</filter>
<linearGradient id="paint0_linear_8_19" x1="60" y1="-111.5" x2="279.5" y2="330" gradientUnits="userSpaceOnUse">
<stop stop-color="#FFB630"/>
<stop offset="1" stop-color="#FF00BA"/>
</linearGradient>
</defs>
</svg>
