<svg width="341" height="341" viewBox="0 0 341 341" fill="none" xmlns="http://www.w3.org/2000/svg">
<rect width="341" height="341" fill="url(#paint0_linear_70_25)"/>
<g filter="url(#filter0_d_70_25)">
<path fill-rule="evenodd" clip-rule="evenodd" d="M163.363 58.2111C161.731 58.3976 159.125 58.6955 156.739 59.0209C153.605 59.4008 148.573 60.2555 145.582 60.9203C142.591 61.585 137.986 62.8671 135.374 63.7218C132.763 64.624 128.585 66.2385 126.116 67.4256C123.648 68.5652 119.66 70.702 117.333 72.174C114.959 73.5985 111.351 76.2101 109.262 77.872C107.173 79.534 103.897 82.573 101.998 84.5673C100.147 86.5616 97.2506 89.933 95.6839 92.1172C94.0697 94.254 91.6484 97.9578 90.2241 100.284C88.8473 102.611 86.5209 107.217 85.0966 110.494C83.7198 113.77 81.5834 119.421 80.3965 123.077C79.257 126.733 77.5953 132.621 76.8357 136.135C76.0286 139.649 74.8892 145.537 74.3669 149.193C73.7023 153.656 73.275 159.355 73.0851 166.525C72.8952 173.362 73.0376 179.535 73.3699 183.619C73.7023 187.133 74.5094 193.116 75.1266 196.914C75.7438 200.713 77.0731 206.791 78.0226 210.447C78.9247 214.104 80.6813 219.897 81.8208 223.268C83.0077 226.639 85.0492 231.768 86.426 234.664C87.8028 237.513 90.0342 241.692 91.411 243.924C92.8353 246.155 94.9243 249.242 96.1587 250.809C97.3456 252.376 99.7194 255.13 101.429 256.934C103.138 258.739 106.129 261.54 108.075 263.155C110.022 264.769 113.44 267.286 115.672 268.71C117.903 270.182 121.891 272.461 124.55 273.791C127.256 275.12 131.861 277.02 134.757 278.064C137.701 279.062 142.448 280.439 145.344 281.103C148.193 281.768 153.036 282.718 156.027 283.193C160.015 283.763 164.43 284 172.406 284C178.578 284 185.367 283.763 188.073 283.383C190.685 283.05 195.052 282.338 197.806 281.816C200.56 281.293 205.022 280.154 207.776 279.252C210.53 278.349 215.23 276.403 218.221 274.978C221.212 273.506 225.39 271.227 227.479 269.85C229.568 268.473 233.271 265.671 235.74 263.582C238.209 261.54 241.627 258.264 243.336 256.364C245.045 254.417 247.514 251.331 248.796 249.479C250.03 247.58 251.929 244.351 252.974 242.262C254.018 240.172 255.585 236.326 256.44 233.714C257.342 231.103 258.386 226.924 258.766 224.455C259.193 221.986 259.526 217.617 259.526 214.721C259.526 211.824 259.193 207.551 258.813 205.224C258.434 202.897 257.674 199.479 257.104 197.627C256.535 195.775 255.348 192.688 254.446 190.741C253.544 188.795 251.692 185.471 250.315 183.381C248.891 181.292 246.185 177.968 244.286 175.974C242.339 174.027 239.063 171.131 236.974 169.564C234.885 168.044 231.182 165.717 228.713 164.388C226.292 163.106 223.966 161.681 223.633 161.301C223.253 160.922 222.541 157.93 222.019 154.654C221.544 151.377 220.69 147.104 220.168 145.157C219.645 143.21 218.506 139.886 217.651 137.797C216.749 135.708 215.277 132.811 214.375 131.386C213.426 129.962 211.527 127.398 210.102 125.736C208.678 124.074 205.83 121.415 203.741 119.848C201.652 118.281 198.518 116.287 196.714 115.432C194.957 114.53 191.682 113.295 189.355 112.63C187.076 111.966 182.756 111.158 179.765 110.873C175.682 110.494 172.833 110.494 168.371 110.921C165.095 111.206 160.394 112.013 157.926 112.678C155.457 113.343 151.706 114.72 149.617 115.764C147.528 116.809 144.347 118.803 142.543 120.133C140.739 121.51 137.891 124.074 136.181 125.926C134.52 127.778 132.906 129.677 132.621 130.199C132.383 130.722 132.288 131.529 132.478 132.004C132.621 132.431 134.947 134.283 137.606 136.087C140.312 137.939 143.445 140.076 144.632 140.883C146.104 141.88 147.054 142.213 147.718 142.023C148.24 141.833 150.234 140.218 152.086 138.462C154.46 136.23 156.644 134.663 158.97 133.571C160.869 132.669 163.623 131.671 165.047 131.339C166.519 130.959 169.937 130.722 172.881 130.769C175.729 130.817 179.717 131.149 181.664 131.576C183.611 132.004 186.697 133.048 188.548 133.951C190.827 135.043 192.726 136.467 194.483 138.367C195.954 139.886 197.806 142.498 198.661 144.207C199.515 145.917 200.607 148.766 201.082 150.618C201.557 152.469 201.842 154.226 201.652 154.606C201.414 155.128 200.75 155.176 198.756 154.939C197.331 154.796 193.296 154.416 189.83 154.179C185.652 153.862 180.983 153.862 175.824 154.179C171.599 154.464 166.187 155.081 163.86 155.556C161.486 156.031 157.641 157.17 155.314 158.025C152.941 158.927 149.665 160.447 147.956 161.396C146.246 162.346 143.635 164.103 142.116 165.338C140.644 166.525 138.365 168.804 137.036 170.466C135.754 172.08 133.855 175.119 132.858 177.209C131.814 179.298 130.627 182.384 130.104 184.094C129.487 186.325 129.25 188.795 129.25 193.116C129.202 197.342 129.44 199.953 130.057 202.138C130.532 203.847 131.576 206.696 132.478 208.548C133.333 210.4 135.042 213.106 136.229 214.626C137.463 216.098 139.362 218.14 140.407 219.137C141.499 220.087 143.588 221.748 145.06 222.793C146.579 223.838 149.475 225.5 151.564 226.449C153.605 227.447 157.451 228.824 160.062 229.488C164.05 230.533 165.854 230.77 171.457 230.818C175.255 230.818 179.338 230.58 180.952 230.248C182.519 229.916 185.51 229.061 187.599 228.396C189.688 227.731 192.679 226.544 194.245 225.785C195.812 224.977 198.471 223.41 200.18 222.318C201.889 221.179 204.643 218.899 206.304 217.238C208.014 215.576 210.197 213.201 211.242 211.872C212.286 210.59 213.853 208.121 214.803 206.411C215.752 204.702 217.176 201.378 218.031 199.051C218.838 196.724 220.025 192.546 220.595 189.792C221.212 187.038 221.877 184.616 222.067 184.331C222.351 184.046 223.491 184.569 225.153 185.756C226.624 186.8 229.046 188.937 230.517 190.504C231.989 192.071 234.031 194.73 235.028 196.44C236.025 198.149 237.496 201.473 238.304 203.8C239.633 207.741 239.775 208.548 239.775 214.246C239.728 219.517 239.538 221.036 238.446 224.693C237.734 227.019 236.31 230.77 235.265 233.002C234.221 235.234 232.416 238.32 231.277 239.887C230.185 241.454 227.526 244.398 225.39 246.44C223.301 248.434 219.978 251.094 218.079 252.328C216.227 253.563 212.524 255.557 209.913 256.792C207.301 257.979 203.456 259.546 201.367 260.258C199.278 260.923 195.622 261.92 193.296 262.395C190.922 262.917 186.791 263.582 184.038 263.914C180.904 264.247 176.062 264.389 170.982 264.199C166.424 264.057 160.3 263.487 156.976 262.917C153.7 262.395 149 261.398 146.531 260.733C144.063 260.068 140.407 258.833 138.46 258.074C136.514 257.266 133.618 255.984 132.051 255.225C130.484 254.417 127.398 252.518 125.167 251.046C122.935 249.527 119.47 246.63 117.428 244.683C115.434 242.689 112.443 239.318 110.876 237.181C109.262 234.997 106.604 230.438 104.989 227.067C103.328 223.695 101.334 218.947 100.527 216.62C99.7669 214.294 98.3426 209.545 97.3931 206.174C96.491 202.802 95.2092 196.819 94.5445 192.878C93.8798 188.985 93.1677 182.432 92.9303 178.396C92.7404 174.359 92.6929 167.854 92.9303 163.913C93.1202 160.019 93.6424 154.559 94.0697 151.805C94.497 149.051 95.3516 144.35 96.0162 141.358C96.6809 138.367 98.3901 132.384 99.8144 128.063C101.239 123.742 103.47 117.996 104.799 115.242C106.129 112.488 108.218 108.784 109.405 106.98C110.639 105.175 112.823 102.374 114.247 100.807C115.672 99.1923 118.093 96.7707 119.707 95.3936C121.274 93.9691 123.932 91.9273 125.642 90.7877C127.351 89.6481 130.769 87.7012 133.238 86.4666C135.707 85.2321 140.217 83.4277 143.208 82.4305C146.199 81.4808 150.899 80.2462 153.653 79.7239C156.406 79.1541 161.391 78.4893 164.81 78.157C168.418 77.872 173.213 77.7771 176.442 77.967C179.433 78.1095 184.228 78.5843 187.124 78.9642C189.972 79.3441 194.245 80.1038 196.619 80.6736C198.945 81.1959 202.696 82.2881 204.928 83.0478C207.159 83.855 211.005 85.517 213.473 86.7516C215.942 87.9861 219.788 90.3128 222.019 91.8798C224.25 93.4943 227.906 96.6757 230.233 98.9549C232.511 101.234 235.74 105.08 237.449 107.407C239.111 109.734 241.674 114.007 243.099 116.904C244.523 119.8 246.375 124.074 247.182 126.401C248.036 128.727 248.986 131.292 249.271 132.051C249.556 132.811 250.125 133.571 250.505 133.808C250.932 134.046 253.211 133.618 256.202 132.811C258.956 132.051 262.659 131.054 264.463 130.579C266.267 130.104 267.976 129.345 268.261 128.917C268.641 128.3 268.546 127.398 267.881 125.119C267.359 123.457 266.03 119.895 264.938 117.141C263.893 114.387 261.899 110.019 260.57 107.407C259.288 104.795 256.914 100.712 255.395 98.3851C253.828 96.0584 251.265 92.4971 249.698 90.5503C248.131 88.6034 244.903 85.1846 242.576 82.9528C240.203 80.7211 236.594 77.6821 234.553 76.2101C232.464 74.7381 228.856 72.4114 226.529 71.0344C224.156 69.7048 220.31 67.758 217.984 66.7133C215.61 65.6687 211.669 64.1492 209.2 63.2945C206.732 62.3923 202.744 61.2527 200.417 60.7303C198.043 60.1605 193.913 59.4008 191.159 58.9734C188.263 58.5461 182.091 58.1662 176.442 58.0712C171.077 57.9763 165.759 57.9763 164.572 58.0712C164.289 58.1052 163.874 58.1527 163.363 58.2111ZM170.982 174.644C169.13 174.882 166.187 175.499 164.335 176.069C162.483 176.591 159.777 177.731 158.211 178.538C156.691 179.393 154.412 181.102 153.178 182.432C151.849 183.856 150.567 185.898 149.95 187.513C149.237 189.364 148.905 191.311 148.905 193.448C148.905 195.917 149.19 197.294 150.14 199.289C150.852 200.808 152.371 202.85 153.795 204.179C155.172 205.461 157.641 207.171 159.35 207.931C161.059 208.738 163.908 209.688 165.759 210.067C168.038 210.542 170.507 210.685 173.593 210.542C176.109 210.352 179.575 209.83 181.427 209.26C183.278 208.69 186.032 207.551 187.599 206.744C189.165 205.889 191.634 204.037 193.106 202.612C194.53 201.188 196.287 199.051 196.999 197.864C197.664 196.677 198.803 194.113 199.515 192.166C200.18 190.219 201.177 186.515 201.652 183.951C202.126 181.435 202.554 178.681 202.554 177.921C202.554 177.066 202.221 176.306 201.747 176.069C201.272 175.831 198.328 175.309 195.195 174.882C191.776 174.407 186.507 174.122 181.901 174.17C177.723 174.217 172.833 174.407 170.982 174.644Z" fill="#F6F6F7"/>
</g>
<defs>
<filter id="filter0_d_70_25" x="41" y="26" width="259.483" height="290" filterUnits="userSpaceOnUse" color-interpolation-filters="sRGB">
<feFlood flood-opacity="0" result="BackgroundImageFix"/>
<feColorMatrix in="SourceAlpha" type="matrix" values="0 0 0 0 0 0 0 0 0 0 0 0 0 0 0 0 0 0 127 0" result="hardAlpha"/>
<feOffset/>
<feGaussianBlur stdDeviation="16"/>
<feComposite in2="hardAlpha" operator="out"/>
<feColorMatrix type="matrix" values="0 0 0 0 0 0 0 0 0 0 0 0 0 0 0 0 0 0 0.25 0"/>
<feBlend mode="normal" in2="BackgroundImageFix" result="effect1_dropShadow_70_25"/>
<feBlend mode="normal" in="SourceGraphic" in2="effect1_dropShadow_70_25" result="shape"/>
</filter>
<linearGradient id="paint0_linear_70_25" x1="22" y1="11" x2="307.5" y2="341" gradientUnits="userSpaceOnUse">
<stop stop-color="#210049"/>
<stop offset="1" stop-color="#010002"/>
</linearGradient>
</defs>
</svg>
