<svg width="256" height="256" viewBox="0 0 256 256" fill="none" xmlns="http://www.w3.org/2000/svg">
<mask id="mask0_83_331" style="mask-type:alpha" maskUnits="userSpaceOnUse" x="1" y="1" width="254" height="254">
<path d="M106.429 254.324C77.8036 252.299 57.2862 246.329 40.0761 235.018C21.6571 222.911 8.93954 200.243 3.9843 170.687C1.69292 157.021 0.962957 146.366 1.00143 127.164C1.07014 93.0812 4.72734 71.9613 13.9373 52.4684C22.7757 33.762 33.8514 22.6792 52.4395 13.9416C72.1839 4.66056 93.5545 1 127.994 1C162.433 1 183.803 4.66056 203.548 13.9416C222.119 22.6715 233.122 33.6726 242.078 52.4684C251.216 71.6451 254.915 93.0336 254.999 127.164C255.1 168.687 249.55 193.658 235.416 215.277C222.216 235.466 198.18 248.266 165.151 252.695C147.932 255.004 125.031 255.639 106.429 254.324Z" fill="white"/>
</mask>
<g mask="url(#mask0_83_331)">
<rect x="1" y="1" width="254.001" height="254.001" fill="url(#paint0_linear_83_331)"/>
<g filter="url(#filter0_d_83_331)">
<path d="M128.312 44.0681C105.434 44.0681 102.563 44.1682 93.5777 44.5771C84.6098 44.9877 78.4885 46.4076 73.1324 48.4908C67.592 50.6424 62.8922 53.5206 58.2099 58.2048C53.5242 62.8872 50.646 67.5871 48.4874 73.1259C46.399 78.484 44.9775 84.6073 44.5738 93.5719C44.1719 102.558 44.0667 105.431 44.0667 128.309C44.0667 151.187 44.1684 154.05 44.5756 163.035C44.988 172.004 46.4078 178.125 48.4892 183.481C50.6425 189.022 53.5206 193.722 58.2046 198.404C62.8851 203.09 67.5849 205.975 73.1218 208.127C78.4815 210.21 84.6046 211.63 93.5707 212.041C102.556 212.45 105.425 212.55 128.301 212.55C151.181 212.55 154.043 212.45 163.029 212.041C171.997 211.63 178.125 210.21 183.485 208.127C189.023 205.975 193.716 203.09 198.396 198.404C203.082 193.722 205.96 189.022 208.119 183.483C210.19 178.125 211.611 172.002 212.033 163.037C212.436 154.052 212.542 151.187 212.542 128.309C212.542 105.431 212.436 102.559 212.033 93.5736C211.611 84.6055 210.19 78.484 208.119 73.1277C205.96 67.5871 203.082 62.8872 198.396 58.2048C193.711 53.5189 189.025 50.6407 183.479 48.4908C178.109 46.4076 171.984 44.9877 163.016 44.5771C154.031 44.1682 151.17 44.0681 128.286 44.0681H128.312ZM120.755 59.249C122.998 59.2455 125.501 59.249 128.312 59.249C150.804 59.249 153.469 59.3297 162.351 59.7334C170.565 60.109 175.022 61.4814 177.992 62.6344C181.923 64.1613 184.725 65.9865 187.672 68.935C190.62 71.8834 192.445 74.6914 193.976 78.6227C195.129 81.5886 196.503 86.0464 196.877 94.2599C197.28 103.14 197.368 105.808 197.368 128.29C197.368 150.771 197.28 153.439 196.877 162.319C196.501 170.533 195.129 174.991 193.976 177.957C192.449 181.888 190.62 184.687 187.672 187.634C184.724 190.582 181.924 192.407 177.992 193.934C175.026 195.093 170.565 196.462 162.351 196.837C153.471 197.241 150.804 197.329 128.312 197.329C105.819 197.329 103.153 197.241 94.2727 196.837C86.0594 196.458 81.6018 195.086 78.6307 193.933C74.6996 192.406 71.8916 190.58 68.9433 187.632C65.9949 184.684 64.1698 181.883 62.6394 177.95C61.4864 174.984 60.1123 170.526 59.7385 162.312C59.3348 153.432 59.2541 150.764 59.2541 128.269C59.2541 105.773 59.3348 103.119 59.7385 94.2388C60.114 86.0253 61.4864 81.5676 62.6394 78.5981C64.1663 74.6668 65.9949 71.8588 68.9433 68.9104C71.8916 65.962 74.6996 64.1367 78.6307 62.6064C81.6001 61.4481 86.0594 60.0791 94.2727 59.7018C102.044 59.3508 105.055 59.2455 120.755 59.228V59.249ZM173.278 73.2365C167.697 73.2365 163.169 77.7592 163.169 83.3419C163.169 88.9228 167.697 93.4508 173.278 93.4508C178.858 93.4508 183.386 88.9228 183.386 83.3419C183.386 77.7609 178.858 73.233 173.278 73.233V73.2365ZM128.312 85.0478C104.422 85.0478 85.0521 104.418 85.0521 128.309C85.0521 152.2 104.422 171.561 128.312 171.561C152.202 171.561 171.565 152.2 171.565 128.309C171.565 104.418 152.202 85.0478 128.312 85.0478ZM128.312 100.229C143.819 100.229 156.391 112.8 156.391 128.309C156.391 143.816 143.819 156.389 128.312 156.389C112.803 156.389 100.233 143.816 100.233 128.309C100.233 112.8 112.803 100.229 128.312 100.229Z" fill="white"/>
</g>
</g>
<defs>
<filter id="filter0_d_83_331" x="-3.93335" y="-3.93188" width="264.475" height="264.482" filterUnits="userSpaceOnUse" color-interpolation-filters="sRGB">
<feFlood flood-opacity="0" result="BackgroundImageFix"/>
<feColorMatrix in="SourceAlpha" type="matrix" values="0 0 0 0 0 0 0 0 0 0 0 0 0 0 0 0 0 0 127 0" result="hardAlpha"/>
<feOffset/>
<feGaussianBlur stdDeviation="24"/>
<feComposite in2="hardAlpha" operator="out"/>
<feColorMatrix type="matrix" values="0 0 0 0 0 0 0 0 0 0 0 0 0 0 0 0 0 0 0.25 0"/>
<feBlend mode="normal" in2="BackgroundImageFix" result="effect1_dropShadow_83_331"/>
<feBlend mode="normal" in="SourceGraphic" in2="effect1_dropShadow_83_331" result="shape"/>
</filter>
<linearGradient id="paint0_linear_83_331" x1="45.6922" y1="-82.053" x2="209.191" y2="246.807" gradientUnits="userSpaceOnUse">
<stop stop-color="#FFB630"/>
<stop offset="1" stop-color="#FF00BA"/>
</linearGradient>
</defs>
</svg>
