<svg width="256" height="256" viewBox="0 0 256 256" fill="none" xmlns="http://www.w3.org/2000/svg">
<path d="M128 1V65H8.87476C10.3319 60.6829 12.0134 56.5402 13.9373 52.4684C22.7756 33.762 33.8514 22.6792 52.4395 13.9416C72.1839 4.66056 93.5545 1 127.994 1C127.996 1 127.998 1 128 1Z" fill="#32C58A"/>
<path d="M128 1C162.435 1.00044 183.804 4.66112 203.548 13.9416C222.119 22.6715 233.122 33.6726 242.078 52.4684C244.006 56.5142 245.692 60.6584 247.152 65H128V1Z" fill="#4BDFA6"/>
<path d="M8.87476 65H128V129H1.00014C1.00005 128.858 1 128.716 1 128.573C1 128.108 1.00048 127.639 1.00143 127.164C1.05579 100.201 3.35605 81.3501 8.87476 65Z" fill="#169655"/>
<path d="M255 128.327C255 128.552 255 128.776 254.999 129H128V65H247.152C252.616 81.2371 254.933 100.234 254.999 127.164C255 127.518 255 127.871 255 128.222C255 128.257 255 128.292 255 128.327Z" fill="#2DBB80"/>
<path d="M1.00012 129H128V191H8.95518C6.85779 184.673 5.19091 177.884 3.98429 170.687C1.76697 157.462 1.01176 147.058 1.00012 129Z" fill="#1D6A41"/>
<path d="M254.999 129C254.957 155.183 252.596 174.706 247.154 191H128V129H254.999Z" fill="#148D4E"/>
<path d="M40.0761 235.018C57.2862 246.329 77.8036 252.299 106.429 254.324C112.848 254.778 119.779 254.999 126.812 255C126.837 255 126.862 255 126.886 255C127.257 255 127.629 254.999 128 254.998V191H8.9552C15.4712 210.656 26.1422 225.859 40.0761 235.018Z" fill="#1C7145"/>
<path d="M247.154 191C244.194 199.864 240.322 207.773 235.416 215.277C222.216 235.466 198.18 248.266 165.151 252.695C154.208 254.162 140.971 254.954 128 254.998V191H247.154Z" fill="#195E38"/>
<g style="mix-blend-mode:soft-light">
<path d="M40.076 235.018C57.2862 246.33 77.8036 252.299 106.429 254.323C125.031 255.639 147.932 255.004 165.151 252.695C198.18 248.266 222.216 235.466 235.416 215.277C249.409 193.874 254.989 169.185 255 128.4C255 128.316 255 128.233 255 128.149C255 127.822 254.999 127.494 254.999 127.164C254.915 93.0337 251.216 71.645 242.078 52.4685C233.122 33.6726 222.119 22.6716 203.548 13.9417C183.803 4.66064 162.433 1 127.994 1C93.5544 1 72.1838 4.66064 52.4394 13.9417C33.8513 22.6792 22.7756 33.762 13.9372 52.4685C4.72726 71.9612 1.07016 93.0811 1.00143 127.164C0.962979 146.366 1.69284 157.021 3.98422 170.687C8.93954 200.243 21.6571 222.911 40.076 235.018Z" fill="url(#paint0_linear_83_315)"/>
</g>
<path d="M72 191L112.929 127.826L75.4285 65H105.594L126.059 105.178C127.948 108.995 129.243 111.828 129.944 113.7H130.209C131.553 110.655 132.969 107.698 134.455 104.829L156.331 65.0212H184.023L145.568 127.477L185 191H155.535L131.897 146.899C130.783 145.023 129.838 143.052 129.073 141.01H128.723C128.031 143.011 127.112 144.926 125.984 146.72L101.646 191H72Z" fill="white"/>
<defs>
<linearGradient id="paint0_linear_83_315" x1="128" y1="1" x2="128" y2="255" gradientUnits="userSpaceOnUse">
<stop stop-color="#A5A4A4"/>
<stop offset="1" stop-color="#656565"/>
</linearGradient>
</defs>
</svg>
