<svg width="256" height="256" viewBox="0 0 256 256" fill="none" xmlns="http://www.w3.org/2000/svg">
<path d="M106.429 254.324C77.8036 252.299 57.2862 246.329 40.0761 235.018C21.6571 222.911 8.93954 200.243 3.9843 170.687C1.69292 157.021 0.962957 146.366 1.00143 127.164C1.07014 93.0812 4.72734 71.9613 13.9373 52.4684C22.7757 33.762 33.8514 22.6792 52.4395 13.9416C72.1839 4.66056 93.5545 1 127.994 1C162.433 1 183.803 4.66056 203.548 13.9416C222.119 22.6715 233.122 33.6726 242.078 52.4684C251.216 71.6451 254.915 93.0336 254.999 127.164C255.1 168.687 249.55 193.658 235.416 215.277C222.216 235.466 198.18 248.266 165.151 252.695C147.932 255.004 125.031 255.639 106.429 254.324Z" fill="#C865E7"/>
<path d="M247.152 65C252.605 81.2041 254.924 100.157 254.998 127H184V65H247.152Z" fill="#AC4CD2"/>
<path d="M255 128.327C254.997 154.849 252.642 174.567 247.154 191H184V127H254.998C254.998 127.055 254.999 127.11 254.999 127.164C255 127.518 255 127.871 255 128.222C255 128.257 255 128.292 255 128.327Z" fill="#9233BC"/>
<path d="M247.154 191C244.194 199.864 240.322 207.773 235.416 215.277C224.875 231.399 207.423 242.81 184 249.008V191H247.154Z" fill="#761BA8"/>
<g style="mix-blend-mode:soft-light">
<path d="M40.076 235.018C57.2862 246.33 77.8036 252.299 106.429 254.323C125.031 255.639 147.932 255.004 165.151 252.695C198.18 248.266 222.216 235.466 235.416 215.277C249.409 193.874 254.989 169.185 255 128.4C255 128.316 255 128.233 255 128.149C255 127.822 254.999 127.494 254.999 127.164C254.915 93.0337 251.216 71.645 242.078 52.4685C233.122 33.6726 222.119 22.6716 203.548 13.9417C183.803 4.66064 162.433 1 127.994 1C93.5544 1 72.1838 4.66064 52.4394 13.9417C33.8513 22.6792 22.7756 33.762 13.9372 52.4685C4.72726 71.9612 1.07016 93.0811 1.00143 127.164C0.962979 146.366 1.69284 157.021 3.98422 170.687C8.93954 200.243 21.6571 222.911 40.076 235.018Z" fill="url(#paint0_linear_97_1478)"/>
</g>
<path d="M184 191H155.443L103.674 111.833C100.637 107.205 98.5346 103.72 97.3667 101.377H97.0163C97.4835 105.828 97.7171 112.623 97.7171 121.762V191H71V65H101.484L151.326 141.707C153.604 145.163 155.706 148.59 157.633 151.987H157.984C157.517 149.059 157.283 143.289 157.283 134.678V65H184V191Z" fill="white"/>
<defs>
<linearGradient id="paint0_linear_97_1478" x1="128" y1="1" x2="128" y2="255" gradientUnits="userSpaceOnUse">
<stop stop-color="#A5A4A4"/>
<stop offset="1" stop-color="#656565"/>
</linearGradient>
</defs>
</svg>
