<svg width="256" height="256" viewBox="0 0 256 256" fill="none" xmlns="http://www.w3.org/2000/svg">
<mask id="mask0_83_317" style="mask-type:alpha" maskUnits="userSpaceOnUse" x="1" y="1" width="254" height="254">
<path d="M106.429 254.324C77.8036 252.299 57.2862 246.329 40.0761 235.018C21.6571 222.911 8.93954 200.243 3.9843 170.687C1.69292 157.021 0.962957 146.366 1.00143 127.164C1.07014 93.0812 4.72734 71.9613 13.9373 52.4684C22.7757 33.762 33.8514 22.6792 52.4395 13.9416C72.1839 4.66056 93.5545 1 127.994 1C162.433 1 183.803 4.66056 203.548 13.9416C222.119 22.6715 233.122 33.6726 242.078 52.4684C251.216 71.6451 254.915 93.0336 254.999 127.164C255.1 168.687 249.55 193.658 235.416 215.277C222.216 235.466 198.18 248.266 165.151 252.695C147.932 255.004 125.031 255.639 106.429 254.324Z" fill="white"/>
</mask>
<g mask="url(#mask0_83_317)">
<rect x="1" y="1.74268" width="254.001" height="253.257" fill="url(#paint0_linear_83_317)"/>
<path d="M244.166 1.00001L70.8336 1.00001C64.8535 1.00001 60 1 60 1V69.5751L160.455 99L255 69.5751V1C255 1 250.151 1.00001 244.166 1.00001Z" fill="#41A5EE"/>
<path d="M255 70.0698H59.8446V128.342L160.38 145.824L255 128.342V70.0698Z" fill="#2B7CD3"/>
<path d="M59.8448 128.744V186.921L154.465 198.556L255 186.921V128.744H59.8448Z" fill="#185ABD"/>
<path d="M70.6868 255H244.158C250.143 255 255 255 255 255V187.415H59.8448V255C59.8448 255 64.6971 255 70.6868 255Z" fill="#103F91"/>
<path opacity="0.1" d="M131.697 58.1868H59.8446V204.495H131.697C137.669 204.475 142.505 199.686 142.524 193.769V68.9128C142.505 62.9962 137.669 58.2065 131.697 58.1868Z" fill="black"/>
<path opacity="0.2" d="M125.747 64.1289H59.8448V210.437H125.747C131.714 210.418 136.546 205.628 136.566 199.711V74.8549C136.541 68.9383 131.709 64.1487 125.747 64.1289Z" fill="black"/>
<path opacity="0.2" d="M125.747 64.1289H59.8448V198.554H125.747C131.714 198.535 136.546 193.751 136.566 187.843V74.8407C136.541 68.9319 131.709 64.1487 125.747 64.1289Z" fill="black"/>
<path opacity="0.2" d="M119.796 64.1289H59.8448V198.554H119.796C125.759 198.535 130.587 193.751 130.607 187.843V74.8407C130.582 68.9319 125.759 64.1487 119.796 64.1289Z" fill="black"/>
<path d="M11.8006 64.1289H119.806C125.768 64.1289 130.606 68.9511 130.606 74.8945V182.59C130.606 188.538 125.773 193.356 119.806 193.356H11.8006C5.83379 193.356 1.00003 188.533 1.00003 182.59V74.8945C1.00003 68.9511 5.83379 64.1289 11.8006 64.1289Z" fill="url(#paint1_linear_83_317)"/>
<path d="M45.6368 146.67C45.8498 148.327 45.9885 149.767 46.0578 151.003H46.3054C46.3995 149.831 46.5976 148.421 46.8948 146.769C47.192 145.117 47.4644 143.722 47.7021 142.579L59.0733 93.8602H73.7726L85.5648 141.847C86.2483 144.83 86.7386 147.857 87.0308 150.9H87.224C87.4419 147.946 87.8529 145.013 88.4522 142.114L97.8572 93.8354H111.239L94.7173 163.647H79.0868L67.884 117.411C67.5621 116.08 67.1906 114.344 66.7796 112.202C66.3685 110.06 66.1209 108.502 66.0169 107.518H65.8237C65.6949 108.656 65.4423 110.342 65.061 112.578C64.6846 114.814 64.3825 116.471 64.1547 117.545L53.6205 163.632H37.7226L21.1115 93.8651H34.7312L44.9732 142.683C45.2109 143.682 45.4288 145.018 45.6368 146.67Z" fill="white"/>
<g style="mix-blend-mode:soft-light">
<rect x="1" y="1" width="254.001" height="254" fill="url(#paint2_linear_83_317)"/>
</g>
</g>
<defs>
<linearGradient id="paint0_linear_83_317" x1="128" y1="1.74268" x2="128" y2="255" gradientUnits="userSpaceOnUse">
<stop stop-color="#41A5EE"/>
<stop offset="1" stop-color="#103F91"/>
</linearGradient>
<linearGradient id="paint1_linear_83_317" x1="23.6689" y1="55.5702" x2="108.281" y2="201.714" gradientUnits="userSpaceOnUse">
<stop stop-color="#2368C4"/>
<stop offset="0.5" stop-color="#1A5DBE"/>
<stop offset="1" stop-color="#1146AC"/>
</linearGradient>
<linearGradient id="paint2_linear_83_317" x1="12.1731" y1="-4.57017" x2="254.239" y2="255.708" gradientUnits="userSpaceOnUse">
<stop stop-color="#BBBBBB"/>
<stop offset="1" stop-color="#5B5A5A"/>
</linearGradient>
</defs>
</svg>
