<svg width="256" height="256" viewBox="0 0 256 256" fill="none" xmlns="http://www.w3.org/2000/svg">
<path d="M247.152 65H8.87476C10.3319 60.6829 12.0134 56.5402 13.9373 52.4684C22.7756 33.762 33.8514 22.6792 52.4395 13.9416C72.1839 4.66056 93.5545 1 127.994 1C162.433 1 183.803 4.66056 203.548 13.9416C222.119 22.6715 233.122 33.6726 242.078 52.4684C244.006 56.5142 245.692 60.6584 247.152 65Z" fill="#4BB1F1"/>
<path d="M255 128H1.00024C1.00048 127.723 1.00087 127.445 1.00144 127.164C1.05579 100.201 3.35605 81.3501 8.87476 65H247.152C252.616 81.2371 254.933 100.234 254.999 127.164C254.999 127.444 255 127.722 255 128Z" fill="#2C7DD3"/>
<path d="M246.815 192H9.29158C7.03541 185.39 5.25474 178.265 3.9843 170.687C1.74956 157.358 1 146.895 1 128.573C1 128.383 1.00008 128.192 1.00024 128H255C255 128.074 255 128.148 255 128.222C255 128.257 255 128.292 255 128.327C254.997 155.389 252.545 175.367 246.815 192Z" fill="#1657BC"/>
<path d="M40.0761 235.018C57.2863 246.329 77.8036 252.299 106.429 254.324C112.848 254.778 119.779 254.999 126.812 255C126.837 255 126.862 255 126.887 255C140.211 254.999 153.895 254.204 165.152 252.695C198.18 248.266 222.216 235.466 235.416 215.277C240.137 208.056 243.9 200.461 246.815 192H9.29163C15.8355 211.172 26.3794 226.015 40.0761 235.018Z" fill="#0D398D"/>
<g style="mix-blend-mode:soft-light">
<path d="M40.076 235.018C57.2862 246.33 77.8036 252.299 106.429 254.323C125.031 255.639 147.932 255.004 165.151 252.695C198.18 248.266 222.216 235.466 235.416 215.277C249.409 193.874 254.989 169.185 255 128.4C255 128.316 255 128.233 255 128.149C255 127.822 254.999 127.494 254.999 127.164C254.915 93.0337 251.216 71.645 242.078 52.4685C233.122 33.6726 222.119 22.6716 203.548 13.9417C183.803 4.66064 162.433 1 127.994 1C93.5544 1 72.1838 4.66064 52.4394 13.9417C33.8513 22.6792 22.7756 33.762 13.9372 52.4685C4.72726 71.9612 1.07016 93.0811 1.00143 127.164C0.962979 146.366 1.69284 157.021 3.98422 170.687C8.93954 200.243 21.6571 222.911 40.076 235.018Z" fill="url(#paint0_linear_83_317)"/>
</g>
<path d="M89.8994 161.116C90.2893 164.131 90.5432 166.749 90.6701 168.999H91.1235C91.2957 166.866 91.6584 164.302 92.2024 161.296C92.7464 158.291 93.2451 155.753 93.6803 153.674L114.498 65.045H141.409L162.997 152.342C164.248 157.769 165.146 163.276 165.681 168.81H166.034C166.433 163.438 167.186 158.102 168.283 152.828L185.501 65H210L179.753 192H151.137L130.628 107.888C130.039 105.468 129.359 102.309 128.606 98.4125C127.854 94.5161 127.4 91.6814 127.21 89.8907H126.856C126.621 91.9604 126.158 95.029 125.46 99.0964C124.771 103.164 124.218 106.178 123.801 108.131L104.515 191.973H75.4105L45 65.054H69.9341L88.6845 153.863C89.1197 155.681 89.5186 158.111 89.8994 161.116Z" fill="white"/>
<defs>
<linearGradient id="paint0_linear_83_317" x1="128" y1="1" x2="128" y2="255" gradientUnits="userSpaceOnUse">
<stop stop-color="#A5A4A4"/>
<stop offset="1" stop-color="#656565"/>
</linearGradient>
</defs>
</svg>
