<svg width="256" height="256" viewBox="0 0 256 256" fill="none" xmlns="http://www.w3.org/2000/svg">
<path d="M106.429 254.324C77.8036 252.299 57.2862 246.329 40.0761 235.018C21.6571 222.911 8.93954 200.243 3.9843 170.687C1.69292 157.021 0.962957 146.366 1.00143 127.164C1.07014 93.0812 4.72734 71.9613 13.9373 52.4684C22.7757 33.762 33.8514 22.6792 52.4395 13.9416C72.1839 4.66056 93.5545 1 127.994 1C162.433 1 183.803 4.66056 203.548 13.9416C222.119 22.6715 233.122 33.6726 242.078 52.4684C251.216 71.6451 254.915 93.0336 254.999 127.164C255.1 168.687 249.55 193.658 235.416 215.277C222.216 235.466 198.18 248.266 165.151 252.695C147.932 255.004 125.031 255.639 106.429 254.324Z" fill="url(#paint0_linear_83_321)"/>
<path d="M123.797 190.769C123.754 194.552 122.213 198.171 119.501 200.85C116.75 203.566 113.019 205.093 109.129 205.093H65.1232C61.2328 205.093 57.5018 203.566 54.7509 200.85C52.0123 198.146 50.4684 194.482 50.4547 190.659V176.491H84.8147C83.7413 176.843 82.7546 177.439 81.9399 178.243C80.5645 179.602 79.7917 181.444 79.7917 183.365C79.7917 185.286 80.5645 187.128 81.9399 188.486C83.3154 189.844 85.1809 190.607 87.126 190.607C89.0712 190.607 90.9367 189.844 92.3121 188.486C93.6876 187.128 94.4603 185.286 94.4603 183.365C94.4603 181.444 93.6876 179.602 92.3121 178.243C91.4974 177.439 90.5107 176.843 89.4374 176.491H123.797V190.769Z" fill="#9DA2AB"/>
<path d="M89.4323 176.49C88.6951 176.248 87.9172 176.122 87.126 176.122C86.3349 176.122 85.5569 176.248 84.8197 176.49H50.4547V147.153H123.797V176.49H89.4323Z" fill="#ACB0B8"/>
<path d="M123.797 118.549H50.4547V147.152H123.797V118.549Z" fill="#C4C6CC"/>
<path d="M54.7509 93.4536C52 96.1701 50.4546 99.8544 50.4546 103.696V118.548H123.796V103.527C123.752 99.7464 122.212 96.1302 119.501 93.4536C116.75 90.7371 113.019 89.2109 109.129 89.2109H65.1232C61.2328 89.2109 57.5018 90.7371 54.7509 93.4536Z" fill="white"/>
<g style="mix-blend-mode:soft-light">
<path d="M50.4546 103.696C50.4546 99.8544 52 96.1701 54.7509 93.4536C57.5018 90.7371 61.2328 89.2109 65.1232 89.2109H109.129C113.019 89.2109 116.75 90.7371 119.501 93.4536C122.252 96.1701 123.797 99.8544 123.797 103.696V190.607C123.797 194.449 122.252 198.133 119.501 200.85C116.75 203.566 113.019 205.093 109.129 205.093H65.1232C61.2328 205.093 57.5018 203.566 54.7509 200.85C52 198.133 50.4546 194.449 50.4546 190.607V103.696ZM94.4603 183.365C94.4603 181.444 93.6876 179.602 92.3121 178.243C90.9367 176.885 89.0712 176.122 87.126 176.122C85.1808 176.122 83.3153 176.885 81.9399 178.243C80.5644 179.602 79.7917 181.444 79.7917 183.365C79.7917 185.286 80.5644 187.128 81.9399 188.486C83.3153 189.844 85.1808 190.607 87.126 190.607C89.0712 190.607 90.9367 189.844 92.3121 188.486C93.6876 187.128 94.4603 185.286 94.4603 183.365Z" fill="url(#paint1_linear_83_321)"/>
</g>
<path fill-rule="evenodd" clip-rule="evenodd" d="M63.5359 82V72.6311C63.5347 68.8414 64.966 65.1913 67.5428 62.4125C70.1196 59.6338 73.6515 57.9316 77.4305 57.6474L78.5571 57.6099H183.706C187.495 57.6087 191.145 59.0399 193.924 61.6167C196.703 64.1936 198.405 67.7255 198.689 71.5045L198.727 72.6311V147.737C198.728 151.527 197.297 155.177 194.72 157.956C192.143 160.734 188.611 162.437 184.832 162.721L183.706 162.758H131V102.374C131 91.1217 122.046 82 111 82H63.5359ZM131 185.29V170.269H198.727C200.641 170.271 202.482 171.004 203.874 172.318C205.266 173.632 206.104 175.428 206.216 177.339C206.328 179.25 205.707 181.132 204.478 182.6C203.249 184.068 201.506 185.011 199.605 185.238L198.727 185.29H131Z" fill="white"/>
<defs>
<linearGradient id="paint0_linear_83_321" x1="128" y1="1" x2="128" y2="255" gradientUnits="userSpaceOnUse">
<stop stop-color="#1D62A4"/>
<stop offset="1" stop-color="#185085"/>
</linearGradient>
<linearGradient id="paint1_linear_83_321" x1="87.126" y1="89.2109" x2="87.126" y2="205.093" gradientUnits="userSpaceOnUse">
<stop stop-color="white"/>
<stop offset="1" stop-color="#9EAED0"/>
</linearGradient>
</defs>
</svg>
