<svg width="341" height="341" viewBox="0 0 341 341" fill="none" xmlns="http://www.w3.org/2000/svg">
<g clip-path="url(#clip0_25_1467)">
<rect width="341" height="341" fill="url(#paint0_linear_25_1467)"/>
<rect x="79" width="170" height="171" fill="#FF8F6B"/>
<rect x="249" width="92" height="171" fill="#D35230"/>
<rect x="249" y="171" width="92" height="170" fill="#A94226"/>
<rect x="79" y="171" width="170" height="170" fill="#ED6C47"/>
<path d="M275 188L249.435 0H247.526C154.564 0.272149 79.2714 75.7746 79 168.995V170.909L275 188Z" fill="#ED6C47"/>
<path d="M250.915 0H249V170.833L334.5 205L420 170.833V168.92C419.728 75.741 344.185 0.272029 250.915 0Z" fill="#FF8F6B"/>
<path d="M420 171V172.87C419.733 265.615 344.393 340.734 251.376 341H247.625C154.607 340.734 79.2669 265.615 79 172.87V171H420Z" fill="#D35230"/>
<mask id="mask0_25_1467" style="mask-type:alpha" maskUnits="userSpaceOnUse" x="79" y="0" width="341" height="341">
<path d="M275 188L249.435 0H247.526C154.564 0.272149 79.2714 75.7746 79 168.995V170.909L275 188Z" fill="#D9D9D9"/>
<path d="M420 171V172.87C419.733 265.615 344.393 340.734 251.376 341H247.625C154.607 340.734 79.2669 265.615 79 172.87V171H420Z" fill="#D9D9D9"/>
</mask>
<g mask="url(#mask0_25_1467)">
<path opacity="0.1" d="M190.477 90.6098V258.753C190.437 264.595 186.879 269.844 181.448 272.068C179.719 272.796 177.861 273.171 175.983 273.172H61.5403C59.3227 270.65 57.1844 267.971 55.2044 265.292C35.0267 238.514 24.132 205.942 24.1582 172.475V169.008C24.112 138.821 32.9798 109.286 49.6604 84.0699C51.4028 81.391 53.2243 78.712 55.2044 76.1907H175.983C183.963 76.2508 190.417 82.6714 190.477 90.6098Z" fill="black"/>
<path opacity="0.2" d="M182.114 98.1111V267.047C182.114 268.924 181.738 270.781 181.009 272.509C178.779 277.937 173.518 281.495 167.661 281.534H68.6229C66.1241 278.991 63.7265 276.35 61.4359 273.618C59.2245 271.084 57.0921 268.393 55.1176 265.701C34.9963 238.796 24.132 206.071 24.1582 172.446V168.963C24.1121 138.634 32.9551 108.959 49.5891 83.624H167.661C175.619 83.6843 182.054 90.1352 182.114 98.1111Z" fill="black"/>
<path opacity="0.2" d="M182.114 98.04V250.393C182.054 258.33 175.619 264.749 167.662 264.809H55.1176C34.9964 238.036 24.132 205.471 24.1582 172.011V168.545C24.1121 138.364 32.9551 108.835 49.5892 83.624H167.661C175.619 83.6838 182.054 90.1031 182.114 98.04Z" fill="black"/>
<path opacity="0.2" d="M174.681 98.04V250.393C174.621 258.33 168.165 264.749 160.184 264.809H55.2135C35.0299 238.036 24.132 205.471 24.1582 172.011V168.545C24.1119 138.364 32.9824 108.835 49.6679 83.624H160.183C168.165 83.6838 174.621 90.1031 174.681 98.04Z" fill="black"/>
</g>
<path d="M14.5541 83.624H160.127C168.165 83.624 174.681 90.1055 174.681 98.1006V242.899C174.681 250.895 168.165 257.376 160.127 257.376H14.5541C6.51619 257.376 0 250.895 0 242.899V98.1006C0 90.1055 6.51619 83.624 14.5541 83.624Z" fill="url(#paint1_linear_25_1467)"/>
<path d="M88.6683 121.811C98.1584 121.167 107.567 123.939 115.211 129.631C121.586 135.354 124.993 143.706 124.451 152.283C124.555 158.245 122.975 164.115 119.894 169.21C116.776 174.218 112.283 178.212 106.957 180.709C100.869 183.556 94.2123 184.962 87.4993 184.818H69.0595V219.281H50.1744V121.811H88.6683ZM69.0437 169.93H85.2969C90.4495 170.311 95.562 168.777 99.6655 165.62C103.06 162.347 104.838 157.73 104.524 153.011C104.524 142.27 98.3164 136.899 85.9013 136.899H69.0439L69.0437 169.93Z" fill="white"/>
<g style="mix-blend-mode:soft-light">
<rect width="341" height="342" fill="url(#paint2_linear_25_1467)"/>
</g>
</g>
<defs>
<linearGradient id="paint0_linear_25_1467" x1="170.5" y1="0" x2="170.5" y2="341" gradientUnits="userSpaceOnUse">
<stop stop-color="#FF8F6B"/>
<stop offset="1" stop-color="#ED6C47"/>
</linearGradient>
<linearGradient id="paint1_linear_25_1467" x1="30.3457" y1="72.3122" x2="143.426" y2="269.21" gradientUnits="userSpaceOnUse">
<stop stop-color="#CA4C28"/>
<stop offset="0.5" stop-color="#C5401E"/>
<stop offset="1" stop-color="#B62F14"/>
</linearGradient>
<linearGradient id="paint2_linear_25_1467" x1="15" y1="-7.49999" x2="341" y2="342" gradientUnits="userSpaceOnUse">
<stop stop-color="#BBBBBB"/>
<stop offset="1" stop-color="#5B5A5A"/>
</linearGradient>
<clipPath id="clip0_25_1467">
<rect width="341" height="341" fill="white"/>
</clipPath>
</defs>
</svg>
