<svg width="256" height="256" viewBox="0 0 256 256" fill="none" xmlns="http://www.w3.org/2000/svg">
<path d="M128 1V128H1C1.00023 127.723 1.00063 127.445 1.00119 127.164C1.0699 93.0812 4.7271 71.9613 13.937 52.4684C22.7754 33.762 33.8511 22.6792 52.4392 13.9416C72.1837 4.66056 93.5543 1 127.993 1C127.996 1 127.998 1 128 1Z" fill="#F0764F"/>
<path d="M40.0761 235.018C57.2862 246.329 77.8036 252.299 106.429 254.324C112.848 254.778 119.779 254.999 126.812 255C126.837 255 126.862 255 126.886 255C140.211 254.999 153.895 254.204 165.151 252.695C198.18 248.266 222.216 235.466 235.416 215.277C249.418 193.861 254.995 169.155 255 128.327C255 128.292 255 128.257 255 128.222C255 128.148 255 128.074 255 128H1.00024C1.00008 128.192 1 128.383 1 128.573C1 146.895 1.74956 157.358 3.9843 170.687C8.93954 200.243 21.6571 222.911 40.0761 235.018Z" fill="#D14C2A"/>
<path d="M128 1C162.435 1.00044 183.804 4.66112 203.548 13.9416C222.119 22.6715 233.122 33.6726 242.078 52.4684C251.216 71.6451 254.915 93.0336 254.999 127.164C254.999 127.444 255 127.722 255 128H128V1Z" fill="#FF8E69"/>
<g style="mix-blend-mode:soft-light">
<path d="M40.076 235.018C57.2862 246.33 77.8036 252.299 106.429 254.323C125.031 255.639 147.932 255.004 165.151 252.695C198.18 248.266 222.216 235.466 235.416 215.277C249.409 193.874 254.989 169.185 255 128.4C255 128.316 255 128.233 255 128.149C255 127.822 254.999 127.494 254.999 127.164C254.915 93.0337 251.216 71.645 242.078 52.4685C233.122 33.6726 222.119 22.6716 203.548 13.9417C183.803 4.66064 162.433 1 127.994 1C93.5544 1 72.1838 4.66064 52.4394 13.9417C33.8513 22.6792 22.7756 33.762 13.9372 52.4685C4.72726 71.9612 1.07016 93.0811 1.00143 127.164C0.962979 146.366 1.69284 157.021 3.98422 170.687C8.93954 200.243 21.6571 222.911 40.076 235.018Z" fill="url(#paint0_linear_83_319)"/>
</g>
<path d="M131.715 65.1181C143.971 64.2864 156.122 67.8664 165.994 75.2177C174.228 82.6096 178.628 93.3961 177.927 104.473C178.062 112.173 176.021 119.754 172.043 126.335C168.015 132.802 162.212 137.959 155.335 141.184C147.472 144.862 138.875 146.677 130.205 146.492H106.39V191H82V65.1181H131.715ZM106.37 127.264H127.361C134.015 127.755 140.618 125.775 145.918 121.698C150.301 117.47 152.598 111.507 152.192 105.413C152.192 91.5407 144.175 84.6046 128.141 84.6046H106.37L106.37 127.264Z" fill="white"/>
<defs>
<linearGradient id="paint0_linear_83_319" x1="128" y1="1" x2="128" y2="255" gradientUnits="userSpaceOnUse">
<stop stop-color="#A5A4A4"/>
<stop offset="1" stop-color="#656565"/>
</linearGradient>
</defs>
</svg>
