<svg width="192" height="192" viewBox="0 0 192 192" fill="none" xmlns="http://www.w3.org/2000/svg">
<path d="M79.8641 190.494C58.4515 188.98 43.1039 184.514 30.2301 176.052C16.4521 166.996 6.93903 150.04 3.23235 127.931C1.51833 117.708 0.97229 109.739 1.00107 95.3749C1.05247 69.8796 3.78817 54.0812 10.6775 39.5C17.2889 25.507 25.5739 17.2167 39.4783 10.6808C54.2478 3.73821 70.2337 1 95.9953 1C121.757 1 137.743 3.73821 152.512 10.6808C166.404 17.211 174.634 25.4402 181.334 39.5C188.169 53.8447 190.937 69.844 190.999 95.3749C191.075 126.435 186.923 145.115 176.35 161.286C166.477 176.388 148.497 185.963 123.79 189.276C110.91 191.003 93.7794 191.478 79.8641 190.494Z" fill="#1B1E62"/>
<path fill-rule="evenodd" clip-rule="evenodd" d="M30.2301 176.052C43.1039 184.514 58.4515 188.98 79.8641 190.494C84.481 190.82 89.4518 190.986 94.5039 190.999V96H1.00018C1.00006 96.1435 1 96.2863 1 96.4285C1 110.134 1.5607 117.961 3.23235 127.931C6.93903 150.04 16.4521 166.996 30.2301 176.052Z" fill="#6C73DF"/>
<path fill-rule="evenodd" clip-rule="evenodd" d="M191 96.3169C190.99 126.814 186.816 145.279 176.35 161.286C166.477 176.388 148.497 185.963 123.79 189.276C115.183 190.43 104.679 191.025 94.5039 190.999V96H191C191 96.0313 191 96.0626 191 96.0939C191 96.1683 191 96.2427 191 96.3169Z" fill="#4148B8"/>
<circle cx="142.752" cy="62.7124" r="22.815" fill="#4148B8"/>
<ellipse cx="52.9882" cy="57.4765" rx="28.0512" ry="28.0512" fill="#6C73DF"/>
<g style="mix-blend-mode:soft-light">
<path d="M30.2301 176.053C43.1039 184.514 58.4515 188.98 79.8641 190.494C93.7793 191.478 110.909 191.003 123.79 189.276C148.497 185.963 166.477 176.388 176.35 161.286C186.818 145.276 190.991 126.807 191 96.2991C191 96.2367 191 96.174 191 96.1114C191 95.8667 191 95.6212 190.999 95.3749C190.937 69.8441 188.169 53.8447 181.334 39.5001C174.634 25.4401 166.404 17.2111 152.512 10.6808C137.743 3.73828 121.757 1 95.9953 1C70.2336 1 54.2477 3.73828 39.4783 10.6808C25.5738 17.2167 17.2888 25.507 10.6774 39.5001C3.78811 54.0812 1.05248 69.8795 1.00107 95.3749C0.972307 109.739 1.51826 117.708 3.23229 127.931C6.93903 150.04 16.4521 166.997 30.2301 176.053Z" fill="url(#paint0_linear_118_576)"/>
</g>
<path d="M133.548 66.1649H106.658V143.152H85.3566V66.1649H58.5984V48.874H133.548V66.1649Z" fill="white"/>
<defs>
<linearGradient id="paint0_linear_118_576" x1="96" y1="1" x2="96" y2="191" gradientUnits="userSpaceOnUse">
<stop stop-color="#A5A4A4"/>
<stop offset="1" stop-color="#656565"/>
</linearGradient>
</defs>
</svg>
