<svg width="256" height="256" viewBox="0 0 256 256" fill="none" xmlns="http://www.w3.org/2000/svg">
<path d="M247.152 65H8.87476C10.3319 60.6829 12.0134 56.5402 13.9373 52.4684C22.7756 33.762 33.8514 22.6792 52.4395 13.9416C72.1839 4.66056 93.5545 1 127.994 1C162.433 1 183.803 4.66056 203.548 13.9416C222.119 22.6715 233.122 33.6726 242.078 52.4684C244.006 56.5142 245.692 60.6584 247.152 65Z" fill="#0265BA"/>
<path d="M8.87476 65H86V129H1.00014C1.00005 128.858 1 128.716 1 128.573C1 128.108 1.00048 127.639 1.00143 127.164C1.05579 100.201 3.35605 81.3501 8.87476 65Z" fill="#007BD8"/>
<path d="M1.00014 129H86V191H8.95519C6.85781 184.673 5.19092 177.884 3.9843 170.687C1.76699 157.462 1.01178 147.058 1.00014 129Z" fill="#0265B5"/>
<path d="M86 251.977C67.5376 248.901 52.8901 243.44 40.076 235.018C26.1422 225.859 15.4711 210.656 8.95518 191H86V251.977Z" fill="#005AA6"/>
<rect x="86" y="65" width="84" height="64" fill="#24A7EB"/>
<rect x="86" y="129" width="84" height="62" fill="#0279D5"/>
<path d="M86 251.977C92.3339 253.032 99.1169 253.806 106.429 254.324C112.848 254.778 119.779 254.999 126.812 255C126.837 255 126.862 255 126.886 255C140.211 254.999 153.895 254.204 165.151 252.695C166.79 252.475 168.406 252.235 170 251.974V191H86V251.977Z" fill="#0265BA"/>
<path d="M255 128.327C255 128.552 255 128.776 254.999 129H170V65H247.152C252.616 81.2371 254.933 100.234 254.999 127.164C255 127.518 255 127.871 255 128.222C255 128.257 255 128.292 255 128.327Z" fill="#50DCFF"/>
<path d="M254.999 129C254.957 155.183 252.596 174.706 247.154 191H170V129H254.999Z" fill="#24A7EB"/>
<path d="M247.154 191C244.194 199.864 240.322 207.773 235.416 215.277C222.871 234.464 200.538 246.978 170 251.974V191H247.154Z" fill="#0379D0"/>
<path d="M95.8441 253.352C99.2467 253.742 102.772 254.065 106.429 254.324C112.848 254.778 119.779 254.999 126.812 255C126.837 255 126.862 255 126.886 255C140.211 254.999 153.895 254.204 165.151 252.695C198.18 248.266 222.216 235.466 235.416 215.277C242.581 204.318 247.54 192.497 250.676 178.094L128 237.5L95.8441 253.352Z" fill="#0C91E0"/>
<path d="M40.0761 235.018C57.2862 246.329 77.8036 252.299 106.429 254.324C112.848 254.778 119.779 254.999 126.812 255C126.837 255 126.862 255 126.886 255C139.216 254.999 151.853 254.319 162.59 253.021L128 237.5L5.43106 178.146C11.1655 204.058 23.2385 223.951 40.0761 235.018Z" fill="#24A7EB"/>
<g style="mix-blend-mode:soft-light">
<path d="M40.076 235.018C57.2862 246.33 77.8036 252.299 106.429 254.323C125.031 255.639 147.932 255.004 165.151 252.695C198.18 248.266 222.216 235.466 235.416 215.277C249.409 193.874 254.989 169.185 255 128.4C255 128.316 255 128.233 255 128.149C255 127.822 254.999 127.494 254.999 127.164C254.915 93.0337 251.216 71.645 242.078 52.4685C233.122 33.6726 222.119 22.6716 203.548 13.9417C183.803 4.66064 162.433 1 127.994 1C93.5544 1 72.1838 4.66064 52.4394 13.9417C33.8513 22.6792 22.7756 33.762 13.9372 52.4685C4.72726 71.9612 1.07016 93.0811 1.00143 127.164C0.962979 146.366 1.69284 157.021 3.98422 170.687C8.93954 200.243 21.6571 222.911 40.076 235.018Z" fill="url(#paint0_linear_97_1338)"/>
</g>
<path d="M127.445 191C109.907 191 95.6157 185.336 84.5694 174.007C73.5231 162.622 68 147.811 68 129.572C68 110.314 73.6085 94.737 84.8256 82.8422C96.0427 70.9474 110.904 65 129.409 65C146.89 65 161.011 70.6925 171.772 82.0775C182.591 93.4626 188 108.473 188 127.108C188 146.253 182.391 161.688 171.174 173.413C160.014 185.138 145.438 191 127.445 191ZM128.641 88.6197C118.961 88.6197 111.274 92.2448 105.58 99.4949C99.8861 106.688 97.0391 116.233 97.0391 128.127C97.0391 140.192 99.8861 149.736 105.58 156.76C111.274 163.784 118.733 167.295 127.957 167.295C137.466 167.295 145.011 163.897 150.591 157.1C156.171 150.246 158.961 140.759 158.961 128.637C158.961 116.006 156.256 106.179 150.847 99.1551C145.438 92.1315 138.036 88.6197 128.641 88.6197Z" fill="white"/>
<defs>
<linearGradient id="paint0_linear_97_1338" x1="128" y1="1" x2="128" y2="255" gradientUnits="userSpaceOnUse">
<stop stop-color="#A5A4A4"/>
<stop offset="1" stop-color="#656565"/>
</linearGradient>
</defs>
</svg>
