<svg width="256" height="256" viewBox="0 0 256 256" fill="none" xmlns="http://www.w3.org/2000/svg">
<mask id="mask0_83_315" style="mask-type:alpha" maskUnits="userSpaceOnUse" x="1" y="1" width="254" height="254">
<path d="M106.429 254.324C77.8036 252.299 57.2862 246.329 40.0761 235.018C21.6571 222.911 8.93954 200.243 3.9843 170.687C1.69292 157.021 0.962957 146.366 1.00143 127.164C1.07014 93.0812 4.72734 71.9613 13.9373 52.4684C22.7757 33.762 33.8514 22.6792 52.4395 13.9416C72.1839 4.66056 93.5545 1 127.994 1C162.433 1 183.803 4.66056 203.548 13.9416C222.119 22.6715 233.122 33.6726 242.078 52.4684C251.216 71.6451 254.915 93.0336 254.999 127.164C255.1 168.687 249.55 193.658 235.416 215.277C222.216 235.466 198.18 248.266 165.151 252.695C147.932 255.004 125.031 255.639 106.429 254.324Z" fill="white"/>
</mask>
<g mask="url(#mask0_83_315)">
<rect x="1" y="0.744873" width="254.001" height="254.001" fill="url(#paint0_linear_83_315)"/>
<path d="M160.379 123.09L59.8448 104.282V254.745C59.8448 254.745 64.698 254.745 70.6848 254.745H244.16C250.147 254.745 255 254.745 255 254.745V173.182L160.379 123.09Z" fill="#185C37"/>
<path d="M160.594 0.744633L59.8448 0.744629L60.2701 69.378L160.586 128.313L213.694 145.994L255 128.313V69.378L160.594 0.744633Z" fill="#21A366"/>
<path d="M59.8448 69.2729H160.401V128.117H59.8448V69.2729Z" fill="#107C41"/>
<path opacity="0.1" d="M131.7 57.3545H59.8448V204.837H131.7C137.67 204.818 142.505 199.988 142.525 194.024V68.1679C142.505 62.2039 137.67 57.3739 131.7 57.3545Z" fill="black"/>
<path opacity="0.2" d="M125.748 63.314H59.8448V210.797H125.748C131.714 210.778 136.546 205.947 136.566 199.983V74.1274C136.546 68.1634 131.714 63.3334 125.748 63.314Z" fill="black"/>
<path opacity="0.2" d="M125.748 63.314H59.8448V198.879H125.748C131.714 198.86 136.546 194.034 136.566 188.075V74.1179C136.546 68.1591 131.714 63.3333 125.748 63.314Z" fill="black"/>
<path opacity="0.2" d="M119.798 63.314H59.8448V198.879H119.798C125.759 198.86 130.587 194.034 130.607 188.075V74.1179C130.587 68.1591 125.759 63.3333 119.798 63.314Z" fill="black"/>
<path d="M11.7985 63.314H119.808C125.772 63.314 130.606 68.1486 130.606 74.1125V182.122C130.606 188.086 125.772 192.92 119.808 192.92H11.7985C5.83465 192.92 1 188.086 1 182.122V74.1125C1 68.1486 5.83465 63.314 11.7985 63.314Z" fill="url(#paint1_linear_83_315)"/>
<path d="M34.5192 163.124L57.1811 128.019L36.4175 93.1082H53.12L64.451 115.434C65.4971 117.555 66.2141 119.13 66.602 120.17H66.7489C67.4933 118.477 68.277 116.834 69.0997 115.24L81.2123 93.12H96.5455L75.2529 127.825L97.0863 163.124H80.7716L67.6834 138.618C67.0669 137.575 66.5437 136.48 66.1202 135.346H65.9262C65.5428 136.457 65.0341 137.522 64.4099 138.518L50.9339 163.124H34.5192Z" fill="white"/>
<path d="M254.999 0L160.402 1.14892e-05V69.2717H254.999V0Z" fill="#33C481"/>
<path d="M160.402 128.118H254.999V186.962H160.402V128.118Z" fill="#107C41"/>
<g style="mix-blend-mode:soft-light">
<rect x="1" width="254.001" height="254.746" fill="url(#paint2_linear_83_315)"/>
</g>
</g>
<defs>
<linearGradient id="paint0_linear_83_315" x1="128" y1="0.744873" x2="128" y2="254.746" gradientUnits="userSpaceOnUse">
<stop stop-color="#21A366"/>
<stop offset="1" stop-color="#185C37"/>
</linearGradient>
<linearGradient id="paint1_linear_83_315" x1="23.5152" y1="54.8762" x2="108.091" y2="201.358" gradientUnits="userSpaceOnUse">
<stop stop-color="#18884F"/>
<stop offset="0.5" stop-color="#117E43"/>
<stop offset="1" stop-color="#0B6631"/>
</linearGradient>
<linearGradient id="paint2_linear_83_315" x1="12.1731" y1="-5.58652" x2="255.001" y2="254.746" gradientUnits="userSpaceOnUse">
<stop stop-color="#BBBBBB"/>
<stop offset="1" stop-color="#5B5A5A"/>
</linearGradient>
</defs>
</svg>
