<svg width="256" height="256" viewBox="0 0 256 256" fill="none" xmlns="http://www.w3.org/2000/svg">
<path d="M106.429 254.324C77.8036 252.299 57.2862 246.329 40.0761 235.018C21.6571 222.911 8.93954 200.243 3.9843 170.687C1.69292 157.021 0.962957 146.366 1.00143 127.164C1.07014 93.0812 4.72734 71.9613 13.9373 52.4684C22.7757 33.762 33.8514 22.6792 52.4395 13.9416C72.1839 4.66056 93.5545 1 127.994 1C162.433 1 183.803 4.66056 203.548 13.9416C222.119 22.6715 233.122 33.6726 242.078 52.4684C251.216 71.6451 254.915 93.0336 254.999 127.164C255.1 168.687 249.55 193.658 235.416 215.277C222.216 235.466 198.18 248.266 165.151 252.695C147.932 255.004 125.031 255.639 106.429 254.324Z" fill="url(#paint0_linear_83_324)"/>
<path d="M144.733 146.345L178.709 113.771C171.652 86.1829 143.621 69.5538 116.102 76.629C103.709 79.8152 92.945 87.5167 85.9113 98.2303C86.437 98.217 144.733 146.345 144.733 146.345Z" fill="#AFAFAF"/>
<path d="M108.068 104.598L108.066 104.604C101.543 100.571 94.0198 98.4393 86.3466 98.4497C86.1694 98.4497 85.9952 98.4609 85.8184 98.463C62.9939 98.7452 44.7206 117.442 45.0032 140.223C45.1057 148.487 47.6926 156.529 52.4286 163.308L103.574 156.915L142.787 125.355L108.068 104.598Z" fill="#C7C7C7"/>
<path d="M178.926 114C178.178 113.95 177.427 113.916 176.666 113.916C172.104 113.911 167.588 114.844 163.4 116.656L163.399 116.653L142.789 125.333L165.51 153.425L206.131 163.307C214.898 147.02 208.811 126.704 192.537 117.93C188.332 115.663 183.691 114.323 178.926 114Z" fill="#DEDEDE"/>
<path d="M52.4835 163.17C60.1925 174.202 72.8406 180.777 86.3413 180.77H176.627C188.96 180.773 200.299 174.037 206.15 163.231L142.681 125.39L52.4835 163.17Z" fill="white"/>
<defs>
<linearGradient id="paint0_linear_83_324" x1="128" y1="1" x2="128" y2="255" gradientUnits="userSpaceOnUse">
<stop stop-color="#189EE4"/>
<stop offset="1" stop-color="#1485C0"/>
</linearGradient>
</defs>
</svg>
