<svg width="256" height="256" viewBox="0 0 256 256" fill="none" xmlns="http://www.w3.org/2000/svg">
<path d="M106.429 254.324C77.8036 252.299 57.2862 246.329 40.0761 235.018C21.6571 222.911 8.93954 200.243 3.9843 170.687C1.69292 157.021 0.962957 146.366 1.00143 127.164C1.07014 93.0812 4.72734 71.9613 13.9373 52.4684C22.7757 33.762 33.8514 22.6792 52.4395 13.9416C72.1839 4.66056 93.5545 1 127.994 1C162.433 1 183.803 4.66056 203.548 13.9416C222.119 22.6715 233.122 33.6726 242.078 52.4684C251.216 71.6451 254.915 93.0336 254.999 127.164C255.1 168.687 249.55 193.658 235.416 215.277C222.216 235.466 198.18 248.266 165.151 252.695C147.932 255.004 125.031 255.639 106.429 254.324Z" fill="url(#paint0_linear_97_1507)"/>
<path d="M143.894 142.471C143.152 143.137 142.066 144.116 142.066 145.794C142.066 147.536 143.217 149.289 145.292 150.698C154.724 157.291 172.405 156.506 173.169 156.484H173.191C180.364 156.484 187.387 154.548 193.56 150.902C199.768 147.268 204.918 142.076 208.502 135.84C212.087 129.604 213.98 122.54 213.995 115.347C214.188 101.193 209.262 91.4924 206.832 86.6958L206.402 85.8354C192.087 58.0018 161.36 42.0093 127.956 42.0093C110.248 42.0093 92.971 47.4731 78.4832 57.6552C63.9954 67.8373 53.0022 82.2416 47.0037 98.9025C57.9199 85.545 76.1494 77.0917 95.691 77.0917C126.127 77.0917 149.573 97.3646 149.573 128.683H149.53V128.704C149.53 132.339 147.723 137.652 144.292 142.083L144.357 142.019L143.894 142.471Z" fill="#F8F8F8"/>
<path d="M42.0243 125.391C41.6667 138.894 44.4385 152.296 50.1228 164.55C56.4884 178.102 66.2807 189.759 78.5316 198.367C90.7824 206.976 105.068 212.239 119.976 213.635C117.049 212.531 114.224 211.175 111.533 209.58H111.426L110.135 208.774C103.567 204.677 97.8664 199.331 93.3573 193.039C88.2248 186.015 84.692 177.952 83.0067 169.417C81.3215 160.882 81.5247 152.082 83.6021 143.634C85.6796 135.186 89.5808 127.295 95.0321 120.515C100.483 113.735 107.353 108.23 115.157 104.387L115.265 104.344L115.534 104.215C117.771 103.161 122.202 101.074 128.085 101.15C129.476 101.157 130.852 101.275 132.215 101.505C129.057 98.4736 125.456 95.9422 121.535 93.9977L121.428 93.9439C110.189 88.061 97.8314 87.8567 95.6911 87.8567C69.4493 87.8567 43.8097 105.43 42.0243 125.391ZM152.402 210.484C153.355 210.197 154.305 209.896 155.252 209.58C154.155 209.917 153.054 210.226 151.95 210.505L152.402 210.484Z" fill="#F8F8F8"/>
<path d="M151.918 210.505C153.014 210.231 154.101 209.922 155.177 209.58L156.059 209.311C174.578 202.908 190.364 190.391 200.821 173.82C201.124 173.317 201.254 172.728 201.191 172.144C201.127 171.559 200.875 171.012 200.471 170.585C200.067 170.158 199.535 169.875 198.955 169.78C198.375 169.684 197.78 169.781 197.261 170.056C194.952 171.26 192.575 172.314 190.13 173.218C182.411 176.083 174.241 177.54 166.007 177.52C134.205 177.52 106.511 155.676 106.511 127.574C106.533 126.118 106.698 124.688 107.006 123.283C98.7358 131.519 93.6897 142.446 92.7822 154.082C91.8746 165.719 95.1656 177.296 102.059 186.715L102.091 186.769C105.479 191.512 109.695 195.598 114.545 198.825H114.577L116.126 199.793C125.558 205.708 134.635 211.387 151.918 210.505Z" fill="#F8F8F8"/>
<defs>
<linearGradient id="paint0_linear_97_1507" x1="128" y1="1" x2="128" y2="255" gradientUnits="userSpaceOnUse">
<stop stop-color="#0D60F7"/>
<stop offset="1" stop-color="#0B4CC4"/>
</linearGradient>
</defs>
</svg>
