<svg width="256" height="256" viewBox="0 0 256 256" fill="none" xmlns="http://www.w3.org/2000/svg">
<path d="M106.429 254.324C77.8036 252.299 57.2862 246.329 40.0761 235.018C21.6571 222.911 8.93954 200.243 3.9843 170.687C1.69292 157.021 0.962957 146.366 1.00143 127.164C1.07014 93.0812 4.72734 71.9613 13.9373 52.4684C22.7757 33.762 33.8514 22.6792 52.4395 13.9416C72.1839 4.66056 93.5545 1 127.994 1C162.433 1 183.803 4.66056 203.548 13.9416C222.119 22.6715 233.122 33.6726 242.078 52.4684C251.216 71.6451 254.915 93.0336 254.999 127.164C255.1 168.687 249.55 193.658 235.416 215.277C222.216 235.466 198.18 248.266 165.151 252.695C147.932 255.004 125.031 255.639 106.429 254.324Z" fill="url(#paint0_linear_83_323)"/>
<path d="M173.022 85.5745C173.069 84.8724 173.069 84.2171 173.069 83.515C173.069 58.6616 152.92 38.5355 128.19 38.4419C103.32 38.4419 83.2176 58.6148 83.2176 83.4682C83.2176 84.1703 83.2176 84.8724 83.2643 85.5745C88.6872 84.4043 94.3438 83.4682 100.187 82.7194C100.561 67.6014 112.95 55.4789 128.143 55.4789C143.337 55.4789 155.678 67.6014 156.099 82.7194C161.943 83.4682 167.599 84.4043 173.022 85.5745Z" fill="white"/>
<path fill-rule="evenodd" clip-rule="evenodd" d="M195.602 99.9904C195.602 99.9904 207.71 185.082 128.33 218.5H128.143C48.7637 185.082 60.8717 99.9904 60.8717 99.9904C79.3842 93.0633 102.759 88.9444 128.237 88.9444C153.715 88.9444 177.089 93.0633 195.602 99.9904ZM150.021 167.764C150.161 166.827 150.208 165.891 150.208 164.909C150.208 154.986 143.663 146.561 134.594 143.847C140.672 141.319 144.972 135.328 144.972 128.308C144.972 119.041 137.446 111.505 128.19 111.505C118.934 111.505 111.407 118.994 111.407 128.308C111.407 135.328 115.708 141.319 121.785 143.847C112.763 146.608 106.218 154.986 106.218 164.909C106.218 165.891 106.265 166.827 106.405 167.764H150.021Z" fill="white"/>
<defs>
<linearGradient id="paint0_linear_83_323" x1="128" y1="1" x2="128" y2="255" gradientUnits="userSpaceOnUse">
<stop stop-color="#0178D9"/>
<stop offset="1" stop-color="#026BC0"/>
</linearGradient>
</defs>
</svg>
