<svg width="256" height="256" viewBox="0 0 256 256" fill="none" xmlns="http://www.w3.org/2000/svg">
<mask id="mask0_83_319" style="mask-type:alpha" maskUnits="userSpaceOnUse" x="1" y="1" width="254" height="254">
<path d="M106.429 254.324C77.8036 252.299 57.2862 246.329 40.0761 235.018C21.6571 222.911 8.93954 200.243 3.9843 170.687C1.69292 157.021 0.962957 146.366 1.00143 127.164C1.07014 93.0812 4.72734 71.9613 13.9373 52.4684C22.7757 33.762 33.8514 22.6792 52.4395 13.9416C72.1839 4.66056 93.5545 1 127.994 1C162.433 1 183.803 4.66056 203.548 13.9416C222.119 22.6715 233.122 33.6726 242.078 52.4684C251.216 71.6451 254.915 93.0336 254.999 127.164C255.1 168.687 249.55 193.658 235.416 215.277C222.216 235.466 198.18 248.266 165.151 252.695C147.932 255.004 125.031 255.639 106.429 254.324Z" fill="white"/>
</mask>
<g mask="url(#mask0_83_319)">
<rect x="1" y="1" width="254.001" height="254.001" fill="url(#paint0_linear_83_319)"/>
<rect x="59.8447" y="1" width="126.627" height="127.372" fill="#FF8F6B"/>
<rect x="186.473" y="1" width="68.5274" height="127.372" fill="#D35230"/>
<rect x="186.473" y="128.373" width="68.5274" height="126.627" fill="#A94226"/>
<rect x="59.8449" y="128.373" width="126.627" height="126.627" fill="#ED6C47"/>
<path d="M205.838 141.034L186.795 1H185.373C116.13 1.20271 60.0468 57.4417 59.8447 126.878V128.304L205.838 141.034Z" fill="#ED6C47"/>
<path d="M187.899 1H186.473V128.248L250.159 153.697L313.844 128.248V126.822C313.642 57.4167 257.373 1.20262 187.899 1Z" fill="#FF8F6B"/>
<path d="M313.846 128.373V129.765C313.647 198.849 257.529 254.802 188.242 255.001H185.448C116.162 254.802 60.0437 198.849 59.8449 129.765V128.373H313.846Z" fill="#D35230"/>
<mask id="mask1_83_319" style="mask-type:alpha" maskUnits="userSpaceOnUse" x="59" y="1" width="255" height="255">
<path d="M205.839 141.036L186.797 1H185.375C116.13 1.20272 60.0468 57.4422 59.8447 126.879V128.305L205.839 141.036Z" fill="#D9D9D9"/>
<path d="M313.845 128.373V129.766C313.647 198.849 257.528 254.803 188.242 255.001H185.448C116.162 254.803 60.0435 198.849 59.8447 129.766V128.373H313.845Z" fill="#D9D9D9"/>
</mask>
<g mask="url(#mask1_83_319)">
<path opacity="0.1" d="M142.879 68.4917V193.735C142.85 198.087 140.199 201.997 136.154 203.654C134.866 204.196 133.482 204.475 132.084 204.475H46.8394C45.1876 202.597 43.5948 200.602 42.12 198.606C27.0904 178.66 18.9753 154.399 18.9948 129.47V126.888C18.9604 104.403 25.5657 82.4029 37.9905 63.6204C39.2883 61.625 40.6451 59.6295 42.12 57.7515H132.084C138.027 57.7963 142.835 62.5787 142.879 68.4917Z" fill="black"/>
<path opacity="0.2" d="M136.651 74.0792V199.913C136.651 201.311 136.37 202.695 135.827 203.982C134.166 208.025 130.247 210.675 125.885 210.704H52.1149C50.2536 208.81 48.4677 206.843 46.7615 204.808C45.1143 202.921 43.526 200.916 42.0553 198.911C27.0677 178.87 18.9753 154.495 18.9948 129.449V126.854C18.9604 104.263 25.5473 82.1594 37.9373 63.2883H125.885C131.812 63.3332 136.606 68.1382 136.651 74.0792Z" fill="black"/>
<path opacity="0.2" d="M136.651 74.0262V187.509C136.606 193.42 131.812 198.202 125.885 198.247H42.0553C27.0677 178.304 18.9753 154.048 18.9948 129.125V126.543C18.9604 104.062 25.5473 82.067 37.9374 63.2883H125.885C131.812 63.3329 136.606 68.1143 136.651 74.0262Z" fill="black"/>
<path opacity="0.2" d="M131.114 74.0262V187.509C131.069 193.42 126.26 198.202 120.315 198.247H42.1267C27.0927 178.304 18.9752 154.048 18.9948 129.125V126.543C18.9603 104.062 25.5676 82.067 37.996 63.2883H120.315C126.26 63.3329 131.069 68.1143 131.114 74.0262Z" fill="black"/>
</g>
<path d="M11.8409 63.2883H120.273C126.26 63.2883 131.114 68.1162 131.114 74.0714V181.927C131.114 187.882 126.26 192.71 120.273 192.71H11.8409C5.85378 192.71 1.00011 187.882 1.00011 181.927V74.0714C1.00011 68.1162 5.85378 63.2883 11.8409 63.2883Z" fill="url(#paint1_linear_83_319)"/>
<path d="M67.0456 91.7329C74.1143 91.2533 81.1221 93.318 86.8157 97.5577C91.5645 101.821 94.102 108.042 93.6979 114.43C93.7755 118.871 92.5987 123.243 90.3042 127.038C87.9813 130.768 84.6346 133.743 80.6679 135.603C76.133 137.724 71.175 138.771 66.1749 138.664H52.4401V164.333H38.3735V91.7329H67.0456ZM52.4283 127.574H64.5344C68.3723 127.858 72.1804 126.716 75.2369 124.364C77.7649 121.926 79.0899 118.487 78.8556 114.972C78.8556 106.972 74.2319 102.971 64.9846 102.971H52.4284L52.4283 127.574Z" fill="white"/>
<g style="mix-blend-mode:soft-light">
<rect x="1" y="1" width="254.001" height="254.746" fill="url(#paint2_linear_83_319)"/>
</g>
</g>
<defs>
<linearGradient id="paint0_linear_83_319" x1="128" y1="1" x2="128" y2="255.001" gradientUnits="userSpaceOnUse">
<stop stop-color="#FF8F6B"/>
<stop offset="1" stop-color="#ED6C47"/>
</linearGradient>
<linearGradient id="paint1_linear_83_319" x1="23.6035" y1="54.8626" x2="107.833" y2="201.525" gradientUnits="userSpaceOnUse">
<stop stop-color="#CA4C28"/>
<stop offset="0.5" stop-color="#C5401E"/>
<stop offset="1" stop-color="#B62F14"/>
</linearGradient>
<linearGradient id="paint2_linear_83_319" x1="12.1731" y1="-4.58652" x2="255.001" y2="255.746" gradientUnits="userSpaceOnUse">
<stop stop-color="#BBBBBB"/>
<stop offset="1" stop-color="#5B5A5A"/>
</linearGradient>
</defs>
</svg>
