<svg width="341" height="341" viewBox="0 0 341 341" fill="none" xmlns="http://www.w3.org/2000/svg">
<g clip-path="url(#clip0_2_36)">
<rect width="341" height="341" fill="url(#paint0_radial_2_36)"/>
<g filter="url(#filter0_d_2_36)">
<path d="M193.895 195.783L239.509 152.052C230.034 115.013 192.403 92.6882 155.456 102.187C138.818 106.465 124.368 116.804 114.925 131.188C115.63 131.17 193.895 195.783 193.895 195.783Z" fill="#AFAFAF"/>
<path d="M144.671 139.735L144.669 139.743C135.911 134.329 125.811 131.467 115.509 131.481C115.271 131.481 115.038 131.496 114.8 131.499C84.1575 131.878 59.6249 156.979 60.0043 187.564C60.1419 198.658 63.6149 209.456 69.9732 218.557L138.638 209.973L191.283 167.603L144.671 139.735Z" fill="#C7C7C7"/>
<path d="M239.799 152.359C238.795 152.292 237.787 152.245 236.766 152.245C230.64 152.239 224.578 153.492 218.955 155.925L218.954 155.92L191.283 167.574L221.788 205.288L276.325 218.557C288.094 196.689 279.922 169.414 258.074 157.635C252.428 154.592 246.197 152.793 239.799 152.359L239.799 152.359Z" fill="#DEDEDE"/>
<path d="M70.0472 218.372C80.3968 233.183 97.3772 242.01 115.502 242H236.713C253.271 242.005 268.494 232.961 276.349 218.453L191.141 167.651L70.0472 218.372Z" fill="white"/>
</g>
</g>
<defs>
<filter id="filter0_d_2_36" x="-12" y="28" width="365.708" height="286" filterUnits="userSpaceOnUse" color-interpolation-filters="sRGB">
<feFlood flood-opacity="0" result="BackgroundImageFix"/>
<feColorMatrix in="SourceAlpha" type="matrix" values="0 0 0 0 0 0 0 0 0 0 0 0 0 0 0 0 0 0 127 0" result="hardAlpha"/>
<feOffset/>
<feGaussianBlur stdDeviation="36"/>
<feComposite in2="hardAlpha" operator="out"/>
<feColorMatrix type="matrix" values="0 0 0 0 0 0 0 0 0 0 0 0 0 0 0 0 0 0 0.25 0"/>
<feBlend mode="normal" in2="BackgroundImageFix" result="effect1_dropShadow_2_36"/>
<feBlend mode="normal" in="SourceGraphic" in2="effect1_dropShadow_2_36" result="shape"/>
</filter>
<radialGradient id="paint0_radial_2_36" cx="0" cy="0" r="1" gradientUnits="userSpaceOnUse" gradientTransform="translate(276 320.5) rotate(-123.134) scale(371.389)">
<stop stop-color="#0364B8"/>
<stop offset="1" stop-color="#3F86C4"/>
</radialGradient>
<clipPath id="clip0_2_36">
<rect width="341" height="341" fill="white"/>
</clipPath>
</defs>
</svg>
