<svg width="341" height="341" viewBox="0 0 341 341" fill="none" xmlns="http://www.w3.org/2000/svg">
<g clip-path="url(#clip0_25_1437)">
<rect width="341" height="341" fill="url(#paint0_linear_25_1437)"/>
<path d="M326.444 1.81198e-05L93.5559 1.71661e-05C85.5212 1.71661e-05 79 0 79 0V91.6667L213.971 131L341 91.6667V6.19888e-06C341 6.19888e-06 334.486 1.81198e-05 326.444 1.81198e-05Z" fill="#41A5EE"/>
<path d="M341 92H79V170.462L213.971 194L341 170.462V92Z" fill="#2B7CD3"/>
<path d="M79 171V249.333L206.029 265L341 249.333V171H79Z" fill="#185ABD"/>
<path d="M93.5555 341H326.444C334.479 341 341 341 341 341V250H79V341C79 341 85.5143 341 93.5555 341Z" fill="#103F91"/>
<path opacity="0.1" d="M175.464 76H79V273H175.464C183.481 272.973 189.973 266.524 190 258.558V90.4422C189.973 82.4757 183.481 76.0266 175.464 76Z" fill="black"/>
<path opacity="0.2" d="M167.475 84H79V281H167.475C175.486 280.973 181.973 274.524 182 266.558V98.4422C181.967 90.4757 175.479 84.0266 167.475 84Z" fill="black"/>
<path opacity="0.2" d="M167.475 84H79V265H167.475C175.486 264.973 181.973 258.533 182 250.577V98.4231C181.967 90.4671 175.479 84.0266 167.475 84Z" fill="black"/>
<path opacity="0.2" d="M159.486 84H79V265H159.486C167.491 264.973 173.973 258.533 174 250.577V98.4231C173.967 90.4671 167.491 84.0266 159.486 84Z" fill="black"/>
<path d="M14.5 84H159.5C167.504 84 174 90.4929 174 98.4956V243.504C174 251.514 167.511 258 159.5 258H14.5C6.48946 258 0 251.507 0 243.504V98.4956C0 90.4929 6.48946 84 14.5 84Z" fill="url(#paint1_linear_25_1437)"/>
<path d="M59.9263 195.141C60.2122 197.372 60.3983 199.311 60.4914 200.976H60.8239C60.9502 199.397 61.2162 197.499 61.6151 195.274C62.0141 193.05 62.3798 191.171 62.6989 189.633L77.9652 124.033H97.6997L113.531 188.647C114.449 192.663 115.107 196.74 115.499 200.836H115.759C116.051 196.86 116.603 192.91 117.408 189.007L130.034 124H148L125.819 218H104.834L89.7939 155.744C89.3617 153.952 88.8631 151.615 88.3112 148.731C87.7593 145.847 87.4269 143.748 87.2872 142.423H87.0279C86.855 143.955 86.5159 146.226 86.0039 149.237C85.4986 152.247 85.093 154.479 84.7872 155.924L70.6446 217.98H49.301L27 124.04H45.285L59.0353 189.773C59.3544 191.118 59.647 192.916 59.9263 195.141Z" fill="white"/>
<g style="mix-blend-mode:soft-light">
<rect y="-1" width="341" height="342" fill="url(#paint2_linear_25_1437)"/>
</g>
</g>
<defs>
<linearGradient id="paint0_linear_25_1437" x1="170.5" y1="0" x2="170.5" y2="341" gradientUnits="userSpaceOnUse">
<stop stop-color="#41A5EE"/>
<stop offset="1" stop-color="#103F91"/>
</linearGradient>
<linearGradient id="paint1_linear_25_1437" x1="30.4336" y1="72.476" x2="144.527" y2="268.964" gradientUnits="userSpaceOnUse">
<stop stop-color="#2368C4"/>
<stop offset="0.5" stop-color="#1A5DBE"/>
<stop offset="1" stop-color="#1146AC"/>
</linearGradient>
<linearGradient id="paint2_linear_25_1437" x1="15" y1="-8.49999" x2="341" y2="341" gradientUnits="userSpaceOnUse">
<stop stop-color="#BBBBBB"/>
<stop offset="1" stop-color="#5B5A5A"/>
</linearGradient>
<clipPath id="clip0_25_1437">
<rect width="341" height="341" fill="white"/>
</clipPath>
</defs>
</svg>
