<svg width="256" height="256" viewBox="0 0 256 256" fill="none" xmlns="http://www.w3.org/2000/svg">
<mask id="mask0_83_321" style="mask-type:alpha" maskUnits="userSpaceOnUse" x="1" y="1" width="254" height="254">
<path d="M106.429 254.324C77.8036 252.299 57.2862 246.329 40.0761 235.018C21.6571 222.911 8.93954 200.243 3.9843 170.687C1.69292 157.021 0.962957 146.366 1.00143 127.164C1.07014 93.0812 4.72734 71.9613 13.9373 52.4684C22.7757 33.762 33.8514 22.6792 52.4395 13.9416C72.1839 4.66056 93.5545 1 127.994 1C162.433 1 183.803 4.66056 203.548 13.9416C222.119 22.6715 233.122 33.6726 242.078 52.4684C251.216 71.6451 254.915 93.0336 254.999 127.164C255.1 168.687 249.55 193.658 235.416 215.277C222.216 235.466 198.18 248.266 165.151 252.695C147.932 255.004 125.031 255.639 106.429 254.324Z" fill="white"/>
</mask>
<g mask="url(#mask0_83_321)">
<rect x="1" y="1" width="254.001" height="254.001" fill="url(#paint0_linear_83_321)"/>
<g filter="url(#filter0_d_83_321)">
<g filter="url(#filter1_d_83_321)">
<path d="M198.727 170.269C200.641 170.271 202.482 171.004 203.874 172.318C205.266 173.632 206.104 175.428 206.216 177.339C206.328 179.25 205.706 181.132 204.478 182.6C203.249 184.068 201.506 185.011 199.605 185.238L198.727 185.29H63.5359C61.6216 185.288 59.7803 184.555 58.3883 183.241C56.9963 181.927 56.1587 180.131 56.0465 178.22C55.9343 176.309 56.5561 174.427 57.7847 172.959C59.0134 171.491 60.7562 170.548 62.6571 170.321L63.5359 170.269H198.727ZM183.705 57.6099C187.495 57.6087 191.145 59.0399 193.924 61.6167C196.703 64.1936 198.405 67.7255 198.689 71.5045L198.727 72.6311V147.737C198.728 151.527 197.297 155.177 194.72 157.956C192.143 160.734 188.611 162.437 184.832 162.721L183.705 162.758H78.5571C74.7674 162.76 71.1173 161.328 68.3385 158.751C65.5597 156.175 63.8576 152.643 63.5734 148.864L63.5359 147.737V72.6311C63.5347 68.8414 64.9659 65.1913 67.5427 62.4125C70.1196 59.6338 73.6515 57.9316 77.4305 57.6474L78.5571 57.6099H183.705Z" fill="url(#paint1_linear_83_321)"/>
</g>
<g filter="url(#filter2_d_83_321)">
<mask id="mask1_83_321" style="mask-type:alpha" maskUnits="userSpaceOnUse" x="50" y="89" width="74" height="117">
<path d="M50.4545 103.696C50.4545 99.8544 52 96.1701 54.7509 93.4536C57.5017 90.7371 61.2327 89.2109 65.1231 89.2109H109.129C113.019 89.2109 116.75 90.7371 119.501 93.4536C122.252 96.1701 123.797 99.8544 123.797 103.696V190.607C123.797 194.449 122.252 198.133 119.501 200.85C116.75 203.566 113.019 205.093 109.129 205.093H65.1231C61.2327 205.093 57.5017 203.566 54.7509 200.85C52 198.133 50.4545 194.449 50.4545 190.607V103.696ZM94.4602 183.365C94.4602 181.444 93.6875 179.602 92.3121 178.243C90.9366 176.885 89.0711 176.122 87.1259 176.122C85.1808 176.122 83.3153 176.885 81.9398 178.243C80.5644 179.602 79.7917 181.444 79.7917 183.365C79.7917 185.286 80.5644 187.128 81.9398 188.486C83.3153 189.844 85.1808 190.607 87.1259 190.607C89.0711 190.607 90.9366 189.844 92.3121 188.486C93.6875 187.128 94.4602 185.286 94.4602 183.365Z" fill="url(#paint2_linear_83_321)"/>
</mask>
<g mask="url(#mask1_83_321)">
<rect x="50.4546" y="176.491" width="73.3418" height="28.6033" fill="#9DA2AB"/>
<rect x="50.4546" y="147.153" width="73.3418" height="29.3367" fill="#ACB0B8"/>
<rect x="50.4546" y="118.549" width="73.3418" height="28.6033" fill="#C4C6CC"/>
<rect x="50.4545" y="89.2109" width="73.3418" height="29.3367" fill="#F5F5F6"/>
</g>
</g>
<g style="mix-blend-mode:plus-darker" filter="url(#filter3_d_83_321)">
<path d="M50.4545 103.696C50.4545 99.8544 52 96.1701 54.7509 93.4536C57.5017 90.7371 61.2327 89.2109 65.1231 89.2109H109.129C113.019 89.2109 116.75 90.7371 119.501 93.4536C122.252 96.1701 123.797 99.8544 123.797 103.696V190.607C123.797 194.449 122.252 198.133 119.501 200.85C116.75 203.566 113.019 205.093 109.129 205.093H65.1231C61.2327 205.093 57.5017 203.566 54.7509 200.85C52 198.133 50.4545 194.449 50.4545 190.607V103.696ZM94.4602 183.365C94.4602 181.444 93.6875 179.602 92.3121 178.243C90.9366 176.885 89.0711 176.122 87.1259 176.122C85.1808 176.122 83.3153 176.885 81.9398 178.243C80.5644 179.602 79.7917 181.444 79.7917 183.365C79.7917 185.286 80.5644 187.128 81.9398 188.486C83.3153 189.844 85.1808 190.607 87.1259 190.607C89.0711 190.607 90.9366 189.844 92.3121 188.486C93.6875 187.128 94.4602 185.286 94.4602 183.365Z" fill="url(#paint3_linear_83_321)"/>
</g>
</g>
</g>
<defs>
<filter id="filter0_d_83_321" x="2.45453" y="9.60986" width="251.774" height="243.483" filterUnits="userSpaceOnUse" color-interpolation-filters="sRGB">
<feFlood flood-opacity="0" result="BackgroundImageFix"/>
<feColorMatrix in="SourceAlpha" type="matrix" values="0 0 0 0 0 0 0 0 0 0 0 0 0 0 0 0 0 0 127 0" result="hardAlpha"/>
<feOffset/>
<feGaussianBlur stdDeviation="24"/>
<feComposite in2="hardAlpha" operator="out"/>
<feColorMatrix type="matrix" values="0 0 0 0 0 0 0 0 0 0 0 0 0 0 0 0 0 0 0.25 0"/>
<feBlend mode="normal" in2="BackgroundImageFix" result="effect1_dropShadow_83_321"/>
<feBlend mode="normal" in="SourceGraphic" in2="effect1_dropShadow_83_321" result="shape"/>
</filter>
<filter id="filter1_d_83_321" x="54.0336" y="55.6099" width="158.195" height="135.68" filterUnits="userSpaceOnUse" color-interpolation-filters="sRGB">
<feFlood flood-opacity="0" result="BackgroundImageFix"/>
<feColorMatrix in="SourceAlpha" type="matrix" values="0 0 0 0 0 0 0 0 0 0 0 0 0 0 0 0 0 0 127 0" result="hardAlpha"/>
<feOffset dx="2" dy="2"/>
<feGaussianBlur stdDeviation="2"/>
<feComposite in2="hardAlpha" operator="out"/>
<feColorMatrix type="matrix" values="0 0 0 0 0 0 0 0 0 0 0 0 0 0 0 0 0 0 0.04 0"/>
<feBlend mode="normal" in2="BackgroundImageFix" result="effect1_dropShadow_83_321"/>
<feBlend mode="normal" in="SourceGraphic" in2="effect1_dropShadow_83_321" result="shape"/>
</filter>
<filter id="filter2_d_83_321" x="48.4545" y="87.2109" width="81.3419" height="123.882" filterUnits="userSpaceOnUse" color-interpolation-filters="sRGB">
<feFlood flood-opacity="0" result="BackgroundImageFix"/>
<feColorMatrix in="SourceAlpha" type="matrix" values="0 0 0 0 0 0 0 0 0 0 0 0 0 0 0 0 0 0 127 0" result="hardAlpha"/>
<feOffset dx="2" dy="2"/>
<feGaussianBlur stdDeviation="2"/>
<feComposite in2="hardAlpha" operator="out"/>
<feColorMatrix type="matrix" values="0 0 0 0 0 0 0 0 0 0 0 0 0 0 0 0 0 0 0.17 0"/>
<feBlend mode="normal" in2="BackgroundImageFix" result="effect1_dropShadow_83_321"/>
<feBlend mode="normal" in="SourceGraphic" in2="effect1_dropShadow_83_321" result="shape"/>
</filter>
<filter id="filter3_d_83_321" x="50.4545" y="89.2109" width="76.0428" height="118.582" filterUnits="userSpaceOnUse" color-interpolation-filters="sRGB">
<feFlood flood-opacity="0" result="BackgroundImageFix"/>
<feColorMatrix in="SourceAlpha" type="matrix" values="0 0 0 0 0 0 0 0 0 0 0 0 0 0 0 0 0 0 127 0" result="hardAlpha"/>
<feOffset dx="2" dy="2"/>
<feGaussianBlur stdDeviation="0.35"/>
<feComposite in2="hardAlpha" operator="out"/>
<feColorMatrix type="matrix" values="0 0 0 0 0.0614063 0 0 0 0 0.0898596 0 0 0 0 0.1125 0 0 0 0.1 0"/>
<feBlend mode="normal" in2="BackgroundImageFix" result="effect1_dropShadow_83_321"/>
<feBlend mode="normal" in="SourceGraphic" in2="effect1_dropShadow_83_321" result="shape"/>
</filter>
<linearGradient id="paint0_linear_83_321" x1="1" y1="1" x2="255.001" y2="262.45" gradientUnits="userSpaceOnUse">
<stop stop-color="#41A5EE"/>
<stop offset="1" stop-color="#103F91"/>
</linearGradient>
<linearGradient id="paint1_linear_83_321" x1="52.8151" y1="56.0758" x2="213.684" y2="276.376" gradientUnits="userSpaceOnUse">
<stop stop-color="white"/>
<stop offset="1" stop-color="#535B6C"/>
</linearGradient>
<linearGradient id="paint2_linear_83_321" x1="53.585" y1="99.9077" x2="113.417" y2="208.557" gradientUnits="userSpaceOnUse">
<stop stop-color="white"/>
<stop offset="1" stop-color="#9EAED0"/>
</linearGradient>
<linearGradient id="paint3_linear_83_321" x1="53.585" y1="99.9077" x2="113.417" y2="208.557" gradientUnits="userSpaceOnUse">
<stop stop-color="white"/>
<stop offset="1" stop-color="#9EAED0"/>
</linearGradient>
</defs>
</svg>
