<svg width="256" height="256" viewBox="0 0 256 256" fill="none" xmlns="http://www.w3.org/2000/svg">
<path d="M106.429 254.324C77.8036 252.299 57.2862 246.329 40.0761 235.018C21.6571 222.911 8.93954 200.243 3.9843 170.687C1.69292 157.021 0.962957 146.366 1.00143 127.164C1.07014 93.0812 4.72734 71.9613 13.9373 52.4684C22.7757 33.762 33.8514 22.6792 52.4395 13.9416C72.1839 4.66056 93.5545 1 127.994 1C162.433 1 183.803 4.66056 203.548 13.9416C222.119 22.6715 233.122 33.6726 242.078 52.4684C251.216 71.6451 254.915 93.0336 254.999 127.164C255.1 168.687 249.55 193.658 235.416 215.277C222.216 235.466 198.18 248.266 165.151 252.695C147.932 255.004 125.031 255.639 106.429 254.324Z" fill="url(#paint0_linear_97_1330)"/>
<path d="M114.603 50L69.7575 74.3089C64.6902 77.0672 60.4579 81.1521 57.5081 86.1317C54.5584 91.1113 53.0007 96.8004 53 102.597V152.708C53.0001 158.505 54.5574 164.195 57.5072 169.176C60.457 174.156 64.6897 178.241 69.7575 181M128 160.065L117.495 154.241C112.485 151.464 108.307 147.385 105.398 142.429C102.488 137.474 100.953 131.824 100.953 126.069V110.838M154.686 110V126.629C154.686 132.421 153.117 138.106 150.144 143.081C147.172 148.057 142.907 152.138 137.8 154.894L94.8503 178.07C90.605 180.36 85.8982 181.669 81.0777 181.901C76.2572 182.132 71.4462 181.28 67 179.408C67.8241 179.961 68.6819 180.477 69.5734 180.955L112.519 204.131C117.226 206.67 122.493 208 127.844 208C133.194 208 138.461 206.67 143.168 204.131L186.114 180.955C191.22 178.199 195.485 174.118 198.457 169.144C201.43 164.169 202.999 158.485 203 152.693M186.117 74.0277L143.171 50.8685C138.835 48.5304 134.019 47.2152 129.093 47.0243C124.167 46.8333 119.263 47.7717 114.759 49.7671C110.511 52.7266 107.042 56.6639 104.647 61.245C102.251 65.826 101 70.9154 101 76.0812V109.631L113.316 103.43C117.821 101.161 122.796 99.9797 127.843 99.9797C132.889 99.9797 137.865 101.161 142.369 103.43L185.316 125.058C190.526 127.682 194.924 131.667 198.038 136.589C201.152 141.51 202.866 147.183 202.996 153L203 152.287V102.265C203 96.4786 201.431 90.8001 198.459 85.8296C195.487 80.8592 191.223 76.7815 186.117 74.0277Z" stroke="white" stroke-width="12" stroke-linecap="round" stroke-linejoin="round"/>
<defs>
<linearGradient id="paint0_linear_97_1330" x1="128" y1="1" x2="128" y2="255" gradientUnits="userSpaceOnUse">
<stop stop-color="#FF4400"/>
<stop offset="1" stop-color="#DF3C01"/>
</linearGradient>
</defs>
</svg>
