<svg width="256" height="256" viewBox="0 0 256 256" fill="none" xmlns="http://www.w3.org/2000/svg">
<mask id="mask0_83_328" style="mask-type:alpha" maskUnits="userSpaceOnUse" x="1" y="1" width="254" height="254">
<path d="M106.429 254.324C77.8036 252.299 57.2862 246.329 40.0761 235.018C21.6571 222.911 8.93954 200.243 3.9843 170.687C1.69292 157.021 0.962957 146.366 1.00143 127.164C1.07014 93.0812 4.72734 71.9613 13.9373 52.4684C22.7757 33.762 33.8514 22.6792 52.4395 13.9416C72.1839 4.66056 93.5545 1 127.994 1C162.433 1 183.803 4.66056 203.548 13.9416C222.119 22.6715 233.122 33.6726 242.078 52.4684C251.216 71.6451 254.915 93.0336 254.999 127.164C255.1 168.687 249.55 193.658 235.416 215.277C222.216 235.466 198.18 248.266 165.151 252.695C147.932 255.004 125.031 255.639 106.429 254.324Z" fill="white"/>
</mask>
<g mask="url(#mask0_83_328)">
<rect x="1" y="1" width="254.001" height="254.001" fill="url(#paint0_linear_83_328)"/>
<g filter="url(#filter0_d_83_328)">
<path d="M127.566 111.562C126.988 111.562 113.682 98.75 97.8697 83.1444L69.2336 54.823L104.426 54.7267C126.602 54.7267 141.065 55.112 143.475 55.7863C146.657 56.6533 151.574 60.9882 172.593 81.9884C193.612 102.989 197.951 107.901 198.819 111.08C199.494 113.489 199.879 127.649 199.879 182.365L177.703 160.209V105.301L167.29 94.9931L156.202 83.915C155.817 83.4334 155.142 83.626 154.756 84.3004C154.37 84.8783 148.296 91.3325 141.258 98.461C134.316 105.686 128.048 111.562 127.566 111.562Z" fill="url(#paint1_linear_83_328)"/>
<path d="M182.91 72.9333C173.654 63.6855 166.037 55.7863 166.037 55.401C166.037 55.0157 173.654 54.6304 199.783 54.6304L199.879 89.7912L182.91 72.9333Z" fill="url(#paint2_linear_83_328)"/>
<path d="M58.0492 146.627C56.3137 143.062 56.2173 140.558 56.2173 106.649L56.1208 70.525L79.3575 93.6445V150.48L100.473 172.636V144.507C100.473 128.998 100.859 116.282 101.244 116.282C101.63 116.282 107.608 121.966 114.453 128.902C121.396 135.741 127.47 141.328 128.145 141.136C128.723 141.039 134.894 135.452 141.836 128.805C148.875 122.255 155.045 116.668 155.527 116.571C156.106 116.379 156.395 126.301 156.395 168.783L189.659 202.017H152.538C125.927 202.017 114.357 201.728 111.657 200.861C108.668 199.898 103.076 194.696 83.8891 175.044C70.005 160.884 59.2062 148.939 58.0492 146.627Z" fill="url(#paint3_linear_83_328)"/>
<path d="M56.3137 202.113V184.966L56.2173 167.916L62.7737 174.177C66.3411 177.645 74.0545 185.352 90.5419 202.113H56.3137Z" fill="url(#paint4_linear_83_328)"/>
</g>
</g>
<defs>
<filter id="filter0_d_83_328" x="8.12085" y="6.63037" width="239.759" height="243.483" filterUnits="userSpaceOnUse" color-interpolation-filters="sRGB">
<feFlood flood-opacity="0" result="BackgroundImageFix"/>
<feColorMatrix in="SourceAlpha" type="matrix" values="0 0 0 0 0 0 0 0 0 0 0 0 0 0 0 0 0 0 127 0" result="hardAlpha"/>
<feOffset/>
<feGaussianBlur stdDeviation="24"/>
<feComposite in2="hardAlpha" operator="out"/>
<feColorMatrix type="matrix" values="0 0 0 0 0 0 0 0 0 0 0 0 0 0 0 0 0 0 0.25 0"/>
<feBlend mode="normal" in2="BackgroundImageFix" result="effect1_dropShadow_83_328"/>
<feBlend mode="normal" in="SourceGraphic" in2="effect1_dropShadow_83_328" result="shape"/>
</filter>
<linearGradient id="paint0_linear_83_328" x1="-241.083" y1="-719.29" x2="216.179" y2="321.429" gradientUnits="userSpaceOnUse">
<stop stop-color="#836C71"/>
<stop offset="1" stop-color="#1D1819"/>
</linearGradient>
<linearGradient id="paint1_linear_83_328" x1="56.1208" y1="54.6304" x2="200.26" y2="201.74" gradientUnits="userSpaceOnUse">
<stop stop-color="#C8A36A"/>
<stop offset="0.263598" stop-color="#E4BF80"/>
<stop offset="0.593409" stop-color="#D5B175"/>
<stop offset="1" stop-color="#7D552C"/>
</linearGradient>
<linearGradient id="paint2_linear_83_328" x1="56.1208" y1="54.6304" x2="200.26" y2="201.74" gradientUnits="userSpaceOnUse">
<stop stop-color="#C8A36A"/>
<stop offset="0.263598" stop-color="#E4BF80"/>
<stop offset="0.593409" stop-color="#D5B175"/>
<stop offset="1" stop-color="#7D552C"/>
</linearGradient>
<linearGradient id="paint3_linear_83_328" x1="56.1208" y1="54.6304" x2="200.26" y2="201.74" gradientUnits="userSpaceOnUse">
<stop stop-color="#C8A36A"/>
<stop offset="0.263598" stop-color="#E4BF80"/>
<stop offset="0.593409" stop-color="#D5B175"/>
<stop offset="1" stop-color="#7D552C"/>
</linearGradient>
<linearGradient id="paint4_linear_83_328" x1="56.1208" y1="54.6304" x2="200.26" y2="201.74" gradientUnits="userSpaceOnUse">
<stop stop-color="#C8A36A"/>
<stop offset="0.263598" stop-color="#E4BF80"/>
<stop offset="0.593409" stop-color="#D5B175"/>
<stop offset="1" stop-color="#7D552C"/>
</linearGradient>
</defs>
</svg>
