<svg width="256" height="256" viewBox="0 0 256 256" fill="none" xmlns="http://www.w3.org/2000/svg">
<path d="M106.429 254.324C77.8036 252.299 57.2862 246.329 40.0761 235.018C21.6571 222.911 8.93954 200.243 3.9843 170.687C1.69292 157.021 0.962957 146.366 1.00143 127.164C1.07014 93.0812 4.72734 71.9613 13.9373 52.4684C22.7757 33.762 33.8514 22.6792 52.4395 13.9416C72.1839 4.66056 93.5545 1 127.994 1C162.433 1 183.803 4.66056 203.548 13.9416C222.119 22.6715 233.122 33.6726 242.078 52.4684C251.216 71.6451 254.915 93.0336 254.999 127.164C255.1 168.687 249.55 193.658 235.416 215.277C222.216 235.466 198.18 248.266 165.151 252.695C147.932 255.004 125.031 255.639 106.429 254.324Z" fill="url(#paint0_linear_84_10)"/>
<path d="M210.265 117.262L210.266 117.261L210.215 116.837C210.214 116.829 210.214 116.824 210.213 116.817C210.212 116.81 210.212 116.805 210.211 116.799L210.018 115.202C209.98 114.882 209.936 114.516 209.885 114.099L209.845 113.768L209.763 113.778C207.743 102.286 202.192 91.3804 193.595 82.0685C185.039 72.8014 173.922 65.4844 161.447 60.9087C150.759 56.9882 139.418 55 127.741 55C111.976 55 96.6657 58.7076 83.4652 65.7218C58.0099 79.2469 42.9973 104.107 45.2161 129.057C46.3647 141.967 51.4225 154.257 59.8434 164.598C67.7693 174.331 78.4911 182.185 90.8492 187.312C98.4477 190.463 105.961 191.949 113.916 193.521L114.847 193.706C117.037 194.139 117.626 194.735 117.778 194.97C118.059 195.408 117.912 196.271 117.799 196.747C117.695 197.185 117.588 197.623 117.481 198.061C116.627 201.544 115.744 205.146 116.437 209.117C117.235 213.682 120.086 216.301 124.259 216.301H124.26C128.748 216.301 133.857 213.29 137.237 211.298L137.689 211.033C145.753 206.297 153.351 200.954 159.068 196.83C171.58 187.803 185.761 177.571 196.393 164.334C207.1 151.002 212.143 133.871 210.265 117.262ZM96.5858 142.52H82.2948C80.1352 142.52 78.3844 140.769 78.3844 138.609V108.613C78.3844 106.453 80.1352 104.703 82.2948 104.703C84.4545 104.703 86.2053 106.453 86.2053 108.613V134.699H96.5852C98.7449 134.699 100.496 136.45 100.496 138.609C100.496 140.769 98.7454 142.52 96.5858 142.52ZM111.494 138.503C111.494 140.663 109.743 142.414 107.584 142.414C105.424 142.414 103.673 140.663 103.673 138.503V108.507C103.673 106.347 105.424 104.597 107.584 104.597C109.743 104.597 111.494 106.347 111.494 108.507V138.503ZM146.841 138.503C146.841 140.198 145.75 141.699 144.138 142.223C143.741 142.352 143.333 142.414 142.931 142.414C141.703 142.414 140.516 141.834 139.766 140.801L125.684 121.407V138.504C125.684 140.664 123.934 142.414 121.774 142.414C119.614 142.414 117.864 140.664 117.864 138.504V109.366C117.864 107.671 118.955 106.17 120.566 105.646C122.178 105.123 123.943 105.696 124.939 107.068L139.02 126.462V108.507C139.02 106.347 140.771 104.597 142.931 104.597C145.09 104.597 146.841 106.347 146.841 108.507V138.503ZM175.335 141.798H155.981C153.822 141.798 152.071 140.047 152.071 137.888V122.89V107.891C152.071 105.732 153.822 103.981 155.981 103.981H174.735C176.894 103.981 178.645 105.732 178.645 107.891C178.645 110.051 176.894 111.802 174.735 111.802H159.892V118.98H171.937C174.097 118.98 175.847 120.73 175.847 122.89C175.847 125.05 174.097 126.8 171.937 126.8H159.892V133.977H175.335C177.495 133.977 179.246 135.728 179.246 137.888C179.246 140.047 177.495 141.798 175.335 141.798Z" fill="white"/>
<defs>
<linearGradient id="paint0_linear_84_10" x1="128" y1="1" x2="128" y2="255" gradientUnits="userSpaceOnUse">
<stop stop-color="#3DD005"/>
<stop offset="1" stop-color="#31A903"/>
</linearGradient>
</defs>
</svg>
