<svg width="256" height="256" viewBox="0 0 256 256" fill="none" xmlns="http://www.w3.org/2000/svg">
<mask id="mask0_84_10" style="mask-type:alpha" maskUnits="userSpaceOnUse" x="1" y="1" width="254" height="254">
<path d="M106.429 254.324C77.8036 252.299 57.2862 246.329 40.0761 235.018C21.6571 222.911 8.93954 200.243 3.9843 170.687C1.69292 157.021 0.962957 146.366 1.00143 127.164C1.07014 93.0812 4.72734 71.9613 13.9373 52.4684C22.7757 33.762 33.8514 22.6792 52.4395 13.9416C72.1839 4.66056 93.5545 1 127.994 1C162.433 1 183.803 4.66056 203.548 13.9416C222.119 22.6715 233.122 33.6726 242.078 52.4684C251.216 71.6451 254.915 93.0336 254.999 127.164C255.1 168.687 249.55 193.658 235.416 215.277C222.216 235.466 198.18 248.266 165.151 252.695C147.932 255.004 125.031 255.639 106.429 254.324Z" fill="white"/>
</mask>
<g mask="url(#mask0_84_10)">
<rect x="1" y="1" width="254.001" height="254.001" fill="url(#paint0_linear_84_10)"/>
<g filter="url(#filter0_d_84_10)">
<path d="M210.716 109.778L210.717 109.778L210.666 109.353C210.665 109.346 210.665 109.34 210.664 109.333C210.663 109.327 210.663 109.321 210.662 109.315L210.469 107.719C210.431 107.398 210.387 107.033 210.336 106.616L210.296 106.284L210.214 106.294C208.193 94.8024 202.643 83.8967 194.046 74.5849C185.49 65.3177 174.373 58.0008 161.898 53.425C151.21 49.5045 139.869 47.5164 128.192 47.5164C112.427 47.5164 97.1166 51.224 83.9162 58.2382C58.4609 71.7632 43.4482 96.6235 45.6671 121.573C46.8157 134.484 51.8735 146.773 60.2944 157.114C68.2202 166.847 78.9421 174.701 91.3002 179.828C98.8987 182.98 106.412 184.465 114.367 186.038L115.298 186.222C117.488 186.656 118.077 187.251 118.229 187.487C118.51 187.925 118.363 188.788 118.25 189.263C118.146 189.702 118.039 190.139 117.932 190.577C117.078 194.06 116.195 197.662 116.888 201.634C117.686 206.199 120.537 208.817 124.71 208.818H124.711C129.199 208.818 134.308 205.807 137.688 203.814L138.14 203.549C146.204 198.813 153.802 193.471 159.519 189.346C172.031 180.319 186.212 170.087 196.844 156.85C207.551 143.518 212.594 126.387 210.716 109.778ZM97.0368 135.036H82.7458C80.5861 135.036 78.8354 133.285 78.8354 131.126V101.129C78.8354 98.9698 80.5861 97.219 82.7458 97.219C84.9055 97.219 86.6562 98.9698 86.6562 101.129V127.215H97.0362C99.1959 127.215 100.947 128.966 100.947 131.126C100.947 133.285 99.1964 135.036 97.0368 135.036ZM111.945 131.02C111.945 133.179 110.194 134.93 108.035 134.93C105.875 134.93 104.124 133.179 104.124 131.02V101.023C104.124 98.8636 105.875 97.1129 108.035 97.1129C110.194 97.1129 111.945 98.8636 111.945 101.023V131.02ZM147.292 131.02C147.292 132.714 146.201 134.216 144.589 134.739C144.192 134.868 143.784 134.931 143.382 134.931C142.154 134.931 140.967 134.35 140.217 133.317L126.135 113.923V131.02C126.135 133.18 124.385 134.931 122.225 134.931C120.065 134.931 118.315 133.18 118.315 131.02V101.882C118.315 100.188 119.406 98.686 121.017 98.1626C122.629 97.6397 124.394 98.2128 125.39 99.5843L139.471 118.978V101.023C139.471 98.8636 141.222 97.1129 143.381 97.1129C145.541 97.1129 147.292 98.8636 147.292 101.023V131.02ZM175.786 134.314H156.432C154.273 134.314 152.522 132.564 152.522 130.404V115.406V100.408C152.522 98.248 154.273 96.4973 156.432 96.4973H175.186C177.345 96.4973 179.096 98.248 179.096 100.408C179.096 102.567 177.345 104.318 175.186 104.318H160.343V111.496H172.388C174.548 111.496 176.298 113.247 176.298 115.406C176.298 117.566 174.548 119.317 172.388 119.317H160.343V126.494H175.786C177.946 126.494 179.697 128.244 179.697 130.404C179.697 132.564 177.946 134.314 175.786 134.314Z" fill="white"/>
</g>
</g>
<defs>
<filter id="filter0_d_84_10" x="-2.54901" y="-0.483643" width="261.65" height="257.301" filterUnits="userSpaceOnUse" color-interpolation-filters="sRGB">
<feFlood flood-opacity="0" result="BackgroundImageFix"/>
<feColorMatrix in="SourceAlpha" type="matrix" values="0 0 0 0 0 0 0 0 0 0 0 0 0 0 0 0 0 0 127 0" result="hardAlpha"/>
<feOffset/>
<feGaussianBlur stdDeviation="24"/>
<feComposite in2="hardAlpha" operator="out"/>
<feColorMatrix type="matrix" values="0 0 0 0 0 0 0 0 0 0 0 0 0 0 0 0 0 0 0.25 0"/>
<feBlend mode="normal" in2="BackgroundImageFix" result="effect1_dropShadow_84_10"/>
<feBlend mode="normal" in="SourceGraphic" in2="effect1_dropShadow_84_10" result="shape"/>
</filter>
<linearGradient id="paint0_linear_84_10" x1="85.5428" y1="53.8858" x2="251.649" y2="275.112" gradientUnits="userSpaceOnUse">
<stop stop-color="#6CD145"/>
<stop offset="0.61" stop-color="#32A904"/>
</linearGradient>
</defs>
</svg>
