<svg width="341" height="341" viewBox="0 0 341 341" fill="none" xmlns="http://www.w3.org/2000/svg">
<g clip-path="url(#clip0_74_52)">
<rect width="341" height="341" fill="url(#paint0_linear_74_52)"/>
<g filter="url(#filter0_d_74_52)">
<path d="M281.549 146.037L281.551 146.036L281.482 145.466C281.481 145.456 281.481 145.449 281.479 145.439C281.478 145.431 281.478 145.423 281.476 145.415L281.218 143.272C281.166 142.841 281.107 142.351 281.04 141.791L280.986 141.346L280.875 141.359C278.163 125.931 270.711 111.29 259.169 98.7888C247.682 86.3474 232.757 76.5241 216.01 70.381C201.66 65.1177 186.435 62.4485 170.758 62.4485C149.594 62.4485 129.039 67.4261 111.317 76.8429C77.1425 95.0006 56.9875 128.376 59.9664 161.872C61.5084 179.205 68.2987 195.703 79.6039 209.586C90.2446 222.653 104.639 233.198 121.23 240.081C131.431 244.312 141.518 246.306 152.198 248.417L153.448 248.665C156.388 249.247 157.179 250.046 157.383 250.363C157.76 250.951 157.563 252.109 157.411 252.748C157.272 253.336 157.128 253.924 156.984 254.512C155.837 259.188 154.651 264.024 155.583 269.355C156.654 275.484 160.481 278.999 166.083 279H166.085C172.111 279 178.97 274.958 183.508 272.283L184.114 271.927C194.94 265.569 205.14 258.397 212.816 252.859C229.613 240.74 248.652 227.003 262.926 209.232C277.299 191.334 284.07 168.334 281.549 146.037ZM128.932 179.946H109.746C106.846 179.946 104.496 177.596 104.496 174.697V134.426C104.496 131.526 106.846 129.176 109.746 129.176C112.645 129.176 114.995 131.526 114.995 134.426V169.447H128.931C131.83 169.447 134.181 171.797 134.181 174.697C134.181 177.596 131.831 179.946 128.932 179.946ZM148.946 174.554C148.946 177.453 146.596 179.804 143.696 179.804C140.797 179.804 138.447 177.453 138.447 174.554V134.283C138.447 131.384 140.797 129.033 143.696 129.033C146.596 129.033 148.946 131.384 148.946 134.283V174.554ZM196.401 174.554C196.401 176.829 194.936 178.845 192.772 179.547C192.238 179.721 191.691 179.805 191.151 179.805C189.502 179.805 187.909 179.025 186.902 177.639L167.997 151.602V174.555C167.997 177.454 165.647 179.805 162.747 179.805C159.848 179.805 157.498 177.454 157.498 174.555V135.436C157.498 133.161 158.962 131.145 161.126 130.442C163.29 129.74 165.66 130.51 166.996 132.351L185.901 158.388V134.283C185.901 131.384 188.251 129.033 191.151 129.033C194.05 129.033 196.401 131.384 196.401 134.283V174.554ZM234.655 178.977H208.672C205.772 178.977 203.422 176.627 203.422 173.728V153.593V133.457C203.422 130.557 205.772 128.207 208.672 128.207H233.849C236.748 128.207 239.098 130.557 239.098 133.457C239.098 136.356 236.748 138.706 233.849 138.706H213.922V148.343H230.093C232.992 148.343 235.343 150.693 235.343 153.593C235.343 156.492 232.992 158.843 230.093 158.843H213.922V168.478H234.655C237.554 168.478 239.905 170.828 239.905 173.728C239.905 176.627 237.554 178.977 234.655 178.977Z" fill="white"/>
</g>
</g>
<defs>
<filter id="filter0_d_74_52" x="-36.3237" y="-33.5515" width="414.39" height="408.552" filterUnits="userSpaceOnUse" color-interpolation-filters="sRGB">
<feFlood flood-opacity="0" result="BackgroundImageFix"/>
<feColorMatrix in="SourceAlpha" type="matrix" values="0 0 0 0 0 0 0 0 0 0 0 0 0 0 0 0 0 0 127 0" result="hardAlpha"/>
<feOffset/>
<feGaussianBlur stdDeviation="48"/>
<feComposite in2="hardAlpha" operator="out"/>
<feColorMatrix type="matrix" values="0 0 0 0 0 0 0 0 0 0 0 0 0 0 0 0 0 0 0.25 0"/>
<feBlend mode="normal" in2="BackgroundImageFix" result="effect1_dropShadow_74_52"/>
<feBlend mode="normal" in="SourceGraphic" in2="effect1_dropShadow_74_52" result="shape"/>
</filter>
<linearGradient id="paint0_linear_74_52" x1="113.5" y1="71" x2="336.5" y2="368" gradientUnits="userSpaceOnUse">
<stop stop-color="#6CD145"/>
<stop offset="0.61" stop-color="#32A904"/>
</linearGradient>
<clipPath id="clip0_74_52">
<rect width="341" height="341" fill="white"/>
</clipPath>
</defs>
</svg>
