<svg width="192" height="192" viewBox="0 0 192 192" fill="none" xmlns="http://www.w3.org/2000/svg">
<path d="M79.8641 190.494C58.4515 188.98 43.1039 184.514 30.2301 176.052C16.4521 166.996 6.93903 150.04 3.23235 127.931C1.51833 117.708 0.97229 109.739 1.00107 95.3749C1.05247 69.8796 3.78817 54.0812 10.6775 39.5C17.2889 25.507 25.5739 17.2167 39.4783 10.6808C54.2478 3.73821 70.2337 1 95.9953 1C121.757 1 137.743 3.73821 152.512 10.6808C166.404 17.211 174.634 25.4402 181.334 39.5C188.169 53.8448 190.937 69.844 190.999 95.3749C191.075 126.436 186.923 145.115 176.35 161.286C166.477 176.388 148.497 185.963 123.79 189.276C110.91 191.003 93.7794 191.478 79.8641 190.494Z" fill="url(#paint0_linear_118_328)"/>
<path d="M106.338 36.0283V98.7007C107.065 100.748 110.081 109.474 110.835 111.629C112.29 115.803 120.504 139.342 121.151 141.255L123.844 149.146L125.379 153.509L125.891 154.963L129.419 156.418H129.608C129.608 155.529 129.608 154.182 129.608 152.755V36.0283H106.338Z" fill="url(#paint1_linear_118_328)"/>
<path d="M62.922 44.4046V156.472C72.1869 155.341 76.8193 154.91 86.2458 154.479V93.7723L67.1505 39.0181L66.6388 37.5637L63.1106 36.1094C63.1106 36.9982 63.1106 38.3448 63.1106 39.7722L62.922 44.4046Z" fill="url(#paint2_linear_118_328)"/>
<path d="M86.7576 36.0283H62.922L105.126 154.532C116.976 154.829 129.661 156.525 129.661 156.525L86.7576 36.0283Z" fill="white"/>
<defs>
<linearGradient id="paint0_linear_118_328" x1="96" y1="1" x2="96" y2="191" gradientUnits="userSpaceOnUse">
<stop stop-color="#D20712"/>
<stop offset="1" stop-color="#B1060F"/>
</linearGradient>
<linearGradient id="paint1_linear_118_328" x1="110.201" y1="95.017" x2="120.336" y2="92.247" gradientUnits="userSpaceOnUse">
<stop offset="0.35" stop-color="#D9D9D9"/>
<stop offset="1" stop-color="white"/>
</linearGradient>
<linearGradient id="paint2_linear_118_328" x1="90.6482" y1="87.4241" x2="78.9489" y2="90.6829" gradientUnits="userSpaceOnUse">
<stop offset="0.49" stop-color="#E2E2E2"/>
<stop offset="1" stop-color="#E9E9E9"/>
</linearGradient>
</defs>
</svg>
