<svg width="256" height="256" viewBox="0 0 256 256" fill="none" xmlns="http://www.w3.org/2000/svg">
<path d="M106.429 254.324C77.8036 252.299 57.2862 246.329 40.0761 235.018C21.6571 222.911 8.93954 200.243 3.9843 170.687C1.69292 157.021 0.962957 146.366 1.00143 127.164C1.07014 93.0812 4.72734 71.9613 13.9373 52.4684C22.7757 33.762 33.8514 22.6792 52.4395 13.9416C72.1839 4.66056 93.5545 1 127.994 1C162.433 1 183.803 4.66056 203.548 13.9416C222.119 22.6715 233.122 33.6726 242.078 52.4684C251.216 71.6451 254.915 93.0336 254.999 127.164C255.1 168.687 249.55 193.658 235.416 215.277C222.216 235.466 198.18 248.266 165.151 252.695C147.932 255.004 125.031 255.639 106.429 254.324Z" fill="url(#paint0_linear_84_14)"/>
<path fill-rule="evenodd" clip-rule="evenodd" d="M147.871 57.1894L69.1498 63.0039C62.7989 63.5531 60.5894 67.7031 60.5894 72.6768V158.977C60.5894 162.851 61.9652 166.166 65.2843 170.596L83.7892 194.658C86.8295 198.532 89.5938 199.363 95.3984 199.087L186.816 193.553C194.546 193.002 196.761 189.403 196.761 183.319V86.2307C196.761 83.0866 195.519 82.1803 191.862 79.4972L166.106 61.338C160.027 56.9177 157.541 56.3585 147.871 57.188V57.1894ZM97.4655 84.6416C90.0007 85.1438 88.3077 85.2576 84.0681 81.8104L73.2898 73.2373C72.1943 72.1276 72.7449 70.7434 75.5049 70.4673L151.182 64.9374C157.537 64.3825 160.846 66.5976 163.332 68.5325L176.311 77.9365C176.866 78.2167 178.246 79.8713 176.586 79.8713L98.433 84.5762L97.4655 84.6416ZM88.7629 182.49V100.069C88.7629 96.4698 89.8684 94.8096 93.1776 94.5307L182.941 89.2753C185.985 89.0007 187.361 90.9356 187.361 94.5293V176.401C187.361 180 186.806 183.045 181.837 183.319L95.939 188.299C90.9695 188.573 88.7644 186.919 88.7644 182.49H88.7629ZM173.555 104.488C174.106 106.978 173.555 109.468 171.066 109.752L166.925 110.573V171.426C163.33 173.36 160.021 174.466 157.255 174.466C152.835 174.466 151.731 173.082 148.421 168.936L121.347 126.341V167.552L129.911 169.491C129.911 169.491 129.911 174.47 123.001 174.47L103.952 175.576C103.397 174.466 103.952 171.702 105.882 171.151L110.857 169.771V115.282L103.953 114.723C103.398 112.233 104.778 108.638 108.648 108.359L129.088 106.984L157.257 150.129V111.959L150.077 111.133C149.522 108.085 151.731 105.87 154.491 105.599L173.555 104.488Z" fill="white"/>
<defs>
<linearGradient id="paint0_linear_84_14" x1="128" y1="1" x2="128" y2="255" gradientUnits="userSpaceOnUse">
<stop stop-color="#343B52"/>
<stop offset="1" stop-color="#1E222F"/>
</linearGradient>
</defs>
</svg>
