<svg width="341" height="341" viewBox="0 0 341 341" fill="none" xmlns="http://www.w3.org/2000/svg">
<rect width="341" height="341" fill="url(#paint0_radial_2_26)"/>
<g filter="url(#filter0_d_2_26)">
<path fill-rule="evenodd" clip-rule="evenodd" d="M197.178 75.4358L91.4925 83.242C82.9662 83.9793 80 89.5507 80 96.2281V212.089C80 217.29 81.847 221.74 86.303 227.688L111.146 259.992C115.228 265.192 118.939 266.308 126.732 265.937L249.463 258.507C259.84 257.768 262.814 252.936 262.814 244.769V114.425C262.814 110.204 261.146 108.987 256.238 105.385L221.659 81.0054C213.498 75.071 210.161 74.3204 197.178 75.4339V75.4358ZM129.507 112.291C119.485 112.965 117.213 113.118 111.521 108.49L97.0506 96.9806C95.5799 95.4908 96.319 93.6324 100.024 93.2619L201.623 85.8377C210.155 85.0928 214.598 88.0667 217.934 90.6643L235.359 103.289C236.104 103.666 237.957 105.887 235.728 105.887L130.806 112.203L129.507 112.291ZM117.824 243.655V133.003C117.824 128.171 119.308 125.942 123.75 125.568L244.26 118.512C248.347 118.143 250.194 120.741 250.194 125.566V235.48C250.194 240.313 249.449 244.4 242.778 244.769L127.458 251.454C120.786 251.822 117.826 249.601 117.826 243.655H117.824ZM231.66 138.936C232.399 142.278 231.66 145.621 228.317 146.003L222.759 147.105V228.801C217.933 231.399 213.49 232.883 209.777 232.883C203.842 232.883 202.36 231.024 197.916 225.459L161.568 168.273V223.6L173.067 226.204C173.067 226.204 173.067 232.889 163.79 232.889L138.215 234.373C137.47 232.883 138.215 229.172 140.807 228.433L147.486 226.58V153.427L138.217 152.676C137.472 149.334 139.325 144.507 144.52 144.133L171.961 142.286L209.779 200.21V148.965L200.139 147.857C199.394 143.764 202.36 140.79 206.066 140.427L231.66 138.936Z" fill="white"/>
</g>
<defs>
<filter id="filter0_d_2_26" x="16" y="11" width="310.814" height="319.002" filterUnits="userSpaceOnUse" color-interpolation-filters="sRGB">
<feFlood flood-opacity="0" result="BackgroundImageFix"/>
<feColorMatrix in="SourceAlpha" type="matrix" values="0 0 0 0 0 0 0 0 0 0 0 0 0 0 0 0 0 0 127 0" result="hardAlpha"/>
<feOffset/>
<feGaussianBlur stdDeviation="32"/>
<feComposite in2="hardAlpha" operator="out"/>
<feColorMatrix type="matrix" values="0 0 0 0 0.55 0 0 0 0 0.446875 0 0 0 0 0.446875 0 0 0 0.25 0"/>
<feBlend mode="normal" in2="BackgroundImageFix" result="effect1_dropShadow_2_26"/>
<feBlend mode="normal" in="SourceGraphic" in2="effect1_dropShadow_2_26" result="shape"/>
</filter>
<radialGradient id="paint0_radial_2_26" cx="0" cy="0" r="1" gradientUnits="userSpaceOnUse" gradientTransform="translate(273.5 306.5) rotate(-126.428) scale(635.719)">
<stop stop-color="#141720"/>
<stop offset="1" stop-color="#252A39"/>
</radialGradient>
</defs>
</svg>
