<svg width="341" height="341" viewBox="0 0 341 341" fill="none" xmlns="http://www.w3.org/2000/svg">
<rect width="341" height="341" fill="url(#paint0_linear_50_75)"/>
<g filter="url(#filter0_d_50_75)">
<path d="M46.2009 198.367C45.2607 197.975 44.4083 197.179 43.8326 196.153C42.9484 194.577 42.9353 194.318 43.0512 180.629C43.1645 167.241 43.2019 166.663 44.025 165.551C44.4958 164.915 45.4896 163.98 46.2336 163.472L47.5863 162.551H79.2542C107.334 162.551 111.233 162.627 113.666 163.228C118.389 164.395 121.949 167.32 123.795 171.551C124.523 173.221 124.593 174.375 124.593 184.733V196.084L123.597 197.147C122.113 198.73 119.929 199.194 117.865 198.367C114.78 197.131 114.634 196.636 114.416 186.692C114.228 178.109 114.2 177.874 113.13 175.963C112.496 174.832 111.233 173.452 110.131 172.685L108.226 171.361L102.026 171.23C95.0787 171.083 93.6657 171.462 91.4871 174.055C89.1237 176.868 89.0407 177.261 88.7634 186.932C88.6212 191.89 88.4771 195.964 88.4433 195.985C88.4094 196.007 87.9675 196.497 87.4611 197.075C86.9548 197.653 85.7516 198.359 84.7874 198.642C83.2907 199.083 82.8327 199.062 81.657 198.5C80.8995 198.139 79.8145 197.232 79.2458 196.485C78.2215 195.14 78.2105 195.04 78.0799 185.941C77.9811 179.052 77.8201 176.712 77.4366 176.585C77.1553 176.491 76.9251 176.191 76.9251 175.917C76.9251 175.119 73.9919 172.482 72.3352 171.79C69.9623 170.8 61.0271 170.898 59.0079 171.936C57.1604 172.886 54.9172 175.359 54.5663 176.833C54.4244 177.429 54.1633 178.103 53.9862 178.332C53.8091 178.56 53.6043 182.642 53.5311 187.403L53.3981 196.06L52.3466 197.112C51.2401 198.22 49.5181 199.034 48.3592 198.999C47.9801 198.988 47.0088 198.703 46.2009 198.367ZM173.897 196.905C171.984 196.682 169.858 196.234 169.172 195.909C167.348 195.044 164.965 192.576 163.891 190.439C162.167 187.011 162.031 185.182 162.031 165.378C162.031 149.988 162.137 146.326 162.606 145.422C164.977 140.859 170.952 140.859 173.322 145.422C173.789 146.321 173.897 149.727 173.897 163.528C173.897 173.039 174.065 180.969 174.278 181.531C174.866 183.079 177.393 185.312 179.156 185.841C181.129 186.433 193.685 186.476 197.042 185.902C202.13 185.032 204.585 182.775 204.585 178.964C204.585 174.994 207.057 172.505 210.602 172.906C214.772 173.376 216.238 177.547 214.474 183.918C212.678 190.405 208.577 194.379 201.516 196.477C199 197.224 179.271 197.53 173.897 196.905ZM226.27 196.459C223.515 194.576 223.406 193.999 223.406 181.263C223.406 168.478 223.528 167.809 226.166 166.177C229.151 164.329 232.959 165.4 234.462 168.51C235.209 170.054 235.272 171.062 235.271 181.427C235.271 191.312 235.184 192.841 234.555 194.095C232.992 197.21 229.025 198.342 226.27 196.459ZM245.813 196.74C243.32 195.385 242.763 191.397 244.414 186.727C245.579 183.43 247.073 181.033 249.689 178.263L251.707 176.126L249.445 173.824C245.845 170.16 243.455 164.988 243.455 160.862C243.455 158.974 243.613 158.608 245.044 157.175C246.427 155.79 246.875 155.584 248.507 155.584C251.296 155.584 252.801 157.078 254.03 161.066C255.755 166.664 259.884 169.834 266.706 170.796C272.758 171.65 279.254 170.384 282.504 167.716C284.368 166.186 286.417 162.681 286.417 161.023C286.417 159.337 287.556 157.266 288.95 156.414C291.999 154.553 295.691 155.918 296.697 159.279C297.789 162.928 295.017 170.199 290.924 174.428L288.596 176.833L291.087 179.443C294.001 182.497 295.986 186.29 296.7 190.17C297.137 192.544 297.114 193.07 296.519 194.318C294.459 198.646 288.284 198.237 286.874 193.68C285.284 188.536 283.622 186.163 280.22 184.174C274.953 181.096 264.248 181.149 259.193 184.278C256.411 185.999 253.684 190.197 253.684 192.757C253.684 196.233 249.126 198.54 245.813 196.74ZM149.97 168.538C148.022 166.587 148.234 162.512 150.388 160.485C151.819 159.139 156.117 159.026 157.546 160.297C158.767 161.383 160.395 165.099 160.395 166.801C160.395 169.066 159.486 169.517 154.922 169.517C151.277 169.517 150.866 169.435 149.97 168.538ZM175.969 168.745C175.363 167.612 175.435 165.943 176.184 163.78C177.895 158.833 182.292 157.329 193.742 157.771C201.159 158.058 201.799 158.195 203.589 159.886C204.863 161.09 204.994 161.425 204.994 163.502C204.994 166.201 204.442 167.598 202.987 168.589C202.039 169.234 200.555 169.325 189.164 169.436C176.786 169.556 176.391 169.535 175.969 168.745ZM226.851 161.334C224.621 160.431 223.025 157.025 223.601 154.398C224.197 151.683 227.878 149.437 230.653 150.095C235.956 151.352 236.832 158.613 231.983 161.125C230.712 161.783 228.21 161.885 226.851 161.334Z" fill="#F4F4F4"/>
</g>
<path d="M132.068 181.416C132.068 184.337 133.738 186.754 136.254 187.473C139.101 188.287 141.442 187.809 143.288 186.037C146.622 182.839 145.323 177.112 140.801 175.069C136.753 173.241 132.068 176.646 132.068 181.416Z" fill="#76E0DB"/>
<defs>
<filter id="filter0_d_50_75" x="11" y="110" width="318" height="121" filterUnits="userSpaceOnUse" color-interpolation-filters="sRGB">
<feFlood flood-opacity="0" result="BackgroundImageFix"/>
<feColorMatrix in="SourceAlpha" type="matrix" values="0 0 0 0 0 0 0 0 0 0 0 0 0 0 0 0 0 0 127 0" result="hardAlpha"/>
<feOffset/>
<feGaussianBlur stdDeviation="16"/>
<feComposite in2="hardAlpha" operator="out"/>
<feColorMatrix type="matrix" values="0 0 0 0 0 0 0 0 0 0 0 0 0 0 0 0 0 0 0.25 0"/>
<feBlend mode="normal" in2="BackgroundImageFix" result="effect1_dropShadow_50_75"/>
<feBlend mode="normal" in="SourceGraphic" in2="effect1_dropShadow_50_75" result="shape"/>
</filter>
<linearGradient id="paint0_linear_50_75" x1="113.5" y1="71" x2="336.5" y2="368" gradientUnits="userSpaceOnUse">
<stop stop-color="#01323A"/>
<stop offset="1"/>
</linearGradient>
</defs>
</svg>
