<svg width="256" height="256" viewBox="0 0 256 256" fill="none" xmlns="http://www.w3.org/2000/svg">
<path d="M106.429 254.324C77.8036 252.299 57.2862 246.329 40.0761 235.018C21.6571 222.911 8.93954 200.243 3.9843 170.687C1.69292 157.021 0.962957 146.366 1.00143 127.164C1.07014 93.0812 4.72734 71.9613 13.9373 52.4684C22.7757 33.762 33.8514 22.6792 52.4395 13.9416C72.1839 4.66056 93.5545 1 127.994 1C162.433 1 183.803 4.66056 203.548 13.9416C222.119 22.6715 233.122 33.6726 242.078 52.4684C251.216 71.6451 254.915 93.0336 254.999 127.164C255.1 168.687 249.55 193.658 235.416 215.277C222.216 235.466 198.18 248.266 165.151 252.695C147.932 255.004 125.031 255.639 106.429 254.324Z" fill="url(#paint0_linear_84_12)"/>
<path d="M35.3842 147.897C34.6839 147.605 34.0489 147.012 33.6202 146.248C32.9615 145.074 32.9518 144.881 33.0381 134.684C33.1225 124.712 33.1504 124.281 33.7635 123.453C34.1141 122.979 34.8544 122.283 35.4086 121.905L36.4161 121.218H60.0046C80.9203 121.218 83.8246 121.276 85.6367 121.723C89.155 122.592 91.8066 124.771 93.1813 127.923C93.7237 129.166 93.7758 130.026 93.7758 137.741V146.197L93.0337 146.988C91.9286 148.167 90.3022 148.513 88.7643 147.897C86.4666 146.976 86.3578 146.608 86.1956 139.201C86.0557 132.807 86.0347 132.632 85.2373 131.209C84.7655 130.367 83.8247 129.338 83.0035 128.767L81.5849 127.781L76.9661 127.683C71.7917 127.574 70.7392 127.856 69.1164 129.788C67.356 131.883 67.2942 132.176 67.0876 139.379C66.9817 143.072 66.8744 146.107 66.8492 146.123C66.824 146.139 66.4948 146.504 66.1176 146.935C65.7404 147.365 64.8442 147.891 64.126 148.102C63.0112 148.43 62.6701 148.415 61.7943 147.996C61.2301 147.727 60.4219 147.051 59.9983 146.495C59.2353 145.493 59.2271 145.419 59.1298 138.641C59.0562 133.51 58.9363 131.767 58.6507 131.672C58.4411 131.602 58.2697 131.378 58.2697 131.175C58.2697 130.58 56.0848 128.616 54.8508 128.101C53.0833 127.363 46.4278 127.436 44.9237 128.209C43.5476 128.917 41.8767 130.759 41.6153 131.857C41.5096 132.301 41.3152 132.803 41.1832 132.973C41.0513 133.143 40.8988 136.184 40.8443 139.73L40.7452 146.179L39.962 146.962C39.1378 147.787 37.8551 148.394 36.9919 148.368C36.7095 148.36 35.986 148.147 35.3842 147.897ZM130.501 147.897C129.076 147.731 127.493 147.397 126.982 147.155C125.623 146.51 123.848 144.672 123.047 143.08C121.764 140.527 121.663 139.165 121.663 124.414C121.663 112.95 121.741 110.222 122.091 109.549C123.857 106.15 128.307 106.15 130.073 109.549C130.421 110.218 130.501 112.755 130.501 123.035C130.501 130.12 130.626 136.027 130.785 136.446C131.223 137.598 133.105 139.262 134.418 139.656C135.888 140.097 145.241 140.129 147.741 139.701C151.531 139.053 153.359 137.372 153.359 134.534C153.359 131.576 155.2 129.722 157.841 130.021C160.947 130.371 162.039 133.477 160.725 138.223C159.387 143.056 156.333 146.016 151.073 147.578C149.199 148.134 134.504 148.362 130.501 147.897ZM169.512 147.565C167.46 146.162 167.379 145.732 167.379 136.246C167.379 126.722 167.47 126.224 169.434 125.008C171.658 123.632 174.494 124.43 175.614 126.747C176.17 127.897 176.217 128.647 176.217 136.368C176.216 143.731 176.152 144.87 175.683 145.804C174.519 148.124 171.564 148.968 169.512 147.565ZM184.069 147.774C182.212 146.765 181.797 143.794 183.027 140.316C183.895 137.86 185.008 136.074 186.956 134.011L188.459 132.419L186.774 130.704C184.093 127.976 182.313 124.123 182.313 121.049C182.313 119.643 182.43 119.371 183.496 118.304C184.526 117.272 184.86 117.119 186.076 117.119C188.153 117.119 189.274 118.231 190.189 121.202C191.474 125.372 194.55 127.732 199.631 128.449C204.139 129.085 208.978 128.142 211.399 126.155C212.787 125.016 214.314 122.405 214.314 121.169C214.314 119.914 215.162 118.371 216.2 117.737C218.472 116.35 221.222 117.367 221.971 119.871C222.784 122.588 220.72 128.005 217.671 131.154L215.936 132.946L217.792 134.89C219.963 137.165 221.441 139.99 221.973 142.88C222.298 144.648 222.281 145.041 221.838 145.97C220.303 149.194 215.704 148.889 214.654 145.495C213.469 141.663 212.232 139.895 209.697 138.414C205.774 136.122 197.8 136.161 194.035 138.491C191.963 139.774 189.932 142.9 189.932 144.807C189.932 147.397 186.537 149.115 184.069 147.774ZM112.678 126.767C111.227 125.314 111.385 122.279 112.99 120.769C114.055 119.766 117.257 119.682 118.321 120.629C119.231 121.438 120.444 124.206 120.444 125.474C120.444 127.16 119.767 127.496 116.367 127.496C113.652 127.496 113.346 127.436 112.678 126.767ZM132.044 126.922C131.593 126.077 131.647 124.835 132.204 123.223C133.479 119.539 136.754 118.418 145.283 118.748C150.808 118.961 151.284 119.063 152.617 120.323C153.567 121.22 153.664 121.469 153.664 123.016C153.664 125.026 153.253 126.067 152.169 126.805C151.463 127.286 150.357 127.354 141.873 127.436C132.653 127.525 132.359 127.51 132.044 126.922ZM169.944 121.401C168.283 120.728 167.095 118.192 167.524 116.235C167.968 114.213 170.71 112.539 172.777 113.029C176.727 113.966 177.379 119.375 173.767 121.245C172.821 121.735 170.957 121.811 169.944 121.401Z" fill="#F4F4F4"/>
<path d="M99.344 136.36C99.344 138.535 100.588 140.336 102.462 140.871C104.582 141.477 106.326 141.121 107.701 139.802C110.184 137.419 109.216 133.154 105.848 131.633C102.834 130.271 99.344 132.807 99.344 136.36Z" fill="#76E0DB"/>
<defs>
<linearGradient id="paint0_linear_84_12" x1="128" y1="1" x2="128" y2="255" gradientUnits="userSpaceOnUse">
<stop stop-color="#01323A"/>
<stop offset="1" stop-color="#001B20"/>
</linearGradient>
</defs>
</svg>
