<svg width="256" height="256" viewBox="0 0 256 256" fill="none" xmlns="http://www.w3.org/2000/svg">
<mask id="mask0_84_12" style="mask-type:alpha" maskUnits="userSpaceOnUse" x="1" y="1" width="254" height="254">
<path d="M106.429 254.324C77.8036 252.299 57.2862 246.329 40.0761 235.018C21.6571 222.911 8.93954 200.243 3.9843 170.687C1.69292 157.021 0.962957 146.366 1.00143 127.164C1.07014 93.0812 4.72734 71.9613 13.9373 52.4684C22.7757 33.762 33.8514 22.6792 52.4395 13.9416C72.1839 4.66056 93.5545 1 127.994 1C162.433 1 183.803 4.66056 203.548 13.9416C222.119 22.6715 233.122 33.6726 242.078 52.4684C251.216 71.6451 254.915 93.0336 254.999 127.164C255.1 168.687 249.55 193.658 235.416 215.277C222.216 235.466 198.18 248.266 165.151 252.695C147.932 255.004 125.031 255.639 106.429 254.324Z" fill="white"/>
</mask>
<g mask="url(#mask0_84_12)">
<rect x="1" y="1" width="254.001" height="254.001" fill="url(#paint0_linear_84_12)"/>
<g filter="url(#filter0_d_84_12)">
<path d="M35.4138 148.757C34.7134 148.466 34.0785 147.872 33.6497 147.108C32.991 145.935 32.9813 145.742 33.0676 135.545C33.1521 125.573 33.1799 125.142 33.793 124.314C34.1437 123.84 34.884 123.144 35.4381 122.766L36.4457 122.079H60.0341C80.9499 122.079 83.8541 122.136 85.6662 122.584C89.1845 123.453 91.8361 125.632 93.2109 128.783C93.7533 130.027 93.8053 130.887 93.8053 138.602V147.058L93.0633 147.849C91.9582 149.028 90.3317 149.374 88.7939 148.758C86.4962 147.837 86.3873 147.468 86.2252 140.061C86.0852 133.668 86.0643 133.493 85.2669 132.07C84.795 131.228 83.8542 130.199 83.033 129.628L81.6144 128.641L76.9957 128.544C71.8213 128.435 70.7688 128.717 69.146 130.649C67.3856 132.744 67.3237 133.036 67.1171 140.24C67.0113 143.933 66.9039 146.968 66.8787 146.984C66.8535 147 66.5243 147.365 66.1472 147.796C65.77 148.226 64.8738 148.751 64.1556 148.963C63.0407 149.291 62.6996 149.275 61.8238 148.857C61.2596 148.588 60.4514 147.912 60.0278 147.356C59.2649 146.354 59.2567 146.28 59.1594 139.502C59.0858 134.371 58.9659 132.628 58.6802 132.533C58.4707 132.463 58.2992 132.239 58.2992 132.035C58.2992 131.441 56.1144 129.476 54.8803 128.962C53.1128 128.224 46.4573 128.297 44.9533 129.07C43.5771 129.778 41.9062 131.62 41.6449 132.718C41.5391 133.162 41.3447 133.664 41.2128 133.834C41.0808 134.004 40.9283 137.045 40.8738 140.591L40.7748 147.039L39.9915 147.823C39.1673 148.648 37.8846 149.255 37.0214 149.228C36.739 149.22 36.0155 149.008 35.4138 148.757ZM130.531 147.668C129.106 147.503 127.522 147.169 127.011 146.927C125.652 146.282 123.877 144.444 123.077 142.852C121.793 140.299 121.692 138.937 121.692 124.186C121.692 112.722 121.771 109.994 122.12 109.321C123.886 105.922 128.337 105.922 130.102 109.321C130.45 109.99 130.531 112.527 130.531 122.807C130.531 129.892 130.656 135.799 130.815 136.217C131.252 137.37 133.135 139.033 134.448 139.427C135.917 139.868 145.27 139.9 147.77 139.473C151.56 138.825 153.389 137.143 153.389 134.305C153.389 131.348 155.23 129.494 157.871 129.792C160.977 130.143 162.069 133.249 160.755 137.995C159.417 142.827 156.363 145.787 151.103 147.35C149.229 147.906 134.533 148.134 130.531 147.668ZM169.541 147.336C167.489 145.934 167.408 145.504 167.408 136.018C167.408 126.494 167.499 125.996 169.464 124.78C171.687 123.404 174.524 124.202 175.643 126.518C176.2 127.669 176.247 128.419 176.246 136.14C176.246 143.502 176.181 144.641 175.713 145.575C174.548 147.896 171.594 148.739 169.541 147.336ZM184.098 147.545C182.242 146.537 181.827 143.566 183.056 140.087C183.924 137.632 185.037 135.846 186.985 133.783L188.489 132.191L186.804 130.476C184.122 127.747 182.342 123.895 182.342 120.821C182.342 119.415 182.459 119.143 183.525 118.075C184.555 117.044 184.889 116.89 186.105 116.89C188.183 116.89 189.303 118.003 190.219 120.974C191.504 125.143 194.579 127.504 199.661 128.221C204.169 128.857 209.007 127.914 211.428 125.927C212.817 124.787 214.343 122.177 214.343 120.941C214.343 119.686 215.191 118.143 216.23 117.509C218.501 116.122 221.251 117.139 222 119.643C222.813 122.36 220.749 127.776 217.7 130.926L215.966 132.718L217.821 134.662C219.992 136.937 221.47 139.762 222.002 142.652C222.328 144.42 222.31 144.812 221.868 145.742C220.333 148.966 215.733 148.661 214.684 145.266C213.499 141.435 212.261 139.667 209.727 138.186C205.804 135.893 197.83 135.933 194.065 138.263C191.993 139.545 189.961 142.672 189.961 144.579C189.961 147.168 186.566 148.886 184.098 147.545ZM112.708 126.539C111.257 125.086 111.415 122.05 113.02 120.54C114.085 119.538 117.287 119.454 118.351 120.4C119.261 121.21 120.473 123.978 120.473 125.245C120.473 126.932 119.796 127.268 116.397 127.268C113.681 127.268 113.375 127.207 112.708 126.539ZM132.074 126.694C131.622 125.849 131.676 124.606 132.234 122.995C133.508 119.31 136.783 118.19 145.312 118.519C150.837 118.733 151.314 118.835 152.647 120.094C153.596 120.991 153.693 121.241 153.693 122.788C153.693 124.798 153.283 125.839 152.199 126.577C151.492 127.058 150.387 127.125 141.903 127.208C132.682 127.297 132.388 127.282 132.074 126.694ZM169.974 121.173C168.313 120.5 167.124 117.963 167.553 116.007C167.997 113.985 170.739 112.311 172.806 112.801C176.756 113.737 177.408 119.147 173.797 121.017C172.85 121.507 170.986 121.583 169.974 121.173Z" fill="#F4F4F4"/>
</g>
<path d="M99.3735 136.131C99.3735 138.307 100.618 140.107 102.491 140.643C104.611 141.249 106.355 140.893 107.73 139.573C110.213 137.191 109.246 132.925 105.878 131.404C102.863 130.043 99.3735 132.579 99.3735 136.131Z" fill="#76E0DB"/>
</g>
<defs>
<filter id="filter0_d_84_12" x="1.02951" y="74.7717" width="253.196" height="106.458" filterUnits="userSpaceOnUse" color-interpolation-filters="sRGB">
<feFlood flood-opacity="0" result="BackgroundImageFix"/>
<feColorMatrix in="SourceAlpha" type="matrix" values="0 0 0 0 0 0 0 0 0 0 0 0 0 0 0 0 0 0 127 0" result="hardAlpha"/>
<feOffset/>
<feGaussianBlur stdDeviation="16"/>
<feComposite in2="hardAlpha" operator="out"/>
<feColorMatrix type="matrix" values="0 0 0 0 0 0 0 0 0 0 0 0 0 0 0 0 0 0 0.25 0"/>
<feBlend mode="normal" in2="BackgroundImageFix" result="effect1_dropShadow_84_12"/>
<feBlend mode="normal" in="SourceGraphic" in2="effect1_dropShadow_84_12" result="shape"/>
</filter>
<linearGradient id="paint0_linear_84_12" x1="85.5428" y1="53.8858" x2="251.649" y2="275.112" gradientUnits="userSpaceOnUse">
<stop stop-color="#01323A"/>
<stop offset="1"/>
</linearGradient>
</defs>
</svg>
