<svg width="192" height="192" viewBox="0 0 192 192" fill="none" xmlns="http://www.w3.org/2000/svg">
<path d="M79.8641 190.494C58.4515 188.98 43.1039 184.514 30.2301 176.052C16.4521 166.996 6.93903 150.04 3.23235 127.931C1.51833 117.708 0.97229 109.739 1.00107 95.3749C1.05247 69.8796 3.78817 54.0813 10.6775 39.5C17.2889 25.507 25.5739 17.2167 39.4783 10.6808C54.2478 3.73821 70.2337 1 95.9953 1C121.757 1 137.743 3.73821 152.512 10.6808C166.404 17.211 174.634 25.4402 181.334 39.5C188.169 53.8448 190.937 69.844 190.999 95.3749C191.075 126.436 186.923 145.115 176.35 161.286C166.477 176.388 148.497 185.963 123.79 189.276C110.91 191.003 93.7794 191.478 79.8641 190.494Z" fill="url(#paint0_linear_128_415)"/>
<path d="M64.9238 95.7129C64.9238 93.2234 64.5089 91.0851 63.6791 89.2978C62.8492 87.5105 61.6684 86.1381 60.1364 85.1806C58.6363 84.2231 56.8331 83.7444 54.7266 83.7444C52.684 83.7444 50.8967 84.2231 49.3647 85.1806C47.8328 86.1381 46.6519 87.5105 45.8221 89.2978C44.9922 91.0851 44.5773 93.2234 44.5773 95.7129C44.5773 98.1704 44.9922 100.293 45.8221 102.08C46.6519 103.867 47.8328 105.24 49.3647 106.197C50.8967 107.155 52.684 107.634 54.7266 107.634C56.8331 107.634 58.6363 107.155 60.1364 106.197C61.6684 105.24 62.8492 103.867 63.6791 102.08C64.5089 100.293 64.9238 98.1704 64.9238 95.7129ZM69.041 105C67.6686 107.649 65.7536 109.708 63.2961 111.176C60.8385 112.612 57.9821 113.331 54.7266 113.331C51.4712 113.331 48.6147 112.612 46.1572 111.176C43.7316 109.708 41.8326 107.649 40.4602 105C39.0878 102.351 38.4016 99.2556 38.4016 95.7129C38.4016 92.1064 39.0718 88.9946 40.4123 86.3774C41.7847 83.7284 43.6996 81.6858 46.1572 80.2496C48.6147 78.7814 51.4712 78.0474 54.7266 78.0474C58.014 78.0474 60.8705 78.7814 63.2961 80.2496C65.7536 81.6858 67.6686 83.7284 69.041 86.3774C70.4133 88.9946 71.0995 92.1064 71.0995 95.7129C71.0995 99.2556 70.4133 102.351 69.041 105Z" fill="white"/>
<path d="M76.0092 88.053H81.802V94.8511H80.3179C80.8924 92.5851 81.9775 90.7819 83.5733 89.4414C85.1691 88.069 87.0203 87.3828 89.1267 87.3828C94.9674 87.3828 97.8877 91.0053 97.8877 98.2502V112.708H92.047V98.5853C92.047 96.5746 91.6481 95.0905 90.8502 94.133C90.0523 93.1756 88.8395 92.6968 87.2118 92.6968C86.1905 92.6968 85.2649 92.9681 84.4351 93.5107C83.6372 94.0532 82.9988 94.8192 82.5201 95.8086C82.0733 96.798 81.8499 97.947 81.8499 99.2556V112.708H76.0092V88.053Z" fill="white"/>
<path d="M102.208 100.405C102.208 97.7874 102.719 95.5054 103.74 93.5585C104.793 91.6117 106.245 90.0957 108.096 89.0105C109.948 87.9254 112.086 87.3828 114.512 87.3828C117.001 87.3828 119.139 87.9254 120.927 89.0105C122.714 90.0957 124.07 91.5957 124.996 93.5107C125.953 95.3937 126.432 97.5321 126.432 99.9258V101.984H105.32V97.8193H123.129L120.735 99.3034C120.735 97.8353 120.48 96.5746 119.969 95.5214C119.459 94.4682 118.74 93.6543 117.815 93.0798C116.921 92.5053 115.836 92.2181 114.559 92.2181C113.283 92.2181 112.15 92.5213 111.16 93.1277C110.171 93.7341 109.405 94.6118 108.862 95.7608C108.352 96.8778 108.096 98.2342 108.096 99.83V100.692C108.096 103.085 108.687 104.953 109.868 106.293C111.081 107.602 112.756 108.256 114.895 108.256C116.203 108.256 117.352 107.985 118.341 107.442C119.331 106.899 120.177 106.086 120.879 105L125.379 107.729C124.198 109.58 122.682 110.985 120.831 111.942C119.012 112.868 116.969 113.331 114.703 113.331C112.246 113.331 110.075 112.82 108.192 111.799C106.341 110.745 104.873 109.261 103.788 107.346C102.735 105.399 102.208 103.085 102.208 100.405Z" fill="white"/>
<path d="M131.326 99.3034V78.6697H137.358V99.3034C137.358 101.25 137.645 102.846 138.22 104.091C138.826 105.304 139.688 106.197 140.805 106.772C141.954 107.346 143.342 107.634 144.97 107.634C146.566 107.634 147.922 107.346 149.039 106.772C150.156 106.197 151.018 105.304 151.624 104.091C152.231 102.846 152.534 101.25 152.534 99.3034V78.6697H158.566V99.3034C158.566 102.399 158.024 105 156.938 107.107C155.853 109.181 154.305 110.745 152.295 111.799C150.284 112.82 147.826 113.331 144.922 113.331C142.05 113.331 139.608 112.82 137.597 111.799C135.587 110.745 134.039 109.181 132.954 107.107C131.868 105 131.326 102.399 131.326 99.3034Z" fill="white"/>
<path d="M165.512 78.6697H171.544V112.708H165.512V78.6697Z" fill="white"/>
<path d="M26.8071 78.1099C25.9929 78.1099 25.1885 78.2808 24.4497 78.6107C23.7109 78.9407 23.0555 79.4218 22.5288 80.0206C22.0021 80.6195 21.6169 81.3217 21.3999 82.0785C21.1828 82.8354 21.1392 83.6287 21.2719 84.4035L23.8104 99.0977C24.0545 100.511 25.3219 101.546 26.8071 101.546C28.2922 101.546 29.5597 100.511 29.8038 99.0977L32.3422 84.4035C32.475 83.6287 32.4313 82.8354 32.2143 82.0785C31.9972 81.3217 31.612 80.6195 31.0854 80.0206C30.5587 79.4218 29.9032 78.9407 29.1644 78.6107C28.4256 78.2808 27.6212 78.1099 26.8071 78.1099Z" fill="white"/>
<path d="M26.8071 105.453C24.57 105.453 22.7564 107.203 22.7564 109.36C22.7564 111.518 24.57 113.267 26.8071 113.267C29.0443 113.267 30.8578 111.518 30.8578 109.36C30.8578 107.203 29.0443 105.453 26.8071 105.453Z" fill="white"/>
<defs>
<linearGradient id="paint0_linear_128_415" x1="96" y1="1" x2="96" y2="191" gradientUnits="userSpaceOnUse">
<stop stop-color="#0065D9"/>
<stop offset="1" stop-color="#004DA5"/>
</linearGradient>
</defs>
</svg>
