<svg width="256" height="256" viewBox="0 0 256 256" fill="none" xmlns="http://www.w3.org/2000/svg">
<path d="M106.429 254.324C77.8036 252.299 57.2862 246.329 40.0761 235.018C21.6571 222.911 8.93954 200.243 3.9843 170.687C1.69292 157.021 0.962957 146.366 1.00143 127.164C1.07014 93.0812 4.72734 71.9613 13.9373 52.4684C22.7757 33.762 33.8514 22.6792 52.4395 13.9416C72.1839 4.66056 93.5545 1 127.994 1C162.433 1 183.803 4.66056 203.548 13.9416C222.119 22.6715 233.122 33.6726 242.078 52.4684C251.216 71.6451 254.915 93.0336 254.999 127.164C255.1 168.687 249.55 193.658 235.416 215.277C222.216 235.466 198.18 248.266 165.151 252.695C147.932 255.004 125.031 255.639 106.429 254.324Z" fill="#01A146"/>
<path fill-rule="evenodd" clip-rule="evenodd" d="M80.0095 250.867C88.014 252.506 96.7589 253.64 106.429 254.323C125.031 255.639 147.932 255.004 165.151 252.695C198.18 248.266 222.216 235.466 235.416 215.277C247.155 197.321 252.973 177.053 254.549 146.909C254.482 146.841 254.415 146.774 254.348 146.707C234.969 127.328 203.549 127.328 184.17 146.707L80.0095 250.867Z" fill="#FFB65C"/>
<path fill-rule="evenodd" clip-rule="evenodd" d="M1.4126 109.669C20.8163 128.726 51.995 128.619 71.2665 109.348L175.782 4.83203C162.635 2.16089 147.386 1 127.994 1C93.5544 1 72.1838 4.66064 52.4395 13.9417C33.8513 22.6792 22.7756 33.762 13.9373 52.4685C6.41443 68.3904 2.59644 85.3977 1.4126 109.669Z" fill="#01A3C2"/>
<path fill-rule="evenodd" clip-rule="evenodd" d="M80.0095 250.867C88.014 252.506 96.7589 253.64 106.429 254.323C125.031 255.639 147.932 255.004 165.151 252.695C198.18 248.266 222.216 235.466 235.416 215.277C239.144 209.575 242.275 203.639 244.863 197.227C243.259 187.291 238.626 177.749 230.966 170.089C211.587 150.71 180.167 150.71 160.788 170.089L80.0095 250.867Z" fill="#FFC966"/>
<path fill-rule="evenodd" clip-rule="evenodd" d="M24.4708 85.9658C43.8499 105.345 75.2694 105.345 94.6484 85.9658L175.783 4.83203C162.635 2.16089 147.386 1 127.994 1C93.5544 1 72.1838 4.66064 52.4395 13.9417C33.8513 22.6792 22.7756 33.762 13.9373 52.4685C12.7899 54.8967 11.7289 57.3501 10.7501 59.8508C12.5001 69.4172 17.0737 78.5688 24.4708 85.9658Z" fill="#01B7EC"/>
<g style="mix-blend-mode:soft-light">
<path d="M40.076 235.018C57.2862 246.33 77.8036 252.299 106.429 254.323C125.031 255.639 147.932 255.004 165.151 252.695C198.18 248.266 222.216 235.466 235.416 215.277C249.409 193.874 254.989 169.185 255 128.4C255 128.316 255 128.233 255 128.149C255 127.822 254.999 127.494 254.999 127.164C254.915 93.0337 251.216 71.645 242.078 52.4685C233.122 33.6726 222.119 22.6716 203.548 13.9417C183.803 4.66064 162.433 1 127.994 1C93.5544 1 72.1838 4.66064 52.4394 13.9417C33.8513 22.6792 22.7756 33.762 13.9372 52.4685C4.72726 71.9612 1.07016 93.0811 1.00143 127.164C0.962979 146.366 1.69284 157.021 3.98422 170.687C8.93954 200.243 21.6571 222.911 40.076 235.018Z" fill="url(#paint0_linear_84_19)"/>
</g>
<path d="M109.334 206.297C99.7945 197.162 98.0752 195.128 96.5905 191.219C94.0717 184.587 94.8331 177.586 98.772 171.159C100.709 167.999 100.148 168.599 116.092 152.624C123.607 145.093 129.687 138.85 129.603 138.75C129.519 138.65 121.097 141.363 110.888 144.779C100.679 148.195 91.9908 151.032 91.5804 151.084C91.0362 151.153 88.6728 149.038 82.8445 143.267C78.4501 138.915 74.0517 134.428 73.0702 133.294C69.007 128.601 67.6292 120.374 69.737 113.39C71.1564 108.687 72.7112 106.711 82.6306 96.9982C87.6721 92.062 99.6812 80.163 109.317 70.556C118.954 60.9491 127.481 52.674 128.267 52.167C133.612 48.7184 141.054 47.7693 147.539 49.7094C151.76 50.9725 154.49 53.0363 163.666 61.9033C171.281 69.2609 172.117 70.1847 171.654 70.7272C171.369 71.0605 161.415 81.0678 149.533 92.9656C137.652 104.863 127.853 114.765 127.758 114.97C127.664 115.174 127.738 115.269 127.925 115.179C128.775 114.772 164.89 102.976 165.205 103.003C165.655 103.042 175.309 112.159 179.707 116.699C184.507 121.653 185.826 123.797 187.231 128.921C187.796 130.981 187.953 132.607 187.853 135.354C187.635 141.347 185.707 145.735 181.205 150.48C178.277 153.566 167.392 164.383 166.742 164.853C166.491 165.034 155.334 176.177 141.948 189.616C128.562 203.054 117.588 214.068 117.562 214.09C117.536 214.112 113.834 210.606 109.334 206.297Z" fill="white"/>
<defs>
<linearGradient id="paint0_linear_84_19" x1="128" y1="1" x2="128" y2="255" gradientUnits="userSpaceOnUse">
<stop stop-color="#A5A4A4"/>
<stop offset="1" stop-color="#656565"/>
</linearGradient>
</defs>
</svg>
