<svg width="192" height="192" viewBox="0 0 192 192" fill="none" xmlns="http://www.w3.org/2000/svg">
<path d="M79.8641 190.494C58.4515 188.98 43.1039 184.514 30.2301 176.052C16.4521 166.996 6.93903 150.04 3.23235 127.931C1.51833 117.708 0.97229 109.739 1.00107 95.3749C1.05247 69.8796 3.78817 54.0812 10.6775 39.5C17.2889 25.507 25.5739 17.2167 39.4783 10.6808C54.2478 3.73821 70.2337 1 95.9953 1C121.757 1 137.743 3.73821 152.512 10.6808C166.404 17.211 174.634 25.4402 181.334 39.5C188.169 53.8448 190.937 69.844 190.999 95.3749C191.075 126.436 186.923 145.115 176.35 161.286C166.477 176.388 148.497 185.963 123.79 189.276C110.91 191.003 93.7794 191.478 79.8641 190.494Z" fill="url(#paint0_linear_108_230)"/>
<path d="M104.143 81.9699C104.144 84.1275 105.105 85.9026 106.849 86.9698C108.212 87.8038 111.16 87.978 112.488 87.3029C112.937 87.0743 115.953 84.2496 119.19 81.0258L125.075 75.1644L130.971 81.0397C134.214 84.2712 137.341 87.0958 137.92 87.3168C143.092 89.29 148.058 84.2399 145.712 79.393C145.236 78.4092 142.722 75.5644 139.317 72.1557L133.706 66.5394L139.833 60.3236C145.61 54.4623 145.975 54.0068 146.224 52.3383C146.819 48.3599 143.361 44.8902 139.397 45.4868C137.734 45.737 137.28 46.1028 131.44 51.9004L125.246 58.0487L119.649 52.4185C116.252 49.0014 113.418 46.4788 112.437 46.0009C107.607 43.6463 102.575 48.6295 104.541 53.8198C104.762 54.401 107.576 57.5391 110.796 60.7935L116.651 66.7105L110.81 72.6166C107.598 75.865 104.783 78.8916 104.555 79.3425C104.327 79.7934 104.142 80.9758 104.143 81.9699Z" fill="#F0EDBC"/>
<path fill-rule="evenodd" clip-rule="evenodd" d="M90.3898 66.7236C90.3898 79.8867 79.7565 90.5575 66.6398 90.5575C53.523 90.5575 42.8898 79.8867 42.8898 66.7236C42.8898 53.5605 53.523 42.8896 66.6398 42.8896C79.7565 42.8896 90.3898 53.5605 90.3898 66.7236ZM66.6398 80.048C73.9728 80.048 79.9173 74.0825 79.9173 66.7236C79.9173 59.3647 73.9728 53.3991 66.6398 53.3991C59.3068 53.3991 53.3622 59.3647 53.3622 66.7236C53.3622 74.0825 59.3068 80.048 66.6398 80.048Z" fill="#BEBCFF"/>
<path fill-rule="evenodd" clip-rule="evenodd" d="M90.3898 125.276C90.3898 138.439 79.7565 149.11 66.6398 149.11C53.523 149.11 42.8898 138.439 42.8898 125.276C42.8898 112.113 53.523 101.442 66.6398 101.442C79.7565 101.442 90.3898 112.113 90.3898 125.276ZM66.6398 138.601C73.9728 138.601 79.9173 132.635 79.9173 125.276C79.9173 117.917 73.9728 111.952 66.6398 111.952C59.3068 111.952 53.3622 117.917 53.3622 125.276C53.3622 132.635 59.3068 138.601 66.6398 138.601Z" fill="#8DCCE5"/>
<path fill-rule="evenodd" clip-rule="evenodd" d="M149.11 125.276C149.11 138.439 138.477 149.11 125.36 149.11C112.243 149.11 101.61 138.439 101.61 125.276C101.61 112.113 112.243 101.442 125.36 101.442C138.477 101.442 149.11 112.113 149.11 125.276ZM125.36 138.601C132.693 138.601 138.638 132.635 138.638 125.276C138.638 117.917 132.693 111.952 125.36 111.952C118.027 111.952 112.083 117.917 112.083 125.276C112.083 132.635 118.027 138.601 125.36 138.601Z" fill="#E8CCC7"/>
<defs>
<linearGradient id="paint0_linear_108_230" x1="96" y1="1" x2="96" y2="191" gradientUnits="userSpaceOnUse">
<stop stop-color="#552A96"/>
<stop offset="1" stop-color="#3B2988"/>
</linearGradient>
</defs>
</svg>
