<svg width="341" height="341" viewBox="0 0 341 341" fill="none" xmlns="http://www.w3.org/2000/svg">
<g clip-path="url(#clip0_74_62)">
<rect width="341" height="341" fill="url(#paint0_linear_74_62)"/>
<g filter="url(#filter0_d_74_62)">
<path d="M100.933 277.892C97.402 277.892 94.4241 275.263 93.9865 271.759L89.3891 234.951C89.1495 233.032 88.1271 231.299 86.5643 230.16L53.6603 206.194C52.2477 205.165 51.2626 203.647 50.9518 201.927C49.6546 194.747 49 187.463 49 180.162C49 112.729 103.654 58 171 58C238.344 58 293 112.729 293 180.162C293 187.464 292.347 194.748 291.047 201.929C290.735 203.648 289.751 205.165 288.339 206.193L255.433 230.16C253.871 231.299 252.848 233.033 252.609 234.951L248.013 271.759C247.576 275.263 244.598 277.892 241.067 277.892H187.614C186.133 277.892 184.69 278.362 183.493 279.234L181.763 280.494C178.635 282.773 174.865 284 170.998 284C167.13 284 163.36 282.773 160.232 280.494L158.508 279.237C157.31 278.363 155.866 277.892 154.383 277.892H100.933Z" fill="url(#paint1_linear_74_62)"/>
<path fill-rule="evenodd" clip-rule="evenodd" d="M93.9865 271.759C94.4241 275.263 97.402 277.892 100.933 277.892H154.383C155.866 277.892 157.311 278.363 158.508 279.237L160.232 280.494C163.36 282.773 167.13 284 170.998 284C174.865 284 178.635 282.773 181.763 280.494L183.493 279.234C184.69 278.362 186.133 277.892 187.614 277.892H241.067C244.598 277.892 247.576 275.263 248.013 271.759L252.609 234.951C252.848 233.033 253.871 231.299 255.433 230.16L288.339 206.193C289.751 205.165 290.735 203.648 291.047 201.929C292.347 194.748 293 187.464 293 180.162C293 112.729 238.344 58 171 58C103.654 58 49 112.729 49 180.162C49 187.463 49.6546 194.747 50.9518 201.927C51.2626 203.647 52.2477 205.165 53.6603 206.194L86.5643 230.16C88.1271 231.299 89.1495 233.032 89.3891 234.951L93.9865 271.759ZM106.606 218.32C108.169 219.459 109.192 221.193 109.431 223.111L112.834 250.38C113.271 253.884 116.249 256.514 119.78 256.514H156.325C157.807 256.514 159.25 256.984 160.447 257.856L165.261 261.363C166.932 262.578 168.941 263.232 171.005 263.232C173.069 263.232 175.077 262.578 176.746 261.363L181.563 257.855C182.76 256.983 184.203 256.514 185.684 256.514L222.225 256.513C225.756 256.513 228.734 253.884 229.172 250.381L232.576 223.111C232.816 221.193 233.838 219.459 235.401 218.32L268.692 194.07C269.547 193.447 270.166 192.548 270.397 191.515V191.515C271.23 187.79 271.652 183.982 271.652 180.162C271.652 179.706 271.646 179.251 271.634 178.796C271.545 175.391 271.121 172.01 270.373 168.701C269.286 163.896 263.409 162.78 259.947 166.285L201.522 225.44L264.078 148.111C264.859 147.145 265.154 145.866 264.812 144.671V144.671C262.895 137.961 259.652 131.728 255.3 126.334C252.518 122.886 247.311 123.724 245.092 127.558L192.199 218.973L241.143 114.46C242.209 112.184 241.959 109.481 240.297 107.597V107.597C235.59 102.26 229.843 97.9562 223.423 94.9443C219.866 93.2757 215.864 95.4687 214.787 99.2468L181.782 215.049L206.676 90.5783C207.067 88.6236 206.167 86.6199 204.371 85.7536V85.7536C197.362 82.3713 189.668 80.6073 181.863 80.6073C181.745 80.6073 181.627 80.6077 181.509 80.6086V80.6086C178.457 80.6298 176.121 83.1747 176.001 86.2243L171.002 213.762L165.821 81.6242C165.805 81.2181 165.494 80.8842 165.09 80.8454V80.8454C163.447 80.6878 161.795 80.6073 160.144 80.6073C159.587 80.6073 159.029 80.6163 158.473 80.6343C151.817 80.8489 145.279 82.3436 139.206 85.0275C136.438 86.2509 135.075 89.3086 135.668 92.2763L160.227 215.049L125.817 94.3242C125.51 93.2463 124.375 92.6287 123.318 93.0023V93.0023C119.689 94.2857 116.23 95.9637 113 97.9957C108.846 100.609 105.069 103.807 101.793 107.505C100.077 109.442 99.8205 112.227 100.918 114.57L149.806 218.973L94.0991 122.691C93.3351 121.37 91.5495 121.081 90.4683 122.157V122.157C84.5539 128.046 80.1492 135.278 77.6234 143.236C76.9617 145.32 77.4921 147.576 78.8678 149.276L140.485 225.44L82.06 166.287C78.5974 162.781 72.7191 163.899 71.6331 168.705C70.7859 172.455 70.3549 176.297 70.3549 180.162C70.3549 183.689 70.7148 187.205 71.4255 190.656C71.7536 192.249 72.711 193.63 74.0253 194.587L106.606 218.32Z" fill="url(#paint2_linear_74_62)"/>
</g>
</g>
<defs>
<filter id="filter0_d_74_62" x="-15" y="-6" width="372" height="354" filterUnits="userSpaceOnUse" color-interpolation-filters="sRGB">
<feFlood flood-opacity="0" result="BackgroundImageFix"/>
<feColorMatrix in="SourceAlpha" type="matrix" values="0 0 0 0 0 0 0 0 0 0 0 0 0 0 0 0 0 0 127 0" result="hardAlpha"/>
<feOffset/>
<feGaussianBlur stdDeviation="32"/>
<feComposite in2="hardAlpha" operator="out"/>
<feColorMatrix type="matrix" values="0 0 0 0 0 0 0 0 0 0 0 0 0 0 0 0 0 0 0.3 0"/>
<feBlend mode="normal" in2="BackgroundImageFix" result="effect1_dropShadow_74_62"/>
<feBlend mode="normal" in="SourceGraphic" in2="effect1_dropShadow_74_62" result="shape"/>
</filter>
<linearGradient id="paint0_linear_74_62" x1="113.5" y1="71" x2="336.5" y2="368" gradientUnits="userSpaceOnUse">
<stop stop-color="#FFE565"/>
<stop offset="0.843109" stop-color="#FFD400"/>
</linearGradient>
<linearGradient id="paint1_linear_74_62" x1="113.5" y1="71" x2="336.5" y2="368" gradientUnits="userSpaceOnUse">
<stop stop-color="#FFE565"/>
<stop offset="0.843109" stop-color="#FFD400"/>
</linearGradient>
<linearGradient id="paint2_linear_74_62" x1="171" y1="58" x2="298.5" y2="339.5" gradientUnits="userSpaceOnUse">
<stop stop-color="#ED1C24"/>
<stop offset="1" stop-color="#BD1117"/>
</linearGradient>
<clipPath id="clip0_74_62">
<rect width="341" height="341" fill="white"/>
</clipPath>
</defs>
</svg>
