<svg width="256" height="256" viewBox="0 0 256 256" fill="none" xmlns="http://www.w3.org/2000/svg">
<mask id="mask0_84_29" style="mask-type:alpha" maskUnits="userSpaceOnUse" x="1" y="1" width="254" height="254">
<path d="M106.429 254.324C77.8036 252.299 57.2862 246.329 40.0761 235.018C21.6571 222.911 8.93954 200.243 3.9843 170.687C1.69292 157.021 0.962957 146.366 1.00143 127.164C1.07014 93.0812 4.72734 71.9613 13.9373 52.4684C22.7757 33.762 33.8514 22.6792 52.4395 13.9416C72.1839 4.66056 93.5545 1 127.994 1C162.433 1 183.803 4.66056 203.548 13.9416C222.119 22.6715 233.122 33.6726 242.078 52.4684C251.216 71.6451 254.915 93.0336 254.999 127.164C255.1 168.687 249.55 193.658 235.416 215.277C222.216 235.466 198.18 248.266 165.151 252.695C147.932 255.004 125.031 255.639 106.429 254.324Z" fill="white"/>
</mask>
<g mask="url(#mask0_84_29)">
<rect x="1" y="1" width="254.001" height="254.001" fill="url(#paint0_linear_84_29)"/>
<g filter="url(#filter0_d_84_29)">
<path d="M76.181 207.991C73.5513 207.991 71.3331 206.033 71.0072 203.423L67.5827 176.006C67.4043 174.577 66.6427 173.285 65.4787 172.438L40.9697 154.586C39.9175 153.82 39.1837 152.688 38.9522 151.407C37.986 146.059 37.4984 140.634 37.4984 135.196C37.4984 84.967 78.2078 44.2017 128.372 44.2017C178.534 44.2017 219.245 84.967 219.245 135.196C219.245 140.635 218.759 146.06 217.79 151.409C217.558 152.689 216.825 153.819 215.773 154.585L191.263 172.437C190.099 173.285 189.337 174.577 189.159 176.006L185.736 203.423C185.41 206.033 183.192 207.991 180.562 207.991H140.747C139.644 207.991 138.569 208.341 137.677 208.991L136.389 209.929C134.059 211.627 131.251 212.541 128.37 212.541C125.489 212.541 122.681 211.627 120.351 209.929L119.067 208.993C118.175 208.342 117.099 207.991 115.995 207.991H76.181Z" fill="url(#paint1_linear_84_29)"/>
<path fill-rule="evenodd" clip-rule="evenodd" d="M70.8118 201.859C71.2493 205.362 74.2273 207.991 77.7578 207.991H115.412C116.895 207.991 118.34 208.462 119.538 209.336L120.351 209.929C122.681 211.627 125.489 212.541 128.37 212.541C131.251 212.541 134.059 211.627 136.389 209.929L137.207 209.333C138.404 208.461 139.847 207.991 141.329 207.991H178.985C182.516 207.991 185.494 205.362 185.931 201.858L189.063 176.773C189.303 174.855 190.325 173.121 191.888 171.982L215.213 154.993C216.625 153.965 217.613 152.448 217.911 150.727C218.799 145.6 219.245 140.404 219.245 135.196C219.245 84.967 178.534 44.2017 128.372 44.2017C78.2078 44.2017 37.4984 84.967 37.4984 135.196C37.4984 140.403 37.9454 145.598 38.8316 150.725C39.1293 152.447 40.1173 153.965 41.53 154.994L64.8538 171.982C66.4165 173.121 67.4389 174.855 67.6786 176.773L70.8118 201.859ZM79.7822 163.163C81.3451 164.301 82.3675 166.036 82.6069 167.954L84.8505 185.934C85.2877 189.438 88.2658 192.067 91.7966 192.067H116.859C118.341 192.067 119.784 192.537 120.981 193.41L124.097 195.68C125.342 196.584 126.838 197.072 128.375 197.072C129.913 197.072 131.409 196.584 132.652 195.68L135.77 193.409C136.967 192.537 138.41 192.067 139.891 192.067L164.951 192.067C168.481 192.067 171.459 189.438 171.897 185.934L174.142 167.954C174.381 166.035 175.404 164.301 176.966 163.163L201.139 145.555C201.776 145.091 202.237 144.421 202.409 143.652C203.029 140.877 203.344 138.041 203.344 135.196C203.344 134.856 203.34 134.517 203.331 134.178C203.287 132.516 203.136 130.862 202.881 129.226C202.121 124.358 196.25 123.213 192.789 126.719L151.107 168.921L197.702 111.322C198.284 110.602 198.503 109.65 198.249 108.76C197.023 104.468 195.068 100.439 192.489 96.8422C189.907 93.2426 184.683 94.0725 182.464 97.9067L144.162 164.105L180.619 86.2565C181.413 84.5614 181.227 82.548 179.988 81.1443C176.887 77.6279 173.179 74.7138 169.055 72.5351C165.581 70.7001 161.563 72.904 160.486 76.6821L136.403 161.181L154.946 68.4681C155.237 67.012 154.566 65.5196 153.229 64.8743C148.008 62.355 142.277 61.041 136.463 61.041C136.375 61.041 136.287 61.0413 136.199 61.0419C133.926 61.0577 132.186 62.9533 132.097 65.2249L128.374 160.223L124.514 61.7984C124.502 61.496 124.271 61.2472 123.969 61.2183C122.746 61.1009 121.515 61.041 120.286 61.041C119.87 61.041 119.455 61.0477 119.041 61.0611C114.516 61.207 110.064 62.1472 105.882 63.8302C103.074 64.9601 101.715 68.0343 102.308 71.002L120.348 161.182L94.7168 71.2582C94.488 70.4554 93.6423 69.9953 92.8553 70.2736C90.152 71.2296 87.5758 72.4795 85.1696 73.993C82.3763 75.7501 79.8122 77.8625 77.5446 80.2828C75.7752 82.1715 75.5277 84.9667 76.6252 87.3105L112.585 164.105L71.0911 92.3875C70.5219 91.4038 69.192 91.1883 68.3866 91.9901C64.1905 96.1677 61.0146 101.254 59.0965 106.849C58.3873 108.919 58.9272 111.178 60.303 112.879L105.642 168.922L63.9608 126.721C60.4982 123.215 54.6265 124.361 53.8673 129.23C53.5602 131.198 53.4048 133.193 53.4048 135.196C53.4048 137.609 53.631 140.015 54.0781 142.383C54.3797 143.98 55.3432 145.361 56.6575 146.319L79.7822 163.163Z" fill="url(#paint2_linear_84_29)"/>
</g>
</g>
<defs>
<filter id="filter0_d_84_29" x="-10.5016" y="-3.79834" width="277.747" height="264.339" filterUnits="userSpaceOnUse" color-interpolation-filters="sRGB">
<feFlood flood-opacity="0" result="BackgroundImageFix"/>
<feColorMatrix in="SourceAlpha" type="matrix" values="0 0 0 0 0 0 0 0 0 0 0 0 0 0 0 0 0 0 127 0" result="hardAlpha"/>
<feOffset/>
<feGaussianBlur stdDeviation="24"/>
<feComposite in2="hardAlpha" operator="out"/>
<feColorMatrix type="matrix" values="0 0 0 0 0 0 0 0 0 0 0 0 0 0 0 0 0 0 0.3 0"/>
<feBlend mode="normal" in2="BackgroundImageFix" result="effect1_dropShadow_84_29"/>
<feBlend mode="normal" in="SourceGraphic" in2="effect1_dropShadow_84_29" result="shape"/>
</filter>
<linearGradient id="paint0_linear_84_29" x1="85.5428" y1="53.8858" x2="251.649" y2="275.112" gradientUnits="userSpaceOnUse">
<stop stop-color="#FFE565"/>
<stop offset="0.843109" stop-color="#FFD400"/>
</linearGradient>
<linearGradient id="paint1_linear_84_29" x1="85.5421" y1="53.8849" x2="251.647" y2="275.109" gradientUnits="userSpaceOnUse">
<stop stop-color="#FFE565"/>
<stop offset="0.843109" stop-color="#FFD400"/>
</linearGradient>
<linearGradient id="paint2_linear_84_29" x1="128.372" y1="44.2017" x2="223.342" y2="253.881" gradientUnits="userSpaceOnUse">
<stop stop-color="#ED1C24"/>
<stop offset="1" stop-color="#BD1117"/>
</linearGradient>
</defs>
</svg>
