<svg width="256" height="256" viewBox="0 0 256 256" fill="none" xmlns="http://www.w3.org/2000/svg">
<path d="M106.429 254.324C77.8036 252.299 57.2862 246.329 40.0761 235.018C21.6571 222.911 8.93954 200.243 3.9843 170.687C1.69292 157.021 0.962957 146.366 1.00143 127.164C1.07014 93.0812 4.72734 71.9613 13.9373 52.4684C22.7757 33.762 33.8514 22.6792 52.4395 13.9416C72.1839 4.66056 93.5545 1 127.994 1C162.433 1 183.803 4.66056 203.548 13.9416C222.119 22.6715 233.122 33.6726 242.078 52.4684C251.216 71.6451 254.915 93.0336 254.999 127.164C255.1 168.687 249.55 193.658 235.416 215.277C222.216 235.466 198.18 248.266 165.151 252.695C147.932 255.004 125.031 255.639 106.429 254.324Z" fill="url(#paint0_linear_99_55)"/>
<path d="M57.6735 201.498C52.0431 199.948 47.5984 195.275 46.4265 189.674C45.8699 187.014 45.8523 77.2907 46.4079 74.8801C47.6848 69.3414 52.4257 64.4119 57.6531 63.1873C60.7288 62.4668 173.838 52.6605 175.053 53.0091C176.851 53.5246 178.239 54.4983 179.225 55.9363C180.117 57.2364 180.152 57.5369 180.264 64.6652C180.374 71.7106 180.343 72.094 179.581 73.0625L178.782 74.0772L121.958 74.1749L65.1336 74.2726L64.2255 75.3283C63.726 75.909 63.3175 76.8291 63.3175 77.3731C63.3175 79.0645 64.8047 81.5873 66.4397 82.6694L67.9655 83.6793L132.711 83.8674L197.457 84.0555L199.526 84.9013C203.731 86.6197 207.239 90.4132 208.551 94.6606C209.293 97.0651 209.309 98.0616 209.309 142.714C209.309 192.228 209.373 190.632 207.253 194.242C206.181 196.068 203.293 198.932 201.408 200.041C197.864 202.124 201.875 202.018 127.685 201.99C74.5851 201.97 58.9895 201.861 57.6735 201.498ZM138.373 183.778C143.251 182.337 145.862 180.828 149.116 177.571C153.611 173.07 155.289 168.921 155.286 162.319C155.282 157.632 154.625 155.258 152.45 152.097C148.423 146.243 141.639 142.192 127.847 137.407C121.159 135.087 117.459 133.106 114.651 130.345C111.819 127.559 110.947 125.359 111.167 121.557C111.348 118.441 112.385 116.212 114.76 113.838C118.214 110.383 122.957 108.855 129.164 109.198C134.502 109.492 138.276 110.545 143.651 113.238L148.166 115.501L149.106 114.385C149.624 113.771 150.462 112.504 150.969 111.568C151.886 109.878 151.887 109.864 151.158 109.056C149.98 107.754 142.46 104.289 138.572 103.257C130.762 101.185 124.054 101.195 117.753 103.288C105.582 107.333 99.579 119.734 104.59 130.482C105.978 133.459 111.183 138.555 114.727 140.405C117.556 141.882 126.038 145.27 130.481 146.697C141.004 150.077 147.356 156.142 147.382 162.834C147.395 166.318 146.434 168.85 144.149 171.35C139.259 176.701 129.607 178.707 120.37 176.292C115.855 175.111 111.478 173.042 107.581 170.247C105.975 169.094 104.439 168.151 104.167 168.151C103.496 168.151 99.7057 173.69 100.024 174.205C100.163 174.43 101.635 175.621 103.296 176.852C108.266 180.537 114.91 183.299 121.263 184.321C122.815 184.571 124.339 184.836 124.649 184.911C124.959 184.985 127.415 184.985 130.105 184.911C134.017 184.802 135.673 184.575 138.373 183.778Z" fill="white"/>
<defs>
<linearGradient id="paint0_linear_99_55" x1="128" y1="1" x2="128" y2="255" gradientUnits="userSpaceOnUse">
<stop stop-color="#FF401D"/>
<stop offset="1" stop-color="#CE371B"/>
</linearGradient>
</defs>
</svg>
