<svg width="341" height="341" viewBox="0 0 341 341" fill="none" xmlns="http://www.w3.org/2000/svg">
<rect width="341" height="341" fill="url(#paint0_linear_7_38)"/>
<g filter="url(#filter0_d_7_38)">
<path fill-rule="evenodd" clip-rule="evenodd" d="M163.788 50.2989C162.448 50.5142 160.304 50.9985 158.964 51.3752C157.624 51.7789 155.48 52.5054 154.14 53.0435C152.8 53.5548 150.522 54.658 149.048 55.4921C147.574 56.3263 145.215 57.86 143.822 58.9363C142.428 59.9857 139.936 62.2459 138.301 63.9142C136.666 65.6094 134.629 67.9504 133.745 69.1343C132.86 70.3182 131.547 72.3094 130.77 73.5741C130.019 74.8387 128.947 76.7761 128.411 77.8793C127.848 78.9825 126.884 81.2158 126.24 82.8572C125.597 84.4986 124.659 87.4584 124.15 89.4496C123.641 91.4408 123.051 94.3468 122.837 95.9074C122.596 97.4681 122.354 99.6745 122.274 100.832L122.113 102.903H76.4182C74.4618 103.926 73.8722 104.464 73.4969 105.191C73.0413 106.105 72.9609 106.67 73.0145 108.823C73.0413 110.222 74.5154 143.157 76.2842 182.012C79.0983 244.276 79.5271 252.887 79.9827 254.663C80.2775 255.766 80.8135 257.407 81.1619 258.295C81.5103 259.183 82.2875 260.636 82.8503 261.524C83.44 262.412 84.7264 263.946 85.718 264.968C87.1116 266.341 88.13 267.067 90.0329 267.982C91.3729 268.655 93.3294 269.381 94.3746 269.596C95.9826 269.946 106.247 270 168.961 270C220.525 270 242.206 269.919 243.573 269.704C244.645 269.543 246.441 269.058 247.54 268.628C248.639 268.224 250.273 267.363 251.158 266.744C252.042 266.152 253.302 265.13 253.918 264.538C254.561 263.919 255.607 262.681 256.25 261.793C256.893 260.905 257.778 259.398 258.206 258.43C258.662 257.461 259.198 255.954 259.439 255.066C259.654 254.178 259.922 252.618 260.002 251.568C260.082 250.519 261.744 217.584 263.647 178.379C265.576 139.148 267.077 106.67 266.997 106.186C266.917 105.729 266.434 104.895 265.979 104.356C265.496 103.845 264.665 103.28 264.156 103.146C263.62 103.011 253.623 102.903 240.572 102.903H217.925C217.63 98.8404 217.282 96.2034 216.987 94.4275C216.692 92.6516 216.076 89.8801 215.62 88.2387C215.165 86.5974 214.387 84.2564 213.905 82.9917C213.423 81.7271 212.351 79.3054 211.493 77.6102C210.662 75.915 209.215 73.3588 208.304 71.9596C207.392 70.5604 205.731 68.3002 204.632 66.9817C203.506 65.6632 201.47 63.4837 200.076 62.1921C198.682 60.9006 196.485 59.0439 195.145 58.1022C193.805 57.1604 191.339 55.6536 189.651 54.7656C187.962 53.8777 185.309 52.7206 183.754 52.2094C182.2 51.6981 179.788 50.9985 178.394 50.7026C176.518 50.272 174.589 50.1106 171.024 50.0299C167.594 49.9491 165.503 50.0299 163.788 50.2989ZM165.396 63.1877C164.217 63.3761 162.234 63.8604 160.974 64.264C159.714 64.6945 157.624 65.5825 156.284 66.2821C154.944 66.9548 153.148 68.058 152.264 68.7038C151.379 69.3496 149.986 70.4797 149.182 71.1793C148.378 71.8789 146.904 73.4126 145.939 74.5696C144.947 75.7267 143.5 77.6909 142.669 78.9556C141.865 80.2203 140.686 82.2652 140.07 83.5299C139.453 84.7946 138.461 87.2163 137.899 88.9114C137.336 90.6066 136.639 93.1628 136.344 94.562C136.049 95.9612 135.755 98.0331 135.647 99.1363C135.567 100.24 135.433 101.558 135.379 102.042L135.245 102.903H204.659C204.659 100.912 204.471 99.0825 204.257 97.5219C204.016 95.9612 203.533 93.5396 203.185 92.1404C202.81 90.7412 202.193 88.75 201.791 87.7006C201.416 86.6512 200.505 84.6062 199.754 83.1263C199.031 81.6464 197.691 79.3592 196.779 78.0138C195.895 76.6954 194.126 74.5427 192.867 73.2243C191.607 71.9058 189.57 70.0492 188.311 69.0805C187.051 68.1387 184.826 66.7664 183.352 66.0399C181.878 65.3134 179.654 64.4255 178.394 64.0488C177.135 63.699 175.178 63.2684 174.026 63.107C172.9 62.9455 170.971 62.811 169.738 62.8379C168.532 62.8648 166.575 63.0263 165.396 63.1877ZM163.654 130.672C162.555 130.807 160.572 131.21 159.232 131.56C157.892 131.883 155.801 132.583 154.542 133.067C153.309 133.578 151.299 134.601 150.066 135.327C148.86 136.081 147.038 137.345 146.046 138.179C145.028 138.987 143.393 140.682 142.401 141.946C141.329 143.265 140.016 145.337 139.239 146.897C138.515 148.377 137.684 150.557 137.389 151.741C137.095 152.925 136.773 155.158 136.693 156.719C136.559 158.737 136.639 160.244 136.961 162.046C137.202 163.392 137.657 165.275 138.006 166.217C138.327 167.132 139.105 168.8 139.748 169.904C140.364 171.007 141.57 172.729 142.428 173.724C143.259 174.693 144.733 176.2 145.698 177.034C146.662 177.895 148.646 179.375 150.12 180.371C151.755 181.447 154.381 182.819 156.82 183.842C159.018 184.81 163.118 186.452 165.932 187.528C168.746 188.577 171.748 189.681 172.632 189.95C173.517 190.192 175.419 190.891 176.84 191.457C178.287 192.022 180.27 192.91 181.262 193.421C182.28 193.905 184.156 195.062 185.496 195.95C186.917 196.892 188.847 198.533 190.187 199.959C191.634 201.466 192.813 203.027 193.456 204.211C193.992 205.26 194.635 206.821 194.903 207.709C195.225 208.812 195.386 210.157 195.359 212.014C195.359 214.14 195.198 215.135 194.662 216.857C194.26 218.041 193.483 219.736 192.893 220.624C192.331 221.512 190.91 223.127 189.758 224.23C188.069 225.791 187.024 226.517 184.692 227.647C183.084 228.428 180.592 229.396 179.198 229.746C177.805 230.123 175.634 230.553 174.374 230.742C172.954 230.93 170.676 231.011 168.344 230.903C166.093 230.822 163.574 230.526 162.046 230.177C160.652 229.881 158.053 229.127 156.284 228.535C154.515 227.943 151.728 226.786 150.12 225.952C148.512 225.145 146.207 223.853 145.028 223.073C143.848 222.293 141.972 220.974 140.874 220.113C139.775 219.279 138.649 218.606 138.381 218.606C138.14 218.606 137.55 219.118 137.095 219.763C136.639 220.382 135.46 222.077 134.495 223.53C133.021 225.683 132.753 226.248 132.994 226.625C133.155 226.867 133.986 227.674 134.87 228.374C135.728 229.1 137.711 230.526 139.266 231.576C140.82 232.625 143.339 234.105 144.894 234.885C146.448 235.666 148.86 236.715 150.254 237.253C151.647 237.765 153.952 238.518 155.346 238.895C156.739 239.271 159.286 239.81 160.974 240.106C162.662 240.428 165.744 240.778 167.808 240.913C170.301 241.101 172.632 241.101 174.776 240.913C176.545 240.778 179.386 240.348 181.074 239.944C182.763 239.567 184.987 238.949 186.032 238.599C187.078 238.222 188.739 237.496 189.785 236.957C190.83 236.446 192.197 235.666 192.867 235.208C193.537 234.751 194.903 233.728 195.922 232.894C196.94 232.06 198.548 230.419 199.486 229.235C200.478 228.024 201.845 225.818 202.676 224.122C203.506 222.427 204.444 220.006 204.846 218.472C205.463 216.077 205.543 215.27 205.57 211.072C205.597 207.278 205.49 205.987 205.088 204.48C204.82 203.43 204.203 201.762 203.748 200.713C203.265 199.663 202.408 198.103 201.791 197.215C201.202 196.327 200.076 194.874 199.272 194.013C198.468 193.152 196.994 191.726 195.949 190.891C194.903 190.03 193.054 188.685 191.795 187.878C190.535 187.044 188.257 185.725 186.702 184.891C185.148 184.057 182.2 182.685 180.136 181.797C178.073 180.909 174.106 179.402 171.292 178.433C168.478 177.465 165.262 176.308 164.11 175.85C162.984 175.393 161.054 174.505 159.822 173.913C158.616 173.294 156.793 172.218 155.748 171.518C154.703 170.818 153.282 169.715 152.559 169.069C151.835 168.424 150.656 167.051 149.932 166.002C149.128 164.818 148.378 163.338 147.976 162.046C147.493 160.513 147.306 159.356 147.306 157.741C147.306 156.503 147.493 154.835 147.708 154.028C147.922 153.221 148.512 151.714 149.021 150.665C149.53 149.615 150.602 148.054 151.379 147.193C152.157 146.332 153.523 145.095 154.408 144.449C155.292 143.83 156.927 142.888 158.026 142.35C159.125 141.812 161.001 141.112 162.18 140.789C164.029 140.278 165.021 140.197 169.282 140.197C173.436 140.171 174.749 140.278 177.322 140.789C179.011 141.139 181.798 141.893 183.486 142.458C185.175 142.996 187.828 144.099 189.383 144.879C190.937 145.66 192.92 146.763 193.805 147.328C194.689 147.893 195.707 148.377 196.083 148.377C196.645 148.377 197.074 147.893 198.816 145.095C199.969 143.265 200.907 141.543 200.907 141.247C200.907 140.951 200.639 140.467 200.317 140.144C199.969 139.848 198.977 139.148 198.093 138.637C197.208 138.099 195.145 136.995 193.537 136.188C191.929 135.381 189.329 134.278 187.774 133.74C186.22 133.175 184.049 132.502 182.95 132.233C181.852 131.937 179.976 131.533 178.796 131.318C177.617 131.076 175.393 130.78 173.838 130.618C172.284 130.484 169.818 130.349 168.344 130.376C166.87 130.403 164.753 130.538 163.654 130.672Z" fill="white"/>
</g>
<defs>
<filter id="filter0_d_7_38" x="25" y="2" width="290" height="316" filterUnits="userSpaceOnUse" color-interpolation-filters="sRGB">
<feFlood flood-opacity="0" result="BackgroundImageFix"/>
<feColorMatrix in="SourceAlpha" type="matrix" values="0 0 0 0 0 0 0 0 0 0 0 0 0 0 0 0 0 0 127 0" result="hardAlpha"/>
<feOffset/>
<feGaussianBlur stdDeviation="24"/>
<feComposite in2="hardAlpha" operator="out"/>
<feColorMatrix type="matrix" values="0 0 0 0 0 0 0 0 0 0 0 0 0 0 0 0 0 0 0.25 0"/>
<feBlend mode="normal" in2="BackgroundImageFix" result="effect1_dropShadow_7_38"/>
<feBlend mode="normal" in="SourceGraphic" in2="effect1_dropShadow_7_38" result="shape"/>
</filter>
<linearGradient id="paint0_linear_7_38" x1="55.5" y1="-226.5" x2="341" y2="351" gradientUnits="userSpaceOnUse">
<stop stop-color="#FF8B65"/>
<stop offset="1" stop-color="#F53F2D"/>
</linearGradient>
</defs>
</svg>
