<svg width="256" height="256" viewBox="0 0 256 256" fill="none" xmlns="http://www.w3.org/2000/svg">
<mask id="mask0_84_28" style="mask-type:alpha" maskUnits="userSpaceOnUse" x="1" y="1" width="254" height="254">
<path d="M106.429 254.324C77.8036 252.299 57.2862 246.329 40.0761 235.018C21.6571 222.911 8.93954 200.243 3.9843 170.687C1.69292 157.021 0.962957 146.366 1.00143 127.164C1.07014 93.0812 4.72734 71.9613 13.9373 52.4684C22.7757 33.762 33.8514 22.6792 52.4395 13.9416C72.1839 4.66056 93.5545 1 127.994 1C162.433 1 183.803 4.66056 203.548 13.9416C222.119 22.6715 233.122 33.6726 242.078 52.4684C251.216 71.6451 254.915 93.0336 254.999 127.164C255.1 168.687 249.55 193.658 235.416 215.277C222.216 235.466 198.18 248.266 165.151 252.695C147.932 255.004 125.031 255.639 106.429 254.324Z" fill="white"/>
</mask>
<g mask="url(#mask0_84_28)">
<rect x="1" y="1" width="254.001" height="254.001" fill="url(#paint0_linear_84_28)"/>
<g filter="url(#filter0_d_84_28)">
<path fill-rule="evenodd" clip-rule="evenodd" d="M123 38.4668C122.002 38.6272 120.405 38.9879 119.407 39.2685C118.409 39.5691 116.812 40.1103 115.813 40.5111C114.815 40.892 113.118 41.7137 112.021 42.335C110.923 42.9563 109.166 44.0988 108.128 44.9005C107.09 45.6821 105.233 47.3657 104.015 48.6083C102.798 49.871 101.281 51.6147 100.622 52.4966C99.963 53.3785 98.9848 54.8616 98.4059 55.8036C97.847 56.7456 97.0484 58.1887 96.6492 59.0104C96.23 59.8321 95.5113 61.4957 95.0322 62.7183C94.5531 63.9409 93.8544 66.1455 93.4751 67.6287C93.0958 69.1118 92.6566 71.2764 92.4969 72.4389C92.3173 73.6014 92.1376 75.2449 92.0777 76.1067L91.9579 77.65H57.9215C56.4642 78.4116 56.025 78.8124 55.7455 79.3536C55.4062 80.035 55.3463 80.4559 55.3862 82.0593C55.4062 83.1015 56.5041 107.634 57.8217 136.575C59.9177 182.953 60.2371 189.367 60.5765 190.69C60.7961 191.512 61.1954 192.734 61.4549 193.396C61.7144 194.057 62.2933 195.139 62.7125 195.801C63.1517 196.462 64.1099 197.605 64.8485 198.366C65.8866 199.388 66.6452 199.929 68.0625 200.611C69.0607 201.112 70.518 201.653 71.2965 201.813C72.4943 202.074 80.14 202.114 126.853 202.114C165.261 202.114 181.411 202.054 182.429 201.894C183.228 201.773 184.565 201.413 185.384 201.092C186.202 200.791 187.42 200.15 188.079 199.689C188.737 199.248 189.676 198.486 190.135 198.045C190.614 197.584 191.392 196.662 191.871 196.001C192.351 195.34 193.009 194.217 193.329 193.496C193.668 192.774 194.067 191.652 194.247 190.99C194.407 190.329 194.606 189.167 194.666 188.385C194.726 187.603 195.964 163.071 197.381 133.869C198.819 104.647 199.936 80.4559 199.877 80.0951C199.817 79.7544 199.457 79.1331 199.118 78.7323C198.759 78.3514 198.14 77.9305 197.76 77.8303C197.361 77.7301 189.915 77.65 180.193 77.65H163.325C163.105 74.6235 162.846 72.6594 162.626 71.3366C162.406 70.0138 161.947 67.9494 161.608 66.7268C161.269 65.5042 160.69 63.7605 160.33 62.8185C159.971 61.8765 159.173 60.0727 158.534 58.81C157.915 57.5473 156.837 55.6433 156.158 54.601C155.479 53.5588 154.242 51.8753 153.423 50.8932C152.585 49.9111 151.068 48.2876 150.03 47.3256C148.992 46.3636 147.355 44.9806 146.356 44.2791C145.358 43.5777 143.522 42.4553 142.264 41.7939C141.006 41.1325 139.03 40.2706 137.872 39.8898C136.714 39.509 134.918 38.9879 133.88 38.7674C132.482 38.4468 131.045 38.3265 128.39 38.2664C125.835 38.2063 124.278 38.2664 123 38.4668ZM124.198 48.0672C123.319 48.2075 121.842 48.5682 120.904 48.8689C119.966 49.1896 118.409 49.851 117.41 50.3721C116.412 50.8731 115.075 51.6949 114.416 52.1759C113.757 52.6569 112.719 53.4987 112.12 54.0198C111.521 54.5409 110.423 55.6833 109.705 56.5452C108.966 57.407 107.888 58.8701 107.269 59.8121C106.67 60.7541 105.792 62.2773 105.333 63.2193C104.874 64.1613 104.135 65.9652 103.716 67.2278C103.297 68.4905 102.778 70.3946 102.558 71.4368C102.339 72.479 102.119 74.0223 102.039 74.844C101.979 75.6657 101.879 76.6478 101.84 77.0086L101.74 77.65H153.443C153.443 76.1668 153.303 74.8039 153.144 73.6414C152.964 72.479 152.605 70.6752 152.345 69.6329C152.066 68.5907 151.607 67.1076 151.307 66.3259C151.028 65.5443 150.349 64.021 149.79 62.9187C149.251 61.8164 148.253 60.1127 147.574 59.1106C146.915 58.1285 145.598 56.5251 144.66 55.543C143.721 54.561 142.204 53.178 141.266 52.4565C140.328 51.755 138.671 50.7328 137.573 50.1917C136.475 49.6505 134.818 48.9891 133.88 48.7085C132.941 48.448 131.484 48.1273 130.626 48.0071C129.787 47.8868 128.35 47.7866 127.432 47.8066C126.533 47.8267 125.076 47.9469 124.198 48.0672ZM122.9 98.3338C122.082 98.4341 120.604 98.7347 119.606 98.9953C118.608 99.2358 117.051 99.7569 116.113 100.118C115.195 100.498 113.697 101.26 112.779 101.801C111.881 102.362 110.523 103.304 109.785 103.926C109.026 104.527 107.808 105.79 107.07 106.732C106.271 107.714 105.293 109.257 104.714 110.419C104.175 111.522 103.556 113.145 103.337 114.027C103.117 114.909 102.878 116.573 102.818 117.735C102.718 119.238 102.778 120.361 103.017 121.703C103.197 122.706 103.536 124.109 103.796 124.81C104.035 125.491 104.614 126.734 105.093 127.556C105.553 128.378 106.451 129.66 107.09 130.402C107.709 131.123 108.807 132.246 109.525 132.867C110.244 133.508 111.721 134.611 112.819 135.352C114.037 136.154 115.993 137.176 117.81 137.938C119.447 138.659 122.501 139.882 124.597 140.684C126.693 141.465 128.929 142.287 129.588 142.488C130.246 142.668 131.664 143.189 132.722 143.61C133.8 144.031 135.277 144.692 136.016 145.073C136.774 145.434 138.172 146.296 139.17 146.957C140.228 147.659 141.665 148.881 142.663 149.943C143.741 151.066 144.62 152.228 145.099 153.11C145.498 153.892 145.977 155.054 146.177 155.716C146.416 156.537 146.536 157.539 146.516 158.922C146.516 160.506 146.396 161.247 145.997 162.53C145.698 163.412 145.119 164.675 144.68 165.336C144.26 165.997 143.202 167.2 142.344 168.022C141.086 169.184 140.308 169.725 138.571 170.567C137.373 171.148 135.517 171.87 134.479 172.13C133.441 172.411 131.824 172.732 130.885 172.872C129.827 173.012 128.13 173.072 126.394 172.992C124.717 172.932 122.84 172.712 121.702 172.451C120.664 172.231 118.728 171.669 117.41 171.229C116.093 170.788 114.017 169.926 112.819 169.304C111.621 168.703 109.904 167.741 109.026 167.16C108.148 166.579 106.75 165.597 105.932 164.955C105.113 164.334 104.275 163.833 104.075 163.833C103.896 163.833 103.456 164.214 103.117 164.695C102.778 165.156 101.899 166.418 101.181 167.501C100.083 169.104 99.8832 169.525 100.063 169.805C100.183 169.986 100.801 170.587 101.46 171.108C102.099 171.649 103.576 172.712 104.734 173.493C105.892 174.275 107.768 175.377 108.926 175.959C110.084 176.54 111.881 177.321 112.919 177.722C113.957 178.103 115.674 178.664 116.712 178.945C117.75 179.225 119.646 179.626 120.904 179.847C122.162 180.087 124.457 180.348 125.994 180.448C127.851 180.588 129.588 180.588 131.185 180.448C132.502 180.348 134.618 180.027 135.876 179.727C137.134 179.446 138.791 178.985 139.569 178.724C140.348 178.444 141.585 177.903 142.364 177.502C143.142 177.121 144.161 176.54 144.66 176.199C145.159 175.858 146.177 175.097 146.935 174.475C147.694 173.854 148.892 172.632 149.59 171.75C150.329 170.848 151.347 169.204 151.966 167.942C152.585 166.679 153.284 164.875 153.583 163.733C154.042 161.949 154.102 161.348 154.122 158.221C154.142 155.395 154.062 154.433 153.763 153.31C153.563 152.529 153.104 151.286 152.764 150.505C152.405 149.723 151.766 148.56 151.307 147.899C150.868 147.238 150.03 146.155 149.431 145.514C148.832 144.873 147.734 143.81 146.955 143.189C146.177 142.548 144.799 141.546 143.861 140.944C142.923 140.323 141.226 139.341 140.068 138.72C138.91 138.098 136.714 137.076 135.177 136.415C133.64 135.753 130.686 134.631 128.59 133.909C126.494 133.188 124.098 132.326 123.24 131.985C122.401 131.645 120.964 130.983 120.046 130.542C119.147 130.081 117.79 129.28 117.011 128.758C116.233 128.237 115.175 127.416 114.636 126.935C114.097 126.454 113.218 125.431 112.679 124.65C112.08 123.768 111.521 122.665 111.222 121.703C110.863 120.561 110.723 119.699 110.723 118.497C110.723 117.575 110.863 116.332 111.022 115.731C111.182 115.129 111.621 114.007 112.001 113.225C112.38 112.444 113.178 111.281 113.757 110.64C114.336 109.999 115.354 109.077 116.013 108.596C116.672 108.135 117.89 107.433 118.708 107.032C119.527 106.631 120.924 106.11 121.802 105.87C123.18 105.489 123.918 105.429 127.092 105.429C130.187 105.409 131.165 105.489 133.081 105.87C134.339 106.13 136.415 106.692 137.673 107.112C138.93 107.513 140.907 108.335 142.064 108.916C143.222 109.498 144.7 110.319 145.358 110.74C146.017 111.161 146.776 111.522 147.055 111.522C147.474 111.522 147.794 111.161 149.091 109.077C149.95 107.714 150.648 106.431 150.648 106.211C150.648 105.99 150.449 105.629 150.209 105.389C149.95 105.168 149.211 104.647 148.552 104.266C147.894 103.866 146.356 103.044 145.159 102.443C143.961 101.841 142.025 101.02 140.867 100.619C139.709 100.198 138.092 99.6967 137.273 99.4963C136.455 99.2758 135.058 98.9752 134.179 98.8149C133.301 98.6345 131.644 98.414 130.486 98.2938C129.328 98.1935 127.492 98.0933 126.394 98.1134C125.296 98.1334 123.719 98.2336 122.9 98.3338Z" fill="white"/>
</g>
</g>
<defs>
<filter id="filter0_d_84_28" x="7.37537" y="-9.75586" width="240.503" height="259.87" filterUnits="userSpaceOnUse" color-interpolation-filters="sRGB">
<feFlood flood-opacity="0" result="BackgroundImageFix"/>
<feColorMatrix in="SourceAlpha" type="matrix" values="0 0 0 0 0 0 0 0 0 0 0 0 0 0 0 0 0 0 127 0" result="hardAlpha"/>
<feOffset/>
<feGaussianBlur stdDeviation="24"/>
<feComposite in2="hardAlpha" operator="out"/>
<feColorMatrix type="matrix" values="0 0 0 0 0 0 0 0 0 0 0 0 0 0 0 0 0 0 0.25 0"/>
<feBlend mode="normal" in2="BackgroundImageFix" result="effect1_dropShadow_84_28"/>
<feBlend mode="normal" in="SourceGraphic" in2="effect1_dropShadow_84_28" result="shape"/>
</filter>
<linearGradient id="paint0_linear_84_28" x1="42.3403" y1="-167.713" x2="255.001" y2="262.45" gradientUnits="userSpaceOnUse">
<stop stop-color="#FF8B65"/>
<stop offset="1" stop-color="#F53F2D"/>
</linearGradient>
</defs>
</svg>
