<svg width="256" height="256" viewBox="0 0 256 256" fill="none" xmlns="http://www.w3.org/2000/svg">
<path d="M106.429 254.324C77.8036 252.299 57.2862 246.329 40.0761 235.018C21.6571 222.911 8.93954 200.243 3.9843 170.687C1.69292 157.021 0.962957 146.366 1.00143 127.164C1.07014 93.0812 4.72734 71.9613 13.9373 52.4684C22.7757 33.762 33.8514 22.6792 52.4395 13.9416C72.1839 4.66056 93.5545 1 127.994 1C162.433 1 183.803 4.66056 203.548 13.9416C222.119 22.6715 233.122 33.6726 242.078 52.4684C251.216 71.6451 254.915 93.0336 254.999 127.164C255.1 168.687 249.55 193.658 235.416 215.277C222.216 235.466 198.18 248.266 165.151 252.695C147.932 255.004 125.031 255.639 106.429 254.324Z" fill="url(#paint0_linear_84_28)"/>
<path fill-rule="evenodd" clip-rule="evenodd" d="M123.625 39.2227C122.627 39.383 121.029 39.7438 120.031 40.0244C119.033 40.325 117.436 40.8662 116.438 41.267C115.44 41.6478 113.743 42.4696 112.645 43.0909C111.547 43.7122 109.79 44.8546 108.752 45.6563C107.714 46.438 105.858 48.1216 104.64 49.3642C103.422 50.6269 101.905 52.3706 101.246 53.2524C100.588 54.1343 99.6095 55.6175 99.0305 56.5595C98.4716 57.5015 97.6731 58.9445 97.2738 59.7663C96.8546 60.588 96.1359 62.2515 95.6568 63.4741C95.1777 64.6967 94.479 66.9014 94.0997 68.3845C93.7205 69.8677 93.2813 72.0323 93.1216 73.1948C92.9419 74.3572 92.7622 76.0007 92.7024 76.8625L92.5826 78.4058H58.5461C57.0888 79.1674 56.6496 79.5683 56.3702 80.1094C56.0308 80.7909 55.9709 81.2118 56.0108 82.8152C56.0308 83.8574 57.1287 108.389 58.4463 137.331C60.5424 183.709 60.8618 190.123 61.2011 191.446C61.4207 192.267 61.82 193.49 62.0795 194.151C62.339 194.813 62.9179 195.895 63.3372 196.557C63.7763 197.218 64.7345 198.36 65.4732 199.122C66.5112 200.144 67.2698 200.685 68.6872 201.367C69.6853 201.868 71.1426 202.409 71.9211 202.569C73.1189 202.83 80.7646 202.87 127.477 202.87C165.886 202.87 182.036 202.81 183.054 202.649C183.852 202.529 185.19 202.168 186.008 201.848C186.827 201.547 188.044 200.906 188.703 200.445C189.362 200.004 190.3 199.242 190.759 198.801C191.238 198.34 192.017 197.418 192.496 196.757C192.975 196.096 193.634 194.973 193.953 194.252C194.293 193.53 194.692 192.408 194.872 191.746C195.031 191.085 195.231 189.922 195.291 189.141C195.351 188.359 196.588 163.827 198.006 134.625C199.443 105.403 200.561 81.2118 200.501 80.851C200.441 80.5103 200.082 79.889 199.743 79.4881C199.383 79.1073 198.764 78.6864 198.385 78.5862C197.986 78.486 190.54 78.4058 180.818 78.4058H163.949C163.73 75.3794 163.47 73.4152 163.251 72.0924C163.031 70.7696 162.572 68.7052 162.233 67.4826C161.893 66.26 161.314 64.5163 160.955 63.5743C160.596 62.6323 159.797 60.8285 159.158 59.5658C158.539 58.3032 157.462 56.3991 156.783 55.3569C156.104 54.3147 154.866 52.6311 154.048 51.649C153.209 50.667 151.692 49.0435 150.654 48.0815C149.616 47.1194 147.979 45.7365 146.981 45.035C145.983 44.3335 144.146 43.2111 142.889 42.5497C141.631 41.8883 139.655 41.0265 138.497 40.6457C137.339 40.2649 135.542 39.7438 134.504 39.5233C133.107 39.2026 131.67 39.0824 129.015 39.0222C126.459 38.9621 124.902 39.0222 123.625 39.2227ZM124.822 48.823C123.944 48.9633 122.467 49.3241 121.529 49.6247C120.59 49.9454 119.033 50.6068 118.035 51.1279C117.037 51.629 115.699 52.4507 115.041 52.9318C114.382 53.4128 113.344 54.2546 112.745 54.7757C112.146 55.2968 111.048 56.4392 110.329 57.301C109.591 58.1629 108.513 59.626 107.894 60.568C107.295 61.51 106.417 63.0332 105.958 63.9752C105.498 64.9172 104.76 66.721 104.341 67.9837C103.921 69.2464 103.402 71.1504 103.183 72.1926C102.963 73.2348 102.744 74.7781 102.664 75.5999C102.604 76.4216 102.504 77.4037 102.464 77.7645L102.364 78.4058H154.068C154.068 76.9227 153.928 75.5598 153.768 74.3973C153.589 73.2348 153.229 71.431 152.97 70.3888C152.69 69.3466 152.231 67.8634 151.932 67.0818C151.652 66.3001 150.974 64.7769 150.415 63.6746C149.876 62.5722 148.878 60.8686 148.199 59.8665C147.54 58.8844 146.222 57.281 145.284 56.2989C144.346 55.3168 142.829 53.9339 141.891 53.2124C140.952 52.5109 139.295 51.4887 138.197 50.9475C137.1 50.4064 135.443 49.745 134.504 49.4644C133.566 49.2038 132.109 48.8832 131.25 48.7629C130.412 48.6427 128.975 48.5424 128.056 48.5625C127.158 48.5825 125.701 48.7028 124.822 48.823ZM123.525 99.0897C122.706 99.1899 121.229 99.4906 120.231 99.7511C119.233 99.9916 117.676 100.513 116.738 100.873C115.819 101.254 114.322 102.016 113.404 102.557C112.505 103.118 111.148 104.06 110.409 104.682C109.651 105.283 108.433 106.546 107.694 107.488C106.896 108.47 105.918 110.013 105.339 111.175C104.8 112.278 104.181 113.901 103.961 114.783C103.742 115.665 103.502 117.328 103.442 118.491C103.343 119.994 103.402 121.116 103.642 122.459C103.822 123.461 104.161 124.864 104.42 125.566C104.66 126.247 105.239 127.49 105.718 128.312C106.177 129.133 107.076 130.416 107.714 131.158C108.333 131.879 109.431 133.002 110.15 133.623C110.868 134.264 112.346 135.367 113.444 136.108C114.661 136.91 116.618 137.932 118.434 138.694C120.071 139.415 123.126 140.638 125.222 141.44C127.318 142.221 129.554 143.043 130.212 143.243C130.871 143.424 132.288 143.945 133.347 144.366C134.424 144.787 135.902 145.448 136.64 145.829C137.399 146.19 138.796 147.051 139.794 147.713C140.853 148.414 142.29 149.637 143.288 150.699C144.366 151.822 145.244 152.984 145.723 153.866C146.123 154.648 146.602 155.81 146.801 156.471C147.041 157.293 147.161 158.295 147.141 159.678C147.141 161.262 147.021 162.003 146.622 163.286C146.322 164.168 145.743 165.43 145.304 166.092C144.885 166.753 143.827 167.956 142.969 168.778C141.711 169.94 140.932 170.481 139.196 171.323C137.998 171.904 136.141 172.626 135.103 172.886C134.065 173.167 132.448 173.488 131.51 173.628C130.452 173.768 128.755 173.828 127.018 173.748C125.341 173.688 123.465 173.468 122.327 173.207C121.289 172.986 119.353 172.425 118.035 171.984C116.718 171.543 114.641 170.682 113.444 170.06C112.246 169.459 110.529 168.497 109.651 167.916C108.772 167.335 107.375 166.352 106.557 165.711C105.738 165.09 104.9 164.589 104.7 164.589C104.52 164.589 104.081 164.969 103.742 165.451C103.402 165.911 102.524 167.174 101.805 168.256C100.707 169.86 100.508 170.281 100.687 170.561C100.807 170.742 101.426 171.343 102.085 171.864C102.724 172.405 104.201 173.468 105.359 174.249C106.517 175.031 108.393 176.133 109.551 176.714C110.709 177.296 112.505 178.077 113.543 178.478C114.582 178.859 116.298 179.42 117.336 179.701C118.374 179.981 120.271 180.382 121.529 180.603C122.786 180.843 125.082 181.104 126.619 181.204C128.476 181.344 130.212 181.344 131.809 181.204C133.127 181.104 135.243 180.783 136.501 180.482C137.758 180.202 139.415 179.741 140.194 179.48C140.972 179.2 142.21 178.659 142.989 178.258C143.767 177.877 144.785 177.296 145.284 176.955C145.783 176.614 146.801 175.853 147.56 175.231C148.319 174.61 149.516 173.387 150.215 172.505C150.954 171.604 151.972 169.96 152.591 168.697C153.209 167.435 153.908 165.631 154.208 164.488C154.667 162.705 154.727 162.103 154.747 158.977C154.767 156.151 154.687 155.189 154.387 154.066C154.188 153.285 153.728 152.042 153.389 151.26C153.03 150.479 152.391 149.316 151.932 148.655C151.493 147.993 150.654 146.911 150.055 146.27C149.456 145.628 148.358 144.566 147.58 143.945C146.801 143.304 145.424 142.301 144.486 141.7C143.547 141.079 141.851 140.097 140.693 139.475C139.535 138.854 137.339 137.832 135.802 137.171C134.265 136.509 131.31 135.387 129.214 134.665C127.118 133.944 124.723 133.082 123.864 132.741C123.026 132.4 121.588 131.739 120.67 131.298C119.772 130.837 118.414 130.035 117.636 129.514C116.857 128.993 115.799 128.171 115.26 127.69C114.721 127.209 113.843 126.187 113.304 125.406C112.705 124.524 112.146 123.421 111.847 122.459C111.487 121.317 111.348 120.455 111.348 119.252C111.348 118.331 111.487 117.088 111.647 116.487C111.807 115.885 112.246 114.763 112.625 113.981C113.004 113.2 113.803 112.037 114.382 111.396C114.961 110.754 115.979 109.833 116.638 109.351C117.296 108.891 118.514 108.189 119.333 107.788C120.151 107.387 121.549 106.866 122.427 106.626C123.804 106.245 124.543 106.185 127.717 106.185C130.811 106.165 131.789 106.245 133.706 106.626C134.963 106.886 137.04 107.447 138.297 107.868C139.555 108.269 141.531 109.091 142.689 109.672C143.847 110.253 145.324 111.075 145.983 111.496C146.642 111.917 147.4 112.278 147.68 112.278C148.099 112.278 148.418 111.917 149.716 109.833C150.574 108.47 151.273 107.187 151.273 106.966C151.273 106.746 151.073 106.385 150.834 106.145C150.574 105.924 149.836 105.403 149.177 105.022C148.518 104.621 146.981 103.8 145.783 103.198C144.586 102.597 142.649 101.775 141.491 101.375C140.333 100.954 138.716 100.453 137.898 100.252C137.08 100.032 135.682 99.7311 134.804 99.5707C133.925 99.3903 132.269 99.1699 131.111 99.0496C129.953 98.9494 128.116 98.8492 127.018 98.8692C125.92 98.8893 124.343 98.9895 123.525 99.0897Z" fill="white"/>
<defs>
<linearGradient id="paint0_linear_84_28" x1="128" y1="1" x2="128" y2="255" gradientUnits="userSpaceOnUse">
<stop stop-color="#FF401D"/>
<stop offset="1" stop-color="#CE371B"/>
</linearGradient>
</defs>
</svg>
