<svg width="256" height="256" viewBox="0 0 256 256" fill="none" xmlns="http://www.w3.org/2000/svg">
<path d="M106.429 254.324C77.8036 252.299 57.2862 246.329 40.0761 235.018C21.6571 222.911 8.93954 200.243 3.9843 170.687C1.69292 157.021 0.962957 146.366 1.00143 127.164C1.07014 93.0812 4.72734 71.9613 13.9373 52.4684C22.7757 33.762 33.8514 22.6792 52.4395 13.9416C72.1839 4.66056 93.5545 1 127.994 1C162.433 1 183.803 4.66056 203.548 13.9416C222.119 22.6715 233.122 33.6726 242.078 52.4684C251.216 71.6451 254.915 93.0336 254.999 127.164C255.1 168.687 249.55 193.658 235.416 215.277C222.216 235.466 198.18 248.266 165.151 252.695C147.932 255.004 125.031 255.639 106.429 254.324Z" fill="url(#paint0_linear_84_27)"/>
<path d="M128.372 44.2017C82.0627 44.2017 44.2021 82.0622 44.2021 128.371C44.2021 174.68 82.0627 212.541 128.372 212.541C174.681 212.541 212.541 174.68 212.541 128.371C212.541 82.0622 175.086 44.2017 128.372 44.2017ZM167.09 165.827C165.412 168.346 162.455 169.193 159.935 167.494C140.155 155.305 115.331 152.78 85.8503 159.498C82.9201 160.366 80.395 158.262 79.5428 155.711C78.7222 152.78 80.8054 150.261 83.3252 149.414C115.331 142.259 143.112 145.189 164.975 158.672C167.937 159.935 168.342 163.302 167.084 165.827H167.09ZM177.195 142.675C175.086 145.636 171.303 146.899 168.342 144.784C145.632 130.891 111.106 126.704 84.614 135.11C81.242 135.931 77.4333 134.263 76.6127 130.886C75.7657 127.519 77.4333 123.737 80.8054 122.89C111.548 113.626 149.409 118.281 175.496 134.258C178.042 135.52 179.305 139.739 177.195 142.675ZM178.047 119.113C151.087 103.105 106.067 101.437 80.395 109.438C76.1813 110.696 71.9834 108.176 70.7208 104.367C69.4635 100.174 71.9834 95.9554 75.7657 94.6929C105.662 85.8498 154.89 87.5437 186.049 106.061C189.831 108.171 191.083 113.215 188.979 116.998C186.87 119.96 181.825 121.212 178.042 119.107L178.047 119.113Z" fill="white"/>
<defs>
<linearGradient id="paint0_linear_84_27" x1="128" y1="1" x2="128" y2="255" gradientUnits="userSpaceOnUse">
<stop stop-color="#14C255"/>
<stop offset="1" stop-color="#12A348"/>
</linearGradient>
</defs>
</svg>
