<svg width="192" height="192" viewBox="0 0 192 192" fill="none" xmlns="http://www.w3.org/2000/svg">
<path d="M79.8641 190.494C58.4515 188.98 43.1039 184.514 30.2301 176.052C16.4521 166.996 6.93903 150.04 3.23235 127.931C1.51833 117.708 0.97229 109.739 1.00107 95.3749C1.05247 69.8796 3.78817 54.0812 10.6775 39.5C17.2889 25.507 25.5739 17.2167 39.4783 10.6808C54.2478 3.73821 70.2337 1 95.9953 1C121.757 1 137.743 3.73821 152.512 10.6808C166.404 17.211 174.634 25.4402 181.334 39.5C188.169 53.8448 190.937 69.844 190.999 95.3749C191.075 126.436 186.923 145.115 176.35 161.286C166.477 176.388 148.497 185.963 123.79 189.276C110.91 191.003 93.7794 191.478 79.8641 190.494Z" fill="url(#paint0_linear_108_107)"/>
<path d="M127.882 140.859C136.882 140.85 145.511 137.281 151.875 130.936C158.239 124.59 161.818 115.985 161.827 107.011C161.827 97.7121 157.861 88.6758 151.086 82.3143C151.007 73.6524 147.502 65.3719 141.334 59.2725C135.165 53.173 126.832 49.7477 118.145 49.7408C112.937 49.7382 107.803 50.9679 103.164 53.3291C97.0516 47.5807 88.9658 44.3811 80.5636 44.3857C72.0773 44.3915 63.9201 47.6601 57.7895 53.5113C51.6589 59.3626 48.0272 67.3458 47.6502 75.7996C42.3506 78.7524 37.937 83.0616 34.8648 88.2827C31.7926 93.5039 30.1731 99.4478 30.1732 105.501C30.178 110.192 31.1546 114.83 33.0416 119.127C34.9287 123.423 37.6855 127.284 41.1393 130.468C44.5931 133.652 48.6693 136.091 53.1125 137.63C57.5556 139.17 62.2698 139.777 66.9594 139.415C70.0782 144.637 74.5008 148.964 79.7961 151.974C85.0914 154.984 91.0786 156.575 97.1739 156.59C102.989 156.592 108.714 155.152 113.834 152.402C118.953 149.651 123.308 145.675 126.505 140.832C126.966 140.85 127.429 140.859 127.882 140.859ZM97.1739 147.653C92.2157 147.639 87.3624 146.228 83.1749 143.58C78.9873 140.933 75.6363 137.158 73.5092 132.692L72.0445 129.618L68.6819 130.209C65.0633 130.843 61.3493 130.681 57.8004 129.732C54.2516 128.784 50.9537 127.073 48.1381 124.719C45.3225 122.366 43.0573 119.426 41.5014 116.107C39.9455 112.789 39.1365 109.17 39.1311 105.507C39.1332 100.671 40.5357 95.9391 43.1699 91.8792C45.8041 87.8193 49.5581 84.6043 53.9806 82.6206L56.7563 81.3734L56.6136 78.3376C56.4677 75.1086 56.979 71.8836 58.1167 68.857C59.2544 65.8304 60.9949 63.0648 63.2334 60.7269C65.4718 58.3891 68.1617 56.5274 71.1411 55.2541C74.1205 53.9808 77.3276 53.3223 80.5691 53.3181C87.6839 53.3181 94.3488 56.4141 98.9293 61.8512L101.507 64.9144L104.848 62.6881C108.785 60.0633 113.415 58.6657 118.151 58.6732C121.418 58.6797 124.65 59.3508 127.649 60.6453C130.648 61.9399 133.35 63.8308 135.591 66.2024C137.831 68.5739 139.563 71.3763 140.681 74.4382C141.798 77.5 142.278 80.757 142.09 84.0099L141.953 86.2854L143.719 87.735C146.565 90.0858 148.859 93.0299 150.441 96.3602C152.023 99.6906 152.853 103.326 152.874 107.011C152.87 110.552 152.11 114.052 150.645 117.277C149.179 120.503 147.042 123.38 144.375 125.718C141.707 128.056 138.571 129.801 135.175 130.836C131.779 131.872 128.201 132.175 124.679 131.724L121.64 131.336L120.175 134.016C117.932 138.146 114.61 141.594 110.562 143.994C106.513 146.395 101.889 147.659 97.1794 147.653H97.1739ZM114.19 111.918L114.278 111.879C115.441 111.381 115.858 110.944 115.858 109.73V108.209C115.858 106.874 115.09 106.015 113.828 106.015H113.757L113.504 106.07C110.863 107.03 108.076 107.534 105.265 107.558C102.632 107.558 100.032 107.066 97.5359 106.081L97.4646 106.054L97.1794 106.015C95.9177 106.015 95.1497 106.874 95.1497 108.209V109.73C95.1497 110.873 95.5776 111.387 96.5815 111.819L96.6912 111.868L96.8009 111.912C99.4752 113.064 102.357 113.66 105.271 113.662C108.151 113.662 111.146 113.077 114.19 111.918ZM75.3468 99.4187C75.3468 98.1935 75.9832 97.5152 76.8389 97.3402L85.0728 95.185L76.817 93.0244C75.9612 92.8001 75.3468 92.1273 75.3468 90.9458V88.3585C75.3468 87.2263 76.0271 86.7394 76.806 86.7394C77.062 86.7394 77.3198 86.7905 77.5795 86.8926L92.2808 91.635C93.3943 92.007 94.0087 92.8986 94.0087 94.1238V96.2407C94.0087 97.466 93.3944 98.363 92.2753 98.735L77.5466 103.483C77.3253 103.555 77.0938 103.592 76.8609 103.592C75.9393 103.592 75.3468 102.936 75.3468 101.968V99.4187Z" fill="white"/>
<defs>
<linearGradient id="paint0_linear_108_107" x1="96" y1="1" x2="96" y2="191" gradientUnits="userSpaceOnUse">
<stop stop-color="#162863"/>
<stop offset="1" stop-color="#0C1738"/>
</linearGradient>
</defs>
</svg>
