<svg width="256" height="256" viewBox="0 0 256 256" fill="none" xmlns="http://www.w3.org/2000/svg">
<path d="M106.429 254.324C77.8036 252.299 57.2862 246.329 40.0761 235.018C21.6571 222.911 8.93954 200.243 3.9843 170.687C1.69292 157.021 0.962957 146.366 1.00143 127.164C1.07014 93.0812 4.72734 71.9613 13.9373 52.4684C22.7757 33.762 33.8514 22.6792 52.4395 13.9416C72.1839 4.66056 93.5545 1 127.994 1C162.433 1 183.803 4.66056 203.548 13.9416C222.119 22.6715 233.122 33.6726 242.078 52.4684C251.216 71.6451 254.915 93.0336 254.999 127.164C255.1 168.687 249.55 193.658 235.416 215.277C222.216 235.466 198.18 248.266 165.151 252.695C147.932 255.004 125.031 255.639 106.429 254.324Z" fill="url(#paint0_linear_84_39)"/>
<path d="M90.4636 115.054C90.4636 106.718 92.5789 100.707 96.8096 97.023C101.151 93.2642 108.11 91.3848 117.684 91.3848H121.08V131.522C121.08 148.827 116.144 159.918 106.273 164.793C102.821 166.505 98.6836 167.361 93.8593 167.361H90.4636V115.054ZM77.3265 167.361C68.0117 167.361 61.072 164.104 56.5074 157.592C52.2768 151.563 50.1615 142.873 50.1615 131.522V91.3848H53.5571C63.1317 91.3848 70.0899 93.2642 74.4318 97.023C78.6625 100.707 80.7778 106.718 80.7778 115.054V167.361H77.3265Z" fill="white"/>
<path d="M175.8 91.3848H180.809C194.466 91.3848 202.612 96.0181 205.247 105.285C206.137 108.337 206.583 111.835 206.583 115.78V167.361H175.8V91.3848ZM135.386 91.3848H165.334V167.361H135.386V91.3848Z" fill="white"/>
<defs>
<linearGradient id="paint0_linear_84_39" x1="128" y1="1" x2="128" y2="255" gradientUnits="userSpaceOnUse">
<stop stop-color="#353434"/>
<stop offset="1" stop-color="#1A1A1A"/>
</linearGradient>
</defs>
</svg>
