<svg width="256" height="256" viewBox="0 0 256 256" fill="none" xmlns="http://www.w3.org/2000/svg">
<mask id="mask0_84_39" style="mask-type:alpha" maskUnits="userSpaceOnUse" x="1" y="1" width="254" height="254">
<path d="M106.429 254.324C77.8036 252.299 57.2862 246.329 40.0761 235.018C21.6571 222.911 8.93954 200.243 3.9843 170.687C1.69292 157.021 0.962957 146.366 1.00143 127.164C1.07014 93.0812 4.72734 71.9613 13.9373 52.4684C22.7757 33.762 33.8514 22.6792 52.4395 13.9416C72.1839 4.66056 93.5545 1 127.994 1C162.433 1 183.803 4.66056 203.548 13.9416C222.119 22.6715 233.122 33.6726 242.078 52.4684C251.216 71.6451 254.915 93.0336 254.999 127.164C255.1 168.687 249.55 193.658 235.416 215.277C222.216 235.466 198.18 248.266 165.151 252.695C147.932 255.004 125.031 255.639 106.429 254.324Z" fill="white"/>
</mask>
<g mask="url(#mask0_84_39)">
<rect x="1" y="1" width="254.001" height="254.001" fill="url(#paint0_radial_84_39)"/>
<g filter="url(#filter0_d_84_39)">
<path d="M90.4636 114.054C90.4636 105.718 92.5789 99.7073 96.8096 96.023C101.151 92.2642 108.11 90.3848 117.684 90.3848H121.08V130.522C121.08 147.827 116.144 158.918 106.273 163.793C102.821 165.505 98.6836 166.361 93.8593 166.361H90.4636V114.054ZM77.3265 166.361C68.0117 166.361 61.072 163.104 56.5074 156.592C52.2768 150.563 50.1615 141.873 50.1615 130.522V90.3848H53.5571C63.1317 90.3848 70.0899 92.2642 74.4318 96.023C78.6625 99.7073 80.7778 105.718 80.7778 114.054V166.361H77.3265Z" fill="white"/>
<path d="M175.8 90.3848H180.809C194.466 90.3848 202.612 95.0181 205.247 104.285C206.137 107.337 206.583 110.835 206.583 114.78V166.361H175.8V90.3848ZM135.386 90.3848H165.334V166.361H135.386V90.3848Z" fill="white"/>
</g>
</g>
<defs>
<filter id="filter0_d_84_39" x="2.1615" y="42.3848" width="252.421" height="171.976" filterUnits="userSpaceOnUse" color-interpolation-filters="sRGB">
<feFlood flood-opacity="0" result="BackgroundImageFix"/>
<feColorMatrix in="SourceAlpha" type="matrix" values="0 0 0 0 0 0 0 0 0 0 0 0 0 0 0 0 0 0 127 0" result="hardAlpha"/>
<feOffset/>
<feGaussianBlur stdDeviation="24"/>
<feComposite in2="hardAlpha" operator="out"/>
<feColorMatrix type="matrix" values="0 0 0 0 0.529167 0 0 0 0 0.529167 0 0 0 0 0.529167 0 0 0 0.25 0"/>
<feBlend mode="normal" in2="BackgroundImageFix" result="effect1_dropShadow_84_39"/>
<feBlend mode="normal" in="SourceGraphic" in2="effect1_dropShadow_84_39" result="shape"/>
</filter>
<radialGradient id="paint0_radial_84_39" cx="0" cy="0" r="1" gradientUnits="userSpaceOnUse" gradientTransform="translate(185.355 246.435) rotate(-113.027) scale(261.829 261.829)">
<stop stop-color="#181818"/>
<stop offset="1" stop-color="#242424"/>
</radialGradient>
</defs>
</svg>
