<svg width="192" height="192" viewBox="0 0 192 192" fill="none" xmlns="http://www.w3.org/2000/svg">
<path d="M79.8641 190.494C58.4515 188.98 43.1039 184.514 30.2301 176.052C16.4521 166.996 6.93903 150.04 3.23235 127.931C1.51833 117.708 0.97229 109.739 1.00107 95.3749C1.05247 69.8796 3.78817 54.0812 10.6775 39.5C17.2889 25.507 25.5739 17.2167 39.4783 10.6808C54.2478 3.73821 70.2337 1 95.9953 1C121.757 1 137.743 3.73821 152.512 10.6808C166.404 17.211 174.634 25.4402 181.334 39.5C188.169 53.8448 190.937 69.844 190.999 95.3749C191.075 126.436 186.923 145.115 176.35 161.286C166.477 176.388 148.497 185.963 123.79 189.276C110.91 191.003 93.7794 191.478 79.8641 190.494Z" fill="url(#paint0_linear_118_527)"/>
<path d="M132.903 45.1338C137.418 45.1335 141.764 46.8588 145.049 49.9567C148.334 53.0545 150.312 57.2908 150.577 61.7986L150.606 62.8372V98.244H115.199C110.684 98.2438 106.339 99.9691 103.053 103.067C99.7679 106.165 97.7905 110.401 97.5255 114.909L97.496 115.947V151.354H62.0892C57.5736 151.355 53.2286 149.629 49.9431 146.531C46.6577 143.434 44.6802 139.197 44.4153 134.689L44.3858 133.651V62.8372C44.3856 58.3216 46.1109 53.9766 49.2087 50.6911C52.3066 47.4057 56.5428 45.4282 61.0506 45.1633L62.0892 45.1338H132.903ZM149.916 110.046C149.208 112.509 147.973 114.788 146.298 116.726L145.419 117.671L116.928 146.173C115.111 147.988 112.92 149.385 110.508 150.268L109.298 150.664V115.947C109.299 114.502 109.829 113.107 110.79 112.027C111.75 110.947 113.074 110.257 114.509 110.088L115.199 110.046H149.916Z" fill="white"/>
<defs>
<linearGradient id="paint0_linear_118_527" x1="96" y1="1" x2="96" y2="191" gradientUnits="userSpaceOnUse">
<stop stop-color="#50C970"/>
<stop offset="1" stop-color="#34A853"/>
</linearGradient>
</defs>
</svg>
