<svg width="192" height="192" viewBox="0 0 192 192" fill="none" xmlns="http://www.w3.org/2000/svg">
<path d="M79.8641 190.494C58.4515 188.98 43.1039 184.514 30.2301 176.052C16.4521 166.996 6.93903 150.04 3.23235 127.931C1.51833 117.708 0.97229 109.739 1.00107 95.3749C1.05247 69.8796 3.78817 54.0812 10.6775 39.5C17.2889 25.507 25.5739 17.2167 39.4783 10.6808C54.2478 3.73821 70.2337 1 95.9953 1C121.757 1 137.743 3.73821 152.512 10.6808C166.404 17.211 174.634 25.4402 181.334 39.5C188.169 53.8448 190.937 69.844 190.999 95.3749C191.075 126.436 186.923 145.115 176.35 161.286C166.477 176.388 148.497 185.963 123.79 189.276C110.91 191.003 93.7794 191.478 79.8641 190.494Z" fill="url(#paint0_linear_108_178)"/>
<path d="M59.0849 109.785H36.3541C35.5758 109.787 34.8145 109.555 34.1672 109.119C33.52 108.683 33.0159 108.063 32.7193 107.337C32.4205 106.613 32.3415 105.816 32.4925 105.047C32.6434 104.278 33.0174 103.572 33.5671 103.018L49.3197 87.1254H38.0338C36.5442 87.1254 35.1156 86.5285 34.0623 85.4658C33.009 84.4032 32.4173 82.962 32.4173 81.4592H53.3837C54.9785 81.4592 56.4039 82.4214 57.0185 83.9074C57.3167 84.6316 57.3948 85.4288 57.2429 86.1979C57.091 86.9669 56.716 87.6731 56.1654 88.2266L40.4181 104.124H53.4738C56.5734 104.124 59.0902 106.663 59.0902 109.79L59.0849 109.785ZM159.583 92.0861C159.576 89.8543 158.901 87.6766 157.645 85.8395C156.388 84.0024 154.61 82.592 152.544 81.7937C150.479 80.9954 148.222 80.8467 146.07 81.3671C143.919 81.8875 141.974 83.0526 140.492 84.7093C139.467 83.5547 138.213 82.6313 136.811 81.9994C135.408 81.3675 133.889 81.0414 132.353 81.0422C126.313 81.0422 121.407 85.9922 121.407 92.0861V109.785C122.896 109.785 124.325 109.188 125.378 108.126C126.431 107.063 127.023 105.622 127.023 104.119V92.0861C127.023 90.6592 127.585 89.2907 128.585 88.2817C129.585 87.2727 130.942 86.7058 132.356 86.7058C133.77 86.7058 135.127 87.2727 136.127 88.2817C137.127 89.2907 137.689 90.6592 137.689 92.0861V104.119C137.689 107.251 140.201 109.785 143.305 109.785V92.0861C143.305 90.6599 143.867 89.292 144.867 88.2836C145.866 87.2751 147.222 86.7085 148.636 86.7085C150.05 86.7085 151.405 87.2751 152.405 88.2836C153.405 89.292 153.966 90.6599 153.966 92.0861V104.119C153.966 107.251 156.483 109.785 159.583 109.785V92.0861ZM118.598 95.6248C118.598 97.5402 118.224 99.4368 117.498 101.206C116.771 102.976 115.706 104.584 114.364 105.938C113.021 107.293 111.428 108.367 109.674 109.1C107.92 109.833 106.04 110.21 104.141 110.21C102.243 110.21 100.363 109.833 98.6087 109.1C96.8547 108.367 95.2609 107.293 93.9185 105.938C92.576 104.584 91.5111 102.976 90.7846 101.206C90.058 99.4368 89.6841 97.5402 89.6841 95.6248C89.6841 91.7566 91.2073 88.0468 93.9185 85.3115C96.6297 82.5762 100.307 81.0396 104.141 81.0396C107.975 81.0396 111.653 82.5762 114.364 85.3115C117.075 88.0468 118.598 91.7566 118.598 95.6248ZM112.982 95.6248C112.982 93.2587 112.05 90.9894 110.392 89.3162C108.733 87.6431 106.484 86.7031 104.139 86.7031C101.793 86.7031 99.5438 87.6431 97.8854 89.3162C96.227 90.9894 95.2953 93.2587 95.2953 95.6248C95.2953 97.991 96.227 100.26 97.8854 101.933C99.5438 103.607 101.793 104.547 104.139 104.547C106.484 104.547 108.733 103.607 110.392 101.933C112.05 100.26 112.982 97.991 112.982 95.6248ZM87.4428 95.6248C87.4428 99.4938 85.9194 103.204 83.2076 105.94C80.4959 108.676 76.818 110.213 72.983 110.213C69.1481 110.213 65.4702 108.676 62.7584 105.94C60.0467 103.204 58.5233 99.4938 58.5233 95.6248C58.5233 91.7566 60.0464 88.0468 62.7577 85.3115C65.4689 82.5762 69.1461 81.0396 72.9804 81.0396C76.8147 81.0396 80.4919 82.5762 83.2031 85.3115C85.9143 88.0468 87.4375 91.7566 87.4375 95.6248H87.4428ZM81.8263 95.6248C81.8263 94.4532 81.5976 93.2931 81.1532 92.2106C80.7088 91.1282 80.0574 90.1447 79.2362 89.3162C78.415 88.4878 77.4401 87.8306 76.3672 87.3823C75.2943 86.9339 74.1444 86.7031 72.983 86.7031C71.8217 86.7031 70.6718 86.9339 69.5989 87.3823C68.5259 87.8306 67.5511 88.4878 66.7299 89.3162C65.9087 90.1447 65.2573 91.1282 64.8129 92.2106C64.3685 93.2931 64.1398 94.4532 64.1398 95.6248C64.1398 97.991 65.0715 100.26 66.7299 101.933C68.3883 103.607 70.6377 104.547 72.983 104.547C75.3284 104.547 77.5778 103.607 79.2362 101.933C80.8946 100.26 81.8263 97.991 81.8263 95.6248Z" fill="white"/>
<defs>
<linearGradient id="paint0_linear_108_178" x1="96" y1="1" x2="96" y2="191" gradientUnits="userSpaceOnUse">
<stop stop-color="#009DFF"/>
<stop offset="1" stop-color="#0044FF"/>
</linearGradient>
</defs>
</svg>
