<svg width="256" height="256" viewBox="0 0 256 256" fill="none" xmlns="http://www.w3.org/2000/svg">
<path d="M106.429 254.324C77.8036 252.299 57.2862 246.329 40.0761 235.018C21.6571 222.911 8.93954 200.243 3.9843 170.687C1.69292 157.021 0.962957 146.366 1.00143 127.164C1.07014 93.0812 4.72734 71.9613 13.9373 52.4684C22.7757 33.762 33.8514 22.6792 52.4395 13.9416C72.1839 4.66056 93.5545 1 127.994 1C162.433 1 183.803 4.66056 203.548 13.9416C222.119 22.6715 233.122 33.6726 242.078 52.4684C251.216 71.6451 254.915 93.0336 254.999 127.164C255.1 168.687 249.55 193.658 235.416 215.277C222.216 235.466 198.18 248.266 165.151 252.695C147.932 255.004 125.031 255.639 106.429 254.324Z" fill="url(#paint0_linear_118_423)"/>
<path d="M80.6334 86.4535C57.0881 86.4535 38 105.542 38 129.087C38 152.633 57.0881 171.72 80.6334 171.72C104.179 171.72 123.267 152.633 123.267 129.087C123.267 105.542 104.18 86.4535 80.6334 86.4535ZM80.6334 141.824C73.4892 141.824 67.6989 136.033 67.6989 128.89C67.6989 121.747 73.4904 116.319 80.6334 116.319C87.7765 116.319 93.568 121.747 93.568 128.89C93.568 136.033 87.7777 141.824 80.6334 141.824Z" fill="white"/>
<path d="M155.927 179.629H131.373V76.1728H155.927V179.629Z" fill="white"/>
<path d="M166.242 154.249H182.776L192.121 144.904L201.466 154.249H218V137.896L208.564 128.46L218 119.024V102.442H201.695L192.12 112.016L182.545 102.442H166.239V119.024L175.675 128.46L166.239 137.896V154.249H166.242Z" fill="white"/>
<defs>
<linearGradient id="paint0_linear_118_423" x1="128" y1="1" x2="128" y2="255" gradientUnits="userSpaceOnUse">
<stop stop-color="#3A77FF"/>
<stop offset="1" stop-color="#115BFF"/>
</linearGradient>
</defs>
</svg>
