<svg width="256" height="256" viewBox="0 0 256 256" fill="none" xmlns="http://www.w3.org/2000/svg">
<path d="M106.429 254.324C77.8036 252.299 57.2862 246.329 40.0761 235.018C21.6571 222.911 8.93954 200.243 3.9843 170.687C1.69292 157.021 0.962957 146.366 1.00143 127.164C1.07014 93.0812 4.72734 71.9613 13.9373 52.4684C22.7757 33.762 33.8514 22.6792 52.4395 13.9416C72.1839 4.66056 93.5545 1 127.994 1C162.433 1 183.803 4.66056 203.548 13.9416C222.119 22.6715 233.122 33.6726 242.078 52.4684C251.216 71.6451 254.915 93.0336 254.999 127.164C255.1 168.687 249.55 193.658 235.416 215.277C222.216 235.466 198.18 248.266 165.151 252.695C147.932 255.004 125.031 255.639 106.429 254.324Z" fill="url(#paint0_linear_108_177)"/>
<path d="M81.4683 199.52V173.768C81.4683 171.6 81.7999 169.491 82.463 167.443C84.0305 162.624 86.5325 158.769 89.969 155.878C93.7069 152.685 97.9874 151.089 102.81 151.089C107.995 151.089 112.879 153.227 117.461 157.504C121.621 153.227 126.474 151.089 132.02 151.089C136.843 151.089 141.154 152.655 144.952 155.787C148.75 158.92 151.283 162.895 152.549 167.714C153.152 170.003 153.453 171.871 153.453 173.316V199.52H140.159V174.039C140.039 173.075 139.978 172.533 139.978 172.413C139.556 170.305 138.682 168.497 137.356 166.992C135.849 165.305 134.1 164.462 132.111 164.462C130.121 164.462 128.373 165.305 126.866 166.992C125.6 168.497 124.756 170.305 124.334 172.413C124.273 172.835 124.213 173.377 124.153 174.039V199.52H110.769V173.768C110.648 172.865 110.588 172.383 110.588 172.322C110.166 170.214 109.292 168.407 107.965 166.901C106.458 165.275 104.71 164.462 102.72 164.462C100.429 164.462 98.4998 165.576 96.9323 167.805C95.4854 169.793 94.7619 171.991 94.7619 174.401V199.52H81.4683Z" fill="#F36F21"/>
<path d="M156.709 175.304C156.709 168.678 159.06 163.016 163.763 158.317C168.465 153.619 174.102 151.27 180.674 151.27C187.366 151.27 193.093 153.619 197.856 158.317C202.619 163.016 205 168.708 205 175.395C205 181.96 202.619 187.623 197.856 192.381C193.153 197.14 187.486 199.52 180.854 199.52C174.162 199.52 168.465 197.17 163.763 192.472C159.06 187.713 156.709 181.991 156.709 175.304ZM170.002 175.304C170.002 178.316 171.057 180.876 173.168 182.984C175.278 185.093 177.84 186.147 180.854 186.147C183.809 186.147 186.341 185.093 188.451 182.984C190.621 180.816 191.706 178.256 191.706 175.304C191.706 172.353 190.621 169.823 188.451 167.714C186.28 165.606 183.718 164.552 180.764 164.552C177.81 164.552 175.278 165.606 173.168 167.714C171.057 169.823 170.002 172.353 170.002 175.304Z" fill="#F36F21"/>
<path d="M101.863 92.6574C102.412 92.1249 103.061 91.4399 103.81 90.6012C104.557 89.7625 105.265 88.7721 105.933 87.6284C106.602 86.4847 107.173 85.2104 107.644 83.7999C108.117 82.3911 108.354 80.8859 108.354 79.286C108.354 76.1637 107.802 73.2496 106.701 70.544C105.599 67.8401 103.908 65.4771 101.626 63.4567C99.3444 61.4402 96.4939 59.8574 93.0703 58.7137C89.6488 57.572 85.6545 57.0001 81.0931 57.0001H80.968H67.853H64.4394H51V71.5681V122.002V137H84.0435C88.8414 137 93.0293 136.371 96.611 135.114C100.189 133.857 103.161 132.124 105.521 129.914C107.88 127.705 109.63 125.134 110.772 122.201C111.912 119.268 112.483 116.125 112.483 112.771C112.483 108.276 111.421 104.277 109.298 100.771C107.172 97.2677 104.694 94.5622 101.863 92.6574ZM87.252 71.659C88.3644 72.07 89.2931 72.6038 90.0186 73.2759C91.8976 75.0217 92.8379 77.1082 92.8379 79.5356C92.8379 81.7376 92.445 83.5572 91.6629 84.9981C90.8789 86.441 90.0949 87.5409 89.3128 88.2983H66.3423V70.714H80.6204C83.297 70.714 85.5002 71.0342 87.252 71.659ZM84.8689 102.143C89.0274 102.143 92.1087 103.187 94.1147 105.27C96.0013 107.32 96.9515 109.74 96.9515 112.541C96.9515 115.426 95.8743 117.89 93.7197 119.938C91.5632 121.987 88.0205 123.013 83.0838 123.013H81.2402H66.3423V102.143H84.8689ZM168.505 102.543C170.982 100.905 173.049 99.0006 174.701 96.8289C176.353 94.6572 177.571 92.2581 178.359 89.63C179.145 86.9999 179.54 84.315 179.54 81.5715C179.54 77.991 178.927 74.6964 177.71 71.6857C176.488 68.6771 174.66 66.087 172.222 63.915C169.782 61.7433 166.734 60.0486 163.076 58.8293C159.417 57.6118 155.189 57.0002 150.391 57.0002H149.959H118.175H117.878V137H133.516V107.286H142.236L163.803 137H182.135L159.833 106.258C163.135 105.421 166.026 104.183 168.505 102.543ZM150.509 70.7145C151.443 70.7143 152.377 70.7712 153.305 70.8847C156.093 71.2915 158.37 72.2556 160.126 73.7872C162.515 75.8757 163.71 78.4356 163.71 81.4689C163.711 82.9798 163.452 84.4804 162.945 85.909C162.445 87.3375 161.622 88.6396 160.537 89.7205C159.438 90.8225 158.028 91.7124 156.306 92.3959C154.581 93.0795 152.505 93.4204 150.077 93.4204H133.517V70.7142L150.509 70.7145ZM187.658 57.0002V57.0214L187.187 57.0002H187.054V57.006V86.3297V107.341V137H203V57L187.658 57.0002Z" fill="white"/>
<defs>
<linearGradient id="paint0_linear_108_177" x1="128" y1="1" x2="128" y2="255" gradientUnits="userSpaceOnUse">
<stop stop-color="#0266C1"/>
<stop offset="1" stop-color="#00529C"/>
</linearGradient>
</defs>
</svg>
