<svg width="256" height="256" viewBox="0 0 256 256" fill="none" xmlns="http://www.w3.org/2000/svg">
<path d="M106.429 254.324C77.8036 252.299 57.2862 246.329 40.0761 235.018C21.6571 222.911 8.93954 200.243 3.9843 170.687C1.69292 157.021 0.962957 146.366 1.00143 127.164C1.07014 93.0812 4.72734 71.9613 13.9373 52.4684C22.7757 33.762 33.8514 22.6792 52.4395 13.9416C72.1839 4.66056 93.5545 1 127.994 1C162.433 1 183.803 4.66056 203.548 13.9416C222.119 22.6715 233.122 33.6726 242.078 52.4684C251.216 71.6451 254.915 93.0336 254.999 127.164C255.1 168.687 249.55 193.658 235.416 215.277C222.216 235.466 198.18 248.266 165.151 252.695C147.932 255.004 125.031 255.639 106.429 254.324Z" fill="url(#paint0_linear_108_222)"/>
<path d="M70.3923 193.986C62.6253 190.059 62.6253 179.256 70.3923 175.33C71.8422 174.597 73.9809 173.997 75.1451 173.997C76.3093 173.997 78.4481 174.597 79.8979 175.33C87.665 179.256 87.665 190.059 79.8979 193.986C78.4481 194.719 76.3093 195.318 75.1451 195.318C73.9809 195.318 71.8422 194.719 70.3923 193.986ZM166.446 187.58C162.017 186.23 158.624 180.498 159.489 175.828C161.254 166.298 173.76 163.887 178.832 172.099C181.69 176.728 180.105 183.567 175.515 186.405C173.164 187.859 169.093 188.387 166.446 187.58ZM96.0125 146.122C91.5839 144.772 88.1908 139.04 89.0557 134.369C90.8205 124.84 103.327 122.429 108.399 130.641C111.257 135.269 109.672 142.109 105.082 144.947C102.731 146.401 98.6596 146.928 96.0125 146.122ZM200.183 135.461C195.754 134.111 192.361 128.379 193.226 123.708C194.991 114.179 207.497 111.768 212.569 119.98C215.427 124.609 213.842 131.448 209.252 134.286C206.901 135.74 202.83 136.268 200.183 135.461Z" fill="white"/>
<path d="M84.6151 224.932V235H174.58V224.932H84.6151Z" fill="#FFA800"/>
<path d="M85.8431 210.007C89.5024 215.121 93.0335 219.905 93.6899 220.638C94.3464 221.371 95.1832 221.97 95.5497 221.97C96.3974 221.97 97.6365 220.745 97.6365 219.907C97.6365 219.555 94.2856 214.611 90.1901 208.921C83.7619 199.99 82.5288 198.576 81.1721 198.576C78.2306 198.576 78.9857 200.424 85.8431 210.007Z" fill="#9B7FB4"/>
<path d="M97.889 211.453C99.1005 213.166 101.071 215.971 102.267 217.688C104.024 220.208 104.728 220.778 105.923 220.649C108.477 220.373 107.974 218.471 103.803 212.631C99.2668 206.278 98.2555 205.497 96.7358 207.178C95.7223 208.299 95.762 208.446 97.889 211.453Z" fill="#9B7FB4"/>
<path d="M146.762 215.762C146.762 216.114 147.082 216.723 147.473 217.114C149.181 218.823 149.547 218.451 158.556 205.861C165.413 196.278 166.168 194.43 163.227 194.43C161.87 194.43 160.637 195.845 154.209 204.775C150.113 210.465 146.762 215.409 146.762 215.762Z" fill="#9B7FB4"/>
<path d="M140.861 208.123C136.749 213.874 136.431 214.49 136.914 215.751C137.648 217.665 139.902 216.702 142.131 213.523C143.328 211.817 145.298 209.02 146.51 207.307C148.637 204.3 148.676 204.153 147.663 203.032C146.159 201.369 145.147 202.126 140.861 208.123Z" fill="#9B7FB4"/>
<path d="M85.7989 193.795C85.7989 194.635 90.8061 201.853 91.8625 202.536C92.918 203.218 94.1508 202.886 94.8835 201.722C95.3875 200.921 94.9407 199.892 92.6389 196.551C91.0583 194.258 89.2595 192.22 88.6415 192.024C87.4306 191.639 85.7989 192.656 85.7989 193.795Z" fill="#9B7FB4"/>
<path d="M151.882 192.229C148.932 196.51 148.742 197.062 149.84 198.161C151.401 199.723 152.526 198.98 155.94 194.129C158.827 190.026 159.044 189.317 157.74 188.235C156.283 187.024 154.745 188.073 151.882 192.229Z" fill="#9B7FB4"/>
<path d="M70.4101 63.8363V84.5655H89.3501V63.8363H70.4101Z" fill="#FF7A00"/>
<path d="M99.4121 63.8363V84.5655H118.352V63.8363H99.4121Z" fill="#FF7A00"/>
<path d="M127.822 63.8363V84.5655H146.762V63.8363H127.822Z" fill="#FF7A00"/>
<path d="M156.232 63.8363V84.5655H175.172V63.8363H156.232Z" fill="#FF7A00"/>
<path d="M42 36V56.7292H60.9401V36H42Z" fill="#FF7A00"/>
<path d="M70.4101 36V56.7292H89.3501V36H70.4101Z" fill="#FF7A00"/>
<path d="M99.4121 36V56.7292H118.352V36H99.4121Z" fill="#FF7A00"/>
<path d="M127.822 36V56.7292H146.762V36H127.822Z" fill="#FF7A00"/>
<path d="M156.232 36V56.7292H175.172V36H156.232Z" fill="#FF7A00"/>
<path d="M184.642 36V56.7292H203.582V36H184.642Z" fill="#FF7A00"/>
<defs>
<linearGradient id="paint0_linear_108_222" x1="128" y1="1" x2="128" y2="255" gradientUnits="userSpaceOnUse">
<stop stop-color="#4F0097"/>
<stop offset="1" stop-color="#38006B"/>
</linearGradient>
</defs>
</svg>
