<svg width="256" height="256" viewBox="0 0 256 256" fill="none" xmlns="http://www.w3.org/2000/svg">
<path d="M106.429 254.324C77.8036 252.299 57.2862 246.329 40.0761 235.018C21.6571 222.911 8.93954 200.243 3.9843 170.687C1.69292 157.021 0.962957 146.366 1.00143 127.164C1.07014 93.0812 4.72734 71.9613 13.9373 52.4684C22.7757 33.762 33.8514 22.6792 52.4395 13.9416C72.1839 4.66056 93.5545 1 127.994 1C162.433 1 183.803 4.66056 203.548 13.9416C222.119 22.6715 233.122 33.6726 242.078 52.4684C251.216 71.6451 254.915 93.0336 254.999 127.164C255.1 168.687 249.55 193.658 235.416 215.277C222.216 235.466 198.18 248.266 165.151 252.695C147.932 255.004 125.031 255.639 106.429 254.324Z" fill="url(#paint0_linear_108_95)"/>
<path d="M128 43C116.575 43 105.262 45.2532 94.7065 49.6309C84.1512 54.0086 74.5604 60.4251 66.4817 68.514C50.166 84.8504 41 107.007 41 130.11C41 168.613 65.969 201.279 100.508 212.865C104.858 213.562 106.25 210.862 106.25 208.51V193.788C82.151 199.015 77.018 182.115 77.018 182.115C73.016 172.01 67.361 169.31 67.361 169.31C59.444 163.909 67.97 164.083 67.97 164.083C76.67 164.693 81.281 173.056 81.281 173.056C88.85 186.296 101.639 182.376 106.598 180.286C107.381 174.624 109.643 170.791 112.079 168.613C92.765 166.435 72.494 158.944 72.494 125.755C72.494 116.086 75.8 108.333 81.455 102.148C80.585 99.9701 77.54 90.9107 82.325 79.1508C82.325 79.1508 89.633 76.7988 106.25 88.036C113.123 86.1196 120.605 85.1614 128 85.1614C135.395 85.1614 142.877 86.1196 149.75 88.036C166.367 76.7988 173.675 79.1508 173.675 79.1508C178.46 90.9107 175.415 99.9701 174.545 102.148C180.2 108.333 183.506 116.086 183.506 125.755C183.506 159.031 163.148 166.348 143.747 168.526C146.879 171.226 149.75 176.54 149.75 184.641V208.51C149.75 210.862 151.142 213.649 155.579 212.865C190.118 201.192 215 168.613 215 130.11C215 118.671 212.75 107.343 208.378 96.7746C204.005 86.2059 197.597 76.603 189.518 68.514C181.44 60.4251 171.849 54.0086 161.293 49.6309C150.738 45.2532 139.425 43 128 43Z" fill="white"/>
<defs>
<linearGradient id="paint0_linear_108_95" x1="128" y1="1" x2="128" y2="255" gradientUnits="userSpaceOnUse">
<stop stop-color="#1C1C1C"/>
<stop offset="1"/>
</linearGradient>
</defs>
</svg>
