<svg width="256" height="256" viewBox="0 0 256 256" fill="none" xmlns="http://www.w3.org/2000/svg">
<path d="M106.429 254.324C77.8036 252.299 57.2862 246.329 40.0761 235.018C21.6571 222.911 8.93954 200.243 3.9843 170.687C1.69292 157.021 0.962957 146.366 1.00143 127.164C1.07014 93.0812 4.72734 71.9613 13.9373 52.4684C22.7757 33.762 33.8514 22.6792 52.4395 13.9416C72.1839 4.66056 93.5545 1 127.994 1C162.433 1 183.803 4.66056 203.548 13.9416C222.119 22.6715 233.122 33.6726 242.078 52.4684C251.216 71.6451 254.915 93.0336 254.999 127.164C255.1 168.687 249.55 193.658 235.416 215.277C222.216 235.466 198.18 248.266 165.151 252.695C147.932 255.004 125.031 255.639 106.429 254.324Z" fill="url(#paint0_linear_118_613)"/>
<path d="M54.3998 192H81V126.081L43 97V180.368C43 186.804 48.1114 192 54.3998 192Z" fill="white"/>
<path d="M175 192H201.6C207.908 192 213 186.784 213 180.368V97L175 126.082" fill="#B3B3B3"/>
<path d="M175 75.6523V126L213 96.9541V81.4606C213 67.0927 196.907 58.9012 185.64 67.5187" fill="#CFCFCF"/>
<path d="M81 126.228V76.0017L128 110.772L175 76V126.227L128 161" fill="#E8E8E8"/>
<path d="M43 81.4608V96.9528L81 126V75.6524L70.3601 67.5188C59.074 58.9011 43 67.0927 43 81.4608Z" fill="#BABABA"/>
<defs>
<linearGradient id="paint0_linear_118_613" x1="128" y1="1" x2="128" y2="255" gradientUnits="userSpaceOnUse">
<stop stop-color="#D25656"/>
<stop offset="1" stop-color="#CA3737"/>
</linearGradient>
</defs>
</svg>
