<svg width="256" height="256" viewBox="0 0 256 256" fill="none" xmlns="http://www.w3.org/2000/svg">
<path d="M106.429 254.324C77.8036 252.299 57.2862 246.329 40.0761 235.018C21.6571 222.911 8.93954 200.243 3.9843 170.687C1.69292 157.021 0.962957 146.366 1.00143 127.164C1.07014 93.0812 4.72734 71.9613 13.9373 52.4684C22.7757 33.762 33.8514 22.6792 52.4395 13.9416C72.1839 4.66056 93.5545 1 127.994 1C162.433 1 183.803 4.66056 203.548 13.9416C222.119 22.6715 233.122 33.6726 242.078 52.4684C251.216 71.6451 254.915 93.0336 254.999 127.164C255.1 168.687 249.55 193.658 235.416 215.277C222.216 235.466 198.18 248.266 165.151 252.695C147.932 255.004 125.031 255.639 106.429 254.324Z" fill="url(#paint0_linear_118_494)"/>
<mask id="path-2-outside-1_118_494" maskUnits="userSpaceOnUse" x="46" y="45" width="163" height="165" fill="black">
<rect fill="white" x="46" y="45" width="163" height="165"/>
<path fill-rule="evenodd" clip-rule="evenodd" d="M95.3 58.0741C94.7663 58.0741 94.2544 58.2861 93.8769 58.6635C93.4995 59.0409 93.2875 59.5527 93.2875 60.0864V109.934C93.2875 110.277 93.3751 110.614 93.5421 110.914C93.709 111.213 93.9498 111.465 94.2414 111.646L127.5 132.223L160.759 111.647C161.05 111.466 161.291 111.214 161.458 110.914C161.625 110.615 161.713 110.277 161.713 109.934V60.0864C161.713 59.5527 161.5 59.0409 161.123 58.6635C160.746 58.2861 160.234 58.0741 159.7 58.0741H95.3ZM81.2125 60.0864C81.2125 52.3067 87.5197 46 95.3 46H159.7C167.48 46 173.788 52.3067 173.788 60.0864V109.934C173.788 112.334 173.174 114.695 172.006 116.791C170.838 118.888 169.153 120.651 167.112 121.914L132.795 143.146C131.204 144.13 129.371 144.652 127.5 144.652C125.629 144.652 123.796 144.13 122.205 143.146L87.888 121.914C85.8468 120.651 84.1622 118.888 82.9939 116.791C81.8256 114.695 81.2124 112.334 81.2125 109.934V60.0864ZM63.1 120.457C62.0325 120.457 61.0087 120.881 60.2539 121.636C59.4991 122.39 59.075 123.414 59.075 124.481V192.901C59.075 193.969 59.4991 194.992 60.2539 195.747C61.0087 196.502 62.0325 196.926 63.1 196.926H191.9C192.967 196.926 193.991 196.502 194.746 195.747C195.501 194.992 195.925 193.969 195.925 192.901V124.481C195.925 123.414 195.501 122.39 194.746 121.636C193.991 120.881 192.967 120.457 191.9 120.457H187.875C186.274 120.457 184.738 119.821 183.606 118.689C182.474 117.556 181.838 116.021 181.838 114.42C181.838 112.819 182.474 111.283 183.606 110.151C184.738 109.019 186.274 108.383 187.875 108.383H191.9C200.792 108.383 208 115.59 208 124.481V192.901C208 201.793 200.792 209 191.9 209H63.1C54.2078 209 47 201.793 47 192.901V124.481C47 115.59 54.2078 108.383 63.1 108.383H67.125C68.7262 108.383 70.2619 109.019 71.3942 110.151C72.5264 111.283 73.1625 112.819 73.1625 114.42C73.1625 116.021 72.5264 117.556 71.3942 118.689C70.2619 119.821 68.7262 120.457 67.125 120.457H63.1ZM112.406 89.2654C112.406 80.9303 119.164 74.1728 127.5 74.1728C131.669 74.1728 135.437 75.8582 138.173 78.593C138.547 78.9667 138.991 79.2631 139.479 79.4654C139.967 79.6676 140.49 79.7718 141.019 79.7718C141.547 79.7718 142.071 79.6676 142.559 79.4654C143.047 79.2631 143.491 78.9667 143.865 78.593C144.239 78.2194 144.535 77.7757 144.738 77.2874C144.94 76.7991 145.044 76.2756 145.044 75.747C145.044 75.2184 144.94 74.6949 144.738 74.2066C144.535 73.7183 144.239 73.2746 143.865 72.901C141.718 70.7495 139.167 69.0432 136.358 67.8801C133.55 66.717 130.54 66.12 127.5 66.1235C114.718 66.1235 104.356 76.484 104.356 89.2654C104.356 102.047 114.718 112.407 127.5 112.407C140.282 112.407 150.644 102.047 150.644 89.2654C150.644 88.198 150.22 87.1743 149.465 86.4195C148.71 85.6648 147.686 85.2407 146.619 85.2407H127.5C126.433 85.2407 125.409 85.6648 124.654 86.4195C123.899 87.1743 123.475 88.198 123.475 89.2654C123.475 90.3328 123.899 91.3565 124.654 92.1113C125.409 92.8661 126.433 93.2901 127.5 93.2901H142.051C140.289 99.6713 134.442 104.358 127.5 104.358C119.164 104.358 112.406 97.6006 112.406 89.2654ZM87.25 182.84C87.25 181.238 87.8861 179.703 89.0183 178.571C90.1506 177.439 91.6863 176.802 93.2875 176.802H161.713C163.314 176.802 164.849 177.439 165.982 178.571C167.114 179.703 167.75 181.238 167.75 182.84C167.75 184.441 167.114 185.976 165.982 187.108C164.849 188.241 163.314 188.877 161.713 188.877H93.2875C91.6863 188.877 90.1506 188.241 89.0183 187.108C87.8861 185.976 87.25 184.441 87.25 182.84ZM79.2 168.753C81.335 168.753 83.3825 167.905 84.8922 166.395C86.4019 164.886 87.25 162.839 87.25 160.704C87.25 158.569 86.4019 156.521 84.8922 155.012C83.3825 153.502 81.335 152.654 79.2 152.654C77.065 152.654 75.0175 153.502 73.5078 155.012C71.9981 156.521 71.15 158.569 71.15 160.704C71.15 162.839 71.9981 164.886 73.5078 166.395C75.0175 167.905 77.065 168.753 79.2 168.753ZM87.25 136.556C87.25 138.69 86.4019 140.738 84.8922 142.247C83.3825 143.757 81.335 144.605 79.2 144.605C77.065 144.605 75.0175 143.757 73.5078 142.247C71.9981 140.738 71.15 138.69 71.15 136.556C71.15 134.421 71.9981 132.373 73.5078 130.864C75.0175 129.354 77.065 128.506 79.2 128.506C81.335 128.506 83.3825 129.354 84.8922 130.864C86.4019 132.373 87.25 134.421 87.25 136.556ZM103.35 168.753C105.485 168.753 107.533 167.905 109.042 166.395C110.552 164.886 111.4 162.839 111.4 160.704C111.4 158.569 110.552 156.521 109.042 155.012C107.533 153.502 105.485 152.654 103.35 152.654C101.215 152.654 99.1675 153.502 97.6578 155.012C96.1481 156.521 95.3 158.569 95.3 160.704C95.3 162.839 96.1481 164.886 97.6578 166.395C99.1675 167.905 101.215 168.753 103.35 168.753ZM159.7 160.704C159.7 162.839 158.852 164.886 157.342 166.395C155.833 167.905 153.785 168.753 151.65 168.753C149.515 168.753 147.467 167.905 145.958 166.395C144.448 164.886 143.6 162.839 143.6 160.704C143.6 158.569 144.448 156.521 145.958 155.012C147.467 153.502 149.515 152.654 151.65 152.654C153.785 152.654 155.833 153.502 157.342 155.012C158.852 156.521 159.7 158.569 159.7 160.704ZM175.8 168.753C177.935 168.753 179.983 167.905 181.492 166.395C183.002 164.886 183.85 162.839 183.85 160.704C183.85 158.569 183.002 156.521 181.492 155.012C179.983 153.502 177.935 152.654 175.8 152.654C173.665 152.654 171.617 153.502 170.108 155.012C168.598 156.521 167.75 158.569 167.75 160.704C167.75 162.839 168.598 164.886 170.108 166.395C171.617 167.905 173.665 168.753 175.8 168.753ZM183.85 136.556C183.85 138.69 183.002 140.738 181.492 142.247C179.983 143.757 177.935 144.605 175.8 144.605C173.665 144.605 171.617 143.757 170.108 142.247C168.598 140.738 167.75 138.69 167.75 136.556C167.75 134.421 168.598 132.373 170.108 130.864C171.617 129.354 173.665 128.506 175.8 128.506C177.935 128.506 179.983 129.354 181.492 130.864C183.002 132.373 183.85 134.421 183.85 136.556ZM127.5 168.753C129.635 168.753 131.683 167.905 133.192 166.395C134.702 164.886 135.55 162.839 135.55 160.704C135.55 158.569 134.702 156.521 133.192 155.012C131.683 153.502 129.635 152.654 127.5 152.654C125.365 152.654 123.317 153.502 121.808 155.012C120.298 156.521 119.45 158.569 119.45 160.704C119.45 162.839 120.298 164.886 121.808 166.395C123.317 167.905 125.365 168.753 127.5 168.753Z"/>
</mask>
<path fill-rule="evenodd" clip-rule="evenodd" d="M95.3 58.0741C94.7663 58.0741 94.2544 58.2861 93.8769 58.6635C93.4995 59.0409 93.2875 59.5527 93.2875 60.0864V109.934C93.2875 110.277 93.3751 110.614 93.5421 110.914C93.709 111.213 93.9498 111.465 94.2414 111.646L127.5 132.223L160.759 111.647C161.05 111.466 161.291 111.214 161.458 110.914C161.625 110.615 161.713 110.277 161.713 109.934V60.0864C161.713 59.5527 161.5 59.0409 161.123 58.6635C160.746 58.2861 160.234 58.0741 159.7 58.0741H95.3ZM81.2125 60.0864C81.2125 52.3067 87.5197 46 95.3 46H159.7C167.48 46 173.788 52.3067 173.788 60.0864V109.934C173.788 112.334 173.174 114.695 172.006 116.791C170.838 118.888 169.153 120.651 167.112 121.914L132.795 143.146C131.204 144.13 129.371 144.652 127.5 144.652C125.629 144.652 123.796 144.13 122.205 143.146L87.888 121.914C85.8468 120.651 84.1622 118.888 82.9939 116.791C81.8256 114.695 81.2124 112.334 81.2125 109.934V60.0864ZM63.1 120.457C62.0325 120.457 61.0087 120.881 60.2539 121.636C59.4991 122.39 59.075 123.414 59.075 124.481V192.901C59.075 193.969 59.4991 194.992 60.2539 195.747C61.0087 196.502 62.0325 196.926 63.1 196.926H191.9C192.967 196.926 193.991 196.502 194.746 195.747C195.501 194.992 195.925 193.969 195.925 192.901V124.481C195.925 123.414 195.501 122.39 194.746 121.636C193.991 120.881 192.967 120.457 191.9 120.457H187.875C186.274 120.457 184.738 119.821 183.606 118.689C182.474 117.556 181.838 116.021 181.838 114.42C181.838 112.819 182.474 111.283 183.606 110.151C184.738 109.019 186.274 108.383 187.875 108.383H191.9C200.792 108.383 208 115.59 208 124.481V192.901C208 201.793 200.792 209 191.9 209H63.1C54.2078 209 47 201.793 47 192.901V124.481C47 115.59 54.2078 108.383 63.1 108.383H67.125C68.7262 108.383 70.2619 109.019 71.3942 110.151C72.5264 111.283 73.1625 112.819 73.1625 114.42C73.1625 116.021 72.5264 117.556 71.3942 118.689C70.2619 119.821 68.7262 120.457 67.125 120.457H63.1ZM112.406 89.2654C112.406 80.9303 119.164 74.1728 127.5 74.1728C131.669 74.1728 135.437 75.8582 138.173 78.593C138.547 78.9667 138.991 79.2631 139.479 79.4654C139.967 79.6676 140.49 79.7718 141.019 79.7718C141.547 79.7718 142.071 79.6676 142.559 79.4654C143.047 79.2631 143.491 78.9667 143.865 78.593C144.239 78.2194 144.535 77.7757 144.738 77.2874C144.94 76.7991 145.044 76.2756 145.044 75.747C145.044 75.2184 144.94 74.6949 144.738 74.2066C144.535 73.7183 144.239 73.2746 143.865 72.901C141.718 70.7495 139.167 69.0432 136.358 67.8801C133.55 66.717 130.54 66.12 127.5 66.1235C114.718 66.1235 104.356 76.484 104.356 89.2654C104.356 102.047 114.718 112.407 127.5 112.407C140.282 112.407 150.644 102.047 150.644 89.2654C150.644 88.198 150.22 87.1743 149.465 86.4195C148.71 85.6648 147.686 85.2407 146.619 85.2407H127.5C126.433 85.2407 125.409 85.6648 124.654 86.4195C123.899 87.1743 123.475 88.198 123.475 89.2654C123.475 90.3328 123.899 91.3565 124.654 92.1113C125.409 92.8661 126.433 93.2901 127.5 93.2901H142.051C140.289 99.6713 134.442 104.358 127.5 104.358C119.164 104.358 112.406 97.6006 112.406 89.2654ZM87.25 182.84C87.25 181.238 87.8861 179.703 89.0183 178.571C90.1506 177.439 91.6863 176.802 93.2875 176.802H161.713C163.314 176.802 164.849 177.439 165.982 178.571C167.114 179.703 167.75 181.238 167.75 182.84C167.75 184.441 167.114 185.976 165.982 187.108C164.849 188.241 163.314 188.877 161.713 188.877H93.2875C91.6863 188.877 90.1506 188.241 89.0183 187.108C87.8861 185.976 87.25 184.441 87.25 182.84ZM79.2 168.753C81.335 168.753 83.3825 167.905 84.8922 166.395C86.4019 164.886 87.25 162.839 87.25 160.704C87.25 158.569 86.4019 156.521 84.8922 155.012C83.3825 153.502 81.335 152.654 79.2 152.654C77.065 152.654 75.0175 153.502 73.5078 155.012C71.9981 156.521 71.15 158.569 71.15 160.704C71.15 162.839 71.9981 164.886 73.5078 166.395C75.0175 167.905 77.065 168.753 79.2 168.753ZM87.25 136.556C87.25 138.69 86.4019 140.738 84.8922 142.247C83.3825 143.757 81.335 144.605 79.2 144.605C77.065 144.605 75.0175 143.757 73.5078 142.247C71.9981 140.738 71.15 138.69 71.15 136.556C71.15 134.421 71.9981 132.373 73.5078 130.864C75.0175 129.354 77.065 128.506 79.2 128.506C81.335 128.506 83.3825 129.354 84.8922 130.864C86.4019 132.373 87.25 134.421 87.25 136.556ZM103.35 168.753C105.485 168.753 107.533 167.905 109.042 166.395C110.552 164.886 111.4 162.839 111.4 160.704C111.4 158.569 110.552 156.521 109.042 155.012C107.533 153.502 105.485 152.654 103.35 152.654C101.215 152.654 99.1675 153.502 97.6578 155.012C96.1481 156.521 95.3 158.569 95.3 160.704C95.3 162.839 96.1481 164.886 97.6578 166.395C99.1675 167.905 101.215 168.753 103.35 168.753ZM159.7 160.704C159.7 162.839 158.852 164.886 157.342 166.395C155.833 167.905 153.785 168.753 151.65 168.753C149.515 168.753 147.467 167.905 145.958 166.395C144.448 164.886 143.6 162.839 143.6 160.704C143.6 158.569 144.448 156.521 145.958 155.012C147.467 153.502 149.515 152.654 151.65 152.654C153.785 152.654 155.833 153.502 157.342 155.012C158.852 156.521 159.7 158.569 159.7 160.704ZM175.8 168.753C177.935 168.753 179.983 167.905 181.492 166.395C183.002 164.886 183.85 162.839 183.85 160.704C183.85 158.569 183.002 156.521 181.492 155.012C179.983 153.502 177.935 152.654 175.8 152.654C173.665 152.654 171.617 153.502 170.108 155.012C168.598 156.521 167.75 158.569 167.75 160.704C167.75 162.839 168.598 164.886 170.108 166.395C171.617 167.905 173.665 168.753 175.8 168.753ZM183.85 136.556C183.85 138.69 183.002 140.738 181.492 142.247C179.983 143.757 177.935 144.605 175.8 144.605C173.665 144.605 171.617 143.757 170.108 142.247C168.598 140.738 167.75 138.69 167.75 136.556C167.75 134.421 168.598 132.373 170.108 130.864C171.617 129.354 173.665 128.506 175.8 128.506C177.935 128.506 179.983 129.354 181.492 130.864C183.002 132.373 183.85 134.421 183.85 136.556ZM127.5 168.753C129.635 168.753 131.683 167.905 133.192 166.395C134.702 164.886 135.55 162.839 135.55 160.704C135.55 158.569 134.702 156.521 133.192 155.012C131.683 153.502 129.635 152.654 127.5 152.654C125.365 152.654 123.317 153.502 121.808 155.012C120.298 156.521 119.45 158.569 119.45 160.704C119.45 162.839 120.298 164.886 121.808 166.395C123.317 167.905 125.365 168.753 127.5 168.753Z" fill="white"/>
<path fill-rule="evenodd" clip-rule="evenodd" d="M95.3 58.0741C94.7663 58.0741 94.2544 58.2861 93.8769 58.6635C93.4995 59.0409 93.2875 59.5527 93.2875 60.0864V109.934C93.2875 110.277 93.3751 110.614 93.5421 110.914C93.709 111.213 93.9498 111.465 94.2414 111.646L127.5 132.223L160.759 111.647C161.05 111.466 161.291 111.214 161.458 110.914C161.625 110.615 161.713 110.277 161.713 109.934V60.0864C161.713 59.5527 161.5 59.0409 161.123 58.6635C160.746 58.2861 160.234 58.0741 159.7 58.0741H95.3ZM81.2125 60.0864C81.2125 52.3067 87.5197 46 95.3 46H159.7C167.48 46 173.788 52.3067 173.788 60.0864V109.934C173.788 112.334 173.174 114.695 172.006 116.791C170.838 118.888 169.153 120.651 167.112 121.914L132.795 143.146C131.204 144.13 129.371 144.652 127.5 144.652C125.629 144.652 123.796 144.13 122.205 143.146L87.888 121.914C85.8468 120.651 84.1622 118.888 82.9939 116.791C81.8256 114.695 81.2124 112.334 81.2125 109.934V60.0864ZM63.1 120.457C62.0325 120.457 61.0087 120.881 60.2539 121.636C59.4991 122.39 59.075 123.414 59.075 124.481V192.901C59.075 193.969 59.4991 194.992 60.2539 195.747C61.0087 196.502 62.0325 196.926 63.1 196.926H191.9C192.967 196.926 193.991 196.502 194.746 195.747C195.501 194.992 195.925 193.969 195.925 192.901V124.481C195.925 123.414 195.501 122.39 194.746 121.636C193.991 120.881 192.967 120.457 191.9 120.457H187.875C186.274 120.457 184.738 119.821 183.606 118.689C182.474 117.556 181.838 116.021 181.838 114.42C181.838 112.819 182.474 111.283 183.606 110.151C184.738 109.019 186.274 108.383 187.875 108.383H191.9C200.792 108.383 208 115.59 208 124.481V192.901C208 201.793 200.792 209 191.9 209H63.1C54.2078 209 47 201.793 47 192.901V124.481C47 115.59 54.2078 108.383 63.1 108.383H67.125C68.7262 108.383 70.2619 109.019 71.3942 110.151C72.5264 111.283 73.1625 112.819 73.1625 114.42C73.1625 116.021 72.5264 117.556 71.3942 118.689C70.2619 119.821 68.7262 120.457 67.125 120.457H63.1ZM112.406 89.2654C112.406 80.9303 119.164 74.1728 127.5 74.1728C131.669 74.1728 135.437 75.8582 138.173 78.593C138.547 78.9667 138.991 79.2631 139.479 79.4654C139.967 79.6676 140.49 79.7718 141.019 79.7718C141.547 79.7718 142.071 79.6676 142.559 79.4654C143.047 79.2631 143.491 78.9667 143.865 78.593C144.239 78.2194 144.535 77.7757 144.738 77.2874C144.94 76.7991 145.044 76.2756 145.044 75.747C145.044 75.2184 144.94 74.6949 144.738 74.2066C144.535 73.7183 144.239 73.2746 143.865 72.901C141.718 70.7495 139.167 69.0432 136.358 67.8801C133.55 66.717 130.54 66.12 127.5 66.1235C114.718 66.1235 104.356 76.484 104.356 89.2654C104.356 102.047 114.718 112.407 127.5 112.407C140.282 112.407 150.644 102.047 150.644 89.2654C150.644 88.198 150.22 87.1743 149.465 86.4195C148.71 85.6648 147.686 85.2407 146.619 85.2407H127.5C126.433 85.2407 125.409 85.6648 124.654 86.4195C123.899 87.1743 123.475 88.198 123.475 89.2654C123.475 90.3328 123.899 91.3565 124.654 92.1113C125.409 92.8661 126.433 93.2901 127.5 93.2901H142.051C140.289 99.6713 134.442 104.358 127.5 104.358C119.164 104.358 112.406 97.6006 112.406 89.2654ZM87.25 182.84C87.25 181.238 87.8861 179.703 89.0183 178.571C90.1506 177.439 91.6863 176.802 93.2875 176.802H161.713C163.314 176.802 164.849 177.439 165.982 178.571C167.114 179.703 167.75 181.238 167.75 182.84C167.75 184.441 167.114 185.976 165.982 187.108C164.849 188.241 163.314 188.877 161.713 188.877H93.2875C91.6863 188.877 90.1506 188.241 89.0183 187.108C87.8861 185.976 87.25 184.441 87.25 182.84ZM79.2 168.753C81.335 168.753 83.3825 167.905 84.8922 166.395C86.4019 164.886 87.25 162.839 87.25 160.704C87.25 158.569 86.4019 156.521 84.8922 155.012C83.3825 153.502 81.335 152.654 79.2 152.654C77.065 152.654 75.0175 153.502 73.5078 155.012C71.9981 156.521 71.15 158.569 71.15 160.704C71.15 162.839 71.9981 164.886 73.5078 166.395C75.0175 167.905 77.065 168.753 79.2 168.753ZM87.25 136.556C87.25 138.69 86.4019 140.738 84.8922 142.247C83.3825 143.757 81.335 144.605 79.2 144.605C77.065 144.605 75.0175 143.757 73.5078 142.247C71.9981 140.738 71.15 138.69 71.15 136.556C71.15 134.421 71.9981 132.373 73.5078 130.864C75.0175 129.354 77.065 128.506 79.2 128.506C81.335 128.506 83.3825 129.354 84.8922 130.864C86.4019 132.373 87.25 134.421 87.25 136.556ZM103.35 168.753C105.485 168.753 107.533 167.905 109.042 166.395C110.552 164.886 111.4 162.839 111.4 160.704C111.4 158.569 110.552 156.521 109.042 155.012C107.533 153.502 105.485 152.654 103.35 152.654C101.215 152.654 99.1675 153.502 97.6578 155.012C96.1481 156.521 95.3 158.569 95.3 160.704C95.3 162.839 96.1481 164.886 97.6578 166.395C99.1675 167.905 101.215 168.753 103.35 168.753ZM159.7 160.704C159.7 162.839 158.852 164.886 157.342 166.395C155.833 167.905 153.785 168.753 151.65 168.753C149.515 168.753 147.467 167.905 145.958 166.395C144.448 164.886 143.6 162.839 143.6 160.704C143.6 158.569 144.448 156.521 145.958 155.012C147.467 153.502 149.515 152.654 151.65 152.654C153.785 152.654 155.833 153.502 157.342 155.012C158.852 156.521 159.7 158.569 159.7 160.704ZM175.8 168.753C177.935 168.753 179.983 167.905 181.492 166.395C183.002 164.886 183.85 162.839 183.85 160.704C183.85 158.569 183.002 156.521 181.492 155.012C179.983 153.502 177.935 152.654 175.8 152.654C173.665 152.654 171.617 153.502 170.108 155.012C168.598 156.521 167.75 158.569 167.75 160.704C167.75 162.839 168.598 164.886 170.108 166.395C171.617 167.905 173.665 168.753 175.8 168.753ZM183.85 136.556C183.85 138.69 183.002 140.738 181.492 142.247C179.983 143.757 177.935 144.605 175.8 144.605C173.665 144.605 171.617 143.757 170.108 142.247C168.598 140.738 167.75 138.69 167.75 136.556C167.75 134.421 168.598 132.373 170.108 130.864C171.617 129.354 173.665 128.506 175.8 128.506C177.935 128.506 179.983 129.354 181.492 130.864C183.002 132.373 183.85 134.421 183.85 136.556ZM127.5 168.753C129.635 168.753 131.683 167.905 133.192 166.395C134.702 164.886 135.55 162.839 135.55 160.704C135.55 158.569 134.702 156.521 133.192 155.012C131.683 153.502 129.635 152.654 127.5 152.654C125.365 152.654 123.317 153.502 121.808 155.012C120.298 156.521 119.45 158.569 119.45 160.704C119.45 162.839 120.298 164.886 121.808 166.395C123.317 167.905 125.365 168.753 127.5 168.753Z" stroke="white" stroke-width="2" mask="url(#path-2-outside-1_118_494)"/>
<defs>
<linearGradient id="paint0_linear_118_494" x1="128" y1="1" x2="128" y2="255" gradientUnits="userSpaceOnUse">
<stop stop-color="#4989F4"/>
<stop offset="1" stop-color="#2773F2"/>
</linearGradient>
</defs>
</svg>
