<svg width="256" height="256" viewBox="0 0 256 256" fill="none" xmlns="http://www.w3.org/2000/svg">
<path d="M106.429 254.324C77.8036 252.299 57.2862 246.329 40.0761 235.018C21.6571 222.911 8.93954 200.243 3.9843 170.687C1.69292 157.021 0.962957 146.366 1.00143 127.164C1.07014 93.0812 4.72734 71.9613 13.9373 52.4684C22.7757 33.762 33.8514 22.6792 52.4395 13.9416C72.1839 4.66056 93.5545 1 127.994 1C162.433 1 183.803 4.66056 203.548 13.9416C222.119 22.6715 233.122 33.6726 242.078 52.4684C251.216 71.6451 254.915 93.0336 254.999 127.164C255.1 168.687 249.55 193.658 235.416 215.277C222.216 235.466 198.18 248.266 165.151 252.695C147.932 255.004 125.031 255.639 106.429 254.324Z" fill="url(#paint0_linear_118_701)"/>
<path fill-rule="evenodd" clip-rule="evenodd" d="M128 57.8841C89.276 57.8841 57.8841 89.276 57.8841 128C57.8841 166.724 89.276 198.116 128 198.116C166.724 198.116 198.116 166.724 198.116 128C198.116 89.276 166.724 57.8841 128 57.8841ZM46 128C46 82.7127 82.7127 46 128 46C173.287 46 210 82.7127 210 128C210 173.287 173.287 210 128 210C82.7127 210 46 173.287 46 128Z" fill="white"/>
<path d="M158.617 123.684C161.919 125.614 161.919 130.386 158.617 132.316L108.523 161.602C105.19 163.55 101 161.146 101 157.285V98.7148C101 94.8537 105.19 92.4497 108.523 94.3983L158.617 123.684Z" fill="white"/>
<defs>
<linearGradient id="paint0_linear_118_701" x1="128" y1="1" x2="128" y2="255" gradientUnits="userSpaceOnUse">
<stop stop-color="#D00000"/>
<stop offset="1" stop-color="#FF0000"/>
</linearGradient>
</defs>
</svg>
