<svg width="256" height="256" viewBox="0 0 256 256" fill="none" xmlns="http://www.w3.org/2000/svg">
<path d="M106.429 254.324C77.8036 252.299 57.2862 246.329 40.0761 235.018C21.6571 222.911 8.93954 200.243 3.9843 170.687C1.69292 157.021 0.962957 146.366 1.00143 127.164C1.07014 93.0812 4.72734 71.9613 13.9373 52.4684C22.7757 33.762 33.8514 22.6792 52.4395 13.9416C72.1839 4.66056 93.5545 1 127.994 1C162.433 1 183.803 4.66056 203.548 13.9416C222.119 22.6715 233.122 33.6726 242.078 52.4684C251.216 71.6451 254.915 93.0336 254.999 127.164C255.1 168.687 249.55 193.658 235.416 215.277C222.216 235.466 198.18 248.266 165.151 252.695C147.932 255.004 125.031 255.639 106.429 254.324Z" fill="url(#paint0_linear_118_636)"/>
<path d="M211.467 114.01C209.429 111.954 207.002 110.321 204.325 109.204C201.649 108.087 198.777 107.508 195.875 107.502C191.6 107.502 187.317 109.084 184.962 110.644C180.08 113.883 176.067 117.391 168.845 126.676V133.348C174.972 125.407 180.77 119.145 185.173 115.704C188.067 113.391 192.17 111.965 195.875 111.965C205.438 111.965 213.515 120.003 213.515 129.519V133.535C213.515 138.237 211.663 142.662 208.28 145.984C204.989 149.257 200.528 151.096 195.875 151.096C188.015 151.096 181.1 145.73 179.225 138.401L176.06 142.207C178.363 149.894 186.688 155.559 195.875 155.559C198.777 155.553 201.649 154.974 204.325 153.857C207.002 152.74 209.429 151.107 211.467 149.051C215.682 144.857 218 139.349 218 133.535V129.519C218 123.713 215.675 118.197 211.467 114.01ZM115.468 111.965C118.513 111.965 121.145 112.614 123.522 113.95C124.481 112.772 125.51 111.653 126.605 110.599C124.092 108.689 119.833 107.502 115.468 107.502C109.243 107.502 103.588 109.741 99.5525 113.794C95.5475 117.824 93.3275 123.399 93.3275 129.519V155.559H97.8125V129.512C97.8125 119.175 105.073 111.965 115.468 111.965ZM158.052 155.544V129.512C158.052 121.511 151.753 115.234 143.705 115.234C139.955 115.234 136.385 116.749 133.632 119.488C132.291 120.796 131.223 122.355 130.49 124.075C129.756 125.796 129.371 127.643 129.357 129.512V133.527C129.357 141.267 135.935 147.805 143.705 147.805C145.842 147.805 148.737 147.282 150.515 145.834V141.125C148.775 142.521 146.24 143.349 143.705 143.349C142.405 143.364 141.115 143.12 139.911 142.632C138.707 142.143 137.614 141.42 136.695 140.505C135.776 139.59 135.05 138.501 134.56 137.303C134.07 136.104 133.826 134.821 133.842 133.527V129.512C133.828 128.219 134.074 126.937 134.565 125.741C135.055 124.544 135.782 123.457 136.7 122.543C137.619 121.63 138.712 120.908 139.915 120.421C141.118 119.933 142.406 119.69 143.705 119.705C145.004 119.689 146.294 119.931 147.498 120.418C148.701 120.905 149.795 121.627 150.715 122.541C151.634 123.454 152.361 124.542 152.852 125.739C153.343 126.936 153.589 128.219 153.575 129.512V155.552L158.052 155.544ZM38 126.944V128.385C38 136.117 40.9475 143.334 46.3025 148.7C48.9414 151.348 52.084 153.445 55.5468 154.87C59.0095 156.295 62.7229 157.019 66.47 157C72.62 157 78.08 155.611 82.685 152.887C86.48 150.633 88.16 148.357 88.31 148.148V124.138H65.375V128.594H83.825V146.76L83.81 146.775C81.65 148.924 76.52 152.522 66.47 152.522C63.2956 152.549 60.1477 151.944 57.2121 150.742C54.2765 149.539 51.6126 147.764 49.3775 145.521C44.8959 140.935 42.416 134.774 42.4775 128.377V126.937C42.4775 120.742 45.29 114.577 50.1725 110.002C55.13 105.361 61.6813 102.78 68.4875 102.785C74.84 102.785 79.2725 103.748 82.835 105.89V100.889C79.13 99.3221 74.6975 98.613 68.4875 98.613C51.965 98.613 38 111.592 38 126.944ZM115.468 119.712C117.173 119.712 118.6 119.991 119.75 120.548C120.312 119.16 120.882 118.018 121.715 116.63C120.5 115.764 117.598 115.242 115.468 115.242C107.293 115.242 101.12 121.384 101.12 129.519V155.559H105.605V129.512C105.605 123.735 109.655 119.712 115.468 119.712ZM82.835 114.465V109.189C78.7775 107.024 74.3525 106.062 68.4875 106.062C62.495 106.062 56.825 108.248 52.4975 112.211C48.17 116.182 45.785 121.414 45.785 126.929V128.37C45.785 139.878 55.0625 149.238 66.47 149.238C75.7475 149.238 79.5575 146.215 80.525 145.26V131.87H65.375V136.333H76.325V143.043L76.2875 143.05C74.885 143.61 71.9525 144.774 66.4625 144.774C64.3307 144.784 62.2184 144.369 60.2503 143.554C58.2821 142.739 56.4978 141.54 55.0025 140.028C53.4814 138.49 52.2798 136.669 51.4665 134.668C50.6531 132.668 50.244 130.528 50.2625 128.37V126.929C50.2625 118.033 58.61 110.525 68.4875 110.525C75.3125 110.525 79.3625 111.622 82.835 114.465ZM188.622 122.869C190.648 120.854 193.295 119.705 195.875 119.705C197.174 119.69 198.462 119.933 199.665 120.421C200.868 120.908 201.961 121.63 202.88 122.543C203.798 123.457 204.525 124.544 205.015 125.741C205.506 126.937 205.752 128.219 205.738 129.512V133.527C205.738 139.035 201.402 143.349 195.875 143.349C193.197 143.349 190.61 141.886 188.585 139.244C186.767 136.809 185.68 133.91 185.45 130.885L181.82 135.296C182.533 138.669 184.295 141.901 186.807 144.177C189.387 146.513 192.612 147.805 195.875 147.805C199.679 147.801 203.326 146.295 206.016 143.618C208.706 140.942 210.219 137.313 210.222 133.527V129.512C210.222 125.787 208.708 122.22 205.947 119.488C204.633 118.154 203.067 117.091 201.338 116.361C199.609 115.631 197.753 115.248 195.875 115.234C193.505 115.234 189.74 116.085 185.247 120.1L185.232 120.115C184.033 121.309 181.212 124.116 179.495 126.116C176.615 129.251 172.423 133.982 168.845 138.714V145.678C172.812 140.602 175.092 137.766 178.82 133.482C182.157 129.609 186.29 124.899 188.622 122.869ZM121.58 133.527C121.58 139.341 123.905 144.849 128.12 149.051C130.159 151.103 132.586 152.733 135.26 153.848C137.935 154.962 140.805 155.539 143.705 155.544C146.18 155.544 148.722 155.022 150.515 154.141V149.685C148.353 150.572 146.043 151.048 143.705 151.089C134.15 151.089 126.065 143.05 126.065 133.527V129.512C126.065 119.996 134.15 111.958 143.705 111.958C146.026 111.945 148.327 112.39 150.474 113.268C152.621 114.146 154.571 115.439 156.212 117.073C157.854 118.706 159.153 120.647 160.036 122.784C160.918 124.92 161.365 127.209 161.353 129.519V155.552H165.838V128.653C165.558 122.973 163.102 117.616 158.975 113.682C154.89 109.716 149.412 107.493 143.705 107.487C137.87 107.487 132.335 109.801 128.12 114.003C126.055 116.03 124.414 118.445 123.292 121.106C122.169 123.768 121.587 126.625 121.58 129.512V133.527ZM173.465 116.264C174.815 114.568 176.311 112.993 177.935 111.555V88H173.465V116.264ZM181.243 109.726V88H185.72V106.674C184.128 107.541 182.628 108.566 181.243 109.734" fill="white"/>
<defs>
<linearGradient id="paint0_linear_118_636" x1="128" y1="1" x2="128" y2="255" gradientUnits="userSpaceOnUse">
<stop stop-color="#30B053"/>
<stop offset="1" stop-color="#289245"/>
</linearGradient>
</defs>
</svg>
