<svg width="256" height="256" viewBox="0 0 256 256" fill="none" xmlns="http://www.w3.org/2000/svg">
<path d="M106.429 254.324C77.8036 252.299 57.2862 246.329 40.0761 235.018C21.6571 222.911 8.93954 200.243 3.9843 170.687C1.69292 157.021 0.962957 146.366 1.00143 127.164C1.07014 93.0812 4.72734 71.9613 13.9373 52.4684C22.7757 33.762 33.8514 22.6792 52.4395 13.9416C72.1839 4.66056 93.5545 1 127.994 1C162.433 1 183.803 4.66056 203.548 13.9416C222.119 22.6715 233.122 33.6726 242.078 52.4684C251.216 71.6451 254.915 93.0336 254.999 127.164C255.1 168.687 249.55 193.658 235.416 215.277C222.216 235.466 198.18 248.266 165.151 252.695C147.932 255.004 125.031 255.639 106.429 254.324Z" fill="url(#paint0_linear_108_194)"/>
<path d="M69.2369 112.378H86.8465V119.325L87.2279 118.749C88.3295 117.083 89.689 115.731 91.4306 114.567C93.7019 113.05 96.1498 112.194 99.1492 111.869C100.692 111.702 102.707 111.722 104.311 111.921C109.559 112.572 114.488 115.487 117.732 119.859C119.617 122.399 121.12 125.584 121.97 128.836C123.59 135.041 123.321 142.889 121.292 148.597C119.138 154.656 115.475 159 110.415 161.497C107.648 162.863 104.862 163.49 101.561 163.49C99.3599 163.49 97.6639 163.271 95.8862 162.758C93.2555 161.998 91.1002 160.721 89.1321 158.757C88.2727 157.899 87.781 157.312 87.2082 156.46L86.8707 155.958L86.8462 187H69.2367L69.2369 112.378ZM97.8741 147.901C99.5889 147.535 101.017 146.741 102.275 145.454C103.825 143.869 104.679 141.982 105.02 139.391C105.131 138.546 105.129 136.591 105.017 135.729C104.775 133.866 104.183 132.225 103.311 131C102.697 130.138 101.643 129.122 100.765 128.545C98.233 126.881 94.6971 126.708 91.9344 128.111C89.5844 129.305 87.963 131.368 87.2783 134.037C86.6499 136.487 86.7293 139.577 87.4799 141.882C88.476 144.942 90.9433 147.219 93.964 147.868C94.757 148.038 95.0223 148.059 96.1821 148.042C97.1491 148.027 97.3666 148.009 97.8741 147.901ZM40 126.73H57.1755V163.775H40V126.73ZM152.461 163.574C144.746 163.156 138.123 159.991 133.81 154.659C130.844 150.993 129.072 146.703 128.463 141.713C128.288 140.279 128.266 139.826 128.266 137.64C128.267 135.272 128.306 134.635 128.559 132.923C129.386 127.325 131.686 122.693 135.51 118.923C135.957 118.482 136.518 117.956 136.757 117.754C141.585 113.671 147.876 111.613 155.066 111.764C156.9 111.802 158.15 111.916 159.746 112.189C164.456 112.994 168.762 114.982 172.196 117.939C175.311 120.621 177.868 124.51 179.204 128.597C180.226 131.725 180.686 135.254 180.54 138.85C180.364 143.156 179.527 146.64 177.861 149.996C175.49 154.773 172.051 158.272 167.393 160.648C163.025 162.876 157.944 163.871 152.461 163.574ZM155.872 148.116C156.925 147.921 157.902 147.519 158.82 146.902C159.303 146.577 160.234 145.709 160.608 145.234C161.918 143.573 162.604 141.535 162.79 138.755C163.013 135.408 162.282 132.314 160.814 130.393C159.085 128.131 156.806 127.028 154.077 127.132C152.061 127.21 150.396 127.915 148.973 129.295C147.97 130.268 147.336 131.242 146.845 132.561C145.925 135.036 145.794 138.884 146.531 141.805C146.838 143.02 147.264 144.001 147.894 144.937C148.281 145.514 149.305 146.543 149.88 146.933C150.912 147.634 152.031 148.048 153.329 148.208C153.905 148.279 155.25 148.23 155.872 148.116ZM206.849 162.123C196.837 161.627 191.195 156.758 189.899 147.497C189.631 145.58 189.642 146.04 189.623 135.082L189.606 124.936H183.627V111.748H189.609L189.634 101.158L198.149 100.079C202.833 99.4849 206.724 98.9984 206.797 98.9973L206.93 98.9954V111.748H215.904V124.936H206.93L206.93 134.04C206.93 139.472 206.95 143.408 206.978 143.799C207.113 145.68 207.738 146.548 209.232 146.929C209.922 147.105 210.678 147.143 213.45 147.143H216V162.174L211.791 162.167C209.475 162.163 207.252 162.143 206.849 162.123Z" fill="white"/>
<path d="M69.2369 70V82.4128C69.2369 89.2398 69.2461 94.8255 69.2571 94.8255C69.2817 94.8255 92.7747 70.5074 93.0382 70.2093L93.2232 70H69.2369Z" fill="#29AEE6"/>
<path d="M40 99.8197V112.232C40 119.059 40.0092 124.645 40.0203 124.645C40.0448 124.645 63.5379 100.327 63.8013 100.029L63.9863 99.8197H40Z" fill="#BF3333"/>
<defs>
<linearGradient id="paint0_linear_108_194" x1="128" y1="1" x2="128" y2="255" gradientUnits="userSpaceOnUse">
<stop stop-color="#293475"/>
<stop offset="1" stop-color="#192049"/>
</linearGradient>
</defs>
</svg>
