<svg width="256" height="256" viewBox="0 0 256 256" fill="none" xmlns="http://www.w3.org/2000/svg">
<path d="M106.429 254.324C77.8036 252.299 57.2862 246.329 40.0761 235.018C21.6571 222.911 8.93954 200.243 3.9843 170.687C1.69292 157.021 0.962957 146.366 1.00143 127.164C1.07014 93.0812 4.72734 71.9613 13.9373 52.4684C22.7757 33.762 33.8514 22.6792 52.4395 13.9416C72.1839 4.66056 93.5545 1 127.994 1C162.433 1 183.803 4.66056 203.548 13.9416C222.119 22.6715 233.122 33.6726 242.078 52.4684C251.216 71.6451 254.915 93.0336 254.999 127.164C255.1 168.687 249.55 193.658 235.416 215.277C222.216 235.466 198.18 248.266 165.151 252.695C147.932 255.004 125.031 255.639 106.429 254.324Z" fill="url(#paint0_linear_118_23)"/>
<path d="M42.8145 186.456C41.9756 186.23 41.3008 185.522 41.1053 184.663C40.9961 184.183 40.9553 133.935 41.0635 133.144C41.1538 132.485 41.631 131.752 42.1982 131.402L42.6722 131.109L50.5291 131.082C59.2575 131.053 58.8398 131.024 59.5309 131.696C60.2668 132.411 60.2105 131.711 60.2642 140.812C60.3105 148.665 60.3193 148.98 60.4958 149.175C60.6791 149.378 60.6865 149.378 67.6363 149.378C74.1206 149.378 74.6071 149.367 74.7961 149.209L74.9988 149.041L75.0234 140.943L75.048 132.845L75.3345 132.327C75.4921 132.042 75.7544 131.707 75.9176 131.583C76.6291 131.039 76.2629 131.061 84.742 131.061C92.472 131.061 92.569 131.063 92.9787 131.262C93.4977 131.513 94.0966 132.185 94.2453 132.681C94.3308 132.967 94.3585 139.35 94.3585 158.801C94.3585 187.542 94.4238 185.016 93.6608 185.795C92.8891 186.583 93.3744 186.543 84.631 186.543C77.6799 186.543 76.8424 186.527 76.5339 186.386C76.0154 186.15 75.5206 185.671 75.2713 185.165L75.048 184.711L74.9999 175.139C74.9578 166.771 74.9336 165.556 74.8073 165.476C74.7197 165.421 71.8886 165.384 67.6198 165.383C61.1855 165.382 60.5653 165.395 60.4445 165.541C60.3352 165.673 60.304 167.359 60.2642 175.31L60.2161 184.919L59.9237 185.394C59.5949 185.927 58.8598 186.431 58.2675 186.529C58.0679 186.562 54.6107 186.586 50.5849 186.583C45.0153 186.579 43.1575 186.549 42.8145 186.456ZM165.038 186.523C164.548 186.447 163.772 185.89 163.466 185.393L163.173 184.919L163.147 158.93C163.118 130.042 163.061 132.515 163.771 131.783C163.963 131.585 164.298 131.342 164.514 131.244C164.891 131.072 165.553 131.065 181.534 131.063C192.405 131.062 198.507 131.096 199.159 131.162C201.609 131.409 203.961 132.069 205.883 133.049C207.363 133.805 208.456 134.613 209.599 135.798C211.479 137.747 212.797 140.324 213.366 143.163C213.625 144.455 213.601 147.154 213.319 148.48C212.608 151.817 210.697 154.812 208.215 156.478L207.62 156.879L207.933 156.988C208.514 157.19 210.101 158.147 210.959 158.811C214.309 161.406 216 165.197 216 170.114C216 174.854 214.656 178.504 211.9 181.251C208.652 184.488 203.819 186.168 196.808 186.496C194.972 186.581 165.582 186.607 165.038 186.523ZM192.225 172.127C193.407 172.008 194.513 171.726 195.067 171.403C196.084 170.808 196.661 169.722 196.679 168.37C196.703 166.52 195.851 165.496 193.866 164.988C192.774 164.709 190.952 164.612 186.739 164.611C182.979 164.61 182.664 164.634 182.461 164.938C182.422 164.996 182.39 166.593 182.389 168.485V171.926L182.603 172.076C182.789 172.207 183.372 172.226 187.023 172.226C189.336 172.226 191.678 172.182 192.226 172.127H192.225ZM191.874 151.406C193.677 150.957 194.514 150.005 194.599 148.308C194.689 146.525 194.052 145.568 192.412 145.018C191.801 144.814 191.612 144.805 187.265 144.772C183.107 144.741 182.739 144.752 182.57 144.904C182.398 145.06 182.387 145.248 182.387 148.183V151.295L182.604 151.45C182.797 151.589 183.283 151.601 187.107 151.566C190.085 151.539 191.539 151.49 191.874 151.406ZM125.371 173.898C119.618 173.587 115.327 172.734 111.622 171.163C105.384 168.519 101.867 163.69 101.203 156.857C101.137 156.179 101.101 151.727 101.101 144.372L101.102 132.941L101.33 132.459C101.604 131.88 101.963 131.525 102.545 131.262C102.97 131.069 103.138 131.065 110.732 131.065C118.088 131.065 118.505 131.074 118.88 131.245C119.367 131.466 119.881 131.97 120.128 132.468C120.307 132.83 120.317 133.196 120.368 141.907C120.428 152.041 120.4 151.62 121.125 153.09C122.237 155.341 124.426 156.249 128.742 156.249C131.644 156.249 133.388 155.878 134.734 154.975C135.52 154.447 136.01 153.861 136.445 152.931C137.075 151.584 137.056 151.888 137.115 141.907C137.167 133.196 137.176 132.83 137.356 132.468C137.603 131.97 138.117 131.466 138.604 131.245C138.979 131.074 139.397 131.065 146.752 131.064L154.505 131.063L154.992 131.29C155.562 131.555 156.113 132.157 156.272 132.686C156.354 132.961 156.383 136.102 156.383 144.522C156.383 156.775 156.371 157.162 155.894 159.375C153.772 169.224 144.68 174.051 128.453 173.943C127.049 173.934 125.662 173.913 125.371 173.898ZM70.8159 123.591C70.0225 123.306 69.3937 122.591 69.2271 121.784C69.1526 121.423 69.1295 113.859 69.1476 95.6799C69.1722 70.9598 69.1792 70.07 69.3523 69.6736C69.5768 69.1597 70.3322 68.4698 70.8358 68.3188C71.1257 68.2318 76.0482 68.2044 91.2396 68.2051L111.261 68.206L111.748 68.433C112.318 68.6984 112.869 69.3005 113.028 69.8294C113.186 70.3574 113.186 82.0543 113.028 82.5823C112.869 83.1113 112.318 83.7133 111.748 83.9787L111.261 84.2057L100.076 84.2066C89.2067 84.2076 88.8837 84.2128 88.6627 84.3919L88.4353 84.5762V87.9073C88.4353 90.9762 88.4489 91.2519 88.6073 91.4105C88.7688 91.5722 89.2652 91.5856 96.7938 91.6309C105.682 91.6843 105.038 91.6343 105.728 92.3249C106.421 93.0193 106.393 92.7095 106.395 99.6117L106.398 105.809L106.16 106.278C106.029 106.536 105.761 106.88 105.564 107.043C104.824 107.654 105.117 107.634 96.5636 107.634H88.7864L88.5868 107.888C88.3891 108.14 88.3872 108.208 88.3872 115.011C88.3872 122.469 88.4058 122.197 87.8509 122.857C87.7109 123.023 87.3951 123.278 87.1491 123.423L86.7018 123.686L78.9487 123.707C72.4646 123.725 71.1334 123.705 70.8159 123.591ZM164.726 123.594C164.205 123.406 163.697 122.972 163.414 122.472L163.173 122.047L163.125 103.311L163.077 84.576L162.849 84.3917C162.631 84.215 162.388 84.2074 156.878 84.2053C151.308 84.2033 151.121 84.1973 150.701 84.0068C150.119 83.7431 149.759 83.3889 149.486 82.8096L149.258 82.3275V76.2057C149.258 70.2545 149.265 70.0719 149.455 69.6501C149.719 69.0675 150.073 68.7077 150.651 68.4338L151.133 68.2059H172.707H194.281L194.763 68.4307C195.288 68.6756 195.818 69.2127 196.026 69.7123C196.134 69.9705 196.158 71.1832 196.157 76.2267C196.153 82.0293 196.143 82.4487 195.978 82.8133C195.755 83.3038 195.035 83.9458 194.54 84.0941C194.269 84.1754 192.556 84.2075 188.477 84.2075C183.205 84.2075 182.778 84.2197 182.589 84.3762L182.385 84.5449L182.361 103.199C182.339 120.93 182.329 121.873 182.164 122.24C181.946 122.725 181.488 123.208 180.99 123.477C180.605 123.686 180.596 123.686 172.851 123.707C166.429 123.724 165.034 123.705 164.725 123.594H164.726Z" fill="#F2F7F7"/>
<path d="M103.568 181.979C109.224 185.34 116.327 187.369 124.408 187.932C126.034 188.046 131.27 188.05 132.883 187.939C141.162 187.372 148.194 185.379 153.916 181.979C155.871 180.817 156.335 180.229 156.326 178.927C156.319 177.863 155.759 176.972 154.792 176.488C154.044 176.113 153.699 176.126 151.76 176.601C146.758 177.827 142.022 178.517 135.339 178.992C134.275 179.068 131.727 179.116 128.742 179.116C125.756 179.116 123.209 179.068 122.144 178.992C115.461 178.517 110.726 177.827 105.723 176.601C103.756 176.119 103.438 176.111 102.644 176.517C101.704 176.998 101.164 177.874 101.157 178.927C101.149 180.229 101.613 180.817 103.568 181.979Z" fill="#FFD100"/>
<path d="M120.844 123.171C120.844 123.959 121.49 124.69 122.346 124.871C123.014 125.012 123.583 124.834 124.033 124.345C124.305 124.049 146.066 93.2723 146.366 92.7602C146.549 92.446 146.601 92.1823 146.574 91.7034C146.554 91.3372 145.951 90.6941 145.515 90.5728C145.297 90.5124 143.218 90.4748 140.076 90.4745C135.276 90.474 134.992 90.4644 135.04 90.3053C135.364 89.2318 140.313 69.1241 140.317 68.8662C140.339 67.2455 138.37 66.3846 137.218 67.5118C136.9 67.8236 114.98 98.7722 114.695 99.3129C114.388 99.8946 114.675 100.805 115.281 101.176C115.584 101.361 115.776 101.367 120.868 101.368C124.344 101.368 126.141 101.401 126.141 101.465C126.141 101.518 124.949 106.334 123.493 112.165C122.036 117.997 120.844 122.95 120.844 123.171Z" fill="#FFD100"/>
<defs>
<linearGradient id="paint0_linear_118_23" x1="128" y1="1" x2="128" y2="255" gradientUnits="userSpaceOnUse">
<stop stop-color="#19D8E2"/>
<stop offset="1" stop-color="#1AB0B8"/>
</linearGradient>
</defs>
</svg>
