<svg width="256" height="256" viewBox="0 0 256 256" fill="none" xmlns="http://www.w3.org/2000/svg">
<path d="M106.429 254.324C77.8036 252.299 57.2862 246.329 40.0761 235.018C21.6571 222.911 8.93954 200.243 3.9843 170.687C1.69292 157.021 0.962957 146.366 1.00143 127.164C1.07014 93.0812 4.72734 71.9613 13.9373 52.4684C22.7757 33.762 33.8514 22.6792 52.4395 13.9416C72.1839 4.66056 93.5545 1 127.994 1C162.433 1 183.803 4.66056 203.548 13.9416C222.119 22.6715 233.122 33.6726 242.078 52.4684C251.216 71.6451 254.915 93.0336 254.999 127.164C255.1 168.687 249.55 193.658 235.416 215.277C222.216 235.466 198.18 248.266 165.151 252.695C147.932 255.004 125.031 255.639 106.429 254.324Z" fill="url(#paint0_linear_118_461)"/>
<path d="M69.1531 160.346L63.2432 160.078L62.899 157.242C62.7096 155.681 62.6855 152.819 62.8454 150.88L63.1361 147.355L60.8257 149.392C59.555 150.512 57.7175 151.837 56.7423 152.336C54.9284 153.263 54.4805 154.436 55.5368 155.492C55.8488 155.804 56.3875 156.06 56.7339 156.06C57.0803 156.06 58.1373 156.383 59.0828 156.778L60.8019 157.496L59.2121 158.669C56.9456 160.341 53.3608 160.292 49.874 158.542C48.4498 157.827 46.9652 156.759 46.575 156.169C45.3401 154.301 46.0621 151.379 49.0526 146.143C51.4886 141.878 51.8099 140.994 52.1953 137.497C52.9508 130.642 54.0441 128.854 57.4271 128.943C58.905 128.981 60.1153 129.536 62.8183 131.416C64.7353 132.748 66.4129 133.839 66.5464 133.839C66.6799 133.839 66.7891 133.321 66.7891 132.688C66.7891 129.243 68.9146 128.026 71.0191 130.266C73.312 132.707 74.4382 132.911 81.7836 132.213C85.455 131.864 88.6615 131.454 88.909 131.301C89.1672 131.141 88.6563 129.154 87.7107 126.639C84.1575 117.19 82.5908 107.638 83.7259 102.345C85.0413 96.2121 88.6596 89.7678 93.5129 84.9145C101.573 76.8544 111.372 74.3104 123.697 77.0779C135.481 79.7239 142.281 83.0002 153.545 91.4593C158.384 95.0931 171.188 107.646 178.441 115.868C183.87 122.021 184.163 122.271 186.773 122.966L189.477 123.687L189.411 125.571C189.374 126.608 189.268 128.189 189.174 129.084C188.927 131.455 190.285 132.049 195.151 131.694C198.763 131.431 199.083 131.491 202.271 133.04C208.316 135.976 210.371 139.733 209.946 147.07C209.445 155.729 204.415 160.315 195.418 160.315C192.118 160.315 191.512 160.176 190.273 159.133C188.698 157.808 186.777 157.636 184.986 158.66C183.131 159.72 181.997 159.512 181.107 157.948C180.558 156.983 179.935 156.532 179.149 156.532C178.514 156.532 177.873 156.213 177.723 155.823C177.573 155.433 177.125 155.114 176.727 155.114C176.329 155.114 176.003 154.93 176.003 154.704C176.003 154.479 175.152 153.731 174.112 153.043C172.994 152.303 172.221 151.419 172.221 150.881C172.221 150.381 173.074 148.985 174.118 147.779C175.161 146.574 175.894 145.393 175.747 145.155C175.6 144.917 174.435 145.252 173.157 145.899C171.879 146.547 170.646 147.077 170.417 147.077C170.188 147.077 169.686 146.277 169.302 145.299C168.64 143.614 168.263 143.375 162.166 140.767C158.625 139.253 155.343 138.094 154.873 138.191C153.577 138.461 154.007 140.313 156.038 143.206C157.007 144.587 158.006 146.014 158.258 146.376C158.585 146.848 158.385 147.385 157.548 148.276L156.382 149.518L157.926 150.897C159.248 152.078 159.857 152.277 162.151 152.277C165.258 152.277 170.699 153.511 171.785 154.461C172.196 154.82 172.887 155.114 173.322 155.114C175.442 155.114 172.827 158.238 170.356 158.655C169.129 158.863 168.575 159.174 168.727 159.571C169.227 160.875 156.356 161.207 151.604 160.013C148.918 159.339 148.267 158.944 146.542 156.941C144.851 154.977 144.312 154.642 142.847 154.642C141.333 154.641 140.831 154.295 138.559 151.686C131.936 144.079 129.676 139.955 129.685 135.493C129.688 133.688 130.03 131.908 130.626 130.596C131.14 129.462 131.561 128.37 131.561 128.169C131.561 127.707 126.412 125.592 126.084 125.92C125.951 126.053 126.313 129.431 126.887 133.428C127.555 138.072 127.947 143.194 127.974 147.622L128.015 154.55L126.572 156.369C125.779 157.369 124.077 158.719 122.79 159.369L120.45 160.551L97.7566 160.582C85.2751 160.599 72.4035 160.493 69.1531 160.346Z" fill="white"/>
<defs>
<linearGradient id="paint0_linear_118_461" x1="128" y1="1" x2="128" y2="255" gradientUnits="userSpaceOnUse">
<stop stop-color="#EB1C24"/>
<stop offset="1" stop-color="#C91219"/>
</linearGradient>
</defs>
</svg>
