<svg width="256" height="256" viewBox="0 0 256 256" fill="none" xmlns="http://www.w3.org/2000/svg">
<path d="M106.429 254.324C77.8036 252.299 57.2862 246.329 40.0761 235.018C21.6571 222.911 8.93954 200.243 3.9843 170.687C1.69292 157.021 0.962957 146.366 1.00143 127.164C1.07014 93.0812 4.72734 71.9613 13.9373 52.4684C22.7757 33.762 33.8514 22.6792 52.4395 13.9416C72.1839 4.66056 93.5545 1 127.994 1C162.433 1 183.803 4.66056 203.548 13.9416C222.119 22.6715 233.122 33.6726 242.078 52.4684C251.216 71.6451 254.915 93.0336 254.999 127.164C255.1 168.687 249.55 193.658 235.416 215.277C222.216 235.466 198.18 248.266 165.151 252.695C147.932 255.004 125.031 255.639 106.429 254.324Z" fill="url(#paint0_linear_118_462)"/>
<path d="M68.325 180.173C65.2283 178.829 63.9857 175.348 65.3941 171.961C67.2178 167.576 73.5013 167.286 76.0616 171.469C77.9562 174.563 77.2054 177.552 73.9909 179.709C71.9484 181.08 70.6592 181.186 68.325 180.173ZM87.4222 179.906C85.5409 178.734 84.0655 176.331 84.0686 174.445C84.0746 171.092 88.1505 167.857 91.5241 168.529C93.59 168.94 96.0931 171.363 96.4675 173.314C97.442 178.392 91.7025 182.575 87.4222 179.906ZM117.63 176.786C117.63 173.267 117.821 172.331 118.785 171.11C120.67 168.723 122.753 168.184 130.092 168.184C136.437 168.184 136.799 168.125 138.351 166.823C139.244 166.075 140.22 164.583 140.52 163.507C140.82 162.431 141.067 156.411 141.068 150.129C141.07 140.64 141.212 138.506 141.903 137.523C143.284 135.56 145.512 134.755 149.569 134.755H153.325V139.796V144.837H160.957H168.589L167.364 141.255C164.813 133.801 166.118 125.421 170.792 119.239C179.612 107.573 196.631 106.291 206.899 116.517C220.169 129.733 213.946 152.015 195.66 156.758C193.119 157.418 188.822 157.572 172.991 157.572H153.458L153.223 162.031C152.922 167.739 150.835 172.282 146.89 175.815C142.29 179.934 139.81 180.585 127.886 180.808L117.63 181V176.786ZM196.402 146.829C201.709 144.359 204.681 139.539 204.664 133.429C204.652 129.06 203.773 126.733 200.961 123.633C198.079 120.455 195.38 119.236 190.617 118.961C186.895 118.746 186.388 118.852 183.206 120.508C177.638 123.407 174.759 128.622 175.316 134.802C176.243 145.083 186.987 151.211 196.402 146.829ZM65.3825 156.866C59.8733 155.342 55.2498 151.365 52.7061 145.962L51.3023 142.98L51.151 114.99L51 87H54.7737C57.1048 87 59.1447 87.3077 60.1101 87.8049C63.2911 89.4433 63.2892 89.4265 63.2892 115.379C63.2892 141.047 63.3275 141.415 66.2267 143.687C67.6411 144.795 68.1684 144.837 80.6038 144.837C93.0391 144.837 93.5663 144.795 94.9808 143.687C96.8605 142.214 97.9182 139.673 97.9182 136.63V134.225H91.2588H84.5994V129.927C84.5994 125.776 84.6594 125.569 86.3484 123.887L88.0974 122.145L97.9358 121.811C103.347 121.627 108.925 121.518 110.331 121.568C113.34 121.675 115.278 120.509 116.697 117.738C117.503 116.163 117.629 114.29 117.629 103.821C117.63 90.5014 117.864 89.3216 120.809 87.8049C121.773 87.3088 123.813 87 126.128 87H129.883V102.559C129.883 119.253 129.666 120.915 126.922 125.204C123.973 129.815 118.273 133.417 112.928 134.047L110.275 134.36L110.079 138.67C109.733 146.276 105.836 152.259 99.0624 155.582L95.5476 157.306L81.6825 157.423C71.7907 157.506 67.1198 157.346 65.3825 156.866ZM141.071 107.281C141.071 93.3415 141.193 90.7773 141.903 89.7681C143.284 87.8045 145.512 87 149.569 87H153.325V102.945C153.325 120.458 153.2 121.234 150.145 122.808C149.182 123.304 147.142 123.612 144.827 123.612H141.071V107.281ZM99.0992 98.376C95.3589 95.7667 95.5838 89.8215 99.499 87.8049C103.894 85.5411 108.573 88.5598 108.573 93.6594C108.573 95.1543 108.16 96.0074 106.762 97.4001C105.254 98.9023 104.56 99.2041 102.618 99.2041C101.336 99.2041 99.7521 98.8315 99.0992 98.376ZM176.881 98.376C173.141 95.7667 173.366 89.8215 177.281 87.8049C181.676 85.5411 186.355 88.5598 186.355 93.6594C186.355 95.1543 185.942 96.0074 184.544 97.4001C183.036 98.9023 182.342 99.2041 180.4 99.2041C179.118 99.2041 177.534 98.8315 176.881 98.376ZM196.021 97.8602C191.598 94.1535 193.545 87.7893 199.3 87.1432C201.353 86.9127 201.864 87.0839 203.567 88.5731C205.904 90.6168 206.489 92.9277 205.353 95.6341C203.856 99.2018 199.004 100.359 196.021 97.8602Z" fill="#D2A940"/>
<defs>
<linearGradient id="paint0_linear_118_462" x1="128" y1="1" x2="128" y2="255" gradientUnits="userSpaceOnUse">
<stop stop-color="#203756"/>
<stop offset="1" stop-color="#1A2D46"/>
</linearGradient>
</defs>
</svg>
