<svg width="256" height="256" viewBox="0 0 256 256" fill="none" xmlns="http://www.w3.org/2000/svg">
<path d="M106.429 254.324C77.8036 252.299 57.2862 246.329 40.0761 235.018C21.6571 222.911 8.93954 200.243 3.9843 170.687C1.69292 157.021 0.962957 146.366 1.00143 127.164C1.07014 93.0812 4.72734 71.9613 13.9373 52.4684C22.7757 33.762 33.8514 22.6792 52.4395 13.9416C72.1839 4.66056 93.5545 1 127.994 1C162.433 1 183.803 4.66056 203.548 13.9416C222.119 22.6715 233.122 33.6726 242.078 52.4684C251.216 71.6451 254.915 93.0336 254.999 127.164C255.1 168.687 249.55 193.658 235.416 215.277C222.216 235.466 198.18 248.266 165.151 252.695C147.932 255.004 125.031 255.639 106.429 254.324Z" fill="url(#paint0_linear_118_481)"/>
<path d="M195.841 100.018C192.246 85.7389 180.211 74.6737 165.67 72.449C149.76 70.0135 135.43 77.7126 127.999 90.0429C120.566 77.7126 106.235 70.0135 90.318 72.449C75.7771 74.6773 63.7493 85.7462 60.154 100.025C58.2448 107.482 58.7134 115.349 61.4941 122.526C70.6348 148.851 102.96 177.078 118.931 189.819C121.506 191.878 124.704 193 127.999 193C131.295 193 134.493 191.878 137.067 189.819C153.039 177.078 185.364 148.851 194.505 122.53C197.289 115.35 197.756 107.477 195.841 100.018Z" fill="#BB7B00"/>
<defs>
<linearGradient id="paint0_linear_118_481" x1="128" y1="1" x2="128" y2="255" gradientUnits="userSpaceOnUse">
<stop stop-color="#FEC127"/>
<stop offset="1" stop-color="#E0A101"/>
</linearGradient>
</defs>
</svg>
