<svg width="256" height="256" viewBox="0 0 256 256" fill="none" xmlns="http://www.w3.org/2000/svg">
<path d="M106.429 254.324C77.8036 252.299 57.2862 246.329 40.0761 235.018C21.6571 222.911 8.93954 200.243 3.9843 170.687C1.69292 157.021 0.962957 146.366 1.00143 127.164C1.07014 93.0812 4.72734 71.9613 13.9373 52.4684C22.7757 33.762 33.8514 22.6792 52.4395 13.9416C72.1839 4.66056 93.5545 1 127.994 1C162.433 1 183.803 4.66056 203.548 13.9416C222.119 22.6715 233.122 33.6726 242.078 52.4684C251.216 71.6451 254.915 93.0336 254.999 127.164C255.1 168.687 249.55 193.658 235.416 215.277C222.216 235.466 198.18 248.266 165.151 252.695C147.932 255.004 125.031 255.639 106.429 254.324Z" fill="url(#paint0_linear_118_625)"/>
<path d="M60.7009 167.718C55.3724 171.782 48.4057 165.382 51.9787 159.71L89.161 100.552C90.0079 99.2038 91.0155 97.9734 92.1591 96.8856C92.9071 96.1759 93.7169 95.525 94.5761 94.9424C96.7458 93.4672 99.1999 92.4599 101.778 91.9826C104.362 91.5053 107.007 91.5673 109.566 92.1686C112.119 92.7698 114.518 93.8948 116.62 95.4755L146.205 117.691C147.064 118.342 148.047 118.797 149.085 119.036C149.636 119.163 150.204 119.228 150.779 119.228C151.379 119.228 151.972 119.157 152.547 119.017C153.561 118.775 154.519 118.326 155.36 117.691L195.299 87.2749C200.628 83.2242 207.594 89.6241 204.021 95.3112L166.839 154.466C165.442 156.694 163.6 158.607 161.424 160.082C159.254 161.557 156.794 162.568 154.216 163.045C151.632 163.522 148.98 163.457 146.427 162.853C145.098 162.54 143.813 162.087 142.595 161.501C141.464 160.959 140.382 160.302 139.368 159.543L109.795 137.327C108.479 136.329 106.871 135.79 105.221 135.79C103.564 135.79 101.963 136.329 100.64 137.327L60.7009 167.718Z" fill="white"/>
<defs>
<linearGradient id="paint0_linear_118_625" x1="128" y1="1" x2="128" y2="255" gradientUnits="userSpaceOnUse">
<stop stop-color="#00AAFF"/>
<stop offset="1" stop-color="#0074FF"/>
</linearGradient>
</defs>
</svg>
