<svg width="256" height="256" viewBox="0 0 256 256" fill="none" xmlns="http://www.w3.org/2000/svg">
<path d="M106.429 254.324C77.8036 252.299 57.2862 246.329 40.0761 235.018C21.6571 222.911 8.93954 200.243 3.9843 170.687C1.69292 157.021 0.962957 146.366 1.00143 127.164C1.07014 93.0812 4.72734 71.9613 13.9373 52.4684C22.7757 33.762 33.8514 22.6792 52.4395 13.9416C72.1839 4.66056 93.5545 1 127.994 1C162.433 1 183.803 4.66056 203.548 13.9416C222.119 22.6715 233.122 33.6726 242.078 52.4684C251.216 71.6451 254.915 93.0336 254.999 127.164C255.1 168.687 249.55 193.658 235.416 215.277C222.216 235.466 198.18 248.266 165.151 252.695C147.932 255.004 125.031 255.639 106.429 254.324Z" fill="#1B1E62"/>
<path fill-rule="evenodd" clip-rule="evenodd" d="M40.0761 235.018C57.2862 246.329 77.8036 252.299 106.429 254.324C112.601 254.76 119.246 254.982 126 254.999V128H1.00024C1.00008 128.192 1 128.383 1 128.573C1 146.895 1.74956 157.358 3.9843 170.687C8.93954 200.243 21.6571 222.911 40.0761 235.018Z" fill="#6C73DF"/>
<path fill-rule="evenodd" clip-rule="evenodd" d="M126.812 255C126.541 255 126.27 255 126 254.999V128H255C255 128.074 255 128.148 255 128.222C255 128.257 255 128.292 255 128.327C254.995 169.155 249.418 193.861 235.416 215.277C222.216 235.466 198.18 248.266 165.151 252.695C153.895 254.204 140.211 254.999 126.886 255C126.862 255 126.837 255 126.812 255Z" fill="#4148B8"/>
<circle cx="190.5" cy="83.5" r="30.5" fill="#4148B8"/>
<circle cx="70.5" cy="76.5" r="37.5" fill="#6C73DF"/>
<g style="mix-blend-mode:soft-light">
<path d="M40.076 235.018C57.2862 246.33 77.8036 252.299 106.429 254.323C125.031 255.639 147.932 255.004 165.151 252.695C198.18 248.266 222.216 235.466 235.416 215.277C249.409 193.874 254.989 169.185 255 128.4C255 128.316 255 128.233 255 128.149C255 127.822 254.999 127.494 254.999 127.164C254.915 93.0337 251.216 71.645 242.078 52.4685C233.122 33.6726 222.119 22.6716 203.548 13.9417C183.803 4.66064 162.433 1 127.994 1C93.5544 1 72.1838 4.66064 52.4394 13.9417C33.8513 22.6792 22.7756 33.762 13.9372 52.4685C4.72726 71.9612 1.07016 93.0811 1.00143 127.164C0.962979 146.366 1.69284 157.021 3.98422 170.687C8.93954 200.243 21.6571 222.911 40.076 235.018Z" fill="url(#paint0_linear_118_576)"/>
</g>
<path d="M178.195 88.1152H142.248V191.035H113.771V88.1152H78V65H178.195V88.1152Z" fill="white"/>
<defs>
<linearGradient id="paint0_linear_118_576" x1="128" y1="1" x2="128" y2="255" gradientUnits="userSpaceOnUse">
<stop stop-color="#A5A4A4"/>
<stop offset="1" stop-color="#656565"/>
</linearGradient>
</defs>
</svg>
