<svg width="256" height="256" viewBox="0 0 256 256" fill="none" xmlns="http://www.w3.org/2000/svg">
<path d="M106.429 254.324C77.8036 252.299 57.2862 246.329 40.0761 235.018C21.6571 222.911 8.93954 200.243 3.9843 170.687C1.69292 157.021 0.962957 146.366 1.00143 127.164C1.07014 93.0812 4.72734 71.9613 13.9373 52.4684C22.7757 33.762 33.8514 22.6792 52.4395 13.9416C72.1839 4.66056 93.5545 1 127.994 1C162.433 1 183.803 4.66056 203.548 13.9416C222.119 22.6715 233.122 33.6726 242.078 52.4684C251.216 71.6451 254.915 93.0336 254.999 127.164C255.1 168.687 249.55 193.658 235.416 215.277C222.216 235.466 198.18 248.266 165.151 252.695C147.932 255.004 125.031 255.639 106.429 254.324Z" fill="url(#paint0_linear_118_328)"/>
<path d="M141.82 47.8271V131.61C142.792 134.347 146.825 146.012 147.833 148.893C149.777 154.474 160.758 185.942 161.622 188.498L165.223 199.047L167.275 204.88L167.959 206.824L172.676 208.769H172.928C172.928 207.581 172.928 205.78 172.928 203.872V47.8271H141.82Z" fill="url(#paint1_linear_118_328)"/>
<path d="M83.78 59.0247V208.841C96.1657 207.329 102.359 206.753 114.96 206.177V125.022L89.4328 51.8238L88.7487 49.8795L84.0321 47.9353C84.0321 49.1235 84.0321 50.9237 84.0321 52.8319L83.78 59.0247Z" fill="url(#paint2_linear_118_328)"/>
<path d="M115.644 47.8271H83.78L140.2 206.248C156.042 206.645 173 208.913 173 208.913L115.644 47.8271Z" fill="white"/>
<defs>
<linearGradient id="paint0_linear_118_328" x1="128" y1="1" x2="128" y2="255" gradientUnits="userSpaceOnUse">
<stop stop-color="#D20712"/>
<stop offset="1" stop-color="#B1060F"/>
</linearGradient>
<linearGradient id="paint1_linear_118_328" x1="146.985" y1="126.686" x2="160.534" y2="122.983" gradientUnits="userSpaceOnUse">
<stop offset="0.35" stop-color="#D9D9D9"/>
<stop offset="1" stop-color="white"/>
</linearGradient>
<linearGradient id="paint2_linear_118_328" x1="120.846" y1="116.535" x2="105.205" y2="120.892" gradientUnits="userSpaceOnUse">
<stop offset="0.49" stop-color="#E2E2E2"/>
<stop offset="1" stop-color="#E9E9E9"/>
</linearGradient>
</defs>
</svg>
