<svg width="256" height="256" viewBox="0 0 256 256" fill="none" xmlns="http://www.w3.org/2000/svg">
<path d="M106.429 254.324C77.8036 252.299 57.2862 246.329 40.0761 235.018C21.6571 222.911 8.93954 200.243 3.9843 170.687C1.69292 157.021 0.962957 146.366 1.00143 127.164C1.07014 93.0812 4.72734 71.9613 13.9373 52.4684C22.7757 33.762 33.8514 22.6792 52.4395 13.9416C72.1839 4.66056 93.5545 1 127.994 1C162.433 1 183.803 4.66056 203.548 13.9416C222.119 22.6715 233.122 33.6726 242.078 52.4684C251.216 71.6451 254.915 93.0336 254.999 127.164C255.1 168.687 249.55 193.658 235.416 215.277C222.216 235.466 198.18 248.266 165.151 252.695C147.932 255.004 125.031 255.639 106.429 254.324Z" fill="url(#paint0_linear_118_686)"/>
<path d="M120.465 219.741C103.447 218.219 86.2957 211.637 72.7214 201.418C66.0384 196.387 56.3353 186.213 52.1121 179.809C50.6158 177.54 50.6156 177.538 51.6777 176.679C55.3346 173.718 62.2664 164.607 65.0605 159.089C65.8201 157.589 66.5499 156.362 66.6822 156.362C66.8145 156.362 67.4244 157.355 68.0376 158.57C72.1521 166.718 80.1354 176.034 88.2485 182.156C95.4933 187.622 105.118 191.922 115.009 194.112C120.685 195.369 133.227 195.617 139.172 194.59C160.712 190.869 178.606 178 188.742 158.938C193.171 150.61 196.324 138.68 196.329 130.235C196.339 115.142 200.814 102.304 209.85 91.4573L212.631 88.1177L213.623 90.4182C215.862 95.6145 218.698 105.048 219.782 110.902C221.147 118.282 221.415 132.436 220.33 139.911C214.475 180.256 183.835 211.925 144.108 218.693C137.106 219.886 127.065 220.331 120.465 219.741ZM117.348 181.827C105.968 179.359 96.4976 174.103 88.3928 165.757C82.3618 159.546 77.0381 150.071 74.649 141.295C73.5879 137.398 73.4501 135.751 73.4756 127.268C73.5002 119.09 73.671 117.055 74.6213 113.623C78.2814 100.408 86.6503 88.702 97.6594 81.3998C105.744 76.0376 113.9 73.1126 123.226 72.2312C150.398 69.6632 175.078 86.9884 182.386 113.76C183.441 117.627 183.589 119.339 183.579 127.528C183.568 137.254 183.219 139.533 180.678 146.491C173.981 164.828 157.388 178.735 138.195 182.096C132.226 183.141 122.848 183.02 117.348 181.827ZM134.755 157.658C140.64 156.423 145.586 153.678 150.195 149.088C154.798 144.504 157.295 139.961 158.711 133.6C161.191 122.454 156.537 109.994 147.3 103.052C143.112 99.9051 140.914 98.8305 136.189 97.6223C123.47 94.3698 110.394 99.3378 102.977 110.241C99.6904 115.072 98.1146 119.747 97.7629 125.709C96.5706 145.927 114.964 161.813 134.755 157.658Z" fill="white"/>
<path d="M40.7573 98.4067C33.8995 119.096 34.4734 141.709 42.366 161.791L44.2939 166.697L45.5435 165.533C47.8738 163.364 51.411 158.384 53.7356 153.998C58.1138 145.739 59.8631 138.653 60.4393 126.844C61.1754 111.759 64.478 101.18 71.9844 89.8642C78.0235 80.7603 88.4021 71.5198 98.1146 66.5994C102.516 64.3697 110.755 61.6425 116.303 60.5793C126.233 58.6761 138.948 59.5199 149.169 62.7604C165.561 67.9572 180.388 80.2837 188.193 95.2048L190.199 99.0389L192.23 95.2823C194.994 90.1708 198.292 85.627 202.593 81.005L206.2 77.1287L203.001 72.7759C199.243 67.6622 191.255 59.2886 186.389 55.362C165.19 38.2535 136.6 31.343 109.861 36.8644C77.6611 43.5136 51.1167 67.1533 40.7573 98.4067Z" fill="#323131"/>
<defs>
<linearGradient id="paint0_linear_118_686" x1="128" y1="1" x2="128" y2="255" gradientUnits="userSpaceOnUse">
<stop stop-color="#02BAAA"/>
<stop offset="1" stop-color="#02978A"/>
</linearGradient>
</defs>
</svg>
