<svg width="256" height="256" viewBox="0 0 256 256" fill="none" xmlns="http://www.w3.org/2000/svg">
<path d="M106.429 254.324C77.8036 252.299 57.2862 246.329 40.0761 235.018C21.6571 222.911 8.93954 200.243 3.9843 170.687C1.69292 157.021 0.962957 146.366 1.00143 127.164C1.07014 93.0812 4.72734 71.9613 13.9373 52.4684C22.7757 33.762 33.8514 22.6792 52.4395 13.9416C72.1839 4.66056 93.5545 1 127.994 1C162.433 1 183.803 4.66056 203.548 13.9416C222.119 22.6715 233.122 33.6726 242.078 52.4684C251.216 71.6451 254.915 93.0336 254.999 127.164C255.1 168.687 249.55 193.658 235.416 215.277C222.216 235.466 198.18 248.266 165.151 252.695C147.932 255.004 125.031 255.639 106.429 254.324Z" fill="url(#paint0_linear_118_518)"/>
<path d="M38 105C38 103.343 39.3431 102 41 102H58.0058C62.707 102 66.744 102.785 70.1166 104.354C73.4892 105.924 76.0698 108.152 77.8583 111.038C79.6979 113.873 80.6177 117.291 80.6177 121.291C80.6177 127.418 78.6248 132.228 74.639 135.722C70.6532 139.165 65.1088 140.886 58.0058 140.886H52.0377C50.3808 140.886 49.0377 139.543 49.0377 137.886V131.203C49.0377 129.546 50.3808 128.203 52.0377 128.203H57.2393C60.5097 128.203 62.9114 127.62 64.4445 126.456C65.9775 125.291 66.744 123.57 66.744 121.291C66.744 119.114 65.9775 117.468 64.4445 116.354C62.9114 115.241 60.5097 114.684 57.2393 114.684H54.8738C53.2169 114.684 51.8738 116.027 51.8738 117.684V153C51.8738 154.657 50.5306 156 48.8738 156H41C39.3431 156 38 154.657 38 153V105Z" fill="white"/>
<path d="M88.0774 105C88.0774 103.343 89.4205 102 91.0774 102H99.2578C100.915 102 102.258 103.343 102.258 105V144.917C102.258 146.744 100.053 147.663 98.7547 146.377C97.4504 145.085 98.3656 142.861 100.202 142.861H122.866C124.523 142.861 125.866 144.204 125.866 145.861V153C125.866 154.657 124.523 156 122.866 156H91.0774C89.4206 156 88.0774 154.657 88.0774 153V105Z" fill="white"/>
<path d="M132.166 105C132.166 103.343 133.51 102 135.166 102H146.318C147.422 102 148.436 102.606 148.959 103.578L170.437 143.463C171.362 145.182 170.118 147.266 168.166 147.266C166.741 147.266 165.586 146.111 165.586 144.686V105C165.586 103.343 166.929 102 168.586 102H176C177.657 102 179 103.343 179 105V153C179 154.657 177.657 156 176 156H164.849C163.745 156 162.73 155.394 162.207 154.422L140.729 114.537C139.804 112.818 141.049 110.734 143.001 110.734C144.425 110.734 145.58 111.889 145.58 113.314V153C145.58 154.657 144.237 156 142.58 156H135.166C133.51 156 132.166 154.657 132.166 153V105Z" fill="white"/>
<path d="M230.929 125.918C230.828 125.366 230.617 124.852 230.315 124.421C230.013 123.99 229.629 123.655 229.196 123.445L216.957 117.504L219.49 97.0106C219.583 96.2747 219.479 95.522 219.194 94.8629C218.908 94.2039 218.457 93.6731 217.905 93.3485C217.353 93.0239 216.729 92.9225 216.126 93.0592C215.523 93.196 214.972 93.5636 214.554 94.1083L187.772 128.936C187.454 129.35 187.223 129.852 187.101 130.398C186.978 130.944 186.967 131.518 187.069 132.071C187.17 132.624 187.381 133.138 187.683 133.569C187.986 134 188.37 134.336 188.803 134.546L201.041 140.487L198.509 160.989C198.416 161.725 198.52 162.478 198.805 163.137C199.09 163.796 199.542 164.327 200.094 164.652C200.646 164.976 201.269 165.077 201.872 164.941C202.475 164.804 203.026 164.436 203.444 163.892L230.226 129.064C230.546 128.649 230.777 128.145 230.9 127.597C231.022 127.048 231.033 126.472 230.929 125.918ZM205.556 150.927L207.055 138.804C207.151 138.028 207.028 137.236 206.707 136.555C206.385 135.875 205.883 135.346 205.283 135.054L194.829 129.978L212.443 107.073L210.943 119.196C210.848 119.972 210.97 120.764 211.292 121.445C211.614 122.125 212.115 122.654 212.715 122.946L223.17 128.022L205.556 150.927Z" fill="#F8EF77"/>
<defs>
<linearGradient id="paint0_linear_118_518" x1="128" y1="1" x2="128" y2="255" gradientUnits="userSpaceOnUse">
<stop stop-color="#0C92D0"/>
<stop offset="1" stop-color="#09709F"/>
</linearGradient>
</defs>
</svg>
