<svg width="256" height="256" viewBox="0 0 256 256" fill="none" xmlns="http://www.w3.org/2000/svg">
<path d="M106.429 254.324C77.8036 252.299 57.2862 246.329 40.0761 235.018C21.6571 222.911 8.93954 200.243 3.9843 170.687C1.69292 157.021 0.962957 146.366 1.00143 127.164C1.07014 93.0812 4.72734 71.9613 13.9373 52.4684C22.7757 33.762 33.8514 22.6792 52.4395 13.9416C72.1839 4.66056 93.5545 1 127.994 1C162.433 1 183.803 4.66056 203.548 13.9416C222.119 22.6715 233.122 33.6726 242.078 52.4684C251.216 71.6451 254.915 93.0336 254.999 127.164C255.1 168.687 249.55 193.658 235.416 215.277C222.216 235.466 198.18 248.266 165.151 252.695C147.932 255.004 125.031 255.639 106.429 254.324Z" fill="url(#paint0_linear_108_230)"/>
<path d="M138.885 109.244C138.887 112.129 140.172 114.502 142.504 115.928C144.326 117.043 148.267 117.276 150.041 116.373C150.642 116.068 154.674 112.292 159.001 107.982L166.869 100.146L174.751 108.001C179.086 112.321 183.267 116.097 184.041 116.392C190.955 119.03 197.594 112.279 194.457 105.799C193.82 104.484 190.46 100.681 185.908 96.1241L178.408 88.616L186.598 80.3064C194.321 72.4708 194.808 71.8619 195.142 69.6314C195.936 64.3129 191.314 59.6744 186.015 60.472C183.792 60.8064 183.185 61.2955 175.377 69.0459L167.097 77.2652L159.615 69.7386C155.074 65.1704 151.285 61.7981 149.974 61.1592C143.517 58.0115 136.79 64.6733 139.418 71.6119C139.713 72.3888 143.476 76.584 147.78 80.9346L155.607 88.8447L147.799 96.7402C143.504 101.083 139.741 105.129 139.437 105.732C139.132 106.335 138.884 107.915 138.885 109.244Z" fill="#F0EDBC"/>
<path fill-rule="evenodd" clip-rule="evenodd" d="M120.5 88.8622C120.5 106.459 106.285 120.724 88.75 120.724C71.215 120.724 57 106.459 57 88.8622C57 71.2652 71.215 57 88.75 57C106.285 57 120.5 71.2652 120.5 88.8622ZM88.75 106.675C98.5531 106.675 106.5 98.6999 106.5 88.8622C106.5 79.0245 98.5531 71.0495 88.75 71.0495C78.9469 71.0495 71 79.0245 71 88.8622C71 98.6999 78.9469 106.675 88.75 106.675Z" fill="#BEBCFF"/>
<path fill-rule="evenodd" clip-rule="evenodd" d="M120.5 167.138C120.5 184.735 106.285 199 88.75 199C71.215 199 57 184.735 57 167.138C57 149.541 71.215 135.276 88.75 135.276C106.285 135.276 120.5 149.541 120.5 167.138ZM88.75 184.951C98.5531 184.951 106.5 176.976 106.5 167.138C106.5 157.3 98.5531 149.325 88.75 149.325C78.9469 149.325 71 157.3 71 167.138C71 176.976 78.9469 184.951 88.75 184.951Z" fill="#8DCCE5"/>
<path fill-rule="evenodd" clip-rule="evenodd" d="M199 167.138C199 184.735 184.785 199 167.25 199C149.715 199 135.5 184.735 135.5 167.138C135.5 149.541 149.715 135.276 167.25 135.276C184.785 135.276 199 149.541 199 167.138ZM167.25 184.951C177.053 184.951 185 176.976 185 167.138C185 157.3 177.053 149.325 167.25 149.325C157.447 149.325 149.5 157.3 149.5 167.138C149.5 176.976 157.447 184.951 167.25 184.951Z" fill="#E8CCC7"/>
<defs>
<linearGradient id="paint0_linear_108_230" x1="128" y1="1" x2="128" y2="255" gradientUnits="userSpaceOnUse">
<stop stop-color="#552A96"/>
<stop offset="1" stop-color="#3B2988"/>
</linearGradient>
</defs>
</svg>
