<svg width="256" height="256" viewBox="0 0 256 256" fill="none" xmlns="http://www.w3.org/2000/svg">
<path d="M106.429 254.324C77.8036 252.299 57.2862 246.329 40.0761 235.018C21.6571 222.911 8.93954 200.243 3.9843 170.687C1.69292 157.021 0.962957 146.366 1.00143 127.164C1.07014 93.0812 4.72734 71.9613 13.9373 52.4684C22.7757 33.762 33.8514 22.6792 52.4395 13.9416C72.1839 4.66056 93.5545 1 127.994 1C162.433 1 183.803 4.66056 203.548 13.9416C222.119 22.6715 233.122 33.6726 242.078 52.4684C251.216 71.6451 254.915 93.0336 254.999 127.164C255.1 168.687 249.55 193.658 235.416 215.277C222.216 235.466 198.18 248.266 165.151 252.695C147.932 255.004 125.031 255.639 106.429 254.324Z" fill="url(#paint0_linear_118_324)"/>
<path fill-rule="evenodd" clip-rule="evenodd" d="M75 78.882V92.4465H113.314V180.916C113.314 193.338 122.162 199 130.832 199C139.501 199 145.002 196.114 145.002 196.114C145.002 196.114 139.715 191.831 139.692 172.812C139.669 154.364 139.692 96.1868 139.692 87.9788C139.692 79.7709 130.128 65 114.388 65H90.0647C82.0937 65 75 71.4936 75 78.882ZM131.27 65C130.768 65 130.364 65.4041 130.364 65.9062C130.364 66.4084 130.866 66.7836 131.27 67.0837C132.939 68.3305 138.139 72.0189 140.627 77.0638C143.109 82.1086 143.172 86.6859 144.783 89.3295C146.399 91.9732 149.031 92.4465 151.813 92.4465H171.836C176.263 92.4465 178 89.4738 178 85.9471V65H131.27Z" fill="white"/>
<defs>
<linearGradient id="paint0_linear_118_324" x1="128" y1="1" x2="128" y2="255" gradientUnits="userSpaceOnUse">
<stop stop-color="#C64C00"/>
<stop offset="1" stop-color="#C6000F"/>
</linearGradient>
</defs>
</svg>
