<svg width="256" height="256" viewBox="0 0 256 256" fill="none" xmlns="http://www.w3.org/2000/svg">
<path d="M106.429 254.324C77.8036 252.299 57.2862 246.329 40.0761 235.018C21.6571 222.911 8.93954 200.243 3.9843 170.687C1.69292 157.021 0.962957 146.366 1.00143 127.164C1.07014 93.0812 4.72734 71.9613 13.9373 52.4684C22.7757 33.762 33.8514 22.6792 52.4395 13.9416C72.1839 4.66056 93.5545 1 127.994 1C162.433 1 183.803 4.66056 203.548 13.9416C222.119 22.6715 233.122 33.6726 242.078 52.4684C251.216 71.6451 254.915 93.0336 254.999 127.164C255.1 168.687 249.55 193.658 235.416 215.277C222.216 235.466 198.18 248.266 165.151 252.695C147.932 255.004 125.031 255.639 106.429 254.324Z" fill="url(#paint0_linear_108_107)"/>
<path d="M170.621 187.969C182.653 187.958 194.188 183.187 202.696 174.703C211.204 166.22 215.988 154.717 216 142.72C216 130.289 210.698 118.209 201.641 109.704C201.535 98.1249 196.85 87.0552 188.604 78.9012C180.358 70.7472 169.218 66.168 157.605 66.1589C150.642 66.1553 143.778 67.7994 137.577 70.9558C129.406 63.2712 118.596 58.9937 107.364 59C96.0192 59.0077 85.1142 63.3773 76.9186 71.1995C68.723 79.0217 63.868 89.694 63.364 100.995C56.2793 104.943 50.379 110.704 46.272 117.683C42.1649 124.663 39.9998 132.609 40 140.702C40.0065 146.972 41.3119 153.173 43.8346 158.917C46.3573 164.66 50.0428 169.822 54.6599 174.079C59.2771 178.335 64.7264 181.595 70.6661 183.653C76.6059 185.711 82.908 186.523 89.1773 186.039C93.3466 193.02 99.259 198.805 106.338 202.829C113.417 206.853 121.421 208.979 129.569 209C137.344 209.002 144.997 207.077 151.841 203.4C158.685 199.723 164.506 194.408 168.781 187.933C169.397 187.957 170.015 187.969 170.621 187.969ZM129.569 197.051C122.941 197.034 116.453 195.146 110.855 191.607C105.257 188.068 100.777 183.022 97.9333 177.052L95.9753 172.942L91.48 173.732C86.6425 174.58 81.6775 174.362 76.9332 173.095C72.1889 171.827 67.7802 169.54 64.0162 166.393C60.2522 163.247 57.224 159.317 55.144 154.881C53.0639 150.444 51.9825 145.607 51.9753 140.709C51.9781 134.245 53.853 127.919 57.3745 122.491C60.896 117.064 65.9145 112.766 71.8267 110.114L75.5373 108.447L75.3467 104.388C75.1516 100.072 75.8352 95.7603 77.3561 91.7142C78.877 87.6681 81.2038 83.9709 84.1962 80.8456C87.1886 77.7203 90.7847 75.2315 94.7676 73.5293C98.7506 71.8271 103.038 70.9467 107.371 70.9412C116.883 70.9412 125.793 75.0801 131.916 82.3486L135.363 86.4436L139.829 83.4674C145.091 79.9584 151.281 78.09 157.612 78.1001C161.98 78.1088 166.301 79.0059 170.31 80.7365C174.318 82.4672 177.931 84.995 180.926 88.1654C183.922 91.3358 186.237 95.0821 187.731 99.1754C189.225 103.269 189.866 107.623 189.615 111.971L189.431 115.013L191.793 116.951C195.597 120.094 198.665 124.03 200.779 128.482C202.894 132.934 204.004 137.794 204.032 142.72C204.027 147.454 203.011 152.133 201.052 156.445C199.092 160.757 196.235 164.603 192.669 167.729C189.103 170.854 184.911 173.186 180.371 174.571C175.831 175.955 171.048 176.36 166.339 175.758L162.276 175.238L160.318 178.822C157.319 184.342 152.879 188.952 147.467 192.161C142.055 195.37 135.873 197.06 129.577 197.051H129.569ZM152.317 149.279L152.435 149.228C153.989 148.563 154.547 147.978 154.547 146.354V144.322C154.547 142.537 153.52 141.389 151.833 141.389H151.738L151.401 141.462C147.869 142.746 144.144 143.419 140.386 143.451C136.866 143.451 133.39 142.793 130.053 141.477L129.958 141.44L129.577 141.389C127.89 141.389 126.863 142.537 126.863 144.322V146.354C126.863 147.883 127.435 148.57 128.777 149.148L128.924 149.214L129.071 149.272C132.646 150.813 136.499 151.609 140.393 151.612C144.243 151.612 148.247 150.83 152.317 149.279ZM100.39 132.57C100.39 130.932 101.241 130.026 102.385 129.792L113.392 126.911L102.355 124.022C101.211 123.722 100.39 122.823 100.39 121.243V117.785C100.39 116.271 101.299 115.62 102.341 115.62C102.683 115.62 103.028 115.688 103.375 115.825L123.028 122.165C124.517 122.662 125.338 123.854 125.338 125.492V128.322C125.338 129.96 124.517 131.159 123.021 131.656L103.331 138.004C103.035 138.101 102.725 138.15 102.414 138.15C101.182 138.15 100.39 137.272 100.39 135.978V132.57Z" fill="white"/>
<defs>
<linearGradient id="paint0_linear_108_107" x1="128" y1="1" x2="128" y2="255" gradientUnits="userSpaceOnUse">
<stop stop-color="#162863"/>
<stop offset="1" stop-color="#0C1738"/>
</linearGradient>
</defs>
</svg>
