<svg width="256" height="256" viewBox="0 0 256 256" fill="none" xmlns="http://www.w3.org/2000/svg">
<path d="M106.429 254.324C77.8036 252.299 57.2862 246.329 40.0761 235.018C21.6571 222.911 8.93954 200.243 3.9843 170.687C1.69292 157.021 0.962957 146.366 1.00143 127.164C1.07014 93.0812 4.72734 71.9613 13.9373 52.4684C22.7757 33.762 33.8514 22.6792 52.4395 13.9416C72.1839 4.66056 93.5545 1 127.994 1C162.433 1 183.803 4.66056 203.548 13.9416C222.119 22.6715 233.122 33.6726 242.078 52.4684C251.216 71.6451 254.915 93.0336 254.999 127.164C255.1 168.687 249.55 193.658 235.416 215.277C222.216 235.466 198.18 248.266 165.151 252.695C147.932 255.004 125.031 255.639 106.429 254.324Z" fill="url(#paint0_linear_118_527)"/>
<path d="M177.333 60C183.37 59.9997 189.179 62.3061 193.571 66.4475C197.963 70.5888 200.606 76.252 200.961 82.2782L201 83.6667V131H153.667C147.63 131 141.821 133.306 137.429 137.447C133.037 141.589 130.394 147.252 130.039 153.278L130 154.667V202H82.6667C76.63 202 70.8214 199.694 66.4293 195.553C62.0372 191.411 59.3936 185.748 59.0394 179.722L59 178.333V83.6667C58.9997 77.63 61.3061 71.8214 65.4475 67.4293C69.5888 63.0372 75.252 60.3936 81.2782 60.0394L82.6667 60H177.333ZM200.077 146.778C199.13 150.069 197.48 153.116 195.241 155.708L194.066 156.97L155.978 195.074C153.548 197.5 150.619 199.368 147.395 200.548L145.778 201.077V154.667C145.778 152.734 146.487 150.869 147.771 149.426C149.055 147.982 150.825 147.059 152.744 146.833L153.667 146.778H200.077Z" fill="white"/>
<defs>
<linearGradient id="paint0_linear_118_527" x1="128" y1="1" x2="128" y2="255" gradientUnits="userSpaceOnUse">
<stop stop-color="#50C970"/>
<stop offset="1" stop-color="#34A853"/>
</linearGradient>
</defs>
</svg>
