<svg width="256" height="256" viewBox="0 0 256 256" fill="none" xmlns="http://www.w3.org/2000/svg">
<path d="M106.429 254.324C77.8036 252.299 57.2862 246.329 40.0761 235.018C21.6571 222.911 8.93954 200.243 3.9843 170.687C1.69292 157.021 0.962957 146.366 1.00143 127.164C1.07014 93.0812 4.72734 71.9613 13.9373 52.4684C22.7757 33.762 33.8514 22.6792 52.4395 13.9416C72.1839 4.66056 93.5545 1 127.994 1C162.433 1 183.803 4.66056 203.548 13.9416C222.119 22.6715 233.122 33.6726 242.078 52.4684C251.216 71.6451 254.915 93.0336 254.999 127.164C255.1 168.687 249.55 193.658 235.416 215.277C222.216 235.466 198.18 248.266 165.151 252.695C147.932 255.004 125.031 255.639 106.429 254.324Z" fill="url(#paint0_linear_108_178)"/>
<path d="M78.6504 146.428H48.2629C47.2224 146.431 46.2047 146.121 45.3394 145.538C44.4741 144.955 43.8003 144.126 43.4038 143.155C43.0043 142.188 42.8987 141.123 43.1005 140.095C43.3023 139.067 43.8023 138.122 44.5371 137.381L65.5958 116.136H50.5083C48.517 116.136 46.6072 115.338 45.1991 113.917C43.7911 112.497 43 110.57 43 108.561H71.0288C73.1608 108.561 75.0662 109.847 75.8879 111.834C76.2865 112.802 76.3909 113.868 76.1879 114.896C75.9848 115.924 75.4835 116.868 74.7475 117.608L53.6958 138.861H71.1492C75.2929 138.861 78.6575 142.255 78.6575 146.435L78.6504 146.428ZM213 122.767C212.992 119.784 212.089 116.873 210.409 114.417C208.73 111.961 206.353 110.075 203.591 109.008C200.829 107.941 197.812 107.742 194.936 108.438C192.06 109.134 189.461 110.691 187.479 112.906C186.109 111.362 184.432 110.128 182.557 109.283C180.683 108.438 178.652 108.002 176.599 108.004C168.524 108.004 161.965 114.621 161.965 122.767V146.428C163.956 146.428 165.866 145.63 167.274 144.21C168.682 142.789 169.473 140.862 169.473 138.853V122.767C169.473 120.86 170.224 119.03 171.561 117.682C172.898 116.333 174.711 115.575 176.602 115.575C178.493 115.575 180.307 116.333 181.644 117.682C182.981 119.03 183.732 120.86 183.732 122.767V138.853C183.732 143.041 187.089 146.428 191.24 146.428V122.767C191.24 120.861 191.991 119.032 193.327 117.684C194.663 116.336 196.476 115.578 198.366 115.578C200.256 115.578 202.068 116.336 203.405 117.684C204.741 119.032 205.492 120.861 205.492 122.767V138.853C205.492 143.041 208.856 146.428 213 146.428V122.767ZM158.21 127.498C158.21 130.059 157.711 132.594 156.739 134.96C155.768 137.325 154.344 139.475 152.55 141.286C150.755 143.096 148.624 144.532 146.28 145.512C143.935 146.492 141.422 146.996 138.884 146.996C136.346 146.996 133.832 146.492 131.487 145.512C129.143 144.532 127.012 143.096 125.217 141.286C123.423 139.475 121.999 137.325 121.028 134.96C120.057 132.594 119.557 130.059 119.557 127.498C119.557 122.327 121.593 117.368 125.217 113.711C128.842 110.054 133.758 108 138.884 108C144.009 108 148.925 110.054 152.55 113.711C156.174 117.368 158.21 122.327 158.21 127.498ZM150.702 127.498C150.702 124.335 149.457 121.301 147.239 119.065C145.022 116.828 142.015 115.571 138.88 115.571C135.745 115.571 132.738 116.828 130.521 119.065C128.303 121.301 127.058 124.335 127.058 127.498C127.058 130.661 128.303 133.695 130.521 135.932C132.738 138.169 135.745 139.425 138.88 139.425C142.015 139.425 145.022 138.169 147.239 135.932C149.457 133.695 150.702 130.661 150.702 127.498ZM116.56 127.498C116.56 132.67 114.524 137.631 110.899 141.288C107.274 144.945 102.357 147 97.23 147C92.1033 147 87.1865 144.945 83.5613 141.288C79.9362 137.631 77.8996 132.67 77.8996 127.498C77.8996 122.327 79.9358 117.368 83.5603 113.711C87.1848 110.054 92.1007 108 97.2265 108C102.352 108 107.268 110.054 110.893 113.711C114.517 117.368 116.553 122.327 116.553 127.498H116.56ZM109.052 127.498C109.052 125.932 108.746 124.381 108.152 122.934C107.558 121.487 106.687 120.172 105.589 119.065C104.492 117.957 103.188 117.079 101.754 116.479C100.32 115.88 98.7825 115.571 97.23 115.571C95.6775 115.571 94.1402 115.88 92.7059 116.479C91.2716 117.079 89.9683 117.957 88.8705 119.065C87.7727 120.172 86.9019 121.487 86.3078 122.934C85.7137 124.381 85.4079 125.932 85.4079 127.498C85.4079 130.661 86.6535 133.695 88.8705 135.932C91.0876 138.169 94.0946 139.425 97.23 139.425C100.365 139.425 103.372 138.169 105.589 135.932C107.807 133.695 109.052 130.661 109.052 127.498Z" fill="white"/>
<defs>
<linearGradient id="paint0_linear_108_178" x1="128" y1="1" x2="128" y2="255" gradientUnits="userSpaceOnUse">
<stop stop-color="#009DFF"/>
<stop offset="1" stop-color="#0044FF"/>
</linearGradient>
</defs>
</svg>
