<svg width="192" height="192" viewBox="0 0 192 192" fill="none" xmlns="http://www.w3.org/2000/svg">
<path d="M79.8641 190.494C58.4515 188.98 43.1039 184.514 30.2301 176.052C16.4521 166.996 6.93903 150.04 3.23235 127.931C1.51833 117.708 0.97229 109.739 1.00107 95.3749C1.05247 69.8796 3.78817 54.0813 10.6775 39.5C17.2889 25.507 25.5739 17.2167 39.4783 10.6808C54.2478 3.73821 70.2337 1 95.9953 1C121.757 1 137.743 3.73821 152.512 10.6808C166.404 17.211 174.634 25.4402 181.334 39.5C188.169 53.8448 190.937 69.844 190.999 95.3749C191.075 126.436 186.923 145.115 176.35 161.286C166.477 176.388 148.497 185.963 123.79 189.276C110.91 191.003 93.7794 191.478 79.8641 190.494Z" fill="url(#paint0_linear_108_3)"/>
<path d="M147.728 105.079C153.655 109.731 161.9 108.697 166.538 102.752C170.918 97.0661 169.888 88.5364 163.961 84.1425L104.183 37.6175C99.2868 33.7404 92.5876 33.7404 87.6918 37.6175L27.9132 84.1425C21.9869 88.7951 20.9563 97.0661 25.5943 103.011C28.1709 106.371 32.0359 108.181 36.1585 108.181C38.993 108.181 42.0848 107.147 44.4039 105.337L49.0419 101.719L55.7413 148.244C55.9989 150.57 57.2872 152.896 58.5755 154.706C59.8639 156.256 61.6676 157.29 63.4713 157.29H78.4159C85.1152 157.29 84.5998 150.57 84.5998 150.57L83.3115 128.6C83.0539 125.498 84.8576 122.913 87.4342 122.913H104.956C107.532 122.913 109.336 125.498 109.336 128.6L108.305 150.57C108.305 151.345 108.305 157.032 114.489 157.032H129.691C131.495 157.032 133.299 156.256 134.587 154.447C135.876 152.638 136.906 150.311 137.164 147.985L143.09 101.46L147.728 105.079Z" fill="white"/>
<defs>
<linearGradient id="paint0_linear_108_3" x1="96" y1="1" x2="96" y2="191" gradientUnits="userSpaceOnUse">
<stop stop-color="#3167CA"/>
<stop offset="1" stop-color="#2752A1"/>
</linearGradient>
</defs>
</svg>
