<svg width="192" height="192" viewBox="0 0 192 192" fill="none" xmlns="http://www.w3.org/2000/svg">
<path d="M79.8641 190.494C58.4515 188.98 43.1039 184.514 30.2301 176.052C16.4521 166.996 6.93903 150.04 3.23235 127.931C1.51833 117.708 0.97229 109.739 1.00107 95.3749C1.05247 69.8796 3.78817 54.0812 10.6775 39.5C17.2889 25.507 25.5739 17.2167 39.4783 10.6808C54.2478 3.73821 70.2337 1 95.9953 1C121.757 1 137.743 3.73821 152.512 10.6808C166.404 17.211 174.634 25.4402 181.334 39.5C188.169 53.8448 190.937 69.844 190.999 95.3749C191.075 126.436 186.923 145.115 176.35 161.286C166.477 176.388 148.497 185.963 123.79 189.276C110.91 191.003 93.7794 191.478 79.8641 190.494Z" fill="url(#paint0_linear_108_33)"/>
<path d="M24.189 82.0472C24.189 79.8381 25.9798 78.0472 28.189 78.0472H37.3642C40.5035 78.0472 43.0083 78.5017 44.8786 79.4107C46.7488 80.2861 48.0847 81.4476 48.8863 82.8952C49.7212 84.3429 50.1387 85.9084 50.1387 87.5917C50.1387 89.3424 49.7379 90.9079 48.9364 92.2882C48.1348 93.6349 46.9659 94.6954 45.4296 95.4697C44.1286 96.097 42.5641 96.4586 40.7362 96.5547C40.1995 96.5829 39.7861 96.1051 39.8615 95.573C39.9233 95.1372 40.2967 94.8112 40.7367 94.8258C42.9034 94.8979 44.7349 95.2809 46.2312 95.9747C47.901 96.7491 49.1534 97.8433 49.9884 99.2572C50.8567 100.638 51.2909 102.237 51.2909 104.055C51.2909 105.772 50.8734 107.388 50.0385 108.903C49.2035 110.418 47.8176 111.647 45.8805 112.589C43.9769 113.498 41.422 113.953 38.2158 113.953H28.189C25.9798 113.953 24.189 112.162 24.189 109.953V82.0472ZM44.1271 103.247C44.1271 101.866 43.6095 100.789 42.5742 100.015C41.5723 99.2404 40.0026 98.8532 37.8652 98.8532H31.752C30.1205 98.8532 28.7978 97.5306 28.7978 95.899C28.7978 94.2674 30.1205 92.9447 31.752 92.9447H37.1137C39.1176 92.9447 40.587 92.5576 41.5222 91.7832C42.4907 90.9752 42.9749 89.9147 42.9749 88.6017C42.9749 87.2887 42.4907 86.2619 41.5222 85.5212C40.587 84.7469 39.1176 84.3597 37.1137 84.3597H35.2024C32.9933 84.3597 31.2024 86.1506 31.2024 88.3597V103.64C31.2024 105.849 32.9933 107.64 35.2024 107.64H37.8652C40.0026 107.64 41.5723 107.253 42.5742 106.479C43.6095 105.671 44.1271 104.593 44.1271 103.247Z" fill="white"/>
<path d="M68.3658 83.2448C68.0903 82.4282 68.6977 81.5822 69.5596 81.5822C70.4207 81.5822 71.028 82.4269 70.7539 83.2432L61.2239 111.621C60.756 113.014 59.4507 113.953 57.9811 113.953C55.6154 113.953 53.9639 111.609 54.7596 109.381L65.0032 80.7018C65.5718 79.1099 67.0798 78.0472 68.7702 78.0472H70.6971C72.3875 78.0472 73.8954 79.1099 74.464 80.7018L84.6397 109.191C85.4685 111.512 83.7482 113.953 81.2842 113.953C79.7553 113.953 78.3968 112.977 77.908 111.529L68.3658 83.2448ZM79.4272 103.802C79.4272 105.531 78.0254 106.933 76.2962 106.933H64.0227C62.2935 106.933 60.8917 105.531 60.8917 103.802C60.8917 102.073 62.2935 100.671 64.0227 100.671H76.2962C78.0254 100.671 79.4272 102.073 79.4272 103.802Z" fill="white"/>
<path d="M90.478 82.0472C90.478 79.8381 92.2689 78.0472 94.478 78.0472H102.952C107.26 78.0472 110.633 79.1246 113.071 81.2792C115.509 83.4002 116.728 86.2787 116.728 89.9147C116.728 92.8774 115.91 95.3014 114.274 97.1867C112.671 99.0384 110.416 100.284 107.511 100.924L105.908 101.277C105.473 101.378 105.089 101.462 104.755 101.53C104.528 101.555 104.262 101.59 103.958 101.635C103.755 101.665 103.55 101.681 103.345 101.681H99.0951C97.3241 101.681 95.8884 100.246 95.8884 98.4745C95.8884 96.7035 97.3241 95.2677 99.0951 95.2677H102.551C104.889 95.2677 106.642 94.8132 107.811 93.9042C108.98 92.9616 109.565 91.5981 109.565 89.8137C109.565 88.0967 108.98 86.7837 107.811 85.8747C106.642 84.9321 104.889 84.4607 102.551 84.4607H101.542C99.3324 84.4607 97.5416 86.2516 97.5416 88.4607V110.421C97.5416 112.372 95.9603 113.953 94.0098 113.953C92.0593 113.953 90.478 112.372 90.478 110.421V82.0472ZM104.491 102.908C103.525 100.867 104.887 98.4895 107.136 98.2895C108.452 98.1724 109.708 98.866 110.311 100.043L114.896 109.002C116.054 111.265 114.411 113.953 111.868 113.953C110.553 113.953 109.356 113.195 108.794 112.006L104.491 102.908Z" fill="white"/>
<path d="M146.704 95.9747C146.704 92.3387 145.769 89.5612 143.899 87.6422C142.028 85.7232 139.373 84.7637 135.933 84.7637H134.323C132.114 84.7637 130.323 86.5546 130.323 88.7637V103.236C130.323 105.445 132.114 107.236 134.323 107.236H135.933C139.373 107.236 142.028 106.277 143.899 104.358C145.769 102.439 146.704 99.6444 146.704 95.9747ZM151.964 105.671C150.561 108.33 148.524 110.384 145.852 111.832C143.214 113.246 140.041 113.953 136.334 113.953H127.109C124.9 113.953 123.109 112.162 123.109 109.953V82.0472C123.109 79.8381 124.9 78.0472 127.109 78.0472H136.334C140.041 78.0472 143.214 78.7542 145.852 80.1682C148.524 81.5822 150.561 83.6359 151.964 86.3292C153.4 88.9889 154.118 92.2041 154.118 95.9747C154.118 99.7454 153.4 102.977 151.964 105.671Z" fill="white"/>
<path d="M159.849 81.6542C159.849 79.6621 161.464 78.0472 163.456 78.0472C165.448 78.0472 167.063 79.6621 167.063 81.6542V110.346C167.063 112.338 165.448 113.953 163.456 113.953C161.464 113.953 159.849 112.338 159.849 110.346V81.6542Z" fill="white"/>
<defs>
<linearGradient id="paint0_linear_108_33" x1="96" y1="1" x2="96" y2="191" gradientUnits="userSpaceOnUse">
<stop stop-color="#50E5F0"/>
<stop offset="1" stop-color="#42BCC5"/>
</linearGradient>
</defs>
</svg>
