<svg width="192" height="192" viewBox="0 0 192 192" fill="none" xmlns="http://www.w3.org/2000/svg">
<path d="M79.8641 190.494C58.4515 188.98 43.1039 184.514 30.2301 176.052C16.4521 166.996 6.93903 150.04 3.23235 127.931C1.51833 117.708 0.97229 109.739 1.00107 95.3749C1.05247 69.8796 3.78817 54.0812 10.6775 39.5C17.2889 25.507 25.5739 17.2167 39.4783 10.6808C54.2478 3.73821 70.2337 1 95.9953 1C121.757 1 137.743 3.73821 152.512 10.6808C166.404 17.211 174.634 25.4402 181.334 39.5C188.169 53.8448 190.937 69.844 190.999 95.3749C191.075 126.436 186.923 145.115 176.35 161.286C166.477 176.388 148.497 185.963 123.79 189.276C110.91 191.003 93.7794 191.478 79.8641 190.494Z" fill="url(#paint0_linear_108_4)"/>
<path d="M106.349 50.7652C107.762 51.2499 108.022 51.2126 108.505 50.6534C109.026 50.0942 109.435 50.206 114.195 52.4428C116.984 53.7849 119.401 54.9779 119.55 55.127C119.699 55.2761 118.211 58.2585 116.315 61.7255C114.381 65.1925 112.708 68.2494 112.633 68.4358C112.559 68.6595 112.224 68.6222 111.815 68.324C111.406 68.063 109.844 67.2429 108.319 66.46C105.605 65.1179 105.419 65.0807 101.44 65.0807C97.6095 65.0807 97.1632 65.1552 94.932 66.2363C93.3329 67.0192 91.8826 68.1003 90.7298 69.4051C89.7257 70.5235 88.6101 72.2756 88.201 73.394C87.7548 74.6243 87.4944 76.3019 87.4944 78.054C87.4944 80.2535 87.6804 81.1109 88.4985 82.7885C89.1307 84.0188 90.0976 85.2117 91.0273 85.8827C91.8454 86.4419 93.3329 87.1875 94.3742 87.4858C95.3782 87.784 97.3864 88.0077 98.8367 88.0077C100.287 88.0077 102.444 87.7467 103.671 87.4112C104.898 87.113 107.018 86.2928 108.394 85.6591C109.77 84.988 110.848 84.5407 110.811 84.6525C110.788 84.7215 110.157 86.0231 108.396 89.6579L108.395 89.6609C107.299 91.9218 105.767 95.0851 103.671 99.4153L101.812 100.049C100.77 100.385 98.6135 100.832 96.9773 101.056C95.1551 101.242 92.7007 101.242 90.6554 101.056C88.8332 100.869 86.2301 100.385 84.8913 99.9745C83.5526 99.5644 81.4701 98.5951 80.2429 97.775C79.0157 96.9921 77.3794 95.65 76.5985 94.7926C75.8547 93.9352 74.7391 92.2203 74.1069 90.9901C73.4747 89.7598 72.731 87.784 72.4335 86.6283C72.136 85.4354 71.8757 82.9376 71.8757 81.1109C71.8757 79.2842 72.136 76.6747 72.4707 75.3326C72.7682 73.9905 73.4747 71.8283 73.9954 70.4862C74.516 69.1441 75.706 66.8701 76.6357 65.4535C77.5282 64.0368 78.9041 62.1728 79.6479 61.3527C80.3544 60.5325 81.9907 58.9668 83.2179 57.8857C84.4451 56.8046 86.8623 55.2015 88.6101 54.3068C90.3579 53.4121 92.961 52.2937 94.3742 51.8836C95.8245 51.4363 98.7251 50.9144 100.882 50.6907C104.006 50.3552 105.084 50.3552 106.349 50.7652Z" fill="#F5FAFC"/>
<path fill-rule="evenodd" clip-rule="evenodd" d="M33.275 65.6771C33.3493 65.4907 34.9856 62.1356 36.9193 58.1839L40.4522 51.0635L53.0959 51.1753C64.5869 51.3244 65.9257 51.399 67.5991 52.0328C68.6775 52.4801 70.2022 53.5239 71.2063 54.5678C72.5822 55.9098 73.14 56.8418 73.5863 58.4821C73.9582 59.7869 74.1441 61.3154 74.0325 62.4711C73.921 63.5149 73.3632 65.3416 72.7682 66.5346C72.1732 67.7648 70.76 69.6661 69.6072 70.8217C68.4916 71.9774 66.9297 73.2449 66.186 73.655C65.405 74.0651 64.81 74.5124 64.81 74.6988C64.81 74.8479 64.9588 74.9598 65.1819 74.9598C65.405 74.9598 66.1488 75.519 66.8925 76.19C67.6363 76.8238 68.6032 78.054 69.0122 78.8742C69.6816 80.1044 69.7932 81.0364 69.8303 84.0933C69.8303 87.5603 69.756 88.0077 68.6403 90.2445C67.9338 91.7729 66.6694 93.4505 65.2935 94.7926C63.8803 96.1347 62.1697 97.3276 60.3475 98.1851C58.8228 98.8934 56.5544 99.6762 55.3272 99.8999C53.9884 100.161 48.1128 100.31 40.7497 100.31C33.9443 100.31 28.3662 100.198 28.3662 100.049C28.3662 99.8626 30.2999 92.1457 36.9193 66.0126H35.06C34.0187 66.0126 33.2378 65.8635 33.275 65.6771ZM51.2738 64.4469C51.1622 64.7824 50.8275 66.2364 50.5672 67.6157C50.2697 69.0323 50.0094 70.3744 49.9722 70.5981C49.935 70.9336 50.716 71.0082 52.7985 70.859C54.7322 70.7099 56.1454 70.3744 57.0007 69.8898C57.7816 69.4424 58.5254 68.6223 58.8229 67.8394C59.0832 67.1311 59.2319 66.1618 59.1204 65.6399C59.0088 65.118 58.4882 64.4842 57.9676 64.2605C57.4469 63.9996 55.7363 63.7759 54.2488 63.7759C51.906 63.7759 51.4225 63.8877 51.2738 64.4469ZM45.6213 87.1876C45.6569 87.0626 45.7778 86.5871 45.9472 85.9207L45.9475 85.9195C46.1319 85.1945 46.3736 84.244 46.6253 83.2732L47.4807 79.8062H50.9391C54.286 79.8062 54.4347 79.8435 55.5132 80.9246C56.1454 81.5583 56.6288 82.453 56.6288 82.9749C56.6288 83.4969 56.3685 84.3916 56.071 85.0253C55.7735 85.6591 54.8438 86.4792 54.0257 86.8893C52.8357 87.4858 51.7944 87.6349 49.0054 87.6349C46.365 87.6349 45.5097 87.5231 45.6213 87.1876Z" fill="#F5FAFC"/>
<path fill-rule="evenodd" clip-rule="evenodd" d="M123.79 58.1466C121.633 62.061 119.848 65.4535 119.848 65.7144C119.848 66.0499 120.22 66.0872 121.335 65.9008C122.451 65.6771 122.785 65.7517 122.711 66.0872C122.674 66.3482 120.071 71.5673 116.91 77.7185C114.699 82.0726 112.096 87.1551 110.197 90.8639L110.197 90.8648L110.191 90.8755L110.191 90.8762C109.41 92.4016 108.748 93.6938 108.282 94.6062L105.344 100.273L123.009 100.086L126.504 91.8848H137.512L137.884 100.086L152.945 100.273C152.945 98.514 152.649 91.5019 152.279 82.7069L152.279 82.6962C152.194 80.6817 152.105 78.5733 152.015 76.4137C151.494 64.857 151.085 54.4187 151.085 53.2257V51.0635H127.731L123.79 58.1466ZM133.979 74.1024C132.64 77.3084 131.525 80.0671 131.45 80.2535C131.413 80.4026 132.677 80.5145 134.239 80.4772C136.322 80.4026 137.103 80.2162 137.028 79.918C136.991 79.6571 136.954 76.9356 136.917 73.8414C136.917 70.7845 136.768 68.2495 136.656 68.2495C136.508 68.2495 135.318 70.8963 133.979 74.1024Z" fill="#F5FAFC"/>
<path d="M146.511 121.709C147.813 114.141 149.003 107.803 149.077 107.654C149.189 107.505 150.936 107.356 152.945 107.356C155.659 107.356 156.663 107.505 156.663 107.84C156.663 108.101 156.254 110.636 155.771 113.507C155.287 116.378 154.953 118.838 155.027 118.913C155.101 119.024 155.659 118.689 156.217 118.13C156.775 117.608 157.965 116.75 158.895 116.266C160.122 115.632 161.2 115.408 162.985 115.408C164.807 115.408 165.7 115.595 166.704 116.191C167.411 116.639 168.303 117.571 168.638 118.316C169.01 119.062 169.307 120.292 169.307 121.075C169.307 121.858 168.712 125.809 168.006 129.91C167.262 134.011 166.63 137.441 166.555 137.515C166.481 137.552 164.584 137.627 162.353 137.627C159.266 137.627 158.337 137.515 158.411 137.142C158.448 136.844 158.895 134.272 159.452 131.401C159.973 128.531 160.456 125.474 160.494 124.579C160.531 123.349 160.382 122.864 159.824 122.417C159.415 122.156 158.709 121.895 158.225 121.895C157.779 121.895 157.035 122.081 156.552 122.305C156.106 122.491 155.399 123.2 155.027 123.871C154.618 124.579 153.837 127.711 152.015 137.664L143.834 137.59L143.945 136.546C144.02 135.987 145.172 129.314 146.511 121.709Z" fill="#12D1D2"/>
<path d="M30.2256 115.185C29.1099 115.595 27.7712 116.228 27.2506 116.601C26.7299 117.011 25.949 117.981 25.5028 118.763C24.9077 119.77 24.6474 120.851 24.6474 122.193C24.6474 123.312 24.9449 124.728 25.2796 125.511C25.7259 126.443 26.544 127.226 27.8084 127.934C28.8124 128.493 31.2296 129.351 33.1634 129.836C35.06 130.283 36.845 130.917 37.0681 131.178C37.3656 131.55 37.2912 131.811 36.7334 132.221C36.2871 132.52 35.0971 132.743 33.8328 132.743C32.0106 132.706 31.5271 132.557 30.4115 131.588L29.1099 130.469C22.7137 131.401 22.6021 131.476 22.7137 132.371C22.7509 132.855 23.2715 133.862 23.8665 134.57C24.4615 135.316 25.6515 136.248 26.544 136.695C27.4365 137.142 29.2587 137.739 30.5974 137.963C32.0106 138.223 34.2418 138.335 35.9896 138.186C38.2209 138.037 39.4853 137.702 41.01 136.919C42.1256 136.359 43.5387 135.241 44.1709 134.458C45.0262 133.34 45.3237 132.557 45.4353 130.917C45.5469 129.276 45.3981 128.493 44.7659 127.301C44.3197 126.48 43.2784 125.362 42.3859 124.803C41.4562 124.169 39.4481 123.461 37.2912 122.976C35.3575 122.529 33.5353 122.007 33.275 121.746C33.0146 121.522 32.7915 121.075 32.8287 120.702C32.8287 120.292 33.2378 119.956 33.8328 119.807C34.4278 119.695 35.5434 119.658 36.3615 119.77C37.2912 119.919 38.1093 120.329 38.5928 120.926C39.3365 121.82 39.3737 121.82 41.7537 121.298C42.3572 121.164 42.9834 121.03 43.5301 120.912C44.1958 120.769 44.744 120.652 44.989 120.59C45.5097 120.478 45.8444 120.143 45.8444 119.77C45.8444 119.397 45.1006 118.428 44.2453 117.608C43.39 116.788 41.8281 115.818 40.824 115.446C39.7828 115.073 37.44 114.7 35.6178 114.588C32.9031 114.476 31.899 114.551 30.2256 115.185Z" fill="#12D1D2"/>
<path fill-rule="evenodd" clip-rule="evenodd" d="M74.4788 116.154C75.1854 115.781 76.7844 115.334 78.0116 115.185C79.2388 115.035 81.656 114.961 83.4038 115.073C85.1516 115.147 87.3085 115.483 88.2382 115.781C89.1679 116.042 90.3579 116.713 90.9157 117.235C91.5107 117.757 92.1429 118.913 92.366 119.77C92.5891 120.627 92.6635 122.119 92.5148 123.013C92.4398 123.639 92.1635 125.241 91.8436 127.096L91.8425 127.102C91.6866 128.006 91.5203 128.97 91.362 129.91C90.8041 132.967 90.5066 135.726 90.8413 137.925H86.9366C83.8129 137.925 82.9948 137.813 82.846 137.366C82.7344 137.068 82.6601 136.471 82.6601 136.061C82.6601 135.651 82.5485 135.316 82.3626 135.316C82.2138 135.316 81.9163 135.502 81.6932 135.763C81.4701 136.061 80.3544 136.658 79.276 137.142C78.1232 137.664 76.1894 138.112 74.6647 138.223C72.7682 138.373 71.6154 138.298 70.3882 137.851C69.4585 137.515 68.2313 136.695 67.6363 136.024C66.6694 134.868 66.595 134.57 66.7066 132.52C66.8182 130.805 67.0785 129.947 67.8222 128.978C68.3428 128.27 69.3469 127.301 70.0535 126.853C70.8344 126.331 73.326 125.623 76.7101 124.877C79.6851 124.281 82.5857 123.573 83.1435 123.312C83.7013 123.051 84.2591 122.678 84.3335 122.454C84.4079 122.268 84.2219 121.709 83.9244 121.261C83.5154 120.59 83.0691 120.404 81.7304 120.404C80.8007 120.404 79.6851 120.59 79.2016 120.814C78.7554 121.038 78.0488 121.597 77.6397 122.081C76.896 122.902 76.8216 122.902 73.2144 122.491C70.8716 122.23 69.4585 121.932 69.3841 121.634C69.3097 121.373 69.6072 120.627 69.9791 119.956C70.351 119.285 71.2435 118.316 71.9128 117.757C72.6194 117.235 73.7722 116.489 74.4788 116.154ZM80.2429 128.27C79.0157 128.605 77.491 129.202 76.8217 129.537C76.0407 129.91 75.5201 130.544 75.3713 131.178C75.1854 131.998 75.3342 132.333 76.0035 132.892C76.6729 133.414 77.2679 133.526 78.3835 133.377C79.2017 133.265 80.2801 132.855 80.8007 132.445C81.3214 132.072 82.0279 131.327 82.3998 130.842C82.7345 130.357 83.1064 129.425 83.1807 128.754C83.2551 128.009 83.1436 127.561 82.8832 127.561C82.6601 127.599 81.4701 127.897 80.2429 128.27Z" fill="#12D1D2"/>
<path d="M106.497 115.483C105.791 115.856 104.787 116.713 104.266 117.421C103.745 118.167 103.188 118.913 103.039 119.099C102.853 119.323 102.816 118.763 102.964 117.794C103.076 116.899 103.225 116.005 103.262 115.818C103.262 115.669 101.7 115.52 99.7663 115.52C97.2004 115.52 96.1592 115.632 95.9732 116.005C95.8245 116.266 94.8576 121.187 93.8535 126.928C92.8495 132.669 92.1057 137.515 92.1801 137.664C92.2545 137.813 94.0766 137.925 96.2335 137.925C99.9151 137.925 100.175 137.888 100.51 137.105C100.696 136.658 101.217 134.235 101.663 131.774C102.072 129.314 102.741 126.592 103.15 125.735C103.559 124.84 104.303 123.908 104.861 123.61C105.456 123.312 106.72 122.976 107.762 122.827L109.621 122.603C110.402 118.167 110.737 116.415 110.848 115.856C111.109 114.812 111.071 114.812 109.435 114.812C108.505 114.849 107.204 115.147 106.497 115.483Z" fill="#12D1D2"/>
<path fill-rule="evenodd" clip-rule="evenodd" d="M125.984 116.228C126.802 115.818 128.289 115.334 129.33 115.185C130.335 115.035 132.12 114.886 133.235 114.886C134.351 114.849 136.322 114.998 137.586 115.222C138.888 115.408 140.598 115.893 141.416 116.303C142.272 116.75 143.164 117.571 143.536 118.279C143.908 119.024 144.131 120.329 144.131 121.709C144.131 122.939 143.648 126.406 143.09 129.351C142.495 132.632 142.16 135.353 142.495 137.739L138.776 137.664C136.768 137.627 134.909 137.478 134.723 137.366C134.5 137.291 134.351 136.77 134.351 136.248C134.351 135.763 134.276 135.316 134.165 135.316C134.053 135.316 133.347 135.726 132.566 136.248C131.822 136.732 130.186 137.441 128.959 137.739C127.731 138.074 125.872 138.298 124.868 138.298C123.827 138.298 122.339 138 121.521 137.627C120.703 137.254 119.662 136.434 119.178 135.763C118.732 135.129 118.323 133.974 118.323 133.191C118.286 132.408 118.435 131.215 118.658 130.469C118.918 129.761 119.625 128.643 120.294 127.972C120.963 127.338 122.19 126.518 123.009 126.182C123.827 125.847 126.504 125.176 128.959 124.654C131.413 124.169 133.905 123.61 134.537 123.423C135.132 123.237 135.764 122.864 135.913 122.566C136.061 122.305 135.913 121.709 135.615 121.261C135.206 120.59 134.76 120.404 133.421 120.404C132.491 120.404 131.301 120.665 130.706 120.926C130.149 121.224 129.405 121.783 129.07 122.156C128.475 122.79 128.215 122.827 124.794 122.38C122.785 122.119 121.075 121.82 120.963 121.709C120.852 121.597 121.112 120.888 121.521 120.18C121.93 119.434 122.748 118.428 123.38 117.906C123.975 117.384 125.165 116.639 125.984 116.228ZM127.694 129.985C128.141 129.537 129.777 128.866 131.339 128.419C132.901 127.934 134.388 127.561 134.648 127.561C134.909 127.561 135.095 127.748 135.095 128.009C135.095 128.27 134.76 129.202 134.351 130.059C133.942 130.954 133.086 131.961 132.417 132.371C131.748 132.781 130.595 133.228 129.888 133.34C129.033 133.489 128.326 133.377 127.769 132.967C127.285 132.669 126.913 131.998 126.913 131.55C126.913 131.103 127.248 130.395 127.694 129.985Z" fill="#12D1D2"/>
<path d="M45.4725 115.669C45.4725 115.818 47.3319 121.448 49.5631 128.158L53.6538 140.348C52.3894 142.921 52.2406 142.995 49.9722 143.144L47.5922 143.331C46.1047 148.55 45.9931 149.37 46.3278 149.594C46.5881 149.743 48.1872 149.855 49.935 149.855C51.7944 149.892 53.8025 149.631 54.7694 149.333C55.6991 148.997 57.1122 148.214 57.8931 147.543C58.6741 146.872 59.6781 145.642 60.0872 144.822C60.4963 144.002 62.8763 137.18 65.405 129.649C67.9338 122.119 70.0163 115.818 70.0163 115.669C70.0163 115.52 68.2313 115.408 66 115.408L62.021 115.446C58.86 124.803 57.8559 127.487 57.7444 127.487C57.6328 127.487 56.6288 124.803 55.5131 121.522L53.4678 115.52C47.2575 115.408 45.4725 115.52 45.4725 115.669Z" fill="#12D1D2"/>
<path d="M109.844 126.741C110.848 120.926 111.778 115.93 111.852 115.669C111.964 115.334 113.154 115.185 115.943 115.185C119.401 115.185 119.848 115.259 119.848 115.856C119.848 116.228 119.104 121.038 118.174 126.555C117.207 132.11 116.39 137.478 116.242 137.739C116.242 137.739 114.865 137.702 112.113 137.813C110.03 137.888 108.245 137.813 108.171 137.664C108.096 137.515 108.84 132.594 109.844 126.741Z" fill="#12D1D2"/>
<defs>
<linearGradient id="paint0_linear_108_4" x1="96" y1="1" x2="96" y2="191" gradientUnits="userSpaceOnUse">
<stop stop-color="#159AB1"/>
<stop offset="1" stop-color="#1575B1"/>
</linearGradient>
</defs>
</svg>
