<svg width="192" height="192" viewBox="0 0 192 192" fill="none" xmlns="http://www.w3.org/2000/svg">
<path d="M79.8641 190.494C58.4515 188.98 43.1039 184.514 30.2301 176.052C16.4521 166.996 6.93903 150.04 3.23235 127.931C1.51833 117.708 0.97229 109.739 1.00107 95.3749C1.05247 69.8796 3.78817 54.0812 10.6775 39.5C17.2889 25.507 25.5739 17.2167 39.4783 10.6808C54.2478 3.73821 70.2337 1 95.9953 1C121.757 1 137.743 3.73821 152.512 10.6808C166.404 17.211 174.634 25.4402 181.334 39.5C188.169 53.8448 190.937 69.844 190.999 95.3749C191.075 126.436 186.923 145.115 176.35 161.286C166.477 176.388 148.497 185.963 123.79 189.276C110.91 191.003 93.7794 191.478 79.8641 190.494Z" fill="url(#paint0_linear_108_31)"/>
<path d="M101.966 43.1371C101.966 38.938 98.6137 35.5455 94.4638 35.5455C90.3139 35.5455 86.9612 38.938 86.9612 43.1371V92.4825C86.9612 94.5702 85.2731 96.2783 83.2099 96.2783C81.1467 96.2783 79.4586 94.5702 79.4586 92.4825V50.7287C79.4586 46.5296 76.1059 43.1371 71.9561 43.1371C67.8062 43.1371 64.4535 46.5296 64.4535 50.7287V115.257C64.4535 115.613 64.4535 115.993 64.4769 116.349L50.2924 102.684C46.5411 99.0777 40.6093 99.22 37.0222 103.016C33.435 106.812 33.5991 112.814 37.3504 116.443L63.7032 141.828C73.8083 151.578 87.2426 157.011 101.216 157.011H105.718C128.507 157.011 146.982 138.317 146.982 115.257V65.9119C146.982 61.7128 143.629 58.3203 139.479 58.3203C135.329 58.3203 131.977 61.7128 131.977 65.9119V92.4825C131.977 94.5702 130.289 96.2783 128.225 96.2783C126.162 96.2783 124.474 94.5702 124.474 92.4825V50.7287C124.474 46.5296 121.121 43.1371 116.972 43.1371C112.822 43.1371 109.469 46.5296 109.469 50.7287V92.4825C109.469 94.5702 107.781 96.2783 105.718 96.2783C103.654 96.2783 101.966 94.5702 101.966 92.4825V43.1371Z" fill="white"/>
<defs>
<linearGradient id="paint0_linear_108_31" x1="96" y1="1" x2="96" y2="191" gradientUnits="userSpaceOnUse">
<stop stop-color="#EC6062"/>
<stop offset="1" stop-color="#E8383A"/>
</linearGradient>
</defs>
</svg>
