<svg width="192" height="192" viewBox="0 0 192 192" fill="none" xmlns="http://www.w3.org/2000/svg">
<path d="M79.8641 190.494C58.4515 188.98 43.1039 184.514 30.2301 176.052C16.4521 166.996 6.93903 150.04 3.23235 127.931C1.51833 117.708 0.97229 109.739 1.00107 95.3749C1.05247 69.8796 3.78817 54.0812 10.6775 39.5C17.2889 25.507 25.5739 17.2167 39.4783 10.6808C54.2478 3.73821 70.2337 1 95.9953 1C121.757 1 137.743 3.73821 152.512 10.6808C166.404 17.211 174.634 25.4402 181.334 39.5C188.169 53.8448 190.937 69.844 190.999 95.3749C191.075 126.436 186.923 145.115 176.35 161.286C166.477 176.388 148.497 185.963 123.79 189.276C110.91 191.003 93.7794 191.478 79.8641 190.494Z" fill="url(#paint0_linear_108_28)"/>
<path d="M107.988 55.6063L95.8329 71.8594H144.537V120.702H47.1285V71.8594H95.8329L83.5948 55.6063H47.1285C38.198 55.6063 30.9213 62.9036 30.9213 71.8594V120.702C30.9213 129.657 38.198 136.955 47.1285 136.955H144.537C153.468 136.955 160.745 129.657 160.745 120.702V71.8594C160.745 62.9036 153.468 55.6063 144.537 55.6063H107.988Z" fill="white"/>
<path d="M79.543 88.1125H63.3357V104.366H79.543V88.1125Z" fill="white"/>
<path d="M128.247 88.1125H112.04V104.366H128.247V88.1125Z" fill="white"/>
<defs>
<linearGradient id="paint0_linear_108_28" x1="96" y1="1" x2="96" y2="191" gradientUnits="userSpaceOnUse">
<stop stop-color="#1DC07B"/>
<stop offset="1" stop-color="#19A96C"/>
</linearGradient>
</defs>
</svg>
