<svg width="192" height="192" viewBox="0 0 192 192" fill="none" xmlns="http://www.w3.org/2000/svg">
<path d="M79.8641 190.494C58.4515 188.98 43.1039 184.514 30.2301 176.052C16.4521 166.996 6.93903 150.04 3.23235 127.931C1.51833 117.708 0.97229 109.739 1.00107 95.3749C1.05247 69.8796 3.78817 54.0812 10.6775 39.5C17.2889 25.507 25.5739 17.2167 39.4783 10.6808C54.2478 3.73821 70.2337 1 95.9953 1C121.757 1 137.743 3.73821 152.512 10.6808C166.404 17.211 174.634 25.4402 181.334 39.5C188.169 53.8448 190.937 69.844 190.999 95.3749C191.075 126.436 186.923 145.115 176.35 161.286C166.477 176.388 148.497 185.963 123.79 189.276C110.91 191.003 93.7794 191.478 79.8641 190.494Z" fill="url(#paint0_linear_108_5)"/>
<path fill-rule="evenodd" clip-rule="evenodd" d="M30.2301 176.053C43.1039 184.514 58.4515 188.98 79.8641 190.494C93.7794 191.478 110.91 191.003 123.79 189.276C139.065 187.227 151.769 182.786 161.575 176.124L161.288 175.869L161.134 175.738C159.132 174.035 157.024 172.24 154.696 170.795C149.158 167.358 142.373 165.645 135.859 166.091C125.978 166.768 118.213 172.127 110.39 177.527C109.027 178.467 107.663 179.409 106.286 180.327C105.699 180.718 105.112 181.119 104.523 181.522L104.522 181.522C101.573 183.537 98.5681 185.59 95.1722 186.697C92.4021 187.599 88.9854 188.003 86.1307 187.269C85.5993 187.133 85.0281 186.788 84.4566 186.444C83.7325 186.008 83.0079 185.571 82.3634 185.557C81.8255 185.544 81.2045 185.901 80.6082 186.243C80.2327 186.459 79.8668 186.669 79.5379 186.777C77.6688 187.395 75.5997 187.399 73.6986 186.938C68.3007 185.628 65.5057 179.549 66.0076 174.362C66.1013 173.394 66.4194 172.479 66.7345 171.572C67.0209 170.748 67.3049 169.931 67.4157 169.088C67.4848 168.562 67.2756 167.98 67.0725 167.415C66.9531 167.083 66.8357 166.757 66.7782 166.451C66.4576 164.745 66.4943 163.069 66.8157 161.365C68.2547 153.735 76.021 147.834 83.3053 146.107V146.296C75.9636 148.795 70.3119 154.162 70.1169 162.118C70.1092 162.435 70.0838 162.739 70.0589 163.038C70.001 163.733 69.9454 164.399 70.1197 165.132C73.021 162.239 76.5109 160.09 80.2915 158.539V158.728C75.8057 161.474 71.4618 164.559 69.8789 169.841C69.5949 170.789 69.5742 171.747 69.5534 172.711C69.5402 173.322 69.5269 173.936 69.4462 174.55C68.8778 178.88 72.1067 184.61 77.0893 183.885C78.1757 183.727 80.0728 183.259 80.5733 182.132C80.7342 181.77 80.626 181.303 80.5207 180.85C80.4523 180.555 80.3851 180.265 80.3941 180.013C80.4511 178.427 80.6929 176.917 81.4443 175.492C83.4647 171.662 88.1672 168.571 92.3469 167.581V167.769C89.1774 169.089 85.3701 171.594 84.081 174.927C83.654 176.031 83.735 176.986 83.8383 178.129C83.8719 178.501 83.8591 178.862 83.8464 179.219C83.8237 179.862 83.8014 180.492 84.0504 181.143C85.3559 184.558 89.3212 184.569 92.3469 183.929C96.5347 183.044 100.215 180.444 103.751 177.945C104.666 177.299 105.572 176.659 106.474 176.057C107.079 175.654 107.683 175.249 108.287 174.844L108.295 174.839C117.233 168.845 126.142 162.872 137.366 162.872L135.671 159.67H136.801C132.374 152.092 124.954 145.444 115.893 144.224V144.035C123.253 144.621 132.817 149.611 136.989 155.714H137.178C138.034 154.462 138.911 153.244 139.783 152.032L139.785 152.03C141.857 149.152 143.908 146.304 145.613 143.094C145.677 142.972 145.764 142.781 145.869 142.551C146.406 141.366 147.424 139.124 148.42 139.716C149.307 140.244 148.646 142.209 148.27 143.33C148.201 143.535 148.141 143.712 148.103 143.847C147.429 146.196 146.306 148.259 145.187 150.317C144.332 151.89 143.479 153.459 142.829 155.149C143.559 155.358 144.275 155.57 144.983 155.781C148.556 156.841 151.926 157.842 155.826 157.966C160.591 158.118 165.291 156.978 169.568 154.903C169.87 154.77 170.171 154.632 170.47 154.487C175.228 152.183 179.487 148.364 182.697 143.771C186.453 138.396 188.772 131.961 188.772 125.652C188.772 122.088 188.123 118.683 186.942 115.556C183.567 105.173 174.74 96.7545 164.114 94.0987C158.845 92.7819 153.959 93.2468 148.668 93.9301C149.033 95.1701 149.61 96.3125 150.189 97.4591C150.893 98.8525 151.601 100.252 151.933 101.841C151.948 101.91 151.967 101.992 151.988 102.083C152.165 102.848 152.503 104.304 151.657 104.525C150.728 104.769 149.736 102.689 149.141 101.442C148.993 101.13 148.869 100.87 148.777 100.711C146.179 96.2362 143.256 92.1174 139.783 88.2791C131.149 78.7371 117.921 71.0821 105.344 68.2735C101.847 67.4925 98.3721 67.0789 94.8323 66.6576C94.5693 66.6263 94.3059 66.5949 94.0422 66.5634C93.9223 66.549 93.7184 66.5407 93.4681 66.5304C92.4736 66.4897 90.7458 66.419 90.6368 65.8241C90.5235 65.2059 91.5968 64.9703 92.1544 64.8479C92.229 64.8315 92.2949 64.8171 92.3469 64.8041C94.0553 64.3783 96.4754 63.8512 98.1862 64.3568L98.3746 64.1684C98.0309 63.0062 97.8379 61.8008 97.644 60.5897C97.4313 59.2618 97.2176 57.9269 96.8028 56.6338C94.7438 50.2137 90.4684 44.4401 85.0006 40.515C67.2851 27.7979 41.0599 36.7611 35.4387 58.1407C32.8048 68.1588 35.1371 78.967 41.7871 86.9606C41.9462 87.1519 42.1188 87.3628 42.3029 87.588C43.949 89.6001 46.526 92.7504 48.8345 93.2527C49.5596 93.4104 50.1902 92.6105 50.692 91.974C50.8403 91.7859 50.9774 91.612 51.1023 91.4814C52.9516 89.5473 54.9162 87.7354 57.1226 86.2119C57.1976 86.1601 57.2932 86.089 57.4042 86.0064C58.1506 85.451 59.5938 84.3771 60.1755 85.1668C60.6757 85.8458 59.523 86.9548 58.7957 87.6544C58.6131 87.8301 58.4572 87.98 58.3612 88.0908C57.7963 88.7423 57.2148 89.3852 56.6321 90.0294L56.631 90.0305C54.8668 91.9809 53.0919 93.9431 51.7354 96.1905C46.0661 105.583 43.3879 116.86 46.4662 127.648C47.6162 131.677 49.7037 135.533 52.6092 138.573C52.7356 138.705 52.9467 138.889 53.1966 139.108L53.1974 139.108C54.1525 139.943 55.6751 141.272 55.2226 142.092C54.5435 143.321 52.3722 141.637 51.6964 141.113L51.66 141.085C50.9131 140.506 50.1429 139.646 49.3481 138.759C48.0515 137.312 46.6893 135.792 45.2555 135.299C44.7037 135.109 43.9388 135.2 43.2286 135.285C42.8752 135.327 42.535 135.368 42.2417 135.371C33.4887 135.476 24.4601 139.338 17.3774 144.229C15.0906 145.807 13.5367 146.946 10.973 149.498C10.5917 149.877 10.2161 150.264 9.84607 150.656C14.7447 161.736 21.6629 170.421 30.2301 176.053ZM74.2638 47.5922V47.4039C76.5401 45.7871 79.9184 50.1784 80.929 51.9246C83.5473 56.4491 83.4596 64.1253 78.973 67.559C81.0209 60.3423 79.6675 53.041 74.2638 47.5922ZM71.0616 100.146C69.7299 100.578 69.884 102.588 70.0736 103.725C70.5499 106.584 72.5394 109.111 75.5824 109.341C76.3948 109.403 79.7518 108.617 78.9472 107.222C78.6775 106.754 77.7505 106.658 76.9246 106.572C76.4653 106.524 76.0372 106.48 75.7707 106.376C72.9665 105.289 71.0874 103.266 71.0616 100.146ZM95.1724 111.951C96.8405 110.832 98.6202 109.776 100.635 109.459C105.503 108.692 107.929 112.962 107.98 117.287C108.062 124.103 105.504 136.956 97.4328 138.115C91.2895 138.997 83.0622 133.16 83.9249 126.517C84.6738 120.752 90.5922 115.024 95.1724 111.951ZM173.909 112.578C170.294 108.634 162.566 108.516 158.086 110.741C156.335 111.611 154.915 112.654 153.574 114.085L153.544 114.117L153.514 114.148C153.121 114.565 152.443 115.283 152.826 115.869C153.439 116.809 155.267 115.235 156.392 114.265C156.717 113.985 156.983 113.756 157.145 113.652C160.249 111.656 164.361 110.386 168.07 110.966C168.965 111.106 169.841 111.427 170.713 111.746C171.775 112.135 172.831 112.522 173.909 112.578ZM122.304 133.855C124.417 135.517 126.828 135.2 129.271 134.878L129.274 134.878C129.459 134.854 129.646 134.829 129.832 134.805C129.595 136.338 128.019 137.159 126.629 137.539C123.304 138.447 120.053 136.848 118.374 133.864C117.955 133.119 116.713 129.57 118.352 129.446C119.237 129.378 120.138 130.785 120.952 132.057C121.441 132.821 121.899 133.537 122.304 133.855ZM114.009 143.659V143.847H114.762L114.009 143.659ZM115.139 144.035V143.847L115.704 144.035H115.139Z" fill="white"/>
<defs>
<linearGradient id="paint0_linear_108_5" x1="96" y1="1" x2="96" y2="191" gradientUnits="userSpaceOnUse">
<stop stop-color="#00C4C0"/>
<stop offset="1" stop-color="#00A9A6"/>
</linearGradient>
</defs>
</svg>
