<svg width="192" height="192" viewBox="0 0 192 192" fill="none" xmlns="http://www.w3.org/2000/svg">
<path d="M79.8641 190.494C58.4515 188.98 43.1039 184.514 30.2301 176.052C16.4521 166.996 6.93903 150.04 3.23235 127.931C1.51833 117.708 0.97229 109.739 1.00107 95.3749C1.05247 69.8796 3.78817 54.0812 10.6775 39.5C17.2889 25.507 25.5739 17.2167 39.4783 10.6808C54.2478 3.73821 70.2337 1 95.9953 1C121.757 1 137.743 3.73821 152.512 10.6808C166.404 17.211 174.634 25.4402 181.334 39.5C188.169 53.8448 190.937 69.844 190.999 95.3749C191.075 126.436 186.923 145.115 176.35 161.286C166.477 176.388 148.497 185.963 123.79 189.276C110.91 191.003 93.7794 191.478 79.8641 190.494Z" fill="url(#paint0_linear_108_32)"/>
<path d="M22.6929 121.534C22.6987 121.444 24.9807 118.482 27.7644 114.952L32.8258 108.534L40.2104 108.401C44.3682 108.326 48.2069 108.155 48.9951 108.009C53.5759 107.161 56.0777 105.418 57.1117 102.355C57.5922 100.932 57.5974 100.776 57.6642 85.7427L57.7316 70.5669H65.6613H73.591L73.6475 80.7813L73.704 90.9956L76.5325 88.4163C78.0881 86.9977 83.4241 82.4047 88.3903 78.2096L97.4196 70.5824L108.834 70.575C118.519 70.5684 120.201 70.6125 119.931 70.8658C118.988 71.7493 93.6653 90.5767 90.9335 92.4251C87.8948 94.4813 87.735 94.6242 88.1312 94.9337C88.3623 95.1142 90.0082 96.3122 91.7888 97.596C93.5694 98.8797 97.9146 102.237 101.445 105.057L107.863 110.185L107.92 98.9945L107.976 87.8044L116.464 81.4409C124.237 75.6137 124.984 75.1051 125.328 75.4053C125.535 75.5856 129.621 79.138 134.407 83.2996C139.194 87.4612 145.536 92.9811 148.5 95.5661C151.464 98.1511 153.975 100.295 154.079 100.331C154.185 100.367 154.279 93.9018 154.292 85.6446C154.304 77.5315 154.315 70.7304 154.315 70.7304C154.315 70.7304 157.546 70.5672 161.495 70.5672H168.675L168.671 91.9439C168.667 115.223 168.672 115.113 167.442 117.374C166.162 119.725 164.309 120.996 161.441 121.489C159.654 121.797 157.592 121.501 156.08 120.721C155.528 120.437 147.733 113.802 138.758 105.977L122.44 91.7498L122.384 106.724L122.329 121.697H110.351H98.3723L96.6839 120.229C85.1339 110.182 77.857 103.804 75.9572 102.062C74.6835 100.895 73.6012 99.9398 73.552 99.9398C73.5029 99.9398 73.4398 100.356 73.4119 100.864C73.2574 103.673 72.1889 107.507 70.9411 109.731C66.9208 116.894 59.1314 120.604 46.2896 121.47C42.5234 121.724 22.6779 121.778 22.6929 121.534ZM67.1877 121.518C67.3014 121.42 68.0798 120.841 68.9174 120.232C69.7551 119.623 71.1503 118.392 72.0179 117.496L73.5953 115.869V118.783V121.697H70.2881C68.4692 121.697 67.074 121.617 67.1877 121.518Z" fill="url(#paint1_linear_108_32)"/>
<defs>
<linearGradient id="paint0_linear_108_32" x1="96" y1="1" x2="96" y2="191" gradientUnits="userSpaceOnUse">
<stop stop-color="#0FBA62"/>
<stop offset="1" stop-color="#0B904C"/>
</linearGradient>
<linearGradient id="paint1_linear_108_32" x1="115.743" y1="85.6349" x2="143.602" y2="173.949" gradientUnits="userSpaceOnUse">
<stop stop-color="white"/>
<stop offset="1" stop-color="#6689D3"/>
</linearGradient>
</defs>
</svg>
