<svg width="192" height="192" viewBox="0 0 192 192" fill="none" xmlns="http://www.w3.org/2000/svg">
<path d="M79.8641 190.494C58.4515 188.98 43.1039 184.514 30.2301 176.052C16.4521 166.996 6.93903 150.04 3.23235 127.931C1.51833 117.708 0.97229 109.739 1.00107 95.3749C1.05247 69.8796 3.78817 54.0813 10.6775 39.5C17.2889 25.507 25.5739 17.2167 39.4783 10.6808C54.2478 3.73821 70.2337 1 95.9953 1C121.757 1 137.743 3.73821 152.512 10.6808C166.404 17.211 174.634 25.4402 181.334 39.5C188.169 53.8448 190.937 69.844 190.999 95.3749C191.075 126.436 186.923 145.115 176.35 161.286C166.477 176.388 148.497 185.963 123.79 189.276C110.91 191.003 93.7794 191.478 79.8641 190.494Z" fill="url(#paint0_linear_108_177)"/>
<path d="M61.1927 149.499V130.236C61.1927 128.614 61.4408 127.037 61.9369 125.505C63.1094 121.9 64.981 119.016 67.5516 116.853C70.3476 114.465 73.5496 113.271 77.1574 113.271C81.0358 113.271 84.6887 114.871 88.1162 118.07C91.2279 114.871 94.8583 113.271 99.0073 113.271C102.615 113.271 105.84 114.443 108.681 116.786C111.522 119.129 113.416 122.103 114.363 125.708C114.814 127.42 115.04 128.817 115.04 129.898V149.499H105.096V130.439C105.005 129.718 104.96 129.312 104.96 129.222C104.645 127.645 103.991 126.293 102.998 125.167C101.871 123.905 100.563 123.274 99.075 123.274C97.5867 123.274 96.2789 123.905 95.1514 125.167C94.2044 126.293 93.573 127.645 93.2573 129.222C93.2122 129.538 93.1672 129.943 93.122 130.439V149.499H83.1103V130.236C83.0201 129.56 82.975 129.2 82.975 129.155C82.6593 127.578 82.0054 126.226 81.0133 125.099C79.8858 123.883 78.578 123.274 77.0897 123.274C75.376 123.274 73.9329 124.108 72.7604 125.775C71.678 127.262 71.1368 128.907 71.1368 130.709V149.499H61.1927Z" fill="#F36F21"/>
<path d="M117.475 131.385C117.475 126.429 119.234 122.193 122.751 118.678C126.269 115.164 130.486 113.406 135.401 113.406C140.407 113.406 144.692 115.164 148.254 118.678C151.817 122.193 153.598 126.451 153.598 131.453C153.598 136.364 151.817 140.6 148.254 144.159C144.737 147.719 140.497 149.499 135.537 149.499C130.531 149.499 126.269 147.742 122.751 144.227C119.234 140.667 117.475 136.387 117.475 131.385ZM127.419 131.385C127.419 133.638 128.208 135.553 129.787 137.13C131.365 138.707 133.282 139.496 135.537 139.496C137.746 139.496 139.641 138.707 141.219 137.13C142.843 135.508 143.654 133.593 143.654 131.385C143.654 129.177 142.843 127.285 141.219 125.708C139.595 124.131 137.679 123.342 135.469 123.342C133.259 123.342 131.365 124.131 129.787 125.708C128.208 127.285 127.419 129.177 127.419 131.385Z" fill="#F36F21"/>
<path d="M76.4486 69.5626C76.8596 69.1643 77.345 68.6519 77.9052 68.0245C78.4639 67.3971 78.9932 66.6563 79.4933 65.8008C79.9935 64.9452 80.4206 63.9921 80.773 62.9369C81.1269 61.8831 81.3039 60.7572 81.3039 59.5604C81.3039 57.2248 80.8914 55.045 80.068 53.0211C79.2432 50.9985 77.9781 49.2309 76.2714 47.7196C74.5647 46.2112 72.4325 45.0272 69.8715 44.1717C67.3122 43.3177 64.3243 42.8899 60.9122 42.8899H60.8186H51.0082H48.4547H38.4016V53.7872V91.5132V102.732H63.1192C66.7082 102.732 69.8408 102.262 72.5201 101.321C75.1964 100.381 77.4195 99.085 79.1847 97.4321C80.9499 95.7792 82.2589 93.8558 83.1129 91.6619C83.9656 89.4681 84.3925 87.1169 84.3925 84.6085C84.3925 81.2461 83.5983 78.2547 82.0101 75.6316C80.4203 73.0112 78.5662 70.9875 76.4486 69.5626ZM65.5193 53.8552C66.3514 54.1626 67.0461 54.5619 67.5887 55.0647C68.9943 56.3706 69.6977 57.9314 69.6977 59.7471C69.6977 61.3943 69.4038 62.7554 68.8187 63.8332C68.2323 64.9125 67.6458 65.7354 67.0608 66.3019H49.8781V53.1483H60.5586C62.5608 53.1483 64.2089 53.3878 65.5193 53.8552ZM63.7366 76.6585C66.8473 76.6585 69.1522 77.4389 70.6528 78.997C72.064 80.5309 72.7748 82.3409 72.7748 84.4358C72.7748 86.5943 71.969 88.437 70.3573 89.9695C68.7441 91.5019 66.0941 92.2697 62.4013 92.2697H61.0223H49.8781V76.6585H63.7366ZM126.299 76.9575C128.152 75.7324 129.698 74.3076 130.934 72.683C132.169 71.0585 133.081 69.2639 133.67 67.298C134.258 65.3307 134.553 63.3223 134.553 61.27C134.553 58.5917 134.095 56.1273 133.184 53.8752C132.27 51.6246 130.903 49.6871 129.079 48.0624C127.254 46.4379 124.974 45.1702 122.238 44.2581C119.501 43.3474 116.338 42.8899 112.749 42.8899H112.426H88.6504H88.4281V102.732H100.127V80.5055H106.649L122.782 102.732H136.494L119.812 79.7363C122.282 79.1103 124.445 78.1839 126.299 76.9575ZM112.837 53.1486C113.536 53.1485 114.235 53.191 114.929 53.2759C117.014 53.5802 118.718 54.3014 120.031 55.4471C121.819 57.0094 122.712 58.9243 122.712 61.1933C122.713 62.3235 122.52 63.4459 122.14 64.5146C121.766 65.5831 121.15 66.5572 120.338 67.3657C119.517 68.1901 118.462 68.8557 117.174 69.367C115.884 69.8784 114.33 70.1333 112.514 70.1333H100.127V53.1484L112.837 53.1486ZM140.626 42.8899V42.9058L140.274 42.8899H140.174V42.8942V64.8293V80.5465V102.732H152.102V42.8898L140.626 42.8899Z" fill="white"/>
<defs>
<linearGradient id="paint0_linear_108_177" x1="96" y1="1" x2="96" y2="191" gradientUnits="userSpaceOnUse">
<stop stop-color="#0266C1"/>
<stop offset="1" stop-color="#00529C"/>
</linearGradient>
</defs>
</svg>
