<svg width="192" height="192" viewBox="0 0 192 192" fill="none" xmlns="http://www.w3.org/2000/svg">
<path d="M79.8641 190.494C58.4515 188.98 43.1039 184.514 30.2301 176.052C16.4521 166.996 6.93903 150.04 3.23235 127.931C1.51833 117.708 0.97229 109.739 1.00107 95.3749C1.05247 69.8796 3.78817 54.0812 10.6775 39.5C17.2889 25.507 25.5739 17.2167 39.4783 10.6808C54.2478 3.73821 70.2337 1 95.9953 1C121.757 1 137.743 3.73821 152.512 10.6808C166.404 17.211 174.634 25.4402 181.334 39.5C188.169 53.8448 190.937 69.844 190.999 95.3749C191.075 126.436 186.923 145.115 176.35 161.286C166.477 176.388 148.497 185.963 123.79 189.276C110.91 191.003 93.7794 191.478 79.8641 190.494Z" fill="url(#paint0_linear_108_29)"/>
<path d="M153.719 68.0771C153.719 64.4363 153.743 60.8034 153.711 57.1703C153.695 56.5984 152.962 56.244 152.471 56.5097C146.01 59.7156 139.542 62.9216 133.082 66.1276C132.59 64.0333 131.801 61.9953 130.552 60.2393C127.886 56.3245 123.399 53.7146 118.671 53.3682C96.6721 53.3602 74.6654 53.3602 52.6665 53.3682C45.1268 53.5131 38.3362 59.8686 37.6839 67.3763C37.6356 70.8884 37.6596 74.4086 37.6596 77.9205C37.5872 78.7663 38.2315 79.4831 38.9403 79.8618C50.0081 85.3634 61.1002 90.8249 72.168 96.3428C61.1807 101.732 50.2336 107.201 39.2625 112.622C38.4972 112.969 37.6676 113.629 37.6676 114.548C37.6516 118.068 37.6434 121.588 37.6756 125.116C38.2235 132.116 44.1038 138.246 51.0634 139.132C52.4488 139.261 53.8345 139.237 55.2199 139.245H116.746C118.228 139.221 119.734 139.269 121.176 138.874C125.526 137.835 129.36 134.863 131.471 130.924C132.276 129.546 132.631 127.975 133.162 126.493C139.477 129.788 145.93 132.841 152.293 136.047C152.857 136.474 153.776 136.055 153.719 135.314C153.719 131.681 153.727 128.04 153.719 124.399C153.703 123.658 153.139 123.07 152.479 122.804C134.668 113.983 116.866 105.147 99.0563 96.3263C116.899 87.4737 134.757 78.6371 152.599 69.7842C153.268 69.5028 153.768 68.8182 153.719 68.0771ZM121.402 120.734C121.321 122.281 121.7 123.972 120.886 125.382C120.201 126.622 118.808 127.404 117.398 127.388C96.1402 127.396 74.8746 127.388 53.6088 127.388C52.1106 127.444 50.6122 126.606 49.9437 125.261C49.2348 123.916 49.557 122.353 49.5005 120.903C61.5029 114.91 73.5372 108.982 85.5558 103.013C97.5259 108.845 109.456 114.838 121.402 120.734ZM121.393 71.9194C109.472 77.824 97.5499 83.7283 85.6363 89.6409C73.5694 83.7123 61.5431 77.7193 49.4925 71.7502C49.557 70.3163 49.2508 68.778 49.9114 67.4488C50.572 66.0714 52.0784 65.2013 53.6008 65.2578C74.8586 65.2578 96.1162 65.2498 117.374 65.2578C119.315 65.2016 121.144 66.7642 121.361 68.7055C121.45 69.7767 121.402 70.8479 121.393 71.9194Z" fill="white"/>
<defs>
<linearGradient id="paint0_linear_108_29" x1="96" y1="1" x2="96" y2="191" gradientUnits="userSpaceOnUse">
<stop stop-color="#FF764B"/>
<stop offset="1" stop-color="#FF6332"/>
</linearGradient>
</defs>
</svg>
