<svg width="192" height="192" viewBox="0 0 192 192" fill="none" xmlns="http://www.w3.org/2000/svg">
<path d="M79.8641 190.494C58.4515 188.98 43.1039 184.514 30.2301 176.052C16.4521 166.996 6.93903 150.04 3.23235 127.931C1.51833 117.708 0.97229 109.739 1.00107 95.3749C1.05247 69.8796 3.78817 54.0812 10.6775 39.5C17.2889 25.507 25.5739 17.2167 39.4783 10.6808C54.2478 3.73821 70.2337 1 95.9953 1C121.757 1 137.743 3.73821 152.512 10.6808C166.404 17.211 174.634 25.4402 181.334 39.5C188.169 53.8448 190.937 69.844 190.999 95.3749C191.075 126.436 186.923 145.115 176.35 161.286C166.477 176.388 148.497 185.963 123.79 189.276C110.91 191.003 93.7794 191.478 79.8641 190.494Z" fill="url(#paint0_linear_108_30)"/>
<path d="M127.196 59.7347C122.885 54.7619 120.51 48.3769 120.51 41.7672H101.02V120.773C100.873 125.05 99.0873 129.101 96.0395 132.073C92.9917 135.045 88.9203 136.705 84.6843 136.702C75.7278 136.702 68.2851 129.311 68.2851 120.136C68.2851 109.177 78.7553 100.958 89.5409 104.335V84.2011C67.7805 81.2703 48.7322 98.3458 48.7322 120.136C48.7322 141.353 66.1406 156.454 84.6212 156.454C104.426 156.454 120.51 140.206 120.51 120.136V80.0597C128.413 85.7931 137.902 88.8692 147.632 88.8523V69.1645C147.632 69.1645 135.774 69.7379 127.196 59.7347Z" fill="#212121"/>
<path d="M122.745 54.6273C118.475 49.6546 116.121 43.2695 116.122 36.6598H96.8148V115.666C96.669 119.943 94.8999 123.994 91.8807 126.966C88.8615 129.938 84.8283 131.597 80.6321 131.595C71.7597 131.595 64.3869 124.204 64.3869 115.029C64.3869 104.07 74.7588 95.8507 85.4432 99.2276V79.0938C63.887 76.1629 45.0176 93.2384 45.0176 115.029C45.0176 136.246 62.2625 151.346 80.5696 151.346C100.189 151.346 116.122 135.099 116.122 115.029V74.9523C123.951 80.6857 133.35 83.7618 142.989 83.745V64.0571C142.989 64.0571 131.242 64.6305 122.745 54.6273Z" fill="#06E0DB"/>
<path d="M116.594 41.7672C117.48 46.5056 119.589 50.9521 122.745 54.6272C123.557 55.5838 124.4 56.4436 125.258 57.2165C125.852 58.0895 126.499 58.9305 127.196 59.7347C132.375 65.7744 138.75 67.9585 142.989 68.741V83.7448C133.35 83.7617 123.951 80.6856 116.122 74.9522V115.029C116.122 135.099 100.189 151.346 80.5697 151.346C70.5099 151.346 60.7709 146.787 54.0376 139.158C50.7091 133.741 48.7322 127.286 48.7322 120.136C48.7322 99.7259 65.4441 83.4521 85.4432 83.8811V99.2275C74.7588 95.8506 64.3869 104.07 64.3869 115.029C64.3869 120.04 66.5866 124.519 70.0288 127.553C72.7436 132.986 78.3334 136.702 84.6843 136.702C88.9203 136.705 92.9917 135.045 96.0394 132.073C99.0873 129.101 100.873 125.05 101.02 120.773V41.7672H116.594Z" fill="white"/>
<defs>
<linearGradient id="paint0_linear_108_30" x1="96" y1="1" x2="96" y2="191" gradientUnits="userSpaceOnUse">
<stop stop-color="#FF3F73"/>
<stop offset="1" stop-color="#FF0E4F"/>
</linearGradient>
</defs>
</svg>
