<svg width="192" height="192" viewBox="0 0 192 192" fill="none" xmlns="http://www.w3.org/2000/svg">
<path d="M79.8641 190.494C58.4515 188.98 43.1039 184.514 30.2301 176.052C16.4521 166.996 6.93903 150.04 3.23235 127.931C1.51833 117.708 0.97229 109.739 1.00107 95.3749C1.05247 69.8796 3.78817 54.0812 10.6775 39.5C17.2889 25.507 25.5739 17.2167 39.4783 10.6808C54.2478 3.73821 70.2337 1 95.9953 1C121.757 1 137.743 3.73821 152.512 10.6808C166.404 17.211 174.634 25.4402 181.334 39.5C188.169 53.8448 190.937 69.844 190.999 95.3749C191.075 126.436 186.923 145.115 176.35 161.286C166.477 176.388 148.497 185.963 123.79 189.276C110.91 191.003 93.7794 191.478 79.8641 190.494Z" fill="url(#paint0_linear_108_34)"/>
<path d="M90.0595 79.6732C90.0688 79.7474 94.2436 87.2435 99.3183 96.3259C104.393 105.408 108.568 112.849 108.596 112.849C108.623 112.849 112.863 105.427 118.031 96.3538C123.198 87.2899 127.438 79.7938 127.466 79.701C127.521 79.5526 127.308 79.5433 123.708 79.5619L119.895 79.5897C114.737 88.6444 112.223 93.0603 110.989 95.2405C109.746 97.4207 108.688 99.1926 108.642 99.1833C108.596 99.1648 106.183 94.9158 103.289 89.7391C100.394 84.5623 97.9267 80.1556 97.7968 79.933L97.5556 79.5433C90.5512 79.5433 90.0317 79.5619 90.0595 79.6732Z" fill="white"/>
<path fill-rule="evenodd" clip-rule="evenodd" d="M74.0376 79.6454C73.5738 79.6825 72.7667 79.8031 72.2286 79.9144C71.6905 80.0258 70.8555 80.2391 70.3731 80.3968C69.8907 80.5453 69.0279 80.8978 68.4713 81.1576C67.9146 81.4266 67.1632 81.8255 66.8014 82.0482C66.4396 82.2616 65.8365 82.6791 65.4654 82.9667C65.0851 83.2542 64.4357 83.8016 64.0367 84.182C63.6285 84.5623 62.9977 85.2489 62.6266 85.7127C62.2462 86.1766 61.7081 86.9188 61.4205 87.3826C61.1329 87.8465 60.7247 88.5701 60.5206 89.0062C60.3165 89.4422 60.0197 90.1287 59.8712 90.5369C59.7228 90.9451 59.5001 91.678 59.3795 92.1604C59.2589 92.6429 59.1105 93.3572 59.0456 93.7376C58.9713 94.1551 58.9157 95.1477 58.9157 96.2424C58.9157 97.3372 58.9713 98.3298 59.0456 98.7473C59.1105 99.1277 59.2589 99.842 59.3795 100.324C59.5001 100.807 59.7228 101.54 59.8712 101.948C60.0197 102.356 60.3165 103.043 60.5206 103.479C60.7247 103.915 61.1329 104.638 61.4205 105.102C61.7081 105.566 62.2462 106.308 62.6266 106.772C62.9977 107.236 63.6285 107.923 64.0367 108.303C64.4357 108.683 65.0851 109.231 65.4654 109.518C65.8365 109.806 66.4396 110.223 66.8014 110.437C67.1632 110.659 67.9146 111.058 68.4713 111.327C69.0279 111.587 69.8907 111.94 70.3731 112.088C70.8555 112.246 71.6719 112.459 72.1822 112.561C72.6924 112.663 73.6758 112.802 74.3624 112.858C75.3086 112.932 75.9117 112.932 76.8208 112.849C77.4795 112.793 78.4258 112.663 78.9082 112.561C79.3906 112.459 80.1235 112.274 80.5317 112.144C80.94 112.014 81.6265 111.754 82.0625 111.578C82.4985 111.392 83.2593 111.012 83.7695 110.724C84.2705 110.437 85.1054 109.889 85.625 109.5C86.1352 109.11 86.998 108.331 87.5361 107.774C88.0742 107.217 88.7885 106.364 89.1318 105.882C89.4751 105.399 90.0502 104.425 90.4121 103.711C90.7646 102.996 91.2006 101.976 91.3769 101.438C91.5532 100.9 91.7944 99.9812 91.915 99.3967C92.1005 98.469 92.1284 98.0608 92.1284 96.2424C92.1284 94.4241 92.1005 94.0159 91.915 93.0882C91.7944 92.5037 91.5532 91.5853 91.3769 91.0472C91.2006 90.5091 90.7646 89.4886 90.4121 88.7742C90.0502 88.0599 89.4751 87.0858 89.1318 86.6033C88.7885 86.1209 88.0742 85.2674 87.5361 84.7108C86.998 84.1541 86.1352 83.3749 85.625 82.9852C85.1054 82.5956 84.2705 82.0482 83.7695 81.7606C83.2593 81.473 82.4985 81.0926 82.0625 80.9071C81.6265 80.7308 80.94 80.4711 80.5317 80.3412C80.1235 80.2113 79.3906 80.0258 78.9082 79.9237C78.4258 79.8217 77.5445 79.701 76.96 79.6454C76.3755 79.5897 75.6612 79.5526 75.3829 79.5526C75.1045 79.5619 74.5015 79.599 74.0376 79.6454ZM74.2696 86.325C73.9356 86.3714 73.3326 86.492 72.9244 86.5941C72.5162 86.7054 71.7647 86.993 71.2545 87.2342C70.7442 87.4754 69.9928 87.93 69.5846 88.2362C69.1764 88.5423 68.5733 89.0804 68.2486 89.4329C67.9147 89.7855 67.4137 90.4256 67.1354 90.8616C66.857 91.2977 66.486 91.9842 66.319 92.3924C66.152 92.8006 65.9293 93.4685 65.818 93.8767C65.6417 94.5076 65.6139 94.8601 65.6139 96.2425C65.6139 97.6248 65.6417 97.9773 65.818 98.6082C65.9293 99.0164 66.152 99.6843 66.319 100.093C66.486 100.501 66.857 101.187 67.1354 101.623C67.4137 102.059 67.9147 102.699 68.2486 103.052C68.5733 103.405 69.1764 103.943 69.5846 104.249C69.9928 104.555 70.7442 105.009 71.2545 105.251C71.7647 105.492 72.5162 105.78 72.9244 105.891C73.3326 105.993 74.0841 106.132 74.5943 106.188C75.2808 106.262 75.7725 106.262 76.4961 106.188C77.0342 106.123 77.8321 105.974 78.2867 105.844C78.732 105.715 79.4185 105.455 79.8081 105.26C80.2071 105.065 80.7822 104.74 81.0884 104.546C81.3946 104.342 82.0161 103.822 82.4614 103.386C82.916 102.95 83.4819 102.301 83.7232 101.948C83.9736 101.595 84.2983 101.048 84.4468 100.742C84.6045 100.436 84.8364 99.8884 84.9663 99.5359C85.0962 99.1834 85.2632 98.5339 85.3467 98.0979C85.4302 97.6619 85.4951 96.8362 85.4951 96.2425C85.4951 95.6487 85.4302 94.823 85.3467 94.387C85.2632 93.951 85.0962 93.3016 84.9663 92.949C84.8364 92.5872 84.6045 92.0491 84.4468 91.743C84.2983 91.4368 83.9736 90.8895 83.7232 90.5369C83.4819 90.1751 82.916 89.535 82.4614 89.0989C82.0161 88.6629 81.3946 88.1434 81.0884 87.9393C80.7822 87.7445 80.2071 87.4198 79.8081 87.2249C79.4185 87.0301 78.7505 86.7703 78.333 86.6497C77.9063 86.5291 77.1919 86.3807 76.7281 86.325C76.2642 86.2694 75.6612 86.2323 75.3829 86.2323C75.1046 86.2415 74.6036 86.2787 74.2696 86.325Z" fill="white"/>
<path fill-rule="evenodd" clip-rule="evenodd" d="M138.839 79.9144C139.378 79.8031 140.166 79.6825 140.602 79.6454C141.038 79.599 141.641 79.5619 141.947 79.5526C142.254 79.5526 142.986 79.5897 143.571 79.6454C144.155 79.701 145.018 79.8217 145.473 79.9144C145.937 80.0072 146.79 80.2391 147.375 80.434C147.959 80.6195 149.007 81.0648 149.694 81.4081C150.38 81.7606 151.336 82.3358 151.818 82.6791C152.301 83.0223 153.089 83.6717 153.572 84.1356C154.054 84.5995 154.694 85.2581 154.982 85.62C155.279 85.9818 155.743 86.6033 156.012 87.0115C156.29 87.4198 156.689 88.0877 156.902 88.4959C157.116 88.9041 157.44 89.6092 157.626 90.0731C157.812 90.5369 158.081 91.3719 158.229 91.9285C158.377 92.4851 158.572 93.4314 158.656 94.0159C158.767 94.823 158.795 95.4724 158.758 96.7063C158.73 97.5969 158.656 98.6082 158.461 99.5823L132.726 99.6287L133.004 100.278C133.153 100.631 133.542 101.326 133.867 101.809C134.201 102.301 134.776 102.996 135.184 103.386C135.592 103.776 136.186 104.277 136.52 104.499C136.854 104.722 137.504 105.084 137.958 105.297C138.422 105.52 139.127 105.779 139.535 105.891C139.943 105.993 140.695 106.132 141.205 106.188C141.901 106.262 142.374 106.262 143.107 106.188C143.645 106.123 144.397 105.993 144.777 105.882C145.157 105.779 145.853 105.52 146.308 105.297C146.772 105.084 147.458 104.694 147.838 104.425C148.219 104.165 148.766 103.72 149.555 102.922H153.479C155.631 102.922 157.394 102.95 157.394 102.996C157.394 103.033 157.19 103.432 156.949 103.896C156.708 104.36 156.281 105.065 156.012 105.473C155.733 105.882 155.232 106.55 154.889 106.958C154.555 107.366 153.897 108.043 153.442 108.47C152.987 108.887 152.245 109.509 151.781 109.834C151.327 110.168 150.38 110.724 149.694 111.077C149.007 111.42 147.959 111.865 147.375 112.051C146.79 112.246 145.937 112.478 145.473 112.57C145.018 112.663 144.072 112.793 143.385 112.858C142.43 112.942 141.845 112.942 140.927 112.858C140.259 112.802 139.303 112.663 138.793 112.561C138.283 112.459 137.383 112.218 136.798 112.023C136.214 111.828 135.296 111.448 134.757 111.179C134.219 110.91 133.449 110.474 133.041 110.214C132.633 109.945 131.928 109.416 131.464 109.036C131.009 108.655 130.304 107.987 129.905 107.551C129.507 107.125 128.913 106.401 128.588 105.937C128.263 105.473 127.781 104.731 127.53 104.267C127.271 103.803 126.9 103.015 126.696 102.505C126.491 101.994 126.222 101.224 126.102 100.788C125.972 100.352 125.796 99.5823 125.703 99.072C125.573 98.3669 125.536 97.6804 125.536 96.2424C125.536 94.8045 125.573 94.118 125.703 93.4129C125.796 92.9026 125.972 92.1326 126.102 91.6966C126.222 91.2605 126.491 90.4905 126.696 89.9803C126.9 89.47 127.271 88.6815 127.53 88.2176C127.781 87.7537 128.263 87.0115 128.588 86.5477C128.913 86.0838 129.507 85.3602 129.905 84.9334C130.304 84.4974 131.009 83.8294 131.464 83.4491C131.928 83.0687 132.633 82.5399 133.041 82.2709C133.449 82.0111 134.219 81.5751 134.757 81.306C135.296 81.037 136.214 80.6566 136.798 80.4618C137.383 80.267 138.301 80.0258 138.839 79.9144ZM140.881 86.325C140.547 86.3714 139.944 86.492 139.535 86.5941C139.127 86.7054 138.422 86.9652 137.958 87.1878C137.494 87.4012 136.854 87.763 136.52 87.9857C136.186 88.2083 135.592 88.7093 135.184 89.0989C134.776 89.4886 134.201 90.1844 133.867 90.6761C133.542 91.1585 133.153 91.845 133.004 92.2068L132.726 92.8562C147.198 92.8934 151.429 92.8748 151.466 92.8377C151.503 92.7913 151.401 92.4666 151.234 92.1141C151.067 91.7522 150.742 91.1585 150.501 90.7874C150.26 90.4256 149.74 89.7762 149.332 89.3494C148.933 88.932 148.275 88.3568 147.876 88.0784C147.467 87.8001 146.772 87.4012 146.308 87.1878C145.844 86.9652 145.157 86.7054 144.777 86.6034C144.397 86.5013 143.729 86.3714 143.293 86.3158C142.857 86.2694 142.272 86.2323 141.994 86.2323C141.715 86.2415 141.214 86.2787 140.881 86.325Z" fill="white"/>
<path d="M48.8498 79.7474C48.4138 79.7845 47.6438 79.9144 47.1335 80.0165C46.6233 80.1185 45.7698 80.3505 45.2317 80.536C44.6936 80.7123 43.8401 81.0648 43.3298 81.306C42.8196 81.5472 41.8826 82.0946 41.2424 82.5213C40.3425 83.1151 39.8045 83.5697 38.8304 84.5438C38.116 85.2674 37.3182 86.1766 36.9749 86.6683C36.6409 87.1414 36.1492 87.93 35.8895 88.431C35.6204 88.9227 35.2308 89.7483 35.0359 90.2586C34.8318 90.7689 34.5628 91.6224 34.4236 92.1604C34.2938 92.6985 34.1175 93.552 34.0433 94.0623C33.9783 94.5725 33.9134 95.5745 33.9134 96.2888C33.9134 97.0032 33.9783 98.0237 34.0618 98.5618C34.136 99.0999 34.3216 99.9997 34.47 100.556C34.6185 101.113 34.8875 101.948 35.0731 102.412C35.2586 102.876 35.5833 103.581 35.7967 103.989C36.0101 104.397 36.409 105.065 36.6873 105.473C36.9563 105.882 37.4202 106.512 37.7171 106.865C38.0047 107.217 38.6448 107.885 39.1272 108.349C39.6096 108.813 40.3982 109.463 40.8806 109.806C41.3631 110.149 42.2722 110.696 42.9124 111.03C43.5525 111.355 44.4895 111.773 44.9997 111.949C45.51 112.125 46.4099 112.376 46.9944 112.506C47.5788 112.645 48.5622 112.793 49.1745 112.84C49.7868 112.895 51.4846 112.942 52.9597 112.942H55.6222V106.262C51.4196 106.262 49.861 106.225 49.4528 106.169C49.0446 106.123 48.3767 105.993 47.9685 105.891C47.5603 105.779 46.8552 105.52 46.3913 105.306C45.9368 105.084 45.2224 104.685 44.8235 104.406C44.4246 104.128 43.7566 103.544 43.3391 103.108C42.9216 102.672 42.365 101.967 42.096 101.531C41.8269 101.094 41.4929 100.445 41.3445 100.093C41.1961 99.74 40.9827 99.1091 40.8714 98.7009C40.7322 98.1814 40.658 97.5691 40.6209 96.6599C40.5838 95.658 40.6116 95.1756 40.7322 94.5262C40.8157 94.0623 40.992 93.4036 41.1218 93.0418C41.2517 92.68 41.4837 92.1419 41.6414 91.8357C41.7898 91.5296 42.1145 90.9915 42.365 90.6297C42.6062 90.2679 43.2 89.5999 43.6731 89.1453C44.1462 88.6815 44.8513 88.1063 45.2317 87.8651C45.612 87.6331 46.2429 87.2991 46.6233 87.1414C47.0036 86.9837 47.718 86.7425 48.2004 86.6126C49.0539 86.3807 49.1931 86.3714 52.3566 86.3436L55.6222 86.3158V79.6361C50.9836 79.6547 49.2859 79.701 48.8498 79.7474Z" fill="white"/>
<defs>
<linearGradient id="paint0_linear_108_34" x1="96" y1="1" x2="96" y2="191" gradientUnits="userSpaceOnUse">
<stop stop-color="#6B5CD1"/>
<stop offset="1" stop-color="#574CA6"/>
</linearGradient>
</defs>
</svg>
