<svg width="192" height="192" viewBox="0 0 192 192" fill="none" xmlns="http://www.w3.org/2000/svg">
<path d="M79.8641 190.494C58.4515 188.98 43.1039 184.514 30.2301 176.052C16.4521 166.996 6.93903 150.04 3.23235 127.931C1.51833 117.708 0.97229 109.739 1.00107 95.3749C1.05247 69.8796 3.78817 54.0812 10.6775 39.5C17.2889 25.507 25.5739 17.2167 39.4783 10.6808C54.2478 3.73821 70.2337 1 95.9953 1C121.757 1 137.743 3.73821 152.512 10.6808C166.404 17.211 174.634 25.4402 181.334 39.5C188.169 53.8448 190.937 69.844 190.999 95.3749C191.075 126.436 186.923 145.115 176.35 161.286C166.477 176.388 148.497 185.963 123.79 189.276C110.91 191.003 93.7794 191.478 79.8641 190.494Z" fill="url(#paint0_linear_108_35)"/>
<path d="M58.5706 33.4759C59.167 33.3883 60.3305 33.2787 61.1523 33.2349C61.9741 33.1838 62.8395 33.1546 63.0795 33.1692C63.3195 33.1765 64.1195 33.2057 64.8612 33.2203C65.603 33.2422 66.7666 33.3225 67.4429 33.4029C68.1193 33.4832 69.3192 33.6658 70.0974 33.8119C70.8755 33.958 72.0246 34.2063 72.6427 34.367C73.2609 34.5277 74.2426 34.8052 74.8244 34.9951C75.4062 35.1777 76.468 35.5502 77.188 35.8204C77.9079 36.0907 78.9406 36.4924 79.4788 36.7188C80.0169 36.9379 81.1005 37.398 81.8787 37.7413C82.6568 38.0846 83.8349 38.5959 84.4967 38.888C85.1585 39.1802 86.2348 39.6476 86.8966 39.9251C87.5584 40.2027 88.4747 40.5825 88.9329 40.7651C89.391 40.9477 90.1765 41.2398 90.6783 41.4151C91.1801 41.5977 92.1255 41.9045 92.7873 42.1017C93.449 42.2989 94.329 42.5399 94.7508 42.6421C95.1726 42.7444 95.8708 42.8905 96.3144 42.9708C96.758 43.0511 97.5725 43.1753 98.1325 43.2483C98.8306 43.336 99.696 43.3725 100.896 43.3725C101.885 43.3798 102.99 43.336 103.441 43.2849C103.885 43.2337 104.699 43.1096 105.259 43.0073C105.819 42.9051 106.605 42.7444 107.005 42.6421C107.405 42.5399 108.307 42.2623 109.005 42.0286C109.703 41.7949 110.721 41.4151 111.259 41.1887C111.797 40.955 112.663 40.5533 113.186 40.2976C113.71 40.0347 114.539 39.5892 115.041 39.3116C115.543 39.0268 116.328 38.5593 116.786 38.2745C117.244 37.9823 117.673 37.7194 117.732 37.6829C117.826 37.6245 117.826 37.6318 117.732 37.7632C117.673 37.8363 117.397 38.1795 117.113 38.5228C116.837 38.8661 116.226 39.5307 115.768 40.0128C115.31 40.4875 114.59 41.1741 114.168 41.5393C113.746 41.9045 113.026 42.4815 112.568 42.8247C112.11 43.168 111.376 43.6793 110.932 43.9568C110.488 44.2344 109.739 44.6653 109.259 44.9209C108.779 45.1692 107.943 45.5782 107.405 45.812C106.867 46.053 105.914 46.4328 105.296 46.6519C104.678 46.871 103.747 47.1705 103.223 47.3165C102.7 47.4626 101.856 47.6744 101.332 47.7913C100.809 47.9081 99.7979 48.1053 99.0779 48.2295C98.3579 48.3464 97.1652 48.5144 96.4235 48.5947C95.6817 48.675 94.4599 48.7846 93.6963 48.8357C92.9327 48.8868 90.9546 48.9234 89.2965 48.9234C87.6384 48.9234 85.4785 48.8795 84.4967 48.8284C83.5149 48.7773 81.915 48.675 80.9332 48.5947C79.9515 48.5217 79.0061 48.4559 78.8242 48.4559C78.6206 48.4559 78.5261 48.4778 78.5697 48.5217C78.6061 48.5582 79.0206 48.7627 79.4788 48.9672C79.9369 49.179 80.7878 49.5369 81.3696 49.7706C81.9514 50.0043 82.8823 50.3403 83.4422 50.5229C84.0022 50.7055 84.9694 50.9903 85.5876 51.151C86.2057 51.3117 87.1366 51.5235 87.6602 51.6258C88.1838 51.7207 89.1438 51.8741 89.8056 51.9617C90.6274 52.0713 91.5946 52.1297 92.8963 52.1589C94.0018 52.1808 95.2381 52.1662 95.878 52.1151C96.4744 52.0713 97.3761 51.9836 97.8779 51.9179C98.3797 51.8595 99.2306 51.7207 99.7688 51.6258C100.307 51.5235 101.223 51.3263 101.805 51.1875C102.387 51.0488 103.303 50.8077 103.841 50.6471C104.379 50.4937 105.179 50.2453 105.623 50.092C106.067 49.9459 106.867 49.661 107.405 49.4638C107.943 49.2593 108.779 48.9307 109.259 48.7335C109.739 48.529 110.641 48.1346 111.259 47.857C111.877 47.5722 113.186 46.944 114.168 46.4547C115.15 45.9653 116.539 45.235 117.259 44.8406C117.979 44.4462 119.222 43.745 120.022 43.2849C120.822 42.8247 122.51 41.8241 123.768 41.0572C125.026 40.2903 126.451 39.4358 126.931 39.1582C127.411 38.8807 128.378 38.3621 129.077 38.0116C129.775 37.661 130.807 37.1716 131.367 36.9306C131.927 36.6896 132.844 36.3317 133.404 36.1272C133.964 35.93 134.764 35.6597 135.185 35.5356C135.607 35.4187 136.247 35.2434 136.603 35.1631C136.96 35.0754 137.651 34.944 138.131 34.8636C138.611 34.7833 139.411 34.6883 139.912 34.6445C140.414 34.6007 141.2 34.5934 141.658 34.6153C142.116 34.6445 142.887 34.7322 143.367 34.8125C143.847 34.8929 144.581 35.0754 145.003 35.2142C145.425 35.353 145.978 35.5648 146.239 35.6963C146.501 35.8204 146.872 36.0249 147.076 36.1418C147.272 36.2587 147.672 36.5289 147.948 36.7407C148.225 36.9452 148.668 37.325 148.923 37.5806C149.185 37.8363 149.556 38.2453 149.759 38.4863C149.956 38.7273 150.297 39.2021 150.516 39.5453C150.741 39.8886 151.09 40.5314 151.301 40.9696C151.519 41.4078 151.854 42.2623 152.05 42.8686C152.246 43.4675 152.508 44.4389 152.625 45.0232C152.748 45.6075 152.901 46.5423 152.966 47.1047C153.032 47.6671 153.112 48.7335 153.148 49.4785C153.192 50.2965 153.192 51.4213 153.148 52.3269C153.112 53.1522 153.032 54.3647 152.966 55.0293C152.908 55.6939 152.792 56.7092 152.705 57.2935C152.625 57.8778 152.494 58.7323 152.414 59.1924C152.334 59.6526 152.174 60.5071 152.057 61.0914C151.941 61.6757 151.759 62.5303 151.657 62.9904C151.548 63.4505 151.352 64.2905 151.206 64.8529C151.068 65.4152 150.806 66.4013 150.625 67.044C150.443 67.6867 150.188 68.5778 150.057 69.016C149.926 69.4542 149.679 70.243 149.512 70.7689C149.345 71.2948 149.032 72.2297 148.821 72.8505C148.603 73.4713 148.239 74.523 147.999 75.1877C147.759 75.8523 147.367 76.9041 147.127 77.5249C146.887 78.1457 146.479 79.1828 146.218 79.8256C145.956 80.4683 145.498 81.5712 145.199 82.2723C144.901 82.9735 144.239 84.4708 143.73 85.5955C143.221 86.7203 142.429 88.5609 141.97 89.6856C141.512 90.8104 140.632 92.9942 140.007 94.5426C139.389 96.091 138.567 98.158 138.189 99.144C137.811 100.13 137.222 101.671 136.88 102.577C136.538 103.482 136.051 104.812 135.789 105.535C135.527 106.258 134.989 107.799 134.589 108.968C134.196 110.136 133.564 112.072 133.185 113.277C132.815 114.482 132.305 116.162 132.065 117.002C131.825 117.842 131.236 120.047 130.756 121.895C130.269 123.743 129.811 125.503 129.731 125.803C129.651 126.102 129.193 127.862 128.706 129.71C128.226 131.558 127.68 133.61 127.506 134.275C127.324 134.94 126.96 136.232 126.698 137.16C126.437 138.088 126.015 139.534 125.753 140.374C125.499 141.221 125.113 142.433 124.895 143.076C124.684 143.719 124.364 144.654 124.182 145.158C124.008 145.662 123.644 146.611 123.382 147.276C123.128 147.94 122.662 149.043 122.35 149.723C122.044 150.402 121.557 151.388 121.281 151.914C120.997 152.44 120.568 153.184 120.321 153.579C120.073 153.973 119.615 154.645 119.295 155.076C118.975 155.5 118.415 156.15 118.059 156.515C117.702 156.887 117.128 157.391 116.786 157.647C116.444 157.895 115.841 158.261 115.441 158.458C115.041 158.655 114.437 158.881 114.095 158.969C113.688 159.071 113.375 159.108 113.186 159.079C113.026 159.049 112.714 158.947 112.495 158.845C112.277 158.743 111.914 158.516 111.695 158.341C111.477 158.166 111.114 157.837 110.888 157.596C110.663 157.362 110.336 156.99 110.154 156.771C109.972 156.552 109.579 156.011 109.274 155.566C108.976 155.12 108.539 154.433 108.299 154.032C108.059 153.63 107.667 152.922 107.427 152.461C107.179 152.001 106.75 151.118 106.467 150.504C106.183 149.898 105.739 148.875 105.485 148.24C105.23 147.612 104.852 146.618 104.641 146.034C104.43 145.45 104.125 144.566 103.972 144.062C103.812 143.558 103.587 142.769 103.47 142.309C103.354 141.849 103.143 140.958 103.005 140.337C102.874 139.716 102.627 138.562 102.467 137.781C102.307 136.999 101.863 134.779 101.485 132.851C101.1 130.923 100.678 128.805 100.54 128.14C100.401 127.475 100.176 126.409 100.031 125.766C99.8924 125.123 99.6233 123.955 99.4415 123.173C99.2524 122.392 98.9615 121.223 98.787 120.581C98.6124 119.938 98.307 118.915 98.1107 118.316C97.9143 117.71 97.6234 116.943 97.4707 116.6C97.318 116.257 97.0852 115.797 96.9616 115.577C96.838 115.358 96.598 115.052 96.4307 114.898C96.1762 114.672 96.0817 114.628 95.8053 114.628C95.6235 114.628 95.3617 114.679 95.2235 114.738C95.0853 114.796 94.8308 114.986 94.6563 115.154C94.489 115.329 94.2272 115.65 94.0817 115.87C93.9363 116.089 93.6527 116.6 93.4563 117.002C93.2527 117.403 92.9691 118.046 92.8236 118.426C92.6709 118.806 92.4091 119.543 92.2346 120.069L92.1903 120.208C92.0239 120.731 91.7938 121.454 91.6673 121.895C91.5291 122.377 91.2528 123.392 91.0564 124.159C90.8601 124.926 90.5474 126.19 90.3655 126.971C90.1837 127.753 89.951 128.79 89.8419 129.272C89.7401 129.754 89.6019 130.36 89.551 130.623L89.5508 130.624C89.4926 130.887 89.3619 131.478 89.2674 131.938C89.1656 132.398 88.9183 133.596 88.7147 134.604C88.5111 135.604 88.2784 136.722 88.2056 137.087C88.1257 137.452 87.9802 138.153 87.8784 138.657C87.7693 139.161 87.6239 139.862 87.5511 140.228C87.4784 140.593 87.2457 141.659 87.0421 142.601C86.8384 143.544 86.5184 144.909 86.3439 145.632C86.1621 146.355 85.9148 147.29 85.7912 147.714C85.6749 148.138 85.4712 148.758 85.3549 149.102C85.2312 149.445 84.9694 150.117 84.7731 150.599C84.5767 151.081 84.2204 151.87 83.9877 152.352C83.7477 152.834 83.3695 153.528 83.1441 153.886C82.9186 154.244 82.5332 154.784 82.2859 155.083C82.0459 155.383 81.6605 155.777 81.4423 155.953C81.2241 156.128 80.8605 156.369 80.6423 156.478C80.4242 156.588 80.046 156.72 79.806 156.771C79.4715 156.844 79.2606 156.844 78.897 156.778C78.6352 156.727 78.2134 156.588 77.9516 156.471C77.6898 156.347 77.297 156.106 77.0789 155.931C76.8607 155.755 76.4316 155.361 76.1262 155.047C75.828 154.726 75.428 154.273 75.2462 154.032C75.0644 153.791 74.6353 153.17 74.2863 152.644C73.9372 152.118 73.3918 151.315 73.0718 150.855C72.7518 150.394 72.2355 149.591 71.9227 149.065C71.61 148.539 71.0646 147.575 70.7082 146.911C70.3519 146.246 69.8065 145.143 69.4938 144.464C69.1738 143.785 68.752 142.828 68.5556 142.346C68.352 141.864 68.0756 141.192 67.9375 140.848C67.7993 140.505 67.472 139.651 67.2102 138.949C66.9484 138.248 66.4757 136.919 66.1703 135.991C65.8576 135.064 65.3049 133.362 64.9485 132.193C64.5922 131.025 64.1631 129.63 64.0031 129.089C63.8431 128.549 63.0068 125.62 62.1414 122.589C61.2832 119.558 60.3596 116.352 60.0978 115.468C59.836 114.584 59.4724 113.386 59.2906 112.802C59.1088 112.218 58.7452 111.1 58.4906 110.319C58.2288 109.537 57.8216 108.332 57.5743 107.653C57.3343 106.974 56.898 105.805 56.6071 105.06C56.3162 104.315 55.9016 103.285 55.6762 102.759C55.458 102.233 54.6362 100.4 53.8581 98.6693C53.08 96.9383 51.9091 94.36 51.2619 92.9358C50.6146 91.5116 49.5237 89.1086 48.8474 87.6041C48.1638 86.0995 47.2184 83.9595 46.7384 82.8566C46.2584 81.7538 45.6185 80.2565 45.3203 79.5334C45.0221 78.8103 44.5567 77.6929 44.3022 77.0501C44.0404 76.4074 43.6331 75.3703 43.3931 74.7495C43.1531 74.1286 42.6877 72.8651 42.3532 71.9375C42.0259 71.0099 41.5896 69.7464 41.3859 69.1256C41.1896 68.5047 40.9205 67.6648 40.7969 67.2631L40.7968 67.263C40.6805 66.8612 40.4478 66.0579 40.2805 65.4737C40.1205 64.8894 39.8442 63.8084 39.6696 63.0634C39.4951 62.3185 39.2624 61.2813 39.1606 60.7628C39.0588 60.2442 38.9133 59.3823 38.826 58.8638C38.7461 58.3452 38.6297 57.4834 38.5715 56.9648C38.5133 56.4462 38.4406 55.5406 38.4188 54.9563C38.3824 54.0652 38.397 53.7512 38.5279 52.9843C38.6151 52.4803 38.7679 51.728 38.8624 51.3044C38.957 50.8808 39.1533 50.1285 39.2988 49.6245C39.4442 49.1206 39.7424 48.2368 39.9678 47.6525C40.186 47.0682 40.6078 46.1187 40.906 45.5344C41.1969 44.9501 41.6405 44.1467 41.8877 43.745C42.1423 43.3433 42.5713 42.7079 42.8404 42.3354C43.1095 41.9702 43.6404 41.3129 44.004 40.8819C44.3749 40.4583 44.9712 39.8302 45.3348 39.5015C45.6985 39.1655 46.2803 38.6616 46.6439 38.3694C47.0075 38.0773 47.7056 37.5733 48.2074 37.2374C48.7092 36.9087 49.5237 36.4193 50.0255 36.1564C50.5273 35.8935 51.3128 35.521 51.7709 35.3238C52.2291 35.1266 53.0509 34.8125 53.589 34.6372C54.1272 34.4546 54.9344 34.2209 55.3708 34.1187C55.8071 34.0164 56.4616 33.863 56.8252 33.7827C57.1889 33.7023 57.967 33.5636 58.5706 33.4759Z" fill="#F8F9F9"/>
<defs>
<linearGradient id="paint0_linear_108_35" x1="96" y1="1" x2="96" y2="191" gradientUnits="userSpaceOnUse">
<stop stop-color="#59C97E"/>
<stop offset="1" stop-color="#49A467"/>
</linearGradient>
</defs>
</svg>
