<svg width="192" height="192" viewBox="0 0 192 192" fill="none" xmlns="http://www.w3.org/2000/svg">
<path d="M79.8641 190.494C58.4515 188.98 43.1039 184.514 30.2301 176.052C16.4521 166.996 6.93903 150.04 3.23235 127.931C1.51833 117.708 0.97229 109.739 1.00107 95.3749C1.05247 69.8796 3.78817 54.0813 10.6775 39.5C17.2889 25.507 25.5739 17.2167 39.4783 10.6808C54.2478 3.73821 70.2337 1 95.9953 1C121.757 1 137.743 3.73821 152.512 10.6808C166.404 17.211 174.634 25.4402 181.334 39.5C188.169 53.8448 190.937 69.844 190.999 95.3749C191.075 126.436 186.923 145.115 176.35 161.286C166.477 176.388 148.497 185.963 123.79 189.276C110.91 191.003 93.7794 191.478 79.8641 190.494Z" fill="url(#paint0_linear_108_36)"/>
<path d="M108.94 133.549C108.84 133.287 108.936 131.88 109.163 130.269C109.255 129.614 109.398 128.51 109.481 127.815C109.563 127.119 109.731 125.881 109.853 125.063C109.976 124.245 110.077 123.307 110.08 122.98C110.082 122.653 110.18 121.95 110.297 121.418C110.414 120.887 110.512 120.093 110.515 119.655C110.517 119.217 110.615 118.279 110.731 117.572C111.051 115.63 111.263 113.827 111.269 113.006C111.272 112.602 111.371 111.869 111.49 111.378C111.608 110.887 111.707 110.117 111.708 109.667C111.71 109.217 111.782 108.597 111.867 108.288C111.953 107.98 112.084 107.043 112.159 106.206C112.394 103.594 112.602 101.881 112.753 101.339C112.833 101.052 112.898 100.381 112.899 99.849C112.899 99.3167 112.971 98.6473 113.059 98.3615C113.147 98.0757 113.279 97.2394 113.353 96.5031C113.427 95.7668 113.549 94.5411 113.625 93.7794C113.701 93.0177 113.834 91.9802 113.921 91.4738C114.008 90.9675 114.185 89.5826 114.314 88.3964C114.444 87.2101 114.616 85.8045 114.697 85.2727C114.849 84.2714 115.023 82.7525 115.292 80.0665C115.54 77.5859 115.549 77.5506 115.94 77.4523C116.133 77.404 117.485 77.3878 118.946 77.4164C121.921 77.4744 122.277 77.5825 122.993 78.645C123.313 79.119 123.344 79.3193 123.341 80.9172C123.339 81.881 123.29 83.4967 123.232 84.5075L123.126 86.3454L123.499 86.1007C123.705 85.9661 124.112 85.4961 124.404 85.0564C125.162 83.9139 128.074 81.0122 129.56 79.9186C130.714 79.069 133.021 77.8431 134.319 77.3901C136.426 76.6549 139.82 76.6376 141.906 77.3513C145.396 78.5459 147.616 81.0484 148.933 85.2727C149.554 87.2665 149.684 88.3735 149.748 92.2003C149.796 95.0823 149.763 95.9767 149.575 96.7835C149.448 97.3349 149.343 98.0108 149.343 98.2856C149.343 98.9342 148.836 101.065 148.288 102.716C148.05 103.433 147.856 104.085 147.856 104.165C147.856 104.913 144.526 111.131 143.595 112.122C143.442 112.285 143.084 112.72 142.801 113.089C142.517 113.457 142.25 113.791 142.207 113.832C142.164 113.873 141.912 114.158 141.648 114.466C141.222 114.962 140.379 115.744 139.223 116.714C137.421 118.228 134.465 119.642 131.9 120.218C130.852 120.453 127.838 120.413 126.489 120.145C124.392 119.729 122.462 118.812 121.01 117.542C120.54 117.13 120.079 116.819 119.986 116.849C119.893 116.88 119.775 117.335 119.725 117.86C119.456 120.648 119.293 122.1 119.16 122.869C118.945 124.115 118.689 126.07 118.552 127.517C118.247 130.724 117.855 133.306 117.632 133.575C117.511 133.72 116.487 133.765 113.249 133.765C109.695 133.765 109.01 133.73 108.94 133.549ZM129.995 112.919C132.018 112.271 133.989 110.928 135.502 109.165C136.662 107.814 136.736 107.696 137.944 105.266C139.411 102.313 140.325 99.0564 140.485 96.2056C140.536 95.3057 140.613 94.3017 140.657 93.9744C140.769 93.131 140.46 89.8506 140.174 88.8588C139.604 86.8809 138.371 85.2985 136.912 84.673C136.04 84.2993 133.897 84.2655 133.036 84.612C129.727 85.9438 127.197 88.664 124.396 93.9C123.712 95.1795 123.385 95.9051 122.787 97.47C122.678 97.7563 122.416 98.4371 122.206 98.9828C121.943 99.6672 121.824 100.267 121.822 100.917C121.821 101.434 121.723 102.26 121.604 102.751C121.486 103.241 121.385 104.011 121.38 104.461C121.375 104.911 121.307 105.547 121.228 105.874C121.15 106.201 121.012 107.258 120.921 108.221L120.756 109.973L121.316 110.601C122.025 111.398 123.301 112.207 124.353 112.528C124.803 112.665 125.372 112.842 125.618 112.921C126.248 113.124 129.359 113.122 129.995 112.919ZM46.166 130.27C46.119 130.147 46.1226 129.762 46.174 129.414C46.2254 129.066 46.3275 128.179 46.401 127.443C46.4744 126.706 46.6051 125.803 46.6914 125.435C46.7778 125.066 46.8501 124.351 46.8521 123.845C46.8543 123.339 46.9281 122.737 47.0165 122.507C47.1049 122.276 47.2366 121.385 47.3091 120.526C47.3817 119.667 47.5464 118.194 47.6752 117.253C47.804 116.313 47.9642 114.899 48.0313 114.112C48.0983 113.325 48.2025 112.601 48.2628 112.503C48.3232 112.406 48.4262 111.677 48.4916 110.885C48.6546 108.913 48.9262 106.473 49.0824 105.577C49.3059 104.295 49.6882 101.138 49.6859 100.594C49.6847 100.307 49.7536 99.821 49.8391 99.513C49.9247 99.2049 50.0559 98.3348 50.1307 97.5793C50.4011 94.8498 50.5688 93.3617 50.7127 92.4126C50.7934 91.8808 50.9336 90.7429 51.0244 89.8839C51.1151 89.0248 51.2549 87.7653 51.335 87.0849C51.5189 85.523 51.452 85.3065 50.752 85.1973C47.6373 84.7114 46.8207 84.4311 46.3278 83.6788C46.1177 83.3581 46.0917 83.1048 46.1795 82.236C46.2382 81.6563 46.3312 80.6271 46.3862 79.9488C46.4549 79.1031 46.5561 78.6713 46.7082 78.5751C46.8302 78.498 48.1472 78.4338 49.6347 78.4325C52.689 78.4297 52.4153 78.5547 52.5771 77.0915C53.2058 71.4037 55.5726 66.6877 59.4249 63.4467C59.9976 62.9649 60.8343 62.3475 61.2843 62.0747C62.5631 61.2993 65.3013 60.1834 66.4313 59.977C68.6677 59.5685 73.1629 59.6615 73.9241 60.132C74.1092 60.2464 73.9645 61.9146 73.5728 64.1825C73.2368 66.1275 73.3162 66.0554 71.436 66.1236C69.1197 66.2077 67.8312 66.6044 66.0571 67.7796C63.7731 69.2926 62.2116 71.9077 61.6073 75.2322C61.3092 76.8718 61.2581 77.6089 61.4144 78.0147L61.5694 78.4171L65.8077 78.4609C68.5253 78.4889 70.1022 78.561 70.2027 78.6616C70.3121 78.7712 70.3133 79.3326 70.2066 80.521C69.8472 84.5241 69.7927 84.8829 69.5124 85.0899C69.2983 85.2478 68.3723 85.2805 65.049 85.2473C62.7427 85.2242 60.8059 85.2553 60.7449 85.3162C60.6324 85.4287 60.5251 86.1515 60.2437 88.6939C60.1577 89.4711 59.9263 91.3118 59.7296 92.7844C59.3822 95.3843 59.1677 97.101 58.9024 99.4037C58.6664 101.452 58.3131 104.37 58.1008 106.023C57.805 108.327 57.7755 108.564 57.2672 112.717C56.6588 117.687 56.3643 119.48 55.8501 121.344C55.7372 121.753 55.4316 122.991 55.1709 124.096C54.3725 127.479 54.0892 128.175 53.0587 129.289C52.1613 130.259 51.2889 130.492 48.5561 130.492C46.6475 130.492 46.2367 130.454 46.166 130.27ZM72.2118 119.625C72.0973 119.439 72.2176 117.925 72.5122 115.84C72.6279 115.022 72.8291 113.215 72.9593 111.824C73.0896 110.433 73.2599 108.994 73.3378 108.626C73.4706 107.998 73.6075 106.803 73.9343 103.42C74.0093 102.643 74.1374 101.739 74.2189 101.412C74.3003 101.085 74.3686 100.415 74.3705 99.9233C74.3722 99.4319 74.4437 98.796 74.5289 98.5102C74.6141 98.2244 74.7467 97.3212 74.8237 96.5031C74.9007 95.685 75.0681 94.2459 75.1957 93.305C75.3232 92.3642 75.4925 90.9277 75.5719 90.1127C75.6513 89.2977 75.782 88.3941 75.8624 88.1046C75.9428 87.8151 76.0114 87.2436 76.0147 86.8345C76.0181 86.4255 76.1164 85.6557 76.2334 85.1239C76.3504 84.5921 76.4484 83.7096 76.4513 83.1627C76.4541 82.6158 76.5263 81.9848 76.6116 81.7605C76.7569 81.3784 76.9394 80.0065 77.1933 77.389C77.2528 76.7754 77.379 75.8049 77.4737 75.2322C77.8033 73.2388 78.0928 71.0082 78.0928 70.4618C78.0928 70.1593 78.1554 69.6697 78.232 69.3739C78.3086 69.0781 78.4789 67.9659 78.6104 66.9023C78.7419 65.8388 78.9439 64.2992 79.0592 63.4811C79.1745 62.663 79.3436 61.4335 79.4349 60.7488C79.5263 60.0642 79.6616 59.3447 79.7357 59.1498L79.8704 58.7956H84.1033C88.9956 58.7956 88.6152 58.6475 88.3452 60.4459C88.0255 62.5746 87.9135 63.4966 87.7685 65.1917C87.6881 66.1325 87.5532 67.1361 87.4687 67.4219C87.3842 67.7077 87.3151 68.2772 87.3151 68.6873C87.3151 69.0974 87.2465 69.6668 87.1625 69.9526C87.0786 70.2384 86.9423 71.2086 86.8596 72.1085C86.5761 75.1947 86.4435 76.2741 86.2844 76.7931C86.1968 77.0789 86.1243 77.7817 86.1234 78.3549C86.1223 78.9281 86.0228 79.7653 85.902 80.2152C85.7812 80.6652 85.6816 81.368 85.6806 81.7771C85.6795 82.1862 85.5785 83.0455 85.4557 83.6867C85.333 84.328 85.2327 85.1272 85.2327 85.4627C85.2327 85.7983 85.1688 86.4451 85.0908 86.8999C84.9093 87.9574 84.6475 90.0324 84.4796 91.7432C84.4073 92.4795 84.2428 93.8517 84.1141 94.7925C83.9854 95.7334 83.8192 97.1542 83.7448 97.9499C83.6704 98.7456 83.5421 99.7831 83.4596 100.255C83.2722 101.328 83.0006 103.421 82.8464 104.982C82.7817 105.636 82.6208 106.975 82.4888 107.957C82.3569 108.938 82.1852 110.445 82.1074 111.304C82.0295 112.163 81.8976 113.099 81.8143 113.385C81.7309 113.671 81.6614 114.206 81.6598 114.575C81.6581 114.944 81.5601 115.781 81.4418 116.435C81.3236 117.09 81.2245 117.981 81.2217 118.416C81.2121 119.873 81.5192 119.782 76.6088 119.782C73.7428 119.782 72.2767 119.73 72.2118 119.625ZM91.5322 119.555C91.4842 119.43 91.4817 118.944 91.5266 118.476C91.762 116.026 91.9386 114.59 92.0701 114.055C92.1507 113.728 92.2182 113.112 92.2202 112.687C92.2218 112.261 92.2889 111.592 92.3685 111.199C92.4481 110.807 92.5831 109.749 92.6685 108.849C92.7539 107.949 92.9268 106.477 93.0529 105.577C93.1789 104.677 93.3413 103.305 93.4138 102.527C93.4864 101.75 93.6866 100.077 93.8587 98.8087C94.0309 97.5407 94.2306 95.7851 94.3024 94.9075C94.3743 94.0299 94.4714 93.25 94.5181 93.1744C94.6006 93.041 94.7701 91.534 95.0471 88.4708C95.1211 87.6526 95.2508 86.7155 95.3353 86.3883C95.4199 86.061 95.491 85.4251 95.4934 84.9752C95.4957 84.5252 95.5622 83.9228 95.6409 83.6365C95.7197 83.3501 95.8542 82.3461 95.9399 81.4052C96.1979 78.5717 96.3378 77.7941 96.6275 77.5822C96.8287 77.4351 97.8346 77.3895 100.842 77.3911C103.015 77.3922 104.951 77.4353 105.144 77.487C105.475 77.5757 105.49 77.6301 105.415 78.489C105.237 80.5358 105.01 82.4069 104.872 82.9671C104.792 83.2943 104.724 83.9225 104.722 84.363C104.72 84.8035 104.653 85.5733 104.574 86.0736C104.407 87.1227 104.094 89.5321 103.751 92.4126C103.619 93.517 103.416 95.1904 103.301 96.1313C103.185 97.0721 103.06 98.1431 103.023 98.5112C102.986 98.8794 102.848 99.9504 102.715 100.891C102.582 101.832 102.415 103.338 102.344 104.238C102.273 105.138 102.142 106.108 102.053 106.394C101.965 106.68 101.892 107.256 101.892 107.675C101.892 108.094 101.821 108.797 101.733 109.238C101.577 110.023 101.458 111.012 101.152 114.107C101.068 114.954 100.967 115.699 100.927 115.763C100.888 115.827 100.786 116.668 100.702 117.633C100.617 118.597 100.474 119.476 100.384 119.584C100.254 119.741 99.3154 119.782 95.9195 119.782C92.1982 119.782 91.6077 119.752 91.5322 119.555ZM100.479 70.7223C99.2854 70.2774 98.8656 70.0156 98.2158 69.3107C97.3417 68.3624 96.8637 67.5477 96.61 66.5735C95.9787 64.1498 96.7595 61.8182 98.76 60.1534C99.8664 59.2326 100.872 58.8748 102.339 58.8797C103.32 58.8831 103.591 58.9501 104.59 59.438C105.936 60.0951 106.859 61.0108 107.559 62.3839C108.013 63.2737 108.043 63.4289 108.047 64.8942C108.05 66.2913 108.007 66.5502 107.638 67.3485C107.119 68.4725 105.967 69.6652 104.725 70.3638C103.863 70.8486 103.634 70.9091 102.494 70.9518C101.529 70.988 101.044 70.9328 100.479 70.7223Z" fill="white"/>
<defs>
<linearGradient id="paint0_linear_108_36" x1="96" y1="1" x2="96" y2="191" gradientUnits="userSpaceOnUse">
<stop stop-color="#FF7D5F"/>
<stop offset="1" stop-color="#FD6542"/>
</linearGradient>
</defs>
</svg>
