<svg width="192" height="192" viewBox="0 0 192 192" fill="none" xmlns="http://www.w3.org/2000/svg">
<path d="M79.8641 190.494C58.4515 188.98 43.1039 184.514 30.2301 176.052C16.4521 166.996 6.93903 150.04 3.23235 127.931C1.51833 117.708 0.97229 109.739 1.00107 95.3749C1.05247 69.8796 3.78817 54.0812 10.6775 39.5C17.2889 25.507 25.5739 17.2167 39.4783 10.6808C54.2478 3.73821 70.2337 1 95.9953 1C121.757 1 137.743 3.73821 152.512 10.6808C166.404 17.211 174.634 25.4402 181.334 39.5C188.169 53.8448 190.937 69.844 190.999 95.3749C191.075 126.436 186.923 145.115 176.35 161.286C166.477 176.388 148.497 185.963 123.79 189.276C110.91 191.003 93.7794 191.478 79.8641 190.494Z" fill="url(#paint0_linear_108_95)"/>
<path d="M96.0001 32.4172C87.4539 32.4172 78.9913 34.1027 71.0956 37.3773C63.1999 40.652 56.0256 45.4517 49.9825 51.5025C37.7779 63.7226 30.9214 80.2966 30.9214 97.5785C30.9214 126.38 49.599 150.815 75.4352 159.482C78.6892 160.003 79.7304 157.983 79.7304 156.224V145.211C61.7036 149.121 57.864 136.48 57.864 136.48C54.8704 128.921 50.6402 126.901 50.6402 126.901C44.7181 122.861 51.0958 122.991 51.0958 122.991C57.6037 123.447 61.0528 129.703 61.0528 129.703C66.7147 139.607 76.2813 136.675 79.9908 135.111C80.5765 130.876 82.2685 128.009 84.0907 126.38C69.6432 124.751 54.4799 119.147 54.4799 94.3204C54.4799 87.0875 56.9529 81.2882 61.183 76.6617C60.5322 75.0327 58.2545 68.2559 61.8338 59.4592C61.8338 59.4592 67.3004 57.6998 79.7304 66.1056C84.8717 64.6721 90.4684 63.9553 96.0001 63.9553C101.532 63.9553 107.129 64.6721 112.27 66.1056C124.7 57.6998 130.166 59.4592 130.166 59.4592C133.746 68.2559 131.468 75.0327 130.817 76.6617C135.047 81.2882 137.52 87.0875 137.52 94.3204C137.52 119.212 122.292 124.686 107.779 126.315C110.122 128.335 112.27 132.309 112.27 138.369V156.224C112.27 157.983 113.311 160.068 116.63 159.482C142.466 150.75 161.079 126.38 161.079 97.5785C161.079 89.0214 159.396 80.5481 156.125 72.6423C152.855 64.7366 148.061 57.5533 142.018 51.5025C135.975 45.4517 128.8 40.652 120.905 37.3773C113.009 34.1027 104.546 32.4172 96.0001 32.4172Z" fill="white"/>
<defs>
<linearGradient id="paint0_linear_108_95" x1="96" y1="1" x2="96" y2="191" gradientUnits="userSpaceOnUse">
<stop stop-color="#1C1C1C"/>
<stop offset="1"/>
</linearGradient>
</defs>
</svg>
