<svg width="192" height="192" viewBox="0 0 192 192" fill="none" xmlns="http://www.w3.org/2000/svg">
<path d="M79.8641 190.494C58.4515 188.98 43.1039 184.514 30.2301 176.052C16.4521 166.996 6.93903 150.04 3.23235 127.931C1.51833 117.708 0.97229 109.739 1.00107 95.3749C1.05247 69.8796 3.78817 54.0812 10.6775 39.5C17.2889 25.507 25.5739 17.2167 39.4783 10.6808C54.2478 3.73821 70.2337 1 95.9953 1C121.757 1 137.743 3.73821 152.512 10.6808C166.404 17.211 174.634 25.4402 181.334 39.5C188.169 53.8448 190.937 69.844 190.999 95.3749C191.075 126.436 186.923 145.115 176.35 161.286C166.477 176.388 148.497 185.963 123.79 189.276C110.91 191.003 93.7794 191.478 79.8641 190.494Z" fill="url(#paint0_linear_108_46)"/>
<path d="M77.0856 43.1916L96.4637 76.7554L96.4576 76.7449L116.809 112.038L156.968 112.038C156.793 111.43 156.55 110.841 156.228 110.277C151.768 102.464 145.079 90.6062 138.432 78.822L138.429 78.8183C131.94 67.3138 125.491 55.8804 121.194 48.3509C120.358 46.8852 117.992 45.0015 115.837 43.5838C113.836 42.4154 111.003 41.7234 108.259 41.6364C100.625 41.382 88.2498 41.2794 81.5891 41.5689C80.3255 41.6239 78.0895 42.6644 77.0856 43.1916Z" fill="white"/>
<path d="M157.324 115.449H118.776L118.792 115.477H78.148L58.1517 150.111C59.4606 150.524 60.6971 150.759 61.6437 150.759C70.3933 150.759 83.6808 150.695 97.0123 150.63L97.0225 150.63C110.442 150.565 123.904 150.5 132.827 150.5C134.656 150.5 136.368 149.876 137.904 148.9L137.91 148.895C140.388 147.322 142.406 144.829 143.717 142.534C146.677 137.357 151.681 128.738 155.133 122.903C156.736 120.191 157.36 117.756 157.322 115.479H157.323C157.323 115.469 157.324 115.459 157.324 115.449Z" fill="white"/>
<path d="M54.9267 148.796L54.9445 148.779C54.3698 148.42 51.5724 146.672 50.7974 145.455C47.2183 139.833 41.1255 129.071 37.5243 122.338C36.2319 119.919 35.407 117.798 35.4262 115.479H35.4209C35.3317 113.662 35.7639 111.857 36.6668 110.277C41.0909 102.524 47.7114 90.786 54.3081 79.0903L54.3085 79.0896C60.849 67.4936 67.3662 55.939 71.6963 48.3497C72.216 47.44 73.1243 46.3535 74.2544 45.3214L94.4303 80.267L74.1636 115.477L54.9267 148.796Z" fill="white"/>
<defs>
<linearGradient id="paint0_linear_108_46" x1="96" y1="1" x2="96" y2="191" gradientUnits="userSpaceOnUse">
<stop stop-color="#FF5241"/>
<stop offset="1" stop-color="#D34436"/>
</linearGradient>
</defs>
</svg>
