<svg width="192" height="192" viewBox="0 0 192 192" fill="none" xmlns="http://www.w3.org/2000/svg">
<path d="M79.8641 190.494C58.4515 188.98 43.1039 184.514 30.2301 176.052C16.4521 166.996 6.93903 150.04 3.23235 127.931C1.51833 117.708 0.97229 109.739 1.00107 95.3749C1.05247 69.8796 3.78817 54.0812 10.6775 39.5C17.2889 25.507 25.5739 17.2167 39.4783 10.6808C54.2478 3.73821 70.2337 1 95.9953 1C121.757 1 137.743 3.73821 152.512 10.6808C166.404 17.211 174.634 25.4402 181.334 39.5C188.169 53.8448 190.937 69.844 190.999 95.3749C191.075 126.436 186.923 145.115 176.35 161.286C166.477 176.388 148.497 185.963 123.79 189.276C110.91 191.003 93.7794 191.478 79.8641 190.494Z" fill="url(#paint0_linear_108_44)"/>
<path d="M7.68256 46.6299H65.8984C76.8164 46.6294 87.4394 50.1779 96.1416 56.74C104.837 63.2972 111.139 72.5048 114.075 82.962L132.417 146.242C132.574 146.784 132.654 147.345 132.654 147.908C132.654 159.105 123.536 166.145 115.481 170.016C107.073 174.056 97.142 176.039 90.4832 176.039C88.5319 176.039 88.1322 176.039 85.5831 173.49C83.034 170.941 64.9375 144.04 64.9375 144.04H7.25911C5.96356 140.268 4.87549 136.272 4.00647 132.071H68.0506C70.0019 132.071 71.8306 133.023 72.9507 134.62L93.4827 163.909C98.2997 163.432 104.747 161.895 110.297 159.228C117.014 156 120.268 152.252 120.647 148.628L102.573 86.2687C102.568 86.2516 102.563 86.2344 102.558 86.2172C100.336 78.2863 95.5547 71.2873 88.9357 66.2961C82.3159 61.3044 74.2245 58.598 65.899 58.5984H4.20463C5.13566 54.3614 6.28738 50.4157 7.68256 46.6299Z" fill="white"/>
<path d="M68.0508 104.044C62.9281 104.044 58.7509 108.169 58.7509 113.287C58.7509 118.406 62.9281 122.531 68.0508 122.531C73.1735 122.531 77.3507 118.406 77.3507 113.287C77.3507 108.169 73.1735 104.044 68.0508 104.044Z" fill="#99D7E8"/>
<path d="M68.0508 69.6357C62.9281 69.6357 58.7509 73.7606 58.7509 78.879C58.7509 83.9974 62.9281 88.1222 68.0508 88.1222C73.1735 88.1222 77.3507 83.9974 77.3507 78.879C77.3507 73.7606 73.1735 69.6357 68.0508 69.6357Z" fill="#EDECD9"/>
<path d="M50.7089 86.8401C45.5862 86.8401 41.4089 90.965 41.4089 96.0833C41.4089 101.202 45.5862 105.327 50.7089 105.327C55.8315 105.327 60.0088 101.202 60.0088 96.0833C60.0088 90.965 55.8315 86.8401 50.7089 86.8401Z" fill="#E2DFFF"/>
<path d="M85.3816 86.8401C80.2589 86.8401 76.0817 90.965 76.0817 96.0833C76.0817 101.202 80.2589 105.327 85.3816 105.327C90.5042 105.327 94.6815 101.202 94.6815 96.0833C94.6815 90.965 90.5042 86.8401 85.3816 86.8401Z" fill="#F1E2E0"/>
<defs>
<linearGradient id="paint0_linear_108_44" x1="96" y1="1" x2="96" y2="191" gradientUnits="userSpaceOnUse">
<stop stop-color="#BB268E"/>
<stop offset="1" stop-color="#981C6F"/>
</linearGradient>
</defs>
</svg>
