<svg width="192" height="192" viewBox="0 0 192 192" fill="none" xmlns="http://www.w3.org/2000/svg">
<path d="M79.8641 190.494C58.4515 188.98 43.1039 184.514 30.2301 176.052C16.4521 166.996 6.93903 150.04 3.23235 127.931C1.51833 117.708 0.97229 109.739 1.00107 95.3749C1.05247 69.8796 3.78817 54.0812 10.6775 39.5C17.2889 25.507 25.5739 17.2167 39.4783 10.6808C54.2478 3.73821 70.2337 1 95.9953 1C121.757 1 137.743 3.73821 152.512 10.6808C166.404 17.211 174.634 25.4402 181.334 39.5C188.169 53.8448 190.937 69.844 190.999 95.3749C191.075 126.436 186.923 145.115 176.35 161.286C166.477 176.388 148.497 185.963 123.79 189.276C110.91 191.003 93.7794 191.478 79.8641 190.494Z" fill="url(#paint0_linear_118_494)"/>
<mask id="path-2-outside-1_118_494" maskUnits="userSpaceOnUse" x="34.4094" y="33.6614" width="123" height="124" fill="black">
<rect fill="white" x="34.4094" y="33.6614" width="123" height="124"/>
<path fill-rule="evenodd" clip-rule="evenodd" d="M71.5393 43.6932C71.1401 43.6932 70.7572 43.8518 70.4749 44.1341C70.1925 44.4164 70.0339 44.7992 70.0339 45.1985V82.4862C70.0339 82.7427 70.0995 82.995 70.2244 83.219C70.3492 83.4431 70.5293 83.6315 70.7475 83.7664L95.626 99.1589L120.504 83.7672C120.723 83.6322 120.903 83.4437 121.028 83.2195C121.153 82.9952 121.218 82.7428 121.218 82.4862V45.1985C121.218 44.7992 121.059 44.4164 120.777 44.1341C120.495 43.8518 120.112 43.6932 119.713 43.6932H71.5393ZM61.0014 45.1985C61.0014 39.379 65.7194 34.6614 71.5393 34.6614H119.713C125.532 34.6614 130.25 39.379 130.25 45.1985V82.4862C130.251 84.2815 129.792 86.0471 128.918 87.6153C128.044 89.1836 126.784 90.5026 125.257 91.4472L99.5867 107.33C98.3968 108.066 97.0252 108.456 95.626 108.456C94.2267 108.456 92.8551 108.066 91.6652 107.33L65.9949 91.4472C64.4681 90.5026 63.2079 89.1836 62.334 87.6153C61.4601 86.0471 61.0014 84.2815 61.0014 82.4862V45.1985ZM47.4527 90.3574C46.6542 90.3574 45.8884 90.6746 45.3238 91.2392C44.7591 91.8038 44.4419 92.5695 44.4419 93.368V144.548C44.4419 145.347 44.7591 146.112 45.3238 146.677C45.8884 147.242 46.6542 147.559 47.4527 147.559H143.799C144.598 147.559 145.364 147.242 145.928 146.677C146.493 146.112 146.81 145.347 146.81 144.548V93.368C146.81 92.5695 146.493 91.8038 145.928 91.2392C145.364 90.6746 144.598 90.3574 143.799 90.3574H140.788C139.591 90.3574 138.442 89.8816 137.595 89.0347C136.748 88.1878 136.272 87.0392 136.272 85.8415C136.272 84.6438 136.748 83.4952 137.595 82.6483C138.442 81.8014 139.591 81.3256 140.788 81.3256H143.799C150.451 81.3256 155.842 86.7168 155.842 93.368V144.548C155.842 151.199 150.451 156.591 143.799 156.591H47.4527C40.8011 156.591 35.4094 151.199 35.4094 144.548V93.368C35.4094 86.7168 40.8011 81.3256 47.4527 81.3256H50.4636C51.6613 81.3256 52.8101 81.8014 53.657 82.6483C54.504 83.4952 54.9798 84.6438 54.9798 85.8415C54.9798 87.0392 54.504 88.1878 53.657 89.0347C52.8101 89.8816 51.6613 90.3574 50.4636 90.3574H47.4527ZM84.3354 67.0253C84.3354 60.7903 89.3905 55.7355 95.626 55.7355C98.7444 55.7355 101.563 56.9962 103.61 59.0419C103.889 59.3215 104.221 59.5432 104.587 59.6945C104.952 59.8458 105.343 59.9237 105.739 59.9237C106.134 59.9237 106.525 59.8458 106.891 59.6945C107.256 59.5432 107.588 59.3215 107.867 59.0419C108.147 58.7625 108.369 58.4306 108.52 58.0653C108.672 57.7 108.75 57.3085 108.75 56.9131C108.75 56.5176 108.672 56.1261 108.52 55.7608C108.369 55.3955 108.147 55.0637 107.867 54.7842C106.261 53.1748 104.353 51.8984 102.252 51.0284C100.152 50.1584 97.8997 49.7118 95.626 49.7144C86.0643 49.7144 78.3137 57.4644 78.3137 67.0253C78.3137 76.5862 86.0643 84.3362 95.626 84.3362C105.188 84.3362 112.938 76.5862 112.938 67.0253C112.938 66.2268 112.621 65.4611 112.056 64.8965C111.492 64.3319 110.726 64.0147 109.927 64.0147H95.626C94.8274 64.0147 94.0616 64.3319 93.497 64.8965C92.9323 65.4611 92.6151 66.2268 92.6151 67.0253C92.6151 67.8237 92.9323 68.5895 93.497 69.1541C94.0616 69.7187 94.8274 70.0359 95.626 70.0359H106.511C105.193 74.8092 100.819 78.315 95.626 78.315C89.3905 78.315 84.3354 73.2602 84.3354 67.0253ZM65.5177 137.022C65.5177 135.824 65.9935 134.675 66.8405 133.828C67.6874 132.982 68.8361 132.506 70.0339 132.506H121.218C122.416 132.506 123.564 132.982 124.411 133.828C125.258 134.675 125.734 135.824 125.734 137.022C125.734 138.219 125.258 139.368 124.411 140.215C123.564 141.062 122.416 141.538 121.218 141.538H70.0339C68.8361 141.538 67.6874 141.062 66.8405 140.215C65.9935 139.368 65.5177 138.219 65.5177 137.022ZM59.496 126.485C61.0931 126.485 62.6247 125.85 63.754 124.721C64.8833 123.592 65.5177 122.06 65.5177 120.463C65.5177 118.866 64.8833 117.335 63.754 116.206C62.6247 115.077 61.0931 114.442 59.496 114.442C57.899 114.442 56.3674 115.077 55.2381 116.206C54.1088 117.335 53.4744 118.866 53.4744 120.463C53.4744 122.06 54.1088 123.592 55.2381 124.721C56.3674 125.85 57.899 126.485 59.496 126.485ZM65.5177 102.4C65.5177 103.997 64.8833 105.528 63.754 106.657C62.6247 107.787 61.0931 108.421 59.496 108.421C57.899 108.421 56.3674 107.787 55.2381 106.657C54.1088 105.528 53.4744 103.997 53.4744 102.4C53.4744 100.803 54.1088 99.2713 55.2381 98.1422C56.3674 97.013 57.899 96.3786 59.496 96.3786C61.0931 96.3786 62.6247 97.013 63.754 98.1422C64.8833 99.2713 65.5177 100.803 65.5177 102.4ZM77.561 126.485C79.158 126.485 80.6897 125.85 81.8189 124.721C82.9482 123.592 83.5826 122.06 83.5826 120.463C83.5826 118.866 82.9482 117.335 81.8189 116.206C80.6897 115.077 79.158 114.442 77.561 114.442C75.964 114.442 74.4323 115.077 73.303 116.206C72.1738 117.335 71.5393 118.866 71.5393 120.463C71.5393 122.06 72.1738 123.592 73.303 124.721C74.4323 125.85 75.964 126.485 77.561 126.485ZM119.713 120.463C119.713 122.06 119.078 123.592 117.949 124.721C116.82 125.85 115.288 126.485 113.691 126.485C112.094 126.485 110.562 125.85 109.433 124.721C108.304 123.592 107.669 122.06 107.669 120.463C107.669 118.866 108.304 117.335 109.433 116.206C110.562 115.077 112.094 114.442 113.691 114.442C115.288 114.442 116.82 115.077 117.949 116.206C119.078 117.335 119.713 118.866 119.713 120.463ZM131.756 126.485C133.353 126.485 134.885 125.85 136.014 124.721C137.143 123.592 137.778 122.06 137.778 120.463C137.778 118.866 137.143 117.335 136.014 116.206C134.885 115.077 133.353 114.442 131.756 114.442C130.159 114.442 128.627 115.077 127.498 116.206C126.369 117.335 125.734 118.866 125.734 120.463C125.734 122.06 126.369 123.592 127.498 124.721C128.627 125.85 130.159 126.485 131.756 126.485ZM137.778 102.4C137.778 103.997 137.143 105.528 136.014 106.657C134.885 107.787 133.353 108.421 131.756 108.421C130.159 108.421 128.627 107.787 127.498 106.657C126.369 105.528 125.734 103.997 125.734 102.4C125.734 100.803 126.369 99.2713 127.498 98.1422C128.627 97.013 130.159 96.3786 131.756 96.3786C133.353 96.3786 134.885 97.013 136.014 98.1422C137.143 99.2713 137.778 100.803 137.778 102.4ZM95.626 126.485C97.223 126.485 98.7546 125.85 99.8839 124.721C101.013 123.592 101.648 122.06 101.648 120.463C101.648 118.866 101.013 117.335 99.8839 116.206C98.7546 115.077 97.223 114.442 95.626 114.442C94.0289 114.442 92.4973 115.077 91.368 116.206C90.2387 117.335 89.6043 118.866 89.6043 120.463C89.6043 122.06 90.2387 123.592 91.368 124.721C92.4973 125.85 94.0289 126.485 95.626 126.485Z"/>
</mask>
<path fill-rule="evenodd" clip-rule="evenodd" d="M71.5393 43.6932C71.1401 43.6932 70.7572 43.8518 70.4749 44.1341C70.1925 44.4164 70.0339 44.7992 70.0339 45.1985V82.4862C70.0339 82.7427 70.0995 82.995 70.2244 83.219C70.3492 83.4431 70.5293 83.6315 70.7475 83.7664L95.626 99.1589L120.504 83.7672C120.723 83.6322 120.903 83.4437 121.028 83.2195C121.153 82.9952 121.218 82.7428 121.218 82.4862V45.1985C121.218 44.7992 121.059 44.4164 120.777 44.1341C120.495 43.8518 120.112 43.6932 119.713 43.6932H71.5393ZM61.0014 45.1985C61.0014 39.379 65.7194 34.6614 71.5393 34.6614H119.713C125.532 34.6614 130.25 39.379 130.25 45.1985V82.4862C130.251 84.2815 129.792 86.0471 128.918 87.6153C128.044 89.1836 126.784 90.5026 125.257 91.4472L99.5867 107.33C98.3968 108.066 97.0252 108.456 95.626 108.456C94.2267 108.456 92.8551 108.066 91.6652 107.33L65.9949 91.4472C64.4681 90.5026 63.2079 89.1836 62.334 87.6153C61.4601 86.0471 61.0014 84.2815 61.0014 82.4862V45.1985ZM47.4527 90.3574C46.6542 90.3574 45.8884 90.6746 45.3238 91.2392C44.7591 91.8038 44.4419 92.5695 44.4419 93.368V144.548C44.4419 145.347 44.7591 146.112 45.3238 146.677C45.8884 147.242 46.6542 147.559 47.4527 147.559H143.799C144.598 147.559 145.364 147.242 145.928 146.677C146.493 146.112 146.81 145.347 146.81 144.548V93.368C146.81 92.5695 146.493 91.8038 145.928 91.2392C145.364 90.6746 144.598 90.3574 143.799 90.3574H140.788C139.591 90.3574 138.442 89.8816 137.595 89.0347C136.748 88.1878 136.272 87.0392 136.272 85.8415C136.272 84.6438 136.748 83.4952 137.595 82.6483C138.442 81.8014 139.591 81.3256 140.788 81.3256H143.799C150.451 81.3256 155.842 86.7168 155.842 93.368V144.548C155.842 151.199 150.451 156.591 143.799 156.591H47.4527C40.8011 156.591 35.4094 151.199 35.4094 144.548V93.368C35.4094 86.7168 40.8011 81.3256 47.4527 81.3256H50.4636C51.6613 81.3256 52.8101 81.8014 53.657 82.6483C54.504 83.4952 54.9798 84.6438 54.9798 85.8415C54.9798 87.0392 54.504 88.1878 53.657 89.0347C52.8101 89.8816 51.6613 90.3574 50.4636 90.3574H47.4527ZM84.3354 67.0253C84.3354 60.7903 89.3905 55.7355 95.626 55.7355C98.7444 55.7355 101.563 56.9962 103.61 59.0419C103.889 59.3215 104.221 59.5432 104.587 59.6945C104.952 59.8458 105.343 59.9237 105.739 59.9237C106.134 59.9237 106.525 59.8458 106.891 59.6945C107.256 59.5432 107.588 59.3215 107.867 59.0419C108.147 58.7625 108.369 58.4306 108.52 58.0653C108.672 57.7 108.75 57.3085 108.75 56.9131C108.75 56.5176 108.672 56.1261 108.52 55.7608C108.369 55.3955 108.147 55.0637 107.867 54.7842C106.261 53.1748 104.353 51.8984 102.252 51.0284C100.152 50.1584 97.8997 49.7118 95.626 49.7144C86.0643 49.7144 78.3137 57.4644 78.3137 67.0253C78.3137 76.5862 86.0643 84.3362 95.626 84.3362C105.188 84.3362 112.938 76.5862 112.938 67.0253C112.938 66.2268 112.621 65.4611 112.056 64.8965C111.492 64.3319 110.726 64.0147 109.927 64.0147H95.626C94.8274 64.0147 94.0616 64.3319 93.497 64.8965C92.9323 65.4611 92.6151 66.2268 92.6151 67.0253C92.6151 67.8237 92.9323 68.5895 93.497 69.1541C94.0616 69.7187 94.8274 70.0359 95.626 70.0359H106.511C105.193 74.8092 100.819 78.315 95.626 78.315C89.3905 78.315 84.3354 73.2602 84.3354 67.0253ZM65.5177 137.022C65.5177 135.824 65.9935 134.675 66.8405 133.828C67.6874 132.982 68.8361 132.506 70.0339 132.506H121.218C122.416 132.506 123.564 132.982 124.411 133.828C125.258 134.675 125.734 135.824 125.734 137.022C125.734 138.219 125.258 139.368 124.411 140.215C123.564 141.062 122.416 141.538 121.218 141.538H70.0339C68.8361 141.538 67.6874 141.062 66.8405 140.215C65.9935 139.368 65.5177 138.219 65.5177 137.022ZM59.496 126.485C61.0931 126.485 62.6247 125.85 63.754 124.721C64.8833 123.592 65.5177 122.06 65.5177 120.463C65.5177 118.866 64.8833 117.335 63.754 116.206C62.6247 115.077 61.0931 114.442 59.496 114.442C57.899 114.442 56.3674 115.077 55.2381 116.206C54.1088 117.335 53.4744 118.866 53.4744 120.463C53.4744 122.06 54.1088 123.592 55.2381 124.721C56.3674 125.85 57.899 126.485 59.496 126.485ZM65.5177 102.4C65.5177 103.997 64.8833 105.528 63.754 106.657C62.6247 107.787 61.0931 108.421 59.496 108.421C57.899 108.421 56.3674 107.787 55.2381 106.657C54.1088 105.528 53.4744 103.997 53.4744 102.4C53.4744 100.803 54.1088 99.2713 55.2381 98.1422C56.3674 97.013 57.899 96.3786 59.496 96.3786C61.0931 96.3786 62.6247 97.013 63.754 98.1422C64.8833 99.2713 65.5177 100.803 65.5177 102.4ZM77.561 126.485C79.158 126.485 80.6897 125.85 81.8189 124.721C82.9482 123.592 83.5826 122.06 83.5826 120.463C83.5826 118.866 82.9482 117.335 81.8189 116.206C80.6897 115.077 79.158 114.442 77.561 114.442C75.964 114.442 74.4323 115.077 73.303 116.206C72.1738 117.335 71.5393 118.866 71.5393 120.463C71.5393 122.06 72.1738 123.592 73.303 124.721C74.4323 125.85 75.964 126.485 77.561 126.485ZM119.713 120.463C119.713 122.06 119.078 123.592 117.949 124.721C116.82 125.85 115.288 126.485 113.691 126.485C112.094 126.485 110.562 125.85 109.433 124.721C108.304 123.592 107.669 122.06 107.669 120.463C107.669 118.866 108.304 117.335 109.433 116.206C110.562 115.077 112.094 114.442 113.691 114.442C115.288 114.442 116.82 115.077 117.949 116.206C119.078 117.335 119.713 118.866 119.713 120.463ZM131.756 126.485C133.353 126.485 134.885 125.85 136.014 124.721C137.143 123.592 137.778 122.06 137.778 120.463C137.778 118.866 137.143 117.335 136.014 116.206C134.885 115.077 133.353 114.442 131.756 114.442C130.159 114.442 128.627 115.077 127.498 116.206C126.369 117.335 125.734 118.866 125.734 120.463C125.734 122.06 126.369 123.592 127.498 124.721C128.627 125.85 130.159 126.485 131.756 126.485ZM137.778 102.4C137.778 103.997 137.143 105.528 136.014 106.657C134.885 107.787 133.353 108.421 131.756 108.421C130.159 108.421 128.627 107.787 127.498 106.657C126.369 105.528 125.734 103.997 125.734 102.4C125.734 100.803 126.369 99.2713 127.498 98.1422C128.627 97.013 130.159 96.3786 131.756 96.3786C133.353 96.3786 134.885 97.013 136.014 98.1422C137.143 99.2713 137.778 100.803 137.778 102.4ZM95.626 126.485C97.223 126.485 98.7546 125.85 99.8839 124.721C101.013 123.592 101.648 122.06 101.648 120.463C101.648 118.866 101.013 117.335 99.8839 116.206C98.7546 115.077 97.223 114.442 95.626 114.442C94.0289 114.442 92.4973 115.077 91.368 116.206C90.2387 117.335 89.6043 118.866 89.6043 120.463C89.6043 122.06 90.2387 123.592 91.368 124.721C92.4973 125.85 94.0289 126.485 95.626 126.485Z" fill="white"/>
<path fill-rule="evenodd" clip-rule="evenodd" d="M71.5393 43.6932C71.1401 43.6932 70.7572 43.8518 70.4749 44.1341C70.1925 44.4164 70.0339 44.7992 70.0339 45.1985V82.4862C70.0339 82.7427 70.0995 82.995 70.2244 83.219C70.3492 83.4431 70.5293 83.6315 70.7475 83.7664L95.626 99.1589L120.504 83.7672C120.723 83.6322 120.903 83.4437 121.028 83.2195C121.153 82.9952 121.218 82.7428 121.218 82.4862V45.1985C121.218 44.7992 121.059 44.4164 120.777 44.1341C120.495 43.8518 120.112 43.6932 119.713 43.6932H71.5393ZM61.0014 45.1985C61.0014 39.379 65.7194 34.6614 71.5393 34.6614H119.713C125.532 34.6614 130.25 39.379 130.25 45.1985V82.4862C130.251 84.2815 129.792 86.0471 128.918 87.6153C128.044 89.1836 126.784 90.5026 125.257 91.4472L99.5867 107.33C98.3968 108.066 97.0252 108.456 95.626 108.456C94.2267 108.456 92.8551 108.066 91.6652 107.33L65.9949 91.4472C64.4681 90.5026 63.2079 89.1836 62.334 87.6153C61.4601 86.0471 61.0014 84.2815 61.0014 82.4862V45.1985ZM47.4527 90.3574C46.6542 90.3574 45.8884 90.6746 45.3238 91.2392C44.7591 91.8038 44.4419 92.5695 44.4419 93.368V144.548C44.4419 145.347 44.7591 146.112 45.3238 146.677C45.8884 147.242 46.6542 147.559 47.4527 147.559H143.799C144.598 147.559 145.364 147.242 145.928 146.677C146.493 146.112 146.81 145.347 146.81 144.548V93.368C146.81 92.5695 146.493 91.8038 145.928 91.2392C145.364 90.6746 144.598 90.3574 143.799 90.3574H140.788C139.591 90.3574 138.442 89.8816 137.595 89.0347C136.748 88.1878 136.272 87.0392 136.272 85.8415C136.272 84.6438 136.748 83.4952 137.595 82.6483C138.442 81.8014 139.591 81.3256 140.788 81.3256H143.799C150.451 81.3256 155.842 86.7168 155.842 93.368V144.548C155.842 151.199 150.451 156.591 143.799 156.591H47.4527C40.8011 156.591 35.4094 151.199 35.4094 144.548V93.368C35.4094 86.7168 40.8011 81.3256 47.4527 81.3256H50.4636C51.6613 81.3256 52.8101 81.8014 53.657 82.6483C54.504 83.4952 54.9798 84.6438 54.9798 85.8415C54.9798 87.0392 54.504 88.1878 53.657 89.0347C52.8101 89.8816 51.6613 90.3574 50.4636 90.3574H47.4527ZM84.3354 67.0253C84.3354 60.7903 89.3905 55.7355 95.626 55.7355C98.7444 55.7355 101.563 56.9962 103.61 59.0419C103.889 59.3215 104.221 59.5432 104.587 59.6945C104.952 59.8458 105.343 59.9237 105.739 59.9237C106.134 59.9237 106.525 59.8458 106.891 59.6945C107.256 59.5432 107.588 59.3215 107.867 59.0419C108.147 58.7625 108.369 58.4306 108.52 58.0653C108.672 57.7 108.75 57.3085 108.75 56.9131C108.75 56.5176 108.672 56.1261 108.52 55.7608C108.369 55.3955 108.147 55.0637 107.867 54.7842C106.261 53.1748 104.353 51.8984 102.252 51.0284C100.152 50.1584 97.8997 49.7118 95.626 49.7144C86.0643 49.7144 78.3137 57.4644 78.3137 67.0253C78.3137 76.5862 86.0643 84.3362 95.626 84.3362C105.188 84.3362 112.938 76.5862 112.938 67.0253C112.938 66.2268 112.621 65.4611 112.056 64.8965C111.492 64.3319 110.726 64.0147 109.927 64.0147H95.626C94.8274 64.0147 94.0616 64.3319 93.497 64.8965C92.9323 65.4611 92.6151 66.2268 92.6151 67.0253C92.6151 67.8237 92.9323 68.5895 93.497 69.1541C94.0616 69.7187 94.8274 70.0359 95.626 70.0359H106.511C105.193 74.8092 100.819 78.315 95.626 78.315C89.3905 78.315 84.3354 73.2602 84.3354 67.0253ZM65.5177 137.022C65.5177 135.824 65.9935 134.675 66.8405 133.828C67.6874 132.982 68.8361 132.506 70.0339 132.506H121.218C122.416 132.506 123.564 132.982 124.411 133.828C125.258 134.675 125.734 135.824 125.734 137.022C125.734 138.219 125.258 139.368 124.411 140.215C123.564 141.062 122.416 141.538 121.218 141.538H70.0339C68.8361 141.538 67.6874 141.062 66.8405 140.215C65.9935 139.368 65.5177 138.219 65.5177 137.022ZM59.496 126.485C61.0931 126.485 62.6247 125.85 63.754 124.721C64.8833 123.592 65.5177 122.06 65.5177 120.463C65.5177 118.866 64.8833 117.335 63.754 116.206C62.6247 115.077 61.0931 114.442 59.496 114.442C57.899 114.442 56.3674 115.077 55.2381 116.206C54.1088 117.335 53.4744 118.866 53.4744 120.463C53.4744 122.06 54.1088 123.592 55.2381 124.721C56.3674 125.85 57.899 126.485 59.496 126.485ZM65.5177 102.4C65.5177 103.997 64.8833 105.528 63.754 106.657C62.6247 107.787 61.0931 108.421 59.496 108.421C57.899 108.421 56.3674 107.787 55.2381 106.657C54.1088 105.528 53.4744 103.997 53.4744 102.4C53.4744 100.803 54.1088 99.2713 55.2381 98.1422C56.3674 97.013 57.899 96.3786 59.496 96.3786C61.0931 96.3786 62.6247 97.013 63.754 98.1422C64.8833 99.2713 65.5177 100.803 65.5177 102.4ZM77.561 126.485C79.158 126.485 80.6897 125.85 81.8189 124.721C82.9482 123.592 83.5826 122.06 83.5826 120.463C83.5826 118.866 82.9482 117.335 81.8189 116.206C80.6897 115.077 79.158 114.442 77.561 114.442C75.964 114.442 74.4323 115.077 73.303 116.206C72.1738 117.335 71.5393 118.866 71.5393 120.463C71.5393 122.06 72.1738 123.592 73.303 124.721C74.4323 125.85 75.964 126.485 77.561 126.485ZM119.713 120.463C119.713 122.06 119.078 123.592 117.949 124.721C116.82 125.85 115.288 126.485 113.691 126.485C112.094 126.485 110.562 125.85 109.433 124.721C108.304 123.592 107.669 122.06 107.669 120.463C107.669 118.866 108.304 117.335 109.433 116.206C110.562 115.077 112.094 114.442 113.691 114.442C115.288 114.442 116.82 115.077 117.949 116.206C119.078 117.335 119.713 118.866 119.713 120.463ZM131.756 126.485C133.353 126.485 134.885 125.85 136.014 124.721C137.143 123.592 137.778 122.06 137.778 120.463C137.778 118.866 137.143 117.335 136.014 116.206C134.885 115.077 133.353 114.442 131.756 114.442C130.159 114.442 128.627 115.077 127.498 116.206C126.369 117.335 125.734 118.866 125.734 120.463C125.734 122.06 126.369 123.592 127.498 124.721C128.627 125.85 130.159 126.485 131.756 126.485ZM137.778 102.4C137.778 103.997 137.143 105.528 136.014 106.657C134.885 107.787 133.353 108.421 131.756 108.421C130.159 108.421 128.627 107.787 127.498 106.657C126.369 105.528 125.734 103.997 125.734 102.4C125.734 100.803 126.369 99.2713 127.498 98.1422C128.627 97.013 130.159 96.3786 131.756 96.3786C133.353 96.3786 134.885 97.013 136.014 98.1422C137.143 99.2713 137.778 100.803 137.778 102.4ZM95.626 126.485C97.223 126.485 98.7546 125.85 99.8839 124.721C101.013 123.592 101.648 122.06 101.648 120.463C101.648 118.866 101.013 117.335 99.8839 116.206C98.7546 115.077 97.223 114.442 95.626 114.442C94.0289 114.442 92.4973 115.077 91.368 116.206C90.2387 117.335 89.6043 118.866 89.6043 120.463C89.6043 122.06 90.2387 123.592 91.368 124.721C92.4973 125.85 94.0289 126.485 95.626 126.485Z" stroke="white" stroke-width="2" mask="url(#path-2-outside-1_118_494)"/>
<defs>
<linearGradient id="paint0_linear_118_494" x1="96" y1="1" x2="96" y2="191" gradientUnits="userSpaceOnUse">
<stop stop-color="#4989F4"/>
<stop offset="1" stop-color="#2773F2"/>
</linearGradient>
</defs>
</svg>
