<svg width="192" height="192" viewBox="0 0 192 192" fill="none" xmlns="http://www.w3.org/2000/svg">
<path d="M79.8641 190.494C58.4515 188.98 43.1039 184.514 30.2301 176.052C16.4521 166.996 6.93903 150.04 3.23235 127.931C1.51833 117.708 0.97229 109.739 1.00107 95.3749C1.05247 69.8796 3.78817 54.0812 10.6775 39.5C17.2889 25.507 25.5739 17.2167 39.4783 10.6808C54.2478 3.73821 70.2337 1 95.9953 1C121.757 1 137.743 3.73821 152.512 10.6808C166.404 17.211 174.634 25.4402 181.334 39.5C188.169 53.8448 190.937 69.844 190.999 95.3749C191.075 126.436 186.923 145.115 176.35 161.286C166.477 176.388 148.497 185.963 123.79 189.276C110.91 191.003 93.7794 191.478 79.8641 190.494Z" fill="url(#paint0_linear_108_38)"/>
<path d="M71.8683 113.233C51.1721 113.233 34.431 95.5724 34.431 73.8317C34.431 52.091 51.1721 34.4312 71.8683 34.4312H110.818C131.514 34.4312 148.255 52.0916 148.255 73.8317C148.255 95.5717 131.514 113.232 110.818 113.232L71.8683 113.233Z" fill="#DFE9F8"/>
<path d="M97.1134 129.155V153.181C97.1134 155.271 95.4299 157.011 93.4118 157.011C92.4241 157.004 91.4824 156.596 90.8025 155.879L54.2909 118.273C47.1398 110.963 43.1866 100.953 43.1866 90.5921C43.1866 69.2651 59.9277 51.9424 80.6239 51.9424H119.574C140.27 51.9424 157.011 69.2657 157.011 90.5921C157.011 111.918 140.27 129.242 119.574 129.242H97.1134V129.155Z" fill="#A2C4F1"/>
<path d="M71.6864 113.233H110.73C131.475 113.233 148.255 95.1632 148.255 72.9175C148.255 70.284 148.001 67.743 147.581 65.1995C140.751 57.0281 130.801 51.9436 119.753 51.9436H80.7114C60.8425 51.9436 43.8642 67.9488 43.2638 89.2677C43.1896 91.9003 43.4407 97.4335 43.8608 99.8851C50.6901 108.056 60.6408 113.233 71.6883 113.233H71.6864Z" fill="white"/>
<defs>
<linearGradient id="paint0_linear_108_38" x1="96" y1="1" x2="96" y2="191" gradientUnits="userSpaceOnUse">
<stop stop-color="#1E7EFE"/>
<stop offset="1" stop-color="#1B6AD3"/>
</linearGradient>
</defs>
</svg>
