<svg width="192" height="192" viewBox="0 0 192 192" fill="none" xmlns="http://www.w3.org/2000/svg">
<path d="M79.8641 190.494C58.4515 188.98 43.1039 184.514 30.2301 176.052C16.4521 166.996 6.93903 150.04 3.23235 127.931C1.51833 117.708 0.97229 109.739 1.00107 95.3749C1.05247 69.8796 3.78817 54.0812 10.6775 39.5C17.2889 25.507 25.5739 17.2167 39.4783 10.6808C54.2478 3.73821 70.2337 1 95.9953 1C121.757 1 137.743 3.73821 152.512 10.6808C166.404 17.211 174.634 25.4402 181.334 39.5C188.169 53.8448 190.937 69.844 190.999 95.3749C191.075 126.436 186.923 145.115 176.35 161.286C166.477 176.388 148.497 185.963 123.79 189.276C110.91 191.003 93.7794 191.478 79.8641 190.494Z" fill="url(#paint0_linear_108_50)"/>
<path fill-rule="evenodd" clip-rule="evenodd" d="M63.3779 57.8503C54.5414 57.8503 47.3779 65.0138 47.3779 73.8503V125.63C47.3779 134.466 54.5414 141.63 63.3779 141.63H128.622C137.459 141.63 144.622 134.466 144.622 125.63V73.8503C144.622 65.0138 137.459 57.8503 128.622 57.8503H63.3779ZM131.157 77.2992H60.8425V122.181H131.157V77.2992Z" fill="white"/>
<defs>
<linearGradient id="paint0_linear_108_50" x1="96" y1="1" x2="96" y2="191" gradientUnits="userSpaceOnUse">
<stop stop-color="#F1BD27"/>
<stop offset="1" stop-color="#F4B606"/>
</linearGradient>
</defs>
</svg>
