<svg width="192" height="192" viewBox="0 0 192 192" fill="none" xmlns="http://www.w3.org/2000/svg">
<path d="M79.8641 190.494C58.4515 188.98 43.1039 184.514 30.2301 176.052C16.4521 166.996 6.93903 150.04 3.23235 127.931C1.51833 117.708 0.97229 109.739 1.00107 95.3749C1.05247 69.8796 3.78817 54.0812 10.6775 39.5C17.2889 25.507 25.5739 17.2167 39.4783 10.6808C54.2478 3.73821 70.2337 1 95.9953 1C121.757 1 137.743 3.73821 152.512 10.6808C166.404 17.211 174.634 25.4402 181.334 39.5C188.169 53.8448 190.937 69.844 190.999 95.3749C191.075 126.436 186.923 145.115 176.35 161.286C166.477 176.388 148.497 185.963 123.79 189.276C110.91 191.003 93.7794 191.478 79.8641 190.494Z" fill="url(#paint0_linear_108_49)"/>
<path d="M38.4016 74.6062C38.4016 68.7411 38.4016 65.8086 39.543 63.5684C40.5471 61.5979 42.1491 59.9958 44.1197 58.9918C46.3598 57.8503 49.2924 57.8503 55.1575 57.8503H136.843C142.708 57.8503 145.64 57.8503 147.88 58.9918C149.851 59.9958 151.453 61.5979 152.457 63.5684C153.598 65.8086 153.598 68.7411 153.598 74.6062V75.5226H38.4016V74.6062Z" fill="white"/>
<path d="M55.4193 91.2312H87.4912V108.249H55.4193V91.2312Z" fill="white"/>
<path d="M104.509 91.2312H136.581V108.249H104.509V91.2312Z" fill="white"/>
<path d="M38.4016 123.958H153.598V124.874C153.598 130.739 153.598 133.672 152.457 135.912C151.453 137.882 149.851 139.484 147.88 140.488C145.64 141.63 142.708 141.63 136.843 141.63H55.1575C49.2924 141.63 46.3598 141.63 44.1197 140.488C42.1491 139.484 40.5471 137.882 39.543 135.912C38.4016 133.672 38.4016 130.739 38.4016 124.874V123.958Z" fill="white"/>
<path d="M55.4193 75.5226L55.4193 123.958H38.4016V75.5226H55.4193Z" fill="white"/>
<path d="M104.509 75.5226V123.958H87.4912V75.5226H104.509Z" fill="white"/>
<path d="M153.598 75.5226V123.958H136.581V75.5226H153.598Z" fill="white"/>
<defs>
<linearGradient id="paint0_linear_108_49" x1="96" y1="1" x2="96" y2="191" gradientUnits="userSpaceOnUse">
<stop stop-color="#3BC25F"/>
<stop offset="1" stop-color="#34A853"/>
</linearGradient>
</defs>
</svg>
