<svg width="192" height="192" viewBox="0 0 192 192" fill="none" xmlns="http://www.w3.org/2000/svg">
<path d="M79.8641 190.494C58.4515 188.98 43.1039 184.514 30.2301 176.052C16.4521 166.996 6.93903 150.04 3.23235 127.931C1.51833 117.708 0.97229 109.739 1.00107 95.3749C1.05247 69.8796 3.78817 54.0812 10.6775 39.5C17.2889 25.507 25.5739 17.2167 39.4783 10.6808C54.2478 3.73821 70.2337 1 95.9953 1C121.757 1 137.743 3.73821 152.512 10.6808C166.404 17.211 174.634 25.4402 181.334 39.5C188.169 53.8448 190.937 69.844 190.999 95.3749C191.075 126.436 186.923 145.115 176.35 161.286C166.477 176.388 148.497 185.963 123.79 189.276C110.91 191.003 93.7794 191.478 79.8641 190.494Z" fill="url(#paint0_linear_108_51)"/>
<path d="M114.843 128.737V142.378H76.5189V128.737H114.843ZM95.626 49.6228L96.1598 49.6268C115.543 49.9406 131.157 65.6954 131.157 85.0876C131.157 97.746 124.506 108.822 114.514 115.097H76.7379C66.719 108.822 60.0945 97.746 60.0945 85.0876C60.0945 65.4997 76.0262 49.6221 95.6807 49.6221L95.626 49.6228Z" fill="white"/>
<defs>
<linearGradient id="paint0_linear_108_51" x1="96" y1="1" x2="96" y2="191" gradientUnits="userSpaceOnUse">
<stop stop-color="#FF8800"/>
<stop offset="1" stop-color="#D57100"/>
</linearGradient>
</defs>
</svg>
