<svg width="192" height="192" viewBox="0 0 192 192" fill="none" xmlns="http://www.w3.org/2000/svg">
<path d="M79.8641 190.494C58.4515 188.98 43.1039 184.514 30.2301 176.052C16.4521 166.996 6.93903 150.04 3.23235 127.931C1.51833 117.708 0.97229 109.739 1.00107 95.3749C1.05247 69.8796 3.78817 54.0812 10.6775 39.5C17.2889 25.507 25.5739 17.2167 39.4783 10.6808C54.2478 3.73821 70.2337 1 95.9953 1C121.757 1 137.743 3.73821 152.512 10.6808C166.404 17.211 174.634 25.4402 181.334 39.5C188.169 53.8448 190.937 69.844 190.999 95.3749C191.075 126.436 186.923 145.115 176.35 161.286C166.477 176.388 148.497 185.963 123.79 189.276C110.91 191.003 93.7794 191.478 79.8641 190.494Z" fill="url(#paint0_linear_108_40)"/>
<path fill-rule="evenodd" clip-rule="evenodd" d="M84.2706 110.954V77.8993C96.0051 83.4209 105.093 88.755 115.842 94.5057C106.977 99.4223 96.0051 104.939 84.2706 110.954ZM149.667 61.4596C147.643 58.7928 144.193 56.7169 140.52 56.0296C129.724 53.9795 62.3741 53.9737 51.5842 56.0296C48.6389 56.5818 46.0161 57.9164 43.7631 59.99C34.2699 68.8011 37.2446 116.052 39.5328 123.707C40.4951 127.02 41.739 129.409 43.3055 130.977C45.3238 133.051 48.0873 134.479 51.2615 135.119C60.1503 136.957 105.944 137.985 140.332 135.395C143.5 134.843 146.305 133.369 148.517 131.207C157.294 122.431 156.696 72.5264 149.667 61.4596Z" fill="#FEFEFE"/>
<defs>
<linearGradient id="paint0_linear_108_40" x1="96" y1="1" x2="96" y2="191" gradientUnits="userSpaceOnUse">
<stop stop-color="#FF0000"/>
<stop offset="1" stop-color="#D00000"/>
</linearGradient>
</defs>
</svg>
