<svg width="192" height="192" viewBox="0 0 192 192" fill="none" xmlns="http://www.w3.org/2000/svg">
<path d="M96.0001 1V96H1.00024C1.00042 95.793 1.00072 95.5846 1.00114 95.3749C1.05253 69.8796 3.78823 54.0812 10.6775 39.5C17.2889 25.507 25.5739 17.2167 39.4784 10.6808C54.2479 3.73821 70.2337 1 95.9954 1C95.9969 1 95.9985 1 96.0001 1Z" fill="url(#paint0_linear_108_47)"/>
<path d="M96 1C121.759 1.00033 137.743 3.73863 152.512 10.6808C166.404 17.211 174.634 25.4402 181.334 39.5C188.169 53.8448 190.937 69.844 190.999 95.3749C190.999 95.5838 191 95.7922 191 96H96V1Z" fill="url(#paint1_linear_108_47)"/>
<path d="M191 96.278C190.993 126.799 186.82 145.272 176.35 161.286C166.477 176.388 148.497 185.963 123.79 189.276C115.605 190.373 105.702 190.965 96 190.999V96H191C191 96.0443 191 96.0886 191 96.1329C191 96.1813 191 96.2297 191 96.278Z" fill="url(#paint2_linear_108_47)"/>
<path d="M30.2301 176.052C43.1039 184.514 58.4515 188.98 79.8641 190.494C84.9361 190.853 90.4352 191.018 96 190.999V96H1.00018C1.00006 96.1435 1 96.2863 1 96.4285C1 110.134 1.5607 117.961 3.23235 127.931C6.93903 150.04 16.4521 166.996 30.2301 176.052Z" fill="url(#paint3_linear_108_47)"/>
<path d="M96.0001 92.8059V30.3753C96.0001 28.6598 97.3523 27.2603 99.049 27.1844V27.1812L99.16 27.1814L99.1942 27.1812C108.268 27.2194 116.961 30.8407 123.38 37.2594C129.833 43.7125 133.458 52.4646 133.458 61.5906C133.458 70.7165 129.833 79.4687 123.38 85.9217C116.961 92.3405 108.268 95.9618 99.1942 96H161.625C163.34 96 164.74 97.3523 164.816 99.0489H164.819L164.819 99.16L164.819 99.1941C164.781 108.268 161.159 116.961 154.741 123.38C148.288 129.833 139.535 133.458 130.41 133.458C121.284 133.458 112.531 129.833 106.078 123.38C99.6596 116.961 96.0383 108.268 96.0001 99.1941V161.625C96.0001 163.34 94.6478 164.74 92.9511 164.816V164.819L92.8401 164.819L92.8059 164.819C83.7323 164.781 75.0387 161.159 68.6199 154.741C62.1669 148.288 58.5417 139.535 58.5417 130.41C58.5417 121.284 62.1669 112.531 68.6199 106.078C75.0387 99.6596 83.7323 96.0383 92.8059 96.0001C92.8543 95.9999 92.9027 96.0001 92.9511 96.0001L96.0001 96H30.3753C28.6598 96 27.2603 94.6477 27.1844 92.9511H27.1812L27.1814 92.84L27.1812 92.8059C27.2194 83.7323 30.8407 75.0387 37.2594 68.6199C43.7125 62.1669 52.4646 58.5416 61.5906 58.5416C70.7166 58.5416 79.4687 62.1669 85.9218 68.6199C92.3405 75.0387 95.9618 83.7323 96.0001 92.8059Z" fill="white"/>
<defs>
<linearGradient id="paint0_linear_108_47" x1="48.5002" y1="1" x2="48.5002" y2="96" gradientUnits="userSpaceOnUse">
<stop stop-color="#F5C122"/>
<stop offset="1" stop-color="#F5B901"/>
</linearGradient>
<linearGradient id="paint1_linear_108_47" x1="143.5" y1="1" x2="143.5" y2="96" gradientUnits="userSpaceOnUse">
<stop stop-color="#E74135"/>
<stop offset="1" stop-color="#DF2416"/>
</linearGradient>
<linearGradient id="paint2_linear_108_47" x1="143.5" y1="96" x2="143.5" y2="190.999" gradientUnits="userSpaceOnUse">
<stop stop-color="#4282F0"/>
<stop offset="1" stop-color="#3B73D2"/>
</linearGradient>
<linearGradient id="paint3_linear_108_47" x1="48.5" y1="96" x2="48.5" y2="191" gradientUnits="userSpaceOnUse">
<stop stop-color="#38C25F"/>
<stop offset="1" stop-color="#31A552"/>
</linearGradient>
</defs>
</svg>
