<svg width="192" height="192" viewBox="0 0 192 192" fill="none" xmlns="http://www.w3.org/2000/svg">
<path d="M95.9234 139.233C119.842 139.233 139.233 119.842 139.233 95.9234C139.233 72.0044 119.842 52.6141 95.9234 52.6141C72.0044 52.6141 52.6141 72.0044 52.6141 95.9234C52.6141 119.842 72.0044 139.233 95.9234 139.233Z" fill="#F1F1F1"/>
<path d="M95.9233 130.507C115.023 130.507 130.507 115.024 130.507 95.9237C130.507 76.8237 115.023 61.3401 95.9233 61.3401C76.8234 61.3401 61.3398 76.8237 61.3398 95.9237C61.3398 115.024 76.8234 130.507 95.9233 130.507Z" fill="url(#paint0_linear_108_45)"/>
<path d="M131.781 120.219C136.485 113.291 139.233 104.928 139.233 95.9234C139.233 72.0044 119.843 52.6141 95.9235 52.6141H186.295C189.549 63.9452 190.955 77.2611 190.999 95.3749C191.075 126.435 186.923 145.115 176.35 161.286C166.477 176.388 148.497 185.963 123.791 189.276C114.279 190.551 102.451 191.144 91.3108 190.97L131.781 120.219Z" fill="url(#paint1_linear_108_45)"/>
<path d="M95.6266 52.6151C95.7255 52.6145 95.8245 52.6141 95.9235 52.6141H95.6261L95.6266 52.6151Z" fill="url(#paint2_linear_108_45)"/>
<path d="M30.2301 176.052C43.1039 184.514 58.4515 188.98 79.8641 190.494C83.5042 190.751 87.3643 190.909 91.3107 190.97L131.781 120.219C123.991 131.694 110.838 139.233 95.9235 139.233C77.1696 139.233 61.1998 127.313 55.1771 110.636L10.0664 40.8208C3.62584 55.0415 1.05092 70.6474 1.00107 95.3749C0.97229 109.739 1.51833 117.708 3.23235 127.931C6.93903 150.04 16.4521 166.996 30.2301 176.052Z" fill="url(#paint3_linear_108_45)"/>
<path d="M186.295 52.6142C184.962 47.9744 183.32 43.6674 181.334 39.5C174.634 25.4402 166.404 17.211 152.512 10.6808C137.743 3.73821 121.757 1 95.9954 1C70.2337 1 54.2478 3.73821 39.4784 10.6808C25.5739 17.2167 17.2889 25.507 10.6775 39.5C10.4701 39.9391 10.2664 40.3793 10.0664 40.8208L55.1772 110.636C53.5184 106.043 52.6142 101.089 52.6142 95.9234C52.6142 72.1979 71.6919 52.9283 95.3438 52.618L95.346 52.6142H186.295Z" fill="url(#paint4_linear_108_45)"/>
<defs>
<linearGradient id="paint0_linear_108_45" x1="95.9234" y1="52.6141" x2="95.9234" y2="139.233" gradientUnits="userSpaceOnUse">
<stop stop-color="#5A94F3"/>
<stop offset="1" stop-color="#4285F4"/>
</linearGradient>
<linearGradient id="paint1_linear_108_45" x1="141.155" y1="52.6141" x2="141.155" y2="191" gradientUnits="userSpaceOnUse">
<stop stop-color="#FEC420"/>
<stop offset="1" stop-color="#FFBD02"/>
</linearGradient>
<linearGradient id="paint2_linear_108_45" x1="141.155" y1="52.6141" x2="141.155" y2="191" gradientUnits="userSpaceOnUse">
<stop stop-color="#FEC420"/>
<stop offset="1" stop-color="#FFBD02"/>
</linearGradient>
<linearGradient id="paint3_linear_108_45" x1="66.3907" y1="40.8208" x2="66.3907" y2="190.97" gradientUnits="userSpaceOnUse">
<stop stop-color="#01C64E"/>
<stop offset="1" stop-color="#00A340"/>
</linearGradient>
<linearGradient id="paint4_linear_108_45" x1="98.1806" y1="1" x2="98.1806" y2="110.636" gradientUnits="userSpaceOnUse">
<stop stop-color="#F93D40"/>
<stop offset="1" stop-color="#F4191C"/>
</linearGradient>
</defs>
</svg>
