<svg width="192" height="192" viewBox="0 0 192 192" fill="none" xmlns="http://www.w3.org/2000/svg">
<path d="M191 96.6257C190.962 126.939 186.781 145.333 176.351 161.286C174.807 163.648 173.065 165.874 171.13 167.962L135.924 140.966H117.275V126.159C123.545 121.989 127.725 115.788 129.118 108.465H97.3934V85.4779H152.921V85.6923H190.828C190.935 88.7641 190.991 91.9855 190.999 95.3749C191 95.5112 191 95.6473 191 95.7831V96.6257Z" fill="url(#paint0_linear_108_41)"/>
<path d="M30.2301 176.052C43.1039 184.514 58.4516 188.98 79.8642 190.494C93.7795 191.478 110.91 191.003 123.791 189.276C144.653 186.478 160.719 179.216 171.158 167.931L136.229 141.062C136.275 141.02 136.321 140.978 136.366 140.936L117.22 126.081C111.965 129.621 105.261 131.766 97.324 131.766C81.986 131.766 68.9541 121.415 64.2883 107.472H44.66V122.498L9.50708 149.878C14.4234 161.33 21.4634 170.29 30.2301 176.052Z" fill="url(#paint1_linear_108_41)"/>
<path d="M11.3034 38.2026L39.0709 59.7696H66.0788V80.9301C64.4333 85.8477 63.4609 91.0633 63.4609 96.5025C63.4609 101.942 64.8073 107.165 66.4528 112.083L60.0203 116.694L38.7032 133.235L38.7023 133.233L11.5751 154.303C7.7206 146.712 4.89344 137.839 3.23236 127.931C1.51833 117.708 0.972291 109.739 1.00107 95.3749C1.05247 69.8796 3.78817 54.0813 10.6775 39.5C10.8844 39.062 11.093 38.6296 11.3034 38.2026Z" fill="url(#paint2_linear_108_41)"/>
<path d="M168.258 20.9555L136.695 52.5157L136.795 52.6087L119.902 69.5019C113.734 63.71 106.012 60.7067 97.3238 60.7067C81.9858 60.7067 68.9539 71.0572 64.2881 85.0007L45.5713 70.4773L9.2677 42.6381C9.7169 41.5839 10.1866 40.5388 10.6775 39.5C17.2889 25.507 25.5739 17.2167 39.4784 10.6808C54.2479 3.73821 70.2338 1 95.9954 1C121.757 1 137.743 3.73821 152.512 10.6808C158.79 13.6317 163.911 16.9295 168.258 20.9555Z" fill="url(#paint3_linear_108_41)"/>
<path fill-rule="evenodd" clip-rule="evenodd" d="M190.828 85.692H163.697C164.232 89.1425 164.513 92.1321 164.51 96.2785C164.478 133.739 140.134 164.812 97.3928 164.812C61.2166 164.812 28.8591 134.129 28.8591 96.2785C28.8591 58.4284 59.5427 27.7449 97.3928 27.7449C115.184 27.7449 131.392 34.524 143.574 45.6401L168.258 20.9558C173.53 25.8391 177.662 31.7938 181.334 39.5C187.262 51.9404 190.13 65.6251 190.828 85.692ZM97.3232 60.7065C106.011 60.7065 113.734 63.7097 119.901 69.5017L136.794 52.6085C126.551 43.0626 113.251 37.217 97.3232 37.217C74.2627 37.217 54.3663 50.4634 44.6594 69.7698C40.6373 77.7068 38.3312 86.6629 38.3312 96.2089C38.3312 105.755 40.6373 114.711 44.6594 122.648L44.6595 122.702C54.3663 141.954 74.2627 155.201 97.3232 155.201C113.251 155.201 126.605 149.945 136.365 140.935C147.52 130.639 153.955 115.515 153.955 97.5496C153.955 93.3665 153.58 89.3444 152.883 85.4831H97.3968V108.329L129.288 108.343C127.893 115.69 123.594 122.112 117.319 126.295C112.063 129.835 105.26 131.765 97.3232 131.765C81.9853 131.765 68.9534 121.415 64.2877 107.471H64.2176L64.2877 107.417C63.1078 103.878 62.4106 100.124 62.4106 96.2089C62.4106 92.2939 63.1079 88.5399 64.2877 85.0004C68.9534 71.0569 81.9853 60.7065 97.3232 60.7065Z" fill="white"/>
<defs>
<linearGradient id="paint0_linear_108_41" x1="144.197" y1="85.4779" x2="144.197" y2="167.962" gradientUnits="userSpaceOnUse">
<stop stop-color="#4285F4"/>
<stop offset="1" stop-color="#3874D7"/>
</linearGradient>
<linearGradient id="paint1_linear_108_41" x1="90.3325" y1="107.472" x2="90.3325" y2="191" gradientUnits="userSpaceOnUse">
<stop stop-color="#45B763"/>
<stop offset="1" stop-color="#3C9D55"/>
</linearGradient>
<linearGradient id="paint2_linear_108_41" x1="33.7264" y1="38.2026" x2="33.7264" y2="154.303" gradientUnits="userSpaceOnUse">
<stop stop-color="#FFC92C"/>
<stop offset="1" stop-color="#FBBC05"/>
</linearGradient>
<linearGradient id="paint3_linear_108_41" x1="88.7627" y1="1" x2="88.7627" y2="85.0007" gradientUnits="userSpaceOnUse">
<stop stop-color="#EB594C"/>
<stop offset="1" stop-color="#EA4335"/>
</linearGradient>
</defs>
</svg>
