<svg width="192" height="192" viewBox="0 0 192 192" fill="none" xmlns="http://www.w3.org/2000/svg">
<path d="M79.8641 190.494C58.4515 188.98 43.1039 184.514 30.2301 176.052C16.4521 166.996 6.93903 150.04 3.23235 127.931C1.51833 117.708 0.97229 109.739 1.00107 95.3749C1.05247 69.8796 3.78817 54.0812 10.6775 39.5C17.2889 25.507 25.5739 17.2167 39.4783 10.6808C54.2478 3.73821 70.2337 1 95.9953 1C121.757 1 137.743 3.73821 152.512 10.6808C166.404 17.211 174.634 25.4402 181.334 39.5C188.169 53.8448 190.937 69.844 190.999 95.3749C191.075 126.436 186.923 145.115 176.35 161.286C166.477 176.388 148.497 185.963 123.79 189.276C110.91 191.003 93.7794 191.478 79.8641 190.494Z" fill="url(#paint0_linear_108_43)"/>
<path fill-rule="evenodd" clip-rule="evenodd" d="M49.8539 54.3068C49.8539 41.2765 63.9596 33.1328 75.244 39.6478L126.157 69.0421L147.583 81.413C158.868 87.928 158.868 104.216 147.583 110.731L75.244 152.496C63.9595 159.011 49.8539 150.867 49.8539 137.837L49.8539 54.3068ZM116.483 73.7511L70.7866 47.3684C65.7067 44.4355 59.419 47.7787 58.8158 53.4186L98.8561 90.1925L116.483 73.7511ZM105.442 96.2408L124.556 78.412L143.126 89.1335C148.467 92.2172 148.467 99.9267 143.126 103.01L124.513 113.756L105.442 96.2408ZM92.3174 96.2914L58.7688 65.4797V127.584L92.3174 96.2914ZM58.9578 139.599L98.903 102.34L116.421 118.429L70.7866 144.775C65.9748 147.554 60.0793 144.701 58.9578 139.599Z" fill="white"/>
<defs>
<linearGradient id="paint0_linear_108_43" x1="96" y1="1" x2="96" y2="191" gradientUnits="userSpaceOnUse">
<stop stop-color="#50C253"/>
<stop offset="1" stop-color="#47A54A"/>
</linearGradient>
</defs>
</svg>
