<svg width="192" height="192" viewBox="0 0 192 192" fill="none" xmlns="http://www.w3.org/2000/svg">
<path d="M79.8641 190.494C58.4515 188.98 43.1039 184.514 30.2301 176.052C16.4521 166.996 6.93903 150.04 3.23235 127.931C1.51833 117.708 0.97229 109.739 1.00107 95.3749C1.05247 69.8796 3.78817 54.0812 10.6775 39.5C17.2889 25.507 25.5739 17.2167 39.4783 10.6808C54.2478 3.73821 70.2337 1 95.9953 1C121.757 1 137.743 3.73821 152.512 10.6808C166.404 17.211 174.634 25.4402 181.334 39.5C188.169 53.8448 190.937 69.844 190.999 95.3749C191.075 126.436 186.923 145.115 176.35 161.286C166.477 176.388 148.497 185.963 123.79 189.276C110.91 191.003 93.7794 191.478 79.8641 190.494Z" fill="url(#paint0_linear_108_37)"/>
<path d="M153.783 65.7554L130.778 88.7604V103.302L153.783 126.295C155.926 128.571 159.837 126.997 159.837 123.873V68.177C159.837 65.1258 155.975 63.6002 153.783 65.7554Z" fill="#F1F3F4"/>
<path d="M112.615 54.8583H52.0754C41.9168 54.8704 33.9013 63.0191 33.9134 73.0203V119.031C33.9255 129.032 41.9168 137.205 52.0754 137.193H112.615C122.774 137.18 130.789 129.032 130.777 119.031V73.0203C130.765 63.0191 122.774 54.8462 112.615 54.8583Z" fill="url(#paint1_radial_108_37)"/>
<path d="M130.778 104.743L130.79 103.29L135.621 108.133V83.9176L130.778 88.7607V104.743Z" fill="#DDE0E4"/>
<defs>
<linearGradient id="paint0_linear_108_37" x1="96" y1="1" x2="96" y2="191" gradientUnits="userSpaceOnUse">
<stop stop-color="#3E87E8"/>
<stop offset="1" stop-color="#1E76EA"/>
</linearGradient>
<radialGradient id="paint1_radial_108_37" cx="0" cy="0" r="1" gradientUnits="userSpaceOnUse" gradientTransform="translate(59.2651 59.5943) rotate(50.0517) scale(143.179 168.446)">
<stop stop-color="white"/>
<stop offset="1" stop-color="#E6E6E6"/>
</radialGradient>
</defs>
</svg>
