<svg width="192" height="192" viewBox="0 0 192 192" fill="none" xmlns="http://www.w3.org/2000/svg">
<path d="M79.8641 190.494C58.4515 188.98 43.1039 184.514 30.2301 176.052C16.4521 166.996 6.93903 150.04 3.23235 127.931C1.51833 117.708 0.97229 109.739 1.00107 95.3749C1.05247 69.8796 3.78817 54.0812 10.6775 39.5C17.2889 25.507 25.5739 17.2167 39.4783 10.6808C54.2478 3.73821 70.2337 1 95.9953 1C121.757 1 137.743 3.73821 152.512 10.6808C166.404 17.211 174.634 25.4402 181.334 39.5C188.169 53.8447 190.937 69.844 190.999 95.3749C191.075 126.435 186.923 145.115 176.35 161.286C166.477 176.388 148.497 185.963 123.79 189.276C110.91 191.003 93.7794 191.478 79.8641 190.494Z" fill="white"/>
<path d="M15.828 161.548L107.214 70.1615C110.374 76.2834 114.744 81.9643 118.978 87.2506L30.1973 176.031C24.6933 172.406 19.8707 167.52 15.828 161.548Z" fill="url(#paint0_linear_108_42)"/>
<path d="M30.2301 176.052C43.1038 184.514 58.4515 188.98 79.8641 190.494C93.7793 191.478 110.91 191.003 123.79 189.276C139.103 187.222 151.832 182.764 161.648 176.074L95.901 110.327L30.1973 176.031C30.2082 176.038 30.2191 176.045 30.2301 176.052Z" fill="url(#paint1_linear_108_42)"/>
<ellipse cx="146.118" cy="45.8818" rx="17.9528" ry="17.9528" fill="#7E2622"/>
<path d="M174.694 28.1919C177.125 31.501 179.3 35.2319 181.334 39.5001C184.673 46.5081 187.042 53.9111 188.598 62.6274C187.339 66.5528 186.098 68.8574 186.098 68.8574C182.416 76.5163 174.762 85.9291 172.006 89.3183C171.637 89.772 171.356 90.1177 171.184 90.3369C165.877 96.9653 160.444 103.866 156.134 111.617C153.942 115.665 152.557 119.903 150.764 125.472C149.904 128.052 148.782 129.709 146.327 129.709C144.083 129.709 143.013 128.723 141.891 125.472L141.837 125.305C139.951 119.515 138.877 116.217 136.322 111.355C134.203 107.579 130.155 101.349 126.18 96.378L129.431 77.3527L149.117 65.9522L157.004 59.5231L158.462 58.0653L159.458 56.8696L160.056 56.1355L160.518 55.5377L162.71 52.3598L171.593 29.024L174.694 28.1919Z" fill="#E1685E"/>
<path d="M105.833 67.2734C110.668 78.2752 119.887 87.8927 126.18 96.3774L159.521 56.8694C159.521 56.8694 154.812 63.0363 146.327 63.0363C136.846 63.0363 129.158 55.485 129.158 45.9305C129.158 39.365 133.07 34.8657 133.07 34.8657L110.469 40.8963L105.833 67.2734Z" fill="#EF8178"/>
<path d="M147.494 8.50537C149.19 9.17922 150.859 9.90369 152.512 10.6809C164.567 16.3476 172.359 23.2937 178.586 34.2191L159.538 56.9103C159.823 56.5684 163.433 52.1032 163.433 45.8668C163.433 36.1237 155.21 28.7613 146.327 28.7613C137.905 28.7613 133.07 34.8547 133.07 34.8547V14.844L147.494 8.50537Z" fill="#CD362A"/>
<path d="M130.853 3.68958C138.857 5.24548 145.81 7.5302 152.512 10.6807C152.732 10.784 152.95 10.8876 153.167 10.9917L133.069 34.8755H114.107L111.926 17.0358C116.208 11.9404 122.565 6.73563 130.853 3.68958Z" fill="#BA1A0C"/>
<path d="M105.833 67.2725C105.833 67.2725 101.46 58.5886 101.46 46.0662C101.46 34.2046 106.095 23.8636 112 17.099L133.076 34.8712L133.143 34.9282L105.833 67.2725Z" fill="#EA4335"/>
<path d="M188.598 62.6274C190.228 71.7525 190.967 82.3171 190.999 95.375C191.075 126.436 186.923 145.115 176.35 161.286C176.266 161.415 176.182 161.543 176.097 161.67L110.327 95.9011L118.978 87.2507C119.531 87.9415 120.082 88.6257 120.627 89.3032L120.629 89.3049C122.595 91.7471 124.493 94.1035 126.18 96.378C130.155 101.349 134.203 107.579 136.322 111.355C138.877 116.217 139.951 119.515 141.837 125.306L141.891 125.472C143.013 128.723 144.083 129.709 146.327 129.709C148.782 129.709 149.904 128.052 150.764 125.472C152.557 119.903 153.942 115.665 156.134 111.617C160.444 103.866 165.877 96.9654 171.184 90.3369C171.356 90.1178 171.637 89.772 172.006 89.3184C174.762 85.9292 182.416 76.5164 186.098 68.8575C186.098 68.8575 187.339 66.5529 188.598 62.6274Z" fill="url(#paint2_linear_108_42)"/>
<path d="M1 96.4285C1 96.0811 1.00036 95.7299 1.00107 95.3749C1.05247 69.8796 3.78817 54.0812 10.6775 39.5C17.2889 25.507 25.5739 17.2167 39.4783 10.6808C54.2478 3.73821 70.2337 1 95.9953 1C110.066 1 121.221 1.8169 130.853 3.68959C122.565 6.73565 116.208 11.9404 111.926 17.0358L111.942 17.1656C106.065 23.9314 101.46 34.2435 101.46 46.0663C101.46 58.5887 105.833 67.2725 105.833 67.2725L105.833 67.2735C106.261 68.2469 106.723 69.2095 107.214 70.1614L15.8279 161.548C9.76386 152.589 5.4546 141.186 3.23235 127.931C1.5607 117.961 1 110.134 1 96.4285Z" fill="url(#paint3_linear_108_42)"/>
<path d="M74.5689 48.4229C74.5689 46.487 74.3951 44.6255 74.0725 42.8385H48.3596V53.4116H63.0527C62.4074 56.8118 60.4715 59.6908 57.5676 61.6268V68.5017H66.4281C71.5905 63.7364 74.5689 56.7373 74.5689 48.4229Z" fill="white"/>
<path d="M48.3596 75.1037C55.731 75.1037 61.911 72.6714 66.4281 68.5017L57.5676 61.6268C55.1353 63.2648 52.0329 64.2576 48.3596 64.2576C41.2613 64.2576 35.2302 59.4675 33.0709 53.0145H23.987V60.0631C28.4793 68.9733 37.6873 75.1037 48.3596 75.1037Z" fill="white"/>
<path d="M33.0709 52.9896C32.5249 51.3515 32.2022 49.6142 32.2022 47.8024C32.2022 45.9906 32.5249 44.2532 33.0709 42.6151V35.5664H23.987C22.1256 39.2397 21.0583 43.3845 21.0583 47.8024C21.0583 52.2202 22.1256 56.365 23.987 60.0383L31.0605 54.5284L33.0709 52.9896Z" fill="white"/>
<path d="M48.3596 31.372C52.3804 31.372 55.9544 32.7619 58.8086 35.4423L66.6267 27.6243C61.8862 23.2064 55.731 20.5011 48.3596 20.5011C37.6873 20.5011 28.4793 26.6315 23.987 35.5664L33.0709 42.6151C35.2302 36.1621 41.2613 31.372 48.3596 31.372Z" fill="white"/>
<defs>
<linearGradient id="paint0_linear_108_42" x1="67.4028" y1="70.1615" x2="67.4028" y2="176.031" gradientUnits="userSpaceOnUse">
<stop stop-color="#FFD048"/>
<stop offset="1" stop-color="#FDC218"/>
</linearGradient>
<linearGradient id="paint1_linear_108_42" x1="95.9228" y1="110.327" x2="95.9228" y2="191" gradientUnits="userSpaceOnUse">
<stop stop-color="#5E94EE"/>
<stop offset="1" stop-color="#4082EF"/>
</linearGradient>
<linearGradient id="paint2_linear_108_42" x1="150.664" y1="62.6274" x2="150.664" y2="161.67" gradientUnits="userSpaceOnUse">
<stop stop-color="#D6D6D6"/>
<stop offset="1" stop-color="#A8A8A8"/>
</linearGradient>
<linearGradient id="paint3_linear_108_42" x1="65.9267" y1="1" x2="65.9267" y2="161.548" gradientUnits="userSpaceOnUse">
<stop stop-color="#49C76A"/>
<stop offset="1" stop-color="#3C9E56"/>
</linearGradient>
</defs>
</svg>
