<svg width="192" height="192" viewBox="0 0 192 192" fill="none" xmlns="http://www.w3.org/2000/svg">
<path d="M79.8641 190.494C58.4515 188.98 43.1039 184.514 30.2301 176.052C16.4521 166.996 6.93903 150.04 3.23235 127.931C1.51833 117.708 0.97229 109.739 1.00107 95.3749C1.05247 69.8796 3.78817 54.0812 10.6775 39.5C17.2889 25.507 25.5739 17.2167 39.4783 10.6808C54.2478 3.73821 70.2337 1 95.9953 1C121.757 1 137.743 3.73821 152.512 10.6808C166.404 17.211 174.634 25.4402 181.334 39.5C188.169 53.8448 190.937 69.844 190.999 95.3749C191.075 126.436 186.923 145.115 176.35 161.286C166.477 176.388 148.497 185.963 123.79 189.276C110.91 191.003 93.7794 191.478 79.8641 190.494Z" fill="url(#paint0_linear_108_48)"/>
<path d="M46.6299 72.437C46.6299 66.8598 51.1511 62.3386 56.7283 62.3386H134.524C140.101 62.3386 144.622 66.8598 144.622 72.437C144.622 78.0143 140.101 82.5355 134.524 82.5355H56.7283C51.1511 82.5355 46.6299 78.0143 46.6299 72.437Z" fill="white"/>
<path d="M46.6299 99.3662C46.6299 93.789 51.1511 89.2678 56.7283 89.2678H134.524C140.101 89.2678 144.622 93.789 144.622 99.3662C144.622 104.943 140.101 109.465 134.524 109.465H56.7283C51.1511 109.465 46.6299 104.943 46.6299 99.3662Z" fill="white"/>
<path d="M46.6299 126.295C46.6299 120.718 51.1511 116.197 56.7283 116.197H110.587C116.164 116.197 120.685 120.718 120.685 126.295C120.685 131.873 116.164 136.394 110.587 136.394H56.7283C51.1511 136.394 46.6299 131.873 46.6299 126.295Z" fill="white"/>
<defs>
<linearGradient id="paint0_linear_108_48" x1="96" y1="1" x2="96" y2="191" gradientUnits="userSpaceOnUse">
<stop stop-color="#4486F4"/>
<stop offset="1" stop-color="#3770CF"/>
</linearGradient>
</defs>
</svg>
