<svg width="192" height="192" viewBox="0 0 192 192" fill="none" xmlns="http://www.w3.org/2000/svg">
<path d="M79.8641 190.494C58.4515 188.98 43.1039 184.514 30.2301 176.052C16.4521 166.996 6.93903 150.04 3.23235 127.931C1.51833 117.708 0.97229 109.739 1.00107 95.3749C1.05247 69.8796 3.78817 54.0812 10.6775 39.5C17.2889 25.507 25.5739 17.2167 39.4783 10.6808C54.2478 3.73821 70.2337 1 95.9953 1C121.757 1 137.743 3.73821 152.512 10.6808C166.404 17.211 174.634 25.4402 181.334 39.5C188.169 53.8448 190.937 69.844 190.999 95.3749C191.075 126.436 186.923 145.115 176.35 161.286C166.477 176.388 148.497 185.963 123.79 189.276C110.91 191.003 93.7794 191.478 79.8641 190.494Z" fill="url(#paint0_linear_108_52)"/>
<path d="M30.23 176.052C43.1038 184.514 58.4514 188.98 79.864 190.494C84.6658 190.834 89.8503 190.999 95.111 191C95.1297 191 95.1483 191 95.167 191C105.134 190.999 115.37 190.405 123.79 189.276C148.497 185.963 166.477 176.388 176.35 161.286C177.308 159.822 178.213 158.336 179.066 156.823C174.538 147.288 168.15 138.61 160.221 131.23C151.787 123.381 141.776 117.155 130.757 112.907C119.738 108.659 107.929 106.472 96.0022 106.472C84.0757 106.472 72.266 108.659 61.2473 112.907C50.2287 117.155 40.2169 123.381 31.7836 131.23C23.8494 138.615 17.4586 147.299 12.9292 156.842C17.4968 164.997 23.3284 171.516 30.23 176.052Z" fill="url(#paint1_linear_108_52)"/>
<path d="M74.3071 121.105L71.7769 118.007L68.5258 120.662L71.3345 123.782L90.1717 144.703C93.3495 148.232 98.8843 148.232 102.062 144.703L120.899 123.782L123.708 120.662L120.457 118.007L117.927 121.105C120.457 118.007 120.456 118.007 120.456 118.006L120.454 118.005L120.45 118.002L120.439 117.992L120.403 117.963C120.372 117.939 120.331 117.905 120.277 117.863C120.171 117.778 120.019 117.658 119.825 117.507C119.437 117.207 118.881 116.785 118.188 116.282C116.805 115.279 114.854 113.938 112.582 112.592C108.235 110.015 101.973 106.961 96.1169 106.961C90.2605 106.961 83.9991 110.015 79.6518 112.592C77.3801 113.938 75.4291 115.279 74.046 116.282C73.3525 116.785 72.7967 117.207 72.4091 117.507C72.2153 117.658 72.0631 117.778 71.9566 117.863C71.9033 117.905 71.8613 117.939 71.8312 117.963L71.795 117.992L71.7837 118.002L71.7797 118.005L71.7782 118.006C71.7775 118.007 71.7769 118.007 74.3071 121.105Z" fill="#FFC968" stroke="#404040" stroke-width="8"/>
<path d="M174.147 82.9095C174.147 103.532 157.747 120.249 137.516 120.249C117.285 120.249 100.884 103.532 100.884 82.9095C100.884 62.2873 117.285 45.5697 137.516 45.5697C157.747 45.5697 174.147 62.2873 174.147 82.9095Z" fill="white"/>
<path fill-rule="evenodd" clip-rule="evenodd" d="M179.031 82.9095C179.031 106.2 160.495 125.173 137.516 125.173C114.536 125.173 96 106.2 96 82.9095C96 59.6193 114.536 40.6458 137.516 40.6458C160.495 40.6458 179.031 59.6193 179.031 82.9095ZM137.516 120.249C157.747 120.249 174.147 103.532 174.147 82.9095C174.147 62.2873 157.747 45.5697 137.516 45.5697C117.285 45.5697 100.884 62.2873 100.884 82.9095C100.884 103.532 117.285 120.249 137.516 120.249Z" fill="#404040"/>
<path d="M137.516 111.222C153.251 111.222 166.007 98.5462 166.007 82.9095C166.007 67.2729 153.251 54.5969 137.516 54.5969C134.214 54.5969 133.438 59.3331 134.859 62.3136C135.693 64.0617 136.159 66.0163 136.159 68.0791C136.159 75.5251 130.085 81.5613 122.592 81.5613C120.497 81.5613 118.513 81.0894 116.741 80.2468C113.754 78.8258 109.025 79.6015 109.025 82.9095C109.025 98.5462 121.78 111.222 137.516 111.222Z" fill="#404040"/>
<path d="M91.1156 82.9095C91.1156 103.532 74.7151 120.249 54.484 120.249C34.253 120.249 17.8525 103.532 17.8525 82.9095C17.8525 62.2873 34.253 45.5697 54.484 45.5697C74.7151 45.5697 91.1156 62.2873 91.1156 82.9095Z" fill="white"/>
<path fill-rule="evenodd" clip-rule="evenodd" d="M95.9998 82.9095C95.9998 106.2 77.4633 125.173 54.484 125.173C31.5048 125.173 12.9683 106.2 12.9683 82.9095C12.9683 59.6193 31.5048 40.6458 54.484 40.6458C77.4633 40.6458 95.9998 59.6193 95.9998 82.9095ZM54.484 120.249C74.7151 120.249 91.1156 103.532 91.1156 82.9095C91.1156 62.2873 74.7151 45.5697 54.484 45.5697C34.253 45.5697 17.8525 62.2873 17.8525 82.9095C17.8525 103.532 34.253 120.249 54.484 120.249Z" fill="#404040"/>
<path d="M54.484 111.222C70.2193 111.222 82.9752 98.5462 82.9752 82.9095C82.9752 67.2729 70.2193 54.5969 54.484 54.5969C51.1821 54.5969 50.4067 59.3331 51.8277 62.3136C52.6611 64.0617 53.1273 66.0163 53.1273 68.0791C53.1273 75.5251 47.053 81.5613 39.56 81.5613C37.465 81.5613 35.4809 81.0894 33.7094 80.2468C30.7222 78.8258 25.9928 79.6015 25.9928 82.9095C25.9928 98.5462 38.7488 111.222 54.484 111.222Z" fill="#404040"/>
<defs>
<linearGradient id="paint0_linear_108_52" x1="96" y1="1" x2="96" y2="191" gradientUnits="userSpaceOnUse">
<stop stop-color="#5FBB54"/>
<stop offset="1" stop-color="#4F9C4E"/>
</linearGradient>
<linearGradient id="paint1_linear_108_52" x1="95.9978" y1="106.472" x2="95.9978" y2="191" gradientUnits="userSpaceOnUse">
<stop stop-color="#83C566"/>
<stop offset="1" stop-color="#60BA54"/>
</linearGradient>
</defs>
</svg>
