<svg width="192" height="192" viewBox="0 0 192 192" fill="none" xmlns="http://www.w3.org/2000/svg">
<path d="M79.8641 190.494C58.4515 188.98 43.1039 184.514 30.2301 176.052C16.4521 166.996 6.93903 150.04 3.23235 127.931C1.51833 117.708 0.97229 109.739 1.00107 95.3749C1.05247 69.8796 3.78817 54.0812 10.6775 39.5C17.2889 25.507 25.5739 17.2167 39.4783 10.6808C54.2478 3.73821 70.2337 1 95.9953 1C121.757 1 137.743 3.73821 152.512 10.6808C166.404 17.211 174.634 25.4402 181.334 39.5C188.169 53.8448 190.937 69.844 190.999 95.3749C191.075 126.436 186.923 145.115 176.35 161.286C166.477 176.388 148.497 185.963 123.79 189.276C110.91 191.003 93.7794 191.478 79.8641 190.494Z" fill="url(#paint0_linear_108_53)"/>
<path d="M70.0627 98.2705C70.0627 83.8426 81.7536 72.1605 96.1807 72.1605C110.608 72.1605 122.299 83.8426 122.299 98.2705C122.299 112.698 110.608 124.381 96.1807 124.381C81.7536 124.381 70.0627 112.698 70.0627 98.2705Z" fill="white"/>
<path d="M96.0811 28.6872C57.6255 28.6872 26.4331 59.8395 26.4331 98.081C26.4331 126.937 43.8451 151.499 69.1672 162.482C70.949 163.239 72.8763 163.588 74.8092 163.504C76.7421 163.42 78.6321 162.905 80.3421 161.997C82.0521 161.088 83.5392 159.81 84.6954 158.253C85.8517 156.696 86.6481 154.901 87.0269 152.997C87.6252 150.034 87.1782 146.954 85.7623 144.286C84.3464 141.617 82.0499 139.525 79.2661 138.369C63.5953 131.779 52.5511 116.298 52.5511 98.2258C52.5511 74.1626 72.0526 54.6924 96.0811 54.6924C120.11 54.6924 139.611 74.1626 139.611 98.2258C139.611 116.298 128.567 131.774 112.896 138.364V138.374C110.088 139.512 107.765 141.599 106.328 144.273C104.891 146.948 104.431 150.043 105.027 153.022C105.623 156.001 107.238 158.678 109.592 160.589C111.947 162.499 114.893 163.524 117.921 163.486C119.645 163.472 121.35 163.128 122.945 162.472C148.267 151.739 165.729 127.127 165.729 98.071C165.729 59.6299 134.537 28.6772 96.0811 28.6772" fill="white"/>
<defs>
<linearGradient id="paint0_linear_108_53" x1="96" y1="1" x2="96" y2="191" gradientUnits="userSpaceOnUse">
<stop stop-color="#00D318"/>
<stop offset="1" stop-color="#01AA14"/>
</linearGradient>
</defs>
</svg>
