<svg width="192" height="192" viewBox="0 0 192 192" fill="none" xmlns="http://www.w3.org/2000/svg">
<path d="M79.8641 190.494C58.4515 188.98 43.1039 184.514 30.2301 176.052C16.4521 166.996 6.93903 150.04 3.23235 127.931C1.51833 117.708 0.97229 109.739 1.00107 95.3749C1.05247 69.8796 3.78817 54.0812 10.6775 39.5C17.2889 25.507 25.5739 17.2167 39.4783 10.6808C54.2478 3.73821 70.2337 1 95.9953 1C121.757 1 137.743 3.73821 152.512 10.6808C166.404 17.211 174.634 25.4402 181.334 39.5C188.169 53.8448 190.937 69.844 190.999 95.3749C191.075 126.436 186.923 145.115 176.35 161.286C166.477 176.388 148.497 185.963 123.79 189.276C110.91 191.003 93.7794 191.478 79.8641 190.494Z" fill="url(#paint0_linear_108_55)"/>
<path fill-rule="evenodd" clip-rule="evenodd" d="M128.188 41.4174C121.986 40.1536 115.637 42.9621 112.389 48.2983C111.65 49.5621 111.06 50.9664 110.764 52.3706C109.288 46.894 104.858 42.5408 99.0991 41.4174C93.0451 40.1536 86.6957 42.9621 83.4472 48.2983C82.7089 49.5621 82.1182 50.9664 81.8229 52.3706C80.3463 46.894 75.9165 42.5408 70.1578 41.4174C63.956 40.1536 57.6066 42.9621 54.3581 48.2983C51.1096 53.6345 51.7002 60.6558 55.6871 65.4302C59.6739 70.2047 66.4663 72.1707 72.3727 70.0643C77.0978 68.3792 80.494 64.3068 81.8229 59.6728C82.2659 61.7792 83.2995 63.7451 84.6285 65.4302C88.6153 70.2047 95.4076 72.1707 101.314 70.0643C106.039 68.3792 109.583 64.3068 110.764 59.6728C111.355 61.7792 112.241 63.7451 113.718 65.4302C117.704 70.2047 124.349 72.1707 130.255 70.0643C136.162 67.9579 140.296 62.2004 140.296 56.0217C140.296 49.0004 135.128 42.8217 128.188 41.4174Z" fill="white"/>
<path fill-rule="evenodd" clip-rule="evenodd" d="M80.3463 113.737C81.8229 120.196 85.6621 126.235 92.4544 128.06C98.9515 129.886 106.187 127.077 109.435 121.179C111.503 117.669 111.207 113.737 111.207 109.945C111.207 107.277 111.207 104.749 111.207 102.081C111.207 99.2729 111.207 96.3239 111.207 93.5154C111.207 89.8643 111.06 86.3537 112.979 82.9835C115.489 78.3494 120.51 75.5409 125.826 75.6813C131.141 75.9622 136.014 79.3324 138.081 84.1069C139.558 87.3367 139.263 90.8473 139.263 94.358C139.263 97.1665 139.263 99.975 139.263 102.784C139.263 108.962 139.706 115.281 138.524 121.32C135.719 135.362 125.973 147.439 112.832 153.056C99.5421 158.673 84.0378 157.269 72.0773 149.265C66.1709 145.333 61.4458 139.856 58.1973 133.537C55.0964 127.358 53.1768 119.635 54.3581 112.613C55.2441 107.418 59.3786 103.205 64.5467 102.222C70.0101 101.098 75.6212 103.626 78.4267 108.26C79.4603 109.945 79.9033 111.771 80.3463 113.737Z" fill="white"/>
<defs>
<linearGradient id="paint0_linear_108_55" x1="96" y1="1" x2="96" y2="191" gradientUnits="userSpaceOnUse">
<stop stop-color="#FFBD38"/>
<stop offset="1" stop-color="#FFAB01"/>
</linearGradient>
</defs>
</svg>
