<svg width="192" height="192" viewBox="0 0 192 192" fill="none" xmlns="http://www.w3.org/2000/svg">
<path d="M79.8641 190.494C58.4515 188.98 43.1039 184.514 30.2301 176.052C16.4521 166.996 6.93903 150.04 3.23235 127.931C1.51833 117.708 0.97229 109.739 1.00107 95.3749C1.05247 69.8796 3.78817 54.0812 10.6775 39.5C17.2889 25.507 25.5739 17.2167 39.4783 10.6808C54.2478 3.73821 70.2337 1 95.9953 1C121.757 1 137.743 3.73821 152.512 10.6808C166.404 17.211 174.634 25.4402 181.334 39.5C188.169 53.8448 190.937 69.844 190.999 95.3749C191.075 126.436 186.923 145.115 176.35 161.286C166.477 176.388 148.497 185.963 123.79 189.276C110.91 191.003 93.7794 191.478 79.8641 190.494Z" fill="url(#paint0_linear_108_54)"/>
<path d="M84.4976 151.796C71.1944 151.172 60.4355 149.916 56.694 148.551C49.2837 145.846 41.9667 138.307 39.4741 130.808C38.0853 126.629 36.8408 115.958 36.3541 104.056C35.7226 88.6149 37.2849 68.4882 39.6747 61.2759C42.8464 51.7035 50.1218 44.8447 59.0245 43.034C74.706 39.8444 97.2354 39.6495 114.489 42.5541C120.587 43.5807 122.163 44.3207 125.601 47.7717C129.234 51.4177 131.189 55.2287 131.974 60.1897L132.223 61.769L98.4999 61.7702C66.0851 61.7714 64.7372 61.7954 63.7641 62.3887C60.8572 64.1614 61.1613 68.4638 64.3068 70.0678C65.3589 70.6042 67.7635 70.6425 100.468 70.6429C140.122 70.6435 137.729 70.4944 143.497 73.3262C145.77 74.4425 146.843 75.2538 149.259 77.6832C155.554 84.0131 156.992 89.6115 156.293 105.07C155.771 116.623 154.337 127.171 152.567 132.472C149.95 140.313 144.553 146.433 138.156 148.815C131.938 151.13 103.72 152.698 84.4976 151.796ZM133.245 115.008C134.677 114.134 135.28 112.589 135.28 109.787C135.28 108.526 135.43 107.402 135.613 107.289C136.428 106.785 137.252 104.455 137.252 102.65C137.252 100.211 136.163 98.2769 134.111 97.0749C132.817 96.3162 132.351 96.2237 130.386 96.3348C128.54 96.4391 127.922 96.6278 126.916 97.3954C126.243 97.909 125.413 98.788 125.072 99.3487C123.754 101.516 123.971 104.823 125.555 106.705C126.215 107.49 126.349 108.061 126.45 110.525C126.568 113.393 126.582 113.435 127.797 114.548C128.837 115.501 129.265 115.673 130.591 115.672C131.581 115.671 132.557 115.427 133.245 115.008Z" fill="white"/>
<defs>
<linearGradient id="paint0_linear_108_54" x1="96" y1="1" x2="96" y2="191" gradientUnits="userSpaceOnUse">
<stop stop-color="#00C1EE"/>
<stop offset="1" stop-color="#01AED6"/>
</linearGradient>
</defs>
</svg>
