<svg width="192" height="192" viewBox="0 0 192 192" fill="none" xmlns="http://www.w3.org/2000/svg">
<path d="M79.8641 190.494C58.4515 188.98 43.1039 184.514 30.2301 176.052C16.4521 166.996 6.93903 150.04 3.23235 127.931C1.51833 117.708 0.97229 109.739 1.00107 95.3749C1.05247 69.8796 3.78817 54.0812 10.6775 39.5C17.2889 25.507 25.5739 17.2167 39.4783 10.6808C54.2478 3.73821 70.2337 1 95.9953 1C121.757 1 137.743 3.73821 152.512 10.6808C166.404 17.211 174.634 25.4402 181.334 39.5C188.169 53.8448 190.937 69.844 190.999 95.3749C191.075 126.436 186.923 145.115 176.35 161.286C166.477 176.388 148.497 185.963 123.79 189.276C110.91 191.003 93.7794 191.478 79.8641 190.494Z" fill="url(#paint0_linear_118_636)"/>
<path d="M158.436 85.5353C156.912 83.9976 155.096 82.7757 153.094 81.9401C151.092 81.1045 148.944 80.6718 146.773 80.667C143.575 80.667 140.371 81.8505 138.61 83.0174C134.958 85.4403 131.956 88.0643 126.553 95.0094V100.001C131.137 94.0603 135.474 89.3763 138.767 86.8026C140.932 85.0719 144.001 84.0055 146.773 84.0055C153.926 84.0055 159.968 90.0183 159.968 97.1365V100.14C159.968 103.657 158.582 106.968 156.052 109.452C153.591 111.901 150.253 113.276 146.773 113.277C140.893 113.277 135.721 109.263 134.318 103.78L131.95 106.627C133.673 112.378 139.9 116.615 146.773 116.615C148.944 116.61 151.092 116.178 153.094 115.342C155.096 114.507 156.912 113.285 158.436 111.747C161.589 108.609 163.323 104.489 163.323 100.14V97.1365C163.323 92.793 161.584 88.6673 158.436 85.5353ZM86.6254 84.0055C88.9031 84.0055 90.8723 84.4913 92.6508 85.4906C93.3675 84.6092 94.1375 83.7721 94.9566 82.9839C93.0772 81.5547 89.8905 80.667 86.6254 80.667C81.9689 80.667 77.7388 82.3418 74.7205 85.3734C71.7246 88.3881 70.064 92.5585 70.064 97.1365V116.615H73.4189V97.1309C73.4189 89.3986 78.8496 84.0055 86.6254 84.0055ZM118.48 116.604V97.1309C118.48 91.1461 113.768 86.4509 107.748 86.4509C104.943 86.4509 102.272 87.5842 100.213 89.6331C99.2102 90.6116 98.4112 91.7777 97.8624 93.0644C97.3136 94.3511 97.0258 95.7331 97.0155 97.1309V100.135C97.0155 105.924 101.936 110.815 107.748 110.815C109.347 110.815 111.512 110.424 112.842 109.341V105.818C111.54 106.862 109.644 107.482 107.748 107.482C106.775 107.493 105.811 107.31 104.91 106.945C104.01 106.58 103.191 106.039 102.504 105.354C101.817 104.67 101.274 103.855 100.907 102.959C100.541 102.063 100.358 101.102 100.37 100.135V97.1309C100.36 96.1642 100.544 95.2051 100.911 94.31C101.278 93.4148 101.821 92.6017 102.508 91.9183C103.195 91.2349 104.013 90.6951 104.913 90.3305C105.813 89.9658 106.776 89.7838 107.748 89.795C108.72 89.7831 109.684 89.9645 110.585 90.3288C111.485 90.6931 112.303 91.2329 112.991 91.9163C113.679 92.5998 114.223 93.4131 114.59 94.3086C114.958 95.2041 115.142 96.1637 115.131 97.1309V116.61L118.48 116.604ZM28.6772 95.2104V96.2879C28.6772 102.072 30.8821 107.47 34.8878 111.485C36.8618 113.465 39.2125 115.034 41.8028 116.1C44.393 117.166 47.1708 117.707 49.9737 117.693C54.5741 117.693 58.6584 116.654 62.103 114.617C64.9418 112.931 66.1985 111.228 66.3107 111.071V93.1113H49.1546V96.4442H62.9558V110.033L62.9446 110.044C61.3288 111.652 57.4914 114.343 49.9737 114.343C47.5991 114.364 45.2444 113.911 43.0485 113.012C40.8526 112.112 38.8599 110.784 37.188 109.106C33.8356 105.676 31.9805 101.067 32.0266 96.2823V95.2048C32.0266 90.571 34.1304 85.9596 37.7827 82.5372C41.491 79.0658 46.3916 77.1347 51.4829 77.1386C56.2347 77.1386 59.5504 77.8588 62.2152 79.4611V75.7205C59.4438 74.5481 56.1281 74.0177 51.4829 74.0177C39.1235 74.0177 28.6772 83.7264 28.6772 95.2104ZM86.6254 89.8006C87.9008 89.8006 88.9686 90.009 89.8288 90.4259C90.2496 89.3875 90.676 88.5333 91.2987 87.4949C90.3898 86.8472 88.2187 86.4564 86.6254 86.4564C80.5102 86.4564 75.893 91.0512 75.893 97.1365V116.615H79.2479V97.1309C79.2479 92.8098 82.2775 89.8006 86.6254 89.8006ZM62.2152 85.8758V81.9287C59.1801 80.3097 55.8701 79.5895 51.4829 79.5895C47.0003 79.5895 42.7589 81.2253 39.5218 84.1898C36.2847 87.1599 34.5007 91.0735 34.5007 95.1993V96.2768C34.5007 104.886 41.4405 111.887 49.9737 111.887C56.9136 111.887 59.7636 109.625 60.4873 108.911V98.8951H49.1546V102.234H57.3456V107.253L57.3175 107.258C56.2684 107.677 54.0748 108.548 49.9681 108.548C48.3734 108.555 46.7934 108.245 45.3211 107.635C43.8489 107.025 42.5142 106.128 41.3957 104.997C40.2578 103.847 39.359 102.485 38.7506 100.988C38.1422 99.4919 37.8362 97.8909 37.85 96.2768V95.1993C37.85 88.5444 44.0942 82.928 51.4829 82.928C56.5882 82.928 59.6177 83.7487 62.2152 85.8758ZM141.348 92.1622C142.862 90.6548 144.843 89.795 146.773 89.795C147.744 89.7838 148.708 89.9658 149.608 90.3305C150.508 90.6951 151.325 91.2349 152.012 91.9183C152.7 92.6017 153.243 93.4148 153.61 94.31C153.977 95.2051 154.161 96.1642 154.15 97.1309V100.135C154.15 104.255 150.907 107.482 146.773 107.482C144.77 107.482 142.834 106.387 141.32 104.411C139.96 102.589 139.146 100.421 138.974 98.1582L136.259 101.458C136.792 103.981 138.111 106.399 139.99 108.101C141.92 109.849 144.332 110.815 146.773 110.815C149.618 110.812 152.346 109.685 154.358 107.683C156.37 105.681 157.502 102.966 157.505 100.135V97.1309C157.505 94.3451 156.372 91.6764 154.307 89.6331C153.324 88.6348 152.152 87.8398 150.859 87.2936C149.566 86.7475 148.177 86.4611 146.773 86.4509C145 86.4509 142.184 87.0873 138.823 90.0909L138.812 90.1021C137.914 90.9953 135.805 93.0945 134.52 94.5907C132.366 96.9355 129.23 100.475 126.553 104.015V109.223C129.521 105.427 131.227 103.306 134.015 100.101C136.512 97.2035 139.603 93.6807 141.348 92.1622ZM91.1977 100.135C91.1977 104.484 92.9369 108.604 96.0899 111.747C97.6149 113.282 99.4302 114.501 101.431 115.335C103.432 116.169 105.579 116.6 107.748 116.604C109.599 116.604 111.501 116.213 112.842 115.554V112.222C111.225 112.884 109.497 113.24 107.748 113.271C100.6 113.271 94.5526 107.258 94.5526 100.135V97.1309C94.5526 90.0127 100.6 84 107.748 84C109.484 83.9903 111.205 84.3236 112.811 84.9803C114.417 85.6371 115.876 86.6043 117.104 87.8261C118.332 89.0479 119.304 90.4999 119.964 92.098C120.624 93.6962 120.958 95.4087 120.949 97.1365V116.61H124.304V96.4889C124.094 92.24 122.257 88.2323 119.17 85.2896C116.115 82.323 112.017 80.6605 107.748 80.6558C103.383 80.6558 99.2428 82.3865 96.0899 85.5297C94.5453 87.0464 93.3178 88.8524 92.4781 90.8435C91.6385 92.8347 91.2033 94.9716 91.1977 97.1309V100.135ZM130.009 87.2213C131.019 85.9528 132.138 84.7741 133.353 83.6985V66.0789H130.009V87.2213ZM135.827 82.3307V66.0789H139.176V80.0473C137.986 80.6963 136.863 81.4632 135.827 82.3363" fill="white"/>
<defs>
<linearGradient id="paint0_linear_118_636" x1="96" y1="1" x2="96" y2="191" gradientUnits="userSpaceOnUse">
<stop stop-color="#30B053"/>
<stop offset="1" stop-color="#289245"/>
</linearGradient>
</defs>
</svg>
