<svg width="192" height="192" viewBox="0 0 192 192" fill="none" xmlns="http://www.w3.org/2000/svg">
<g clip-path="url(#clip0_108_56)">
<path d="M79.8641 190.494C58.4515 188.98 43.1039 184.514 30.2301 176.052C16.4521 166.996 6.93903 150.04 3.23235 127.931C1.51833 117.708 0.97229 109.739 1.00107 95.3749C1.05247 69.8796 3.78817 54.0812 10.6775 39.5C17.2889 25.507 25.5739 17.2167 39.4783 10.6808C54.2478 3.73821 70.2337 1 95.9953 1C121.757 1 137.743 3.73821 152.512 10.6808C166.404 17.211 174.634 25.4402 181.334 39.5C188.169 53.8448 190.937 69.844 190.999 95.3749C191.075 126.436 186.923 145.115 176.35 161.286C166.477 176.388 148.497 185.963 123.79 189.276C110.91 191.003 93.7794 191.478 79.8641 190.494Z" fill="url(#paint0_linear_108_56)"/>
<g filter="url(#filter0_d_108_56)">
<path d="M96.9229 150.552C82.9033 148.739 70.7391 140.846 65.2804 130.02C62.2426 123.995 62.1219 123.226 61.8746 108.324L61.6515 94.8756L59.636 94.402C52.138 92.6407 46.6877 88.2084 43.3501 81.1578C41.1743 76.5616 40.7707 74.0201 40.5835 63.7358L40.5835 54.3815H58.2251V61.6235H53.2295C49.0902 61.6235 48.1927 61.7304 47.9942 62.2468C47.5421 63.4227 48.1508 72.6502 48.8156 74.6993C51.1719 81.9613 55.8689 86.2431 62.7455 87.398C68.1571 88.3068 74.0059 86.4269 78.0612 82.4752C82.1782 78.4634 83.6206 74.3917 83.6206 66.7808V61.6235H73.543V54.3815H91.1742V63.9369C91.0208 72.0968 90.8766 73.8497 90.1866 75.9397C88.7709 80.2278 86.4107 84.1818 83.3603 87.3757C79.9652 90.9305 76.5047 93.0985 72.6395 94.0923L69.8477 94.8101L70.0159 107.285C70.1527 117.425 70.3122 120.212 70.8681 122.174C74.2036 133.947 84.8363 141.77 99.6438 143.347C108.579 144.975 122.235 138.774 127.826 127.669C130.231 122.892 130.514 120.796 130.603 107.087L130.683 102.81H138.847V107.978C138.67 122.267 138.582 122.991 136.354 128.498C132.819 137.232 124.635 144.709 114.769 148.218C109.892 149.953 106.232 150.56 99.6438 150.728C96.6459 150.516 98.364 150.738 96.9229 150.552ZM132.408 84.9612C124.979 83.6544 119.219 76.7849 119.199 69.2096C119.188 65.22 121.478 60.3377 124.772 57.3237C125.363 56.7836 127.025 55.7649 128.466 55.0599C130.881 53.8783 131.402 53.7781 135.125 53.7781C138.874 53.7781 139.358 53.8728 141.846 55.0953C149.171 58.6948 152.676 67.0186 150.024 74.5205C147.49 81.688 139.78 86.2579 132.408 84.9612ZM139.842 76.2733C142.309 74.5423 143.366 72.4711 143.374 69.3483C143.381 66.3759 142.825 65.1228 140.608 63.1237C135.66 58.662 127.861 61.4824 126.634 68.1774C126.036 71.4419 128.25 75.4786 131.46 76.9772C133.967 78.1472 137.606 77.8415 139.842 76.2733Z" fill="#FEFEFE"/>
<path d="M96.859 151.048L96.8588 151.048C82.7063 149.218 70.3805 141.245 64.8339 130.245C63.3114 127.225 62.4907 125.468 62.0371 122.578C61.5895 119.727 61.498 115.767 61.3747 108.332L61.158 95.2732L59.5216 94.8888C51.8733 93.0921 46.2999 88.5579 42.8982 81.3717C41.7963 79.044 41.133 77.2133 40.7273 74.6582C40.3248 72.1236 40.1771 68.884 40.0836 63.7449L40.0834 63.7358H40.0835L40.0835 54.3815L40.0835 53.8815H40.5835H58.2251H58.7251V54.3815V61.6235V62.1235H58.2251H53.2295C51.1522 62.1235 49.9246 62.1509 49.1932 62.238C48.825 62.2818 48.6288 62.3363 48.5257 62.3845C48.4792 62.4062 48.464 62.4211 48.4623 62.4229C48.4623 62.4229 48.4623 62.4229 48.4622 62.423C48.4619 62.4236 48.4615 62.4247 48.4609 62.4262L96.859 151.048ZM96.859 151.048L96.8618 151.049C97.2145 151.094 97.3879 151.116 97.4862 151.126C97.5972 151.137 97.6497 151.134 97.6983 151.131C97.7065 151.131 97.7147 151.13 97.723 151.13C97.8139 151.125 98.1041 151.12 99.6086 151.226L99.6326 151.228L99.6566 151.227C106.283 151.059 109.998 150.446 114.937 148.689C124.921 145.138 133.223 137.568 136.817 128.685C137.935 125.922 138.535 124.315 138.866 121.591C139.193 118.902 139.259 115.115 139.347 107.984V107.978V102.81V102.31H138.847H130.683H130.192L130.183 102.801L130.103 107.077L130.103 107.084C130.058 113.947 129.965 117.864 129.588 120.66C129.215 123.424 128.566 125.088 127.38 127.444C124.64 132.886 119.913 137.144 114.757 139.84C109.595 142.539 104.061 143.643 99.7334 142.855L99.7152 142.852L99.6968 142.85C85.0369 141.289 74.6152 133.566 71.3491 122.038C70.8159 120.156 70.6531 117.453 70.5159 107.278L70.3529 95.1965L72.764 94.5766C76.7385 93.5547 80.2772 91.3277 83.7219 87.721C86.8248 84.4722 89.223 80.4534 90.6614 76.0964C91.3802 73.9193 91.5212 72.0811 91.6741 63.9463L91.6742 63.9463V63.9369V54.3815V53.8815H91.1742H73.543H73.043V54.3815V61.6235V62.1235H73.543H83.1206M96.859 151.048L83.1206 62.1235M83.1206 62.1235V66.7808C83.1206 70.559 82.7618 73.4157 81.9135 75.8107C81.0685 78.196 79.7269 80.154 77.7123 82.1171C73.7668 85.9617 68.0769 87.7863 62.8284 86.9049C56.1562 85.7843 51.5967 81.6505 49.2912 74.545C49.1419 74.0846 48.9835 73.1689 48.8395 71.9937C48.6974 70.8333 48.5739 69.4606 48.485 68.1127C48.396 66.7644 48.3421 65.4476 48.3383 64.3986C48.3364 63.8735 48.3471 63.4218 48.3712 63.0697C48.3969 62.6959 48.4348 62.4941 48.4609 62.4263L83.1206 62.1235ZM124.435 56.9548L124.772 57.3237L124.435 56.9548C121.051 60.0513 118.688 65.0629 118.699 69.2109C118.719 77.0269 124.652 84.1046 132.322 85.4536C139.939 86.7937 147.882 82.0796 150.495 74.6872C153.235 66.9367 149.61 58.3534 142.066 54.6466C140.822 54.0352 140.027 53.6781 139.055 53.4876C138.098 53.3 136.989 53.2781 135.125 53.2781C133.273 53.2781 132.163 53.3015 131.21 53.4849C130.242 53.6713 129.456 54.0189 128.246 54.6108C127.51 54.9708 126.72 55.4095 126.039 55.8273C125.366 56.2394 124.768 56.6501 124.435 56.9548ZM142.874 69.347C142.87 70.8517 142.614 72.0682 142.085 73.1055C141.556 74.1417 140.737 75.0341 139.554 75.8639C138.524 76.5871 137.145 77.0334 135.711 77.1538C134.277 77.2742 132.831 77.0653 131.672 76.5241C130.178 75.827 128.895 74.5265 128.057 72.9991C127.218 71.47 126.852 69.7613 127.126 68.2676C128.287 61.9316 135.635 59.3128 140.273 63.495C141.363 64.4776 141.995 65.2344 142.368 66.0741C142.741 66.9135 142.878 67.8867 142.874 69.347Z" stroke="white"/>
</g>
</g>
<defs>
<filter id="filter0_d_108_56" x="-8.4165" y="4.77808" width="208.323" height="194.95" filterUnits="userSpaceOnUse" color-interpolation-filters="sRGB">
<feFlood flood-opacity="0" result="BackgroundImageFix"/>
<feColorMatrix in="SourceAlpha" type="matrix" values="0 0 0 0 0 0 0 0 0 0 0 0 0 0 0 0 0 0 127 0" result="hardAlpha"/>
<feOffset/>
<feGaussianBlur stdDeviation="24"/>
<feComposite in2="hardAlpha" operator="out"/>
<feColorMatrix type="matrix" values="0 0 0 0 0 0 0 0 0 0 0 0 0 0 0 0 0 0 0.25 0"/>
<feBlend mode="normal" in2="BackgroundImageFix" result="effect1_dropShadow_108_56"/>
<feBlend mode="normal" in="SourceGraphic" in2="effect1_dropShadow_108_56" result="shape"/>
</filter>
<linearGradient id="paint0_linear_108_56" x1="96" y1="1" x2="96" y2="191" gradientUnits="userSpaceOnUse">
<stop stop-color="#EB4D7B"/>
<stop offset="1" stop-color="#EB2C64"/>
</linearGradient>
<clipPath id="clip0_108_56">
<rect width="192" height="192" fill="white"/>
</clipPath>
</defs>
</svg>
