<svg width="192" height="192" viewBox="0 0 192 192" fill="none" xmlns="http://www.w3.org/2000/svg">
<path d="M79.8641 190.494C58.4515 188.98 43.1039 184.514 30.2301 176.052C16.4521 166.996 6.93903 150.04 3.23235 127.931C1.51833 117.708 0.97229 109.739 1.00107 95.3749C1.05247 69.8796 3.78817 54.0812 10.6775 39.5C17.2889 25.507 25.5739 17.2167 39.4783 10.6808C54.2478 3.73821 70.2337 1 95.9953 1C121.757 1 137.743 3.73821 152.512 10.6808C166.404 17.211 174.634 25.4402 181.334 39.5C188.169 53.8448 190.937 69.844 190.999 95.3749C191.075 126.436 186.923 145.115 176.35 161.286C166.477 176.388 148.497 185.963 123.79 189.276C110.91 191.003 93.7794 191.478 79.8641 190.494Z" fill="url(#paint0_linear_108_58)"/>
<path d="M136.31 92.4323C136.255 92.5546 135.937 93.2735 135.599 94.0382C135.261 94.7978 134.984 95.435 134.989 95.4503C134.989 95.4656 135.634 95.4809 136.426 95.4809C137.218 95.4809 137.864 95.4758 137.864 95.4656C137.864 95.4605 137.738 95.1699 137.581 94.8182C137.425 94.4664 137.263 94.0993 137.223 94.0025C137.183 93.9056 137.107 93.7323 137.057 93.6201C137.006 93.508 136.86 93.1817 136.734 92.8911C136.608 92.6056 136.502 92.3507 136.507 92.3252C136.512 92.2946 136.487 92.2589 136.461 92.2436C136.431 92.2283 136.366 92.3099 136.31 92.4323Z" fill="#FBD401"/>
<path fill-rule="evenodd" clip-rule="evenodd" d="M92.9703 71.0661C93.7873 71.061 94.4682 71.0457 94.4834 71.0253C94.5035 71.01 95.9208 71.01 97.6407 71.0304C99.3606 71.0508 100.969 71.0712 101.222 71.0865C101.469 71.1018 102.175 71.1222 102.785 71.1375C103.395 71.1528 104.45 71.1884 105.13 71.219C105.811 71.2445 106.981 71.3006 107.728 71.3414C107.889 71.3513 108.075 71.3626 108.276 71.3748L108.276 71.3748L108.276 71.3748C109.007 71.4193 109.937 71.4758 110.578 71.5198C111.395 71.5759 112.61 71.6677 113.276 71.7237C113.942 71.7798 115.087 71.8869 115.823 71.9583C116.559 72.0296 117.775 72.152 118.521 72.2387C119.268 72.3202 120.428 72.4579 121.094 72.5445C121.759 72.6261 123.166 72.8198 124.221 72.9728C125.275 73.1257 126.692 73.3449 127.373 73.4571C128.054 73.5744 129.173 73.7681 129.869 73.8955C130.56 74.023 131.65 74.2269 132.29 74.3544C132.931 74.4818 134.222 74.7571 135.165 74.9661C136.108 75.1803 137.697 75.5575 138.696 75.8124C139.694 76.0622 141.258 76.4854 142.176 76.7505C143.094 77.0156 144.375 77.4081 145.026 77.6172C145.676 77.8313 146.564 78.127 146.993 78.2748C147.263 78.3682 147.617 78.4941 147.928 78.605C148.109 78.6697 148.277 78.7294 148.405 78.7744C148.753 78.9019 149.242 79.0854 149.489 79.1823C149.736 79.2791 150.342 79.5188 150.826 79.7176C151.31 79.9164 151.915 80.1662 152.162 80.2784C152.371 80.3688 152.728 80.5285 153.019 80.6589L153.171 80.727C153.479 80.8596 154.326 81.2725 155.062 81.6447C155.799 82.0168 156.717 82.5012 157.105 82.7255C157.493 82.9447 158.028 83.2557 158.29 83.4188C158.553 83.5819 159.158 83.9745 159.627 84.2906C160.096 84.6067 160.757 85.0757 161.089 85.3306C161.422 85.5906 161.957 86.029 162.275 86.3043C162.592 86.5796 163.183 87.1455 163.586 87.5636C163.99 87.9765 164.534 88.6036 164.797 88.9452C165.059 89.2918 165.432 89.8271 165.619 90.1432C165.805 90.4593 166.052 90.9079 166.163 91.1475C166.274 91.3872 166.446 91.7899 166.537 92.0397C166.632 92.2946 166.769 92.7382 166.839 93.0338C166.905 93.3295 166.98 93.6966 167.001 93.8495C167.026 94.0025 167.041 94.5225 167.041 94.9966C167.041 95.4707 167.026 95.9653 167.006 96.0927C166.987 96.2132 166.95 96.4156 166.924 96.5537L166.92 96.577C166.895 96.7198 166.824 97.0053 166.769 97.2143C166.713 97.4233 166.587 97.8159 166.486 98.081C166.385 98.3461 166.158 98.8457 165.977 99.1924C165.8 99.5339 165.503 100.039 165.321 100.314C165.134 100.584 164.812 101.023 164.6 101.288C164.388 101.553 163.99 102.012 163.707 102.307C163.425 102.603 162.93 103.087 162.603 103.383C162.28 103.679 161.69 104.173 161.296 104.479C160.908 104.79 160.212 105.295 159.753 105.606C159.294 105.917 158.578 106.381 158.164 106.631C157.746 106.885 157.009 107.309 156.525 107.574C156.041 107.839 155.415 108.175 155.138 108.313C154.861 108.456 154.281 108.736 153.852 108.94C153.423 109.144 152.727 109.455 152.314 109.638C151.895 109.822 151.159 110.128 150.674 110.327C150.19 110.525 149.318 110.862 148.733 111.081C148.148 111.3 147.093 111.678 146.387 111.917C145.681 112.157 144.577 112.514 143.941 112.707C143.301 112.906 142.12 113.253 141.318 113.477C140.517 113.702 139.175 114.058 138.343 114.267C137.511 114.476 136.214 114.782 135.468 114.951C134.716 115.119 133.597 115.364 132.971 115.491C132.346 115.618 131.156 115.853 130.323 116.006C129.491 116.159 128.276 116.373 127.625 116.485C126.974 116.592 125.824 116.776 125.078 116.888C124.327 117 123.116 117.173 122.38 117.275C121.643 117.372 120.463 117.52 119.757 117.607C119.051 117.688 117.81 117.826 117.008 117.908C116.206 117.994 114.749 118.132 113.78 118.213C112.807 118.3 111.334 118.412 110.502 118.473C109.834 118.518 108.861 118.577 108.11 118.621C107.924 118.632 107.752 118.643 107.602 118.652C106.84 118.693 105.625 118.749 104.904 118.779L104.621 118.789C103.858 118.816 102.669 118.859 101.802 118.881C100.818 118.907 98.3317 118.932 96.2789 118.932C94.2262 118.932 91.7497 118.907 90.7813 118.881C89.8079 118.856 88.426 118.81 87.7047 118.779C86.9835 118.749 85.768 118.693 85.0064 118.652C84.9664 118.649 84.925 118.647 84.8822 118.644L84.4986 118.621C83.7468 118.577 82.774 118.518 82.1063 118.473C81.2741 118.417 79.7963 118.3 78.828 118.219C77.8545 118.132 76.291 117.984 75.3479 117.882C74.4047 117.785 72.9874 117.627 72.1956 117.525C71.4037 117.428 70.2689 117.28 69.6738 117.199C69.0786 117.117 67.9741 116.959 67.2276 116.842C66.4761 116.73 65.4573 116.567 64.958 116.48C64.4587 116.398 63.5407 116.235 62.9153 116.123C62.2899 116.011 61.0542 115.771 60.1665 115.593C59.2789 115.415 57.9726 115.139 57.2665 114.981C56.5604 114.823 55.2541 114.512 54.3664 114.293C53.4787 114.069 52.2178 113.742 51.5672 113.559C51.452 113.526 51.3316 113.492 51.2096 113.458L51.2083 113.458C50.6411 113.298 50.0376 113.128 49.7515 113.044C49.4034 112.942 48.657 112.713 48.0871 112.534C47.5171 112.356 46.6194 112.06 46.0948 111.882C45.5652 111.698 44.7179 111.397 44.2035 111.209C43.689 111.02 42.8972 110.719 42.4382 110.536C41.9792 110.357 41.2328 110.046 40.7738 109.847C40.3148 109.654 39.5684 109.317 39.1094 109.108C38.6504 108.899 37.8334 108.496 37.2937 108.221C36.754 107.946 35.9924 107.543 35.6041 107.324C35.2157 107.105 34.6912 106.799 34.4441 106.646C34.1919 106.498 33.6371 106.141 33.2084 105.856C32.7797 105.575 32.1643 105.147 31.8466 104.907C31.5288 104.668 31.0043 104.255 30.6866 103.995C30.3688 103.735 29.7081 103.113 29.2189 102.623C28.7296 102.129 28.1496 101.497 27.9327 101.216C27.7108 100.936 27.383 100.477 27.2014 100.197C27.0148 99.9163 26.7626 99.4931 26.6365 99.2535C26.5104 99.0139 26.3137 98.5959 26.2028 98.3257C26.0868 98.0504 25.9304 97.5916 25.8497 97.3061C25.769 97.0155 25.6732 96.6433 25.6429 96.4751C25.6127 96.3068 25.5673 95.899 25.5421 95.5727C25.5067 95.1649 25.5067 94.7723 25.5471 94.3492C25.5774 94.0025 25.6328 93.5589 25.6732 93.3652C25.7135 93.1715 25.7993 92.8248 25.8648 92.6005C25.9304 92.3762 26.0565 92.0091 26.1473 91.7848C26.233 91.5605 26.4196 91.1577 26.5558 90.8926C26.687 90.6275 26.9089 90.235 27.04 90.026C27.1711 89.8118 27.3729 89.5161 27.4788 89.3632C27.5898 89.2103 27.8268 88.8993 28.0084 88.675C28.19 88.4506 28.5178 88.0632 28.7397 87.8185C28.9667 87.5687 29.4307 87.1047 29.7787 86.7887C30.1267 86.4726 30.6815 85.9883 31.0144 85.7181C31.3473 85.453 31.9727 84.9839 32.4014 84.678C32.8301 84.3722 33.4555 83.9541 33.7884 83.74C34.1213 83.531 34.7769 83.1333 35.251 82.8631C35.7201 82.5878 36.7086 82.0576 37.445 81.6855C38.1814 81.3184 39.1649 80.8392 39.639 80.6301C40.108 80.416 40.915 80.0694 41.4295 79.8552C41.9439 79.6411 42.761 79.3148 43.2452 79.1313C43.7294 78.9478 44.4103 78.6929 44.7583 78.5705C45.1063 78.4431 45.8981 78.1678 46.5235 77.9587C47.1489 77.7497 48.2485 77.3979 48.9697 77.1787C49.6909 76.9595 50.7804 76.6383 51.3906 76.4701C52.0009 76.3018 53.0802 76.0164 53.7864 75.8379C54.4925 75.6544 55.5718 75.3893 56.1821 75.2465C56.7924 75.1038 57.8263 74.8744 58.4769 74.7367C59.1276 74.594 60.3078 74.3544 61.0996 74.2014C61.8915 74.0485 63.2734 73.7936 64.1762 73.6406C65.079 73.4826 66.4055 73.2685 67.1267 73.1563C67.848 73.0442 69.119 72.8606 69.9512 72.7485C70.7834 72.6363 72.0443 72.4732 72.7504 72.3916C73.4565 72.3049 74.8183 72.1571 75.7766 72.0602C76.7349 71.9583 78.3438 71.8104 79.3575 71.7237C80.3713 71.6422 81.8995 71.5249 82.762 71.4688C83.0021 71.4546 83.2639 71.4387 83.5281 71.4227L83.5282 71.4227C84.2076 71.3815 84.9025 71.3393 85.2838 71.321C85.8083 71.2904 86.8423 71.2445 87.5787 71.2139C88.315 71.1833 89.4952 71.1375 90.2013 71.1171C90.9074 71.0967 92.1583 71.0712 92.9703 71.0661ZM128.972 84.3314C128.926 84.2396 128.886 84.1529 128.886 84.1427C128.886 84.1274 132.633 84.1172 137.208 84.1172C141.788 84.1172 145.53 84.1274 145.53 84.1427C145.53 84.1529 145.495 84.2294 145.449 84.3059C145.384 84.4129 145.368 84.52 145.389 84.7545C145.409 84.9788 145.505 85.2694 145.772 85.9016C145.859 86.111 146.129 86.7484 146.5 87.6276C146.942 88.6748 147.53 90.0651 148.127 91.484C149.232 94.0892 150.7 97.5661 151.391 99.2077C152.087 100.844 152.722 102.323 152.813 102.491C152.899 102.654 153.035 102.838 153.11 102.899C153.186 102.955 153.252 103.021 153.252 103.041C153.252 103.062 150.286 103.082 146.665 103.082C143.048 103.082 140.083 103.072 140.083 103.067C140.083 103.062 140.118 102.95 140.163 102.827C140.214 102.679 140.234 102.511 140.219 102.368C140.204 102.241 140.012 101.629 139.79 101.017L139.673 100.692L139.673 100.691C139.499 100.207 139.35 99.7911 139.276 99.6155L133.551 99.6104L133.405 99.9826C133.324 100.186 133.112 100.732 132.936 101.196C132.754 101.655 132.583 102.068 132.553 102.103C132.517 102.144 132.507 102.251 132.522 102.358C132.543 102.46 132.593 102.623 132.638 102.725C132.684 102.822 132.724 102.909 132.724 102.914C132.724 102.919 130.339 102.929 122.127 102.929L122.344 102.71C122.46 102.593 122.597 102.404 122.642 102.292C122.692 102.18 122.879 101.685 123.056 101.196C123.08 101.129 123.11 101.048 123.143 100.958L123.223 100.74C123.438 100.155 123.753 99.2974 124.019 98.5704C124.372 97.617 124.775 96.526 124.912 96.1488C125.043 95.7808 125.318 95.0352 125.532 94.457L125.533 94.4556L125.557 94.3899C125.684 94.0454 125.86 93.571 126.028 93.1161L126.029 93.1133L126.03 93.1129C126.15 92.7882 126.267 92.4735 126.359 92.2232C126.388 92.1439 126.419 92.0595 126.451 91.9716C126.495 91.8535 126.54 91.7291 126.587 91.6022L126.591 91.5905L126.591 91.5896C126.774 91.0919 126.971 90.5566 127.095 90.2095C127.196 89.9354 127.349 89.5215 127.509 89.0863C127.647 88.7119 127.791 88.3219 127.913 87.9918C128.133 87.3881 128.417 86.6225 128.601 86.127C128.636 86.0326 128.668 85.9479 128.694 85.8761C128.871 85.402 129.012 84.938 129.027 84.78C129.047 84.5761 129.032 84.4486 128.972 84.3314ZM80.225 84.1682C80.22 84.1835 80.2503 84.2855 80.2956 84.3976C80.3562 84.5404 80.3713 84.6984 80.3612 84.9329L80.336 85.2643C79.5843 86.2625 79.0797 86.9275 78.7323 87.3854L78.601 87.5585L78.587 87.577L78.5863 87.5779C78.237 88.0401 77.4985 89.017 76.9366 89.766C76.3717 90.5256 75.8875 91.1475 75.8673 91.1475C75.8472 91.1475 75.832 89.8118 75.832 88.1804C75.8371 86.3655 75.8573 85.091 75.8926 84.9075C75.9178 84.7392 75.9834 84.5353 76.0388 84.4588C76.0893 84.3824 76.1296 84.3059 76.1296 84.2957C76.1296 84.2804 73.3607 84.2702 69.9764 84.2702C66.5921 84.2702 63.8232 84.2855 63.8232 84.3059C63.8232 84.3263 63.8585 84.3773 63.8988 84.4231C63.9442 84.4639 64.0148 84.6475 64.0552 84.831C64.1207 85.1165 64.1308 86.2126 64.1157 93.7017C64.1056 98.3971 64.0804 102.317 64.0602 102.419C64.04 102.516 63.9795 102.659 63.924 102.736C63.8686 102.812 63.8232 102.888 63.8232 102.904C63.8232 102.914 66.5921 102.929 69.9764 102.929C73.3607 102.929 76.1296 102.914 76.1296 102.904C76.1296 102.888 76.0842 102.812 76.0287 102.736C75.9733 102.659 75.9077 102.445 75.8774 102.267C75.8421 102.047 75.827 100.829 75.8371 98.8049L75.8522 95.6798C78.8229 100.406 79.7106 101.859 79.7459 101.961C79.7812 102.057 79.8115 102.251 79.8115 102.394C79.8115 102.532 79.7812 102.71 79.7358 102.787L79.6602 102.929C91.1949 102.929 94.5389 102.909 94.5439 102.888C94.5439 102.868 94.443 102.812 94.327 102.771C94.211 102.725 93.9992 102.598 93.858 102.491C93.636 102.317 93.4091 101.976 92.133 99.9214L91.7159 99.2466C90.8902 97.9109 89.7342 96.041 88.9202 94.7315C87.962 93.1817 87.1752 91.9021 87.1752 91.8919C87.1752 91.8766 88.2797 90.2758 89.6314 88.3334C90.9781 86.391 92.1683 84.6831 92.2793 84.5353C92.3852 84.3874 92.4659 84.2549 92.4609 84.2447C92.4558 84.2345 89.702 84.2039 86.343 84.1835C82.9839 84.1631 80.2301 84.158 80.225 84.1682ZM44.9751 84.4588C45.0104 84.5353 45.0508 84.6882 45.0659 84.8004C45.076 84.9126 45.0861 88.9706 45.0861 93.824C45.0861 102.159 45.0811 102.654 44.9953 102.848C44.9449 102.96 44.9096 103.057 44.9096 103.067C44.9096 103.072 47.6785 103.077 51.0628 103.077C54.4471 103.077 57.216 103.062 57.216 103.041C57.216 103.016 57.1858 102.955 57.1454 102.899C57.1101 102.843 57.0496 102.674 57.0193 102.532C56.979 102.338 56.9638 99.8551 56.9638 93.6456C56.9638 88.2518 56.984 84.938 57.0143 84.7902C57.0395 84.6525 57.1 84.5098 57.1404 84.469C57.1858 84.4282 57.2211 84.3773 57.216 84.3569C57.216 84.3314 54.4471 84.3161 51.0628 84.3161H44.9045L44.9751 84.4588ZM97.2624 84.1376C97.2624 84.1529 97.2977 84.2396 97.3431 84.3314C97.3885 84.418 97.444 84.5608 97.4591 84.6475C97.4742 84.7341 97.4894 88.7565 97.4894 93.5946C97.4894 98.4327 97.4742 102.47 97.4591 102.567C97.444 102.664 97.3935 102.802 97.3482 102.873C97.2977 102.945 97.2624 103.016 97.2624 103.041C97.2624 103.062 102.13 103.077 108.081 103.077H118.9C118.9 98.5347 118.889 97.2143 118.874 97.2143C118.859 97.2143 118.733 97.2755 118.587 97.357L118.325 97.4947L109.014 97.5202V95.7868C114.991 95.7868 115.919 95.8021 116.126 95.8531C116.277 95.8888 116.463 95.9551 116.539 96.006L116.555 96.0149C116.629 96.0571 116.691 96.0927 116.706 96.0927C116.721 96.0927 116.731 94.9201 116.731 93.4927C116.731 92.0652 116.716 90.8977 116.69 90.9079C116.67 90.9181 116.564 90.9691 116.453 91.0201C116.272 91.1068 116.07 91.1221 114.461 91.1526C113.478 91.173 111.849 91.1883 110.84 91.1934L109.014 91.1985V89.6691C118.133 89.6946 118.481 89.6997 118.637 89.7863C118.723 89.8322 118.809 89.8577 118.819 89.8373C118.829 89.8118 118.829 88.5373 118.814 86.9926L118.784 84.1886C111.153 84.1274 106.311 84.1122 103.103 84.1122C99.8901 84.1122 97.2624 84.1223 97.2624 84.1376Z" fill="#FBD401"/>
<defs>
<linearGradient id="paint0_linear_108_58" x1="96" y1="1" x2="96" y2="191" gradientUnits="userSpaceOnUse">
<stop stop-color="#0C7ADD"/>
<stop offset="1" stop-color="#0A62B1"/>
</linearGradient>
</defs>
</svg>
