<svg width="192" height="192" viewBox="0 0 192 192" fill="none" xmlns="http://www.w3.org/2000/svg">
<path d="M79.8641 190.494C58.4515 188.98 43.1039 184.514 30.2301 176.052C16.4521 166.996 6.93903 150.04 3.23235 127.931C1.51833 117.708 0.97229 109.739 1.00107 95.3749C1.05247 69.8796 3.78817 54.0812 10.6775 39.5C17.2889 25.507 25.5739 17.2167 39.4783 10.6808C54.2478 3.73821 70.2337 1 95.9953 1C121.757 1 137.743 3.73821 152.512 10.6808C166.404 17.211 174.634 25.4402 181.334 39.5C188.169 53.8448 190.937 69.844 190.999 95.3749C191.075 126.436 186.923 145.115 176.35 161.286C166.477 176.388 148.497 185.963 123.79 189.276C110.91 191.003 93.7794 191.478 79.8641 190.494Z" fill="url(#paint0_linear_108_57)"/>
<path fill-rule="evenodd" clip-rule="evenodd" d="M94.9252 34.5944C94.6621 34.5986 93.9856 34.6236 93.4219 34.6487C92.8582 34.6737 92.0314 34.7197 91.5846 34.7531L91.4627 34.7633L91.4626 34.7633C91.0258 34.8 90.4563 34.8479 90.144 34.8783C89.7974 34.9117 89.2922 34.9702 89.0166 35.0078C88.741 35.0454 88.4696 35.0996 88.4111 35.1247C88.3526 35.1539 88.2107 35.204 88.0979 35.2291C87.981 35.2583 87.7847 35.346 87.6595 35.4212C87.5342 35.5005 87.2795 35.6091 87.0958 35.6634C86.912 35.7218 86.6197 35.8179 86.4485 35.8763C86.2773 35.939 86.0644 36.035 85.9767 36.0893C85.8932 36.1477 85.8096 36.1937 85.7929 36.1937C85.7721 36.1937 85.6969 36.2438 85.6259 36.2981C85.5257 36.3732 85.4839 36.44 85.4798 36.5361C85.4672 36.6614 85.4505 36.6781 85.3002 36.7073C85.2083 36.7282 85.058 36.7824 84.9662 36.8284C84.8325 36.8994 84.7532 36.9077 84.5695 36.8868C84.4066 36.8701 84.2813 36.82 84.131 36.7198C83.9932 36.6238 83.8512 36.5653 83.7134 36.5486C83.6007 36.5319 83.4253 36.4818 83.3251 36.44C83.1497 36.3607 83.1497 36.3607 82.8491 36.4567C82.6152 36.5319 82.4566 36.5528 82.1684 36.5486C81.9597 36.5444 81.6799 36.5152 81.5421 36.486C81.3041 36.4317 81.2665 36.4359 80.7696 36.5653C80.4815 36.6363 80.0054 36.7699 79.709 36.8534C79.4125 36.9369 79.1619 37.0288 79.1536 37.0497C79.1452 37.0706 79.2496 37.1416 79.3791 37.2042L79.6213 37.3211C83.0495 37.3002 83.3126 37.3086 83.3752 37.3629C83.4128 37.3963 83.4462 37.4464 83.4462 37.4673C83.442 37.4881 83.346 37.6301 83.2249 37.7763L83.0036 38.0435C81.872 38.031 81.4586 38.0059 81.3542 37.9892C81.2498 37.9683 81.1454 37.9266 81.1162 37.8974C81.0786 37.8556 80.7654 37.8472 79.6881 37.8514C78.498 37.864 78.2809 37.8556 78.1264 37.7971C78.0303 37.7596 77.7422 37.7136 77.4917 37.6969L77.0323 37.6635C76.5193 37.8452 76.1649 37.97 75.9244 38.0547L75.9243 38.0548L75.9236 38.055C75.6948 38.1356 75.5693 38.1798 75.5082 38.2022C75.3829 38.2439 75.1407 38.3316 74.9695 38.3984C74.7983 38.4611 74.6522 38.5362 74.6438 38.5613C74.6355 38.603 74.7441 38.6156 75.0906 38.6156C75.5333 38.6156 75.55 38.6198 75.5708 38.7074C75.5834 38.7617 75.5917 38.8411 75.5917 38.887C75.5917 38.9663 75.5708 38.9705 75.2284 38.9455L74.861 38.9246C74.1177 39.267 73.8463 39.409 73.7753 39.4632C73.7043 39.5175 73.6124 39.5802 73.5665 39.6052C73.5206 39.6303 73.3995 39.6637 73.2951 39.6762L73.1072 39.7054C72.9944 39.4424 72.961 39.3296 72.961 39.2837C72.961 39.2378 72.9527 39.2002 72.9402 39.2002C72.9278 39.2002 72.4964 39.3856 71.9745 39.6098L71.9743 39.6099L71.9463 39.6219C71.416 39.8558 70.5266 40.2608 69.9754 40.5239C69.4242 40.7869 68.5766 41.2087 68.0964 41.4634C67.6161 41.7181 66.9647 42.0689 66.6557 42.2401C66.6197 42.2606 66.5807 42.2826 66.5396 42.306C66.2285 42.4824 65.7914 42.7302 65.5074 42.8998C65.1859 43.0877 64.9187 43.2631 64.9145 43.2882C64.9061 43.3174 65.0481 43.3466 65.3112 43.3633C65.5325 43.3842 66.1129 43.3967 66.5931 43.3967C67.4282 43.3967 67.4784 43.3926 67.637 43.3007C67.7289 43.2506 67.9168 43.0627 68.0546 42.8915C68.1924 42.7161 68.5557 42.3361 68.8647 42.0438C69.2113 41.7181 69.4994 41.4049 69.6247 41.2129C69.7708 40.9999 69.8836 40.8788 70.0297 40.7995C70.1675 40.7159 70.2969 40.6825 70.4765 40.67L70.727 40.6575C70.9358 40.9373 71.1404 41.1753 71.3158 41.3715C71.4912 41.5678 72.0132 42.119 72.4767 42.595C73.0947 43.2381 73.3703 43.4928 73.5248 43.5721C73.6793 43.6473 73.7669 43.6682 73.8588 43.6473C73.9423 43.6264 74.1386 43.4594 74.4643 43.1295C74.8359 42.7495 75.0113 42.6075 75.2368 42.4906C75.3955 42.4071 75.9717 42.1858 76.5104 42.0021C77.049 41.8142 77.5 41.6722 77.5125 41.6847C77.5251 41.7014 77.3831 42.1607 77.1994 42.7161C76.9488 43.4677 76.8236 43.7851 76.6983 43.973C76.6064 44.1108 76.4811 44.2569 76.4185 44.3029C76.3517 44.3446 76.193 44.3947 76.0636 44.4198C75.93 44.4407 75.6544 44.5158 75.4456 44.5868C75.2368 44.6578 74.957 44.7246 74.8192 44.7413C74.6814 44.7538 74.3599 44.8374 74.1094 44.925C73.8588 45.0086 73.4162 45.1631 73.1281 45.2675C72.8399 45.3718 72.4474 45.4846 72.2512 45.5222C72.0549 45.5556 71.6707 45.614 71.3952 45.6516C70.9901 45.7017 70.8398 45.7435 70.6018 45.8604C70.4222 45.9481 70.1633 46.136 69.9337 46.3406C69.7249 46.5285 69.4451 46.7331 69.3073 46.7999C69.1695 46.8709 68.9064 46.9628 68.7227 47.0087C68.539 47.0505 68.0045 47.1382 67.5326 47.1966C67.0608 47.2593 66.5639 47.3344 66.4261 47.3678C66.2883 47.4054 66.0169 47.4889 65.8206 47.5557C65.6243 47.6225 65.3613 47.6894 65.236 47.7061C65.1107 47.7186 64.9562 47.7562 64.8936 47.7854C64.8268 47.8188 64.7307 47.9148 64.6723 47.9984C64.618 48.086 64.522 48.2865 64.4635 48.4493C64.4009 48.608 64.2756 48.8836 64.1796 49.0548L64.0042 49.368C64.0167 51.0174 64.0209 51.0466 64.142 51.3932C64.1791 51.4958 64.2254 51.6213 64.2688 51.7392C64.3085 51.8467 64.3457 51.9478 64.3716 52.0195C64.4301 52.1699 64.522 52.3244 64.5762 52.3619C64.6264 52.3995 64.7934 52.4622 64.9437 52.4956C65.094 52.5332 65.5826 52.5833 66.0294 52.6125L66.8436 52.6626C67.3948 53.0217 67.6412 53.2096 67.7498 53.314C67.8709 53.4268 67.9502 53.5395 67.9502 53.5938C67.9502 53.6481 68.0003 53.8903 68.0588 54.1366C68.1172 54.3872 68.2007 54.7755 68.2425 55.0052C68.2843 55.2348 68.3302 55.5898 68.3469 55.7985C68.3636 56.0199 68.4095 56.2537 68.4596 56.3623C68.5014 56.4667 68.5807 56.5961 68.6308 56.6462C68.681 56.7005 68.7979 56.784 68.8897 56.8299C68.9816 56.8759 69.1612 56.926 69.2864 56.9343L69.5161 56.9552C70.1007 56.4207 70.6352 55.9447 71.082 55.5522C71.5288 55.1555 72.1217 54.6544 72.3973 54.4373C72.6729 54.216 72.9903 53.9362 73.0988 53.8109C73.2116 53.6856 73.387 53.4351 73.4913 53.2514C73.5999 53.0676 73.7753 52.7837 73.8839 52.625C73.9924 52.4622 74.1762 52.1365 74.2973 51.8943C74.4142 51.6521 74.6104 51.3222 74.7315 51.1635C74.8526 51.0007 75.1115 50.7 75.3036 50.4954C75.3472 50.449 75.3928 50.4006 75.4385 50.3522C75.5984 50.1826 75.7583 50.0129 75.8297 49.9317C75.9258 49.8273 76.0636 49.6645 76.1346 49.5684C76.2264 49.4431 76.36 49.3429 76.6482 49.1968C76.857 49.0882 77.1534 48.9254 77.3038 48.8335C77.4478 48.7495 77.634 48.631 77.7301 48.5698L77.7302 48.5697L77.7422 48.5621C77.7689 48.5439 77.8096 48.5162 77.8596 48.4822L77.8614 48.481C77.9834 48.3981 78.1592 48.2786 78.3184 48.1696C78.5398 48.0151 78.7151 47.8647 78.7026 47.8439C78.6901 47.8188 78.711 47.7937 78.7444 47.7812C78.7861 47.7687 78.8028 47.7854 78.7987 47.8271C78.7903 47.8731 79.0951 48.0318 79.9678 48.4326L81.1454 48.9713C81.897 48.9713 82.1392 48.9963 82.3355 49.0506C82.4941 49.0924 82.8157 49.1968 83.0453 49.2803C83.275 49.368 83.5548 49.4849 83.6633 49.5475C83.8596 49.6561 83.8763 49.6812 84.2145 50.3701C84.4066 50.7585 84.6321 51.2303 84.7156 51.4141C84.7991 51.5978 85.0079 52.078 85.1791 52.4789C85.3503 52.8797 85.534 53.3015 85.5883 53.4184C85.6426 53.5311 85.7387 53.6898 85.8055 53.7692C85.8723 53.8443 86.0017 53.9529 86.0936 54.0072C86.1855 54.0615 86.4402 54.1617 86.6573 54.2327C86.8744 54.2995 87.1166 54.4039 87.1918 54.4623C87.2628 54.5208 87.3588 54.6293 87.3964 54.7003C87.4507 54.8047 87.4674 54.9342 87.4632 55.2139C87.459 55.4269 87.4256 55.715 87.3797 55.8779C87.3379 56.0366 87.2753 56.1785 87.2419 56.1994C87.2085 56.2161 86.9078 56.3205 86.5738 56.4291C86.2397 56.5335 85.7595 56.7047 85.509 56.8091C85.2584 56.9135 84.9202 57.0638 84.7574 57.1473C84.5987 57.2308 84.3941 57.3811 84.298 57.4772C84.202 57.5774 84.0183 57.7027 83.8596 57.7736C83.7093 57.8405 83.4211 57.9365 83.2124 57.9824C83.0036 58.0284 82.6027 58.0952 82.3146 58.1328C82.0265 58.1703 81.446 58.2204 81.0201 58.2455C80.5942 58.2706 79.947 58.2831 79.5795 58.2747L78.9114 58.2538C78.5231 58.4793 78.1848 58.7006 77.9092 58.8844C77.6336 59.0723 77.2954 59.327 77.1576 59.4564C77.0198 59.5859 76.8945 59.732 76.8737 59.778C76.8528 59.8406 76.8695 59.8991 76.9238 59.9617C76.9989 60.0536 77.0365 60.0577 77.5 60.0536C77.8466 60.0536 78.0971 60.0243 78.3477 59.9659C78.5439 59.9158 78.7569 59.874 78.8279 59.8698C78.8989 59.8657 78.9949 59.8615 79.045 59.8657C79.0993 59.8698 79.3331 60.016 79.567 60.1914C79.8008 60.3709 80.0263 60.5714 80.0681 60.6423C80.1098 60.7133 80.1432 60.847 80.1432 60.9555C80.1432 61.0724 80.1098 61.2144 80.0472 61.3313C79.9762 61.465 79.9386 61.6529 79.901 61.9994C79.8718 62.2625 79.8133 62.6133 79.7674 62.7719C79.7215 62.9306 79.6505 63.1102 79.6046 63.1686C79.5628 63.2271 79.3248 63.4275 79.0742 63.6196C78.8237 63.8117 78.5064 64.0205 78.3686 64.0873C78.2308 64.1541 77.9844 64.2376 77.8257 64.271C77.667 64.3044 77.4165 64.342 77.2704 64.3545C77.1284 64.3671 77.0115 64.3712 77.0115 64.3587C77.0115 64.3462 77.0449 64.2752 77.0824 64.2C77.12 64.129 77.166 63.9912 77.1827 63.8994C77.1994 63.8075 77.1952 63.5904 77.1743 63.4192C77.1493 63.248 77.0824 62.964 77.0282 62.7928C76.9697 62.6216 76.9112 62.4546 76.8945 62.4254C76.8737 62.3836 76.715 62.4212 76.2181 62.584C75.8631 62.701 75.2785 62.868 74.9236 62.9557C74.552 63.0475 74.1595 63.1728 74.005 63.2521C73.8546 63.3273 73.6291 63.4526 73.5039 63.5361C73.3786 63.6154 73.1824 63.7574 73.0696 63.8535C72.9569 63.9453 72.7606 64.1541 72.6312 64.3169C72.5017 64.4756 72.3138 64.6552 72.2136 64.7136C72.1134 64.7721 71.9589 64.8848 71.867 64.9642C71.7751 65.0435 71.6039 65.269 71.487 65.4653C71.3701 65.6615 71.2198 65.8954 71.1488 65.9914C71.0778 66.0874 70.9358 66.2336 70.8314 66.3171C70.727 66.4048 70.5099 66.5384 70.3512 66.6136C70.1926 66.6887 69.9462 66.7806 69.8084 66.8182C69.6706 66.8599 69.182 67.0145 68.7227 67.1648C68.2634 67.3151 67.7748 67.4863 67.637 67.5406C67.4992 67.599 67.3322 67.6867 67.2654 67.7368C67.1986 67.7828 67.0775 67.9289 66.9981 68.0542C66.9146 68.1795 66.6724 68.5929 66.4553 68.9728C66.2423 69.3528 65.9459 69.8414 65.8039 70.0585C65.6619 70.2757 65.4364 70.6055 65.3028 70.7893C65.165 70.9814 64.6472 71.5325 64.0919 72.0837C63.3194 72.8479 62.8809 73.3281 61.9539 74.4388C61.315 75.203 60.7555 75.8794 60.7179 75.9421C60.6803 76.0005 60.6302 76.2177 60.6052 76.4265C60.5801 76.6311 60.5509 77.2073 60.5342 77.7C60.5133 78.4266 60.4799 78.7774 60.363 79.5373C60.2836 80.0551 60.1918 80.5896 60.1542 80.7274C60.1208 80.8652 60.0707 81.0155 60.0498 81.0615L60.0039 81.145C59.9162 81.0155 59.8828 80.9111 59.8702 80.8318C59.8535 80.7107 59.8034 80.6564 59.6072 80.5145C59.4777 80.4184 59.2564 80.243 59.1228 80.1178C58.9892 79.9925 58.7971 79.7795 58.701 79.6417C58.605 79.5039 58.4923 79.2868 58.4505 79.1615C58.4088 79.0363 58.3127 78.7983 58.2417 78.6396C58.1666 78.4809 58.0204 78.0633 57.916 77.7209C57.8075 77.3743 57.6864 77.0486 57.6446 76.9902C57.5987 76.9317 57.5402 76.8858 57.5068 76.8858C57.4734 76.8858 57.4149 76.9526 57.3774 77.0319C57.3064 77.1656 57.2855 77.1781 57.0642 77.2031C56.9306 77.2198 56.5798 77.2324 56.2792 77.2365C55.9785 77.2365 55.6152 77.2198 55.4649 77.1948C55.3146 77.1656 55.039 77.0695 54.8385 76.9735C54.5128 76.8148 54.4627 76.8023 54.1495 76.8064C53.9074 76.8106 53.7195 76.8398 53.4606 76.9275C53.2643 76.9902 52.9845 77.0987 52.8342 77.1697C52.6839 77.2449 52.4667 77.3827 52.354 77.4829C52.2413 77.5789 52.0784 77.6792 51.9991 77.7084C51.9156 77.7334 51.7778 77.7418 51.6859 77.7251C51.594 77.7084 51.047 77.6917 50.4749 77.6875C49.4937 77.6792 49.4185 77.6833 49.2431 77.7669C49.1387 77.817 48.9508 77.9339 48.8255 78.0299C48.7003 78.126 48.2785 78.364 47.886 78.5561C47.4935 78.7481 47.0008 79.0196 46.7878 79.1574L46.4036 79.4121C46.2283 79.8797 46.0696 80.1762 45.936 80.3725C45.8065 80.5687 45.5852 80.861 45.4474 81.0197C45.3096 81.1784 45.1509 81.4039 45.0925 81.5208C45.0382 81.6335 44.9756 81.8047 44.9589 81.8966C44.9463 81.9885 44.9547 82.1555 44.9797 82.2724C45.0048 82.3852 45.0966 82.5939 45.1843 82.7318C45.272 82.8695 45.3681 83.0867 45.4015 83.212C45.4307 83.3372 45.5727 83.7966 45.7147 84.235C45.8566 84.6693 46.0529 85.2246 46.1489 85.4668C46.245 85.709 46.437 86.1391 46.5707 86.4272C46.7085 86.7154 46.8337 87.0118 46.8504 87.087C46.8713 87.1663 46.9089 87.2206 46.9465 87.2206C46.9799 87.2206 47.3265 87.1747 47.719 87.1162C48.1115 87.0578 48.5416 86.9909 48.6794 86.9659C48.8037 86.9471 49.0505 86.8976 49.2509 86.8575L49.251 86.8574L49.2513 86.8574L49.3141 86.8448C49.5271 86.7989 49.7818 86.7321 49.8778 86.6987C49.978 86.6652 50.0782 86.6068 50.0991 86.565C50.12 86.5233 50.3872 86.2477 50.6879 85.947C51.0554 85.5796 51.285 85.3123 51.3978 85.1202C51.5397 84.878 51.5857 84.8279 51.7485 84.7695C51.8821 84.7194 51.9991 84.711 52.1452 84.7277C52.2621 84.7444 52.5085 84.8029 52.7006 84.8614C52.8885 84.9198 53.043 84.9783 53.043 84.995C53.043 85.0159 52.9219 85.1787 52.7757 85.3624L52.5127 85.6965C52.4709 86.9993 52.4292 87.5004 52.3791 87.7635C52.3373 88.0056 52.258 88.2938 52.2037 88.4065C52.141 88.536 51.9991 88.7072 51.8153 88.8658C51.6567 89.0078 51.5147 89.154 51.4938 89.1915C51.4646 89.2458 51.4813 89.3001 51.5523 89.3794C51.6066 89.4463 51.8195 89.5841 52.0241 89.6884C52.2287 89.797 52.5628 89.939 52.7716 90.01C52.9804 90.0768 53.2309 90.1478 53.3353 90.1645C53.4814 90.1895 53.5524 90.177 53.6485 90.1185C53.757 90.0559 53.8322 90.0476 54.1913 90.0726C54.421 90.0851 54.6465 90.1102 54.6924 90.1227C54.7425 90.1394 54.9012 90.3524 55.0766 90.6363L55.3772 91.1249C55.419 92.6365 55.4148 93.1459 55.3939 93.2754C55.373 93.4006 55.3605 93.6094 55.3688 93.7347L55.3814 93.9644C56.1079 94.645 56.4545 94.9582 56.6132 95.096C56.7719 95.2338 57.0266 95.4425 57.1769 95.5595C57.3272 95.6764 57.511 95.8017 57.5861 95.8392C57.6571 95.8768 57.7824 95.9061 57.8576 95.9061C57.9411 95.9102 58.0121 95.881 58.0538 95.8309C58.0998 95.7724 58.3378 95.6931 58.9098 95.5511C59.461 95.4133 59.7408 95.3632 59.8285 95.3841C59.8995 95.3966 60.0749 95.4885 60.2252 95.5845C60.3713 95.6806 60.6678 95.8977 60.8808 96.0606C61.0937 96.2276 61.2942 96.3654 61.3234 96.3654C61.3484 96.3654 61.457 96.3111 61.5614 96.2443C61.6783 96.1691 61.8161 96.0146 61.9289 95.8476C62.0458 95.6597 62.1543 95.5469 62.2629 95.4927C62.3464 95.4509 62.5302 95.3841 62.668 95.3423C62.8058 95.3048 62.9937 95.2338 63.0855 95.1878C63.1774 95.1419 63.3068 95.05 63.3778 94.979C63.453 94.9081 63.5365 94.8621 63.5866 94.8705C63.6409 94.8788 63.6743 94.9206 63.6785 94.9874C63.6868 95.0584 63.7912 95.1795 64.0042 95.3632C64.1754 95.5135 64.4343 95.7056 64.5804 95.7933C64.7725 95.9102 64.8852 95.9478 65.0189 95.9478C65.1817 95.9478 65.2026 95.9353 65.2945 95.7683C65.3488 95.6722 65.4239 95.4885 65.4615 95.3632C65.4991 95.2379 65.5283 95.0542 65.5283 94.954C65.5283 94.787 65.545 94.7661 65.8123 94.5448C65.9668 94.4153 66.234 94.24 66.4052 94.1606C66.6265 94.052 66.7935 94.0019 66.9689 93.9894C67.1067 93.9811 67.2904 93.9852 67.3781 94.0019C67.4617 94.0145 67.5911 94.0771 67.6621 94.1397C67.7832 94.2483 67.7915 94.2734 67.779 94.4947L67.7623 94.7327C68.067 94.7678 68.4777 94.803 68.8883 94.8381L68.9733 94.8454C69.4117 94.8788 70.0589 94.9331 70.4139 94.9665L71.0611 95.0208C72.3222 95.6012 72.8232 95.8351 72.9819 95.9186C73.1406 95.9979 73.4538 96.215 73.6709 96.403C74.0551 96.7245 74.0885 96.7454 74.6731 96.95C75.0071 97.0711 75.6168 97.3007 76.0302 97.4594C76.7359 97.735 76.7943 97.7684 76.9906 97.973C77.1075 98.0941 77.3664 98.449 77.5752 98.7622L77.951 99.3301C78.6943 99.564 79.3248 99.7686 79.8301 99.9356C80.3353 100.103 81.0494 100.353 81.4168 100.491C81.7843 100.625 82.206 100.8 82.3563 100.875C82.5067 100.946 82.6779 101.042 82.7447 101.088C82.8073 101.13 82.8992 101.247 82.9493 101.343C82.9994 101.443 83.0537 101.614 83.0704 101.731C83.0871 101.844 83.0829 102.09 83.0579 102.274C83.037 102.458 82.9952 102.863 82.966 103.172C82.9368 103.481 82.8867 103.781 82.8574 103.84C82.8282 103.898 82.6152 104.237 82.3856 104.591C82.1559 104.946 81.9012 105.322 81.8177 105.422C81.6715 105.602 81.6674 105.619 81.6674 105.94V106.27C81.968 106.537 82.206 106.7 82.3856 106.805C82.5651 106.909 82.824 107.038 82.9618 107.093C83.108 107.151 83.3335 107.201 83.5047 107.214C83.7134 107.226 83.893 107.21 84.131 107.147C84.3147 107.101 84.82 106.926 85.2584 106.754C85.6969 106.583 86.2356 106.37 86.461 106.278L86.8703 106.116C88.1146 106.713 88.6825 106.951 88.9331 107.03C89.1836 107.109 90.002 107.364 90.7495 107.594C91.4969 107.823 92.2736 108.061 92.4824 108.12C92.6912 108.178 93.0837 108.283 93.3593 108.354C93.4457 108.376 93.5366 108.399 93.6242 108.421L93.6288 108.423C93.8188 108.471 93.9924 108.515 94.0692 108.538C94.2612 108.592 94.3155 108.642 94.7206 109.11C94.9628 109.394 95.3761 109.886 95.6309 110.208C95.8898 110.529 96.1904 110.93 96.3073 111.093L96.5119 111.398L96.5412 112.88C96.253 114.242 96.1069 114.86 96.0276 115.135C95.944 115.411 95.8438 115.72 95.7979 115.824C95.7478 115.928 95.6643 116.066 95.6058 116.137C95.5473 116.208 95.4597 116.346 95.4179 116.45C95.378 116.541 95.2496 116.866 95.1124 117.213L95.112 117.213L95.1117 117.214L95.0504 117.369C94.8959 117.77 94.6621 118.334 94.5285 118.622C94.399 118.91 94.1735 119.348 94.0274 119.603C93.8854 119.858 93.6975 120.204 93.6098 120.376C93.5263 120.547 93.4219 120.822 93.3802 120.981C93.3426 121.14 93.2215 121.436 93.1129 121.637C92.9459 121.958 92.9208 122.038 92.9208 122.255C92.9208 122.426 92.9543 122.585 93.0252 122.756C93.1255 122.998 93.1255 123.015 93.067 123.223C93.0336 123.345 92.9375 123.578 92.854 123.737C92.7705 123.896 92.6369 124.113 92.5534 124.217C92.5251 124.25 92.4925 124.287 92.4588 124.326C92.3879 124.407 92.312 124.495 92.2611 124.551C92.1859 124.631 91.9771 124.915 91.8018 125.178C91.6264 125.441 91.3884 125.75 91.2714 125.862C91.1587 125.975 90.904 126.171 90.7077 126.301C90.5031 126.43 90.2025 126.581 89.9979 126.652C89.8016 126.718 89.3047 126.856 88.8913 126.956C88.4779 127.061 88.0854 127.165 88.0144 127.19C87.9434 127.215 87.8557 127.265 87.814 127.303C87.7722 127.341 87.7221 127.437 87.7012 127.516C87.6804 127.595 87.601 127.754 87.5217 127.871C87.4465 127.984 87.2335 128.209 87.0498 128.364C86.8703 128.522 86.6072 128.71 86.4694 128.785C86.3316 128.861 86.0852 129.015 85.9266 129.132C85.7679 129.245 85.5299 129.383 85.4046 129.437C85.2793 129.487 85.1374 129.562 85.0956 129.6C85.0538 129.637 84.9828 129.742 84.9411 129.834C84.8993 129.925 84.8367 130.18 84.7991 130.397C84.7657 130.614 84.7031 130.928 84.6697 131.086C84.6321 131.245 84.5319 131.612 84.4442 131.9C84.3523 132.189 84.2229 132.564 84.1519 132.736C84.0809 132.907 83.8888 133.266 83.726 133.529C83.5673 133.792 83.3084 134.18 83.1539 134.385C82.9994 134.59 82.6946 135.003 82.4774 135.304C82.2603 135.604 81.9805 135.955 81.8553 136.085C81.6799 136.264 81.588 136.327 81.4586 136.348C81.35 136.368 81.2122 136.356 81.0619 136.314L80.8322 136.247C80.6782 136.357 80.5049 136.48 80.3244 136.608L80.3232 136.608C80.1274 136.747 79.9232 136.891 79.7257 137.032C79.1953 137.408 79.0325 137.546 79.0241 137.621C79.0116 137.701 79.0826 137.813 79.3081 138.081C79.5127 138.327 79.6213 138.498 79.663 138.644C79.7006 138.757 79.7257 138.937 79.7257 139.041C79.7257 139.145 79.6755 139.463 79.6171 139.751C79.5461 140.11 79.4709 140.344 79.3832 140.502C79.3123 140.628 79.1828 140.824 79.0993 140.941C79.0158 141.054 78.8655 141.221 78.7736 141.304C78.6776 141.392 78.3978 141.559 78.1514 141.68C77.9009 141.797 77.667 141.922 77.6253 141.96C77.5794 142.002 77.5501 142.085 77.5501 142.194C77.5543 142.285 77.6002 142.452 77.6545 142.569L77.7589 142.778C77.0616 144.169 76.7776 144.707 76.6774 144.866C76.5814 145.025 76.4728 145.233 76.4394 145.325C76.4102 145.417 76.3851 145.605 76.3851 145.743C76.3851 145.881 76.4102 146.077 76.4436 146.181C76.4728 146.286 76.6774 146.728 76.8987 147.163C77.2787 147.923 77.3038 147.994 77.5125 148.812C77.6503 149.342 77.7339 149.764 77.7339 149.919C77.738 150.086 77.6963 150.294 77.6211 150.545C77.5543 150.75 77.4374 151.079 77.3622 151.276C77.2829 151.472 77.1534 151.735 77.0783 151.86C76.9989 151.986 76.8945 152.232 76.8444 152.403C76.7943 152.574 76.7317 152.762 76.7025 152.821C76.6774 152.879 76.5772 152.963 76.4811 153.009C76.3851 153.055 76.3058 153.105 76.3016 153.121C76.3016 153.142 76.6148 153.259 77.0031 153.384L77.1522 153.431C77.542 153.554 78.0981 153.73 78.4729 153.844C78.8989 153.973 79.5378 154.161 79.8927 154.257C80.2476 154.357 80.8781 154.529 81.2915 154.633C81.7049 154.737 82.3438 154.888 82.7113 154.971C83.0787 155.055 83.7928 155.205 84.298 155.305C84.8033 155.405 85.6134 155.556 86.0936 155.635C86.5738 155.719 87.2336 155.823 87.5551 155.865C87.8766 155.911 88.4487 155.986 88.8287 156.032C89.2087 156.078 89.7974 156.145 90.144 156.182C90.4568 156.213 91.0275 156.261 91.4645 156.297L91.5846 156.307C92.0314 156.341 92.8415 156.391 93.3802 156.416C93.9188 156.445 95.2175 156.466 96.2614 156.466C97.3053 156.466 98.604 156.445 99.1426 156.416C99.6813 156.391 100.491 156.341 100.938 156.307L100.982 156.304C101.426 156.266 102.043 156.214 102.379 156.182C102.721 156.149 103.314 156.082 103.694 156.032C104.074 155.986 104.646 155.911 104.968 155.865C105.289 155.819 105.899 155.727 106.325 155.656C106.751 155.585 107.481 155.456 107.953 155.364C108.425 155.272 109.185 155.109 109.644 155.009C110.104 154.904 110.855 154.725 111.315 154.608C111.774 154.495 112.43 154.316 112.776 154.22C113.119 154.119 113.561 153.99 113.758 153.936C113.954 153.877 114.451 153.723 114.864 153.593C115.277 153.464 115.908 153.255 116.263 153.126L116.46 153.056L116.464 153.054L116.485 153.047C116.788 152.94 117.108 152.827 117.265 152.771C117.461 152.7 118.063 152.47 118.601 152.257C119.14 152.044 119.95 151.71 120.397 151.514C120.844 151.322 121.428 151.063 121.691 150.942C121.954 150.825 122.639 150.495 123.215 150.211C123.788 149.931 124.581 149.526 124.969 149.313C125.358 149.104 125.98 148.758 126.347 148.549C126.715 148.34 127.374 147.956 127.809 147.693C128.243 147.43 128.894 147.025 129.249 146.795C129.604 146.566 130.16 146.198 130.481 145.977C130.803 145.76 131.366 145.367 131.734 145.104C132.101 144.841 132.673 144.419 133.007 144.165C133.342 143.91 133.972 143.417 134.406 143.07C134.841 142.72 135.492 142.185 135.847 141.88C136.202 141.571 136.749 141.095 137.054 140.82C137.363 140.54 137.835 140.11 138.098 139.859C138.365 139.605 138.933 139.053 139.359 138.628C139.785 138.202 140.336 137.634 140.591 137.366C140.841 137.103 141.271 136.632 141.551 136.323C141.827 136.018 142.236 135.55 142.457 135.291C142.829 134.861 142.862 134.811 142.837 134.686C142.825 134.615 142.787 134.456 142.749 134.343C142.712 134.226 142.62 133.997 142.545 133.83C142.465 133.667 142.378 133.525 142.353 133.525C142.323 133.521 142.261 133.521 142.215 133.525C142.165 133.529 142.056 133.458 141.952 133.354C141.852 133.253 141.68 133.032 141.572 132.861C141.459 132.69 141.3 132.406 141.213 132.235C141.125 132.063 140.996 131.771 140.92 131.587C140.845 131.404 140.745 131.111 140.699 130.94C140.649 130.769 140.54 130.259 140.461 129.813C140.378 129.366 140.265 128.802 140.211 128.56C140.156 128.318 140.069 128.009 140.023 127.871C139.977 127.733 139.86 127.328 139.768 126.973C139.676 126.618 139.505 126.092 139.388 125.804C139.271 125.516 139.062 125.04 138.92 124.739C138.778 124.439 138.511 123.963 138.323 123.674C138.139 123.386 137.931 123.04 137.86 122.902C137.789 122.764 137.693 122.53 137.647 122.38C137.597 122.23 137.517 121.845 137.471 121.524C137.425 121.202 137.359 120.806 137.321 120.647C137.288 120.488 137.246 120.234 137.237 120.083C137.217 119.862 137.246 119.691 137.371 119.165C137.459 118.81 137.563 118.392 137.605 118.233C137.672 117.995 137.722 117.916 137.935 117.691C138.098 117.528 138.215 117.361 138.252 117.244C138.29 117.139 138.432 116.83 138.565 116.555C138.753 116.175 138.824 115.979 138.858 115.741C138.899 115.469 138.895 115.356 138.82 114.905C138.77 114.617 138.72 114.25 138.703 114.091C138.691 113.933 138.64 113.686 138.599 113.548C138.557 113.411 138.473 113.102 138.415 112.859C138.352 112.609 138.219 112.241 138.106 112.003C137.997 111.774 137.885 111.531 137.86 111.461C137.83 111.39 137.772 111.147 137.726 110.918C137.68 110.688 137.642 110.404 137.642 110.291C137.642 110.128 137.613 110.037 137.513 109.874C137.438 109.757 137.271 109.531 137.141 109.373C137.008 109.214 136.724 108.892 136.515 108.663C136.302 108.433 136.085 108.166 136.031 108.066C135.939 107.903 135.935 107.874 135.976 107.669C136.014 107.502 136.014 107.402 135.976 107.243C135.947 107.126 135.793 106.784 135.634 106.479C135.396 106.024 135.346 105.894 135.346 105.727C135.346 105.619 135.287 105.339 135.221 105.101C135.15 104.867 135.095 104.591 135.095 104.487C135.095 104.383 135.066 104.12 135.033 103.902C134.995 103.656 134.983 103.447 135.003 103.347C135.02 103.264 135.095 103.122 135.17 103.034C135.241 102.95 135.317 102.829 135.329 102.763C135.346 102.7 135.346 102.508 135.333 102.337C135.317 102.165 135.287 102.015 135.267 102.003C135.246 101.99 135.166 101.84 135.095 101.669C135.024 101.497 134.945 101.326 134.916 101.293C134.887 101.259 134.749 101.101 134.611 100.946C134.477 100.792 134.327 100.654 134.281 100.641C134.227 100.625 134.16 100.654 134.093 100.729L133.989 100.838C133.567 100.729 133.35 100.662 133.237 100.616C133.12 100.57 132.928 100.47 132.807 100.391C132.69 100.311 132.36 100.019 132.08 99.7435C131.767 99.4345 131.421 99.138 131.191 98.9877C130.986 98.8499 130.64 98.6537 130.423 98.5451C130.11 98.3906 129.976 98.3447 129.775 98.3363C129.621 98.328 129.291 98.3655 128.936 98.4323C128.615 98.4908 128.335 98.5576 128.31 98.5743C128.285 98.5952 128.089 98.6871 127.871 98.7789C127.654 98.875 127.433 98.9961 127.379 99.0462C127.308 99.1172 127.283 99.1798 127.295 99.2758C127.303 99.3719 127.287 99.4178 127.245 99.4303C127.234 99.4345 127.203 99.444 127.158 99.4575C127.133 99.4651 127.103 99.4741 127.07 99.484L127.069 99.4843C126.983 99.5099 126.876 99.5422 126.765 99.5765C126.535 99.6433 126.159 99.7477 125.93 99.8061C125.7 99.8688 125.441 99.9147 125.353 99.9147C125.27 99.9147 125.082 99.8688 124.94 99.8103L124.94 99.8103C124.871 99.783 124.821 99.7629 124.768 99.7488C124.62 99.7088 124.459 99.7168 123.842 99.7477C123.383 99.7686 122.861 99.8061 122.685 99.8312C122.389 99.8688 122.343 99.8897 122.205 100.032C122.109 100.128 121.829 100.299 121.483 100.47C121.174 100.625 120.831 100.775 120.718 100.804C120.535 100.85 120.48 100.842 119.821 100.671C119.436 100.57 118.906 100.445 118.643 100.387C118.38 100.328 118.146 100.265 118.121 100.245C118.096 100.22 118.109 100.207 118.163 100.207C118.209 100.211 118.271 100.186 118.297 100.157C118.338 100.115 118.326 100.082 118.234 99.994C118.171 99.9356 118.013 99.8061 117.875 99.7018C117.733 99.5974 117.486 99.3301 117.29 99.0838C117.106 98.8416 116.889 98.5534 116.814 98.4365C116.739 98.3196 116.63 98.0732 116.568 97.8895C116.509 97.7058 116.334 97.2715 116.179 96.9291C116.025 96.5825 115.724 95.7808 115.507 95.1419C115.269 94.4446 115.094 93.9852 115.065 93.9852C115.035 93.9852 115.01 94.0019 115.01 94.027C115.01 94.0479 114.994 94.0646 114.968 94.0562C114.948 94.052 114.701 93.7932 114.421 93.4842C114.142 93.1751 113.745 92.7117 113.54 92.4611C113.269 92.1271 113.173 91.9767 113.185 91.9183C113.198 91.8723 113.19 91.7805 113.169 91.7095C113.148 91.6385 113.11 91.413 113.085 91.2084C113.052 90.9412 113.052 90.7157 113.085 90.4359C113.11 90.2188 113.19 89.8513 113.261 89.6216C113.332 89.392 113.474 89.0454 113.574 88.8491C113.674 88.6529 113.783 88.3731 113.816 88.2228C113.858 88.0349 113.87 87.7885 113.858 87.4294C113.845 87.1413 113.829 86.8657 113.816 86.8114C113.808 86.7613 113.678 86.5859 113.528 86.4272C113.378 86.2686 113.244 86.0932 113.231 86.0389C113.219 85.9888 113.244 85.7758 113.294 85.5712C113.34 85.3624 113.403 85.0159 113.428 84.7987C113.457 84.5732 113.503 84.3853 113.532 84.3603C113.565 84.3352 113.616 84.2433 113.645 84.1515C113.678 84.0596 113.753 83.9051 113.816 83.8049C113.874 83.7089 114.054 83.4834 114.209 83.3038C114.363 83.1284 114.576 82.8779 114.672 82.7526C114.772 82.6274 114.889 82.4478 114.935 82.3559C114.981 82.2641 115.006 82.1638 114.994 82.1346C114.981 82.1096 114.931 82.0803 114.885 82.072C114.814 82.0636 114.868 81.9551 115.286 81.2911C115.632 80.7358 115.858 80.4226 116.092 80.1846C116.267 80.0008 116.472 79.7461 116.543 79.6209C116.614 79.4956 116.802 79.2659 116.96 79.1114C117.115 78.9611 117.319 78.7273 117.411 78.5978C117.503 78.4684 117.712 78.1886 117.871 77.9798L118.163 77.5956L118.722 77.5539C119.712 76.5726 119.821 76.439 119.842 76.3221C119.854 76.2427 119.833 75.9797 119.796 75.7375C119.758 75.4953 119.729 75.2322 119.729 75.1529C119.729 75.0151 119.75 74.99 120.234 74.6518C120.514 74.4555 120.998 74.063 121.307 73.7749C121.616 73.4868 122.013 73.1402 122.188 72.9982C122.364 72.8604 122.564 72.6516 122.639 72.5389C122.714 72.4261 122.806 72.2466 122.848 72.1338C122.89 72.0253 122.94 71.9376 122.965 71.9376C122.99 71.9376 123.249 71.9877 123.55 72.0462C123.85 72.1046 124.176 72.1923 124.28 72.2382C124.426 72.3009 124.664 72.3385 125.324 72.3886L126.18 72.4554C127.086 71.8123 127.529 71.4824 127.746 71.3029C127.844 71.2238 127.95 71.1372 128.047 71.0585L128.05 71.0556C128.166 70.961 128.268 70.8783 128.322 70.8352L128.498 70.6849C131.738 70.7016 132.147 70.7183 132.16 70.7559C132.168 70.7976 132.298 70.8102 132.619 70.8102C132.87 70.8102 133.266 70.7851 133.509 70.7475C133.751 70.7141 134.172 70.6222 134.448 70.5429C134.724 70.4636 135.091 70.3717 135.262 70.3383C135.434 70.3007 135.605 70.2882 135.638 70.3049C135.672 70.3258 135.734 70.4176 135.772 70.5137C135.814 70.6055 135.847 70.7475 135.847 70.8185C135.847 70.8937 135.922 71.14 136.014 71.3613C136.164 71.7246 136.181 71.8081 136.181 72.113C136.181 72.305 136.202 72.6892 136.231 72.9732L136.285 73.4868C136.77 73.7999 137.033 73.9586 137.183 74.038C137.334 74.1215 137.626 74.2342 137.83 74.2969C138.035 74.3553 138.494 74.5182 138.845 74.6643L139.484 74.9232L139.48 75.4452C139.851 75.6832 140.081 75.8126 140.231 75.8878C140.415 75.9755 140.812 76.0924 141.442 76.2385C141.96 76.3555 142.474 76.4807 142.591 76.5141C142.703 76.5476 142.958 76.5726 143.154 76.5726C143.409 76.5726 143.555 76.5476 143.676 76.4933C143.768 76.4515 143.964 76.3262 144.111 76.2135C144.257 76.1007 144.407 75.9463 144.445 75.8753C144.507 75.7458 144.507 75.7166 144.39 75.3533C144.282 75.0025 144.278 74.9483 144.324 74.7771C144.349 74.6727 144.411 74.5056 144.461 74.4054L144.553 74.2259C144.975 74.2634 145.376 74.2969 145.722 74.3219L146.349 74.3678C147.255 74.8397 147.706 75.0401 147.936 75.1153C148.307 75.2364 148.399 75.2531 148.771 75.2447C149 75.2406 149.339 75.2155 149.522 75.1904C149.706 75.1654 149.948 75.1069 150.065 75.0652L150.274 74.9817C151.051 75.274 151.397 75.4076 151.548 75.466C151.698 75.5287 151.94 75.6414 152.09 75.7166C152.241 75.7917 152.408 75.8961 152.466 75.9421C152.525 75.9922 152.637 76.0423 152.717 76.059C152.796 76.0715 153.059 76.0632 153.301 76.0339C153.544 76.0047 153.798 75.9713 153.873 75.9546L154.003 75.9254C153.771 75.2828 153.607 74.8321 153.489 74.5064C153.459 74.4215 153.431 74.3451 153.406 74.276C153.285 73.9419 153.059 73.3615 152.909 72.9815C152.758 72.6015 152.479 71.9334 152.287 71.4908L151.944 70.6891C151.368 70.7308 151.184 70.7183 150.942 70.664C150.758 70.6264 150.554 70.6014 150.491 70.6055C150.387 70.6222 150.349 70.5888 150.145 70.2965C150.019 70.1212 149.873 69.8581 149.819 69.7119C149.769 69.57 149.543 69.1315 149.318 68.7432C149.096 68.3548 148.917 68.0208 148.917 67.9999C148.917 67.9832 149.034 67.9582 149.176 67.9456C149.322 67.9331 149.501 67.9039 149.572 67.883C149.66 67.8579 149.744 67.7911 149.802 67.6951C149.856 67.6074 149.982 67.4947 150.086 67.4362C150.19 67.3777 150.278 67.3234 150.282 67.3151C150.291 67.3067 150.241 67.1898 150.17 67.052C150.099 66.9142 150.028 66.7931 150.003 66.7806C149.977 66.7681 149.836 66.8098 149.677 66.8683C149.451 66.956 149.359 66.9727 149.188 66.9476C149.071 66.9309 148.883 66.885 148.771 66.8432C148.654 66.7973 148.512 66.7263 148.445 66.6804C148.374 66.6219 148.27 66.5927 148.153 66.5927C148.057 66.5927 147.865 66.6219 147.727 66.6553C147.589 66.6887 147.409 66.7138 147.33 66.718C147.251 66.718 147.1 66.6929 146.996 66.6595C146.846 66.6136 146.783 66.6094 146.683 66.6512C146.612 66.6804 146.482 66.789 146.391 66.8934C146.299 66.9936 146.157 67.2107 146.069 67.3694C145.986 67.5281 145.894 67.7327 145.869 67.8245C145.831 67.9414 145.827 68.0291 145.856 68.1168C145.881 68.1878 146.061 68.4676 146.265 68.7432L146.629 69.2443C146.599 69.6827 146.553 69.8581 146.495 69.975C146.445 70.0794 146.34 70.2464 146.265 70.3508C146.19 70.4552 146.069 70.5638 145.99 70.5972C145.889 70.6389 145.785 70.6473 145.639 70.6264C145.559 70.615 145.442 70.5997 145.336 70.5858C145.287 70.5794 145.24 70.5733 145.201 70.568L144.971 70.5387C144.896 70.117 144.875 69.8831 144.871 69.7453C144.871 69.6076 144.887 69.3779 144.908 69.2317C144.933 69.0898 144.958 68.9728 144.971 68.9728C144.983 68.9728 145.042 69.0104 145.104 69.0564C145.175 69.1106 145.284 69.144 145.376 69.1399C145.464 69.1399 145.535 69.1315 145.535 69.119C145.535 69.1065 145.505 69.0647 145.468 69.023C145.43 68.9854 145.292 68.7557 145.163 68.5135L144.925 68.0751C143.919 68.0333 143.889 68.0291 143.814 67.9289C143.768 67.8705 143.722 67.7285 143.71 67.6157C143.689 67.432 143.664 67.3861 143.493 67.2358L143.301 67.0646C143.476 66.5259 143.493 66.4006 143.472 66.267C143.459 66.171 143.392 65.9831 143.326 65.8494C143.259 65.72 143.171 65.578 143.129 65.5404C143.083 65.4987 142.9 65.3901 142.716 65.2982C142.532 65.2022 142.303 65.0769 142.207 65.0143C142.094 64.9433 142.027 64.8723 142.027 64.818C142.027 64.7512 141.939 64.7011 141.576 64.5591C141.33 64.4589 140.904 64.2919 140.628 64.1875C140.353 64.0789 139.797 63.8284 139.396 63.628C138.67 63.2647 138.666 63.2605 138.574 63.0601C138.519 62.9473 138.428 62.8095 138.365 62.7511C138.252 62.6467 138.231 62.6467 137.835 62.6676L137.421 62.6884C137.237 63.3023 137.183 63.4943 137.183 63.511C137.183 63.5319 137.292 63.5444 137.421 63.5444L137.663 63.5486C137.947 64.0455 138.181 64.4339 138.369 64.7303C138.595 65.0895 138.781 65.333 138.929 65.4611C139.05 65.5655 139.4 65.8202 139.701 66.0206C140.006 66.2252 140.478 66.5008 140.753 66.6386C141.029 66.7723 141.388 66.9226 141.547 66.9685C141.705 67.0144 141.902 67.052 141.973 67.052C142.056 67.052 142.144 67.0854 142.194 67.1355C142.24 67.1815 142.278 67.2441 142.278 67.2692C142.278 67.2984 142.273 67.3318 142.261 67.3443C142.248 67.3569 142.123 67.3569 141.973 67.3443C141.722 67.3234 141.689 67.3109 141.488 67.123C141.334 66.981 141.242 66.9268 141.15 66.9268C141.079 66.9268 140.971 66.956 140.9 66.9894L140.774 67.052V69.3487L140.336 69.3278C140.319 69.0689 140.34 68.906 140.378 68.7933C140.436 68.6054 140.436 68.5887 140.348 68.3966C140.273 68.2296 140.269 68.1795 140.307 68.0625C140.34 67.979 140.344 67.9039 140.319 67.8538C140.298 67.8162 140.211 67.716 140.131 67.6366C139.993 67.5072 139.981 67.4696 139.981 67.2692C139.981 67.0562 139.977 67.0479 139.76 66.8892C139.643 66.7973 139.459 66.6846 139.355 66.6386C139.25 66.5927 139.133 66.5509 139.091 66.5509C139.054 66.5509 138.791 66.3923 138.507 66.2044C138.227 66.0123 137.839 65.7367 137.642 65.5947C137.446 65.4527 137.129 65.2607 136.933 65.1604C136.736 65.0644 136.436 64.8932 136.265 64.7805C136.093 64.6677 135.734 64.3712 135.471 64.1165C135.208 63.8618 134.953 63.6321 134.907 63.5987C134.832 63.5486 134.786 63.5653 134.448 63.7574C134.243 63.8743 133.934 64.0706 133.767 64.1959L133.467 64.4213L132.11 64.4965C131.655 64.0664 131.508 63.962 131.45 63.962C131.4 63.9578 131.321 63.9996 131.275 64.0455C131.208 64.1123 131.141 64.1332 130.949 64.129H130.711C129.6 65.0185 129.537 65.0811 129.542 65.1938C129.542 65.2648 129.466 65.4694 129.358 65.674C129.203 65.9663 129.091 66.1041 128.719 66.4674C128.473 66.7096 128.155 67.0019 128.018 67.123C127.809 67.2984 127.75 67.3819 127.667 67.599C127.617 67.7452 127.42 68.1962 127.237 68.597C127.057 68.9979 126.857 69.3988 126.794 69.4906C126.706 69.6159 126.514 69.7412 125.888 70.0961L125.095 70.5387C125.042 70.5372 124.985 70.5354 124.927 70.5336C124.811 70.53 124.684 70.526 124.551 70.5218C124.215 70.5112 123.834 70.4991 123.458 70.4886C122.856 70.4719 122.355 70.4469 122.347 70.4343C122.334 70.4218 122.238 70.2339 122.134 70.0168C122.025 69.7996 121.942 69.5658 121.942 69.4948C121.938 69.4238 121.984 69.3069 122.034 69.2276C122.088 69.1482 122.234 69.023 122.359 68.9478C122.485 68.8726 122.66 68.739 122.752 68.6513C122.834 68.5692 122.874 68.5296 122.886 68.4826C122.898 68.4389 122.887 68.3889 122.865 68.2922C122.84 68.1836 122.819 68.025 122.819 67.9373C122.819 67.8538 122.865 67.6951 122.923 67.5823C122.982 67.4738 123.028 67.3485 123.028 67.3026C123.028 67.2566 123.007 67.1773 122.982 67.123C122.944 67.0479 122.961 66.981 123.069 66.7388C123.165 66.5384 123.207 66.3797 123.207 66.2378C123.211 66.0666 123.186 65.9956 123.078 65.8494C122.957 65.6908 122.923 65.6699 122.727 65.6532C122.606 65.6406 122.372 65.5989 122.213 65.5613C122.025 65.5154 121.838 65.4319 121.691 65.3316C121.566 65.2481 121.424 65.1771 121.378 65.173C121.328 65.173 121.27 65.198 121.24 65.2231C121.199 65.2648 121.19 65.2147 121.19 64.9725V64.6719C121.529 64.3796 121.696 64.2627 121.775 64.2251C121.875 64.1792 122.084 64.1541 122.464 64.1374C122.919 64.1207 123.082 64.1332 123.487 64.2126L123.967 64.3086C124.418 64.1708 124.635 64.129 124.74 64.129C124.844 64.129 125.011 64.1541 125.115 64.1875C125.22 64.2209 125.441 64.2961 125.608 64.3545C125.784 64.4172 126.001 64.4631 126.13 64.4631C126.318 64.4631 126.381 64.4422 126.589 64.2961C126.719 64.2042 126.827 64.1165 126.827 64.0956C126.827 64.0789 126.798 64.0288 126.765 63.9829C126.719 63.9244 126.702 63.795 126.702 63.5444C126.702 63.3482 126.723 63.0684 126.748 62.9181C126.782 62.7051 126.777 62.5757 126.723 62.3126C126.69 62.1289 126.665 61.9034 126.669 61.8115C126.673 61.7197 126.673 61.5318 126.669 61.394C126.665 61.2061 126.635 61.1017 126.556 60.9764C126.468 60.8428 126.393 60.7885 126.168 60.7008C126.013 60.6382 125.754 60.5463 125.596 60.492C125.433 60.4377 125.241 60.3417 125.161 60.2707C125.086 60.1997 124.994 60.0912 124.965 60.0243C124.932 59.9617 124.907 59.8782 124.907 59.8364C124.902 59.7989 124.928 59.7446 124.957 59.7153C124.986 59.6861 125.124 59.6444 125.262 59.6193C125.399 59.5942 125.646 59.5483 125.804 59.5149C125.963 59.4815 126.331 59.423 126.619 59.3855C126.907 59.3479 127.245 59.2811 127.37 59.2351C127.496 59.185 127.696 59.0932 127.809 59.0305C127.926 58.9637 128.197 58.7633 128.418 58.5879C128.64 58.4083 128.999 58.1703 129.212 58.0576C129.429 57.9448 129.775 57.7444 129.98 57.615C130.185 57.4813 130.46 57.3227 130.586 57.26C130.711 57.1974 130.903 57.0847 131.011 57.0137C131.116 56.9427 131.325 56.8174 131.467 56.7381C131.609 56.6587 131.863 56.4667 132.035 56.308C132.218 56.1409 132.339 55.9948 132.339 55.9447C132.339 55.8946 132.423 55.7985 132.561 55.6983C132.678 55.6065 132.828 55.4812 132.886 55.4144C132.957 55.3392 133.053 55.2849 133.179 55.2641C133.279 55.2474 133.467 55.1847 133.592 55.1221C133.759 55.0469 133.851 55.026 133.926 55.0469C133.985 55.0636 134.181 55.0803 134.365 55.0845C134.69 55.0887 134.703 55.0845 134.866 54.9384C134.958 54.859 135.079 54.7588 135.137 54.7212C135.208 54.6711 135.358 54.6419 135.609 54.6293C135.83 54.6168 135.981 54.6252 135.993 54.6502C136.006 54.6795 136.302 54.6836 136.841 54.6628L137.663 54.6377C138.54 55.0427 138.737 55.1096 138.866 55.1096C138.962 55.1096 139.125 55.0803 139.229 55.0469C139.334 55.0093 139.446 54.9467 139.48 54.9008C139.513 54.8548 139.655 54.7755 139.793 54.7254C140.018 54.6461 140.115 54.6335 140.724 54.6419C141.242 54.6502 141.401 54.6377 141.401 54.5959C141.401 54.5709 141.28 54.4247 141.138 54.2744C141.049 54.1809 140.854 53.9774 140.631 53.7445C140.515 53.6236 140.392 53.4948 140.271 53.3692L140.211 53.3057L139.542 52.6125C139.317 52.7085 139.037 52.863 138.774 53.0175L138.298 53.2931C138.002 53.2054 137.822 53.1136 137.709 53.0301C137.597 52.9465 137.471 52.8255 137.43 52.7586C137.379 52.6918 137.334 52.5039 137.308 52.2784C137.283 52.078 137.212 51.7189 137.146 51.4767C137.083 51.2345 136.974 50.9464 136.908 50.8336C136.841 50.7167 136.736 50.5706 136.674 50.5079C136.574 50.4077 136.523 50.391 136.327 50.391C136.173 50.391 135.876 50.4578 135.4 50.604C135.012 50.7209 134.578 50.842 134.427 50.8754C134.277 50.9046 134.081 50.9339 133.989 50.9339C133.897 50.9339 133.73 50.9088 133.613 50.8754C133.5 50.842 133.358 50.7668 133.3 50.7126C133.241 50.6583 133.149 50.5205 133.091 50.4077C133.033 50.295 132.907 50.0611 132.807 49.8899C132.644 49.5976 132.623 49.535 132.552 48.9922C132.506 48.6706 132.46 48.2489 132.444 48.0526C132.423 47.7854 132.431 47.681 132.473 47.6267C132.502 47.5891 132.661 47.4806 132.82 47.3929C132.978 47.301 133.137 47.1883 133.166 47.1382C133.212 47.0546 133.183 47.0254 132.728 46.683C132.456 46.4826 131.972 46.1276 131.65 45.898C131.329 45.6683 130.803 45.3009 130.481 45.0837C130.16 44.8666 129.604 44.4991 129.249 44.2695C128.894 44.0356 128.293 43.6598 127.913 43.4301C127.533 43.2005 126.982 42.8748 126.681 42.6994C126.381 42.5282 125.829 42.2192 125.449 42.0104C125.069 41.8016 124.451 41.4717 124.072 41.2755C123.692 41.0792 122.961 40.7159 122.443 40.4738C121.925 40.2274 121.082 39.8432 120.564 39.6177C120.046 39.3923 119.219 39.0498 118.727 38.8536C118.234 38.6573 117.624 38.4193 117.37 38.3275C117.115 38.2356 116.864 38.1562 116.806 38.1562C116.747 38.1562 116.497 38.2398 116.242 38.3442C115.987 38.4485 115.641 38.6114 115.47 38.7033C115.298 38.7951 115.044 38.9538 114.906 39.0582C114.768 39.1626 114.563 39.2962 114.455 39.3588L114.254 39.4716L114.263 40.0562C113.703 40.5949 113.632 40.6867 113.632 40.7744C113.636 40.8412 113.678 40.9915 113.728 41.1168C113.812 41.3214 113.837 41.3465 114.041 41.4175C114.158 41.4592 114.271 41.5302 114.284 41.5678C114.3 41.6095 114.3 41.6847 114.284 41.7348C114.271 41.7891 114.171 41.8935 114.062 41.9728C113.95 42.0522 113.749 42.1733 113.611 42.2443C113.378 42.3653 113.327 42.3737 112.847 42.382C112.467 42.3904 112.317 42.382 112.284 42.3403C112.254 42.3111 112.192 42.286 112.142 42.2902C112.087 42.2902 111.787 42.3737 111.473 42.4781C111.156 42.5783 110.626 42.737 110.292 42.8288C109.958 42.9207 109.423 43.0627 109.102 43.142C108.78 43.2255 108.488 43.3174 108.45 43.3466C108.413 43.3717 108.137 43.5805 107.845 43.806C107.373 44.1609 107.289 44.2068 107.181 44.1901C107.085 44.1692 106.934 44.2194 106.554 44.3947C106.279 44.52 105.874 44.6703 105.657 44.733C105.44 44.7914 105.118 44.8708 104.947 44.9042C104.776 44.9376 104.4 44.9919 104.112 45.0253C103.824 45.0587 103.59 45.0795 103.586 45.0754C103.583 45.0729 103.573 45.0403 103.558 44.9921C103.548 44.96 103.536 44.9209 103.523 44.8791C103.49 44.7747 103.435 44.687 103.402 44.6787C103.368 44.6703 103.293 44.6996 103.235 44.7455C103.176 44.7872 103.001 45.0086 102.838 45.2382C102.679 45.4637 102.429 45.7727 102.283 45.923C102.132 46.0734 101.807 46.4283 101.552 46.7164L101.088 47.2384C100.667 47.2885 100.42 47.3386 100.27 47.3845C100.12 47.4263 99.9235 47.5181 99.8316 47.585C99.7397 47.6518 99.6437 47.752 99.6186 47.8063C99.5894 47.8606 99.5435 47.9691 99.5143 48.0485C99.4809 48.1278 99.3932 48.2322 99.3097 48.2823C99.2303 48.3366 99.0424 48.4117 98.8921 48.4619C98.7418 48.5078 98.4328 48.5788 98.2031 48.6164C97.9024 48.6706 97.5475 48.6915 96.9504 48.6957L96.1111 48.6999C95.6058 48.4535 95.4179 48.3157 95.2968 48.1904C95.1423 48.0276 95.0838 47.9232 94.9962 47.6351C94.9377 47.4388 94.8667 47.1966 94.8458 47.0922C94.8208 46.9878 94.7999 46.825 94.7999 46.7248C94.7999 46.6287 94.8458 46.3573 94.9001 46.1193C94.9544 45.8855 95.0421 45.5723 95.0964 45.422C95.1465 45.2716 95.2216 45.1004 95.2634 45.0336C95.3093 44.971 95.4388 44.8749 95.5515 44.8165C95.6684 44.758 95.8564 44.6453 95.9691 44.5659C96.1278 44.4574 96.1862 44.3822 96.2196 44.2611C96.2405 44.1776 96.2614 44.0398 96.2614 43.9605C96.2614 43.8811 96.2322 43.7684 96.1904 43.7099C96.1236 43.6055 96.1236 43.6014 96.2864 43.4719C96.3741 43.3967 96.4952 43.2923 96.5537 43.2381C96.6122 43.1838 96.7332 42.9917 96.8251 42.8121C96.9379 42.5867 97.0297 42.4614 97.1132 42.4155C97.1759 42.382 97.2886 42.3152 97.3638 42.2693C97.4348 42.2192 97.5559 42.0814 97.631 41.9561C97.7062 41.8309 97.8064 41.6221 97.8523 41.4968C97.8983 41.3715 97.9233 41.2337 97.9108 41.192C97.8983 41.1544 97.8607 41.121 97.8273 41.121C97.7772 41.121 97.7646 41.0667 97.7646 40.8704C97.7646 40.645 97.7772 40.6116 97.8732 40.5447C97.9358 40.5072 98.0361 40.3986 98.0987 40.3067C98.1655 40.2149 98.2281 40.0812 98.2449 40.0144C98.2616 39.9434 98.2532 39.7848 98.2281 39.6595L98.178 39.4298L97.0757 38.603L95.5432 38.0936C95.3928 37.8013 95.3052 37.5675 95.2467 37.3837C95.1882 37.2 95.1298 36.9829 95.1173 36.9035C95.1006 36.8033 95.1173 36.7073 95.1757 36.5904C95.2216 36.4985 95.2551 36.4192 95.2467 36.415C95.2425 36.4108 95.1256 36.3774 94.9878 36.344C94.85 36.3064 94.6245 36.2772 94.4867 36.2772C94.3489 36.2772 93.9815 36.2981 93.6725 36.3231C93.3635 36.344 92.7705 36.4108 92.3571 36.4693C91.9437 36.5236 91.4969 36.5695 91.3675 36.5695H91.1253V35.6508C91.6264 35.1915 91.8393 35.0412 91.9187 35.0161C92.0356 34.9785 92.1358 34.9869 92.4406 35.0579C92.6494 35.108 93.163 35.1873 93.589 35.2374C94.0149 35.2834 94.6036 35.321 94.9043 35.321C95.2133 35.321 95.6058 35.2917 95.8229 35.2541C96.0317 35.2166 96.2781 35.1498 96.3783 35.1038C96.5203 35.0412 96.562 34.9953 96.5955 34.8658C96.6163 34.7823 96.6372 34.6779 96.6372 34.6361C96.6372 34.5735 96.5829 34.5652 96.0234 34.5735C95.681 34.5777 95.1882 34.586 94.9252 34.5944ZM77.4666 38.9496C77.596 38.8202 77.738 38.6949 77.784 38.6657C77.8299 38.6406 77.9802 38.6156 78.118 38.6156C78.2976 38.6156 78.4354 38.6448 78.5982 38.7158C78.7513 38.7826 78.8696 38.8717 78.9531 38.983C79.0283 39.0833 79.1619 39.1918 79.283 39.2503C79.4584 39.3338 79.5503 39.3463 79.9094 39.3421C80.2476 39.338 80.3729 39.3213 80.5399 39.2461C80.6526 39.196 80.7988 39.1584 80.8614 39.1584C80.9282 39.1584 81.1036 39.1208 81.2581 39.0707C81.4961 38.9956 81.5588 38.9914 81.6465 39.0373C81.7049 39.0666 81.9095 39.2503 82.1058 39.4507C82.4106 39.7639 82.5025 39.8307 82.7739 39.9434C82.9302 40.006 83.0085 40.0373 83.0893 40.0462C83.1703 40.0552 83.2538 40.0416 83.4211 40.0144C83.6049 39.9852 83.8387 39.9393 83.9431 39.91C84.0558 39.8808 84.227 39.8725 84.3815 39.8892C84.5193 39.9017 84.6655 39.9226 84.7031 39.9351C84.7448 39.9434 84.7949 40.0144 84.82 40.0854C84.8409 40.1648 85.0371 40.4195 85.2835 40.6825C85.605 41.0333 85.7512 41.1586 85.9015 41.217C86.0059 41.263 86.2731 41.3507 86.4903 41.4175C86.7074 41.4885 86.9078 41.5594 86.9287 41.5845C86.9538 41.6095 86.9705 41.8726 86.9705 42.7787L87.1584 43.0209C87.2628 43.1546 87.459 43.3759 87.5968 43.5137C87.7346 43.6515 87.9726 43.8352 88.1271 43.9229C88.3109 44.0273 88.4111 44.1108 88.4111 44.1567C88.4111 44.1985 88.3819 44.3363 88.3484 44.4615C88.315 44.5868 88.2608 44.7288 88.2274 44.7747C88.1856 44.8374 88.0729 44.8749 87.3463 45.0086L87.1166 44.8875C86.9914 44.8207 86.7742 44.7079 86.3859 44.5075L86.1145 44.5701C85.9641 44.6035 85.8013 44.6578 85.747 44.6912C85.6718 44.7455 85.6551 44.7914 85.6551 44.971C85.6551 45.0921 85.676 45.3134 85.7011 45.4637C85.7261 45.614 85.7804 45.8437 85.8263 45.9731C85.8681 46.1068 85.9057 46.278 85.9057 46.349C85.9057 46.4325 85.8597 46.5494 85.7887 46.6454C85.7136 46.754 85.6384 46.8083 85.5507 46.8208C85.5333 46.8229 85.5124 46.8254 85.4894 46.8282C85.4185 46.8368 85.3278 46.8479 85.2584 46.8542C85.1457 46.8626 84.9912 46.8292 84.7782 46.7456C84.607 46.6788 84.3857 46.5953 84.2855 46.5661C84.1268 46.5118 84.1018 46.516 84.0308 46.5786C83.989 46.6204 83.9306 46.7206 83.8596 46.9461L84.2604 47.3428C84.5026 47.5808 84.653 47.7603 84.6363 47.7896C84.6237 47.8188 84.5778 47.8439 84.536 47.8439C84.4985 47.8439 84.4275 47.8731 84.3815 47.9065C84.3356 47.9441 84.2103 47.9691 84.0976 47.9691C83.989 47.9691 83.7552 47.9399 83.5756 47.9023C83.4003 47.8647 83.1581 47.7896 83.0453 47.7311C82.9284 47.6726 82.7113 47.5432 82.5526 47.443C82.3981 47.3428 82.1601 47.1465 82.0223 47.0087C81.8511 46.8375 81.7717 46.7248 81.7717 46.6538C81.7717 46.5953 81.7342 46.4492 81.6882 46.3281C81.6465 46.2112 81.5463 46.0525 81.4753 45.9857C81.4043 45.9147 81.279 45.7226 81.2038 45.5556C81.1245 45.3927 81.0619 45.2257 81.0619 45.1923C81.0619 45.1589 81.1078 45.0587 81.1663 44.971C81.2205 44.8875 81.2915 44.7789 81.3249 44.733C81.3542 44.687 81.5003 44.5743 81.9179 44.3196L82.586 44.3739C83.037 44.4073 83.3877 44.4114 83.6717 44.3864C83.9264 44.3655 84.1644 44.3154 84.2772 44.2653C84.4651 44.1818 84.4651 44.1818 84.4651 43.9772C84.4609 43.8644 84.4358 43.6932 84.4024 43.5972C84.369 43.5011 84.3273 43.4301 84.3064 43.4427C84.2897 43.451 84.2688 43.4385 84.2563 43.4176C84.2437 43.3926 84.1602 43.3383 84.0684 43.2923C83.9765 43.2464 83.8679 43.2088 83.8262 43.2088C83.7886 43.2088 83.6132 43.1128 83.442 42.9917C83.2708 42.8706 83.0453 42.6869 82.9409 42.5825C82.8365 42.4781 82.611 42.2067 82.4398 41.9812C82.1851 41.6471 82.064 41.5302 81.7926 41.3507C81.6089 41.2296 81.375 41.0876 81.2707 41.0333C81.0995 40.9414 81.0326 40.9331 80.5608 40.9373C80.0597 40.9414 80.0263 40.9456 79.7758 41.0709C79.6338 41.146 79.4083 41.2337 79.2789 41.2713C79.1979 41.2923 79.144 41.3062 79.0894 41.31C78.9806 41.3176 78.8691 41.2851 78.5356 41.1878C78.26 41.1085 78.0136 41.0584 77.9927 41.0751C77.9719 41.0918 77.7422 41.1043 77.4917 41.1001C77.3864 41.0984 77.2597 41.0966 77.133 41.0948C76.9582 41.0924 76.7835 41.09 76.6649 41.0876L76.6642 41.0876C76.3058 41.0792 76.3015 41.0791 76.1012 40.9122C75.9926 40.8203 75.8882 40.7118 75.8673 40.67C75.8464 40.6324 75.8297 40.5489 75.8339 40.4821C75.8381 40.4069 75.9132 40.2942 76.0552 40.1481C76.168 40.0311 76.2891 39.8683 76.3141 39.7931C76.3433 39.7096 76.3934 39.6595 76.4352 39.6595C76.477 39.6595 76.5605 39.6177 76.6231 39.5635C76.6899 39.5092 76.8528 39.4048 76.9864 39.3254C77.1242 39.2461 77.3413 39.0749 77.4666 38.9496ZM125.462 51.6855C125.512 51.4475 125.579 51.2262 125.604 51.1969C125.633 51.1677 125.683 51.1552 125.708 51.1635C125.738 51.1761 125.796 51.2429 125.838 51.318C125.88 51.3932 126.009 51.5185 126.326 51.7272V52.3118C126.326 52.7837 126.339 52.9257 126.397 53.0426C126.472 53.1887 126.477 53.1887 127.015 53.1929L127.015 53.1929L127.337 53.9529C127.512 54.3705 127.683 54.7964 127.713 54.8966C127.759 55.0511 127.855 55.1638 128.289 55.5731C128.577 55.8445 128.882 56.1159 128.965 56.1827C129.053 56.2453 129.124 56.308 129.124 56.3205C129.128 56.333 129.024 56.4165 128.661 56.6754L128.665 57.4271L128.435 57.5398C128.222 57.6484 128.168 57.6567 127.683 57.6567C127.395 57.6567 127.02 57.686 126.836 57.7194C126.66 57.7528 126.372 57.7945 126.201 57.8071C125.984 57.8238 125.788 57.878 125.554 57.9741C125.245 58.1077 125.191 58.1161 124.781 58.1161C124.385 58.1119 124.351 58.1077 124.426 58.0492C124.472 58.0158 124.656 57.8947 124.831 57.782C125.011 57.6651 125.178 57.5315 125.203 57.4772C125.232 57.4271 125.274 57.3728 125.299 57.3561C125.324 57.3394 125.374 57.331 125.408 57.3394C125.432 57.3483 125.481 57.3594 125.533 57.3711L125.534 57.3714C125.555 57.376 125.576 57.3806 125.596 57.3853C125.713 57.4062 125.738 57.3895 125.917 57.1598C126.03 57.0178 126.126 56.88 126.138 56.8508C126.151 56.8216 126.067 56.7464 125.93 56.6629C125.746 56.5543 125.654 56.5293 125.241 56.5293V55.3601H125.47C125.696 55.3601 125.7 55.3601 125.7 55.2348C125.7 55.1097 125.704 55.1096 126.178 55.0888L126.18 55.0887L126.201 53.8777L126.063 53.7065C125.971 53.5812 125.829 53.481 125.241 53.1887V52.9883C125.241 52.8797 125.27 52.6417 125.307 52.458C125.341 52.2743 125.412 51.9277 125.462 51.6855ZM119.069 53.6272L118.434 54.0656H117.411C117.165 54.5667 117.102 54.7129 117.106 54.717C117.112 54.717 117.209 54.7294 117.346 54.747L117.347 54.7471C117.404 54.7544 117.469 54.7627 117.537 54.7713C117.858 54.8131 118.021 54.859 118.234 54.9676L118.518 55.1096H120.627L120.919 54.6126C121.345 54.5918 121.503 54.5458 121.691 54.454C121.858 54.3746 122.038 54.241 122.159 54.1116C122.33 53.932 122.351 53.8903 122.301 53.8443C122.268 53.8193 122.234 53.7566 122.226 53.7107C122.213 53.6314 122.18 53.6272 121.399 53.6272C120.743 53.6272 120.556 53.6147 120.439 53.5604C120.359 53.5228 120.213 53.4226 120.113 53.3391C120.004 53.2472 119.896 53.1887 119.821 53.1887C119.745 53.1887 119.503 53.3307 119.069 53.6272ZM85.605 58.4501C85.7595 58.2538 85.9767 57.9866 86.0894 57.853C86.2063 57.7235 86.3149 57.615 86.3316 57.615C86.3483 57.615 86.365 57.7235 86.365 57.853C86.365 57.9866 86.3859 58.2622 86.4109 58.471C86.4318 58.6756 86.4903 58.9261 86.5362 59.0222C86.5821 59.1307 86.6865 59.2518 86.7909 59.327C86.8911 59.398 87.0707 59.4815 87.1876 59.5149C87.3087 59.5483 87.4632 59.5775 87.5342 59.5775C87.5853 59.5775 87.6155 59.5775 87.6326 59.5925C87.6574 59.6143 87.6544 59.6678 87.6469 59.7989C87.6428 59.9575 87.6052 60.0786 87.5133 60.2248C87.4381 60.3459 87.3129 60.4753 87.2001 60.5463C87.0957 60.6089 86.9078 60.6799 86.7826 60.705C86.6072 60.7384 86.4986 60.7342 86.3232 60.6883C86.198 60.6549 85.9725 60.563 85.8222 60.4795C85.5841 60.35 85.5173 60.3292 85.2584 60.3292C85.0956 60.3292 84.8534 60.3626 84.7156 60.4002C84.5778 60.4377 84.3314 60.4711 84.1728 60.4711C83.9932 60.4753 83.8262 60.4503 83.7385 60.4127C83.6633 60.3793 83.5798 60.3166 83.5631 60.2749C83.5422 60.2331 83.5422 60.1705 83.5673 60.1204C83.5882 60.0744 83.7009 59.9659 83.8095 59.8782C83.918 59.7947 84.1853 59.6277 84.4024 59.5149C84.6404 59.3896 84.9035 59.2059 85.0622 59.0556C85.2125 58.9178 85.4547 58.6464 85.605 58.4501ZM132.682 65.4736C132.544 65.7576 132.398 66.0916 132.364 66.2169C132.327 66.3422 132.281 66.7388 132.256 67.0938C132.247 67.2485 132.235 67.4285 132.224 67.6025L132.224 67.604L132.224 67.6055C132.21 67.8296 132.196 68.0434 132.189 68.1795C132.172 68.4634 132.177 68.7014 132.21 68.8476C132.239 68.9728 132.293 69.1106 132.331 69.1524C132.369 69.1942 132.444 69.2276 132.494 69.2234C132.548 69.2234 132.64 69.1983 132.703 69.1649C132.769 69.1357 132.891 69.0313 132.974 68.9353C133.062 68.8434 133.149 68.6931 133.174 68.6054C133.195 68.5219 133.216 68.2087 133.216 67.908C133.216 67.4988 133.233 67.3234 133.283 67.1982C133.321 67.1063 133.496 66.8808 133.676 66.6971C133.851 66.5134 134.026 66.3171 134.064 66.2586C134.106 66.2002 134.135 66.0749 134.135 65.9747C134.135 65.8787 134.106 65.745 134.072 65.674C134.039 65.6031 133.96 65.5237 133.893 65.4903C133.83 65.4569 133.684 65.4068 133.571 65.3776C133.454 65.3525 133.312 65.3024 133.245 65.2732C133.183 65.2398 133.099 65.1563 133.058 65.0895C133.02 65.0185 132.974 64.9642 132.962 64.9642C132.949 64.9642 132.824 65.1938 132.682 65.4736ZM57.0516 83.7172C57.2897 83.5878 57.5653 83.45 57.6571 83.4124C57.749 83.3748 57.8617 83.3497 57.9077 83.3623C57.925 83.3654 57.9719 83.3733 58.0378 83.3844L58.0387 83.3845C58.1476 83.4028 58.3079 83.4298 58.4714 83.4583C58.7344 83.5042 59.0894 83.5627 59.2522 83.5878C59.4193 83.6086 59.674 83.6838 59.816 83.7464C60.0665 83.8592 60.0874 83.8634 60.2878 83.8091C60.4005 83.7757 60.5926 83.759 60.7137 83.7631C60.8808 83.7715 60.9559 83.8007 61.0478 83.8884C61.1104 83.9552 61.2566 84.0513 61.3735 84.1097C61.4862 84.1682 61.7034 84.2976 61.8537 84.3979C62.004 84.4981 62.1794 84.6359 62.2504 84.7069C62.3214 84.7737 62.5176 84.9866 62.693 85.1787C62.9519 85.4668 63.0563 85.5503 63.5657 85.78V86.1558L63.1565 86.1516C62.8266 86.1475 62.7014 86.1266 62.48 86.0389C62.3297 85.9804 61.9915 85.8385 61.7284 85.7257C61.4654 85.613 61.0394 85.4251 60.7889 85.3081C60.5383 85.1954 60.2252 85.0534 60.0999 84.995C59.9746 84.9365 59.5863 84.7528 58.6175 84.2893L58.2918 84.3143C58.1164 84.3269 57.9244 84.3561 57.8659 84.3811C57.8074 84.402 57.582 84.4229 57.3648 84.4229C57.1477 84.4229 56.847 84.3937 56.6967 84.3603L56.6967 84.3603C56.53 84.3218 56.4657 84.3069 56.4409 84.2674C56.4253 84.2425 56.4253 84.2079 56.4253 84.1515C56.4253 84.0346 56.4462 84.0012 56.5172 83.9803C56.5714 83.9636 56.8095 83.8467 57.0516 83.7172ZM65.8331 86.16L65.6953 86.1767C65.7204 86.5483 65.7496 86.7321 65.783 86.8239C65.8331 86.9826 65.8289 86.9993 65.712 87.1496C65.6452 87.2415 65.5116 87.3584 65.4114 87.4127C65.3153 87.467 65.1191 87.5296 64.9729 87.5547C64.831 87.5756 64.6305 87.6215 64.5261 87.6507C64.4217 87.6841 64.3341 87.7342 64.3257 87.7593C64.3215 87.7927 64.4677 87.8052 64.8184 87.8052C65.1942 87.8052 65.3529 87.7885 65.4531 87.7384C65.5784 87.6758 65.5993 87.6758 65.7037 87.7384C65.7705 87.776 65.8999 87.8052 65.996 87.8052C66.0962 87.8052 66.2799 87.7843 66.4052 87.7593C66.5305 87.7342 66.9063 87.7092 67.2403 87.705L67.8458 87.7008C68.255 87.4545 68.468 87.3709 68.6809 87.325C68.8647 87.2833 69.1152 87.2123 69.2363 87.1622C69.3574 87.1162 69.4534 87.0661 69.4534 87.0536C69.4534 87.0411 69.3992 87.0035 69.3365 86.9701C69.2614 86.9283 69.2113 86.8573 69.1904 86.7696C69.1653 86.6485 69.1528 86.6402 69.0818 86.6861C69.0108 86.7321 68.9148 86.7154 68.4638 86.565C68.1715 86.469 67.8416 86.3813 67.7289 86.3688C67.6203 86.3562 67.4074 86.2936 67.2487 86.2352C67.0524 86.1558 66.9647 86.1391 66.948 86.1767C66.9313 86.2101 66.8353 86.2184 66.614 86.2017C66.4428 86.1892 66.2256 86.1725 66.1338 86.16C66.0419 86.1516 65.9041 86.1516 65.8289 86.16H65.8331Z" fill="white"/>
<path d="M36.7703 82.1764C36.7453 82.2975 36.62 82.9155 36.4947 83.546C36.3653 84.1765 36.2024 85.0409 36.1356 85.4668C36.0646 85.8927 35.9728 86.5024 35.9268 86.8239C35.8809 87.1455 35.8141 87.634 35.7807 87.9096C35.7431 88.1852 35.6763 88.7656 35.6304 89.2041C35.5844 89.6425 35.5218 90.3733 35.4842 90.8326C35.4508 91.2919 35.4007 92.1103 35.3756 92.649C35.3464 93.1877 35.3255 94.4863 35.3255 95.5302C35.3255 96.5742 35.3464 97.8728 35.3756 98.4115C35.4007 98.9501 35.4508 99.7686 35.4884 100.228C35.5218 100.687 35.5886 101.422 35.6345 101.856C35.6805 102.291 35.7431 102.875 35.7807 103.151C35.8141 103.426 35.8809 103.915 35.9268 104.237C35.9728 104.558 36.0646 105.168 36.1356 105.594C36.2066 106.02 36.336 106.75 36.4279 107.222C36.5198 107.694 36.6785 108.454 36.7828 108.913C36.8872 109.373 37.0543 110.087 37.1587 110.5C37.2631 110.913 37.4134 111.486 37.4969 111.774C37.5762 112.062 37.7892 112.784 37.9687 113.381C38.1525 113.978 38.3821 114.709 38.4865 115.01C38.5867 115.31 38.7287 115.711 38.7997 115.908C38.8665 116.104 39.0168 116.517 39.1296 116.826C39.2465 117.135 39.4762 117.728 39.639 118.142C39.806 118.555 40.1234 119.315 40.3489 119.833C40.5744 120.351 40.9502 121.177 41.184 121.67C41.4179 122.163 41.777 122.898 41.9858 123.299C42.1945 123.699 42.4868 124.255 42.6372 124.53C42.7875 124.806 43.0589 125.295 43.2426 125.616C43.4264 125.938 43.727 126.455 43.9108 126.764C44.0945 127.073 44.4077 127.583 44.6039 127.892C44.796 128.201 45.1301 128.719 45.343 129.04C45.5474 129.349 45.8403 129.784 46.0075 130.033L46.0278 130.063C46.1949 130.305 46.4913 130.727 46.6876 131.003C46.8838 131.278 47.2805 131.813 47.5687 132.193C47.8526 132.573 48.3412 133.203 48.6543 133.592C48.9675 133.98 49.5521 134.686 49.953 135.158C50.358 135.629 50.9885 136.343 51.356 136.744C51.7193 137.145 52.5377 137.993 53.1683 138.623C53.7988 139.254 54.6465 140.072 55.0473 140.436C55.4482 140.803 56.1622 141.434 56.6341 141.839C57.1059 142.24 57.8116 142.824 58.2 143.137C58.5883 143.45 59.1813 143.91 59.5153 144.165C59.8494 144.415 60.3546 144.791 60.6427 145C60.9309 145.204 61.315 145.476 61.4988 145.605C61.6825 145.73 62.171 146.06 62.5844 146.336C62.9978 146.611 63.6367 147.025 64.0042 147.255C64.3716 147.484 65.0565 147.898 65.5283 148.173C66.0002 148.449 66.7142 148.854 67.1151 149.071C67.5159 149.288 68.1172 149.61 68.4513 149.785C68.7853 149.956 69.4869 150.307 70.0172 150.557C70.5475 150.808 71.391 151.196 71.8962 151.414C72.4015 151.635 72.8399 151.819 72.8692 151.819C72.8942 151.819 72.9193 151.793 72.9193 151.764C72.9193 151.739 72.9026 151.697 72.8859 151.672C72.865 151.647 72.7815 151.472 72.7021 151.276C72.6186 151.079 72.5101 150.787 72.46 150.628C72.3806 150.386 72.3597 150.198 72.3389 149.543C72.318 148.908 72.2971 148.72 72.2386 148.612C72.2011 148.541 72.034 148.369 71.867 148.236C71.7042 148.106 71.3617 147.818 71.107 147.597C70.8523 147.376 70.322 146.862 69.9337 146.453C69.3616 145.86 69.2154 145.68 69.1779 145.542C69.1486 145.446 69.0735 145.233 69.0025 145.075C68.9357 144.916 68.8522 144.67 68.8229 144.532C68.7937 144.39 68.7728 144.035 68.7728 143.718C68.7728 143.379 68.8146 142.883 68.8689 142.486C68.9315 142.022 68.9691 141.517 68.9816 140.836C68.9983 140.097 68.9858 139.684 68.9357 139.166C68.8981 138.786 68.7979 138.018 68.7185 137.454C68.6392 136.89 68.539 136.298 68.4972 136.139C68.4555 135.98 68.368 135.66 68.3054 135.43L68.3051 135.429C68.1924 135.011 68.1924 135.007 68.2175 133.926C68.23 133.287 68.2676 132.652 68.3051 132.381C68.3427 132.126 68.4221 131.779 68.4847 131.608C68.5849 131.333 68.5974 131.237 68.5933 130.815C68.5933 130.552 68.5724 130.234 68.5432 130.113C68.5098 129.963 68.493 129.312 68.493 127.942L68.4972 125.992C68.2258 125.345 67.9794 124.647 67.7748 124.029C67.5702 123.411 67.3322 122.752 67.2445 122.568C67.1527 122.384 67.0274 122.184 66.9647 122.121C66.9392 122.097 66.9003 122.06 66.8547 122.017C66.817 121.982 66.7747 121.942 66.7317 121.901C66.7081 121.879 66.6844 121.857 66.6611 121.835C66.6437 121.819 66.6265 121.803 66.6098 121.787C66.4845 121.666 66.0503 121.223 65.6494 120.802C65.0189 120.138 64.9187 120.05 64.8936 120.121C64.8727 120.171 64.8518 120.209 64.8393 120.209C64.8268 120.209 64.6305 120.113 64.4009 120C64.1712 119.883 63.9708 119.791 63.9541 119.791C63.9332 119.787 63.8037 119.703 63.6618 119.603C63.5156 119.499 63.4071 119.398 63.4196 119.373C63.4321 119.348 63.4196 119.29 63.3904 119.236C63.3653 119.186 63.1273 118.918 62.8642 118.643C62.4508 118.208 62.359 118.083 62.1752 117.712C62.0541 117.473 61.8537 117.144 61.7284 116.972C61.6032 116.805 61.315 116.463 61.0854 116.212C60.8599 115.966 60.6219 115.686 60.5592 115.594C60.4966 115.503 60.2795 115.106 60.079 114.718C59.9293 114.427 59.7398 114.053 59.5979 113.773L59.5977 113.773C59.5498 113.678 59.5073 113.594 59.4736 113.527C59.3399 113.264 59.1813 112.897 59.1186 112.713C59.0639 112.553 58.987 112.31 58.9322 112.137L58.9098 112.066C58.8263 111.786 58.7553 111.673 58.2668 111.03L57.7198 110.312C57.8492 109.778 57.9244 109.419 57.9703 109.164C58.0162 108.909 58.058 108.554 58.0622 108.37C58.0705 108.045 58.0663 108.032 57.8951 107.765L57.7156 107.494V105.656C58.9015 104.207 59.0142 104.04 59.2731 103.527C59.436 103.205 59.7993 102.512 60.079 101.982C60.3588 101.451 60.7221 100.758 60.8808 100.437C61.0436 100.115 61.2232 99.7268 61.2858 99.5681C61.3568 99.3844 61.3944 99.209 61.3944 99.0462C61.3944 98.9167 61.3568 98.6745 61.3067 98.5159C61.2566 98.3572 61.1689 98.1108 61.1063 97.973C61.006 97.7434 60.9768 97.7141 60.7889 97.6431C60.626 97.5805 60.5217 97.568 60.3296 97.5889C60.1918 97.6014 59.9287 97.6598 59.745 97.7183C59.4861 97.8018 59.3817 97.8185 59.2856 97.7893C59.2224 97.767 58.7482 97.622 58.1819 97.4489L58.1802 97.4484L57.9703 97.3842C57.3147 97.188 56.7343 97.0001 56.6758 96.9709C56.6174 96.9416 56.3293 96.7454 56.0286 96.5324C55.8127 96.3795 55.4051 96.0801 54.9961 95.7797L54.9952 95.779L54.9943 95.7784C54.8344 95.6609 54.6743 95.5433 54.5254 95.4342C53.995 95.0417 52.9845 94.2859 52.2705 93.7514C51.5606 93.2211 50.6587 92.5738 50.2662 92.315C49.8778 92.0561 49.4937 91.7846 49.4185 91.7137C49.3392 91.6427 49.2598 91.5508 49.2389 91.509C49.2181 91.4715 49.1721 91.2794 49.1387 91.0831C49.1053 90.8869 49.0385 90.628 48.9926 90.5069C48.9508 90.39 48.8756 90.2563 48.8255 90.2146C48.7462 90.1478 48.7379 90.1478 48.6836 90.2355C48.6502 90.2897 48.6001 90.415 48.575 90.5194C48.5499 90.6238 48.4998 90.7491 48.4664 90.7992C48.4247 90.8702 48.3662 90.8952 48.2618 90.8952C48.1825 90.8952 47.7816 90.795 47.3766 90.6697C47.1366 90.5987 46.7101 90.4689 46.245 90.3273L46.2412 90.3261L46.2388 90.3254C45.9126 90.2261 45.5677 90.1211 45.2553 90.0267C44.4995 89.797 43.6894 89.5465 43.464 89.4671C43.2343 89.392 43.038 89.3043 43.0255 89.2709C43.0046 89.2249 43.0297 89.2166 43.1382 89.2375C43.2176 89.2542 43.2719 89.25 43.2719 89.2249C43.2719 89.2041 43.1007 89.0955 42.8919 88.9828C42.6789 88.8742 42.2864 88.6445 42.015 88.4733C41.7436 88.3021 41.2174 87.9514 40.8416 87.6966C40.4658 87.4461 40.0399 87.1872 39.8896 87.1287C39.7392 87.0661 39.4386 86.945 39.2215 86.8615C39.0043 86.778 38.7705 86.6694 38.7037 86.6193C38.6327 86.5734 38.545 86.4565 38.5032 86.3646C38.4615 86.2727 38.4281 86.1266 38.4281 86.0389C38.4281 85.9554 38.474 85.7382 38.5325 85.5587C38.5867 85.3833 38.7162 85.1035 38.8164 84.9449L38.996 84.6526C38.1191 83.5502 37.6472 82.9447 37.3841 82.5981C37.1211 82.2474 36.8831 81.9634 36.858 81.9634C36.833 81.9592 36.7912 82.0595 36.7703 82.1764Z" fill="white"/>
<defs>
<linearGradient id="paint0_linear_108_57" x1="96" y1="1" x2="96" y2="191" gradientUnits="userSpaceOnUse">
<stop stop-color="#31598F"/>
<stop offset="1" stop-color="#294872"/>
</linearGradient>
</defs>
</svg>
