<svg width="192" height="192" viewBox="0 0 192 192" fill="none" xmlns="http://www.w3.org/2000/svg">
<path d="M79.8641 190.494C58.4515 188.98 43.1039 184.514 30.2301 176.052C16.4521 166.996 6.93903 150.04 3.23235 127.931C1.51833 117.708 0.97229 109.739 1.00107 95.3749C1.05247 69.8796 3.78817 54.0812 10.6775 39.5C17.2889 25.507 25.5739 17.2167 39.4783 10.6808C54.2478 3.73821 70.2337 1 95.9953 1C121.757 1 137.743 3.73821 152.512 10.6808C166.404 17.211 174.634 25.4402 181.334 39.5C188.169 53.8448 190.937 69.844 190.999 95.3749C191.075 126.436 186.923 145.115 176.35 161.286C166.477 176.388 148.497 185.963 123.79 189.276C110.91 191.003 93.7794 191.478 79.8641 190.494Z" fill="url(#paint0_linear_118_23)"/>
<path d="M32.2786 139.727C31.651 139.558 31.1463 139.028 31 138.386C30.9183 138.026 30.8878 100.439 30.9688 99.8482C31.0363 99.3549 31.3933 98.8067 31.8175 98.5447L32.1721 98.3258L38.0494 98.3057C44.5784 98.2834 44.266 98.2621 44.783 98.7647C45.3335 99.2998 45.2913 98.776 45.3315 105.584C45.3662 111.458 45.3727 111.694 45.5048 111.84C45.6419 111.991 45.6474 111.992 50.8461 111.992C55.6965 111.992 56.0604 111.983 56.2018 111.865L56.3535 111.739L56.3719 105.681L56.3903 99.6238L56.6046 99.2365C56.7224 99.0235 56.9187 98.773 57.0407 98.6799C57.573 98.2735 57.299 98.2897 63.6417 98.2897C69.424 98.2897 69.4965 98.2913 69.8029 98.44C70.1912 98.6281 70.6392 99.1301 70.7504 99.5017C70.8144 99.7156 70.8351 104.49 70.8351 119.04C70.8351 140.54 70.884 138.65 70.3132 139.233C69.736 139.822 70.099 139.792 63.5587 139.792C58.359 139.792 57.7325 139.78 57.5017 139.675C57.1139 139.498 56.7438 139.14 56.5573 138.761L56.3903 138.422L56.3542 131.262C56.3228 125.002 56.3046 124.093 56.2102 124.033C56.1447 123.992 54.0269 123.964 50.8337 123.964C46.0207 123.963 45.5567 123.973 45.4664 124.082C45.3846 124.18 45.3613 125.442 45.3315 131.389L45.2955 138.577L45.0768 138.932C44.8309 139.331 44.2809 139.708 43.8379 139.781C43.6886 139.806 41.1025 139.824 38.0911 139.822C33.9248 139.819 32.5351 139.796 32.2786 139.727ZM123.706 139.777C123.339 139.72 122.758 139.304 122.529 138.932L122.311 138.577L122.291 119.137C122.269 97.5275 122.227 99.3772 122.758 98.8297C122.902 98.6815 123.152 98.5 123.313 98.4265C123.596 98.2981 124.091 98.2928 136.045 98.2913C144.177 98.2902 148.742 98.3158 149.229 98.365C151.062 98.55 152.821 99.044 154.259 99.7771C155.366 100.342 156.184 100.947 157.039 101.833C158.445 103.291 159.431 105.219 159.857 107.343C160.05 108.309 160.032 110.328 159.821 111.32C159.29 113.816 157.86 116.056 156.004 117.303L155.558 117.602L155.792 117.684C156.227 117.835 157.414 118.551 158.056 119.048C160.562 120.989 161.827 123.825 161.827 127.503C161.827 131.048 160.822 133.778 158.76 135.834C156.331 138.255 152.715 139.511 147.471 139.756C146.097 139.821 124.113 139.84 123.706 139.777ZM144.042 129.008C144.927 128.919 145.754 128.709 146.168 128.467C146.929 128.022 147.361 127.209 147.374 126.198C147.392 124.814 146.755 124.049 145.27 123.668C144.453 123.459 143.09 123.387 139.939 123.386C137.126 123.386 136.89 123.404 136.739 123.631C136.709 123.674 136.685 124.868 136.685 126.284V128.858L136.845 128.97C136.984 129.068 137.42 129.083 140.151 129.083C141.881 129.083 143.633 129.049 144.043 129.008H144.042ZM143.78 113.509C145.128 113.172 145.755 112.46 145.818 111.191C145.885 109.857 145.409 109.141 144.182 108.73C143.725 108.577 143.584 108.57 140.332 108.546C137.222 108.523 136.946 108.531 136.82 108.645C136.691 108.762 136.683 108.902 136.683 111.097V113.426L136.846 113.542C136.99 113.645 137.354 113.654 140.214 113.628C142.442 113.608 143.529 113.571 143.78 113.509ZM94.0333 130.333C89.7299 130.101 86.5205 129.462 83.7488 128.288C79.0827 126.31 76.4517 122.697 75.9548 117.586C75.9055 117.079 75.8784 113.749 75.8789 108.247L75.8797 99.6959L76.05 99.3354C76.2547 98.902 76.5236 98.637 76.959 98.4398C77.2765 98.2959 77.4022 98.2929 83.0827 98.2929C88.5858 98.2929 88.8974 98.2997 89.1777 98.4272C89.5424 98.593 89.9269 98.9697 90.1116 99.3423C90.2457 99.6129 90.2527 99.8866 90.2913 106.403C90.3362 113.983 90.3149 113.669 90.8576 114.768C91.6889 116.452 93.3266 117.131 96.555 117.131C98.7255 117.131 100.031 116.853 101.037 116.178C101.625 115.783 101.992 115.345 102.317 114.649C102.788 113.641 102.774 113.869 102.819 106.403C102.857 99.8866 102.864 99.6129 102.998 99.3423C103.183 98.9697 103.568 98.593 103.932 98.4272C104.212 98.2998 104.525 98.2928 110.027 98.292L115.827 98.2912L116.191 98.4609C116.617 98.6595 117.03 99.1098 117.148 99.5055C117.209 99.7107 117.232 102.061 117.232 108.359C117.232 117.524 117.222 117.814 116.865 119.47C115.278 126.837 108.477 130.447 96.3388 130.367C95.2888 130.36 94.2512 130.345 94.0333 130.333ZM53.2245 92.7022C52.631 92.4888 52.1606 91.9536 52.036 91.3501C51.9803 91.0802 51.963 85.4219 51.9766 71.8235C51.9949 53.3321 52.0002 52.6665 52.1297 52.37C52.2976 51.9855 52.8627 51.4695 53.2394 51.3565C53.4563 51.2915 57.1384 51.271 68.502 51.2715L83.4789 51.2722L83.8431 51.442C84.2691 51.6405 84.6817 52.0909 84.8001 52.4865C84.9183 52.8815 84.9183 61.6312 84.8001 62.0261C84.6817 62.4218 84.2691 62.8721 83.8431 63.0707L83.4789 63.2405L75.1117 63.2412C66.9814 63.2418 66.7397 63.2458 66.5745 63.3797L66.4044 63.5176V66.0093C66.4044 68.305 66.4145 68.5112 66.533 68.6299C66.6538 68.7508 67.0251 68.7608 72.6568 68.7947C79.3057 68.8347 78.8235 68.7973 79.3395 69.3138C79.8585 69.8333 79.8373 69.6015 79.839 74.7646L79.8407 79.4004L79.6631 79.7513C79.5654 79.9443 79.3645 80.2019 79.2168 80.3238C78.6637 80.7801 78.8825 80.7658 72.4846 80.7658H66.667L66.5177 80.9558C66.3698 81.144 66.3684 81.195 66.3684 86.2835C66.3684 91.8623 66.3823 91.6589 65.9672 92.1526C65.8625 92.2772 65.6263 92.4677 65.4422 92.576L65.1076 92.7729L59.3081 92.7886C54.4578 92.8018 53.462 92.7875 53.2245 92.7022ZM123.473 92.7039C123.082 92.5634 122.702 92.2389 122.491 91.8649L122.311 91.5469L122.275 77.5322L122.239 63.5175L122.068 63.3796C121.905 63.2474 121.724 63.2417 117.602 63.2402C113.435 63.2387 113.295 63.2342 112.981 63.0917C112.546 62.8944 112.277 62.6295 112.072 62.1961L111.902 61.8355V57.2562C111.902 52.8045 111.907 52.6679 112.049 52.3524C112.246 51.9166 112.511 51.6474 112.944 51.4426L113.304 51.2721H129.442H145.58L145.941 51.4403C146.334 51.6234 146.73 52.0252 146.886 52.3989C146.966 52.5921 146.985 53.4992 146.983 57.2719C146.981 61.6124 146.973 61.9262 146.85 62.1989C146.683 62.5658 146.144 63.046 145.774 63.157C145.571 63.2178 144.29 63.2418 141.239 63.2418C137.295 63.2418 136.976 63.2509 136.834 63.368L136.682 63.4942L136.664 77.4484C136.647 90.7114 136.64 91.4169 136.517 91.6911C136.354 92.0539 136.011 92.4152 135.638 92.6169C135.35 92.7726 135.343 92.7728 129.55 92.7885C124.746 92.8016 123.703 92.7869 123.472 92.7039H123.473Z" fill="#F2F7F7"/>
<path d="M77.7238 136.378C81.955 138.892 87.2682 140.41 93.3128 140.831C94.5291 140.916 98.4458 140.919 99.6527 140.837C105.846 140.412 111.106 138.921 115.386 136.378C116.848 135.509 117.195 135.069 117.189 134.095C117.184 133.299 116.765 132.633 116.041 132.271C115.482 131.99 115.224 132 113.773 132.355C110.031 133.272 106.489 133.788 101.49 134.144C100.694 134.201 98.7882 134.236 96.5548 134.236C94.3214 134.236 92.4159 134.201 91.6198 134.144C86.6205 133.788 83.0782 133.272 79.3363 132.355C77.865 131.995 77.627 131.988 77.0331 132.292C76.3301 132.652 75.9256 133.307 75.9206 134.095C75.9143 135.069 76.2617 135.509 77.7238 136.378Z" fill="#FFD100"/>
<path d="M90.6472 92.3875C90.6472 92.9771 91.1303 93.524 91.7703 93.6592C92.2701 93.7648 92.6959 93.6321 93.0326 93.2659C93.236 93.0448 109.514 70.0226 109.738 69.6396C109.875 69.4046 109.914 69.2073 109.894 68.8491C109.879 68.5751 109.428 68.0941 109.101 68.0033C108.939 67.9582 107.383 67.93 105.033 67.9298C101.443 67.9294 101.23 67.9223 101.266 67.8032C101.508 67.0002 105.21 51.959 105.213 51.7661C105.23 50.5537 103.757 49.9098 102.895 50.753C102.657 50.9862 86.2608 74.1368 86.0474 74.5412C85.8179 74.9763 86.0324 75.6577 86.486 75.9345C86.7127 76.0729 86.8564 76.0778 90.6652 76.0781C93.2649 76.0783 94.6096 76.1031 94.6096 76.151C94.6096 76.1909 93.7181 79.7928 92.6284 84.1552C91.5388 88.5176 90.6472 92.2222 90.6472 92.3875Z" fill="#FFD100"/>
<defs>
<linearGradient id="paint0_linear_118_23" x1="96" y1="1" x2="96" y2="191" gradientUnits="userSpaceOnUse">
<stop stop-color="#19D8E2"/>
<stop offset="1" stop-color="#1AB0B8"/>
</linearGradient>
</defs>
</svg>
