<svg width="192" height="192" viewBox="0 0 192 192" fill="none" xmlns="http://www.w3.org/2000/svg">
<path d="M79.8641 190.494C58.4515 188.98 43.1039 184.514 30.2301 176.052C16.4521 166.996 6.93903 150.04 3.23235 127.931C1.51833 117.708 0.97229 109.739 1.00107 95.3749C1.05247 69.8796 3.78817 54.0813 10.6775 39.5C17.2889 25.507 25.5739 17.2167 39.4783 10.6808C54.2478 3.73821 70.2337 1 95.9953 1C121.757 1 137.743 3.73821 152.512 10.6808C166.404 17.211 174.634 25.4402 181.334 39.5C188.169 53.8448 190.937 69.844 190.999 95.3749C191.075 126.436 186.923 145.115 176.35 161.286C166.477 176.388 148.497 185.963 123.79 189.276C110.91 191.003 93.7794 191.478 79.8641 190.494Z" fill="url(#paint0_linear_108_60)"/>
<path d="M131.202 117.772C130.902 116.535 130.528 115.223 130.415 114.849C130.228 114.287 130.34 114.174 131.015 114.287C131.69 114.362 131.99 114.774 132.29 115.973C132.477 116.835 132.777 117.622 132.927 117.734C133.115 117.847 133.752 117.135 134.352 116.085C135.102 114.836 135.727 114.212 136.227 114.212C136.976 114.212 136.976 114.249 136.152 115.636C135.664 116.423 134.352 118.521 133.227 120.32C131.652 122.756 130.977 123.543 130.303 123.581C129.478 123.581 129.478 123.543 131.765 120.02L131.202 117.772Z" fill="white"/>
<path fill-rule="evenodd" clip-rule="evenodd" d="M140.655 115.016C140.557 115.483 140.454 115.973 140.351 116.46C139.938 118.409 139.601 120.245 139.601 120.47C139.601 120.732 140.013 120.957 140.538 120.957C141.251 120.957 141.513 120.732 141.701 119.908C141.851 119.346 142.188 118.521 142.45 118.034C142.75 117.584 143.088 117.21 143.238 117.21C143.425 117.21 143.95 118.034 144.475 119.084L145.412 120.995C149.124 120.957 149.424 120.845 149.837 120.02C150.249 119.158 150.512 119.046 152.236 119.084C154.036 119.084 154.223 119.158 154.411 120.02C154.598 120.882 154.786 120.957 156.548 120.957H158.535C159.922 114.137 160.372 111.926 160.447 111.663C160.56 111.363 160.185 111.214 159.473 111.214C158.423 111.214 158.31 111.326 158.01 112.975C157.887 113.642 157.682 114.684 157.481 115.702C157.377 116.229 157.275 116.75 157.185 117.21C156.848 118.971 156.661 119.421 156.473 118.896C156.323 118.484 155.986 116.573 155.686 114.661L155.161 111.214C152.799 111.214 152.611 111.438 150.174 115.523C148.787 117.884 147.587 119.833 147.475 119.833C147.362 119.833 146.8 118.859 146.2 117.697L145.15 115.523L149.912 111.214C147.212 111.214 146.687 111.476 145.188 112.975C144.175 113.987 143.238 114.661 143.088 114.474C142.9 114.324 143.013 113.537 143.275 112.713L143.725 111.214C141.738 111.214 141.438 111.401 141.288 112.038V112.076C141.204 112.413 140.951 113.614 140.655 115.016ZM152.424 115.223C151.974 116.01 151.749 116.797 151.899 116.947C152.049 117.097 152.536 117.21 153.024 117.21C153.699 117.21 153.849 117.022 153.849 116.01C153.849 115.336 153.699 114.549 153.549 114.287C153.324 113.987 152.986 114.249 152.424 115.223Z" fill="white"/>
<path fill-rule="evenodd" clip-rule="evenodd" d="M123.891 115.074C123.404 117.36 122.954 119.646 122.879 120.095C122.766 120.77 122.916 120.957 123.479 120.957C123.891 120.957 124.229 120.732 124.229 120.47C124.229 120.133 124.304 120.133 124.679 120.508C124.941 120.77 125.803 120.957 126.553 120.957C127.603 120.957 128.203 120.695 128.915 119.908C129.665 119.158 129.89 118.484 129.89 117.21C129.89 116.085 129.665 115.298 129.215 114.849C128.728 114.362 128.128 114.212 127.116 114.287L125.691 114.399C125.953 111.139 125.878 110.839 125.353 110.839C124.866 110.839 124.566 111.701 123.891 115.036V115.074ZM125.541 116.01C125.128 116.423 124.866 117.172 124.904 117.809C124.904 118.409 125.203 119.158 125.541 119.458C126.028 119.908 126.291 119.945 127.041 119.533C127.566 119.308 128.165 118.634 128.353 118.034C128.653 117.247 128.615 116.835 128.165 116.16C127.866 115.711 127.303 115.336 126.891 115.336C126.516 115.336 125.916 115.636 125.541 116.01Z" fill="white"/>
<path d="M149.274 89.7023C149.649 89.1027 150.699 88.3157 151.636 87.9409C152.574 87.5661 154.186 87.2288 155.348 87.2288C156.623 87.2288 158.01 87.5287 158.985 87.9784C159.885 88.3906 160.86 89.1027 161.16 89.5524C161.46 90.0396 161.797 90.9015 161.947 91.5386C162.135 92.5879 162.06 92.7004 160.897 92.9627C160.222 93.1126 159.323 93.225 158.91 93.225C158.498 93.225 157.71 92.7378 157.11 92.1007C156.511 91.4262 155.723 90.9765 155.198 90.9765C154.673 90.9765 153.998 91.2388 153.699 91.5386C153.361 91.8384 153.099 92.3256 153.099 92.5505C153.099 92.8128 153.249 93.225 153.399 93.4499C153.549 93.6747 154.673 94.3118 155.911 94.8365C157.148 95.3986 158.648 96.2981 159.21 96.8602C159.922 97.5723 160.335 98.4342 160.485 99.596C160.635 100.683 160.522 101.732 160.185 102.557C159.885 103.269 159.098 104.318 158.423 104.918C157.785 105.48 156.586 106.117 155.798 106.342C155.048 106.529 153.736 106.716 152.911 106.716C152.049 106.716 150.587 106.342 149.537 105.817C148.487 105.292 147.4 104.393 147.062 103.831C146.725 103.269 146.35 102.332 146.2 101.732C146.012 100.945 146.125 100.683 146.612 100.57C146.987 100.458 148.075 100.308 149.049 100.196C150.587 100.008 150.849 100.083 150.849 100.608C150.849 100.983 151.149 101.582 151.524 101.957C151.899 102.332 152.686 102.632 153.361 102.594C154.261 102.594 154.711 102.369 155.011 101.732C155.236 101.282 155.311 100.683 155.198 100.42C155.086 100.196 153.924 99.4461 152.611 98.8464C151.336 98.2093 149.912 97.3099 149.424 96.8602C148.937 96.4105 148.412 95.3612 148.187 94.5367C147.925 93.5248 147.925 92.6629 148.187 91.9134C148.412 91.2763 148.899 90.3019 149.274 89.7023Z" fill="white"/>
<path d="M134.277 89.7023C134.652 89.1027 135.702 88.3157 136.639 87.9409C137.576 87.5661 139.189 87.2288 140.351 87.2288C141.626 87.2288 143.013 87.5287 143.988 87.9784C144.888 88.3906 145.937 89.2526 146.35 89.9271C146.762 90.6017 147.1 91.5011 147.1 91.9134C147.1 92.438 146.762 92.7378 145.9 92.9627C145.225 93.1126 144.325 93.225 143.913 93.225C143.5 93.225 142.713 92.7378 142.113 92.1007C141.551 91.4636 140.726 90.9765 140.238 90.9765C139.788 90.9765 139.114 91.2763 138.739 91.651C138.364 91.9883 138.064 92.5879 138.101 92.9252C138.101 93.3749 139.039 94.0495 140.988 94.9864C143.088 95.9983 144.175 96.7853 144.775 97.7222C145.262 98.5092 145.6 99.596 145.6 100.42C145.6 101.207 145.375 102.294 145.075 102.856C144.813 103.456 144.1 104.318 143.5 104.843C142.9 105.367 141.738 106.042 140.913 106.304C140.051 106.604 138.551 106.754 137.351 106.641C136.077 106.529 134.727 106.117 133.827 105.555C132.89 104.993 132.102 104.093 131.652 103.156C131.277 102.332 130.977 101.432 130.977 101.17C130.977 100.945 131.277 100.645 131.615 100.57C131.99 100.458 133.077 100.308 134.052 100.196C135.589 100.008 135.852 100.083 135.852 100.608C135.852 100.983 136.152 101.582 136.527 101.957C136.864 102.332 137.651 102.632 138.289 102.632C138.889 102.632 139.638 102.369 139.863 102.032C140.126 101.732 140.313 101.17 140.238 100.795C140.201 100.42 139.114 99.6334 137.651 98.8464C136.227 98.1344 134.764 97.1975 134.352 96.7853C133.939 96.373 133.452 95.3612 133.265 94.5367C133.077 93.7122 133.077 92.5505 133.227 91.9134C133.415 91.2763 133.864 90.3019 134.277 89.7023Z" fill="white"/>
<path fill-rule="evenodd" clip-rule="evenodd" d="M119.017 88.2407C117.892 88.8028 116.505 89.8896 115.905 90.6017C115.305 91.3137 114.518 92.8128 114.105 93.8996C113.655 95.0239 113.356 96.7478 113.356 98.0219C113.356 99.2587 113.655 100.758 114.068 101.657C114.443 102.482 115.455 103.793 116.28 104.58C117.142 105.33 118.567 106.154 119.429 106.379C120.329 106.604 121.867 106.716 122.916 106.604C123.929 106.529 125.466 106.117 126.291 105.705C127.116 105.292 128.353 104.28 129.028 103.493L130.228 102.032C126.778 100.495 126.141 100.383 125.728 100.72C125.428 100.945 124.604 101.357 123.929 101.657C123.291 101.957 122.316 102.219 121.792 102.219C121.267 102.219 120.367 101.77 119.767 101.207C119.167 100.608 118.567 99.7833 118.455 99.3336L118.23 98.4717C128.99 98.4717 130.303 98.3592 130.753 97.9095C131.165 97.5348 131.352 96.6728 131.352 95.2112C131.352 93.7122 131.09 92.513 130.528 91.3512C130.04 90.4143 128.99 89.1776 128.165 88.6154C126.928 87.716 126.178 87.4912 123.854 87.3413C121.304 87.1914 120.854 87.2663 119.017 88.2407ZM121.679 91.7634C121.004 91.9508 120.104 92.5879 119.692 93.15C119.28 93.7122 118.942 94.2743 118.98 94.4617C118.98 94.6116 120.629 94.724 122.654 94.724C126.178 94.724 126.291 94.6866 126.178 93.8621C126.141 93.4124 125.803 92.7378 125.428 92.4005C125.091 92.0632 124.379 91.6885 123.854 91.576C123.329 91.5011 122.354 91.576 121.679 91.7634Z" fill="white"/>
<path d="M100.345 88.4281C100.908 88.1283 101.845 87.7535 102.407 87.5662C102.97 87.4162 104.357 87.2663 105.482 87.2663C106.907 87.2289 108.144 87.4912 109.419 88.0908C110.431 88.578 111.631 89.44 112.081 90.077C112.531 90.6767 113.056 91.726 113.73 93.5998L112.043 93.9746C111.106 94.1994 109.981 94.3493 109.494 94.3493C109.044 94.3493 108.256 93.9371 107.732 93.4124C107.207 92.8878 106.344 92.4006 105.744 92.2881C105.182 92.1757 104.132 92.4006 103.345 92.7379C102.595 93.1126 101.733 93.8247 101.395 94.3493C101.058 94.874 100.72 95.9608 100.57 96.7853C100.42 97.7222 100.533 98.734 100.833 99.4836C101.133 100.158 101.695 100.87 102.107 101.095C102.52 101.32 103.532 101.47 104.357 101.47C105.444 101.47 106.157 101.207 108.219 99.4086L110.244 100.158C111.331 100.57 112.231 101.058 112.231 101.282C112.231 101.507 111.593 102.407 110.843 103.306C110.056 104.206 108.744 105.292 107.919 105.667C107.094 106.079 105.669 106.529 104.732 106.641C103.795 106.754 102.22 106.604 101.17 106.342C99.8579 105.967 98.8081 105.33 97.5708 104.093C96.521 103.081 95.6961 101.845 95.4336 100.908C95.1712 100.083 94.9837 98.6591 94.9837 97.7222C94.9837 96.7853 95.2087 95.2862 95.5461 94.3493C95.8461 93.4124 96.8209 91.8384 97.6833 90.8266C98.5831 89.8147 99.7829 88.7279 100.345 88.4281Z" fill="white"/>
<path d="M80.9987 89.1776C81.786 88.6155 82.9858 87.9784 83.7357 87.7161C84.4481 87.4537 85.9103 87.2663 86.9226 87.2663C87.9724 87.2289 89.4722 87.4537 90.297 87.7161C91.1219 87.9409 92.4342 88.8029 93.2215 89.5524C93.9714 90.3394 94.7588 91.5386 94.9087 92.1757C95.2087 93.375 95.1712 93.4499 93.8964 93.8621C93.1465 94.087 91.9842 94.3119 91.3469 94.3119C90.4845 94.3493 89.9971 94.1245 89.7346 93.5998C89.5097 93.1876 88.7223 92.6629 87.9724 92.438C86.7727 92.0633 86.3227 92.1382 85.0854 92.7004C84.2981 93.1126 83.3607 93.9371 82.9858 94.5367C82.6109 95.1363 82.2734 96.1857 82.2359 96.7853C82.1984 97.3849 82.161 98.2843 82.1984 98.734C82.2359 99.2212 82.6484 100.008 83.1733 100.533C83.8857 101.245 84.4855 101.47 85.7978 101.47C87.1101 101.47 87.7475 101.245 89.8096 99.4086L91.8343 100.046C93.259 100.533 93.8589 100.908 93.8589 101.357C93.8589 101.732 92.9591 102.894 91.8718 103.943C90.3345 105.442 89.4722 105.929 87.86 106.304C86.6977 106.604 85.0854 106.716 84.2231 106.567C83.3232 106.454 81.9735 106.004 81.1861 105.63C80.4363 105.255 79.4239 104.505 79.0115 104.018C78.5616 103.568 77.9242 102.557 77.5493 101.845C77.1743 101.132 76.7994 99.6709 76.6869 98.6591C76.5744 97.4224 76.7244 96.0732 77.1368 94.7241C77.5118 93.5998 78.2241 92.1008 78.7115 91.4262C79.199 90.7891 80.2488 89.7772 80.9987 89.1776Z" fill="white"/>
<path d="M57.6777 92.4755C72.5251 85.2051 85.4979 78.8717 86.5477 78.422C87.5975 77.9348 88.5723 77.5225 88.7598 77.5225C89.0223 77.485 89.0223 77.5975 88.7598 77.7849C88.5723 77.9722 84.3356 80.633 79.3114 83.7061C74.3248 86.7791 70.2005 89.4399 70.2005 89.6648C70.2005 89.8896 70.538 91.1264 70.9504 92.4755C71.3628 93.8246 72.3752 97.2724 73.2 100.158C74.0624 103.044 74.7372 105.517 74.7372 105.667C74.7372 105.854 72.0752 105.967 68.8508 105.967C64.464 106.004 62.8143 105.892 62.4769 105.517C62.2519 105.255 61.5395 103.006 60.9021 100.533C60.2648 98.0594 59.6649 95.9982 59.5524 95.9233C59.4399 95.8858 55.6156 98.1344 42.6803 105.967H36.5314C33.157 105.967 30.4574 105.892 30.5324 105.817C30.6074 105.742 42.8303 99.7084 57.6777 92.4755Z" fill="white"/>
<path fill-rule="evenodd" clip-rule="evenodd" d="M50.179 68.191C49.7666 68.4158 49.0167 68.9405 48.5293 69.3902C48.0419 69.8025 44.0676 77.3726 39.6433 86.217C34.8816 95.6985 31.8822 102.069 32.2946 101.882C32.632 101.695 41.0306 97.8346 50.9289 93.3C54.9891 91.4399 59.472 89.3844 63.7099 87.4412C69.8035 84.647 75.3906 82.0852 78.4866 80.6705C83.7357 78.2721 88.3474 76.1359 88.7223 75.9485C89.0597 75.7612 89.3222 75.5363 89.2472 75.4239C89.2097 75.3115 84.673 76.9979 79.124 79.1715C73.6124 81.3451 68.8882 83.1065 68.6258 83.1065C68.3633 83.1065 67.3135 80.1459 65.9263 75.5363L63.6767 67.9287C53.141 67.7788 50.6664 67.8912 50.179 68.191ZM52.4286 84.8678C51.0788 87.716 50.029 90.152 50.0665 90.3019C50.1415 90.4143 51.7912 89.8896 53.7409 89.1026C56.2904 88.0908 57.3402 87.4912 57.4152 87.004C57.4527 86.5917 57.1153 84.8678 56.6654 83.1439C56.1779 81.3826 55.6155 79.921 55.3531 79.8086C55.0906 79.7336 53.9283 81.7573 52.4286 84.8678Z" fill="white"/>
<defs>
<linearGradient id="paint0_linear_108_60" x1="96" y1="1" x2="96" y2="191" gradientUnits="userSpaceOnUse">
<stop stop-color="#DD40D3"/>
<stop offset="1" stop-color="#A140DD"/>
</linearGradient>
</defs>
</svg>
