<svg width="192" height="192" viewBox="0 0 192 192" fill="none" xmlns="http://www.w3.org/2000/svg">
<path d="M79.8641 190.494C58.4515 188.98 43.1039 184.514 30.2301 176.052C16.4521 166.996 6.93903 150.04 3.23235 127.931C1.51833 117.708 0.97229 109.739 1.00107 95.3749C1.05247 69.8796 3.78817 54.0812 10.6775 39.5C17.2889 25.507 25.5739 17.2167 39.4783 10.6808C54.2478 3.73821 70.2337 1 95.9953 1C121.757 1 137.743 3.73821 152.512 10.6808C166.404 17.211 174.634 25.4402 181.334 39.5C188.169 53.8448 190.937 69.844 190.999 95.3749C191.075 126.436 186.923 145.115 176.35 161.286C166.477 176.388 148.497 185.963 123.79 189.276C110.91 191.003 93.7794 191.478 79.8641 190.494Z" fill="url(#paint0_linear_108_59)"/>
<path d="M110.662 161.013C104.998 159.488 100.676 154.871 99.6493 149.25C99.434 148.071 99.3383 138.444 99.3933 123.485L99.481 99.6013L123.198 99.5012C139.822 99.4311 147.528 99.5166 148.963 99.7876C153.622 100.667 157.611 103.784 159.799 108.255C160.854 110.412 160.907 110.711 160.907 114.446C160.907 118.153 160.847 118.498 159.815 120.677C158.525 123.4 155.938 126.263 153.634 127.517C150.464 129.242 148.778 129.461 138.68 129.461H129.394L129.282 139.784L129.17 150.107L127.908 152.751C124.729 159.407 117.521 162.861 110.662 161.013ZM76.0722 160.569C73.399 159.688 70.4778 157.65 68.9501 155.601C65.8518 151.446 65.4607 149.438 65.554 138.169L65.6247 129.632L55.4229 129.445C44.4981 129.246 44.0593 129.18 40.7842 127.261C38.7023 126.041 36.2669 123.241 35.0465 120.665C34.0199 118.498 33.9596 118.152 33.9596 114.428C33.9596 110.559 33.9833 110.438 35.2424 107.89C37.3238 103.679 41.0657 100.778 45.6644 99.811C46.8955 99.5521 55.1482 99.4306 71.5147 99.4306H95.5565V124.119C95.5565 147.051 95.5124 148.941 94.9371 150.685C93.5473 154.897 91.0351 157.792 87.0633 159.759C84.7657 160.896 84.2513 161.016 81.262 161.103C78.7871 161.176 77.5129 161.045 76.0722 160.569ZM44.7721 95.1438C37.7404 93.2515 32.7994 85.4964 34.1306 78.4415C35.0715 73.455 37.9341 69.5738 42.2426 67.4432L44.8415 66.1581L55.269 65.9874L65.6965 65.8169L65.8693 55.4085C66.0232 46.1408 66.114 44.8319 66.6979 43.4645C68.657 38.8771 71.5869 36.1164 76.1232 34.5832C77.9237 33.9747 78.8915 33.8642 81.4546 33.9745C84.2592 34.0953 84.8503 34.2433 87.1153 35.393C91.3461 37.5404 93.8932 40.6346 95.0333 45.0121C95.4796 46.7256 95.5565 50.5924 95.5565 71.3486V95.6768L71.0713 95.6544C50.9616 95.6359 46.2619 95.5447 44.7721 95.1438ZM99.3103 71.6434C99.3103 55.2707 99.4316 47.0159 99.6906 45.7848C100.652 41.2131 103.834 37.1903 108.08 35.1793C110.276 34.1392 110.613 34.0799 114.326 34.0799C118.029 34.0799 118.379 34.1412 120.544 35.1669C123.121 36.3873 125.92 38.8226 127.14 40.9045C129.061 44.1811 129.125 44.6149 129.325 55.5791L129.512 65.8169L139.92 65.9874C149.732 66.1483 150.421 66.2011 151.956 66.9099C156.139 68.8415 159.205 72.2307 160.437 76.2842C161.011 78.1737 161.129 79.2821 161.015 81.6789C160.89 84.2968 160.707 85.0266 159.632 87.2002C158.044 90.4132 155.803 92.6484 152.564 94.2496L150.023 95.5062L124.667 95.6L99.3103 95.6937V71.6434ZM44.3353 62.951C33.6317 59.5266 30.417 45.9503 38.4521 38.1055C41.357 35.2694 44.7162 33.906 48.7809 33.9134C55.7873 33.9263 61.5081 38.3973 63.3452 45.2965C65.3116 52.6818 60.3427 61.1098 52.8455 63.1053C50.3811 63.7613 46.6567 63.6937 44.3353 62.951Z" fill="white"/>
<defs>
<linearGradient id="paint0_linear_108_59" x1="96" y1="1" x2="96" y2="191" gradientUnits="userSpaceOnUse">
<stop stop-color="#0AC7BF"/>
<stop offset="1" stop-color="#0BA7A1"/>
</linearGradient>
</defs>
</svg>
