<svg width="192" height="192" viewBox="0 0 192 192" fill="none" xmlns="http://www.w3.org/2000/svg">
<path d="M79.8641 190.494C58.4515 188.98 43.1039 184.514 30.2301 176.052C16.4521 166.996 6.93903 150.04 3.23235 127.931C1.51833 117.708 0.97229 109.739 1.00107 95.3749C1.05247 69.8796 3.78817 54.0812 10.6775 39.5C17.2889 25.507 25.5739 17.2167 39.4783 10.6808C54.2478 3.73821 70.2337 1 95.9953 1C121.757 1 137.743 3.73821 152.512 10.6808C166.404 17.211 174.634 25.4402 181.334 39.5C188.169 53.8448 190.937 69.844 190.999 95.3749C191.075 126.436 186.923 145.115 176.35 161.286C166.477 176.388 148.497 185.963 123.79 189.276C110.91 191.003 93.7794 191.478 79.8641 190.494Z" fill="url(#paint0_linear_118_461)"/>
<path d="M51.9807 120.195L47.5599 119.996L47.3024 117.874C47.1607 116.707 47.1427 114.565 47.2623 113.115L47.4797 110.478L45.7515 112.002C44.801 112.84 43.4265 113.831 42.697 114.204C41.3402 114.898 41.0051 115.775 41.7952 116.565C42.0287 116.798 42.4316 116.989 42.6907 116.989C42.9498 116.989 43.7405 117.231 44.4478 117.527L45.7337 118.064L44.5445 118.941C42.8491 120.192 40.1676 120.156 37.5593 118.846C36.4939 118.311 35.3834 117.512 35.0916 117.071C34.1678 115.674 34.7079 113.488 36.9449 109.572C38.7671 106.381 39.0074 105.72 39.2957 103.104C39.8608 97.9759 40.6787 96.6386 43.2093 96.705C44.3148 96.7339 45.2201 97.1493 47.242 98.5549C48.676 99.5518 49.9309 100.367 50.0308 100.367C50.1306 100.367 50.2123 99.98 50.2123 99.5063C50.2123 96.9295 51.8022 96.0194 53.3765 97.6951C55.0917 99.5208 55.9341 99.6731 61.4287 99.1513C64.175 98.8905 66.5735 98.5835 66.7587 98.469C66.9518 98.3497 66.5697 96.8629 65.8623 94.9819C63.2044 87.9136 62.0325 80.7687 62.8816 76.8094C63.8655 72.2216 66.5721 67.4011 70.2026 63.7706C76.2317 57.7414 83.5615 55.8384 92.7811 57.9086C101.596 59.8879 106.683 62.3386 115.109 68.6663C118.728 71.3846 128.306 80.7746 133.732 86.9248C137.792 91.5275 138.012 91.7145 139.964 92.2345L141.987 92.7735L141.937 94.1833C141.91 94.9587 141.83 96.1411 141.76 96.8109C141.575 98.5847 142.591 99.0284 146.231 98.7632C148.933 98.5662 149.172 98.6115 151.557 99.7701C156.079 101.966 157.616 104.777 157.298 110.265C156.924 116.742 153.161 120.172 146.431 120.172C143.962 120.172 143.509 120.068 142.582 119.288C141.404 118.297 139.967 118.169 138.627 118.935C137.24 119.728 136.392 119.572 135.726 118.402C135.315 117.68 134.849 117.343 134.261 117.343C133.786 117.343 133.306 117.104 133.194 116.813C133.082 116.521 132.747 116.282 132.449 116.282C132.151 116.282 131.908 116.144 131.908 115.975C131.908 115.807 131.271 115.248 130.493 114.733C129.657 114.179 129.078 113.518 129.078 113.116C129.078 112.741 129.717 111.697 130.497 110.795C131.278 109.894 131.826 109.01 131.717 108.832C131.607 108.654 130.735 108.905 129.779 109.389C128.823 109.874 127.901 110.27 127.729 110.27C127.558 110.27 127.182 109.671 126.895 108.94C126.4 107.68 126.118 107.501 121.557 105.55C118.908 104.417 116.454 103.55 116.102 103.623C115.133 103.825 115.454 105.21 116.973 107.374C117.698 108.408 118.446 109.475 118.634 109.746C118.879 110.099 118.729 110.501 118.103 111.167L117.231 112.096L118.386 113.128C119.374 114.011 119.83 114.16 121.546 114.16C123.87 114.16 127.94 115.083 128.753 115.794C129.06 116.062 129.577 116.282 129.902 116.282C131.488 116.282 129.532 118.619 127.684 118.931C126.766 119.086 126.351 119.319 126.465 119.616C126.839 120.591 117.211 120.84 113.656 119.947C111.647 119.442 111.161 119.147 109.87 117.648C108.605 116.18 108.202 115.929 107.106 115.929C105.974 115.928 105.598 115.67 103.899 113.718C98.9441 108.027 97.2535 104.942 97.2603 101.605C97.2629 100.255 97.5188 98.9229 97.9641 97.9417C98.3489 97.0937 98.6637 96.2767 98.6637 96.126C98.6637 95.7806 94.812 94.1988 94.5671 94.4437C94.4676 94.5432 94.7379 97.0706 95.1678 100.06C95.6674 103.534 95.9605 107.365 95.9803 110.678L96.0112 115.86L94.9321 117.221C94.3387 117.969 93.0655 118.979 92.1029 119.465L90.3527 120.349L73.377 120.372C64.0404 120.385 54.4121 120.305 51.9807 120.195Z" fill="white"/>
<defs>
<linearGradient id="paint0_linear_118_461" x1="96" y1="1" x2="96" y2="191" gradientUnits="userSpaceOnUse">
<stop stop-color="#EB1C24"/>
<stop offset="1" stop-color="#C91219"/>
</linearGradient>
</defs>
</svg>
