<svg width="192" height="192" viewBox="0 0 192 192" fill="none" xmlns="http://www.w3.org/2000/svg">
<path d="M79.8641 190.494C58.4515 188.98 43.1039 184.514 30.2301 176.052C16.4521 166.996 6.93903 150.04 3.23235 127.931C1.51833 117.708 0.97229 109.739 1.00107 95.3749C1.05247 69.8796 3.78817 54.0812 10.6775 39.5C17.2889 25.507 25.5739 17.2167 39.4783 10.6808C54.2478 3.73821 70.2337 1 95.9953 1C121.757 1 137.743 3.73821 152.512 10.6808C166.404 17.211 174.634 25.4402 181.334 39.5C188.169 53.8448 190.937 69.844 190.999 95.3749C191.075 126.436 186.923 145.115 176.35 161.286C166.477 176.388 148.497 185.963 123.79 189.276C110.91 191.003 93.7794 191.478 79.8641 190.494Z" fill="url(#paint0_linear_118_462)"/>
<path d="M51.3612 135.027C49.0448 134.022 48.1153 131.418 49.1688 128.885C50.533 125.604 55.2333 125.387 57.1485 128.516C58.5657 130.831 58.004 133.066 55.5995 134.68C54.0716 135.706 53.1073 135.785 51.3612 135.027ZM65.6465 134.828C64.2393 133.951 63.1356 132.153 63.1379 130.743C63.1425 128.234 66.1913 125.814 68.7149 126.317C70.2602 126.625 72.1326 128.437 72.4127 129.897C73.1417 133.695 68.8484 136.824 65.6465 134.828ZM88.243 132.494C88.243 129.861 88.3855 129.161 89.1069 128.248C90.5168 126.462 92.0753 126.059 97.5648 126.059C102.311 126.059 102.582 126.015 103.743 125.041C104.411 124.481 105.141 123.365 105.365 122.561C105.59 121.756 105.774 117.253 105.775 112.553C105.777 105.455 105.883 103.859 106.4 103.124C107.433 101.655 109.099 101.053 112.134 101.053H114.944V104.824V108.595H120.653H126.362L125.445 105.916C123.537 100.339 124.513 94.0712 128.01 89.4465C134.608 80.7204 147.338 79.7608 155.019 87.4106C164.945 97.2968 160.29 113.964 146.612 117.512C144.711 118.005 141.497 118.121 129.655 118.121H115.044L114.868 121.457C114.643 125.726 113.082 129.124 110.13 131.767C106.689 134.848 104.835 135.336 95.9144 135.502L88.243 135.646V132.494ZM147.167 110.085C151.136 108.237 153.36 104.632 153.347 100.061C153.338 96.7931 152.681 95.0521 150.577 92.7332C148.421 90.3563 146.402 89.4444 142.84 89.2385C140.055 89.0776 139.676 89.1568 137.296 90.3958C133.131 92.5643 130.977 96.4652 131.394 101.088C132.087 108.779 140.124 113.363 147.167 110.085ZM49.1602 117.593C45.0391 116.453 41.5806 113.478 39.6778 109.436L38.6277 107.206L38.5146 86.2682L38.4016 65.3308H41.2244C42.9682 65.3308 44.4941 65.561 45.2162 65.9329C47.5957 67.1585 47.5943 67.1459 47.5943 86.5589C47.5943 105.759 47.6229 106.035 49.7916 107.734C50.8497 108.563 51.2441 108.595 60.5461 108.595C69.8481 108.595 70.2425 108.563 71.3006 107.734C72.7067 106.633 73.4979 104.732 73.4979 102.455V100.656H68.5164H63.535V97.4414C63.535 94.3368 63.5799 94.1816 64.8433 92.9233L66.1516 91.6202L73.511 91.3703C77.5587 91.2329 81.7309 91.1511 82.7827 91.1886C85.0337 91.2688 86.4838 90.3965 87.545 88.3238C88.148 87.146 88.2419 85.7444 88.2424 77.9132C88.2431 67.95 88.4183 67.0674 90.6211 65.9329C91.3417 65.5618 92.8677 65.3308 94.5995 65.3308H97.4089V76.9691C97.4089 89.4567 97.2462 90.7004 95.1938 93.9088C92.9874 97.358 88.724 100.052 84.7259 100.524L82.7414 100.758L82.5947 103.982C82.3359 109.671 79.4206 114.146 74.3538 116.632L71.7246 117.922L61.3531 118.009C53.9537 118.071 50.4597 117.952 49.1602 117.593ZM105.778 80.502C105.778 70.0744 105.869 68.1564 106.4 67.4014C107.433 65.9326 109.099 65.3308 112.134 65.3308H114.944V77.258C114.944 90.3582 114.851 90.9391 112.566 92.116C111.845 92.4871 110.319 92.7181 108.587 92.7181H105.778V80.502ZM74.3813 73.8404C71.5834 71.8886 71.7516 67.4413 74.6804 65.9329C77.9683 64.2395 81.4682 66.4976 81.4682 70.3123C81.4682 71.4305 81.1592 72.0687 80.1133 73.1104C78.985 74.2341 78.4664 74.4599 77.0138 74.4599C76.0543 74.4599 74.8697 74.1811 74.3813 73.8404ZM132.565 73.8404C129.767 71.8886 129.935 67.4413 132.864 65.9329C136.152 64.2395 139.652 66.4976 139.652 70.3123C139.652 71.4305 139.343 72.0687 138.297 73.1104C137.168 74.2341 136.65 74.4599 135.197 74.4599C134.238 74.4599 133.053 74.1811 132.565 73.8404ZM146.882 73.4546C143.574 70.6819 145.03 65.9212 149.335 65.438C150.871 65.2655 151.253 65.3936 152.526 66.5075C154.275 68.0363 154.712 69.7649 153.863 71.7894C152.743 74.4581 149.113 75.3241 146.882 73.4546Z" fill="#D2A940"/>
<defs>
<linearGradient id="paint0_linear_118_462" x1="96" y1="1" x2="96" y2="191" gradientUnits="userSpaceOnUse">
<stop stop-color="#203756"/>
<stop offset="1" stop-color="#1A2D46"/>
</linearGradient>
</defs>
</svg>
