<svg width="192" height="192" viewBox="0 0 192 192" fill="none" xmlns="http://www.w3.org/2000/svg">
<path d="M79.8641 190.494C58.4515 188.98 43.1039 184.514 30.2301 176.052C16.4521 166.996 6.93903 150.04 3.23235 127.931C1.51833 117.708 0.97229 109.739 1.00107 95.3749C1.05247 69.8796 3.78817 54.0812 10.6775 39.5C17.2889 25.507 25.5739 17.2167 39.4783 10.6808C54.2478 3.73821 70.2337 1 95.9953 1C121.757 1 137.743 3.73821 152.512 10.6808C166.404 17.211 174.634 25.4402 181.334 39.5C188.169 53.8448 190.937 69.844 190.999 95.3749C191.075 126.436 186.923 145.115 176.35 161.286C166.477 176.388 148.497 185.963 123.79 189.276C110.91 191.003 93.7794 191.478 79.8641 190.494Z" fill="url(#paint0_linear_108_73)"/>
<path d="M96.2334 33.2163C79.1201 33.2163 76.9724 33.2911 70.251 33.597C63.5428 33.9042 58.9639 34.9663 54.9573 36.5246C50.8129 38.1341 47.2973 40.2871 43.7948 43.791C40.2897 47.2936 38.1368 50.8092 36.5221 54.9525C34.9599 58.9605 33.8965 63.5409 33.5946 70.2467C33.294 76.9683 33.2152 79.1173 33.2152 96.2311C33.2152 113.345 33.2914 115.486 33.5959 122.208C33.9044 128.916 34.9664 133.495 36.5234 137.502C38.1342 141.646 40.2871 145.162 43.7909 148.665C47.292 152.17 50.8076 154.328 54.9494 155.938C58.9586 157.496 63.5389 158.558 70.2458 158.865C76.9672 159.171 79.1135 159.246 96.2255 159.246C113.34 159.246 115.481 159.171 122.203 158.865C128.911 158.558 133.495 157.496 137.504 155.938C141.647 154.328 145.158 152.17 148.659 148.665C152.164 145.162 154.317 141.646 155.932 137.503C157.481 133.495 158.544 128.915 158.859 122.209C159.161 115.487 159.24 113.345 159.24 96.2311C159.24 79.1173 159.161 76.9696 158.859 70.248C158.544 63.5396 157.481 58.9605 155.932 54.9538C154.317 50.8092 152.164 47.2936 148.659 43.791C145.154 40.2858 141.649 38.1328 137.5 36.5246C133.483 34.9663 128.902 33.9042 122.193 33.597C115.472 33.2911 113.332 33.2163 96.2137 33.2163H96.2334ZM90.5806 44.5721C92.2583 44.5695 94.1303 44.5721 96.2334 44.5721C113.058 44.5721 115.052 44.6325 121.696 44.9344C127.84 45.2154 131.174 46.242 133.395 47.1045C136.336 48.2466 138.432 49.612 140.636 51.8175C142.842 54.023 144.207 56.1235 145.352 59.0642C146.214 61.2828 147.242 64.6174 147.522 70.7613C147.824 77.4041 147.89 79.3996 147.89 96.2167C147.89 113.034 147.824 115.029 147.522 121.672C147.241 127.816 146.214 131.15 145.352 133.369C144.21 136.31 142.842 138.404 140.636 140.608C138.431 142.813 136.337 144.179 133.395 145.321C131.177 146.187 127.84 147.211 121.696 147.492C115.053 147.794 113.058 147.86 96.2334 147.86C79.4076 147.86 77.4135 147.794 70.7709 147.492C64.6271 147.209 61.2927 146.182 59.0702 145.32C56.1296 144.177 54.0292 142.812 51.8237 140.607C49.6183 138.401 48.253 136.306 47.1082 133.364C46.2458 131.145 45.2179 127.811 44.9382 121.667C44.6363 115.024 44.5759 113.028 44.5759 96.2009C44.5759 79.3733 44.6363 77.3884 44.9382 70.7456C45.2192 64.6016 46.2458 61.2671 47.1082 59.0458C48.2504 56.1051 49.6183 54.0046 51.8237 51.7991C54.0292 49.5936 56.1296 48.2283 59.0702 47.0835C61.2914 46.217 64.6271 45.1931 70.7709 44.9108C76.5838 44.6482 78.8366 44.5695 90.5806 44.5563V44.5721ZM129.869 55.0352C125.695 55.0352 122.308 58.4183 122.308 62.5943C122.308 66.7691 125.695 70.1561 129.869 70.1561C134.044 70.1561 137.431 66.7691 137.431 62.5943C137.431 58.4196 134.044 55.0326 129.869 55.0326V55.0352ZM96.2334 63.8704C78.3626 63.8704 63.8736 78.3598 63.8736 96.2311C63.8736 114.102 78.3626 128.585 96.2334 128.585C114.104 128.585 128.588 114.102 128.588 96.2311C128.588 78.3598 114.104 63.8704 96.2334 63.8704ZM96.2334 75.2262C107.833 75.2262 117.238 84.6298 117.238 96.2311C117.238 107.831 107.833 117.236 96.2334 117.236C84.6324 117.236 75.2291 107.831 75.2291 96.2311C75.2291 84.6298 84.6324 75.2262 96.2334 75.2262Z" fill="white"/>
<defs>
<linearGradient id="paint0_linear_108_73" x1="96" y1="1" x2="96" y2="191" gradientUnits="userSpaceOnUse">
<stop stop-color="#FF9548"/>
<stop offset="1" stop-color="#FF00BA"/>
</linearGradient>
</defs>
</svg>
