<svg width="192" height="192" viewBox="0 0 192 192" fill="none" xmlns="http://www.w3.org/2000/svg">
<path d="M79.8641 190.494C58.4515 188.98 43.1039 184.514 30.2301 176.052C16.4521 166.996 6.93903 150.04 3.23235 127.931C1.51833 117.708 0.97229 109.739 1.00107 95.3749C1.05247 69.8796 3.78817 54.0812 10.6775 39.5C17.2889 25.507 25.5739 17.2167 39.4783 10.6808C54.2478 3.73821 70.2337 1 95.9953 1C121.757 1 137.743 3.73821 152.512 10.6808C166.404 17.211 174.634 25.4402 181.334 39.5C188.169 53.8448 190.937 69.844 190.999 95.3749C191.075 126.436 186.923 145.115 176.35 161.286C166.477 176.388 148.497 185.963 123.79 189.276C110.91 191.003 93.7794 191.478 79.8641 190.494Z" fill="url(#paint0_linear_118_625)"/>
<path d="M45.6581 125.71C41.6722 128.75 36.4609 123.962 39.1336 119.72L66.9472 75.4679C67.5807 74.4594 68.3344 73.539 69.1898 72.7253C69.7494 72.1944 70.3551 71.7076 70.9978 71.2717C72.6209 70.1682 74.4566 69.4147 76.3848 69.0577C78.3177 68.7007 80.2968 68.7471 82.2111 69.1968C84.1208 69.6466 85.915 70.4881 87.4871 71.6705L109.618 88.2882C110.26 88.775 110.996 89.1158 111.773 89.2943C112.184 89.3894 112.609 89.4381 113.04 89.4381C113.488 89.4381 113.932 89.3847 114.362 89.2804C115.12 89.0996 115.837 88.7634 116.466 88.2882L146.342 65.5362C150.328 62.5061 155.539 67.2935 152.866 71.5476L125.053 115.797C124.008 117.464 122.63 118.895 121.002 119.998C119.379 121.102 117.539 121.857 115.611 122.214C113.678 122.571 111.694 122.523 109.784 122.071C108.79 121.837 107.828 121.498 106.917 121.06C106.071 120.654 105.262 120.163 104.504 119.595L82.3822 102.977C81.3973 102.231 80.195 101.827 78.9604 101.827C77.7212 101.827 76.5236 102.231 75.534 102.977L45.6581 125.71Z" fill="white"/>
<defs>
<linearGradient id="paint0_linear_118_625" x1="96" y1="1" x2="96" y2="191" gradientUnits="userSpaceOnUse">
<stop stop-color="#00AAFF"/>
<stop offset="1" stop-color="#0074FF"/>
</linearGradient>
</defs>
</svg>
