<svg width="192" height="192" viewBox="0 0 192 192" fill="none" xmlns="http://www.w3.org/2000/svg">
<path d="M79.8641 190.494C58.4515 188.98 43.1039 184.514 30.2301 176.052C16.4521 166.996 6.93903 150.04 3.23235 127.931C1.51833 117.708 0.97229 109.739 1.00107 95.3749C1.05247 69.8796 3.78817 54.0812 10.6775 39.5C17.2889 25.507 25.5739 17.2167 39.4783 10.6808C54.2478 3.73821 70.2337 1 95.9953 1C121.757 1 137.743 3.73821 152.512 10.6808C166.404 17.211 174.634 25.4402 181.334 39.5C188.169 53.8448 190.937 69.844 190.999 95.3749C191.075 126.436 186.923 145.115 176.35 161.286C166.477 176.388 148.497 185.963 123.79 189.276C110.91 191.003 93.7794 191.478 79.8641 190.494Z" fill="url(#paint0_linear_108_71)"/>
<path fill-rule="evenodd" clip-rule="evenodd" d="M92.0228 33.434C91.1136 33.5379 89.6615 33.7039 88.3321 33.8852C86.5862 34.0969 83.7821 34.5731 82.1156 34.9435C80.4491 35.3139 77.8831 36.0283 76.4282 36.5045C74.9733 37.0072 72.6454 37.9067 71.2698 38.5682C69.8943 39.2031 67.6722 40.3937 66.376 41.2139C65.0534 42.0076 63.0429 43.4627 61.879 44.3887C60.7151 45.3147 58.8898 47.008 57.8317 48.1192C56.8 49.2304 55.1864 51.1089 54.3134 52.3259C53.414 53.5165 52.0649 55.5801 51.2713 56.8765C50.5042 58.1729 49.208 60.7393 48.4144 62.5648C47.6473 64.3904 46.4569 67.5388 45.7956 69.576C45.1607 71.6132 44.2348 74.8939 43.8116 76.8517C43.3619 78.8095 42.727 82.0902 42.436 84.1274C42.0657 86.6144 41.8276 89.7893 41.7218 93.7843C41.616 97.5941 41.6953 101.034 41.8805 103.309C42.0657 105.267 42.5154 108.6 42.8593 110.717C43.2032 112.833 43.9438 116.22 44.4729 118.257C44.9755 120.294 45.9543 123.522 46.5891 125.401C47.2505 127.279 48.388 130.136 49.1551 131.75C49.9222 133.338 51.1655 135.666 51.9327 136.909C52.7263 138.153 53.8902 139.873 54.578 140.746C55.2393 141.619 56.5619 143.153 57.5143 144.159C58.4666 145.164 60.1331 146.725 61.2177 147.625C62.3023 148.524 64.2069 149.926 65.4502 150.72C66.6935 151.54 68.9155 152.81 70.3969 153.551C71.9047 154.292 74.4707 155.35 76.0843 155.932C77.7244 156.488 80.3697 157.255 81.9833 157.625C83.5705 157.996 86.2687 158.525 87.9353 158.79C90.1573 159.107 92.6175 159.239 97.0616 159.239C100.5 159.239 104.283 159.107 105.791 158.895C107.246 158.71 109.68 158.313 111.214 158.022C112.748 157.731 115.235 157.096 116.769 156.594C118.303 156.091 120.922 155.006 122.589 154.212C124.255 153.392 126.583 152.122 127.747 151.355C128.911 150.588 130.974 149.027 132.35 147.863C133.725 146.725 135.63 144.9 136.582 143.841C137.535 142.757 138.91 141.037 139.625 140.005C140.312 138.947 141.37 137.148 141.952 135.983C142.534 134.819 143.407 132.676 143.883 131.221C144.386 129.766 144.968 127.438 145.18 126.062C145.418 124.686 145.603 122.252 145.603 120.638C145.603 119.024 145.418 116.643 145.206 115.347C144.994 114.05 144.571 112.146 144.254 111.114C143.936 110.082 143.275 108.362 142.772 107.277C142.27 106.193 141.238 104.341 140.471 103.177C139.677 102.012 138.17 100.16 137.111 99.0493C136.027 97.9645 134.202 96.3506 133.038 95.4776C131.874 94.6309 129.81 93.3345 128.435 92.5937C127.086 91.8794 125.79 91.0857 125.604 90.874C125.393 90.6623 124.996 88.9955 124.705 87.17C124.44 85.3445 123.964 82.9633 123.673 81.8786C123.382 80.7938 122.747 78.9418 122.271 77.7777C121.769 76.6136 120.949 74.9997 120.446 74.206C119.917 73.4123 118.859 71.9836 118.065 71.0576C117.272 70.1316 115.685 68.65 114.521 67.7769C113.357 66.9038 111.611 65.7926 110.606 65.3164C109.627 64.8137 107.802 64.1258 106.505 63.7554C105.236 63.385 102.828 62.9352 101.162 62.7765C98.8868 62.5648 97.2996 62.5648 94.8131 62.8029C92.9878 62.9617 90.3689 63.4114 88.9934 63.7818C87.6178 64.1523 85.528 64.9195 84.3641 65.5016C83.2002 66.0836 81.4278 67.1948 80.4226 67.9356C79.4174 68.7029 77.8302 70.1316 76.8779 71.1634C75.952 72.1952 75.0526 73.2535 74.8939 73.5445C74.7616 73.8356 74.7087 74.2854 74.8145 74.5499C74.8939 74.788 76.1901 75.8199 77.6715 76.8252C79.1793 77.8571 80.9252 79.0476 81.5865 79.4974C82.4066 80.053 82.9356 80.2382 83.306 80.1324C83.597 80.0266 84.708 79.127 85.7397 78.1481C87.0623 76.9046 88.2792 76.0315 89.5754 75.423C90.6335 74.9203 92.1678 74.3647 92.9613 74.1795C93.7814 73.9679 95.686 73.8356 97.3261 73.862C98.9133 73.8885 101.135 74.0737 102.22 74.3118C103.304 74.5499 105.024 75.132 106.056 75.6347C107.325 76.2432 108.383 77.0369 109.362 78.0952C110.182 78.9418 111.214 80.397 111.69 81.3494C112.166 82.3019 112.775 83.8893 113.039 84.9211C113.304 85.953 113.462 86.9319 113.357 87.1435C113.224 87.4346 112.854 87.461 111.743 87.3287C110.949 87.2494 108.701 87.0377 106.77 86.9054C104.442 86.729 101.841 86.729 98.9662 86.9054C96.6119 87.0642 93.5962 87.4081 92.3 87.6727C90.9774 87.9373 88.8347 88.5722 87.5385 89.0485C86.2158 89.5511 84.3906 90.3978 83.4382 90.9269C82.4859 91.4561 81.031 92.435 80.1845 93.1229C79.3645 93.7843 78.0947 95.0542 77.354 95.9802C76.6398 96.8798 75.5817 98.573 75.0262 99.7372C74.4442 100.901 73.7829 102.621 73.4919 103.573C73.148 104.817 73.0157 106.193 73.0157 108.6C72.9893 110.955 73.1216 112.41 73.4654 113.627C73.73 114.58 74.3119 116.167 74.8145 117.199C75.2907 118.231 76.243 119.739 76.9043 120.585C77.5921 121.406 78.6502 122.543 79.2322 123.099C79.8406 123.628 81.0046 124.554 81.8246 125.136C82.6711 125.718 84.2847 126.644 85.4487 127.173C86.5862 127.729 88.7289 128.496 90.1838 128.867C92.4058 129.449 93.411 129.581 96.5325 129.607C98.6488 129.607 100.924 129.475 101.823 129.29C102.696 129.105 104.363 128.628 105.527 128.258C106.69 127.888 108.357 127.226 109.23 126.803C110.103 126.353 111.584 125.48 112.537 124.871C113.489 124.237 115.023 122.967 115.949 122.041C116.901 121.115 118.118 119.792 118.7 119.051C119.282 118.337 120.155 116.961 120.684 116.008C121.213 115.056 122.007 113.204 122.483 111.907C122.933 110.611 123.594 108.283 123.911 106.748C124.255 105.214 124.626 103.864 124.731 103.706C124.89 103.547 125.525 103.838 126.451 104.499C127.271 105.082 128.62 106.272 129.44 107.145C130.26 108.018 131.398 109.5 131.953 110.452C132.509 111.405 133.329 113.257 133.778 114.553C134.519 116.749 134.598 117.199 134.598 120.374C134.572 123.311 134.466 124.157 133.858 126.194C133.461 127.491 132.667 129.581 132.085 130.824C131.503 132.068 130.498 133.788 129.863 134.661C129.255 135.534 127.774 137.174 126.583 138.312C125.419 139.423 123.568 140.905 122.509 141.592C121.478 142.28 119.414 143.391 117.959 144.079C116.505 144.741 114.362 145.614 113.198 146.011C112.034 146.381 109.997 146.937 108.701 147.201C107.378 147.492 105.077 147.863 103.543 148.048C101.797 148.233 99.0985 148.313 96.268 148.207C93.7285 148.127 90.316 147.81 88.4643 147.492C86.6391 147.201 84.0202 146.646 82.6447 146.275C81.2691 145.905 79.2322 145.217 78.1476 144.794C77.0631 144.344 75.4494 143.63 74.5765 143.206C73.7035 142.757 71.9841 141.698 70.7408 140.878C69.4975 140.031 67.5664 138.418 66.4289 137.333C65.3179 136.222 63.6514 134.343 62.7784 133.153C61.879 131.936 60.3976 129.396 59.4982 127.517C58.5724 125.639 57.4614 122.993 57.0116 121.697C56.5884 120.4 55.7948 117.754 55.2657 115.876C54.7631 113.998 54.0489 110.664 53.6786 108.468C53.3082 106.299 52.9114 102.647 52.7792 100.399C52.6733 98.1497 52.6469 94.5251 52.7792 92.3291C52.885 90.1597 53.176 87.1171 53.414 85.5826C53.6521 84.048 54.1283 81.4288 54.4986 79.762C54.869 78.0952 55.8213 74.7616 56.6149 72.354C57.4084 69.9464 58.6517 66.7451 59.3924 65.2105C60.1331 63.676 61.297 61.6124 61.9584 60.607C62.6461 59.6016 63.863 58.0406 64.6566 57.1676C65.4502 56.268 66.7993 54.9187 67.6987 54.1514C68.5716 53.3577 70.053 52.2201 71.0053 51.5851C71.9576 50.9501 73.8622 49.8654 75.2378 49.1775C76.6134 48.4896 79.1264 47.4842 80.7929 46.9286C82.4595 46.3995 85.0783 45.7116 86.6126 45.4206C88.1469 45.1031 90.9245 44.7327 92.8291 44.5475C94.8395 44.3887 97.5113 44.3358 99.3101 44.4417C100.977 44.521 103.648 44.7856 105.262 44.9973C106.849 45.2089 109.23 45.6322 110.553 45.9497C111.849 46.2407 113.939 46.8493 115.182 47.2726C116.425 47.7223 118.568 48.6483 119.943 49.3362C121.319 50.0241 123.462 51.3205 124.705 52.1936C125.948 53.0931 127.985 54.8658 129.281 56.1357C130.551 57.4057 132.35 59.5487 133.302 60.8451C134.228 62.1415 135.657 64.5227 136.45 66.1365C137.244 67.7504 138.275 70.1316 138.725 71.428C139.201 72.7244 139.73 74.1531 139.889 74.5764C140.048 74.9997 140.365 75.423 140.577 75.5553C140.815 75.6876 142.085 75.4495 143.751 74.9997C145.285 74.5764 147.349 74.0208 148.354 73.7562C149.359 73.4916 150.312 73.0683 150.47 72.8302C150.682 72.4863 150.629 71.9836 150.259 70.7136C149.968 69.7876 149.227 67.8033 148.619 66.2688C148.037 64.7343 146.926 62.3002 146.185 60.8451C145.471 59.39 144.148 57.1146 143.301 55.8182C142.429 54.5218 141 52.5375 140.127 51.4528C139.254 50.3681 137.455 48.4631 136.159 47.2197C134.837 45.9762 132.826 44.2829 131.689 43.4627C130.525 42.6426 128.514 41.3462 127.218 40.5789C125.895 39.8381 123.753 38.7534 122.456 38.1713C121.134 37.5892 118.938 36.7426 117.563 36.2664C116.187 35.7637 113.965 35.1287 112.669 34.8377C111.346 34.5202 109.045 34.0969 107.511 33.8588C105.897 33.6207 102.458 33.409 99.3101 33.3561C96.3209 33.3032 93.3581 33.3032 92.6968 33.3561C92.5391 33.375 92.3076 33.4015 92.0228 33.434ZM96.268 98.3085C95.2363 98.4408 93.5962 98.7847 92.5645 99.1022C91.5329 99.3932 90.025 100.028 89.1521 100.478C88.3056 100.954 87.0358 101.907 86.3481 102.647C85.6074 103.441 84.8931 104.579 84.5493 105.478C84.1525 106.51 83.9673 107.595 83.9673 108.786C83.9673 110.161 84.126 110.929 84.6551 112.04C85.0519 112.886 85.8984 114.024 86.6919 114.765C87.4591 115.479 88.8346 116.432 89.787 116.855C90.7393 117.305 92.3265 117.834 93.3581 118.046C94.6279 118.31 96.0034 118.389 97.7229 118.31C99.1249 118.204 101.056 117.913 102.088 117.596C103.119 117.278 104.654 116.643 105.527 116.194C106.399 115.717 107.775 114.685 108.595 113.892C109.389 113.098 110.367 111.907 110.764 111.246C111.135 110.585 111.769 109.156 112.166 108.071C112.537 106.986 113.092 104.923 113.357 103.494C113.621 102.092 113.859 100.557 113.859 100.134C113.859 99.6578 113.674 99.2345 113.41 99.1022C113.145 98.9699 111.505 98.6789 109.759 98.4408C107.854 98.1762 104.918 98.0174 102.352 98.0439C100.024 98.0704 97.2996 98.1762 96.268 98.3085Z" fill="#F6F6F7"/>
<defs>
<linearGradient id="paint0_linear_108_71" x1="96" y1="1" x2="96" y2="191" gradientUnits="userSpaceOnUse">
<stop stop-color="#3D1075"/>
<stop offset="1" stop-color="#2D0B56"/>
</linearGradient>
</defs>
</svg>
