<svg width="192" height="192" viewBox="0 0 192 192" fill="none" xmlns="http://www.w3.org/2000/svg">
<path d="M79.8641 190.494C58.4515 188.98 43.1039 184.514 30.2301 176.052C16.4521 166.996 6.93903 150.04 3.23235 127.931C1.51833 117.708 0.97229 109.739 1.00107 95.3749C1.05247 69.8796 3.78817 54.0812 10.6775 39.5C17.2889 25.507 25.5739 17.2167 39.4783 10.6808C54.2478 3.73821 70.2337 1 95.9953 1C121.757 1 137.743 3.73821 152.512 10.6808C166.404 17.211 174.634 25.4402 181.334 39.5C188.169 53.8448 190.937 69.844 190.999 95.3749C191.075 126.436 186.923 145.115 176.35 161.286C166.477 176.388 148.497 185.963 123.79 189.276C110.91 191.003 93.7794 191.478 79.8641 190.494Z" fill="url(#paint0_linear_108_70)"/>
<path d="M107.889 106.824C107.334 107.323 106.522 108.055 106.522 109.31C106.522 110.614 107.383 111.925 108.935 112.979C115.991 117.91 129.217 117.323 129.788 117.307H129.804C135.17 117.307 140.423 115.859 145.041 113.132C149.684 110.413 153.537 106.53 156.218 101.865C158.899 97.1997 160.316 91.9155 160.327 86.535C160.471 75.9478 156.787 68.6912 154.969 65.1032L154.647 64.4596C143.939 43.6392 120.954 31.6763 95.9668 31.6763C82.7207 31.6763 69.7972 35.7634 58.9599 43.3799C48.1226 50.9964 39.8993 61.7713 35.4122 74.2342C43.5779 64.2424 57.2141 57.919 71.8318 57.919C94.5991 57.919 112.137 73.0838 112.137 96.5108H112.105V96.5269C112.105 99.2461 110.753 103.22 108.187 106.535L108.235 106.487L107.889 106.824Z" fill="#F8F8F8"/>
<path d="M31.6875 94.0487C31.42 104.149 33.4934 114.175 37.7454 123.34C42.5071 133.478 49.832 142.198 58.9961 148.637C68.1601 155.077 78.846 159.013 89.9975 160.058C87.8082 159.232 85.6951 158.217 83.6822 157.025H83.6018L82.6364 156.421C77.7231 153.357 73.4592 149.358 70.0862 144.652C66.2469 139.397 63.6042 133.366 62.3436 126.982C61.083 120.597 61.235 114.014 62.789 107.695C64.343 101.375 67.2613 95.4726 71.339 90.401C75.4167 85.3293 80.5551 81.2116 86.3934 78.3368L86.4738 78.3046L86.675 78.2081C88.3483 77.4197 91.6628 75.859 96.0635 75.9153C97.1039 75.9206 98.1337 76.0091 99.1527 76.1808C96.791 73.9135 94.0971 72.0199 91.1641 70.5654L91.0836 70.5251C82.6766 66.1245 73.4329 65.9717 71.832 65.9717C52.2022 65.9717 33.023 79.1172 31.6875 94.0487ZM114.253 157.701C114.966 157.486 115.677 157.261 116.385 157.025C115.564 157.277 114.741 157.507 113.915 157.717L114.253 157.701Z" fill="#F8F8F8"/>
<path d="M113.892 157.716C114.711 157.511 115.524 157.28 116.329 157.024L116.989 156.823C130.842 152.034 142.651 142.67 150.472 130.275C150.699 129.898 150.796 129.458 150.749 129.021C150.702 128.584 150.513 128.174 150.211 127.855C149.909 127.536 149.51 127.324 149.077 127.252C148.643 127.181 148.198 127.253 147.809 127.459C146.082 128.36 144.304 129.148 142.475 129.824C136.701 131.967 130.59 133.057 124.431 133.042C100.642 133.042 79.9257 116.703 79.9257 95.6811C79.9418 94.5924 80.0652 93.5224 80.2958 92.4712C74.1095 98.6323 70.3348 106.806 69.656 115.51C68.9771 124.215 71.4388 132.875 76.5951 139.92L76.6192 139.961C79.1534 143.509 82.307 146.566 85.9353 148.979H85.9594L87.1179 149.703C94.1734 154.128 100.963 158.376 113.892 157.716Z" fill="#F8F8F8"/>
<defs>
<linearGradient id="paint0_linear_108_70" x1="96" y1="1" x2="96" y2="191" gradientUnits="userSpaceOnUse">
<stop stop-color="#0D60F7"/>
<stop offset="1" stop-color="#0B4CC4"/>
</linearGradient>
</defs>
</svg>
