<svg width="192" height="192" viewBox="0 0 192 192" fill="none" xmlns="http://www.w3.org/2000/svg">
<path d="M95.9998 1V96H1C1.00017 95.793 1.00047 95.5846 1.00089 95.3749C1.05229 69.8796 3.78799 54.0812 10.6773 39.5C17.2887 25.507 25.5737 17.2167 39.4782 10.6808C54.2476 3.73821 70.2335 1 95.9951 1C95.9967 1 95.9983 1 95.9998 1Z" fill="#F0764F"/>
<path d="M30.2301 176.052C43.1039 184.514 58.4515 188.98 79.8641 190.494C84.6659 190.834 89.8504 190.999 95.1111 191C95.1298 191 95.1484 191 95.167 191C105.134 190.999 115.37 190.405 123.79 189.276C148.497 185.963 166.477 176.388 176.35 161.286C186.824 145.266 190.996 126.785 191 96.2447C191 96.2186 191 96.1925 191 96.1664C191 96.111 191 96.0555 191 96H1.00018C1.00006 96.1435 1 96.2863 1 96.4285C1 110.134 1.5607 117.961 3.23235 127.931C6.93903 150.04 16.4521 166.996 30.2301 176.052Z" fill="#D14C2A"/>
<path d="M96 1C121.759 1.00033 137.743 3.73863 152.512 10.6808C166.404 17.211 174.634 25.4402 181.334 39.5C188.169 53.8448 190.937 69.844 190.999 95.3749C190.999 95.5838 191 95.7922 191 96H96V1Z" fill="#FF8E69"/>
<g style="mix-blend-mode:soft-light">
<path d="M30.2301 176.053C43.1039 184.514 58.4515 188.98 79.8641 190.494C93.7794 191.478 110.909 191.003 123.79 189.276C148.497 185.963 166.477 176.388 176.35 161.286C186.818 145.276 190.991 126.807 191 96.2991C191 96.2367 191 96.174 191 96.1114C191 95.8667 191 95.6212 190.999 95.3749C190.937 69.8441 188.169 53.8447 181.334 39.5001C174.634 25.4401 166.404 17.2111 152.512 10.6808C137.743 3.73828 121.757 1 95.9953 1C70.2336 1 54.2477 3.73828 39.4783 10.6808C25.5738 17.2167 17.2888 25.507 10.6775 39.5001C3.78811 54.0812 1.05248 69.8795 1.00107 95.3749C0.972307 109.739 1.51826 117.708 3.23229 127.931C6.93903 150.04 16.4521 166.997 30.2301 176.053Z" fill="url(#paint0_linear_108_63)"/>
</g>
<path d="M98.7787 48.9624C107.947 48.3403 117.036 51.0182 124.421 56.5172C130.58 62.0466 133.871 70.1152 133.347 78.4011C133.448 84.1611 131.922 89.8317 128.946 94.7542C125.933 99.5921 121.592 103.45 116.447 105.862C110.565 108.613 104.135 109.971 97.6494 109.833H79.8351V143.126H61.5905V48.9624H98.7787ZM79.8198 95.4495H95.5217C100.5 95.8171 105.439 94.3357 109.403 91.2859C112.682 88.1231 114.4 83.6628 114.097 79.1042C114.097 68.7273 108.1 63.5389 96.1056 63.5389H79.82L79.8198 95.4495Z" fill="white"/>
<defs>
<linearGradient id="paint0_linear_108_63" x1="96" y1="1" x2="96" y2="191" gradientUnits="userSpaceOnUse">
<stop stop-color="#A5A4A4"/>
<stop offset="1" stop-color="#656565"/>
</linearGradient>
</defs>
</svg>
