<svg width="192" height="192" viewBox="0 0 192 192" fill="none" xmlns="http://www.w3.org/2000/svg">
<path d="M79.8641 190.494C58.4515 188.98 43.1039 184.514 30.2301 176.052C16.4521 166.996 6.93903 150.04 3.23235 127.931C1.51833 117.708 0.97229 109.739 1.00107 95.3749C1.05247 69.8796 3.78817 54.0812 10.6775 39.5C17.2889 25.507 25.5739 17.2167 39.4783 10.6808C54.2478 3.73821 70.2337 1 95.9953 1C121.757 1 137.743 3.73821 152.512 10.6808C166.404 17.211 174.634 25.4402 181.334 39.5C188.169 53.8448 190.937 69.844 190.999 95.3749C191.075 126.436 186.923 145.115 176.35 161.286C166.477 176.388 148.497 185.963 123.79 189.276C110.91 191.003 93.7794 191.478 79.8641 190.494Z" fill="#C865E7"/>
<path d="M185.13 48.874C189.208 60.9952 190.943 75.1726 190.999 95.252H137.89V48.874H185.13Z" fill="#AC4CD2"/>
<path d="M191 96.2447C190.998 116.084 189.236 130.834 185.131 143.126H137.89V95.252H190.999C190.999 95.2929 190.999 95.3339 190.999 95.3749C191 95.6396 191 95.9034 191 96.1664C191 96.1925 191 96.2186 191 96.2447Z" fill="#9233BC"/>
<path d="M185.131 143.126C182.917 149.757 180.02 155.673 176.35 161.286C168.465 173.346 155.411 181.881 137.89 186.518V143.126H185.131Z" fill="#761BA8"/>
<g style="mix-blend-mode:soft-light">
<path d="M30.2301 176.053C43.1039 184.514 58.4515 188.98 79.8641 190.494C93.7794 191.478 110.909 191.003 123.79 189.276C148.497 185.963 166.477 176.388 176.35 161.286C186.818 145.276 190.991 126.807 191 96.2991C191 96.2367 191 96.174 191 96.1114C191 95.8667 191 95.6212 190.999 95.3749C190.937 69.8441 188.169 53.8447 181.334 39.5001C174.634 25.4401 166.404 17.2111 152.512 10.6808C137.743 3.73828 121.757 1 95.9953 1C70.2336 1 54.2477 3.73828 39.4783 10.6808C25.5738 17.2167 17.2888 25.507 10.6775 39.5001C3.78811 54.0812 1.05248 69.8795 1.00107 95.3749C0.972307 109.739 1.51826 117.708 3.23229 127.931C6.93903 150.04 16.4521 166.997 30.2301 176.053Z" fill="url(#paint0_linear_108_65)"/>
</g>
<path d="M137.89 143.126H116.529L77.8031 83.9063C75.5316 80.4447 73.959 77.8376 73.0853 76.0848H72.8232C73.1727 79.415 73.3474 84.4978 73.3474 91.3334V143.126H53.3622V48.874H76.165L113.449 106.253C115.153 108.839 116.725 111.402 118.167 113.943H118.429C118.079 111.752 117.905 107.436 117.905 100.995V48.874H137.89V143.126Z" fill="white"/>
<defs>
<linearGradient id="paint0_linear_108_65" x1="96" y1="1" x2="96" y2="191" gradientUnits="userSpaceOnUse">
<stop stop-color="#A5A4A4"/>
<stop offset="1" stop-color="#656565"/>
</linearGradient>
</defs>
</svg>
