<svg width="192" height="192" viewBox="0 0 192 192" fill="none" xmlns="http://www.w3.org/2000/svg">
<path d="M185.13 48.874H6.89056C7.98056 45.6447 9.2384 42.5458 10.6775 39.5C17.2889 25.507 25.5739 17.2167 39.4783 10.6808C54.2478 3.73821 70.2337 1 95.9953 1C121.757 1 137.743 3.73821 152.512 10.6808C166.404 17.211 174.634 25.4402 181.334 39.5C182.776 42.5264 184.037 45.6264 185.13 48.874Z" fill="#4BB1F1"/>
<path d="M191 96H1.00018C1.00036 95.793 1.00065 95.5846 1.00107 95.3749C1.04173 75.2052 2.7624 61.1044 6.89057 48.874H185.13C189.217 61.0199 190.95 75.2304 190.999 95.3749C190.999 95.5838 191 95.7922 191 96Z" fill="#2C7DD3"/>
<path d="M184.878 143.874H7.20236C5.51468 138.929 4.18268 133.6 3.23235 127.931C1.5607 117.961 1 110.134 1 96.4285C1 96.2863 1.00006 96.1435 1.00018 96H191C191 96.0555 191 96.111 191 96.1664C191 96.1925 191 96.2186 191 96.2447C190.998 116.488 189.164 131.432 184.878 143.874Z" fill="#1657BC"/>
<path d="M30.2302 176.052C43.1039 184.514 58.4515 188.98 79.8641 190.494C84.6659 190.834 89.8505 190.999 95.1111 191C95.1298 191 95.1484 191 95.1671 191C105.134 190.999 115.37 190.405 123.791 189.276C148.497 185.963 166.477 176.388 176.35 161.286C179.882 155.885 182.697 150.203 184.878 143.874H7.20239C12.0974 158.216 19.9846 169.318 30.2302 176.052Z" fill="#0D398D"/>
<g style="mix-blend-mode:soft-light">
<path d="M30.2301 176.053C43.1039 184.514 58.4515 188.98 79.8641 190.494C93.7793 191.478 110.909 191.003 123.79 189.276C148.497 185.963 166.477 176.388 176.35 161.286C186.818 145.276 190.991 126.807 191 96.2991C191 96.2367 191 96.174 191 96.1114C191 95.8667 191 95.6212 190.999 95.3749C190.937 69.8441 188.169 53.8447 181.334 39.5001C174.634 25.4401 166.404 17.2111 152.512 10.6808C137.743 3.73828 121.757 1 95.9953 1C70.2336 1 54.2477 3.73828 39.4783 10.6808C25.5738 17.2167 17.2888 25.507 10.6774 39.5001C3.78811 54.0812 1.05248 69.8795 1.00107 95.3749C0.972307 109.739 1.51826 117.708 3.23229 127.931C6.93903 150.04 16.4521 166.997 30.2301 176.053Z" fill="url(#paint0_linear_108_61)"/>
</g>
<path d="M67.4996 120.772C67.7912 123.027 67.9811 124.986 68.0761 126.669H68.4152C68.5441 125.073 68.8154 123.155 69.2223 120.907C69.6292 118.658 70.0023 116.76 70.3278 115.205L85.9001 48.9077H106.03L122.179 114.209C123.115 118.268 123.786 122.387 124.186 126.527H124.451C124.749 122.509 125.312 118.517 126.133 114.572L139.013 48.874H157.339L134.713 143.874H113.308L97.9659 80.9558C97.525 79.145 97.0164 76.7823 96.4534 73.8676C95.8905 70.953 95.5514 68.8326 95.409 67.493H95.1444C94.9681 69.0412 94.6222 71.3366 94.1 74.3792C93.5845 77.4218 93.1708 79.6768 92.8588 81.1375L78.4327 143.854H56.6614L33.9134 48.9144H52.5648L66.5907 115.346C66.9163 116.706 67.2147 118.524 67.4996 120.772Z" fill="white"/>
<defs>
<linearGradient id="paint0_linear_108_61" x1="96" y1="1" x2="96" y2="191" gradientUnits="userSpaceOnUse">
<stop stop-color="#A5A4A4"/>
<stop offset="1" stop-color="#656565"/>
</linearGradient>
</defs>
</svg>
