<svg width="192" height="192" viewBox="0 0 192 192" fill="none" xmlns="http://www.w3.org/2000/svg">
<path d="M79.8641 190.494C58.4515 188.98 43.1039 184.514 30.2301 176.052C16.4521 166.996 6.93903 150.04 3.23235 127.931C1.51833 117.708 0.97229 109.739 1.00107 95.3749C1.05247 69.8796 3.78817 54.0812 10.6775 39.5C17.2889 25.507 25.5739 17.2167 39.4783 10.6808C54.2478 3.73821 70.2337 1 95.9953 1C121.757 1 137.743 3.73821 152.512 10.6808C166.404 17.211 174.634 25.4402 181.334 39.5C188.169 53.8448 190.937 69.844 190.999 95.3749C191.075 126.436 186.923 145.115 176.35 161.286C166.477 176.388 148.497 185.963 123.79 189.276C110.91 191.003 93.7794 191.478 79.8641 190.494Z" fill="url(#paint0_linear_108_66)"/>
<path d="M85.9785 37.6538L52.4328 55.8376C48.6423 57.9009 45.4764 60.9565 43.2699 64.6814C41.0633 68.4063 39.8982 72.662 39.8976 76.9983V114.482C39.8977 118.819 41.0626 123.075 43.2692 126.801C45.4757 130.526 48.6419 133.582 52.4328 135.646M96 119.986L88.1419 115.629C84.3943 113.552 81.2693 110.501 79.0929 106.794C76.9164 103.087 75.7682 98.8607 75.768 94.5554V83.1622M115.962 82.5357V94.9746C115.962 99.3074 114.788 103.56 112.565 107.281C110.341 111.003 107.151 114.057 103.331 116.118L71.203 133.454C68.0274 135.167 64.5066 136.147 60.9007 136.32C57.2948 136.493 53.696 135.856 50.3701 134.455C50.9865 134.869 51.6282 135.255 52.2951 135.612L84.42 152.949C87.9408 154.848 91.8804 155.843 95.883 155.843C99.8856 155.843 103.825 154.848 107.346 152.949L139.471 135.612C143.291 133.551 146.481 130.498 148.704 126.777C150.928 123.056 152.102 118.804 152.102 114.472M139.474 55.6273L107.348 38.3034C104.105 36.5544 100.503 35.5707 96.8178 35.4278C93.1331 35.285 89.4647 35.9869 86.095 37.4795C82.9174 39.6933 80.3226 42.6386 78.5309 46.0654C76.7392 49.4921 75.8035 53.2991 75.8032 57.1633V82.2596L85.0162 77.6207C88.3855 75.9241 92.1076 75.0402 95.8825 75.0402C99.6574 75.0402 103.379 75.9241 106.749 77.6207L138.874 93.7995C142.772 95.7621 146.061 98.7435 148.391 102.425C150.72 106.106 152.002 110.35 152.1 114.701L152.102 114.168V76.7494C152.102 72.4212 150.928 68.1735 148.705 64.4555C146.482 60.7374 143.293 57.6872 139.474 55.6273Z" stroke="white" stroke-width="12" stroke-linecap="round" stroke-linejoin="round"/>
<defs>
<linearGradient id="paint0_linear_108_66" x1="96" y1="1" x2="96" y2="191" gradientUnits="userSpaceOnUse">
<stop stop-color="#FF4400"/>
<stop offset="1" stop-color="#DF3C01"/>
</linearGradient>
</defs>
</svg>
