<svg width="192" height="192" viewBox="0 0 192 192" fill="none" xmlns="http://www.w3.org/2000/svg">
<path d="M185.13 48.874H6.89056C7.98056 45.6447 9.2384 42.5458 10.6775 39.5C17.2889 25.507 25.5739 17.2167 39.4783 10.6808C54.2478 3.73821 70.2337 1 95.9953 1C121.757 1 137.743 3.73821 152.512 10.6808C166.404 17.211 174.634 25.4402 181.334 39.5C182.776 42.5264 184.037 45.6264 185.13 48.874Z" fill="#0265BA"/>
<path d="M6.89057 48.874H64.5827V96.748H1.0001C1.00003 96.6419 1 96.5354 1 96.4285C1 96.0811 1.00036 95.73 1.00107 95.3749C1.04173 75.2052 2.7624 61.1044 6.89057 48.874Z" fill="#007BD8"/>
<path d="M1.0001 96.748H64.5827V143.126H6.95073C5.38182 138.393 4.13494 133.315 3.23235 127.931C1.57373 118.039 1.00881 110.256 1.0001 96.748Z" fill="#0265B5"/>
<path d="M64.5827 188.738C50.7722 186.438 39.8154 182.353 30.2301 176.052C19.8071 169.202 11.8249 157.83 6.95073 143.126H64.5827V188.738Z" fill="#005AA6"/>
<rect x="64.5827" y="48.874" width="62.8346" height="47.874" fill="#24A7EB"/>
<rect x="64.5827" y="96.748" width="62.8346" height="46.378" fill="#0279D5"/>
<path d="M64.5827 188.738C69.3207 189.528 74.3945 190.107 79.8641 190.494C84.6659 190.834 89.8504 190.999 95.1111 191C95.1298 191 95.1484 191 95.167 191C105.134 190.999 115.37 190.405 123.79 189.276C125.016 189.111 126.225 188.932 127.417 188.737V143.126H64.5827V188.738Z" fill="#0265BA"/>
<path d="M191 96.2447C191 96.4129 191 96.5806 191 96.748H127.417V48.874H185.13C189.217 61.0199 190.95 75.2304 190.999 95.3749C191 95.6396 191 95.9035 191 96.1664C191 96.1925 191 96.2186 191 96.2447Z" fill="#50DCFF"/>
<path d="M191 96.748C190.968 116.333 189.202 130.938 185.131 143.126H127.417V96.748H191Z" fill="#24A7EB"/>
<path d="M185.131 143.126C182.917 149.757 180.02 155.673 176.35 161.286C166.966 175.639 150.261 184.999 127.417 188.737V143.126H185.131Z" fill="#0379D0"/>
<path d="M71.9464 189.767C74.4916 190.059 77.1284 190.301 79.8641 190.494C84.6659 190.834 89.8504 191 95.1111 191C95.1298 191 95.1484 191 95.167 191C105.134 190.999 115.37 190.405 123.79 189.276C148.497 185.963 166.477 176.388 176.35 161.286C181.71 153.088 185.42 144.246 187.765 133.472L96 177.91L71.9464 189.767Z" fill="#0C91E0"/>
<path d="M30.2301 176.053C43.1039 184.514 58.4515 188.98 79.8641 190.494C84.6659 190.834 89.8504 191 95.1111 191C95.1298 191 95.1484 191 95.167 191C104.39 190.999 113.843 190.49 121.874 189.52L96 177.91L4.31458 133.511C8.60408 152.894 17.6351 167.774 30.2301 176.053Z" fill="#24A7EB"/>
<g style="mix-blend-mode:soft-light">
<path d="M30.2301 176.053C43.1039 184.514 58.4515 188.98 79.8641 190.494C93.7794 191.478 110.909 191.003 123.79 189.276C148.497 185.963 166.477 176.388 176.35 161.286C186.818 145.276 190.991 126.807 191 96.2991C191 96.2367 191 96.174 191 96.1114C191 95.8667 191 95.6212 190.999 95.3749C190.937 69.8441 188.169 53.8447 181.334 39.5001C174.634 25.4401 166.404 17.2111 152.512 10.6808C137.743 3.73828 121.757 1 95.9953 1C70.2336 1 54.2477 3.73828 39.4783 10.6808C25.5738 17.2167 17.2888 25.507 10.6775 39.5001C3.78811 54.0812 1.05248 69.8795 1.00107 95.3749C0.972307 109.739 1.51826 117.708 3.23229 127.931C6.93903 150.04 16.4521 166.997 30.2301 176.053Z" fill="url(#paint0_linear_108_64)"/>
</g>
<path d="M95.5847 143.126C82.4662 143.126 71.7755 138.889 63.5125 130.415C55.2496 121.899 51.1181 110.819 51.1181 97.1758C51.1181 82.77 55.3135 71.1182 63.7042 62.2206C72.0949 53.3229 83.2116 48.874 97.0542 48.874C110.13 48.874 120.693 53.1322 128.743 61.6486C136.836 70.1649 140.882 81.393 140.882 95.3327C140.882 109.654 136.687 121.2 128.296 129.97C119.948 138.741 109.044 143.126 95.5847 143.126ZM96.4792 66.5423C89.2384 66.5423 83.4884 69.254 79.2292 74.6773C74.9699 80.0583 72.8403 87.1977 72.8403 96.0953C72.8403 105.12 74.9699 112.259 79.2292 117.513C83.4884 122.767 89.0681 125.394 95.968 125.394C103.081 125.394 108.725 122.852 112.899 117.768C117.073 112.641 119.16 105.544 119.16 96.4767C119.16 87.0282 117.137 79.677 113.09 74.4231C109.044 69.1692 103.507 66.5423 96.4792 66.5423Z" fill="white"/>
<defs>
<linearGradient id="paint0_linear_108_64" x1="96" y1="1" x2="96" y2="191" gradientUnits="userSpaceOnUse">
<stop stop-color="#A5A4A4"/>
<stop offset="1" stop-color="#656565"/>
</linearGradient>
</defs>
</svg>
