<svg width="192" height="192" viewBox="0 0 192 192" fill="none" xmlns="http://www.w3.org/2000/svg">
<path d="M79.8641 190.494C58.4515 188.98 43.1039 184.514 30.2301 176.052C16.4521 166.996 6.93903 150.04 3.23235 127.931C1.51833 117.708 0.97229 109.739 1.00107 95.3749C1.05247 69.8796 3.78817 54.0812 10.6775 39.5C17.2889 25.507 25.5739 17.2167 39.4783 10.6808C54.2478 3.73821 70.2337 1 95.9953 1C121.757 1 137.743 3.73821 152.512 10.6808C166.404 17.211 174.634 25.4402 181.334 39.5C188.169 53.8448 190.937 69.844 190.999 95.3749C191.075 126.436 186.923 145.115 176.35 161.286C166.477 176.388 148.497 185.963 123.79 189.276C110.91 191.003 93.7794 191.478 79.8641 190.494Z" fill="url(#paint0_linear_108_67)"/>
<path d="M92.8556 142.953C92.8238 145.783 91.6715 148.49 89.6425 150.494C87.5848 152.526 84.7939 153.668 81.8838 153.668H48.9661C46.056 153.668 43.2651 152.526 41.2074 150.494C39.1588 148.471 38.0039 145.73 37.9937 142.871V132.273H63.696C62.8931 132.536 62.155 132.982 61.5456 133.584C60.5167 134.6 59.9387 135.978 59.9387 137.415C59.9387 138.851 60.5167 140.229 61.5456 141.245C62.5744 142.261 63.9699 142.832 65.4249 142.832C66.88 142.832 68.2755 142.261 69.3043 141.245C70.3332 140.229 70.9112 138.851 70.9112 137.415C70.9112 135.978 70.3332 134.6 69.3043 133.584C68.6949 132.982 67.9568 132.536 67.1539 132.273H92.8556V142.953Z" fill="#9DA2AB"/>
<path d="M67.1501 132.271C66.5987 132.091 66.0168 131.997 65.4249 131.997C64.8331 131.997 64.2512 132.091 63.6998 132.271H37.9937V110.327H92.8556V132.271H67.1501Z" fill="#ACB0B8"/>
<path d="M92.8556 88.9297H37.9937V110.326H92.8556V88.9297Z" fill="#C4C6CC"/>
<path d="M41.2074 70.158C39.1497 72.19 37.9937 74.946 37.9937 77.8198V88.9292H92.8556V77.6932C92.8222 74.8652 91.6701 72.1602 89.6426 70.158C87.5848 68.126 84.7939 66.9844 81.8838 66.9844H48.9662C46.0561 66.9844 43.2652 68.126 41.2074 70.158Z" fill="white"/>
<g style="mix-blend-mode:soft-light">
<path d="M37.9937 77.8198C37.9937 74.946 39.1497 72.19 41.2074 70.158C43.2652 68.126 46.0561 66.9844 48.9662 66.9844H81.8838C84.7939 66.9844 87.5848 68.126 89.6426 70.158C91.7004 72.19 92.8564 74.946 92.8564 77.8198V142.832C92.8564 145.706 91.7004 148.462 89.6426 150.494C87.5848 152.526 84.7939 153.667 81.8838 153.667H48.9662C46.0561 153.667 43.2652 152.526 41.2074 150.494C39.1497 148.462 37.9937 145.706 37.9937 142.832V77.8198ZM70.9113 137.414C70.9113 135.978 70.3333 134.6 69.3044 133.584C68.2755 132.567 66.8801 131.997 65.425 131.997C63.97 131.997 62.5745 132.567 61.5456 133.584C60.5168 134.6 59.9387 135.978 59.9387 137.414C59.9387 138.851 60.5168 140.229 61.5456 141.245C62.5745 142.261 63.97 142.832 65.425 142.832C66.8801 142.832 68.2755 142.261 69.3044 141.245C70.3333 140.229 70.9113 138.851 70.9113 137.414Z" fill="url(#paint1_linear_108_67)"/>
</g>
<path fill-rule="evenodd" clip-rule="evenodd" d="M47.7788 61.5908V54.5825C47.7779 51.7477 48.8485 49.0174 50.7761 46.9387C52.7036 44.8601 55.3456 43.5869 58.1724 43.3743L59.0151 43.3462H137.669C140.504 43.3453 143.235 44.4159 145.313 46.3435C147.392 48.271 148.665 50.913 148.878 53.7398L148.906 54.5825V110.764C148.907 113.599 147.836 116.329 145.909 118.408C143.981 120.487 141.339 121.76 138.512 121.972L137.669 122.001H98.2441V76.8311C98.2441 68.4141 91.546 61.5908 83.2835 61.5908H47.7788ZM98.2441 138.855V127.619H148.906C150.338 127.62 151.715 128.169 152.756 129.152C153.798 130.135 154.424 131.478 154.508 132.908C154.592 134.337 154.127 135.745 153.208 136.843C152.289 137.941 150.985 138.647 149.563 138.816L148.906 138.855H98.2441Z" fill="white"/>
<defs>
<linearGradient id="paint0_linear_108_67" x1="96" y1="1" x2="96" y2="191" gradientUnits="userSpaceOnUse">
<stop stop-color="#1D62A4"/>
<stop offset="1" stop-color="#185085"/>
</linearGradient>
<linearGradient id="paint1_linear_108_67" x1="65.425" y1="66.9844" x2="65.425" y2="153.667" gradientUnits="userSpaceOnUse">
<stop stop-color="white"/>
<stop offset="1" stop-color="#9EAED0"/>
</linearGradient>
</defs>
</svg>
