<svg width="192" height="192" viewBox="0 0 192 192" fill="none" xmlns="http://www.w3.org/2000/svg">
<path d="M96 1V48.874H6.89056C7.98056 45.6447 9.2384 42.5458 10.6775 39.5C17.2889 25.507 25.5739 17.2167 39.4783 10.6808C54.2478 3.73821 70.2337 1 95.9953 1C95.9969 1 95.9984 1 96 1Z" fill="#32C58A"/>
<path d="M96 1C121.759 1.00033 137.743 3.73863 152.512 10.6808C166.404 17.211 174.634 25.4402 181.334 39.5C182.776 42.5264 184.037 45.6264 185.13 48.874H96V1Z" fill="#4BDFA6"/>
<path d="M6.89057 48.874H96V96.748H1.0001C1.00003 96.6419 1 96.5354 1 96.4285C1 96.0811 1.00036 95.73 1.00107 95.3749C1.04173 75.2052 2.7624 61.1044 6.89057 48.874Z" fill="#169655"/>
<path d="M191 96.2447C191 96.4129 191 96.5806 191 96.748H96V48.874H185.13C189.217 61.0199 190.95 75.2304 190.999 95.3749C191 95.6396 191 95.9035 191 96.1664C191 96.1925 191 96.2186 191 96.2447Z" fill="#2DBB80"/>
<path d="M1.00006 96.748H96V143.126H6.95069C5.38178 138.393 4.1349 133.315 3.23231 127.931C1.57369 118.039 1.00877 110.256 1.00006 96.748Z" fill="#1D6A41"/>
<path d="M191 96.748C190.968 116.333 189.202 130.938 185.131 143.126H96V96.748H191Z" fill="#148D4E"/>
<path d="M30.2301 176.052C43.1039 184.514 58.4515 188.98 79.8641 190.494C84.6659 190.834 89.8504 190.999 95.1111 191C95.1298 191 95.1484 191 95.1671 191C95.4445 191 95.7222 190.999 96 190.999V143.126H6.95074C11.8249 157.83 19.8071 169.202 30.2301 176.052Z" fill="#1C7145"/>
<path d="M185.131 143.126C182.917 149.757 180.02 155.673 176.35 161.286C166.477 176.388 148.497 185.963 123.79 189.276C115.605 190.373 105.702 190.965 96 190.999V143.126H185.131Z" fill="#195E38"/>
<g style="mix-blend-mode:soft-light">
<path d="M30.2301 176.053C43.1039 184.514 58.4515 188.98 79.8641 190.494C93.7794 191.478 110.909 191.003 123.79 189.276C148.497 185.963 166.477 176.388 176.35 161.286C186.818 145.276 190.991 126.807 191 96.2991C191 96.2367 191 96.174 191 96.1114C191 95.8667 191 95.6212 190.999 95.3749C190.937 69.8441 188.169 53.8447 181.334 39.5001C174.634 25.4401 166.404 17.2111 152.512 10.6808C137.743 3.73828 121.757 1 95.9953 1C70.2336 1 54.2477 3.73828 39.4783 10.6808C25.5738 17.2167 17.2888 25.507 10.6775 39.5001C3.78811 54.0812 1.05248 69.8795 1.00107 95.3749C0.972307 109.739 1.51826 117.708 3.23229 127.931C6.93903 150.04 16.4521 166.997 30.2301 176.053Z" fill="url(#paint0_linear_108_62)"/>
</g>
<path d="M54.1102 143.126L84.7262 95.8695L56.6748 48.874H79.2398L94.5478 78.9283C95.9611 81.7834 96.9297 83.9031 97.4538 85.3029H97.6523C98.658 83.0251 99.7166 80.8133 100.828 78.6672L117.192 48.8899H137.907L109.141 95.6086L138.638 143.126H116.597L98.9148 110.137C98.0819 108.734 97.3751 107.26 96.8028 105.732H96.5409C96.0229 107.229 95.3356 108.661 94.4923 110.003L76.2863 143.126H54.1102Z" fill="white"/>
<defs>
<linearGradient id="paint0_linear_108_62" x1="96" y1="1" x2="96" y2="191" gradientUnits="userSpaceOnUse">
<stop stop-color="#A5A4A4"/>
<stop offset="1" stop-color="#656565"/>
</linearGradient>
</defs>
</svg>
