<svg width="192" height="192" viewBox="0 0 192 192" fill="none" xmlns="http://www.w3.org/2000/svg">
<path d="M79.8641 190.494C58.4515 188.98 43.1039 184.514 30.2301 176.052C16.4521 166.996 6.93903 150.04 3.23235 127.931C1.51833 117.708 0.97229 109.739 1.00107 95.3749C1.05247 69.8796 3.78817 54.0812 10.6775 39.5C17.2889 25.507 25.5739 17.2167 39.4783 10.6808C54.2478 3.73821 70.2337 1 95.9953 1C121.757 1 137.743 3.73821 152.512 10.6808C166.404 17.211 174.634 25.4402 181.334 39.5C188.169 53.8448 190.937 69.844 190.999 95.3749C191.075 126.436 186.923 145.115 176.35 161.286C166.477 176.388 148.497 185.963 123.79 189.276C110.91 191.003 93.7794 191.478 79.8641 190.494Z" fill="url(#paint0_linear_108_68)"/>
<path d="M129.678 64.2645C129.713 63.7393 129.713 63.2491 129.713 62.7239C129.713 44.1328 114.641 29.0778 96.1421 29.0078C77.5383 29.0078 62.5014 44.0978 62.5014 62.6889C62.5014 63.2141 62.5014 63.7393 62.5363 64.2645C66.5928 63.3892 70.8241 62.6889 75.1953 62.1288C75.4751 50.82 84.742 41.752 96.1071 41.752C107.472 41.752 116.704 50.82 117.019 62.1288C121.39 62.6889 125.621 63.3892 129.678 64.2645Z" fill="white"/>
<path fill-rule="evenodd" clip-rule="evenodd" d="M146.568 75.048C146.568 75.048 155.625 138.699 96.247 163.697H96.1071C36.7288 138.699 45.7859 75.048 45.7859 75.048C59.6338 69.8663 77.1186 66.7853 96.177 66.7853C115.235 66.7853 132.72 69.8663 146.568 75.048ZM112.472 125.745C112.577 125.044 112.612 124.344 112.612 123.609C112.612 116.187 107.717 109.885 100.933 107.854C105.479 105.963 108.696 101.482 108.696 96.2304C108.696 89.2983 103.066 83.6615 96.142 83.6615C89.2182 83.6615 83.5882 89.2633 83.5882 96.2304C83.5882 101.482 86.8054 105.963 91.3513 107.854C84.6023 109.92 79.7067 116.187 79.7067 123.609C79.7067 124.344 79.7417 125.044 79.8466 125.745H112.472Z" fill="white"/>
<defs>
<linearGradient id="paint0_linear_108_68" x1="96" y1="1" x2="96" y2="191" gradientUnits="userSpaceOnUse">
<stop stop-color="#0178D9"/>
<stop offset="1" stop-color="#026BC0"/>
</linearGradient>
</defs>
</svg>
