<svg width="192" height="192" viewBox="0 0 192 192" fill="none" xmlns="http://www.w3.org/2000/svg">
<path d="M79.8641 190.494C58.4515 188.98 43.1039 184.514 30.2301 176.052C16.4521 166.996 6.93903 150.04 3.23235 127.931C1.51833 117.708 0.97229 109.739 1.00107 95.3749C1.05247 69.8796 3.78817 54.0812 10.6775 39.5C17.2889 25.507 25.5739 17.2167 39.4783 10.6808C54.2478 3.73821 70.2337 1 95.9953 1C121.757 1 137.743 3.73821 152.512 10.6808C166.404 17.211 174.634 25.4402 181.334 39.5C188.169 53.8448 190.937 69.844 190.999 95.3749C191.075 126.436 186.923 145.115 176.35 161.286C166.477 176.388 148.497 185.963 123.79 189.276C110.91 191.003 93.7794 191.478 79.8641 190.494Z" fill="url(#paint0_linear_108_69)"/>
<path d="M108.517 109.723L133.932 85.3564C128.653 64.7196 107.685 52.2805 87.0996 57.573C77.8294 59.9564 69.7778 65.7174 64.5163 73.7315C64.9096 73.7216 108.517 109.723 108.517 109.723Z" fill="#AFAFAF"/>
<path d="M81.0901 78.4947L81.0889 78.4988C76.2093 75.4823 70.5817 73.8878 64.842 73.8956C64.7094 73.8956 64.5791 73.904 64.4468 73.9055C47.3734 74.1166 33.7044 88.1025 33.9158 105.144C33.9925 111.325 35.9275 117.341 39.4702 122.412L77.7289 117.629L107.061 94.0218L81.0901 78.4947Z" fill="#C7C7C7"/>
<path d="M134.094 85.5278C133.535 85.4905 132.973 85.4646 132.404 85.4646C128.991 85.4613 125.613 86.159 122.481 87.5146L122.48 87.5119L107.062 94.0055L124.059 115.019L154.445 122.411C161.002 110.228 156.449 95.0305 144.276 88.4677C141.131 86.7719 137.659 85.7694 134.094 85.5278Z" fill="#DEDEDE"/>
<path d="M39.5113 122.309C45.2779 130.561 54.739 135.479 64.838 135.474H132.374C141.6 135.476 150.082 130.437 154.459 122.354L106.982 94.0478L39.5113 122.309Z" fill="white"/>
<defs>
<linearGradient id="paint0_linear_108_69" x1="96" y1="1" x2="96" y2="191" gradientUnits="userSpaceOnUse">
<stop stop-color="#189EE4"/>
<stop offset="1" stop-color="#1485C0"/>
</linearGradient>
</defs>
</svg>
