<svg width="192" height="192" viewBox="0 0 192 192" fill="none" xmlns="http://www.w3.org/2000/svg">
<path d="M79.8641 190.494C58.4515 188.98 43.1039 184.514 30.2301 176.052C16.4521 166.996 6.93903 150.04 3.23235 127.931C1.51833 117.708 0.97229 109.739 1.00107 95.3749C1.05247 69.8796 3.78817 54.0812 10.6775 39.5C17.2889 25.507 25.5739 17.2167 39.4783 10.6808C54.2478 3.73821 70.2337 1 95.9953 1C121.757 1 137.743 3.73821 152.512 10.6808C166.404 17.211 174.634 25.4402 181.334 39.5C188.169 53.8448 190.937 69.844 190.999 95.3749C191.075 126.436 186.923 145.115 176.35 161.286C166.477 176.388 148.497 185.963 123.79 189.276C110.91 191.003 93.7794 191.478 79.8641 190.494Z" fill="url(#paint0_linear_108_72)"/>
<path d="M95.6756 83.7039C95.2428 83.7039 85.2898 74.1201 73.4616 62.4466L52.0409 41.2613L78.366 41.1892C94.9543 41.1892 105.773 41.4775 107.576 41.9819C109.956 42.6304 113.634 45.8731 129.357 61.5819C145.08 77.2907 148.326 80.9656 148.975 83.3436C149.48 85.1451 149.768 95.7377 149.768 136.667L133.18 120.094V79.0201L125.39 71.3098L117.096 63.023C116.808 62.6627 116.303 62.8069 116.014 63.3113C115.726 63.7436 111.182 68.5716 105.917 73.9039C100.724 79.3083 96.0362 83.7039 95.6756 83.7039Z" fill="url(#paint1_linear_108_72)"/>
<path d="M137.074 54.8083C130.151 47.8907 124.453 41.9819 124.453 41.6937C124.453 41.4054 130.151 41.1172 149.696 41.1172L149.768 67.4186L137.074 54.8083Z" fill="url(#paint2_linear_108_72)"/>
<path d="M43.6746 109.933C42.3764 107.267 42.3043 105.394 42.3043 80.0289L42.2321 53.0069L59.6139 70.301V112.816L75.4089 129.389V108.348C75.4089 96.7465 75.6974 87.2348 75.9859 87.2348C76.2744 87.2348 80.746 91.4862 85.8668 96.6744C91.0597 101.791 95.6034 105.97 96.1083 105.826C96.541 105.754 101.157 101.574 106.35 96.6024C111.615 91.7024 116.231 87.523 116.591 87.4509C117.024 87.3068 117.24 94.7289 117.24 126.507L142.123 151.367H114.356C94.4495 151.367 85.7947 151.151 83.7752 150.502C81.5394 149.782 77.3562 145.891 63.0037 131.191C52.6179 120.598 44.5401 111.663 43.6746 109.933Z" fill="url(#paint3_linear_108_72)"/>
<path d="M42.3764 151.439V138.613L42.3043 125.858L47.2086 130.542C49.8772 133.136 55.6471 138.901 67.9802 151.439H42.3764Z" fill="url(#paint4_linear_108_72)"/>
<defs>
<linearGradient id="paint0_linear_108_72" x1="96" y1="1" x2="96" y2="191" gradientUnits="userSpaceOnUse">
<stop stop-color="#5B4B4E"/>
<stop offset="1" stop-color="#3D3234"/>
</linearGradient>
<linearGradient id="paint1_linear_108_72" x1="42.2321" y1="41.1172" x2="150.053" y2="151.16" gradientUnits="userSpaceOnUse">
<stop stop-color="#C8A36A"/>
<stop offset="0.263598" stop-color="#E4BF80"/>
<stop offset="0.593409" stop-color="#D5B175"/>
<stop offset="1" stop-color="#7D552C"/>
</linearGradient>
<linearGradient id="paint2_linear_108_72" x1="42.2321" y1="41.1172" x2="150.053" y2="151.16" gradientUnits="userSpaceOnUse">
<stop stop-color="#C8A36A"/>
<stop offset="0.263598" stop-color="#E4BF80"/>
<stop offset="0.593409" stop-color="#D5B175"/>
<stop offset="1" stop-color="#7D552C"/>
</linearGradient>
<linearGradient id="paint3_linear_108_72" x1="42.2321" y1="41.1172" x2="150.053" y2="151.16" gradientUnits="userSpaceOnUse">
<stop stop-color="#C8A36A"/>
<stop offset="0.263598" stop-color="#E4BF80"/>
<stop offset="0.593409" stop-color="#D5B175"/>
<stop offset="1" stop-color="#7D552C"/>
</linearGradient>
<linearGradient id="paint4_linear_108_72" x1="42.2321" y1="41.1172" x2="150.053" y2="151.16" gradientUnits="userSpaceOnUse">
<stop stop-color="#C8A36A"/>
<stop offset="0.263598" stop-color="#E4BF80"/>
<stop offset="0.593409" stop-color="#D5B175"/>
<stop offset="1" stop-color="#7D552C"/>
</linearGradient>
</defs>
</svg>
