<svg width="192" height="192" viewBox="0 0 192 192" fill="none" xmlns="http://www.w3.org/2000/svg">
<path d="M79.8641 190.494C58.4515 188.98 43.1039 184.514 30.2301 176.052C16.4521 166.996 6.93903 150.04 3.23235 127.931C1.51833 117.708 0.97229 109.739 1.00107 95.3749C1.05247 69.8796 3.78817 54.0812 10.6775 39.5C17.2889 25.507 25.5739 17.2167 39.4783 10.6808C54.2478 3.73821 70.2337 1 95.9953 1C121.757 1 137.743 3.73821 152.512 10.6808C166.404 17.211 174.634 25.4402 181.334 39.5C188.169 53.8448 190.937 69.844 190.999 95.3749C191.075 126.436 186.923 145.115 176.35 161.286C166.477 176.388 148.497 185.963 123.79 189.276C110.91 191.003 93.7794 191.478 79.8641 190.494Z" fill="url(#paint0_linear_108_74)"/>
<path d="M157.537 87.9674L157.538 87.967L157.499 87.6494C157.499 87.6439 157.499 87.6398 157.498 87.6343C157.497 87.6297 157.497 87.6256 157.496 87.621L157.352 86.4267C157.323 86.1868 157.29 85.9135 157.253 85.6018L157.223 85.3536L157.161 85.3611C155.65 76.765 151.498 68.6072 145.067 61.6417C138.667 54.7096 130.351 49.2362 121.019 45.8134C113.024 42.8808 104.541 41.3936 95.8061 41.3936C84.0136 41.3936 72.5609 44.167 62.6865 49.4138C43.6452 59.531 32.4153 78.1273 34.0751 96.7904C34.9342 106.448 38.7177 115.641 45.0167 123.376C50.9455 130.657 58.9658 136.532 68.21 140.367C73.8939 142.724 79.5139 143.836 85.4645 145.012L86.1611 145.15C87.7996 145.474 88.24 145.92 88.3537 146.096C88.5639 146.423 88.454 147.069 88.3695 147.425C88.2918 147.753 88.2116 148.08 88.1314 148.408C87.4924 151.013 86.8318 153.707 87.3508 156.678C87.9475 160.093 90.0799 162.052 93.2014 162.052H93.2023C96.5599 162.052 100.381 159.8 102.91 158.309L103.248 158.111C109.28 154.568 114.963 150.572 119.24 147.487C128.599 140.734 139.207 133.08 147.16 123.179C155.169 113.206 158.942 100.391 157.537 87.9674ZM72.5012 106.861H61.8111C60.1956 106.861 58.886 105.552 58.886 103.936V81.4978C58.886 79.8823 60.1956 78.5727 61.8111 78.5727C63.4266 78.5727 64.7362 79.8823 64.7362 81.4978V101.011H72.5008C74.1163 101.011 75.4259 102.321 75.4259 103.936C75.4263 105.552 74.1167 106.861 72.5012 106.861ZM83.653 103.857C83.653 105.472 82.3434 106.782 80.7279 106.782C79.1124 106.782 77.8027 105.472 77.8027 103.857V81.4184C77.8027 79.8029 79.1124 78.4933 80.7279 78.4933C82.3434 78.4933 83.653 79.8029 83.653 81.4184V103.857ZM110.094 103.857C110.094 105.124 109.277 106.247 108.072 106.639C107.774 106.735 107.47 106.782 107.169 106.782C106.25 106.782 105.362 106.348 104.801 105.575L94.2679 91.068V103.857C94.2679 105.473 92.9582 106.782 91.3427 106.782C89.7272 106.782 88.4176 105.473 88.4176 103.857V82.0607C88.4176 80.7933 89.2337 79.6701 90.4393 79.2785C91.6453 78.8874 92.9653 79.3161 93.71 80.342L104.243 94.8494V81.4184C104.243 79.8029 105.553 78.4933 107.168 78.4933C108.784 78.4933 110.094 79.8029 110.094 81.4184V103.857ZM131.408 106.321H116.931C115.315 106.321 114.006 105.012 114.006 103.396V92.1775V80.9579C114.006 79.3424 115.315 78.0328 116.931 78.0328H130.959C132.574 78.0328 133.884 79.3424 133.884 80.9579C133.884 82.5734 132.574 83.8831 130.959 83.8831H119.856V89.2523H128.866C130.482 89.2523 131.791 90.562 131.791 92.1775C131.791 93.793 130.482 95.1026 128.866 95.1026H119.856V100.471H131.408C133.024 100.471 134.333 101.781 134.333 103.396C134.333 105.012 133.024 106.321 131.408 106.321Z" fill="white"/>
<defs>
<linearGradient id="paint0_linear_108_74" x1="96" y1="1" x2="96" y2="191" gradientUnits="userSpaceOnUse">
<stop stop-color="#3DD005"/>
<stop offset="1" stop-color="#31A903"/>
</linearGradient>
</defs>
</svg>
