<svg width="192" height="192" viewBox="0 0 192 192" fill="none" xmlns="http://www.w3.org/2000/svg">
<path d="M79.8641 190.494C58.4515 188.98 43.1039 184.514 30.2301 176.052C16.4521 166.996 6.93903 150.04 3.23235 127.931C1.51833 117.708 0.97229 109.739 1.00107 95.3749C1.05247 69.8796 3.78817 54.0812 10.6775 39.5C17.2889 25.507 25.5739 17.2167 39.4783 10.6808C54.2478 3.73821 70.2337 1 95.9953 1C121.757 1 137.743 3.73821 152.512 10.6808C166.404 17.211 174.634 25.4402 181.334 39.5C188.169 53.8448 190.937 69.844 190.999 95.3749C191.075 126.436 186.923 145.115 176.35 161.286C166.477 176.388 148.497 185.963 123.79 189.276C110.91 191.003 93.7794 191.478 79.8641 190.494Z" fill="url(#paint0_linear_108_76)"/>
<path fill-rule="evenodd" clip-rule="evenodd" d="M110.864 43.0314L51.9782 47.3809C47.2275 47.7917 45.5748 50.896 45.5748 54.6165V119.172C45.5748 122.07 46.6039 124.549 49.0867 127.863L62.929 145.862C65.2032 148.76 67.271 149.382 71.613 149.175L139.996 145.035C145.778 144.624 147.435 141.931 147.435 137.381V64.7553C147.435 62.4033 146.506 61.7254 143.771 59.7183L124.505 46.1347C119.957 42.8282 118.098 42.4099 110.864 43.0304V43.0314ZM73.1593 63.5665C67.5753 63.9422 66.3089 64.0273 63.1375 61.4487L55.075 55.0358C54.2556 54.2057 54.6674 53.1702 56.732 52.9637L113.341 48.8271C118.095 48.4121 120.57 50.0691 122.429 51.5164L132.138 58.5509C132.553 58.7605 133.585 59.9982 132.344 59.9982L73.8829 63.5176L73.1593 63.5665ZM66.6495 136.76V75.1069C66.6495 72.4144 67.4764 71.1725 69.9517 70.9639L137.097 67.0327C139.375 66.8273 140.404 68.2746 140.404 70.9628V132.205C140.404 134.898 139.989 137.175 136.272 137.381L72.0174 141.105C68.3001 141.311 66.6505 140.073 66.6505 136.76H66.6495ZM130.077 78.4123C130.489 80.2747 130.077 82.1371 128.214 82.3499L125.117 82.964V128.484C122.428 129.931 119.953 130.758 117.884 130.758C114.577 130.758 113.752 129.722 111.275 126.621L91.0232 94.7587V125.586L97.4298 127.036C97.4298 127.036 97.4298 130.761 92.2609 130.761L78.011 131.588C77.596 130.758 78.011 128.69 79.4552 128.278L83.1767 127.246V86.4866L78.0121 86.0683C77.597 84.2059 78.6293 81.5167 81.524 81.3081L96.8136 80.279L117.885 112.553V84.0005L112.514 83.3833C112.099 81.1027 113.752 79.4457 115.816 79.2435L130.077 78.4123Z" fill="white"/>
<defs>
<linearGradient id="paint0_linear_108_76" x1="96" y1="1" x2="96" y2="191" gradientUnits="userSpaceOnUse">
<stop stop-color="#333333"/>
<stop offset="1" stop-color="#2D2D2D"/>
</linearGradient>
</defs>
</svg>
