<svg width="192" height="192" viewBox="0 0 192 192" fill="none" xmlns="http://www.w3.org/2000/svg">
<path d="M79.8641 190.494C58.4515 188.98 43.1039 184.514 30.2301 176.052C16.4521 166.996 6.93903 150.04 3.23235 127.931C1.51833 117.708 0.97229 109.739 1.00107 95.3749C1.05247 69.8796 3.78817 54.0812 10.6775 39.5C17.2889 25.507 25.5739 17.2167 39.4783 10.6808C54.2478 3.73821 70.2337 1 95.9953 1C121.757 1 137.743 3.73821 152.512 10.6808C166.404 17.211 174.634 25.4402 181.334 39.5C188.169 53.8448 190.937 69.844 190.999 95.3749C191.075 126.436 186.923 145.115 176.35 161.286C166.477 176.388 148.497 185.963 123.79 189.276C110.91 191.003 93.7794 191.478 79.8641 190.494Z" fill="url(#paint0_linear_118_686)"/>
<path d="M90.3639 164.625C77.6334 163.487 64.8039 158.563 54.6498 150.919C49.6507 147.155 42.3925 139.545 39.2334 134.755C38.1141 133.057 38.114 133.056 38.9085 132.413C41.644 130.198 46.8292 123.383 48.9193 119.256C49.4875 118.134 50.0334 117.216 50.1323 117.216C50.2313 117.216 50.6875 117.959 51.1462 118.867C54.224 124.962 60.1958 131.931 66.2646 136.51C71.6839 140.599 78.8834 143.816 86.2825 145.454C90.5284 146.394 99.91 146.58 104.357 145.812C120.47 143.028 133.855 133.401 141.437 119.143C144.75 112.913 147.108 103.989 147.112 97.6716C147.12 86.3819 150.467 76.7788 157.226 68.6649L159.307 66.1668L160.048 67.8877C161.723 71.7747 163.845 78.8314 164.656 83.2105C165.677 88.7309 165.877 99.318 165.066 104.91C160.686 135.089 137.767 158.778 108.05 163.841C102.812 164.733 95.3008 165.066 90.3639 164.625ZM88.0317 136.264C79.519 134.418 72.4352 130.486 66.3726 124.243C61.8612 119.597 57.8788 112.51 56.0918 105.945C55.298 103.03 55.195 101.798 55.214 95.4523C55.2324 89.3351 55.3602 87.8127 56.0711 85.246C58.8089 75.3601 65.0691 66.6039 73.3043 61.1416C79.3515 57.1305 85.4527 54.9425 92.4288 54.2832C112.754 52.3622 131.216 65.3221 136.682 85.348C137.472 88.2404 137.583 89.5215 137.575 95.6467C137.566 102.922 137.305 104.627 135.405 109.832C130.396 123.548 117.983 133.951 103.626 136.465C99.1608 137.247 92.1458 137.157 88.0317 136.264ZM101.053 118.185C105.455 117.261 109.155 115.208 112.603 111.774C116.045 108.346 117.914 104.948 118.973 100.189C120.828 91.8515 117.346 82.5313 110.437 77.3384C107.305 74.9841 105.66 74.1803 102.126 73.2766C92.6111 70.8436 82.8301 74.5598 77.2818 82.7156C74.8235 86.3292 73.6447 89.8263 73.3817 94.2865C72.4898 109.41 86.2488 121.293 101.053 118.185Z" fill="white"/>
<path d="M30.7397 73.8633C25.6099 89.3396 26.0392 106.255 31.9431 121.277L33.3852 124.946L34.3199 124.076C36.0631 122.454 38.709 118.728 40.4479 115.447C43.7229 109.269 45.0315 103.968 45.4625 95.1354C46.0131 83.851 48.4835 75.9379 54.0986 67.4733C58.616 60.6632 66.3795 53.7511 73.6447 50.0705C76.9371 48.4025 83.1004 46.3625 87.25 45.5672C94.678 44.1436 104.189 44.7748 111.835 47.1988C124.097 51.0861 135.188 60.3067 141.027 71.4682L142.527 74.3362L144.046 71.5262C146.114 67.7026 148.58 64.3037 151.798 60.8463L154.496 57.9467L152.103 54.6907C149.292 50.8655 143.317 44.6018 139.677 41.6645C123.819 28.8668 102.433 23.6976 82.4316 27.8277C58.3449 32.8015 38.4889 50.4848 30.7397 73.8633Z" fill="#323131"/>
<defs>
<linearGradient id="paint0_linear_118_686" x1="96" y1="1" x2="96" y2="191" gradientUnits="userSpaceOnUse">
<stop stop-color="#02BAAA"/>
<stop offset="1" stop-color="#02978A"/>
</linearGradient>
</defs>
</svg>
