<svg width="192" height="192" viewBox="0 0 192 192" fill="none" xmlns="http://www.w3.org/2000/svg">
<path d="M79.8641 190.494C58.4515 188.98 43.1039 184.514 30.2301 176.052C16.4521 166.996 6.93903 150.04 3.23235 127.931C1.51833 117.708 0.97229 109.739 1.00107 95.3749C1.05247 69.8796 3.78817 54.0812 10.6775 39.5C17.2889 25.507 25.5739 17.2167 39.4783 10.6808C54.2478 3.73821 70.2337 1 95.9953 1C121.757 1 137.743 3.73821 152.512 10.6808C166.404 17.211 174.634 25.4402 181.334 39.5C188.169 53.8448 190.937 69.844 190.999 95.3749C191.075 126.436 186.923 145.115 176.35 161.286C166.477 176.388 148.497 185.963 123.79 189.276C110.91 191.003 93.7794 191.478 79.8641 190.494Z" fill="url(#paint0_linear_108_75)"/>
<path d="M26.7205 110.883C26.1966 110.665 25.7216 110.222 25.4009 109.65C24.9082 108.772 24.901 108.628 24.9655 101C25.0287 93.541 25.0495 93.2185 25.5081 92.599C25.7704 92.2446 26.3242 91.7236 26.7387 91.441L27.4924 90.9273H45.1373C60.7829 90.9273 62.9554 90.9701 64.3109 91.3049C66.9427 91.955 68.9262 93.5848 69.9545 95.9423C70.3603 96.8725 70.3992 97.5159 70.3992 103.287V109.612L69.8441 110.204C69.0175 111.086 67.8009 111.345 66.6505 110.884C64.9317 110.195 64.8503 109.919 64.729 104.379C64.6243 99.5962 64.6086 99.4654 64.0122 98.4007C63.6592 97.7706 62.9555 97.0014 62.3412 96.5742L61.28 95.8361L57.8251 95.7633C53.9544 95.6817 53.1671 95.8928 51.9532 97.3376C50.6364 98.9048 50.5901 99.1236 50.4356 104.512C50.3564 107.275 50.2761 109.545 50.2573 109.557C50.2384 109.569 49.9922 109.842 49.71 110.164C49.4279 110.486 48.7575 110.879 48.2202 111.037C47.3863 111.283 47.1312 111.271 46.4761 110.958C46.054 110.757 45.4494 110.251 45.1326 109.835C44.5619 109.086 44.5557 109.03 44.483 103.96C44.4279 100.122 44.3382 98.8181 44.1245 98.7469C43.9678 98.6947 43.8395 98.5273 43.8395 98.3749C43.8395 97.9301 42.2052 96.4607 41.2821 96.0756C39.9599 95.524 34.9814 95.5784 33.8563 96.1568C32.8269 96.6859 31.5771 98.0639 31.3815 98.8852C31.3025 99.2174 31.157 99.5932 31.0583 99.7203C30.9596 99.8474 30.8455 102.122 30.8048 104.775L30.7307 109.598L30.1448 110.185C29.5282 110.802 28.5688 111.256 27.9231 111.236C27.7118 111.23 27.1706 111.071 26.7205 110.883ZM97.8709 110.884C96.8051 110.76 95.6204 110.51 95.2383 110.329C94.2218 109.847 92.8941 108.471 92.2954 107.281C91.3351 105.371 91.2595 104.352 91.2595 93.3176C91.2595 84.7423 91.3182 82.7017 91.5798 82.1983C92.9007 79.6559 96.2297 79.6559 97.5506 82.1983C97.8106 82.6989 97.8709 84.5967 97.8709 92.2865C97.8709 97.5858 97.9645 102.005 98.0833 102.318C98.4107 103.18 99.8188 104.424 100.801 104.719C101.9 105.049 108.897 105.073 110.767 104.753C113.602 104.268 114.969 103.011 114.969 100.887C114.969 98.6755 116.347 97.2886 118.322 97.5116C120.646 97.7739 121.463 100.097 120.48 103.647C119.479 107.262 117.194 109.476 113.26 110.645C111.858 111.061 100.865 111.232 97.8709 110.884ZM127.052 110.635C125.517 109.586 125.457 109.264 125.457 102.168C125.457 95.0445 125.525 94.6718 126.994 93.7623C128.657 92.7329 130.779 93.3297 131.617 95.0625C132.033 95.923 132.068 96.4844 132.068 102.26C132.067 107.767 132.019 108.619 131.669 109.318C130.798 111.054 128.587 111.685 127.052 110.635ZM137.941 110.792C136.552 110.037 136.242 107.815 137.162 105.213C137.811 103.376 138.644 102.04 140.101 100.497L141.226 99.3057L139.965 98.0231C137.959 95.982 136.628 93.1 136.628 90.8009C136.628 89.7491 136.715 89.5455 137.513 88.7469C138.283 87.9752 138.533 87.8605 139.443 87.8605C140.996 87.8605 141.835 88.6927 142.52 90.9149C143.481 94.034 145.782 95.7999 149.582 96.3362C152.955 96.8119 156.574 96.1063 158.385 94.6201C159.424 93.7678 160.565 91.8148 160.565 90.8907C160.565 89.9515 161.2 88.7974 161.977 88.323C163.676 87.2856 165.733 88.0464 166.293 89.9193C166.901 91.9521 165.357 96.0036 163.077 98.3598L161.779 99.6999L163.167 101.154C164.791 102.856 165.897 104.969 166.295 107.131C166.538 108.454 166.525 108.747 166.194 109.442C165.046 111.854 161.605 111.626 160.82 109.087C159.934 106.221 159.008 104.898 157.112 103.79C154.178 102.075 148.213 102.105 145.396 103.848C143.847 104.807 142.327 107.146 142.327 108.572C142.327 110.509 139.787 111.795 137.941 110.792ZM84.5388 95.078C83.4534 93.9911 83.5715 91.7204 84.7721 90.5908C85.569 89.8411 87.9641 89.7782 88.7601 90.4862C89.4406 91.0915 90.3475 93.162 90.3475 94.1104C90.3475 95.3721 89.8413 95.6233 87.2985 95.6233C85.2672 95.6233 85.0381 95.578 84.5388 95.078ZM99.0252 95.1936C98.6876 94.562 98.7279 93.6324 99.1449 92.4269C100.098 89.6708 102.548 88.8324 108.928 89.079C113.061 89.2388 113.417 89.3154 114.414 90.2572C115.125 90.9282 115.197 91.115 115.197 92.2719C115.197 93.7758 114.89 94.5546 114.079 95.1064C113.551 95.4659 112.724 95.5166 106.378 95.5782C99.4804 95.6452 99.2603 95.6337 99.0252 95.1936ZM127.376 91.0641C126.133 90.5607 125.244 88.6631 125.565 87.1996C125.897 85.6869 127.948 84.4352 129.495 84.8017C132.449 85.5021 132.937 89.5482 130.235 90.9474C129.527 91.314 128.133 91.3709 127.376 91.0641Z" fill="#F4F4F4"/>
<path d="M74.5644 102.253C74.5644 103.881 75.4951 105.227 76.8966 105.628C78.4825 106.081 79.7869 105.815 80.8154 104.828C82.6728 103.046 81.9493 99.8549 79.4299 98.7171C77.1747 97.6986 74.5644 99.5957 74.5644 102.253Z" fill="#76E0DB"/>
<defs>
<linearGradient id="paint0_linear_108_75" x1="96" y1="1" x2="96" y2="191" gradientUnits="userSpaceOnUse">
<stop stop-color="#01323A"/>
<stop offset="1" stop-color="#001B20"/>
</linearGradient>
</defs>
</svg>
