<svg width="192" height="192" viewBox="0 0 192 192" fill="none" xmlns="http://www.w3.org/2000/svg">
<path d="M79.8641 190.494C58.4515 188.98 43.1039 184.514 30.2301 176.052C16.4521 166.996 6.93903 150.04 3.23235 127.931C1.51833 117.708 0.97229 109.739 1.00107 95.3749C1.05247 69.8796 3.78817 54.0812 10.6775 39.5C17.2889 25.507 25.5739 17.2167 39.4783 10.6808C54.2478 3.73821 70.2337 1 95.9953 1C121.757 1 137.743 3.73821 152.512 10.6808C166.404 17.211 174.634 25.4402 181.334 39.5C188.169 53.8448 190.937 69.844 190.999 95.3749C191.075 126.436 186.923 145.115 176.35 161.286C166.477 176.388 148.497 185.963 123.79 189.276C110.91 191.003 93.7794 191.478 79.8641 190.494Z" fill="#01A146"/>
<path d="M60.1016 187.909C66.0893 189.134 72.6307 189.983 79.8642 190.494C93.7794 191.478 110.91 191.003 123.791 189.276C148.497 185.963 166.477 176.388 176.35 161.286C185.132 147.855 189.484 132.693 190.663 110.145C190.613 110.094 190.563 110.044 190.512 109.993C176.016 95.4971 152.513 95.4971 138.017 109.993L60.1016 187.909Z" fill="#FFC966"/>
<path d="M1.30865 82.2875C15.8232 96.5432 39.1459 96.4632 53.5616 82.0475L131.743 3.86634C121.908 1.8682 110.501 1 95.9954 1C70.2337 1 54.2479 3.73821 39.4784 10.6808C25.5739 17.2167 17.2889 25.507 10.6775 39.5C5.05029 51.4101 2.19423 64.1322 1.30865 82.2875Z" fill="#01B7EC"/>
<g style="mix-blend-mode:soft-light">
<path d="M30.2301 176.053C43.1039 184.514 58.4515 188.98 79.8641 190.494C93.7794 191.478 110.909 191.003 123.79 189.276C148.497 185.963 166.477 176.388 176.35 161.286C186.818 145.276 190.991 126.807 191 96.2991C191 96.2367 191 96.174 191 96.1114C191 95.8667 191 95.6212 190.999 95.3749C190.937 69.8441 188.169 53.8447 181.334 39.5001C174.634 25.4401 166.404 17.2111 152.512 10.6808C137.743 3.73828 121.757 1 95.9953 1C70.2336 1 54.2477 3.73828 39.4783 10.6808C25.5738 17.2167 17.2888 25.507 10.6775 39.5001C3.78811 54.0812 1.05248 69.8795 1.00107 95.3749C0.972307 109.739 1.51826 117.708 3.23229 127.931C6.93903 150.04 16.4521 166.997 30.2301 176.053Z" fill="url(#paint0_linear_108_78)"/>
</g>
<path d="M82.0373 154.569C74.9014 147.736 73.6153 146.214 72.5047 143.29C70.6206 138.329 71.1901 133.092 74.1366 128.285C75.5853 125.921 75.166 126.37 87.0922 114.419C92.714 108.786 97.2622 104.116 97.1992 104.042C97.1363 103.967 90.8366 105.996 83.1999 108.551C75.5633 111.106 69.064 113.229 68.757 113.268C68.3499 113.319 66.582 111.737 62.2223 107.42C58.9352 104.165 55.645 100.808 54.9108 99.9603C51.8714 96.4497 50.8408 90.2955 52.4175 85.0714C53.4792 81.5536 54.6422 80.0751 62.0623 72.8099C65.8335 69.1174 74.8166 60.2166 82.0248 53.0303C89.233 45.844 95.6116 39.6539 96.1994 39.2747C100.198 36.695 105.765 35.9851 110.616 37.4363C113.774 38.3812 115.815 39.925 122.68 46.5577C128.375 52.0615 129.001 52.7525 128.654 53.1583C128.442 53.4076 120.995 60.8934 112.108 69.7933C103.22 78.6932 95.89 86.1002 95.8192 86.2532C95.7483 86.4062 95.8043 86.4768 95.9437 86.41C96.5795 86.1052 123.595 77.2813 123.831 77.3016C124.167 77.3305 131.388 84.1507 134.679 87.5469C138.269 91.2523 139.256 92.856 140.307 96.6891C140.729 98.2303 140.847 99.4463 140.772 101.501C140.609 105.984 139.167 109.266 135.799 112.816C133.609 115.125 125.467 123.216 124.98 123.567C124.793 123.703 116.447 132.038 106.433 142.091C96.4202 152.143 88.2118 160.381 88.1923 160.398C88.173 160.415 85.4031 157.792 82.0373 154.569Z" fill="white"/>
<defs>
<linearGradient id="paint0_linear_108_78" x1="96" y1="1" x2="96" y2="191" gradientUnits="userSpaceOnUse">
<stop stop-color="#A5A4A4"/>
<stop offset="1" stop-color="#656565"/>
</linearGradient>
</defs>
</svg>
