<svg width="192" height="192" viewBox="0 0 192 192" fill="none" xmlns="http://www.w3.org/2000/svg">
<path d="M79.8641 190.494C58.4515 188.98 43.1039 184.514 30.2301 176.052C16.4521 166.996 6.93903 150.04 3.23235 127.931C1.51833 117.708 0.97229 109.739 1.00107 95.3749C1.05247 69.8796 3.78817 54.0812 10.6775 39.5C17.2889 25.507 25.5739 17.2167 39.4783 10.6808C54.2478 3.73821 70.2337 1 95.9953 1C121.757 1 137.743 3.73821 152.512 10.6808C166.404 17.211 174.634 25.4402 181.334 39.5C188.169 53.8448 190.937 69.844 190.999 95.3749C191.075 126.436 186.923 145.115 176.35 161.286C166.477 176.388 148.497 185.963 123.79 189.276C110.91 191.003 93.7794 191.478 79.8641 190.494Z" fill="url(#paint0_linear_118_518)"/>
<path d="M28.6772 79.5513C28.6772 77.8944 30.0203 76.5513 31.6772 76.5513H43.6421C47.1588 76.5513 50.1786 77.1383 52.7014 78.3125C55.2242 79.4866 57.1546 81.1531 58.4924 83.312C59.8685 85.433 60.5566 87.9895 60.5566 90.9816C60.5566 95.5645 59.0658 99.1627 56.0843 101.776C53.1027 104.352 48.9554 105.639 43.6421 105.639H39.9337C38.2768 105.639 36.9337 104.296 36.9337 102.639V99.1516C36.9337 97.4947 38.2768 96.1516 39.9337 96.1516H43.0688C45.5151 96.1516 47.3117 95.716 48.4584 94.8449C49.6052 93.9738 50.1786 92.686 50.1786 90.9816C50.1786 89.353 49.6052 88.1221 48.4584 87.2888C47.3117 86.4556 45.5151 86.039 43.0688 86.039H42.0552C40.3983 86.039 39.0552 87.3821 39.0552 89.039V113.945C39.0552 115.602 37.712 116.945 36.0552 116.945H31.6772C30.0203 116.945 28.6772 115.602 28.6772 113.945V79.5513Z" fill="white"/>
<path d="M66.1366 79.5513C66.1366 77.8944 67.4798 76.5513 69.1366 76.5513H73.744C75.4008 76.5513 76.744 77.8944 76.744 79.5513V108.654C76.744 110.021 75.0945 110.709 74.1236 109.747C73.1479 108.78 73.8325 107.116 75.2061 107.116H91.4038C93.0607 107.116 94.4038 108.46 94.4038 110.116V113.945C94.4038 115.602 93.0607 116.945 91.4038 116.945H69.1366C67.4798 116.945 66.1366 115.602 66.1366 113.945V79.5513Z" fill="white"/>
<path d="M99.1166 79.5513C99.1166 77.8944 100.46 76.5513 102.117 76.5513H109.251C110.355 76.5513 111.369 77.1572 111.892 78.1289L127.744 107.567C128.436 108.853 127.505 110.412 126.045 110.412C124.98 110.412 124.116 109.548 124.116 108.482V79.5513C124.116 77.8944 125.459 76.5513 127.116 76.5513H131.15C132.806 76.5513 134.15 77.8944 134.15 79.5513V113.945C134.15 115.602 132.806 116.945 131.15 116.945H124.015C122.912 116.945 121.897 116.339 121.374 115.367L105.522 85.9292C104.83 84.6436 105.761 83.0847 107.221 83.0847C108.287 83.0847 109.151 83.9486 109.151 85.0143V113.945C109.151 115.602 107.807 116.945 106.151 116.945H102.117C100.46 116.945 99.1166 115.602 99.1166 113.945V79.5513Z" fill="white"/>
<path d="M172.994 94.4423C172.918 94.0294 172.76 93.6451 172.535 93.3228C172.309 93.0006 172.021 92.7499 171.698 92.5926L162.543 88.1485L164.437 72.8189C164.507 72.2684 164.429 71.7054 164.216 71.2124C164.002 70.7194 163.664 70.3224 163.251 70.0795C162.838 69.8367 162.372 69.7609 161.921 69.8632C161.47 69.9655 161.058 70.2405 160.745 70.6479L140.711 96.7002C140.473 97.0098 140.301 97.3851 140.209 97.7937C140.118 98.2023 140.109 98.6319 140.185 99.0452C140.261 99.4586 140.419 99.8432 140.645 100.166C140.871 100.489 141.159 100.739 141.482 100.897L150.637 105.341L148.743 120.677C148.673 121.228 148.751 121.791 148.964 122.284C149.178 122.777 149.516 123.174 149.929 123.416C150.342 123.659 150.808 123.735 151.259 123.633C151.71 123.531 152.122 123.256 152.435 122.848L172.469 96.7957C172.708 96.4853 172.881 96.1085 172.972 95.6983C173.064 95.2881 173.072 94.8569 172.994 94.4423ZM154.014 113.15L155.136 104.082C155.207 103.501 155.116 102.909 154.875 102.399C154.634 101.89 154.259 101.495 153.81 101.277L145.99 97.4796L159.166 80.3459L158.044 89.4142C157.973 89.9946 158.065 90.5874 158.305 91.0965C158.546 91.6056 158.921 92.0012 159.37 92.2192L167.19 96.0163L154.014 113.15Z" fill="#F8EF77"/>
<defs>
<linearGradient id="paint0_linear_118_518" x1="96" y1="1" x2="96" y2="191" gradientUnits="userSpaceOnUse">
<stop stop-color="#0C92D0"/>
<stop offset="1" stop-color="#09709F"/>
</linearGradient>
</defs>
</svg>
