<svg width="192" height="192" viewBox="0 0 192 192" fill="none" xmlns="http://www.w3.org/2000/svg">
<path d="M79.8641 190.494C58.4515 188.98 43.1039 184.514 30.2301 176.052C16.4521 166.996 6.93903 150.04 3.23235 127.931C1.51833 117.708 0.97229 109.739 1.00107 95.3749C1.05247 69.8796 3.78817 54.0812 10.6775 39.5C17.2889 25.507 25.5739 17.2167 39.4783 10.6808C54.2478 3.73821 70.2337 1 95.9953 1C121.757 1 137.743 3.73821 152.512 10.6808C166.404 17.211 174.634 25.4402 181.334 39.5C188.169 53.8448 190.937 69.844 190.999 95.3749C191.075 126.436 186.923 145.115 176.35 161.286C166.477 176.388 148.497 185.963 123.79 189.276C110.91 191.003 93.7794 191.478 79.8641 190.494Z" fill="url(#paint0_linear_108_82)"/>
<path fill-rule="evenodd" clip-rule="evenodd" d="M53.0284 149.704C53.466 153.207 56.4439 155.836 59.9744 155.836H86.0091C87.4919 155.836 88.9363 156.307 90.1343 157.181L90.2785 157.286C92.0214 158.556 94.1218 159.239 96.2767 159.239C98.4315 159.239 100.532 158.556 102.275 157.286L102.423 157.178C103.62 156.306 105.063 155.836 106.544 155.836H132.581C136.112 155.836 139.09 153.207 139.527 149.703L141.583 133.242C141.822 131.323 142.845 129.589 144.407 128.451L160.686 116.594C162.097 115.566 163.089 114.05 163.369 112.327C163.959 108.71 164.254 105.05 164.254 101.383C164.254 63.8102 133.801 33.3164 96.278 33.3164C58.7539 33.3164 28.3019 63.8102 28.3019 101.383C28.3019 105.049 28.5983 108.708 29.186 112.324C29.4664 114.049 30.4584 115.567 31.871 116.596L48.1475 128.451C49.7103 129.589 50.7327 131.323 50.9723 133.242L53.0284 149.704ZM59.3144 121.854C60.8773 122.992 61.8997 124.726 62.1391 126.645L63.53 137.791C63.9672 141.295 66.9453 143.924 70.4761 143.924H87.092C88.5735 143.924 90.0168 144.394 91.2141 145.267L93.0804 146.627C94.0117 147.303 95.1305 147.668 96.2806 147.668C97.4308 147.668 98.5498 147.303 99.4797 146.627L101.348 145.266C102.545 144.394 103.988 143.924 105.469 143.924L122.083 143.924C125.614 143.924 128.592 141.295 129.029 137.792L130.421 126.645C130.66 124.726 131.683 122.992 133.245 121.854L150.71 109.132C151.187 108.785 151.532 108.284 151.66 107.709C152.124 105.633 152.36 103.511 152.36 101.383C152.36 101.129 152.356 100.875 152.35 100.622C152.34 100.241 152.322 99.8611 152.297 99.4818C151.974 94.5659 146.112 93.373 142.65 96.8782L113.285 126.611L148.139 83.5243C148.575 82.9861 148.739 82.2737 148.548 81.608C147.831 79.0965 146.78 76.7051 145.432 74.4947C143.126 70.7123 137.877 71.5258 135.659 75.36L108.09 123.008L135.361 64.7748C135.954 63.5068 135.815 62.0007 134.889 60.9506C132.969 58.7741 130.739 56.906 128.279 55.4028C124.926 53.3546 120.883 55.5701 119.806 59.3482L102.286 120.821L116.156 51.4684C116.374 50.3793 115.872 49.2629 114.872 48.7802C110.966 46.8956 106.68 45.9128 102.331 45.9128C102.265 45.9128 102.199 45.913 102.133 45.9135C100.433 45.9253 99.1313 47.3433 99.0647 49.0424L96.2794 120.104L93.3922 46.4793C93.3834 46.2531 93.2103 46.067 92.9849 46.0454C92.0696 45.9576 91.1491 45.9128 90.2295 45.9128C89.9187 45.9128 89.6082 45.9178 89.2982 45.9278C86.3416 46.0232 83.4262 46.5719 80.6508 47.5484C77.796 48.5528 76.4389 51.6497 77.0325 54.6173L90.2757 120.821L71.1031 53.5555C70.9319 52.955 70.2994 52.6109 69.7106 52.8191C67.6885 53.5341 65.7614 54.4691 63.9615 55.6013C62.1698 56.7283 60.5041 58.0508 58.9962 59.5464C57.1588 61.3689 56.9219 64.179 58.0194 66.5228L84.4692 123.008L53.4303 69.3609C53.0046 68.6251 52.0097 68.4639 51.4073 69.0637C48.4755 71.9825 46.2094 75.4942 44.7541 79.3558C43.9827 81.4026 44.5349 83.6686 45.9107 85.3691L79.2758 126.611L49.911 96.8803C46.4485 93.3746 40.5855 94.5686 40.2627 99.4854C40.2213 100.116 40.2005 100.749 40.2005 101.383C40.2005 102.976 40.3323 104.566 40.5933 106.135C40.86 107.739 41.8316 109.119 43.1459 110.076L59.3144 121.854Z" fill="url(#paint1_linear_108_82)"/>
<defs>
<linearGradient id="paint0_linear_108_82" x1="96" y1="1" x2="96" y2="191" gradientUnits="userSpaceOnUse">
<stop stop-color="#FFDC2F"/>
<stop offset="1" stop-color="#FFD400"/>
</linearGradient>
<linearGradient id="paint1_linear_108_82" x1="96.278" y1="33.3164" x2="167.319" y2="190.163" gradientUnits="userSpaceOnUse">
<stop stop-color="#ED1C24"/>
<stop offset="1" stop-color="#BD1117"/>
</linearGradient>
</defs>
</svg>
