<svg width="192" height="192" viewBox="0 0 192 192" fill="none" xmlns="http://www.w3.org/2000/svg">
<path d="M79.8641 190.494C58.4515 188.98 43.1039 184.514 30.2301 176.052C16.4521 166.996 6.93903 150.04 3.23235 127.931C1.51833 117.708 0.97229 109.739 1.00107 95.3749C1.05247 69.8796 3.78817 54.0812 10.6775 39.5C17.2889 25.507 25.5739 17.2167 39.4783 10.6808C54.2478 3.73821 70.2337 1 95.9953 1C121.757 1 137.743 3.73821 152.512 10.6808C166.404 17.211 174.634 25.4402 181.334 39.5C188.169 53.8448 190.937 69.844 190.999 95.3749C191.075 126.436 186.923 145.115 176.35 161.286C166.477 176.388 148.497 185.963 123.79 189.276C110.91 191.003 93.7794 191.478 79.8641 190.494Z" fill="url(#paint0_linear_108_79)"/>
<path fill-rule="evenodd" clip-rule="evenodd" d="M92.7271 29.5919C91.9805 29.7118 90.7858 29.9817 90.0392 30.1916C89.2926 30.4164 88.0979 30.8212 87.3513 31.1211C86.6047 31.4059 85.3354 32.0206 84.5141 32.4854C83.6928 32.9502 82.3787 33.8047 81.6022 34.4044C80.8257 34.9891 79.4369 36.2485 78.526 37.178C77.6151 38.1226 76.4802 39.4269 75.9875 40.0866C75.4947 40.7462 74.763 41.8557 74.3299 42.5603C73.9118 43.265 73.3145 44.3444 73.0158 44.9591C72.7023 45.5738 72.1647 46.8182 71.8063 47.7327C71.4479 48.6473 70.9253 50.2964 70.6415 51.4059C70.3578 52.5153 70.0293 54.1345 69.9098 55.004C69.7754 55.8736 69.641 57.103 69.5962 57.7477L69.5066 58.9021H44.0463C42.9562 59.4718 42.6277 59.7716 42.4186 60.1764C42.1648 60.6862 42.12 61.001 42.1498 62.2004C42.1648 62.98 42.9861 81.3308 43.9716 102.98C45.5396 137.672 45.7785 142.47 46.0323 143.459C46.1966 144.074 46.4953 144.989 46.6894 145.483C46.8835 145.978 47.3166 146.788 47.6301 147.283C47.9587 147.777 48.6754 148.632 49.228 149.202C50.0045 149.966 50.5719 150.371 51.6321 150.881C52.3788 151.256 53.4689 151.66 54.0512 151.78C54.9472 151.975 60.6665 152.005 95.6091 152.005C124.34 152.005 136.42 151.96 137.182 151.84C137.779 151.75 138.78 151.48 139.392 151.241C140.004 151.016 140.915 150.536 141.408 150.191C141.901 149.861 142.603 149.292 142.946 148.962C143.304 148.617 143.887 147.927 144.245 147.432C144.604 146.938 145.096 146.098 145.335 145.558C145.589 145.019 145.888 144.179 146.022 143.684C146.142 143.19 146.291 142.32 146.336 141.735C146.381 141.151 147.306 122.8 148.367 100.956C149.442 79.0969 150.278 61.001 150.233 60.7312C150.188 60.4763 149.92 60.0115 149.666 59.7117C149.397 59.4268 148.934 59.112 148.65 59.037C148.352 58.9621 142.782 58.9021 135.509 58.9021H122.891C122.727 56.6382 122.533 55.169 122.369 54.1795C122.204 53.19 121.861 51.6457 121.607 50.7312C121.353 49.8167 120.92 48.5123 120.651 47.8077C120.383 47.103 119.785 45.7537 119.307 44.8092C118.844 43.8647 118.038 42.4404 117.53 41.6608C117.023 40.8812 116.097 39.6218 115.485 38.8872C114.857 38.1525 113.723 36.9382 112.946 36.2185C112.17 35.4989 110.945 34.4644 110.198 33.9397C109.452 33.4149 108.078 32.5754 107.137 32.0806C106.196 31.5859 104.718 30.9412 103.852 30.6563C102.986 30.3715 101.642 29.9817 100.865 29.8167C99.8202 29.5769 98.745 29.4869 96.7589 29.4419C94.8475 29.397 93.6828 29.4419 92.7271 29.5919ZM93.6231 36.7732C92.966 36.8782 91.861 37.148 91.1592 37.3729C90.4573 37.6128 89.2926 38.1076 88.5459 38.4974C87.7993 38.8722 86.7988 39.4869 86.306 39.8467C85.8132 40.2065 85.0367 40.8362 84.5887 41.226C84.1408 41.6158 83.3195 42.4704 82.7819 43.115C82.2294 43.7597 81.423 44.8542 80.9601 45.5588C80.5121 46.2635 79.8551 47.4029 79.5116 48.1075C79.1681 48.8122 78.6156 50.1615 78.3021 51.106C77.9885 52.0505 77.6002 53.4748 77.436 54.2544C77.2717 55.034 77.1074 56.1884 77.0477 56.8031C77.0029 57.4178 76.9282 58.1525 76.8984 58.4223L76.8237 58.9021H115.5C115.5 57.7926 115.395 56.7732 115.276 55.9036C115.141 55.034 114.872 53.6847 114.678 52.9051C114.469 52.1255 114.126 51.0161 113.902 50.4314C113.693 49.8466 113.185 48.7072 112.767 47.8826C112.364 47.0581 111.617 45.7837 111.109 45.0341C110.617 44.2994 109.631 43.1 108.929 42.3654C108.227 41.6308 107.092 40.5963 106.391 40.0566C105.689 39.5318 104.449 38.7672 103.628 38.3624C102.807 37.9576 101.567 37.4629 100.865 37.253C100.164 37.0581 99.0735 36.8182 98.4314 36.7283C97.8042 36.6383 96.7291 36.5633 96.0422 36.5783C95.3702 36.5933 94.2801 36.6833 93.6231 36.7732ZM92.6524 74.3743C92.0402 74.4492 90.9352 74.6741 90.1885 74.869C89.4419 75.0489 88.2771 75.4388 87.5753 75.7086C86.8884 75.9935 85.7684 76.5632 85.0815 76.968C84.4095 77.3878 83.3941 78.0924 82.8416 78.5572C82.2742 79.007 81.3633 79.9515 80.8108 80.6561C80.2134 81.3908 79.4817 82.5452 79.0487 83.4147C78.6455 84.2393 78.1826 85.4537 78.0183 86.1134C77.8541 86.773 77.6749 88.0174 77.6301 88.887C77.5554 90.0114 77.6002 90.851 77.7794 91.8555C77.9138 92.6051 78.1677 93.6546 78.3618 94.1793C78.541 94.689 78.974 95.6186 79.3324 96.2333C79.6759 96.848 80.3478 97.8075 80.8257 98.3622C81.2886 98.9019 82.1099 99.7415 82.6475 100.206C83.1851 100.686 84.2901 101.511 85.1114 102.065C86.0223 102.665 87.4857 103.43 88.8446 103.999C90.0691 104.539 92.3538 105.454 93.9217 106.053C95.4897 106.638 97.1621 107.253 97.6549 107.403C98.1477 107.538 99.2079 107.927 99.9994 108.242C100.806 108.557 101.911 109.052 102.463 109.337C103.031 109.607 104.076 110.251 104.823 110.746C105.614 111.271 106.689 112.185 107.436 112.98C108.242 113.819 108.899 114.689 109.258 115.349C109.556 115.933 109.915 116.803 110.064 117.298C110.243 117.912 110.333 118.662 110.318 119.696C110.318 120.881 110.228 121.436 109.93 122.395C109.706 123.055 109.273 123.999 108.944 124.494C108.63 124.989 107.839 125.888 107.197 126.503C106.256 127.373 105.674 127.777 104.375 128.407C103.479 128.842 102.09 129.382 101.313 129.576C100.537 129.786 99.3274 130.026 98.6255 130.131C97.8341 130.236 96.5648 130.281 95.2657 130.221C94.0113 130.176 92.6076 130.011 91.7565 129.816C90.98 129.651 89.5315 129.232 88.5459 128.902C87.5604 128.572 86.0074 127.927 85.1114 127.463C84.2154 127.013 82.9312 126.293 82.2742 125.858C81.6171 125.424 80.5718 124.689 79.9596 124.209C79.3473 123.744 78.7202 123.37 78.5708 123.37C78.4364 123.37 78.1079 123.654 77.8541 124.014C77.6002 124.359 76.9432 125.304 76.4056 126.113C75.5843 127.313 75.435 127.627 75.5694 127.837C75.659 127.972 76.1219 128.422 76.6146 128.812C77.0925 129.217 78.1975 130.011 79.0636 130.596C79.9297 131.181 81.3334 132.005 82.1995 132.44C83.0656 132.875 84.4095 133.46 85.1861 133.759C85.9626 134.044 87.2468 134.464 88.0233 134.674C88.7998 134.884 90.2184 135.184 91.1592 135.349C92.0999 135.528 93.8172 135.723 94.967 135.798C96.3558 135.903 97.6549 135.903 98.8495 135.798C99.8351 135.723 101.418 135.483 102.359 135.259C103.299 135.049 104.539 134.704 105.121 134.509C105.704 134.299 106.63 133.894 107.212 133.594C107.794 133.31 108.556 132.875 108.929 132.62C109.302 132.365 110.064 131.795 110.631 131.331C111.199 130.866 112.095 129.951 112.618 129.292C113.17 128.617 113.932 127.388 114.395 126.443C114.857 125.499 115.38 124.149 115.604 123.295C115.948 121.96 115.992 121.511 116.007 119.172C116.022 117.058 115.962 116.338 115.738 115.499C115.589 114.914 115.246 113.984 114.992 113.4C114.723 112.815 114.245 111.945 113.902 111.451C113.573 110.956 112.946 110.146 112.498 109.666C112.05 109.187 111.229 108.392 110.646 107.927C110.064 107.448 109.034 106.698 108.332 106.248C107.63 105.783 106.361 105.049 105.495 104.584C104.629 104.119 102.986 103.355 101.836 102.86C100.686 102.365 98.4762 101.526 96.9083 100.986C95.3403 100.446 93.5484 99.8015 92.9063 99.5466C92.2791 99.2917 91.204 98.797 90.517 98.4671C89.8451 98.1223 88.8296 97.5226 88.2473 97.1328C87.6649 96.743 86.8735 96.1283 86.4703 95.7685C86.0671 95.4087 85.41 94.6441 85.0069 94.0594C84.5589 93.3997 84.1408 92.5751 83.9168 91.8555C83.648 91.0009 83.5434 90.3562 83.5434 89.4567C83.5434 88.767 83.648 87.8375 83.7674 87.3877C83.8869 86.938 84.2154 86.0984 84.4991 85.5137C84.7829 84.929 85.3802 84.0594 85.8132 83.5796C86.2463 83.0999 87.0079 82.4102 87.5006 82.0504C87.9934 81.7056 88.9043 81.1809 89.5166 80.881C90.1288 80.5812 91.1741 80.1913 91.8311 80.0114C92.8615 79.7266 93.414 79.6816 95.7883 79.6816C98.1029 79.6666 98.8346 79.7266 100.268 80.0114C101.209 80.2063 102.762 80.6261 103.703 80.941C104.643 81.2408 106.122 81.8555 106.988 82.2903C107.854 82.7251 108.959 83.3398 109.452 83.6546C109.945 83.9695 110.512 84.2393 110.721 84.2393C111.035 84.2393 111.274 83.9694 112.244 82.4102C112.886 81.3907 113.409 80.4312 113.409 80.2663C113.409 80.1014 113.26 79.8315 113.08 79.6516C112.886 79.4867 112.334 79.0969 111.841 78.812C111.348 78.5122 110.198 77.8975 109.302 77.4477C108.407 76.998 106.958 76.3833 106.092 76.0834C105.226 75.7686 104.016 75.3938 103.404 75.2438C102.792 75.0789 101.746 74.854 101.089 74.7341C100.432 74.5992 99.193 74.4343 98.3269 74.3443C97.4608 74.2693 96.087 74.1944 95.2657 74.2094C94.4444 74.2244 93.2647 74.2993 92.6524 74.3743Z" fill="white"/>
<defs>
<linearGradient id="paint0_linear_108_79" x1="96" y1="1" x2="96" y2="191" gradientUnits="userSpaceOnUse">
<stop stop-color="#FF401D"/>
<stop offset="1" stop-color="#CE371B"/>
</linearGradient>
</defs>
</svg>
