<svg width="192" height="192" viewBox="0 0 192 192" fill="none" xmlns="http://www.w3.org/2000/svg">
<path d="M79.8641 190.494C58.4515 188.98 43.1039 184.514 30.2301 176.052C16.4521 166.996 6.93903 150.04 3.23235 127.931C1.51833 117.708 0.97229 109.739 1.00107 95.3749C1.05247 69.8796 3.78817 54.0812 10.6775 39.5C17.2889 25.507 25.5739 17.2167 39.4783 10.6808C54.2478 3.73821 70.2337 1 95.9953 1C121.757 1 137.743 3.73821 152.512 10.6808C166.404 17.211 174.634 25.4402 181.334 39.5C188.169 53.8448 190.937 69.844 190.999 95.3749C191.075 126.436 186.923 145.115 176.35 161.286C166.477 176.388 148.497 185.963 123.79 189.276C110.91 191.003 93.7794 191.478 79.8641 190.494Z" fill="url(#paint0_linear_108_81)"/>
<path d="M43.3936 150.979C39.1819 149.819 35.8571 146.324 34.9804 142.134C34.5641 140.144 34.5509 58.0676 34.9665 56.2645C35.9217 52.1214 39.468 48.4339 43.3783 47.5178C45.679 46.9789 130.288 39.6435 131.197 39.9042C132.542 40.2899 133.58 41.0182 134.318 42.0939C134.985 43.0664 135.012 43.2912 135.095 48.6234C135.177 53.8936 135.154 54.1804 134.584 54.9048L133.987 55.6639L91.4804 55.737L48.974 55.81L48.2946 56.5997C47.921 57.0341 47.6155 57.7224 47.6155 58.1293C47.6155 59.3945 48.7279 61.2817 49.951 62.0911L51.0923 62.8465L99.5242 62.9872L147.956 63.128L149.504 63.7606C152.649 65.0461 155.273 67.8837 156.255 71.0609C156.81 72.8595 156.822 73.605 156.822 107.006C156.822 144.045 156.869 142.851 155.284 145.551C154.482 146.917 152.321 149.06 150.911 149.888C148.261 151.447 151.261 151.367 95.7643 151.347C56.044 151.332 44.378 151.25 43.3936 150.979ZM103.759 137.723C107.408 136.645 109.361 135.517 111.795 133.08C115.158 129.714 116.413 126.61 116.411 121.672C116.408 118.166 115.916 116.39 114.289 114.025C111.277 109.646 106.202 106.616 95.8858 103.037C90.883 101.301 88.1152 99.8196 86.0148 97.7537C83.8964 95.6703 83.2439 94.0244 83.4087 91.1801C83.5437 88.8493 84.3195 87.1822 86.0957 85.406C88.68 82.8218 92.2274 81.6791 96.8709 81.9351C100.864 82.1553 103.687 82.9427 107.707 84.9575L111.085 86.6501L111.788 85.8152C112.175 85.356 112.802 84.408 113.182 83.7085C113.868 82.4441 113.869 82.4332 113.323 81.8293C112.442 80.8554 106.816 78.2632 103.908 77.4915C98.0661 75.9411 93.0481 75.9487 88.3349 77.5148C79.2307 80.5401 74.7402 89.8169 78.4883 97.8568C79.5265 100.084 83.4203 103.895 86.0714 105.279C88.1874 106.384 94.5324 108.918 97.856 109.986C105.727 112.514 110.479 117.051 110.498 122.057C110.508 124.663 109.789 126.557 108.08 128.427C104.422 132.43 97.2017 133.93 90.2927 132.123C86.9152 131.24 83.641 129.693 80.7263 127.602C79.5248 126.74 78.3754 126.034 78.172 126.034C77.6702 126.034 74.8349 130.177 75.073 130.562C75.1772 130.731 76.2785 131.622 77.5203 132.543C81.238 135.299 86.2084 137.366 90.9603 138.13C92.1213 138.316 93.2612 138.515 93.4934 138.571C93.7256 138.627 95.5621 138.627 97.5746 138.571C100.501 138.49 101.739 138.32 103.759 137.723Z" fill="white"/>
<defs>
<linearGradient id="paint0_linear_108_81" x1="96" y1="1" x2="96" y2="191" gradientUnits="userSpaceOnUse">
<stop stop-color="#FF401D"/>
<stop offset="1" stop-color="#CE371B"/>
</linearGradient>
</defs>
</svg>
