<svg width="192" height="192" viewBox="0 0 192 192" fill="none" xmlns="http://www.w3.org/2000/svg">
<path d="M79.8641 190.494C58.4515 188.98 43.1039 184.514 30.2301 176.052C16.4521 166.996 6.93903 150.04 3.23235 127.931C1.51833 117.708 0.97229 109.739 1.00107 95.3749C1.05247 69.8796 3.78817 54.0812 10.6775 39.5C17.2889 25.507 25.5739 17.2167 39.4783 10.6808C54.2478 3.73821 70.2337 1 95.9953 1C121.757 1 137.743 3.73821 152.512 10.6808C166.404 17.211 174.634 25.4402 181.334 39.5C188.169 53.8448 190.937 69.844 190.999 95.3749C191.075 126.436 186.923 145.115 176.35 161.286C166.477 176.388 148.497 185.963 123.79 189.276C110.91 191.003 93.7794 191.478 79.8641 190.494Z" fill="url(#paint0_linear_108_80)"/>
<path d="M96.278 33.3164C61.6374 33.3164 33.3166 61.6373 33.3166 96.2779C33.3166 130.919 61.6374 159.239 96.278 159.239C130.919 159.239 159.24 130.919 159.24 96.2779C159.24 61.6373 131.222 33.3164 96.278 33.3164ZM125.24 124.296C123.985 126.181 121.774 126.814 119.889 125.543C105.093 116.426 86.523 114.537 64.4707 119.562C62.2789 120.211 60.39 118.637 59.7525 116.729C59.1387 114.537 60.697 112.652 62.5819 112.018C86.523 106.667 107.304 108.858 123.658 118.944C125.874 119.888 126.177 122.407 125.236 124.296H125.24ZM132.8 106.977C131.222 109.193 128.392 110.137 126.177 108.555C109.189 98.1628 83.3631 95.0305 63.546 101.319C61.0236 101.933 58.1746 100.685 57.5607 98.1589C56.9271 95.6404 58.1746 92.8111 60.697 92.1775C83.6936 85.2478 112.014 88.7304 131.529 100.681C133.433 101.626 134.378 104.782 132.8 106.977ZM133.437 89.3521C113.27 77.3776 79.5933 76.1302 60.39 82.1155C57.238 83.056 54.0978 81.1711 53.1534 78.3221C52.2129 75.1858 54.0978 72.0298 56.9271 71.0854C79.2903 64.4705 116.115 65.7376 139.422 79.5892C142.252 81.1671 143.188 84.9409 141.614 87.7702C140.036 89.9857 136.263 90.9222 133.433 89.3482L133.437 89.3521Z" fill="white"/>
<defs>
<linearGradient id="paint0_linear_108_80" x1="96" y1="1" x2="96" y2="191" gradientUnits="userSpaceOnUse">
<stop stop-color="#14C255"/>
<stop offset="1" stop-color="#12A348"/>
</linearGradient>
</defs>
</svg>
