<svg width="192" height="192" viewBox="0 0 192 192" fill="none" xmlns="http://www.w3.org/2000/svg">
<path d="M79.8641 190.494C58.4515 188.98 43.1039 184.514 30.2301 176.052C16.4521 166.996 6.93903 150.04 3.23235 127.931C1.51833 117.708 0.97229 109.739 1.00107 95.3749C1.05247 69.8796 3.78817 54.0813 10.6775 39.5C17.2889 25.507 25.5739 17.2167 39.4783 10.6808C54.2478 3.73821 70.2337 1 95.9953 1C121.757 1 137.743 3.73821 152.512 10.6808C166.404 17.211 174.634 25.4402 181.334 39.5C188.169 53.8448 190.937 69.844 190.999 95.3749C191.075 126.436 186.923 145.115 176.35 161.286C166.477 176.388 148.497 185.963 123.79 189.276C110.91 191.003 93.7794 191.478 79.8641 190.494Z" fill="url(#paint0_linear_108_83)"/>
<path fill-rule="evenodd" clip-rule="evenodd" d="M129.907 58.9772C131.14 58.4574 132.49 58.2781 133.816 58.458C135.141 58.6379 136.395 59.1704 137.445 60.0001C138.496 60.8297 139.305 61.9262 139.789 63.1754C140.273 64.4246 140.414 65.7809 140.196 67.103L128.879 135.853C127.781 142.484 120.516 146.287 114.443 142.984C109.363 140.221 101.818 135.963 95.032 131.52C91.6389 129.296 81.2447 122.175 82.5222 117.107C83.6199 112.775 101.085 96.4929 111.065 86.8129C114.982 83.0098 113.196 80.816 108.57 84.3142C97.0829 92.9997 78.6399 106.208 72.5422 109.926C67.163 113.204 64.3586 113.764 61.0053 113.204C54.8876 112.185 49.214 110.606 44.5833 108.682C38.3259 106.083 38.6302 97.4674 44.5783 94.9587L129.907 58.9772Z" fill="white"/>
<defs>
<linearGradient id="paint0_linear_108_83" x1="96" y1="1" x2="96" y2="191" gradientUnits="userSpaceOnUse">
<stop stop-color="#2FBBFF"/>
<stop offset="1" stop-color="#2CA5E0"/>
</linearGradient>
</defs>
</svg>
