<svg width="192" height="192" viewBox="0 0 192 192" fill="none" xmlns="http://www.w3.org/2000/svg">
<path d="M79.8641 190.494C58.4515 188.98 43.1039 184.514 30.2301 176.052C16.4521 166.996 6.93903 150.04 3.23235 127.931C1.51833 117.708 0.97229 109.739 1.00107 95.3749C1.05247 69.8796 3.78817 54.0812 10.6775 39.5C17.2889 25.507 25.5739 17.2167 39.4783 10.6808C54.2478 3.73821 70.2337 1 95.9953 1C121.757 1 137.743 3.73821 152.512 10.6808C166.404 17.211 174.634 25.4402 181.334 39.5C188.169 53.8448 190.937 69.844 190.999 95.3749C191.075 126.436 186.923 145.115 176.35 161.286C166.477 176.388 148.497 185.963 123.79 189.276C110.91 191.003 93.7794 191.478 79.8641 190.494Z" fill="url(#paint0_linear_118_324)"/>
<path fill-rule="evenodd" clip-rule="evenodd" d="M56.3543 59.2582V69.4048H85.0144V135.583C85.0144 144.875 91.6333 149.11 98.1183 149.11C104.603 149.11 108.718 146.951 108.718 146.951C108.718 146.951 104.763 143.748 104.746 129.521C104.729 115.721 104.746 72.2027 104.746 66.0629C104.746 59.9231 97.5915 48.874 85.8175 48.874H67.6232C61.6606 48.874 56.3543 53.7315 56.3543 59.2582ZM98.4464 48.874C98.0708 48.874 97.7686 49.1763 97.7686 49.5519C97.7686 49.9276 98.1442 50.2082 98.4464 50.4327C99.6942 51.3654 103.584 54.1244 105.445 57.8981C107.302 61.6718 107.349 65.0958 108.554 67.0733C109.763 69.0508 111.732 69.4048 113.813 69.4048H128.79C132.102 69.4048 133.402 67.1812 133.402 64.5431V48.874H98.4464Z" fill="white"/>
<defs>
<linearGradient id="paint0_linear_118_324" x1="96" y1="1" x2="96" y2="191" gradientUnits="userSpaceOnUse">
<stop stop-color="#C64C00"/>
<stop offset="1" stop-color="#C6000F"/>
</linearGradient>
</defs>
</svg>
