<svg width="192" height="192" viewBox="0 0 192 192" fill="none" xmlns="http://www.w3.org/2000/svg">
<path d="M79.8641 190.494C58.4515 188.98 43.1039 184.514 30.2301 176.052C16.4521 166.996 6.93903 150.04 3.23235 127.931C1.51833 117.708 0.97229 109.739 1.00107 95.3749C1.05247 69.8796 3.78817 54.0812 10.6775 39.5C17.2889 25.507 25.5739 17.2167 39.4783 10.6808C54.2478 3.73821 70.2337 1 95.9953 1C121.757 1 137.743 3.73821 152.512 10.6808C166.404 17.211 174.634 25.4402 181.334 39.5C188.169 53.8448 190.937 69.844 190.999 95.3749C191.075 126.436 186.923 145.115 176.35 161.286C166.477 176.388 148.497 185.963 123.79 189.276C110.91 191.003 93.7794 191.478 79.8641 190.494Z" fill="url(#paint0_linear_108_84)"/>
<path d="M67.9216 86.3162C67.9216 80.0803 69.5039 75.5844 72.6686 72.8284C75.9165 70.0167 81.1215 68.6108 88.2835 68.6108H90.8236V98.6348C90.8236 111.58 87.1315 119.876 79.7473 123.522C77.1657 124.803 74.0704 125.443 70.4617 125.443H67.9216V86.3162ZM58.0946 125.443C51.1269 125.443 45.9358 123.007 42.5213 118.136C39.3567 113.626 37.7744 107.126 37.7744 98.6348V68.6108H40.3144C47.4764 68.6108 52.6814 70.0167 55.9293 72.8284C59.094 75.5844 60.6763 80.0803 60.6763 86.3162V125.443H58.0946Z" fill="white"/>
<path d="M131.756 68.6108H135.503C145.719 68.6108 151.812 72.0767 153.783 79.0086C154.449 81.2913 154.782 83.9081 154.782 86.859V125.443H131.756V68.6108ZM101.525 68.6108H123.927V125.443H101.525V68.6108Z" fill="white"/>
<defs>
<linearGradient id="paint0_linear_108_84" x1="96" y1="1" x2="96" y2="191" gradientUnits="userSpaceOnUse">
<stop stop-color="#353434"/>
<stop offset="1" stop-color="#1A1A1A"/>
</linearGradient>
</defs>
</svg>
