<svg width="192" height="192" viewBox="0 0 192 192" fill="none" xmlns="http://www.w3.org/2000/svg">
<path d="M79.8641 190.494C58.4515 188.98 43.1039 184.514 30.2301 176.052C16.4521 166.996 6.93903 150.04 3.23235 127.931C1.51833 117.708 0.97229 109.739 1.00107 95.3749C1.05247 69.8796 3.78817 54.0812 10.6775 39.5C17.2889 25.507 25.5739 17.2167 39.4783 10.6808C54.2478 3.73821 70.2337 1 95.9953 1C121.757 1 137.743 3.73821 152.512 10.6808C166.404 17.211 174.634 25.4402 181.334 39.5C188.169 53.8448 190.937 69.844 190.999 95.3749C191.075 126.436 186.923 145.115 176.35 161.286C166.477 176.388 148.497 185.963 123.79 189.276C110.91 191.003 93.7794 191.478 79.8641 190.494Z" fill="url(#paint0_linear_108_85)"/>
<path d="M127.186 70.9087L95.5416 52.6699L63.9621 70.9087V52.6699L95.5416 34.4312L127.186 52.6699V70.9087Z" fill="black"/>
<path d="M63.9621 86.2472H80.5252V126.463C80.5252 136.839 88.259 141.93 95.606 141.93C102.953 141.93 110.687 136.71 110.687 126.334V86.2472H127.25V127.429C127.25 137.032 124.221 144.379 118.227 149.471C112.234 154.562 104.693 157.011 95.4771 157.011C86.3255 157.011 78.7851 154.562 72.9204 149.471C67.0556 144.379 64.0265 137.29 64.0265 127.881C63.9621 127.881 63.9621 86.2472 63.9621 86.2472Z" fill="white"/>
<defs>
<linearGradient id="paint0_linear_108_85" x1="96" y1="1" x2="96" y2="191" gradientUnits="userSpaceOnUse">
<stop stop-color="#A345E4"/>
<stop offset="1" stop-color="#8539B9"/>
</linearGradient>
</defs>
</svg>
