<svg width="192" height="192" viewBox="0 0 192 192" fill="none" xmlns="http://www.w3.org/2000/svg">
<g clip-path="url(#clip0_108_86)">
<path d="M79.8641 190.494C58.4515 188.98 43.1039 184.514 30.2301 176.052C16.4521 166.996 6.93903 150.04 3.23235 127.931C1.51833 117.708 0.97229 109.739 1.00107 95.3749C1.05247 69.8796 3.78817 54.0812 10.6775 39.5C17.2889 25.507 25.5739 17.2167 39.4783 10.6808C54.2478 3.73821 70.2337 1 95.9953 1C121.757 1 137.743 3.73821 152.512 10.6808C166.404 17.211 174.634 25.4402 181.334 39.5C188.169 53.8448 190.937 69.844 190.999 95.3749C191.075 126.436 186.923 145.115 176.35 161.286C166.477 176.388 148.497 185.963 123.79 189.276C110.91 191.003 93.7794 191.478 79.8641 190.494Z" fill="url(#paint0_linear_108_86)"/>
<g filter="url(#filter0_d_108_86)">
<path fill-rule="evenodd" clip-rule="evenodd" d="M47.8037 46.1323H76.6577L101.857 82.7856L133.019 46.1323H141.675L105.512 88.38L144.753 145.868H115.899L89.5459 107.285L56.2676 145.868H47.8037L85.5063 101.884L47.8037 46.1323ZM59.3453 52.4984L72.8105 52.8842L133.019 139.695L119.746 139.502L59.3453 52.4984Z" fill="#F5F5F5"/>
</g>
</g>
<defs>
<filter id="filter0_d_108_86" x="-0.196289" y="-1.86768" width="192.95" height="195.735" filterUnits="userSpaceOnUse" color-interpolation-filters="sRGB">
<feFlood flood-opacity="0" result="BackgroundImageFix"/>
<feColorMatrix in="SourceAlpha" type="matrix" values="0 0 0 0 0 0 0 0 0 0 0 0 0 0 0 0 0 0 127 0" result="hardAlpha"/>
<feOffset/>
<feGaussianBlur stdDeviation="24"/>
<feComposite in2="hardAlpha" operator="out"/>
<feColorMatrix type="matrix" values="0 0 0 0 0 0 0 0 0 0 0 0 0 0 0 0 0 0 0.25 0"/>
<feBlend mode="normal" in2="BackgroundImageFix" result="effect1_dropShadow_108_86"/>
<feBlend mode="normal" in="SourceGraphic" in2="effect1_dropShadow_108_86" result="shape"/>
</filter>
<linearGradient id="paint0_linear_108_86" x1="96" y1="1" x2="96" y2="191" gradientUnits="userSpaceOnUse">
<stop stop-color="#00ADEF"/>
<stop offset="1" stop-color="#0092CA"/>
</linearGradient>
<clipPath id="clip0_108_86">
<rect width="192" height="192" fill="white"/>
</clipPath>
</defs>
</svg>
